<svg xmlns="http://www.w3.org/2000/svg" width="24" height="24" viewBox="0 0 24 24" fill="none"><path d="M7 14L9.79289 11.2071C10.1834 10.8166 10.8166 10.8166 11.2071 11.2071L12.7929 12.7929C13.1834 13.1834 13.8166 13.1834 14.2071 12.7929L17 10" stroke="currentColor" stroke-linecap="round" stroke-linejoin="round" stroke-width="1.5" /><path d="M20.9993 13C21 12.6804 21 12.3473 21 12C21 7.75736 21 5.63604 19.682 4.31802C18.364 3 16.2426 3 12 3C7.75736 3 5.63604 3 4.31802 4.31802C3 5.63604 3 7.75736 3 12C3 16.2426 3 18.364 4.31802 19.682C5.63604 21 7.75736 21 12 21C12.3473 21 12.6804 21 13 20.9993" stroke="currentColor" stroke-linecap="round" stroke-linejoin="round" stroke-width="1.5" /><path d="M18.9737 16.0215C18.9795 15.9928 19.0205 15.9928 19.0263 16.0215C19.3302 17.5081 20.4919 18.6698 21.9785 18.9737C22.0072 18.9795 22.0072 19.0205 21.9785 19.0263C20.4919 19.3302 19.3302 20.4919 19.0263 21.9785C19.0205 22.0072 18.9795 22.0072 18.9737 21.9785C18.6698 20.4919 17.5081 19.3302 16.0215 19.0263C15.9928 19.0205 15.9928 18.9795 16.0215 18.9737C17.5081 18.6698 18.6698 17.5081 18.9737 16.0215Z" stroke="currentColor" stroke-linecap="round" stroke-linejoin="round" stroke-width="1.5" /></svg>