<svg xmlns="http://www.w3.org/2000/svg" width="24" height="24" viewBox="0 0 24 24" fill="none"><path d="M10 4H14C17.7712 4 19.6569 4 20.8284 5.17157C22 6.34315 22 8.22876 22 12C22 15.7712 22 17.6569 20.8284 18.8284C19.6569 20 17.7712 20 14 20H10C6.22876 20 4.34315 20 3.17157 18.8284C2 17.6569 2 15.7712 2 12C2 8.22876 2 6.34315 3.17157 5.17157C4.34315 4 6.22876 4 10 4Z" stroke="currentColor" stroke-linecap="round" stroke-linejoin="round" stroke-width="1.5" /><path d="M2 14H3.85765C5.3614 14 6.11328 14 6.75405 13.6684C6.79157 13.649 6.82868 13.6288 6.86536 13.6078C7.49186 13.249 7.90893 12.6122 8.74306 11.3386C10.181 9.1431 10.8999 8.04535 11.9159 8.0018C11.9719 7.9994 12.0281 7.9994 12.0841 8.0018C13.1001 8.04535 13.819 9.1431 15.2569 11.3386C16.0911 12.6122 16.5081 13.249 17.1346 13.6078C17.1713 13.6288 17.2084 13.649 17.2459 13.6684C17.8867 14 18.6386 14 20.1423 14H22" stroke="currentColor" stroke-linecap="round" stroke-linejoin="round" stroke-width="1.5" /></svg>