<svg xmlns="http://www.w3.org/2000/svg" width="24" height="24" viewBox="0 0 24 24" fill="none" stroke-width="1.5" stroke-linecap="round" stroke-linejoin="round" color="currentColor"><path d="M2.90147 22.0061H13.0815C13.4915 22.0061 13.8315 21.6661 13.8315 21.2561C13.8315 20.8461 13.4915 20.5061 13.0815 20.5061H2.89147C2.80147 20.5061 2.73147 20.4562 2.73147 20.4462C3.01147 19.3262 3.88147 18.4162 4.98147 18.0862L8.70147 16.9662C9.01147 16.8662 9.23147 16.5761 9.23147 16.2461V14.3062C9.23147 14.0762 9.12147 13.8562 8.94147 13.7162C7.27147 12.4062 6.23147 10.9361 6.23147 7.66614C6.23147 4.65614 7.73147 2.99609 10.4715 2.99609C12.213 2.99609 12.9345 3.71907 12.9611 3.74575L12.9615 3.74609C13.1015 3.90609 13.3115 3.99609 13.5215 3.99609C14.8815 3.99609 15.7315 4.60614 15.7315 7.66614C15.7315 10.9461 14.6915 12.4062 13.0215 13.7162C12.8415 13.8562 12.7315 14.0762 12.7315 14.3062V16.2461C12.7315 16.6561 13.0715 16.9961 13.4815 16.9961C13.8915 16.9961 14.2315 16.6561 14.2315 16.2461V14.6661C15.8215 13.3561 17.2315 11.5361 17.2315 7.66614C17.2315 6.29614 17.2315 2.7061 13.8215 2.5061C13.3615 2.1361 12.3115 1.49609 10.4815 1.49609C6.89147 1.49609 4.74147 3.79614 4.74147 7.66614C4.74147 11.5361 6.15147 13.3561 7.74147 14.6661V15.6862L4.56147 16.6461C2.96147 17.1361 1.70147 18.4462 1.29147 20.0762C1.18147 20.5362 1.27147 20.9961 1.56147 21.3661C1.87147 21.7661 2.37147 22.0061 2.90147 22.0061ZM17.75 22.2559C17.75 22.6659 18.09 23.0059 18.5 23.0059C18.91 23.0059 19.25 22.6659 19.25 22.2559V19.5059H22C22.41 19.5059 22.75 19.1659 22.75 18.7559C22.75 18.3459 22.41 18.0059 22 18.0059H19.25V15.2559C19.25 14.8459 18.91 14.5059 18.5 14.5059C18.09 14.5059 17.75 14.8459 17.75 15.2559V18.0059H15C14.59 18.0059 14.25 18.3459 14.25 18.7559C14.25 19.1659 14.59 19.5059 15 19.5059H17.75V22.2559Z" fill="currentColor" fill-rule="evenodd"></path></svg>