<svg xmlns="http://www.w3.org/2000/svg" width="24" height="24" viewBox="0 0 24 24" fill="none" stroke-width="1.5" stroke-linecap="round" stroke-linejoin="round" color="currentColor"><path d="M12.06 21.5124C11.5445 21.8375 11.2868 22 11 22C10.7132 22 10.4554 21.8374 9.94 21.5124L8.02913 20.3073C7.54415 20.0014 7.30166 19.8485 7.03253 19.8397C6.74172 19.8301 6.49493 19.9768 5.97087 20.3073C5.38395 20.6774 4.21687 21.6971 3.46195 21.2108C3 20.9133 3 20.1575 3 18.6458V8.00002C3 5.17158 3 3.75736 3.82699 2.87868C4.65399 2 5.98501 2 8.64706 2H13.3529C16.015 2 17.346 2 18.173 2.87868C19 3.75736 19 5.17158 19 8.00002V12" fill="none"></path><path d="M11 11H7" fill="none"></path><path d="M17 14V22M21 18L13 18" fill="none"></path><path d="M15 7L7 7" fill="none"></path></svg>