<svg xmlns="http://www.w3.org/2000/svg" width="24" height="24" viewBox="0 0 24 24" fill="none" stroke-width="1.5" stroke-linecap="round" stroke-linejoin="round" color="currentColor"><path d="M2.90537 22.6343H13.0954L13.0854 22.6643C13.4954 22.6643 13.8354 22.3243 13.8354 21.9143C13.8354 21.5043 13.4954 21.1643 13.0854 21.1643H2.89537C2.80537 21.1643 2.73537 21.1142 2.73537 21.1042C3.01537 19.9842 3.88537 19.0742 4.98537 18.7442L8.70538 17.6242C9.01538 17.5242 9.23537 17.2343 9.23537 16.9043V14.7442C9.23537 14.3742 8.95537 14.0543 8.57537 14.0043C7.66537 13.8843 6.79537 13.7143 6.00537 13.4743C6.40537 12.4143 6.73537 10.8343 6.73537 8.01426C6.73537 5.83426 7.57537 4.34433 9.08537 3.83433C10.4054 3.38433 11.8654 3.83428 12.3954 4.53428C12.5654 4.76428 12.8354 4.86432 13.1154 4.82432C13.8054 4.71432 14.2954 4.78427 14.5854 5.02427C15.2454 5.58427 15.2454 7.15425 15.2454 9.00425C15.2454 10.8543 15.6354 12.4543 15.9954 13.4643C15.1954 13.7043 14.3254 13.8742 13.4054 13.9942C13.0254 14.0342 12.7454 14.3542 12.7454 14.7342V16.8943C12.7454 17.3043 13.0854 17.6443 13.4954 17.6443C13.9054 17.6443 14.2454 17.3043 14.2454 16.8943V15.3843C15.3254 15.2043 16.3354 14.9542 17.2554 14.6142C17.4554 14.5442 17.6154 14.3843 17.6954 14.1843C17.7754 13.9843 17.7654 13.7643 17.6654 13.5743C17.3454 12.9443 16.7454 11.2042 16.7454 8.99424C16.7454 6.78424 16.7454 4.87424 15.5554 3.86424C14.9954 3.37424 14.2454 3.18427 13.2954 3.27427C12.2054 2.21427 10.2854 1.83427 8.61538 2.39427C7.60537 2.73427 5.24537 3.96424 5.24537 7.99424C5.24537 11.2942 4.77537 12.6643 4.32537 13.5643C4.22537 13.7543 4.21538 13.9743 4.29538 14.1743C4.37538 14.3743 4.53537 14.5342 4.73537 14.6042C5.65537 14.9442 6.66537 15.2042 7.74537 15.3742V16.3243L4.56537 17.2843C2.96537 17.7643 1.70538 19.0743 1.29538 20.7043C1.18538 21.1643 1.27537 21.6242 1.56537 21.9942C1.87537 22.3942 2.37537 22.6343 2.90537 22.6343ZM17.7559 22.8843C17.7559 23.2943 18.0959 23.6343 18.5059 23.6343C18.9159 23.6343 19.2559 23.2943 19.2559 22.8843V20.1343H22.0059C22.4159 20.1343 22.7559 19.7943 22.7559 19.3843C22.7559 18.9743 22.4159 18.6343 22.0059 18.6343H19.2559V15.8843C19.2559 15.4743 18.9159 15.1343 18.5059 15.1343C18.0959 15.1343 17.7559 15.4743 17.7559 15.8843V18.6343H15.0059C14.5959 18.6343 14.2559 18.9743 14.2559 19.3843C14.2559 19.7943 14.5959 20.1343 15.0059 20.1343H17.7559V22.8843Z" fill="currentColor" fill-rule="evenodd"></path></svg>