<svg xmlns="http://www.w3.org/2000/svg" width="24" height="24" viewBox="0 0 24 24" fill="none" stroke-width="1.5" stroke-linecap="round" stroke-linejoin="round" color="currentColor"><path d="M5.24609 7.5C5.24609 9.84 7.15609 11.75 9.49609 11.75C11.8361 11.75 13.7461 9.84 13.7461 7.5C13.7461 5.16 11.8361 3.25 9.49609 3.25C7.15609 3.25 5.24609 5.16 5.24609 7.5ZM6.74609 7.5C6.74609 5.98 7.97609 4.75 9.49609 4.75C11.0161 4.75 12.2461 5.98 12.2461 7.5C12.2461 9.02 11.0161 10.25 9.49609 10.25C7.97609 10.25 6.74609 9.02 6.74609 7.5ZM2.24609 20.0001C2.24609 20.4101 2.58609 20.7501 2.99609 20.7501C3.40609 20.7501 3.74609 20.4101 3.74609 20.0001V17.9701C3.74609 17.1301 4.07609 16.0901 4.99609 15.6701C7.29609 14.6301 10.2861 14.4601 12.7861 15.2101C13.1761 15.3301 13.5961 15.1001 13.7161 14.7101C13.8361 14.3201 13.6161 13.9001 13.2161 13.7801C10.3761 12.9301 7.0161 13.1202 4.37609 14.3102C3.05609 14.9102 2.24609 16.3101 2.24609 17.9701V20.0001ZM14.4949 11.6001C14.1749 11.6001 13.8749 11.3902 13.7749 11.0602C13.6549 10.6602 13.8849 10.2501 14.2749 10.1301C15.4449 9.78012 16.2349 8.72011 16.2349 7.50011C16.2349 6.28011 15.4249 5.2001 14.2749 4.8601C13.8749 4.7401 13.6549 4.32016 13.7749 3.93016C13.8949 3.53016 14.3149 3.31016 14.7049 3.43016C16.4949 3.96016 17.7449 5.64012 17.7449 7.51012C17.7449 9.38012 16.5249 11.0401 14.7049 11.5801C14.6349 11.6001 14.5649 11.6101 14.4949 11.6101V11.6001ZM17.2461 20C17.2461 20.41 17.5861 20.75 17.9961 20.75C18.4061 20.75 18.7461 20.41 18.7461 20V17.75H20.9961C21.4061 17.75 21.7461 17.41 21.7461 17C21.7461 16.59 21.4061 16.25 20.9961 16.25H18.7461V14C18.7461 13.59 18.4061 13.25 17.9961 13.25C17.5861 13.25 17.2461 13.59 17.2461 14V16.25H14.9961C14.5861 16.25 14.2461 16.59 14.2461 17C14.2461 17.41 14.5861 17.75 14.9961 17.75H17.2461V20Z" fill="currentColor" fill-rule="evenodd"></path></svg>