<svg xmlns="http://www.w3.org/2000/svg" width="24" height="24" viewBox="0 0 24 24" fill="none" stroke-width="1.5" stroke-linecap="round" stroke-linejoin="round" color="currentColor"><path d="M4.14587 21.6823C5.53587 23.0723 7.52586 23.0723 11.5059 23.0723H12.5059C16.4859 23.0723 18.4758 23.0723 19.8658 21.6823C21.2558 20.2923 21.2559 18.2923 21.2559 14.3223V10.3223C21.2559 6.34227 21.2558 4.35226 19.8658 2.96227C18.4758 1.57227 16.4859 1.57227 12.5059 1.57227H12.0059C11.5959 1.57227 11.2559 1.91227 11.2559 2.32227C11.2559 2.73227 11.5959 3.07227 12.0059 3.07227H12.5059H12.5059C16.0659 3.07227 17.8559 3.07227 18.8059 4.02226C19.7559 4.97221 19.7559 6.76208 19.7559 10.3217V10.3223V14.3223V14.3228C19.7559 17.8825 19.7559 19.6723 18.8059 20.6223C17.8559 21.5723 16.0659 21.5723 12.5059 21.5723H11.5059C7.94586 21.5723 6.15581 21.5723 5.20581 20.6223C4.25586 19.6723 4.25586 17.8824 4.25586 14.3228V14.3223V9.32227C4.25586 8.91227 3.91586 8.57227 3.50586 8.57227C3.09586 8.57227 2.75586 8.91227 2.75586 9.32227V14.3223C2.75586 18.3023 2.75587 20.2923 4.14587 21.6823ZM13.5059 18.0723H17.5059C17.9159 18.0723 18.2559 17.7323 18.2559 17.3223C18.2559 16.9123 17.9159 16.5723 17.5059 16.5723H13.5059C13.0959 16.5723 12.7559 16.9123 12.7559 17.3223C12.7559 17.7323 13.0959 18.0723 13.5059 18.0723ZM17.5059 8.07227H13.5059C13.0959 8.07227 12.7559 7.73227 12.7559 7.32227C12.7559 6.91227 13.0959 6.57227 13.5059 6.57227H17.5059C17.9159 6.57227 18.2559 6.91227 18.2559 7.32227C18.2559 7.73227 17.9159 8.07227 17.5059 8.07227ZM13.5059 13.0723H17.5059C17.9159 13.0723 18.2559 12.7323 18.2559 12.3223C18.2559 11.9123 17.9159 11.5723 17.5059 11.5723H13.5059C13.0959 11.5723 12.7559 11.9123 12.7559 12.3223C12.7559 12.7323 13.0959 13.0723 13.5059 13.0723ZM8.00583 19.0722C7.70583 19.0722 7.43589 18.8922 7.31589 18.6222C6.96494 17.8065 6.38006 17.5755 6.30369 17.5454L6.29587 17.5422C5.90587 17.4222 5.68587 17.0022 5.79587 16.6122C5.91587 16.2222 6.31578 15.9922 6.70578 16.1022C6.79578 16.1222 7.3158 16.2822 7.8558 16.7922C8.3958 15.7422 9.32587 14.3222 10.6759 13.6522C11.0459 13.4622 11.4959 13.6222 11.6859 13.9922C11.8759 14.3622 11.7258 14.8122 11.3458 15.0022C9.65579 15.8522 8.7358 18.5422 8.7258 18.5722C8.6258 18.8622 8.35587 19.0722 8.04587 19.0822H8.01584L8.00583 19.0722ZM6.55615 8.8522C6.70615 9.0022 6.89606 9.07221 7.08606 9.07221C7.27606 9.07221 7.46609 8.9922 7.61609 8.8522C7.76609 8.7122 8.02606 8.50221 8.33606 8.25221C9.75606 7.10221 10.7561 6.23221 10.7561 5.32221C10.7561 4.41221 9.75606 3.53221 8.33606 2.39221C8.02606 2.15221 7.76609 1.94221 7.61609 1.79221C7.32609 1.50221 6.84615 1.50221 6.55615 1.79221C6.26615 2.08221 6.26615 2.5622 6.55615 2.8522C6.72615 3.0222 7.02611 3.2722 7.38611 3.5622C7.4285 3.59703 7.47594 3.63575 7.52734 3.67771C7.81543 3.91287 8.22813 4.24974 8.57605 4.57221H3.49609C3.08609 4.57221 2.74609 4.91221 2.74609 5.32221C2.74609 5.73221 3.08609 6.07221 3.49609 6.07221H8.57605C8.16605 6.45221 7.67611 6.85221 7.38611 7.08221C7.3288 7.12969 7.27257 7.1761 7.21786 7.22126C6.93837 7.45193 6.69832 7.65004 6.55615 7.79221C6.26615 8.08221 6.26615 8.5622 6.55615 8.8522Z" fill="currentColor" fill-rule="evenodd"></path></svg>