<svg xmlns="http://www.w3.org/2000/svg" width="24" height="24" viewBox="0 0 24 24" fill="none" stroke-width="1.5" stroke-linecap="round" stroke-linejoin="round" color="currentColor"><path d="M11 9.5H12.5C13.3284 9.5 14 10.1716 14 11M11 9.5H9.5C8.67157 9.5 8 10.1716 8 11V11.5C8 12.3284 8.67157 13 9.5 13H12.5C13.3284 13 14 13.6716 14 14.5V15C14 15.8284 13.3284 16.5 12.5 16.5H11M11 9.5V8M11 16.5H9.5C8.67157 16.5 8 15.8284 8 15M11 16.5V18" fill="none"></path><path d="M12 4.05493C11.6717 4.01863 11.338 4 11 4C6.02944 4 2 8.02944 2 13C2 17.9705 6.02944 22 11 22C15.9705 22 20 17.9705 20 13C20 12.662 19.9814 12.3283 19.9451 12" fill="none"></path><path d="M18.5 2V9M22 5.5L15 5.5" fill="none"></path></svg>