<svg xmlns="http://www.w3.org/2000/svg" width="24" height="24" viewBox="0 0 24 24" fill="none"><path d="M3.5 9V14C3.5 17.7712 3.5 19.6569 4.67157 20.8284C5.84315 22 7.72876 22 11.5 22H12.5C16.2712 22 18.1569 22 19.3284 20.8284C20.5 19.6569 20.5 17.7712 20.5 14V10C20.5 6.22876 20.5 4.34315 19.3284 3.17157C18.1569 2 16.2712 2 12.5 2H12" stroke="currentColor" stroke-linecap="round" stroke-linejoin="round" stroke-width="1.5" /><path d="M13.5 17H17.5" stroke="currentColor" stroke-linecap="round" stroke-linejoin="round" stroke-width="1.5" /><path d="M13.5 7H17.5" stroke="currentColor" stroke-linecap="round" stroke-linejoin="round" stroke-width="1.5" /><path d="M13.5 12H17.5" stroke="currentColor" stroke-linecap="round" stroke-linejoin="round" stroke-width="1.5" /><path d="M6.5 16.5C6.5 16.5 7.46758 16.7672 8 18C8 18 9 15 11 14" stroke="currentColor" stroke-linecap="round" stroke-linejoin="round" stroke-width="1.5" /><path d="M10 5H3.5M10 5C10 4.15973 7.67332 2.58984 7.08333 2M10 5C10 5.84027 7.67331 7.41016 7.08333 8" stroke="currentColor" stroke-linecap="round" stroke-linejoin="round" stroke-width="1.5" /></svg>