<svg xmlns="http://www.w3.org/2000/svg" width="24" height="24" viewBox="0 0 24 24" fill="none"><path d="M17 10H19C19.9319 10 20.3978 10 20.7654 9.84776C21.2554 9.64477 21.6448 9.25542 21.8478 8.76537C22 8.39782 22 7.93188 22 7C22 6.06812 22 5.60218 21.8478 5.23463C21.6448 4.74458 21.2554 4.35523 20.7654 4.15224C20.3978 4 19.9319 4 19 4H17C16.0681 4 15.6022 4 15.2346 4.15224C14.7446 4.35523 14.3552 4.74458 14.1522 5.23463C14 5.60218 14 6.06812 14 7C14 7.93188 14 8.39782 14.1522 8.76537C14.3552 9.25542 14.7446 9.64477 15.2346 9.84776C15.6022 10 16.0681 10 17 10Z" stroke="currentColor" stroke-linecap="round" stroke-linejoin="round" stroke-width="1.5" /><path d="M10 7H7C4.23858 7 2 9.23858 2 12C2 14.7614 4.23858 17 7 17H10" stroke="currentColor" stroke-linecap="round" stroke-linejoin="round" stroke-width="1.5" /><path d="M7.50006 14.5L8.80147 15.5858C9.60053 16.2525 10.0001 16.5858 10.0001 17C10.0001 17.4142 9.60053 17.7475 8.80147 18.4142L7.50006 19.5" stroke="currentColor" stroke-linecap="round" stroke-linejoin="round" stroke-width="1.5" /><path d="M17 20H19C19.9319 20 20.3978 20 20.7654 19.8478C21.2554 19.6448 21.6448 19.2554 21.8478 18.7654C22 18.3978 22 17.9319 22 17C22 16.0681 22 15.6022 21.8478 15.2346C21.6448 14.7446 21.2554 14.3552 20.7654 14.1522C20.3978 14 19.9319 14 19 14H17C16.0681 14 15.6022 14 15.2346 14.1522C14.7446 14.3552 14.3552 14.7446 14.1522 15.2346C14 15.6022 14 16.0681 14 17C14 17.9319 14 18.3978 14.1522 18.7654C14.3552 19.2554 14.7446 19.6448 15.2346 19.8478C15.6022 20 16.0681 20 17 20Z" stroke="currentColor" stroke-linecap="round" stroke-linejoin="round" stroke-width="1.5" /></svg>