<svg xmlns="http://www.w3.org/2000/svg" width="24" height="24" viewBox="0 0 24 24" fill="none" stroke-width="1.5" stroke-linecap="round" stroke-linejoin="round" color="currentColor"><path d="M18.5004 10.5254C18.1904 10.5254 17.9004 10.3254 17.8004 10.0354L17.5404 9.33539C17.2304 8.49539 17.0804 8.11539 16.8704 7.89539C16.6704 7.69539 16.3104 7.55541 15.4404 7.23541L14.7504 6.98541C14.4504 6.87541 14.2604 6.5954 14.2504 6.2854C14.2404 5.9754 14.4404 5.68538 14.7404 5.57538L15.4404 5.31537C16.3104 4.99537 16.6704 4.85539 16.8804 4.64539C17.0904 4.43539 17.2304 4.05538 17.5404 3.20538L17.8004 2.51538C17.9104 2.22538 18.1904 2.02539 18.5004 2.02539C18.8104 2.02539 19.0904 2.21538 19.2004 2.51538L19.4604 3.20538C19.7704 4.05538 19.9204 4.4354 20.1304 4.6554C20.3304 4.8554 20.6904 4.99537 21.5604 5.31537L22.2604 5.57538C22.5504 5.68538 22.7504 5.9654 22.7504 6.2854C22.7504 6.6054 22.5504 6.87541 22.2504 6.98541L21.5504 7.23541C20.6904 7.55541 20.3304 7.6954 20.1204 7.9054C19.9104 8.1154 19.7704 8.4954 19.4604 9.3454L19.2004 10.0454C19.0904 10.3354 18.8104 10.5354 18.5004 10.5354V10.5254ZM17.0804 6.26538C17.4204 6.42538 17.6904 6.59538 17.9204 6.82538C18.1604 7.06538 18.3304 7.34536 18.4904 7.68536C18.6504 7.34536 18.8204 7.07539 19.0504 6.83539C19.2904 6.59539 19.5604 6.42538 19.9004 6.26538C19.5604 6.10538 19.2904 5.93538 19.0604 5.70538C18.8204 5.45538 18.6504 5.1854 18.4904 4.8454C18.3304 5.1854 18.1604 5.45537 17.9304 5.69537C17.6904 5.93537 17.4204 6.10538 17.0804 6.26538ZM11.5 23.5254H11.4998C6.83995 23.5254 4.50999 23.5254 2.91 22.1654C1.25 20.7754 1.25 18.6454 1.25 14.7754C1.25 10.9054 1.25 8.76537 2.91 7.37537C4.50997 6.02539 6.84992 6.02539 11.4997 6.02539H11.5C11.91 6.02539 12.25 6.36539 12.25 6.77539C12.25 7.18539 11.91 7.52539 11.5 7.52539H11.4999C7.20996 7.52539 5.05999 7.52539 3.87 8.51538C2.79 9.42538 2.75 10.9954 2.75 14.7754C2.75 18.5554 2.79 20.1154 3.87 21.0254C5.05 22.0254 7.21 22.0254 11.5 22.0254C15.79 22.0254 17.94 22.0254 19.12 21.0254C20.2 20.1154 20.25 18.5454 20.25 14.7754C20.25 13.6254 20.25 12.6354 20.21 11.8154C20.19 11.4054 20.51 11.0454 20.92 11.0254C21.34 11.0054 21.69 11.3254 21.71 11.7354C21.75 12.5954 21.75 13.6054 21.75 14.7754C21.75 18.6454 21.75 20.7754 20.09 22.1654C18.49 23.5254 16.1501 23.5254 11.5002 23.5254H11.5ZM11.25 18.7754C11.25 19.1854 11.59 19.5254 12 19.5254C12.41 19.5254 12.75 19.1854 12.75 18.7754V10.7754C12.75 10.3654 12.41 10.0254 12 10.0254C11.59 10.0254 11.25 10.3654 11.25 10.7754V18.7754ZM9 17.5254C8.59 17.5254 8.25 17.1854 8.25 16.7754V12.7754C8.25 12.3654 8.59 12.0254 9 12.0254C9.41 12.0254 9.75 12.3654 9.75 12.7754V16.7754C9.75 17.1854 9.41 17.5254 9 17.5254ZM5.25 15.7754C5.25 16.1854 5.59 16.5254 6 16.5254C6.41 16.5254 6.75 16.1854 6.75 15.7754V13.7754C6.75 13.3654 6.41 13.0254 6 13.0254C5.59 13.0254 5.25 13.3654 5.25 13.7754V15.7754ZM15 17.5254C14.59 17.5254 14.25 17.1854 14.25 16.7754V12.7754C14.25 12.3654 14.59 12.0254 15 12.0254C15.41 12.0254 15.75 12.3654 15.75 12.7754V16.7754C15.75 17.1854 15.41 17.5254 15 17.5254ZM17.25 15.7754C17.25 16.1854 17.59 16.5254 18 16.5254C18.41 16.5254 18.75 16.1854 18.75 15.7754V13.7754C18.75 13.3654 18.41 13.0254 18 13.0254C17.59 13.0254 17.25 13.3654 17.25 13.7754V15.7754Z" fill="currentColor" fill-rule="evenodd"></path></svg>