<svg xmlns="http://www.w3.org/2000/svg" width="24" height="24" viewBox="0 0 24 24" fill="none" stroke-width="1.5" stroke-linecap="round" stroke-linejoin="round" color="currentColor"><path d="M9.94611 2.07422H12.0561C13.8961 2.07422 15.3461 2.07422 16.4861 2.22422C17.6561 2.38422 18.6061 2.71422 19.3561 3.46422C20.1061 4.21422 20.4361 5.16422 20.5961 6.33422C20.7461 7.47422 20.7461 8.93422 20.7461 10.7642V11.3242C20.7461 11.7342 20.4061 12.0742 19.9961 12.0742C19.5861 12.0742 19.2461 11.7342 19.2461 11.3242V10.8242C19.2461 8.91422 19.2461 7.56422 19.1061 6.53422C18.9661 5.52422 18.7161 4.94422 18.2961 4.52422C17.8761 4.10422 17.2961 3.84422 16.2861 3.71422C15.2561 3.57422 13.9061 3.57422 11.9961 3.57422H9.99609C8.08609 3.57422 6.73612 3.57422 5.70612 3.71422C4.69612 3.84422 4.11611 4.10422 3.69611 4.52422C3.27611 4.94422 3.01611 5.52422 2.88611 6.53422C2.74611 7.56422 2.74609 8.91422 2.74609 10.8242V13.8242C2.74609 15.7342 2.74611 17.0842 2.88611 18.1142C3.02611 19.1242 3.27611 19.7042 3.69611 20.1242C4.11611 20.5442 4.69612 20.8042 5.70612 20.9342C6.73612 21.0742 8.08609 21.0742 9.99609 21.0742H10.9961C11.4061 21.0742 11.7461 21.4142 11.7461 21.8242C11.7461 22.2342 11.4061 22.5742 10.9961 22.5742H9.9361C8.0961 22.5742 6.6461 22.5742 5.5061 22.4242C4.3361 22.2642 3.38611 21.9342 2.63611 21.1842C1.88611 20.4342 1.55612 19.4842 1.39612 18.3142C1.24612 17.1742 1.24609 15.7142 1.24609 13.8842V10.7742C1.24609 8.93422 1.24612 7.48422 1.39612 6.34422C1.55612 5.17422 1.88611 4.22422 2.63611 3.47422C3.38611 2.72422 4.3361 2.39421 5.5061 2.23421C6.6461 2.08421 8.1061 2.08422 9.9361 2.08422L9.94611 2.07422ZM19.2961 14.9542C18.8361 13.7842 17.1761 13.7842 16.7161 14.9542L16.6761 15.0442C16.2361 16.1642 15.3461 17.0542 14.2261 17.4942L14.1361 17.5342C12.9661 17.9942 12.9661 19.6542 14.1361 20.1142L14.2261 20.1542C15.3461 20.5942 16.2361 21.4842 16.6761 22.6042L16.7161 22.6942C17.1761 23.8642 18.8361 23.8642 19.2961 22.6942L19.3361 22.6042C19.7761 21.4842 20.6661 20.5942 21.7861 20.1542L21.8761 20.1142C23.0461 19.6542 23.0461 17.9942 21.8761 17.5342L21.7861 17.4942C20.6661 17.0542 19.7761 16.1642 19.3361 15.0442L19.2961 14.9542ZM18.0061 15.7642C18.5961 17.1442 19.6961 18.2342 21.0661 18.8242C19.6861 19.4142 18.5961 20.5142 18.0061 21.8842C17.4161 20.5042 16.3161 19.4142 14.9461 18.8242C16.3261 18.2342 17.4161 17.1342 18.0061 15.7642ZM7.0061 7.07422C6.5961 7.07422 6.2561 7.41422 6.2561 7.82422C6.2561 8.23422 6.5961 8.57422 7.0061 8.57422H15.0061C15.4161 8.57422 15.7561 8.23422 15.7561 7.82422C15.7561 7.41422 15.4161 7.07422 15.0061 7.07422H7.0061ZM7.0061 11.5742C6.5961 11.5742 6.2561 11.9142 6.2561 12.3242C6.2561 12.7342 6.5961 13.0742 7.0061 13.0742H15.0061C15.4161 13.0742 15.7561 12.7342 15.7561 12.3242C15.7561 11.9142 15.4161 11.5742 15.0061 11.5742H7.0061ZM7.0061 16.0742C6.5961 16.0742 6.2561 16.4142 6.2561 16.8242C6.2561 17.2342 6.5961 17.5742 7.0061 17.5742H11.0061C11.4161 17.5742 11.7561 17.2342 11.7561 16.8242C11.7561 16.4142 11.4161 16.0742 11.0061 16.0742H7.0061Z" fill="currentColor" fill-rule="evenodd"></path></svg>