<svg xmlns="http://www.w3.org/2000/svg" width="24" height="24" viewBox="0 0 24 24" fill="none" stroke-width="1.5" stroke-linecap="round" stroke-linejoin="round" color="currentColor"><path d="M10.96 2.07422H11.54C13.14 2.07422 14.4 2.07422 15.4 2.17422C16.42 2.27422 17.26 2.47422 18 2.92422C18.77 3.39422 19.42 4.04422 19.9 4.82422C20.35 5.56422 20.55 6.40422 20.65 7.42422C20.74 8.42422 20.74 9.68421 20.74 11.2842V11.3242C20.74 11.7342 20.4 12.0742 19.99 12.0742C19.58 12.0742 19.24 11.7342 19.24 11.3242C19.24 9.67422 19.24 8.48421 19.15 7.56421C19.06 6.65421 18.9 6.07422 18.61 5.60422C18.26 5.03422 17.78 4.55422 17.21 4.20422C16.75 3.92422 16.17 3.75422 15.25 3.66422C14.32 3.57422 13.14 3.57422 11.49 3.57422H10.99C9.09999 3.57422 7.74 3.5742 6.69 3.6842C5.65 3.7942 4.99999 4.01422 4.48999 4.38422C4.12999 4.64422 3.80999 4.96422 3.54999 5.32422C3.17999 5.83422 2.96001 6.48423 2.85001 7.52423C2.74001 8.57423 2.73999 9.93422 2.73999 11.8242C2.73999 13.7142 2.74001 15.0742 2.85001 16.1242C2.96001 17.1642 3.17999 17.8142 3.54999 18.3242C3.80999 18.6842 4.12999 19.0042 4.48999 19.2642C4.99999 19.6342 5.65 19.8542 6.69 19.9642C7.74 20.0742 9.09999 20.0742 10.99 20.0742C11.4 20.0742 11.74 20.4142 11.74 20.8242C11.74 21.2342 11.4 21.5742 10.99 21.5742H10.95C9.11001 21.5742 7.67 21.5742 6.53 21.4542C5.36 21.3242 4.41999 21.0642 3.60999 20.4842C3.11999 20.1242 2.69 19.7042 2.34 19.2142C1.75 18.4042 1.49 17.4642 1.37 16.2942C1.25 15.1542 1.25 13.7142 1.25 11.8742V11.7842C1.25 9.94421 1.25 8.50423 1.37 7.36423C1.5 6.19423 1.76 5.25421 2.34 4.44421C2.69 3.95421 3.11999 3.52422 3.60999 3.17422C4.41999 2.58422 5.36 2.32422 6.53 2.20422C7.67 2.08422 9.11001 2.08423 10.95 2.08423L10.96 2.07422ZM16.71 14.9542C17.17 13.7842 18.83 13.7842 19.29 14.9542C19.73 16.0742 20.75 17.0942 21.87 17.5342C23.04 17.9942 23.04 19.6542 21.87 20.1142C20.75 20.5542 19.73 21.5742 19.29 22.6942C18.83 23.8642 17.17 23.8642 16.71 22.6942C16.27 21.5742 15.25 20.5542 14.13 20.1142C12.96 19.6542 12.96 17.9942 14.13 17.5342C15.25 17.0942 16.27 16.0742 16.71 14.9542ZM18 15.7542C17.4 17.0742 16.25 18.2342 14.93 18.8242C16.25 19.4242 17.4 20.5742 18 21.8942C18.6 20.5742 19.75 19.4142 21.07 18.8242C19.75 18.2242 18.6 17.0742 18 15.7542ZM7 7.07422C6.59 7.07422 6.25 7.41422 6.25 7.82422V8.82422C6.25 9.23422 6.59 9.57422 7 9.57422C7.41 9.57422 7.75 9.23422 7.75 8.82422V8.57422H10.25V15.0742H10C9.59 15.0742 9.25 15.4142 9.25 15.8242C9.25 16.2342 9.59 16.5742 10 16.5742H12C12.41 16.5742 12.75 16.2342 12.75 15.8242C12.75 15.4142 12.41 15.0742 12 15.0742H11.75V8.57422H14.25V8.82422C14.25 9.23422 14.59 9.57422 15 9.57422C15.41 9.57422 15.75 9.23422 15.75 8.82422V7.82422C15.75 7.41422 15.41 7.07422 15 7.07422H7Z" fill="currentColor" fill-rule="evenodd"></path></svg>