<svg xmlns="http://www.w3.org/2000/svg" width="24" height="24" viewBox="0 0 24 24" fill="none" stroke-width="1.5" stroke-linecap="round" stroke-linejoin="round" color="currentColor"><path d="M5.4061 23.5256H13.9761C14.3861 23.5256 14.7261 23.1856 14.7261 22.7756C14.7261 22.3656 14.3861 22.0256 13.9761 22.0256H5.38609C4.46609 22.0256 3.7261 21.2757 3.7261 20.3657C3.7261 20.0957 3.79609 19.8356 3.91609 19.5956L7.35897 13.0259H14.6115L14.8261 13.4357C15.0161 13.8057 15.4661 13.9456 15.8361 13.7556C16.2061 13.5656 16.3461 13.1157 16.1561 12.7457L14.2461 9.08563V3.52588H14.9961C15.4061 3.52588 15.7461 3.18588 15.7461 2.77588C15.7461 2.36588 15.4061 2.02588 14.9961 2.02588H13.6187C13.5787 2.01914 13.5378 2.01562 13.4961 2.01562H8.49609C8.45442 2.01562 8.41347 2.01914 8.37353 2.02588H6.99609C6.58609 2.02588 6.24609 2.36588 6.24609 2.77588C6.24609 3.18588 6.58609 3.52588 6.99609 3.52588H7.74609V9.08563L2.60609 18.8956C2.36609 19.3456 2.24609 19.8557 2.24609 20.3657C2.24609 22.1057 3.6661 23.5256 5.4061 23.5256ZM9.1461 9.61566L8.14505 11.5259H13.8262L12.8261 9.61566C12.7661 9.50566 12.7361 9.38562 12.7361 9.26562V3.52588H9.23609V9.26562C9.23609 9.38562 9.2061 9.50566 9.1461 9.61566ZM16.7961 23.0359C16.9061 23.3259 17.1861 23.5259 17.4961 23.5259V23.5359C17.8061 23.5359 18.0861 23.3359 18.1961 23.0459L18.4561 22.3459C18.7761 21.4859 18.9161 21.1259 19.1261 20.9159C19.3361 20.7059 19.6961 20.5659 20.5661 20.2459L21.2661 19.9859C21.5561 19.8759 21.7561 19.5959 21.7561 19.2859C21.7561 18.9759 21.5561 18.6959 21.2661 18.5859L20.5661 18.3259C19.7061 18.0059 19.3461 17.8659 19.1361 17.6559C18.9261 17.4459 18.7861 17.0859 18.4661 16.2159L18.2061 15.5159C18.0961 15.2259 17.8161 15.0259 17.5061 15.0259C17.1961 15.0259 16.9161 15.2259 16.8061 15.5159L16.5461 16.2159C16.2261 17.0759 16.0861 17.4359 15.8761 17.6459C15.6661 17.8559 15.3061 17.9959 14.4361 18.3159L13.7361 18.5759C13.4461 18.6859 13.2461 18.9659 13.2461 19.2759C13.2461 19.5859 13.4461 19.8659 13.7361 19.9759L14.4361 20.2359C15.2961 20.5559 15.6561 20.6959 15.8661 20.9059C16.0761 21.1059 16.2161 21.4659 16.5361 22.3359L16.7961 23.0359ZM16.9261 19.8559C16.6861 19.6159 16.4261 19.4459 16.0761 19.2859C16.4161 19.1259 16.6861 18.9559 16.9261 18.7159C17.1661 18.4759 17.3361 18.2059 17.4961 17.8659C17.6561 18.2059 17.8261 18.4759 18.0661 18.7159C18.3061 18.9559 18.5761 19.1259 18.9161 19.2859C18.5661 19.4459 18.3061 19.6159 18.0661 19.8559C17.8261 20.0959 17.6561 20.3659 17.4961 20.7059C17.3361 20.3559 17.1661 20.0959 16.9261 19.8559Z" fill="currentColor" fill-rule="evenodd"></path></svg>