<svg xmlns="http://www.w3.org/2000/svg" width="24" height="24" viewBox="0 0 24 24" fill="none" stroke-width="1.5" stroke-linecap="round" stroke-linejoin="round" color="currentColor"><path d="M6.5 3.51562H7.25V7.68536C4.24 8.97536 2.25 11.9654 2.25 15.2754C2.25 19.8254 5.95 23.5254 10.5 23.5254C11.63 23.5254 12.74 23.2954 13.8 22.8354C14.19 22.6654 14.36 22.2254 14.19 21.8454C14.02 21.4554 13.58 21.2854 13.2 21.4554C12.33 21.8354 11.43 22.0254 10.5 22.0254C6.78 22.0254 3.75 18.9954 3.75 15.2754C3.75 14.3074 3.95733 13.3738 4.33593 12.5254H16.6677C16.7144 12.6306 16.7585 12.7373 16.8 12.8454C16.95 13.2354 17.38 13.4254 17.77 13.2754C18.16 13.1254 18.35 12.6954 18.2 12.3054C17.4 10.2154 15.79 8.55536 13.75 7.68536V3.51562H14.5C14.91 3.51562 15.25 3.17562 15.25 2.76562C15.25 2.35563 14.91 2.01562 14.5 2.01562H6.5C6.09 2.01562 5.75 2.35563 5.75 2.76562C5.75 3.17562 6.09 3.51562 6.5 3.51562ZM15.7507 11.0254C14.974 10.0648 13.9397 9.32756 12.75 8.9054C12.45 8.7954 12.25 8.51537 12.25 8.19537V3.51562H8.75V8.19537C8.75 8.51537 8.55 8.7954 8.25 8.9054C7.04842 9.32974 6.02243 10.0753 5.25491 11.0254H15.7507ZM16.8004 23.0354C16.9004 23.3254 17.1904 23.5254 17.5004 23.5254V23.5354C17.8104 23.5354 18.0904 23.3354 18.2004 23.0454L18.4604 22.3454C18.7704 21.4954 18.9104 21.1154 19.1204 20.9054C19.3304 20.6954 19.6904 20.5554 20.5504 20.2354L21.2504 19.9854C21.5504 19.8754 21.7504 19.6054 21.7504 19.2854C21.7504 18.9654 21.5504 18.6854 21.2604 18.5754L20.5604 18.3154C19.6904 17.9954 19.3304 17.8554 19.1304 17.6554C18.9204 17.4354 18.7704 17.0554 18.4604 16.2054L18.2004 15.5154C18.0904 15.2154 17.8104 15.0254 17.5004 15.0254C17.1904 15.0254 16.9104 15.2254 16.8004 15.5154L16.5404 16.2054C16.2304 17.0554 16.0904 17.4354 15.8804 17.6454C15.6704 17.8554 15.3104 17.9954 14.4404 18.3154L13.7404 18.5754C13.4404 18.6854 13.2404 18.9754 13.2504 19.2854C13.2604 19.5954 13.4504 19.8754 13.7504 19.9854L14.4404 20.2354C15.3104 20.5554 15.6704 20.6954 15.8704 20.8954C16.0804 21.1154 16.2304 21.4954 16.5404 22.3354L16.8004 23.0354ZM16.9204 19.8254C16.6904 19.5954 16.4204 19.4254 16.0804 19.2654C16.4204 19.1054 16.6904 18.9354 16.9304 18.6954C17.1604 18.4554 17.3304 18.1854 17.4904 17.8454C17.6504 18.1854 17.8204 18.4554 18.0604 18.7054C18.2904 18.9354 18.5604 19.1054 18.9004 19.2654C18.5604 19.4254 18.2904 19.5954 18.0504 19.8354C17.8204 20.0754 17.6504 20.3454 17.4904 20.6854C17.3304 20.3454 17.1604 20.0654 16.9204 19.8254Z" fill="currentColor" fill-rule="evenodd"></path></svg>