<svg xmlns="http://www.w3.org/2000/svg" width="24" height="24" viewBox="0 0 24 24" fill="none" stroke-width="1.5" stroke-linecap="round" stroke-linejoin="round" color="currentColor"><path d="M14.4961 3.52539H14.2461V8.77539V10.7754C14.2461 11.1854 13.9061 11.5254 13.4961 11.5254C13.0861 11.5254 12.7461 11.1854 12.7461 10.7754V9.52539H6.24609V18.7754C6.24609 20.5654 7.70609 22.0254 9.49609 22.0254C11.2861 22.0254 12.7461 20.5654 12.7461 18.7754C12.7461 18.3654 13.0861 18.0254 13.4961 18.0254C13.9061 18.0254 14.2461 18.3654 14.2461 18.7754C14.2461 21.3954 12.1161 23.5254 9.49609 23.5254C6.87609 23.5254 4.74609 21.3954 4.74609 18.7754V8.77539V3.52539H4.49609C4.08609 3.52539 3.74609 3.18539 3.74609 2.77539C3.74609 2.36539 4.08609 2.02539 4.49609 2.02539H5.49609H13.4961H14.4961C14.9061 2.02539 15.2461 2.36539 15.2461 2.77539C15.2461 3.18539 14.9061 3.52539 14.4961 3.52539ZM6.24609 8.02539H12.7461V3.52539H6.24609V8.02539ZM15.2961 18.5354C15.4061 18.8254 15.6861 19.0254 15.9961 19.0254V19.0354C16.3061 19.0354 16.5861 18.8354 16.6961 18.5454L16.9561 17.8454C17.2761 16.9854 17.4161 16.6254 17.6261 16.4154C17.8361 16.2054 18.1961 16.0654 19.0661 15.7454L19.7661 15.4854C20.0561 15.3754 20.2561 15.0954 20.2561 14.7854C20.2561 14.4754 20.0561 14.1954 19.7661 14.0854L19.0661 13.8254C18.2061 13.5054 17.8461 13.3654 17.6361 13.1554C17.4261 12.9454 17.2861 12.5854 16.9661 11.7154L16.7061 11.0154C16.5961 10.7254 16.3161 10.5254 16.0061 10.5254C15.6961 10.5254 15.4161 10.7254 15.3061 11.0154L15.0461 11.7154C14.7261 12.5754 14.5861 12.9354 14.3761 13.1454C14.1661 13.3554 13.8061 13.4954 12.9361 13.8154L12.2361 14.0754C11.9461 14.1854 11.7461 14.4654 11.7461 14.7754C11.7461 15.0854 11.9461 15.3654 12.2361 15.4754L12.9361 15.7354C13.7961 16.0554 14.1561 16.1954 14.3661 16.4054C14.5761 16.6054 14.7161 16.9654 15.0361 17.8354L15.2961 18.5354ZM15.4261 15.3554C15.1861 15.1154 14.9261 14.9454 14.5761 14.7854C14.9161 14.6254 15.1861 14.4554 15.4261 14.2154C15.6661 13.9754 15.8361 13.7054 15.9961 13.3654C16.1561 13.7054 16.3261 13.9754 16.5661 14.2154C16.8061 14.4554 17.0761 14.6254 17.4161 14.7854C17.0661 14.9454 16.8061 15.1154 16.5661 15.3554C16.3261 15.5954 16.1561 15.8654 15.9961 16.2054C15.8361 15.8554 15.6661 15.5954 15.4261 15.3554Z" fill="currentColor" fill-rule="evenodd"></path></svg>