<svg xmlns="http://www.w3.org/2000/svg" width="24" height="24" viewBox="0 0 24 24" fill="none" stroke-width="1.5" stroke-linecap="round" stroke-linejoin="round" color="currentColor"><path d="M13.5 18C13.5 20.2091 11.7091 22 9.5 22C7.29086 22 5.5 20.2091 5.5 18V2H13.5V10" fill="none"></path><path d="M16 10.5L15.7421 11.197C15.4039 12.111 15.2348 12.568 14.9014 12.9014C14.568 13.2348 14.111 13.4039 13.197 13.7421L12.5 14L13.197 14.2579C14.111 14.5961 14.568 14.7652 14.9014 15.0986C15.2348 15.432 15.4039 15.889 15.7421 16.803L16 17.5L16.2579 16.803C16.5961 15.889 16.7652 15.432 17.0986 15.0986C17.432 14.7652 17.889 14.5961 18.803 14.2579L19.5 14L18.803 13.7421C17.889 13.4039 17.432 13.2348 17.0986 12.9014C16.7652 12.568 16.5961 12.111 16.2579 11.197L16 10.5Z" fill="none"></path><path d="M4.5 2H14.5" fill="none"></path><path d="M5.5 8H13.5" fill="none"></path></svg>