<svg xmlns="http://www.w3.org/2000/svg" width="24" height="24" viewBox="0 0 24 24" fill="none" stroke-width="1.5" stroke-linecap="round" stroke-linejoin="round" color="currentColor"><path d="M16 22.75C15.59 22.75 15.25 22.41 15.25 22V20.7045C14.5239 20.7407 13.698 20.7481 12.75 20.7496V22C12.75 22.41 12.41 22.75 12 22.75C11.59 22.75 11.25 22.41 11.25 22V20.7496C10.3019 20.7481 9.4761 20.7407 8.75 20.7045V22C8.75 22.41 8.41 22.75 8 22.75C7.59 22.75 7.25 22.41 7.25 22V20.5604C6.13273 20.3817 5.31454 20.0345 4.64 19.36C3.96473 18.6847 3.61751 17.8679 3.43897 16.75H2C1.59 16.75 1.25 16.41 1.25 16C1.25 15.59 1.59 15.25 2 15.25H3.2953C3.2592 14.5245 3.25187 13.6988 3.25038 12.75H2C1.59 12.75 1.25 12.41 1.25 12C1.25 11.59 1.59 11.25 2 11.25H3.25038C3.25187 10.3012 3.2592 9.47554 3.2953 8.75H2C1.59 8.75 1.25 8.41 1.25 8C1.25 7.59 1.59 7.25 2 7.25H3.43897C3.61751 6.13215 3.96473 5.31527 4.64 4.64C5.31454 3.96546 6.13273 3.61826 7.25 3.43955V2C7.25 1.59 7.59 1.25 8 1.25C8.41 1.25 8.75 1.59 8.75 2V3.29552C9.4761 3.25925 10.3019 3.25188 11.25 3.25038V2C11.25 1.59 11.59 1.25 12 1.25C12.41 1.25 12.75 1.59 12.75 2V3.25038C13.698 3.25188 14.5239 3.25925 15.25 3.29552V2C15.25 1.59 15.59 1.25 16 1.25C16.41 1.25 16.75 1.59 16.75 2V3.43955C17.8672 3.61826 18.6854 3.96546 19.36 4.64C20.0352 5.31527 20.3825 6.13215 20.561 7.25H22C22.41 7.25 22.75 7.59 22.75 8C22.75 8.41 22.41 8.75 22 8.75H20.7047C20.7408 9.47554 20.7481 10.3012 20.7496 11.25H22C22.41 11.25 22.75 11.59 22.75 12C22.75 12.41 22.41 12.75 22 12.75H20.7496C20.7481 13.6988 20.7408 14.5245 20.7047 15.25H22C22.41 15.25 22.75 15.59 22.75 16C22.75 16.41 22.41 16.75 22 16.75H20.561C20.3825 17.8679 20.0352 18.6847 19.36 19.36C18.6854 20.0345 17.8672 20.3817 16.75 20.5604V22C16.75 22.41 16.41 22.75 16 22.75ZM12 19.25C15.56 19.25 17.35 19.25 18.3 18.3C19.25 17.35 19.25 15.56 19.25 12C19.25 8.44 19.25 6.65 18.3 5.7C17.35 4.75 15.5599 4.75 11.9999 4.75C8.43999 4.75 6.65 4.75 5.7 5.7C4.75 6.65 4.75 8.44 4.75 12C4.75 15.56 4.75 17.35 5.7 18.3C6.65 19.25 8.44008 19.25 12 19.25ZM10.7817 16.3995C10.9717 16.9195 11.4517 17.2495 12.0017 17.2495C12.5517 17.2495 13.0317 16.9195 13.2217 16.3995L14.0217 14.2395C14.0517 14.1395 14.1317 14.0695 14.2317 14.0295L16.3917 13.2295C16.9117 13.0395 17.2417 12.5595 17.2417 12.0095C17.2417 11.4595 16.9117 10.9795 16.3917 10.7895L14.2317 9.98953C14.1317 9.95953 14.0617 9.87953 14.0217 9.77953L13.2217 7.61952C13.0317 7.09952 12.5517 6.76953 12.0017 6.76953C11.4517 6.76953 10.9717 7.09952 10.7817 7.61952L9.98172 9.77953C9.95172 9.87953 9.87172 9.94953 9.77172 9.98953L7.61172 10.7895C7.09172 10.9795 6.76172 11.4595 6.76172 12.0095C6.76172 12.5595 7.09172 13.0395 7.61172 13.2295L9.77172 14.0295C9.87172 14.0595 9.94172 14.1395 9.98172 14.2395L10.7817 16.3995ZM10.2917 12.6195L8.62172 11.9995L10.2917 11.3795C10.8017 11.1895 11.2017 10.7895 11.3917 10.2795L12.0117 8.60953L12.6317 10.2795C12.8217 10.7895 13.2217 11.1895 13.7317 11.3795L15.4017 11.9995L13.7317 12.6195C13.2217 12.8095 12.8217 13.2095 12.6317 13.7195L12.0117 15.3895L11.3917 13.7195C11.2017 13.2095 10.8017 12.8095 10.2917 12.6195Z" fill="currentColor"></path></svg>