<svg xmlns="http://www.w3.org/2000/svg" width="24" height="24" viewBox="0 0 24 24" fill="none" stroke-width="1.5" stroke-linecap="round" stroke-linejoin="round" color="currentColor"><path d="M5.83781 10.1841C6.02781 10.6741 6.47781 10.9941 7.00781 10.9941C7.53781 10.9941 7.99781 10.6741 8.17781 10.1841L8.88781 8.26413C8.90781 8.19413 8.95781 8.14415 9.02781 8.12415L10.9478 7.41416C11.4378 7.22416 11.7578 6.77414 11.7578 6.24414C11.7578 5.71414 11.4378 5.25413 10.9478 5.07413L9.02781 4.36414C8.95781 4.33414 8.90781 4.28415 8.88781 4.22415L8.17781 2.30414C7.98781 1.81414 7.53781 1.49414 7.00781 1.49414C6.47781 1.49414 6.01781 1.81414 5.83781 2.30414L5.12781 4.22415C5.10781 4.29415 5.05781 4.34414 4.98781 4.36414L3.06781 5.07413C2.57781 5.26413 2.25781 5.71414 2.25781 6.24414C2.25781 6.77414 2.57781 7.23416 3.06781 7.41416L4.98781 8.12415C5.05781 8.15415 5.10781 8.20413 5.12781 8.26413L5.83781 10.1841ZM5.50781 6.71414L4.23781 6.24414L5.50781 5.77414C5.98781 5.59414 6.35781 5.22414 6.53781 4.74414L7.00781 3.47415L7.47781 4.74414C7.65781 5.21414 8.03781 5.59413 8.50781 5.76413L9.77781 6.23413L8.50781 6.70414C8.02781 6.88414 7.65781 7.25413 7.47781 7.73413L7.00781 9.00415L6.53781 7.73413C6.35781 7.26413 5.97781 6.88415 5.50781 6.71414ZM5.25781 22.2447C5.25781 22.6547 5.59781 22.9947 6.00781 22.9947H7.50781L7.49784 23.0047C8.76782 23.0047 9.46782 23.0047 10.1478 22.7247C10.8278 22.4448 11.3178 21.9548 12.2177 21.0548L20.3678 12.9047C20.3834 12.8889 20.3987 12.8733 20.4139 12.8579C20.9552 12.3072 21.2633 11.9938 21.4578 11.6047C21.8378 10.8448 21.8378 9.94478 21.4578 9.18478C21.2759 8.79216 20.9747 8.49122 20.4402 7.95709C20.4165 7.93344 20.3924 7.90935 20.3678 7.88476L20.3208 7.83858C19.7703 7.29736 19.4569 6.9893 19.0678 6.79477C18.3078 6.41477 17.4078 6.41477 16.6478 6.79477C16.2552 6.9767 15.9543 7.27783 15.4202 7.8123C15.3966 7.836 15.3724 7.86015 15.3478 7.88476L13.8678 9.36478L7.20781 16.0247C6.31781 16.9147 5.81781 17.4147 5.53781 18.0947C5.25781 18.7747 5.25781 19.4747 5.25781 20.7447V22.2447ZM6.76781 21.4947V20.7547C6.76781 19.6347 6.76781 19.0847 6.93781 18.6747C7.10781 18.2647 7.49785 17.8746 8.28781 17.0847L14.4278 10.9448L15.3778 11.8947C15.6678 12.1847 16.1478 12.1847 16.4378 11.8947C16.7278 11.6047 16.7278 11.1247 16.4378 10.8348L15.4878 9.88476L16.4378 8.93478C16.8878 8.48478 17.1578 8.21479 17.3378 8.12479C17.6778 7.95479 18.0878 7.95479 18.4278 8.12479C18.6078 8.21479 18.8779 8.48487 19.3279 8.93487C19.7778 9.38482 20.0478 9.65479 20.1378 9.83478C20.3078 10.1748 20.3078 10.5848 20.1378 10.9248C20.0478 11.1047 19.7778 11.3748 19.3278 11.8247L11.1778 19.9747C10.3378 20.8147 9.97781 21.1647 9.58781 21.3247C9.17781 21.4947 8.61781 21.4947 7.50781 21.4947H6.76781Z" fill="currentColor"></path></svg>