<svg xmlns="http://www.w3.org/2000/svg" width="24" height="24" viewBox="0 0 24 24" fill="none" stroke-width="1.5" stroke-linecap="round" stroke-linejoin="round" color="currentColor"><path d="M15.2878 3.70639C14.2578 3.56639 12.9078 3.56641 10.9978 3.56641H10.7478V3.86639C10.7478 5.23639 10.7478 6.33639 10.6278 7.20639C10.5078 8.10639 10.2478 8.8664 9.6478 9.4664C9.0478 10.0664 8.28782 10.3264 7.38782 10.4464C6.51782 10.5664 5.41779 10.5664 4.04779 10.5664H3.7478V14.8264C3.7478 16.7264 3.74782 18.0864 3.88782 19.1064C4.02782 20.1064 4.27781 20.6864 4.69781 21.1164C5.11782 21.5464 5.69779 21.7964 6.70779 21.9364C7.73779 22.0764 9.08779 22.0764 10.9878 22.0764C11.3978 22.0764 11.7378 22.4164 11.7378 22.8264C11.7378 23.2364 11.3978 23.5764 10.9878 23.5764H10.9278C9.0978 23.5764 7.63781 23.5764 6.50781 23.4264C5.33781 23.2664 4.38782 22.9364 3.63782 22.1964C2.88782 21.4364 2.55781 20.4964 2.40781 19.3164C2.25781 18.1764 2.25781 16.7264 2.25781 14.8864V9.82642C2.25781 9.61642 2.33781 9.4264 2.47781 9.2764L9.41782 2.35641C9.55782 2.17641 9.76781 2.06641 10.0078 2.06641H11.0678C12.9078 2.06641 14.3578 2.0664 15.4978 2.2164C16.6678 2.3764 17.6178 2.70639 18.3678 3.45639C19.1178 4.20639 19.4478 5.15642 19.6078 6.32642C19.7578 7.46642 19.7578 8.92641 19.7578 10.7564V11.8164C19.7578 12.2264 19.4178 12.5664 19.0078 12.5664C18.5978 12.5664 18.2578 12.2264 18.2578 11.8164V10.8164C18.2578 8.90641 18.2578 7.5564 18.1178 6.5264C17.9778 5.5164 17.7278 4.93642 17.3078 4.51642C16.8878 4.09642 16.3078 3.83639 15.2978 3.70639H15.2878ZM4.79779 9.06641L9.2478 4.63641C9.2478 5.64641 9.2278 6.40642 9.1478 7.01642C9.0478 7.74642 8.8678 8.13641 8.5878 8.41641C8.3078 8.69641 7.9278 8.87641 7.18781 8.97641C6.57781 9.05641 5.81779 9.07642 4.79779 9.07642V9.06641ZM20.8678 20.1064C19.7478 20.5464 18.7278 21.5664 18.2878 22.6864C17.8278 23.8564 16.1678 23.8564 15.7078 22.6864C15.2678 21.5664 14.2478 20.5464 13.1278 20.1064C11.9578 19.6464 11.9578 17.9864 13.1278 17.5264C14.2478 17.0864 15.2678 16.0664 15.7078 14.9464C16.1678 13.7764 17.8278 13.7764 18.2878 14.9464C18.7278 16.0664 19.7478 17.0864 20.8678 17.5264C22.0378 17.9864 22.0378 19.6464 20.8678 20.1064ZM13.9278 18.8164C15.2478 19.4164 16.3978 20.5664 16.9978 21.8864C17.5978 20.5664 18.7478 19.4064 20.0678 18.8164C18.7478 18.2164 17.5978 17.0664 16.9978 15.7464C16.3978 17.0664 15.2478 18.2264 13.9278 18.8164Z" fill="currentColor" fill-rule="evenodd"></path></svg>