<svg xmlns="http://www.w3.org/2000/svg" width="24" height="24" viewBox="0 0 24 24" fill="none" stroke-width="1.5" stroke-linecap="round" stroke-linejoin="round" color="currentColor"><path d="M12 17C8.83 17 6.25 14.42 6.25 11.25V7.25C6.25 4.08 8.83 1.5 12 1.5C12.41 1.5 12.75 1.84 12.75 2.25C12.75 2.66 12.41 3 12 3C9.66 3 7.75 4.91 7.75 7.25V11.25C7.75 13.59 9.66 15.5 12 15.5C14.34 15.5 16.25 13.59 16.25 11.25C16.25 10.84 16.59 10.5 17 10.5C17.41 10.5 17.75 10.84 17.75 11.25C17.75 14.42 15.17 17 12 17ZM12 23C11.59 23 11.25 22.66 11.25 22.25V19.97C6.77 19.59 3.25 15.82 3.25 11.25C3.25 10.84 3.59 10.5 4 10.5C4.41 10.5 4.75 10.84 4.75 11.25C4.75 15.25 8 18.5 12 18.5C16 18.5 19.25 15.25 19.25 11.25C19.25 10.84 19.59 10.5 20 10.5C20.41 10.5 20.75 10.84 20.75 11.25C20.75 15.82 17.23 19.59 12.75 19.97V22.25C12.75 22.66 12.41 23 12 23ZM15.9 8.01001C15.97 8.57001 16.44 9 17 9C17.56 9 18.03 8.58001 18.1 8.01001C18.21 7.14001 18.89 6.46004 19.76 6.35004C20.32 6.28004 20.75 5.81 20.75 5.25C20.75 4.69 20.32 4.22002 19.76 4.15002C18.89 4.04002 18.21 3.36005 18.1 2.49005C18.03 1.93005 17.56 1.5 17 1.5C16.44 1.5 15.97 1.92005 15.9 2.49005C15.79 3.36005 15.11 4.04002 14.24 4.15002C13.68 4.22002 13.25 4.69 13.25 5.25C13.25 5.81 13.68 6.28004 14.24 6.35004C15.11 6.46004 15.79 7.14001 15.9 8.01001ZM17 6.61005C16.69 6.04005 16.21 5.56 15.64 5.25C16.21 4.94 16.69 4.46001 17 3.89001C17.31 4.46001 17.79 4.94 18.36 5.25C17.79 5.56 17.31 6.04005 17 6.61005Z" fill="currentColor" fill-rule="evenodd"></path></svg>