<svg xmlns="http://www.w3.org/2000/svg" width="24" height="24" viewBox="0 0 24 24" fill="none" stroke-width="1.5" stroke-linecap="round" stroke-linejoin="round" color="currentColor"><path d="M2 5.5L8.91302 9.41697C11.4616 10.861 12.5384 10.861 15.087 9.41697L22 5.5" stroke="currentColor"></path><path d="M21.9842 12.9756C22.0053 11.9899 22.0053 11.0101 21.9842 10.0244C21.9189 6.95886 21.8862 5.42609 20.7551 4.29066C19.6239 3.15523 18.0497 3.11568 14.9012 3.03657C12.9607 2.98781 11.0393 2.98781 9.09882 3.03656C5.95033 3.11566 4.37608 3.15521 3.24495 4.29065C2.11382 5.42608 2.08114 6.95885 2.01576 10.0244C1.99474 11.0101 1.99475 11.9899 2.01577 12.9756C2.08114 16.0412 2.11383 17.5739 3.24496 18.7094C4.37608 19.8448 5.95033 19.8843 9.09883 19.9634C10.404 19.9962 11.7005 20.007 13 19.9957" stroke="currentColor"></path><path d="M18.5 14L18.7579 14.697C19.0961 15.611 19.2652 16.068 19.5986 16.4014C19.932 16.7348 20.389 16.9039 21.303 17.2421L22 17.5L21.303 17.7579C20.389 18.0961 19.932 18.2652 19.5986 18.5986C19.2652 18.932 19.0961 19.389 18.7579 20.303L18.5 21L18.2421 20.303C17.9039 19.389 17.7348 18.932 17.4014 18.5986C17.068 18.2652 16.611 18.0961 15.697 17.7579L15 17.5L15.697 17.2421C16.611 16.9039 17.068 16.7348 17.4014 16.4014C17.7348 16.068 17.9039 15.611 18.2421 14.697L18.5 14Z" stroke="currentColor"></path></svg>