<svg xmlns="http://www.w3.org/2000/svg" width="24" height="24" viewBox="0 0 24 24" fill="none" stroke-width="1.5" stroke-linecap="round" stroke-linejoin="round" color="currentColor"><path d="M9.94611 3.07227H14.0561C15.8961 3.07227 17.3461 3.07229 18.4861 3.22229C19.6561 3.38229 20.6061 3.71228 21.3561 4.46228C22.1061 5.21228 22.4361 6.16228 22.5961 7.33228C22.6861 8.00228 22.7261 8.79232 22.7361 9.69232C22.7361 9.73232 22.7461 9.77227 22.7461 9.82227C22.7461 9.85227 22.7461 9.8923 22.7461 9.9223C22.7461 10.4923 22.7461 11.1023 22.7461 11.7623V13.3223C22.7461 13.7323 22.4061 14.0723 21.9961 14.0723C21.5861 14.0723 21.2461 13.7323 21.2461 13.3223V11.8223C21.2461 11.3723 21.2461 10.9623 21.2461 10.5723H8.74609V15.0723H11.9961C12.4061 15.0723 12.7461 15.4123 12.7461 15.8223C12.7461 16.2323 12.4061 16.5723 11.9961 16.5723H8.74609V21.0723C9.13609 21.0723 9.54609 21.0723 9.99609 21.0723H11.9961C12.4061 21.0723 12.7461 21.4123 12.7461 21.8223C12.7461 22.2323 12.4061 22.5723 11.9961 22.5723H9.9361C9.2761 22.5723 8.6661 22.5723 8.0961 22.5723C8.0661 22.5723 8.02609 22.5723 7.99609 22.5723C7.95609 22.5723 7.90609 22.5723 7.86609 22.5623C6.95609 22.5423 6.1761 22.5123 5.5061 22.4223C4.3361 22.2623 3.38611 21.9323 2.63611 21.1823C1.88611 20.4323 1.55612 19.4823 1.39612 18.3123C1.30612 17.6423 1.2661 16.8523 1.2561 15.9523C1.2561 15.9123 1.24609 15.8723 1.24609 15.8223C1.24609 15.7923 1.24609 15.7523 1.24609 15.7223C1.24609 15.1523 1.24609 14.5423 1.24609 13.8823V11.7723C1.24609 11.1123 1.24609 10.5023 1.24609 9.93231C1.24609 9.90231 1.24609 9.86228 1.24609 9.83228C1.24609 9.79228 1.2461 9.74227 1.2561 9.70227C1.2761 8.79227 1.30612 8.01229 1.39612 7.34229C1.55612 6.17229 1.88611 5.22229 2.63611 4.47229C3.38611 3.72229 4.3361 3.3923 5.5061 3.2323C6.1761 3.1423 6.96609 3.10229 7.86609 3.09229C7.90609 3.09229 7.94609 3.08228 7.99609 3.08228C8.02609 3.08228 8.0661 3.08228 8.0961 3.08228C8.6661 3.08228 9.2761 3.08228 9.9361 3.08228L9.94611 3.07227ZM7.2561 4.60229C6.6661 4.62229 6.16609 4.65228 5.71609 4.71228C4.70609 4.85228 4.12612 5.10228 3.70612 5.52228C3.28612 5.94228 3.02612 6.52229 2.89612 7.53229C2.83612 7.98229 2.8061 8.48227 2.7861 9.07227H7.2561V4.60229ZM8.7561 9.07227V4.57227C9.1461 4.57227 9.5561 4.57227 10.0061 4.57227H14.0061C15.9161 4.57227 17.2661 4.57228 18.2961 4.71228C19.3061 4.85228 19.8861 5.10228 20.3061 5.52228C20.7261 5.94228 20.9861 6.52229 21.1161 7.53229C21.1761 7.98229 21.2061 8.48227 21.2261 9.07227H8.7561ZM7.2561 10.5723H2.7561C2.7561 10.9623 2.7561 11.3723 2.7561 11.8223V13.8223C2.7561 14.2723 2.7561 14.6823 2.7561 15.0723H7.2561V10.5723ZM7.2561 16.5723H2.7861C2.8061 17.1623 2.83612 17.6623 2.89612 18.1123C3.03612 19.1223 3.28612 19.7023 3.70612 20.1223C4.12612 20.5423 4.70609 20.8023 5.71609 20.9323C6.16609 20.9923 6.6661 21.0223 7.2561 21.0423V16.5723ZM16.9061 13.7723C17.3361 12.8423 18.6661 12.8423 19.1061 13.7723L19.7361 15.1123C19.9361 15.5423 20.2861 15.8923 20.7161 16.0923L22.0561 16.7223C22.9861 17.1523 22.9861 18.4823 22.0561 18.9223L20.7161 19.5523C20.2861 19.7523 19.9361 20.1023 19.7361 20.5323L19.1061 21.8723C18.6761 22.8023 17.3461 22.8023 16.9061 21.8723L16.2761 20.5323C16.0761 20.1023 15.7261 19.7523 15.2961 19.5523L13.9561 18.9223C13.0261 18.4923 13.0261 17.1623 13.9561 16.7223L15.2961 16.0923C15.7261 15.8923 16.0761 15.5423 16.2761 15.1123L16.9061 13.7723ZM18.0061 14.9623L17.6361 15.7523C17.2861 16.5023 16.6861 17.1123 15.9261 17.4623L15.1361 17.8323L15.9261 18.2023C16.6761 18.5523 17.2861 19.1523 17.6361 19.9123L18.0061 20.7023L18.3761 19.9123C18.7261 19.1623 19.3261 18.5523 20.0861 18.2023L20.8761 17.8323L20.0861 17.4623C19.3361 17.1123 18.7261 16.5123 18.3761 15.7523L18.0061 14.9623Z" fill="currentColor" fill-rule="evenodd"></path></svg>