<svg xmlns="http://www.w3.org/2000/svg" width="24" height="24" viewBox="0 0 24 24" fill="none" stroke-width="1.5" stroke-linecap="round" stroke-linejoin="round" color="currentColor"><path d="M15.75 21.4951C15.75 21.9051 16.09 22.2451 16.5 22.2451L16.49 22.2551H16.4901C17.47 22.2551 17.96 22.2551 18.42 22.1651C20.31 21.7951 21.77 20.3251 22.15 18.4351C22.24 17.9751 22.24 17.4851 22.24 16.5051C22.24 16.0951 21.9 15.7551 21.49 15.7551C21.08 15.7551 20.74 16.0951 20.74 16.5051C20.74 17.3851 20.74 17.8251 20.68 18.1351C20.43 19.4251 19.42 20.4251 18.13 20.6851C17.82 20.7451 17.38 20.7451 16.5001 20.7451H16.5C16.09 20.7451 15.75 21.0851 15.75 21.4951ZM7.49988 22.2451H7.5L7.49 22.2351C7.9 22.2351 8.24 21.8951 8.24 21.4851C8.24 21.0751 7.9 20.7351 7.49 20.7351C6.62 20.7351 6.17 20.7351 5.86 20.6751C4.57 20.4251 3.57 19.4151 3.31 18.1251C3.25 17.8151 3.25 17.3751 3.25 16.4951V16.4951C3.25 16.0851 2.91 15.7451 2.5 15.7451C2.09 15.7451 1.75 16.0851 1.75 16.4951C1.75 17.4751 1.75 17.9651 1.84 18.4251C2.22 20.3151 3.68 21.7751 5.57 22.1551C6.02998 22.2451 6.51996 22.2451 7.49988 22.2451ZM20.75 7.49512C20.75 7.90512 21.09 8.24512 21.5 8.24512L21.51 8.25511C21.92 8.25511 22.26 7.91511 22.26 7.50511C22.26 6.52511 22.26 6.03512 22.17 5.57512C21.79 3.68512 20.33 2.22512 18.44 1.84512C17.98 1.75512 17.49 1.75511 16.51 1.75511C16.1 1.75511 15.76 2.09511 15.76 2.50511C15.76 2.91511 16.1 3.25511 16.51 3.25511H16.5101C17.38 3.25511 17.83 3.25511 18.14 3.31511C19.43 3.56511 20.43 4.57511 20.69 5.86511C20.75 6.17511 20.75 6.61512 20.75 7.49512ZM1.75 7.49512C1.75 7.90512 2.09 8.24512 2.5 8.24512L2.51 8.23512C2.92 8.23512 3.26 7.89512 3.26 7.48512V7.4851C3.26 6.60512 3.26 6.16512 3.32 5.85512C3.57 4.56512 4.58 3.56511 5.87 3.30511C6.17999 3.24512 6.61996 3.24512 7.4999 3.24512H7.5C7.91 3.24512 8.25 2.90512 8.25 2.49512C8.25 2.08512 7.91 1.74512 7.5 1.74512H7.49988C6.51996 1.74512 6.02998 1.74512 5.57 1.83511C3.68 2.20511 2.22 3.67511 1.84 5.56511C1.75 6.02511 1.75 6.51512 1.75 7.49512ZM11 17.2451H13H13C15.02 17.2451 16.14 17.2451 16.94 16.4351C17.75 15.6351 17.75 14.5151 17.75 12.4951C17.75 10.4751 17.74 9.36511 16.94 8.55511C16.14 7.74512 15.02 7.74512 13 7.74512H13H12.75V6.49512C12.75 6.08512 12.41 5.74512 12 5.74512C11.59 5.74512 11.25 6.08512 11.25 6.49512V7.74512H11H11C8.97999 7.74512 7.86 7.74512 7.06 8.55511C6.25 9.35511 6.25 10.4751 6.25 12.4951C6.25 14.5151 6.26 15.6251 7.06 16.4351C7.86 17.2451 8.97999 17.2451 11 17.2451H11ZM8.12 9.61511C8.47 9.25511 9.25 9.24512 11 9.24512H13C14.74 9.24512 15.53 9.26511 15.88 9.61511C16.24 9.96511 16.25 10.7551 16.25 12.4951C16.25 14.2351 16.23 15.0251 15.88 15.3751C15.53 15.7351 14.75 15.7451 13 15.7451H11C9.26 15.7451 8.47 15.7251 8.12 15.3751C7.76 15.0251 7.75 14.2351 7.75 12.4951C7.75 10.7551 7.77 9.96511 8.12 9.61511ZM13.25 11.9951C13.25 12.4051 13.59 12.7451 14 12.7451C14.41 12.7451 14.75 12.4051 14.75 11.9951V11.4951C14.75 11.0851 14.41 10.7451 14 10.7451C13.59 10.7451 13.25 11.0851 13.25 11.4951V11.9951ZM9.25 11.9951C9.25 12.4051 9.59 12.7451 10 12.7451C10.41 12.7451 10.75 12.4051 10.75 11.9951V11.4951C10.75 11.0851 10.41 10.7451 10 10.7451C9.59 10.7451 9.25 11.0851 9.25 11.4951V11.9951Z" fill="currentColor" fill-rule="evenodd"></path></svg>