<svg xmlns="http://www.w3.org/2000/svg" width="24" height="24" viewBox="0 0 24 24" fill="none" stroke-width="1.5" stroke-linecap="round" stroke-linejoin="round" color="currentColor"><path d="M15.5969 11.0823C15.7069 11.3723 15.9869 11.5723 16.2969 11.5723C16.6069 11.5723 16.8868 11.3723 16.9968 11.0823L17.2668 10.3623C17.5668 9.5623 17.7169 9.16227 17.9269 8.95227C18.1348 8.74436 18.529 8.59534 19.3326 8.29155L19.3569 8.28235L20.0569 8.02234C20.3469 7.91234 20.5469 7.63227 20.5469 7.32227C20.5469 7.01227 20.3469 6.73231 20.0569 6.62231L19.3369 6.35229C18.5369 6.05229 18.1369 5.90226 17.9269 5.69226C17.7187 5.48409 17.5695 5.08927 17.2649 4.28362L17.2568 4.26233L16.9968 3.56226C16.8868 3.27226 16.6069 3.07227 16.2969 3.07227C15.9869 3.07227 15.7069 3.27226 15.5969 3.56226L15.3269 4.28235C15.0269 5.08235 14.8769 5.48226 14.6669 5.69226C14.4588 5.90036 14.064 6.04959 13.2589 6.35394L13.2368 6.3623L12.5369 6.62231C12.2469 6.73231 12.0469 7.01227 12.0469 7.32227C12.0469 7.63227 12.2469 7.91234 12.5369 8.02234L13.2568 8.29224C14.0568 8.59224 14.4569 8.74227 14.6669 8.95227C14.875 9.16037 15.0242 9.55511 15.3285 10.3602L15.3369 10.3823L15.5969 11.0823ZM15.7269 7.89233C15.4969 7.65233 15.2268 7.48227 14.8768 7.32227C15.2168 7.16227 15.4869 6.99232 15.7269 6.75232C15.9669 6.52232 16.1369 6.25234 16.2969 5.90234C16.4569 6.24234 16.6268 6.51232 16.8668 6.75232C17.0968 6.99232 17.3669 7.16227 17.7169 7.32227C17.3769 7.48227 17.1068 7.65233 16.8668 7.89233C16.6268 8.12233 16.4569 8.39231 16.2969 8.74231C16.1369 8.40231 15.9669 8.13233 15.7269 7.89233ZM11.7969 19.5723C7.52688 19.5723 4.04688 16.0923 4.04688 11.8223C4.04688 7.55227 7.52688 4.07227 11.7969 4.07227C12.2069 4.07227 12.5469 4.41227 12.5469 4.82227C12.5469 5.23227 12.2069 5.57227 11.7969 5.57227C8.34688 5.57227 5.54688 8.37227 5.54688 11.8223C5.54688 15.2723 8.34688 18.0723 11.7969 18.0723C15.2469 18.0723 18.0469 15.2723 18.0469 11.8223C18.0469 11.4123 18.3869 11.0723 18.7969 11.0723C19.2069 11.0723 19.5469 11.4123 19.5469 11.8223C19.5469 13.6883 18.8822 15.4035 17.7775 16.7433L21.3264 20.2922C21.6164 20.5822 21.6164 21.0623 21.3264 21.3523C21.1764 21.5023 20.9864 21.5722 20.7964 21.5722C20.6064 21.5722 20.4163 21.5023 20.2663 21.3523L16.7174 17.8033C15.3777 18.9078 13.6627 19.5723 11.7969 19.5723Z" fill="currentColor" fill-rule="evenodd"></path></svg>