<svg xmlns="http://www.w3.org/2000/svg" width="24" height="24" viewBox="0 0 24 24" fill="none"><path d="M7.5 14.5L9.34189 8.97434C9.43631 8.69107 9.7014 8.5 10 8.5C10.2986 8.5 10.5637 8.69107 10.6581 8.97434L12.5 14.5M15.5 8.5V14.5M8.5 12.5H11.5" stroke="currentColor" stroke-linecap="round" stroke-linejoin="round" stroke-width="1.5" /><path d="M21 11.1832V8.28014C21 6.64013 21 5.82013 20.5959 5.28514C20.1918 4.75014 19.2781 4.49041 17.4507 3.97095C16.2022 3.61604 15.1016 3.18848 14.2223 2.79814C13.0234 2.26594 12.424 1.99985 12 1.99985C11.576 1.99985 10.9766 2.26594 9.77771 2.79814C8.89839 3.18847 7.79784 3.61604 6.54933 3.97095C4.72193 4.49041 3.80822 4.75014 3.40411 5.28514C3 5.82013 3 6.64013 3 8.28014V11.1832C3 16.8083 8.06277 20.1834 10.594 21.5192C11.2011 21.8396 11.5046 21.9998 12 21.9998C12.4954 21.9998 12.7989 21.8396 13.406 21.5192C15.9372 20.1834 21 16.8083 21 11.1832Z" stroke="currentColor" stroke-linecap="round" stroke-width="1.5" /></svg>