<svg xmlns="http://www.w3.org/2000/svg" width="24" height="24" viewBox="0 0 24 24" fill="none" stroke-width="1.5" stroke-linecap="round" stroke-linejoin="round" color="currentColor"><path d="M12.8367 3.57564C14.1967 3.54564 15.2067 4.13567 16.4267 4.85567L16.4767 4.8857C17.5167 5.5057 18.6967 6.20568 20.2267 6.36568C20.9267 10.4457 20.4366 13.7057 19.1366 16.1257C17.8166 18.5957 15.6267 20.2656 12.8367 21.0456C10.2767 20.3856 8.04664 18.7757 6.63664 16.2857C5.26664 13.8557 4.6367 10.5357 5.3267 6.35567C6.7467 6.26567 7.93661 5.57567 8.98661 4.97567L9.03666 4.94564C10.3167 4.20564 11.4367 3.57564 12.8267 3.57564H12.8367ZM20.8567 4.89571C19.4467 4.89571 18.4067 4.29563 17.1967 3.56563L17.1466 3.53573C15.9766 2.84573 14.6267 2.03564 12.8167 2.07564C11.0067 2.07564 9.57662 2.90567 8.36662 3.60567L8.28666 3.64571C6.99666 4.38571 5.97663 4.94568 4.75663 4.86568C4.37663 4.83568 4.03671 5.09566 3.96671 5.46566C3.05671 10.2057 3.67671 14.1057 5.33671 17.0257C6.99671 19.9557 9.64668 21.8356 12.6767 22.5556C12.7967 22.5756 12.9267 22.5756 13.0467 22.5456C16.2767 21.6856 18.8967 19.7557 20.4667 16.8357C22.0267 13.9157 22.4967 10.0957 21.5867 5.5057C21.5267 5.1557 21.2167 4.89571 20.8567 4.89571ZM13.7566 8.59566C13.3066 7.89566 12.2867 7.89566 11.8367 8.59566L11.4067 9.27572C10.9867 9.94572 10.4166 10.5056 9.75663 10.9256L9.06669 11.3657C8.37669 11.8157 8.37669 12.8357 9.06669 13.2757L9.75663 13.7157C10.4166 14.1357 10.9867 14.6957 11.4067 15.3657L11.8367 16.0456C12.2867 16.7456 13.3066 16.7456 13.7566 16.0456L14.1867 15.3657C14.6067 14.6957 15.1767 14.1357 15.8367 13.7157L16.5267 13.2757C17.2167 12.8357 17.2167 11.8157 16.5267 11.3657L15.8367 10.9256C15.1767 10.5056 14.6067 9.94572 14.1867 9.27572L13.7566 8.59566ZM12.6667 10.0857L12.7967 9.8857L12.9267 10.0857C13.4667 10.9357 14.1867 11.6556 15.0367 12.1956L15.2267 12.3256L15.0367 12.4456C14.1867 12.9856 13.4667 13.7056 12.9267 14.5556L12.7967 14.7557L12.6667 14.5556C12.1267 13.7056 11.4067 12.9856 10.5567 12.4456L10.3666 12.3256L10.5567 12.1956C11.4067 11.6556 12.1267 10.9357 12.6667 10.0857Z" fill="currentColor" fill-rule="evenodd"></path></svg>