<svg xmlns="http://www.w3.org/2000/svg" width="24" height="24" viewBox="0 0 24 24" fill="none" stroke-width="1.5" stroke-linecap="round" stroke-linejoin="round" color="currentColor"><path d="M17.25 5.25C17.25 5.66 17.59 6 18 6C18.41 6 18.75 5.66 18.75 5.25V4.84356C19.1842 4.98222 19.5268 5.17684 19.8 5.45001C20.2558 5.90578 20.4929 6.55487 20.6162 7.5H3.38377C3.50713 6.55487 3.74424 5.90578 4.2 5.45001C4.47317 5.17684 4.8158 4.98222 5.25 4.84356V5.25C5.25 5.66 5.59 6 6 6C6.41 6 6.75 5.66 6.75 5.25V4.5809C7.71022 4.5 8.93382 4.5 10.5 4.5H13.5C15.0662 4.5 16.2898 4.5 17.25 4.5809V5.25ZM3.27561 9H20.7244C20.75 9.77425 20.75 10.6826 20.75 11.75V14.25C20.75 17.81 20.75 19.6 19.8 20.55C18.85 21.5 17.0602 21.5 13.5006 21.5H13.5H10.5H10.4994C6.93981 21.5 5.14995 21.5 4.2 20.55C3.25 19.6 3.25 17.81 3.25 14.25V11.75C3.25 10.6826 3.25 9.77425 3.27561 9ZM18.75 3.28573V2.25C18.75 1.84 18.41 1.5 18 1.5C17.59 1.5 17.25 1.84 17.25 2.25V3.0765C16.2351 3 15.0101 3 13.5 3H10.5C8.98992 3 7.76487 3 6.75 3.0765V2.25C6.75 1.84 6.41 1.5 6 1.5C5.59 1.5 5.25 1.84 5.25 2.25V3.28573C4.3818 3.48414 3.70967 3.82035 3.14 4.39001C1.75 5.78001 1.75 7.78 1.75 11.75V14.25C1.75 18.23 1.75 20.22 3.14 21.61C4.52995 23 6.52987 23 10.4996 23H10.5H13.5H13.5004C17.4701 23 19.47 23 20.86 21.61C22.25 20.22 22.25 18.22 22.25 14.25V11.75C22.25 7.77 22.25 5.78001 20.86 4.39001C20.2903 3.82035 19.6182 3.48414 18.75 3.28573ZM10.78 18.9C10.86 19.53 11.38 20 12 20C12.62 20 13.14 19.53 13.22 18.9C13.38 17.63 14.38 16.63 15.65 16.47C16.28 16.39 16.75 15.87 16.75 15.25C16.75 14.63 16.28 14.11 15.65 14.03C14.38 13.87 13.38 12.87 13.22 11.6C13.14 10.97 12.62 10.5 12 10.5C11.38 10.5 10.86 10.97 10.78 11.6C10.62 12.87 9.62 13.87 8.35 14.03C7.72 14.11 7.25 14.63 7.25 15.25C7.25 15.87 7.72 16.39 8.35 16.47C9.62 16.63 10.62 17.63 10.78 18.9ZM12 17.65C11.57 16.56 10.7 15.69 9.6 15.25C10.69 14.81 11.56 13.95 12 12.85C12.43 13.94 13.3 14.81 14.4 15.25C13.31 15.69 12.44 16.55 12 17.65Z" fill="currentColor" fill-rule="evenodd"></path></svg>