<svg xmlns="http://www.w3.org/2000/svg" width="24" height="24" viewBox="0 0 24 24" fill="none" stroke-width="1.5" stroke-linecap="round" stroke-linejoin="round" color="currentColor"><path d="M4.01081 13.0323C3.84081 12.7423 3.71079 12.5023 3.62079 12.3223C3.71079 12.1423 3.84081 11.9023 4.01081 11.6123C4.38081 10.9923 4.95088 10.1623 5.71088 9.33228C7.25088 7.68228 9.57084 6.07227 12.7908 6.07227C15.7508 6.07227 18.0709 7.66229 19.6909 9.34229C20.4909 10.1723 21.1008 11.0123 21.5108 11.6423C21.7008 11.9223 21.8509 12.1723 21.9509 12.3423C21.8609 12.5223 21.7309 12.7523 21.5709 13.0323C21.2009 13.6523 20.6308 14.4823 19.8708 15.3123C18.3308 16.9623 16.0108 18.5723 12.7908 18.5723C9.57084 18.5723 7.25088 16.9623 5.71088 15.3123C4.95088 14.4823 4.38081 13.6523 4.01081 13.0323ZM23.4808 12.6223C23.5708 12.4123 23.5609 12.1823 23.4609 11.9823V11.9623C23.4609 11.9623 23.4308 11.9223 23.4108 11.8923C23.3808 11.8323 23.3408 11.7523 23.2808 11.6523C23.1608 11.4523 22.9908 11.1623 22.7708 10.8223C22.3208 10.1323 21.6508 9.22225 20.7708 8.30225C19.0108 6.48225 16.3308 4.57227 12.7908 4.57227C9.01084 4.57227 6.33079 6.46226 4.62079 8.31226C3.76079 9.23226 3.13089 10.1523 2.72089 10.8423C2.52089 11.1923 2.36081 11.4823 2.26081 11.6823C2.21081 11.7923 2.17081 11.8723 2.14081 11.9323C2.13081 11.9623 2.12078 11.9823 2.11078 12.0023V12.0223C2.03078 12.2123 2.03078 12.4323 2.11078 12.6223V12.6423C2.12078 12.6623 2.13081 12.6823 2.14081 12.7123C2.17081 12.7723 2.21081 12.8523 2.26081 12.9623C2.36081 13.1623 2.52089 13.4522 2.72089 13.8022C3.13089 14.4922 3.76079 15.4123 4.62079 16.3323C6.33079 18.1823 9.01084 20.0723 12.7908 20.0723C16.5708 20.0723 19.2509 18.1823 20.9609 16.3323C21.8209 15.4123 22.4508 14.4922 22.8608 13.8022C23.0608 13.4522 23.2209 13.1623 23.3209 12.9623C23.3709 12.8523 23.4109 12.7723 23.4409 12.7123C23.4509 12.6823 23.4609 12.6623 23.4709 12.6423V12.6223H23.4808ZM14.1809 9.28235L13.7508 8.59229C13.3008 7.90229 12.2809 7.90229 11.8309 8.59229L11.4008 9.28235C10.9808 9.94235 10.4108 10.5123 9.7508 10.9323L9.06085 11.3623C8.37085 11.8123 8.37085 12.8323 9.06085 13.2823L9.7508 13.7123C10.4108 14.1323 10.9808 14.7023 11.4008 15.3623L11.8309 16.0522C12.2809 16.7422 13.3008 16.7422 13.7508 16.0522L14.1809 15.3623C14.6009 14.7023 15.1709 14.1323 15.8309 13.7123L16.5208 13.2823C17.2108 12.8323 17.2108 11.8123 16.5208 11.3623L15.8309 10.9323C15.1709 10.5123 14.6009 9.94235 14.1809 9.28235ZM12.6608 10.0823L12.7908 9.89233L12.9208 10.0823C13.4608 10.9323 14.1808 11.6523 15.0308 12.1923L15.2209 12.3223L15.0308 12.4523C14.1808 12.9923 13.4608 13.7123 12.9208 14.5623L12.7908 14.7523L12.6608 14.5623C12.1208 13.7123 11.4008 12.9923 10.5508 12.4523L10.3608 12.3223L10.5508 12.1923C11.4008 11.6523 12.1208 10.9323 12.6608 10.0823Z" fill="currentColor" fill-rule="evenodd"></path></svg>