<svg xmlns="http://www.w3.org/2000/svg" width="24" height="24" viewBox="0 0 24 24" fill="none" stroke-width="1.5" stroke-linecap="round" stroke-linejoin="round" color="currentColor"><path d="M17.3383 9.46606C17.4183 10.0561 17.9183 10.506 18.4983 10.506C19.0883 10.506 19.5783 10.0561 19.6583 9.45605C19.7883 8.38605 20.6383 7.53607 21.7083 7.40607C22.2983 7.32607 22.7483 6.83609 22.7483 6.24609C22.7483 5.65609 22.2983 5.16606 21.6983 5.08606C20.6283 4.95606 19.7783 4.10607 19.6483 3.03607C19.5683 2.44607 19.0783 1.99609 18.4883 1.99609C17.8983 1.99609 17.4083 2.44608 17.3283 3.04608C17.1883 4.11608 16.3483 4.96607 15.2783 5.09607C14.6883 5.17607 14.2383 5.66604 14.2383 6.25604C14.2383 6.84604 14.6883 7.33608 15.2883 7.41608C16.3583 7.54608 17.2083 8.39606 17.3383 9.46606ZM18.4983 8.11609C18.1183 7.29609 17.4583 6.63604 16.6383 6.25604C17.4583 5.87604 18.1183 5.21606 18.4983 4.39606C18.8783 5.21606 19.5383 5.87604 20.3583 6.25604C19.5383 6.63604 18.8783 7.29609 18.4983 8.11609ZM11.4995 23.5039H11.5H11.5005C15.9002 23.5039 18.1201 23.5039 19.73 22.124C19.96 21.924 20.17 21.7139 20.37 21.4839C21.75 19.8739 21.75 17.6639 21.75 13.2539C21.75 12.8439 21.41 12.5039 21 12.5039C20.59 12.5039 20.25 12.8439 20.25 13.2539C20.25 17.2939 20.25 19.3239 19.23 20.5139C19.09 20.6839 18.93 20.8439 18.76 20.9839C17.57 22.0039 15.5402 22.0039 11.5005 22.0039H11.5H11.4995C7.45983 22.0039 5.42995 22.0039 4.24 20.9839C4.07 20.8439 3.91 20.6839 3.77 20.5139C2.75 19.3239 2.75 17.2939 2.75 13.2539C2.75 9.21391 2.75 7.18396 3.77 5.99396C3.91 5.82396 4.07 5.66393 4.24 5.52393C5.43 4.50393 7.46 4.50391 11.5 4.50391C11.91 4.50391 12.25 4.16391 12.25 3.75391C12.25 3.34391 11.91 3.00391 11.5 3.00391C7.1 3.00391 4.88 3.00391 3.27 4.38391C3.04 4.58391 2.83 4.79393 2.63 5.02393C1.25 6.63393 1.25 8.85391 1.25 13.2539C1.25 17.6539 1.25 19.8739 2.63 21.4839C2.83 21.7139 3.04 21.934 3.27 22.124C4.87994 23.5039 7.08982 23.5039 11.4995 23.5039ZM8.25 14.7539C8.25 15.1639 8.59 15.5039 9 15.5039C9.41 15.5039 9.75 15.1639 9.75 14.7539V11.7539C9.75 11.3439 9.41 11.0039 9 11.0039C8.59 11.0039 8.25 11.3439 8.25 11.7539V14.7539ZM12 18.5039C11.59 18.5039 11.25 18.1639 11.25 17.7539V8.75391C11.25 8.34391 11.59 8.00391 12 8.00391C12.41 8.00391 12.75 8.34391 12.75 8.75391V17.7539C12.75 18.1639 12.41 18.5039 12 18.5039ZM14.25 15.7539C14.25 16.1639 14.59 16.5039 15 16.5039C15.41 16.5039 15.75 16.1639 15.75 15.7539V10.7539C15.75 10.3439 15.41 10.0039 15 10.0039C14.59 10.0039 14.25 10.3439 14.25 10.7539V15.7539ZM6 14.5039C5.59 14.5039 5.25 14.1639 5.25 13.7539V12.7539C5.25 12.3439 5.59 12.0039 6 12.0039C6.41 12.0039 6.75 12.3439 6.75 12.7539V13.7539C6.75 14.1639 6.41 14.5039 6 14.5039Z" fill="currentColor" fill-rule="evenodd"></path></svg>