<svg xmlns="http://www.w3.org/2000/svg" width="24" height="24" viewBox="0 0 24 24" fill="none" stroke-width="1.5" stroke-linecap="round" stroke-linejoin="round" color="currentColor"><path d="M7.94 3.07835H16.05C17.42 3.07835 18.52 3.07835 19.39 3.19835C20.29 3.31835 21.05 3.57836 21.65 4.17836C22.25 4.77836 22.51 5.53835 22.63 6.43835C22.75 7.30835 22.75 8.40835 22.75 9.77835V11.8284C22.75 12.2384 22.41 12.5784 22 12.5784C21.59 12.5784 21.25 12.2384 21.25 11.8284V9.82835C21.25 8.39835 21.25 7.38835 21.15 6.63835C21.05 5.90835 20.87 5.51836 20.59 5.23836C20.31 4.95836 19.93 4.77836 19.19 4.67836C18.43 4.57836 17.43 4.57835 16 4.57835H8C6.57 4.57835 5.56 4.57836 4.81 4.67836C4.08 4.77836 3.69 4.95836 3.41 5.23836C3.13 5.51836 2.94998 5.90835 2.84998 6.63835C2.74998 7.39835 2.75 8.39835 2.75 9.82835C2.75 11.2584 2.74998 12.2684 2.84998 13.0184C2.94998 13.7484 3.13 14.1384 3.41 14.4184C3.69 14.6983 4.07 14.8783 4.81 14.9783C5.57 15.0783 6.57 15.0784 8 15.0784H11C11.41 15.0784 11.75 15.4184 11.75 15.8284C11.75 16.2384 11.41 16.5784 11 16.5784H7.94998C6.57998 16.5784 5.47999 16.5784 4.60999 16.4584C3.70999 16.3384 2.94998 16.0783 2.34998 15.4783C1.74998 14.8783 1.49 14.1184 1.37 13.2184C1.25 12.3484 1.25 11.2484 1.25 9.87836V9.76836C1.25 8.39836 1.25 7.29836 1.37 6.42836C1.49 5.52836 1.74998 4.76835 2.34998 4.16835C2.94998 3.56835 3.70999 3.30835 4.60999 3.18835C5.47999 3.06835 6.57998 3.06836 7.94998 3.06836L7.94 3.07835ZM16.7 13.9584L16.66 14.0484C16.22 15.1684 15.33 16.0584 14.21 16.4984L14.12 16.5383C12.95 16.9983 12.95 18.6583 14.12 19.1183L14.21 19.1584C15.33 19.5984 16.22 20.4884 16.66 21.6084L16.7 21.6983C17.16 22.8683 18.82 22.8683 19.28 21.6983L19.32 21.6084C19.76 20.4884 20.65 19.5984 21.77 19.1584L21.86 19.1183C23.03 18.6583 23.03 16.9983 21.86 16.5383L21.77 16.4984C20.65 16.0584 19.76 15.1684 19.32 14.0484L19.28 13.9584C18.82 12.7884 17.16 12.7884 16.7 13.9584ZM17.99 14.7684C18.58 16.1484 19.68 17.2384 21.05 17.8284C19.67 18.4184 18.58 19.5184 17.99 20.8884C17.4 19.5084 16.3 18.4184 14.93 17.8284C16.31 17.2384 17.4 16.1384 17.99 14.7684ZM6.73999 8.82835C6.73999 8.41835 6.39999 8.07835 5.98999 8.07835C5.57999 8.07835 5.23999 8.41835 5.23999 8.82835V10.8284C5.23999 11.2384 5.57999 11.5784 5.98999 11.5784C6.39999 11.5784 6.73999 11.2384 6.73999 10.8284V8.82835ZM14.99 7.07835C15.4 7.07835 15.74 7.41835 15.74 7.82835V11.8284C15.74 12.2384 15.4 12.5784 14.99 12.5784C14.58 12.5784 14.24 12.2384 14.24 11.8284V7.82835C14.24 7.41835 14.58 7.07835 14.99 7.07835ZM12.74 9.32835C12.74 8.91835 12.4 8.57835 11.99 8.57835C11.58 8.57835 11.24 8.91835 11.24 9.32835V10.3284C11.24 10.7384 11.58 11.0784 11.99 11.0784C12.4 11.0784 12.74 10.7384 12.74 10.3284V9.32835ZM17.99 8.57835C18.4 8.57835 18.74 8.91835 18.74 9.32835V10.3284C18.74 10.7384 18.4 11.0784 17.99 11.0784C17.58 11.0784 17.24 10.7384 17.24 10.3284V9.32835C17.24 8.91835 17.58 8.57835 17.99 8.57835ZM9.73999 7.82835C9.73999 7.41835 9.39999 7.07835 8.98999 7.07835C8.57999 7.07835 8.23999 7.41835 8.23999 7.82835V11.8284C8.23999 12.2384 8.57999 12.5784 8.98999 12.5784C9.39999 12.5784 9.73999 12.2384 9.73999 11.8284V7.82835Z" fill="currentColor" fill-rule="evenodd"></path></svg>