<svg xmlns="http://www.w3.org/2000/svg" width="24" height="24" viewBox="0 0 24 24" fill="none" stroke-width="1.5" stroke-linecap="round" stroke-linejoin="round" color="currentColor"><path d="M12 1.5C17.93 1.5 22.75 6.32 22.75 12.25C22.75 18.16 17.96 22.97 12.06 23H12H11.95C6.04 22.97 1.25 18.18 1.25 12.25C1.25 6.32 6.07 1.5 12 1.5ZM16.74 16.39C16.38 18.29 15.79 19.84 15.05 20.97H15.07C18.45 19.79 20.93 16.7 21.23 13H19.52C19.11 13 18.77 12.66 18.77 12.25C18.77 11.84 19.11 11.5 19.52 11.5H21.23C20.93 7.8 18.45 4.72 15.07 3.53C15.81 4.66 16.4 6.21 16.76 8.11C16.84 8.52 16.57 8.91 16.16 8.99C16.135 8.99 16.1125 8.9925 16.09 8.995C16.0675 8.9975 16.045 9 16.02 9C15.67 9 15.35 8.75 15.28 8.39C14.68 5.22 13.33 3 12.02 3C10.71 3 9.36 5.22 8.76 8.39C8.68 8.8 8.29 9.06 7.88 8.99C7.47 8.91 7.21 8.52 7.28 8.11C7.64 6.21 8.23 4.66 8.97 3.53C5.59 4.71 3.11 7.8 2.81 11.5H4.52C4.93 11.5 5.27 11.84 5.27 12.25C5.27 12.66 4.93 13 4.52 13H2.81C3.1 16.7 5.59 19.79 8.97 20.97C8.23 19.84 7.64 18.29 7.28 16.39C7.2 15.98 7.47 15.59 7.88 15.51C8.29 15.44 8.68 15.7 8.76 16.11C9.36 19.28 10.7 21.5 12.01 21.5C13.32 21.49 14.66 19.27 15.26 16.11C15.34 15.7 15.73 15.44 16.14 15.51C16.55 15.59 16.81 15.98 16.74 16.39ZM14.02 10.37L15.94 11.08C16.43 11.26 16.75 11.72 16.75 12.25C16.75 12.78 16.43 13.23 15.94 13.42L14.02 14.13C13.95 14.15 13.9 14.2 13.88 14.27L13.17 16.19C12.99 16.68 12.53 17 12 17C11.47 17 11.02 16.68 10.83 16.19L10.12 14.27C10.1 14.21 10.05 14.16 9.98 14.13L8.06 13.42C7.57 13.24 7.25 12.78 7.25 12.25C7.25 11.72 7.57 11.27 8.06 11.08L9.98 10.37C10.05 10.35 10.1 10.3 10.12 10.23L10.83 8.31C11.01 7.82 11.47 7.5 12 7.5C12.53 7.5 12.98 7.82 13.17 8.31L13.88 10.23C13.9 10.29 13.95 10.34 14.02 10.37ZM12.47 13.74C12.65 13.26 13.02 12.89 13.5 12.71L14.77 12.24L13.5 11.77C13.03 11.6 12.65 11.22 12.47 10.75L12 9.48L11.53 10.75C11.35 11.23 10.98 11.6 10.5 11.78L9.23 12.25L10.5 12.72C10.97 12.89 11.35 13.27 11.53 13.74L12 15.01L12.47 13.74Z" fill="currentColor" fill-rule="evenodd"></path></svg>