<svg xmlns="http://www.w3.org/2000/svg" width="24" height="24" viewBox="0 0 24 24" fill="none"><path d="M4.00183 15C2.89726 15 2.00183 14.1046 2.00183 13V8C2.00183 6.11438 2.00183 5.17157 2.58762 4.58579C3.1734 4 4.11621 4 6.00183 4H18.0018C19.8874 4 20.8303 4 21.416 4.58579C22.0018 5.17157 22.0018 6.11438 22.0018 8V13C22.0018 14.1046 21.1064 15 20.0018 15" stroke="currentColor" stroke-linecap="round" stroke-linejoin="round" stroke-width="1.5" /><path d="M6.00183 10H18.0018" stroke="currentColor" stroke-linecap="round" stroke-linejoin="round" stroke-width="1.5" /><path d="M16.0018 15V16C16.0018 18.2091 17.7927 20 20.0018 20" stroke="currentColor" stroke-linecap="round" stroke-linejoin="round" stroke-width="1.5" /><path d="M8.00183 15V16C8.00183 18.2091 6.21097 20 4.00183 20" stroke="currentColor" stroke-linecap="round" stroke-linejoin="round" stroke-width="1.5" /><path d="M12.0018 20V15" stroke="currentColor" stroke-linecap="round" stroke-linejoin="round" stroke-width="1.5" /></svg>