<svg xmlns="http://www.w3.org/2000/svg" width="24" height="24" viewBox="0 0 24 24" fill="none" stroke-width="1.5" stroke-linecap="round" stroke-linejoin="round" color="currentColor"><path d="M19.5 7H4.5C5.08771 4.64917 7.19993 3 9.62311 3H14.3769C16.8001 3 18.9123 4.64917 19.5 7Z" fill="none"></path><path d="M18 16.5V7H20C20.5523 7 21 7.44772 21 8V16.5C21 17.3284 20.3284 18 19.5 18C18.6716 18 18 17.3284 18 16.5Z" fill="none"></path><path d="M6 19V7H18V19C18 20.1046 17.1046 21 16 21H8C6.89543 21 6 20.1046 6 19Z" fill="none"></path><path d="M3 16.5V8C3 7.44772 3.44772 7 4 7H6V16.5C6 17.3284 5.32843 18 4.5 18C3.67157 18 3 17.3284 3 16.5Z" fill="none"></path></svg>