<svg xmlns="http://www.w3.org/2000/svg" width="24" height="24" viewBox="0 0 24 24" fill="none" stroke-width="1.5" stroke-linecap="round" stroke-linejoin="round" color="currentColor"><path d="M8.48169 18H17.9722C19.0921 18 20 17.1077 20 16.0071C20 14.5 17.9722 14.0141 17.9722 14.0141C17.9722 14.0141 14.2844 12.5964 10 14C10 14 9.86099 8.87274 7.70985 3.17067C7.28543 2.04566 5.90119 1.66155 4.88539 2.3271C4.21507 2.7663 3.8807 3.55966 4.0387 4.33605L6.49327 16.3979C6.68283 17.3295 7.51507 18 8.48169 18Z" stroke="currentColor"></path><path d="M12.5 10.5H18" stroke="currentColor"></path><path d="M16 18L13 22M13 22H8M13 22H18" stroke="currentColor"></path></svg>