<svg xmlns="http://www.w3.org/2000/svg" width="24" height="24" viewBox="0 0 24 24" fill="none"><path d="M4 8H20C20.465 8 20.6975 8 20.8882 7.94889C21.4059 7.81019 21.8102 7.40587 21.9489 6.88823C22 6.69748 22 6.46499 22 6C22 5.53501 22 5.30252 21.9489 5.11177C21.8102 4.59413 21.4059 4.18981 20.8882 4.05111C20.6975 4 20.465 4 20 4H4C3.53501 4 3.30252 4 3.11177 4.05111C2.59413 4.18981 2.18981 4.59413 2.05111 5.11177C2 5.30252 2 5.53501 2 6C2 6.46499 2 6.69748 2.05111 6.88823C2.18981 7.40587 2.59413 7.81019 3.11177 7.94889C3.30252 8 3.53501 8 4 8Z" stroke="currentColor" stroke-linecap="round" stroke-linejoin="round" stroke-width="1.5" /><path d="M5 8L5.34164 8.68328C6.14852 10.297 6.55195 11.1039 7.27691 11.552C8.00186 12 8.90398 12 10.7082 12H13.2918C15.096 12 15.9981 12 16.7231 11.552C17.448 11.1039 17.8515 10.297 18.6584 8.68328L19 8H5Z" stroke="currentColor" stroke-linecap="round" stroke-linejoin="round" stroke-width="1.5" /><path d="M12 16V20" stroke="currentColor" stroke-linecap="round" stroke-linejoin="round" stroke-width="1.5" /><path d="M16 16V20" stroke="currentColor" stroke-linecap="round" stroke-linejoin="round" stroke-width="1.5" /><path d="M8 16V20" stroke="currentColor" stroke-linecap="round" stroke-linejoin="round" stroke-width="1.5" /></svg>