<svg xmlns="http://www.w3.org/2000/svg" width="24" height="24" viewBox="0 0 24 24" fill="none"><path d="M21.5 12.6863V11.3137C21.5 9.67871 21.5 8.8612 21.1955 8.12612C20.891 7.39104 20.313 6.81297 19.1569 5.65685L18.3431 4.84315C17.187 3.68702 16.609 3.10896 15.8739 2.80448C15.1388 2.5 14.3213 2.5 12.6863 2.5H11.3137C9.67871 2.5 8.8612 2.5 8.12612 2.80448C7.39104 3.10896 6.81297 3.68702 5.65685 4.84315L4.84315 5.65685C3.68702 6.81298 3.10896 7.39104 2.80448 8.12612C2.5 8.8612 2.5 9.67871 2.5 11.3137V12.6863C2.5 14.3213 2.5 15.1388 2.80448 15.8739C3.10896 16.609 3.68702 17.187 4.84315 18.3431L5.65685 19.1569C6.81297 20.313 7.39104 20.891 8.12612 21.1955C8.8612 21.5 9.67871 21.5 11.3137 21.5H12.6863C14.3213 21.5 15.1388 21.5 15.8739 21.1955C16.609 20.891 17.187 20.313 18.3431 19.1569L19.1569 18.3431C20.313 17.187 20.891 16.609 21.1955 15.8739C21.5 15.1388 21.5 14.3213 21.5 12.6863Z" stroke="currentColor" stroke-linecap="round" stroke-linejoin="round" stroke-width="1.5" /><path d="M12 8L12 12.5" stroke="currentColor" stroke-linecap="round" stroke-linejoin="round" stroke-width="1.5" /><path d="M12 15.9883V15.9983" stroke="currentColor" stroke-linecap="round" stroke-linejoin="round" stroke-width="1.8" /></svg>