<svg xmlns="http://www.w3.org/2000/svg" width="24" height="24" viewBox="0 0 24 24" fill="none"><path d="M3 2V22" stroke="currentColor" stroke-linecap="round" stroke-linejoin="round" stroke-width="1.5" /><path d="M7 7.5V16.497C7 16.9617 7 17.194 7.03843 17.3872C7.19624 18.1806 7.81644 18.8008 8.60982 18.9586C8.80302 18.997 9.03534 18.997 9.5 18.997C9.96466 18.997 10.197 18.997 10.3902 18.9586C11.1836 18.8008 11.8038 18.1806 11.9616 17.3872C12 17.194 12 16.9617 12 16.497V7.5C12 7.03534 12 6.80302 11.9616 6.60982C11.8038 5.81644 11.1836 5.19624 10.3902 5.03843C10.197 5 9.96466 5 9.5 5C9.03534 5 8.80302 5 8.60982 5.03843C7.81644 5.19624 7.19624 5.81644 7.03843 6.60982C7 6.80302 7 7.03534 7 7.5Z" stroke="currentColor" stroke-linecap="round" stroke-linejoin="round" stroke-width="1.5" /><path d="M16 10.5V13.497C16 13.9617 16 14.194 16.0384 14.3872C16.1962 15.1806 16.8164 15.8008 17.6098 15.9586C17.803 15.997 18.0353 15.997 18.5 15.997C18.9647 15.997 19.197 15.997 19.3902 15.9586C20.1836 15.8008 20.8038 15.1806 20.9616 14.3872C21 14.194 21 13.9617 21 13.497V10.5C21 10.0353 21 9.80302 20.9616 9.60982C20.8038 8.81644 20.1836 8.19624 19.3902 8.03843C19.197 8 18.9647 8 18.5 8C18.0353 8 17.803 8 17.6098 8.03843C16.8164 8.19624 16.1962 8.81644 16.0384 9.60982C16 9.80302 16 10.0353 16 10.5Z" stroke="currentColor" stroke-linecap="round" stroke-linejoin="round" stroke-width="1.5" /></svg>