<svg xmlns="http://www.w3.org/2000/svg" width="24" height="24" viewBox="0 0 24 24" fill="none"><path d="M21 12L3 12" stroke="currentColor" stroke-linecap="round" stroke-linejoin="round" stroke-width="1.5" /><path d="M8.00232 5.5C8.00232 4.65611 7.91895 3.68211 8.75232 3.20096C9.10039 3 9.5677 3 10.5023 3H13.5023C14.4369 3 14.9042 3 15.2523 3.20096C16.0857 3.68211 16.0023 4.65611 16.0023 5.5C16.0023 6.34389 16.0857 7.31789 15.2523 7.79904C14.9042 8 14.4369 8 13.5023 8H10.5023C9.5677 8 9.10039 8 8.75232 7.79904C7.91895 7.31789 8.00232 6.34389 8.00232 5.5Z" stroke="currentColor" stroke-linecap="round" stroke-linejoin="round" stroke-width="1.5" /><path d="M6.00232 18.5C6.00232 17.6561 5.91895 16.6821 6.75232 16.201C7.10039 16 7.5677 16 8.50232 16L15.5023 16C16.4369 16 16.9042 16 17.2523 16.201C18.0857 16.6821 18.0023 17.6561 18.0023 18.5C18.0023 19.3439 18.0857 20.3179 17.2523 20.799C16.9042 21 16.4369 21 15.5023 21H8.50232C7.5677 21 7.10039 21 6.75232 20.799C5.91895 20.3179 6.00232 19.3439 6.00232 18.5Z" stroke="currentColor" stroke-linecap="round" stroke-linejoin="round" stroke-width="1.5" /></svg>