<svg xmlns="http://www.w3.org/2000/svg" width="24" height="24" viewBox="0 0 24 24" fill="none"><path d="M21 21L3 21" stroke="currentColor" stroke-linecap="round" stroke-linejoin="round" stroke-width="1.5" /><path d="M6.00232 14.5C6.00232 13.6561 5.91895 12.6821 6.75232 12.201C7.10039 12 7.5677 12 8.50232 12L15.5023 12C16.4369 12 16.9042 12 17.2523 12.201C18.0857 12.6821 18.0023 13.6561 18.0023 14.5C18.0023 15.3439 18.0857 16.3179 17.2523 16.799C16.9042 17 16.4369 17 15.5023 17H8.50232C7.5677 17 7.10039 17 6.75232 16.799C5.91895 16.3179 6.00232 15.3439 6.00232 14.5Z" stroke="currentColor" stroke-linecap="round" stroke-linejoin="round" stroke-width="1.5" /><path d="M8.00232 5.5C8.00232 4.65611 7.91895 3.68211 8.75232 3.20096C9.10039 3 9.5677 3 10.5023 3H13.5023C14.4369 3 14.9042 3 15.2523 3.20096C16.0857 3.68211 16.0023 4.65611 16.0023 5.5C16.0023 6.34389 16.0857 7.31789 15.2523 7.79904C14.9042 8 14.4369 8 13.5023 8H10.5023C9.5677 8 9.10039 8 8.75232 7.79904C7.91895 7.31789 8.00232 6.34389 8.00232 5.5Z" stroke="currentColor" stroke-linecap="round" stroke-linejoin="round" stroke-width="1.5" /></svg>