<svg xmlns="http://www.w3.org/2000/svg" width="24" height="24" viewBox="0 0 24 24" fill="none"><path d="M9 5L19 5C20.1046 5 21 5.89543 21 7V8C21 9.10457 20.1046 10 19 10H9C7.89543 10 7 9.10457 7 8V7C7 5.89543 7.89543 5 9 5Z" stroke="currentColor" stroke-linecap="round" stroke-linejoin="round" stroke-width="1.5" /><path d="M9 14L13 14C14.1046 14 15 14.8954 15 16V17C15 18.1046 14.1046 19 13 19H9C7.89543 19 7 18.1046 7 17V16C7 14.8954 7.89543 14 9 14Z" stroke="currentColor" stroke-linecap="round" stroke-linejoin="round" stroke-width="1.5" /><path d="M3 3V21" stroke="currentColor" stroke-linecap="round" stroke-linejoin="round" stroke-width="1.5" /></svg>