<svg xmlns="http://www.w3.org/2000/svg" width="24" height="24" viewBox="0 0 24 24" fill="none"><path d="M19 2V22" stroke="currentColor" stroke-linecap="round" stroke-linejoin="round" stroke-width="1.5" /><path d="M5 2V22" stroke="currentColor" stroke-linecap="round" stroke-linejoin="round" stroke-width="1.5" /><path d="M9.5 9.5V14.497C9.5 14.9617 9.5 15.194 9.53843 15.3872C9.69624 16.1806 10.3164 16.8008 11.1098 16.9586C11.303 16.997 11.5353 16.997 12 16.997C12.4647 16.997 12.697 16.997 12.8902 16.9586C13.6836 16.8008 14.3038 16.1806 14.4616 15.3872C14.5 15.194 14.5 14.9617 14.5 14.497V9.5C14.5 9.03534 14.5 8.80302 14.4616 8.60982C14.3038 7.81644 13.6836 7.19624 12.8902 7.03843C12.697 7 12.4647 7 12 7C11.5353 7 11.303 7 11.1098 7.03843C10.3164 7.19624 9.69624 7.81644 9.53843 8.60982C9.5 8.80302 9.5 9.03534 9.5 9.5Z" stroke="currentColor" stroke-linecap="round" stroke-linejoin="round" stroke-width="1.5" /></svg>