<svg xmlns="http://www.w3.org/2000/svg" width="24" height="24" viewBox="0 0 24 24" fill="none"><path d="M9.5 8C9.5 5 8 2 8 2C8 2 6.5 5 6.5 8H9.5Z" stroke="currentColor" stroke-linecap="round" stroke-linejoin="round" stroke-width="1.5" /><path d="M10 10.5L9.5 8H6.5L6 10.5H10Z" stroke="currentColor" stroke-linecap="round" stroke-linejoin="round" stroke-width="1.5" /><path d="M10 10.5H6V18C6 18.5523 6.44772 19 7 19H9C9.55228 19 10 18.5523 10 18V10.5Z" stroke="currentColor" stroke-linecap="round" stroke-linejoin="round" stroke-width="1.5" /><path d="M10 22H6V20C6 19.4477 6.44772 19 7 19H9C9.55228 19 10 19.4477 10 20V22Z" stroke="currentColor" stroke-linecap="round" stroke-linejoin="round" stroke-width="1.5" /><path d="M17.5 8C17.5 5 16 2 16 2C16 2 14.5 5 14.5 8H17.5Z" stroke="currentColor" stroke-linecap="round" stroke-linejoin="round" stroke-width="1.5" /><path d="M18 10.5L17.5 8H14.5L14 10.5H18Z" stroke="currentColor" stroke-linecap="round" stroke-linejoin="round" stroke-width="1.5" /><path d="M18 10.5H14V18C14 18.5523 14.4477 19 15 19H17C17.5523 19 18 18.5523 18 18V10.5Z" stroke="currentColor" stroke-linecap="round" stroke-linejoin="round" stroke-width="1.5" /><path d="M18 22H14V20C14 19.4477 14.4477 19 15 19H17C17.5523 19 18 19.4477 18 20V22Z" stroke="currentColor" stroke-linecap="round" stroke-linejoin="round" stroke-width="1.5" /></svg>