<svg xmlns="http://www.w3.org/2000/svg" width="24" height="24" viewBox="0 0 24 24" fill="none" stroke-width="1.5" stroke-linecap="round" stroke-linejoin="round" color="currentColor"><path d="M8.25 20.75C7.84 20.75 7.5 20.41 7.5 20V4C7.5 3.59 7.84 3.25 8.25 3.25C8.66 3.25 9 3.59 9 4V20C9 20.41 8.66 20.75 8.25 20.75ZM4.25 20.75C3.84 20.75 3.5 20.41 3.5 20V9C3.5 8.59 3.84 8.25 4.25 8.25C4.66 8.25 5 8.59 5 9V20C5 20.41 4.66 20.75 4.25 20.75ZM11.5 20C11.5 20.41 11.84 20.75 12.25 20.75C12.66 20.75 13 20.41 13 20V11C13 10.59 12.66 10.25 12.25 10.25C11.84 10.25 11.5 10.59 11.5 11V20ZM16.25 20.75C15.84 20.75 15.5 20.41 15.5 20V7C15.5 6.59 15.84 6.25 16.25 6.25C16.66 6.25 17 6.59 17 7V20C17 20.41 16.66 20.75 16.25 20.75ZM19.5 20C19.5 20.41 19.84 20.75 20.25 20.75C20.66 20.75 21 20.41 21 20V14C21 13.59 20.66 13.25 20.25 13.25C19.84 13.25 19.5 13.59 19.5 14V20Z" fill="currentColor" fill-rule="evenodd"></path></svg>