<svg xmlns="http://www.w3.org/2000/svg" width="24" height="24" viewBox="0 0 24 24" fill="none" stroke-width="1.5" stroke-linecap="round" stroke-linejoin="round" color="currentColor"><path d="M21.8275 11.3558C21.6075 11.2158 21.3275 11.2058 21.0975 11.3258L19.0975 12.3258C18.7275 12.5158 18.5775 12.9658 18.7575 13.3358C18.9475 13.7058 19.3975 13.8558 19.7675 13.6758L20.5875 13.2658C20.0175 16.9758 16.9675 19.8759 13.1875 20.2159V8.65585C14.6175 8.31585 15.6875 7.03586 15.6875 5.50586C15.6875 3.71586 14.2275 2.25586 12.4375 2.25586C10.6475 2.25586 9.1875 3.71586 9.1875 5.50586C9.1875 7.03586 10.2575 8.31585 11.6875 8.65585V20.2159C7.9075 19.8759 4.8575 16.9758 4.2875 13.2658L5.1075 13.6758C5.4775 13.8658 5.9275 13.7158 6.1175 13.3358C6.3075 12.9658 6.1575 12.5158 5.7775 12.3258L3.7775 11.3258C3.5475 11.2058 3.2675 11.2258 3.0475 11.3558C2.8275 11.4958 2.6875 11.7358 2.6875 11.9958C2.6875 17.3758 7.0575 21.7458 12.4375 21.7458C17.8175 21.7458 22.1875 17.3758 22.1875 11.9958C22.1875 11.7358 22.0575 11.4958 21.8275 11.3558ZM10.6875 5.49585C10.6875 4.53585 11.4775 3.74585 12.4375 3.74585C13.3975 3.74585 14.1875 4.53585 14.1875 5.49585C14.1875 6.45585 13.3975 7.24585 12.4375 7.24585C11.4775 7.24585 10.6875 6.45585 10.6875 5.49585Z" fill="currentColor"></path></svg>