<svg xmlns="http://www.w3.org/2000/svg" width="24" height="24" viewBox="0 0 24 24" fill="none" stroke-width="1.5" stroke-linecap="round" stroke-linejoin="round" color="currentColor"><path d="M3.07818 7.5C2.38865 8.85588 2 10.39 2 12.0148C2 17.5295 6.47715 22 12 22C17.5228 22 22 17.5295 22 12.0148C22 10.39 21.6114 8.85588 20.9218 7.5" stroke="currentColor"></path><path d="M8 15C8.91212 16.2144 10.3643 17 12 17C13.6357 17 15.0879 16.2144 16 15" stroke="currentColor"></path><ellipse cx="12" cy="4" rx="10" ry="2" stroke="currentColor"></ellipse><path d="M7 10.5C7 9.6716 7.67157 9.00003 8.5 9.00003C9.32843 9.00003 10 9.6716 10 10.5M14 10.5C14 9.67157 14.6716 9 15.5 9C16.3284 9 17 9.67157 17 10.5" stroke="currentColor"></path></svg>