<svg xmlns="http://www.w3.org/2000/svg" width="24" height="24" viewBox="0 0 24 24" fill="none"><path d="M18 17L18 7L6 7L6 17L18 17Z" stroke="currentColor" stroke-linecap="round" stroke-linejoin="round" stroke-width="1.5" /><path d="M22 17.9296L22 6.07037C22 5.5464 22 5.28442 21.8817 5.06333C21.7633 4.84223 21.5454 4.69691 21.1094 4.40627L19.1934 3.12892C19.0673 3.04486 18.9191 3 18.7676 3C18.3437 3 18 3.34366 18 3.76759L18 20.2324C18 20.6563 18.3437 21 18.7676 21C18.9191 21 19.0673 20.9551 19.1934 20.8711L21.1094 19.5937C21.5454 19.3031 21.7633 19.1578 21.8817 18.9367C22 18.7156 22 18.4536 22 17.9296Z" stroke="currentColor" stroke-linecap="round" stroke-linejoin="round" stroke-width="1.5" /><path d="M2.8906 19.5937C2.45463 19.3031 2.23665 19.1578 2.11833 18.9367C2 18.7156 2 18.4536 2 17.9296L2 6.07037C2 5.5464 2 5.28442 2.11833 5.06333C2.23665 4.84223 2.45463 4.69691 2.8906 4.40627L4.80662 3.12892C4.93271 3.04486 5.08087 3 5.23241 3C5.65634 3 6 3.34366 6 3.76759L6 20.2324C6 20.6563 5.65634 21 5.23241 21C5.08087 21 4.93272 20.9551 4.80663 20.8711L2.8906 19.5937Z" stroke="currentColor" stroke-linecap="round" stroke-linejoin="round" stroke-width="1.5" /><path d="M13.5001 10.0004L14.7267 11.0576C15.2423 11.502 15.5001 11.7242 15.5001 12.0004C15.5001 12.2765 15.2423 12.4987 14.7267 12.9432L13.5001 14.0004" stroke="currentColor" stroke-linecap="round" stroke-linejoin="round" stroke-width="1.5" /><path d="M10.5 10L9.27346 11.0572C8.75782 11.5016 8.5 11.7239 8.5 12C8.5 12.2761 8.75782 12.4984 9.27346 12.9428L10.5 14" stroke="currentColor" stroke-linecap="round" stroke-linejoin="round" stroke-width="1.5" /></svg>