<svg xmlns="http://www.w3.org/2000/svg" width="24" height="24" viewBox="0 0 24 24" fill="none"><path d="M15 4H9C5.70017 4 4.05025 4 3.02513 5.02513C2 6.05025 2 7.70017 2 11V13C2 16.2998 2 17.9497 3.02513 18.9749C4.05025 20 5.70017 20 9 20H15C18.2998 20 19.9497 20 20.9749 18.9749C22 17.9497 22 16.2998 22 13V11C22 7.70017 22 6.05025 20.9749 5.02513C19.9497 4 18.2998 4 15 4Z" stroke="currentColor" stroke-linecap="round" stroke-linejoin="round" stroke-width="1.5" /><path d="M2.5 8H21.5" stroke="currentColor" stroke-linecap="round" stroke-linejoin="round" stroke-width="1.5" /><path d="M7 4.5V8" stroke="currentColor" stroke-linecap="round" stroke-linejoin="round" stroke-width="1.5" /></svg>