<svg xmlns="http://www.w3.org/2000/svg" width="24" height="24" viewBox="0 0 24 24" fill="none"><path d="M5.5 7.3125V7.5M5.75 7.5C5.75 7.63807 5.63807 7.75 5.5 7.75C5.36193 7.75 5.25 7.63807 5.25 7.5C5.25 7.36193 5.36193 7.25 5.5 7.25C5.63807 7.25 5.75 7.36193 5.75 7.5Z" stroke="currentColor" stroke-linecap="round" stroke-linejoin="round" stroke-width="1.5" /><path d="M9.5 7.3125V7.5M9.75 7.5C9.75 7.63807 9.63807 7.75 9.5 7.75C9.36193 7.75 9.25 7.63807 9.25 7.5C9.25 7.36193 9.36193 7.25 9.5 7.25C9.63807 7.25 9.75 7.36193 9.75 7.5Z" stroke="currentColor" stroke-linecap="round" stroke-linejoin="round" stroke-width="1.5" /><path d="M15 4H9C5.70017 4 4.05025 4 3.02513 5.02513C2 6.05025 2 7.70017 2 11V13C2 16.2998 2 17.9497 3.02513 18.9749C4.05025 20 5.70017 20 9 20H15C18.2998 20 19.9497 20 20.9749 18.9749C22 17.9497 22 16.2998 22 13V11C22 7.70017 22 6.05025 20.9749 5.02513C19.9497 4 18.2998 4 15 4Z" stroke="currentColor" stroke-linecap="round" stroke-linejoin="round" stroke-width="1.5" /></svg>