<svg xmlns="http://www.w3.org/2000/svg" width="24" height="24" viewBox="0 0 24 24" fill="none" stroke-width="1.5" stroke-linecap="round" stroke-linejoin="round" color="currentColor"><path d="M9.37593 22.0791C9.05593 22.0791 8.73598 22.0091 8.42598 21.8691C7.69598 21.5391 7.21593 20.8691 7.12593 20.0791L6.84602 17.4391L4.22603 16.7592C3.41603 16.5492 2.81604 15.9491 2.61604 15.1591C2.41604 14.3691 2.65593 13.5591 3.25593 12.9991L5.18599 11.1992L4.12593 8.86914C3.79593 8.13914 3.87602 7.30912 4.34602 6.65912C4.83602 5.98912 5.616 5.64914 6.446 5.74914L9.23604 6.0791L10.556 3.71911C10.946 3.01911 11.656 2.58915 12.456 2.56915C13.246 2.52915 13.996 2.92912 14.426 3.59912L15.906 5.91913L18.6459 5.42914C19.4559 5.27914 20.256 5.56915 20.786 6.19915C21.306 6.81915 21.446 7.63916 21.156 8.38916L20.226 10.8191L22.236 12.4791C22.866 12.9991 23.1559 13.7891 23.0059 14.5891C22.8559 15.3891 22.2759 16.0391 21.4959 16.2991L18.8959 17.1291L18.786 19.7291C18.746 20.5291 18.306 21.2191 17.596 21.5991C16.876 21.9791 16.036 21.9491 15.336 21.5291L12.936 20.0491L10.656 21.6491C10.266 21.9191 9.81603 22.0591 9.35603 22.0591L9.37593 22.0791ZM8.40596 17.8491L8.62593 19.9291C8.66593 20.2991 8.93598 20.4592 9.05598 20.5092C9.30598 20.6192 9.596 20.5991 9.826 20.4391L11.576 19.2091L10.986 18.8391C10.356 18.4591 9.68603 18.1691 8.97603 17.9791L8.42598 17.8391L8.40596 17.8491ZM14.286 19.1291L16.1359 20.2691C16.3759 20.4091 16.656 20.4191 16.906 20.2891C17.016 20.2291 17.276 20.0491 17.296 19.6791L17.3759 17.6291L16.6459 17.8591C15.9459 18.0891 15.286 18.4091 14.686 18.8291L14.276 19.1091L14.286 19.1291ZM8.23604 16.2491L9.33601 16.5291C10.196 16.7491 11.0059 17.0991 11.7659 17.5591L12.906 18.2691L13.846 17.6091C14.566 17.1091 15.356 16.7091 16.206 16.4391L17.456 16.0391L17.4959 15.0691C17.5359 14.1591 17.726 13.2591 18.046 12.4091L18.466 11.3091L17.666 10.6392C16.966 10.0592 16.3659 9.37915 15.8859 8.62915L15.206 7.56915L14.056 7.7691C13.196 7.9291 12.316 7.94912 11.436 7.84912L10.076 7.68915L9.576 8.59912C9.136 9.37912 8.58598 10.0991 7.92598 10.7091L7.01594 11.5591L7.93599 13.5891C7.96599 13.6591 7.98592 13.7391 7.99592 13.8191L8.25593 16.2391L8.23604 16.2491ZM5.84602 12.6491L4.29597 14.0991C4.01597 14.3591 4.05601 14.6691 4.08601 14.7991C4.11601 14.9191 4.23604 15.2191 4.61604 15.3191L6.68599 15.8591L6.50593 14.1191L5.84602 12.6591V12.6491ZM19.676 12.3191L19.436 12.9391C19.176 13.6491 19.016 14.3892 18.986 15.1392L18.966 15.5591L21.046 14.8892C21.306 14.8092 21.496 14.5991 21.546 14.3291C21.566 14.2091 21.586 13.8991 21.296 13.6491L19.676 12.3091V12.3191ZM6.18599 7.23913C5.94599 7.23913 5.716 7.34913 5.576 7.54913C5.506 7.64913 5.35593 7.91914 5.50593 8.24914L6.35603 10.1191L6.89595 9.61914C7.43595 9.10914 7.89594 8.51914 8.26594 7.86914L8.47603 7.49914L6.29597 7.23913C6.29597 7.23913 6.236 7.23913 6.196 7.23913H6.18599ZM16.796 7.29913L17.1359 7.8291C17.5359 8.4491 18.026 9.00913 18.606 9.48913L19.0159 9.8291L19.7659 7.87915C19.8959 7.53915 19.7259 7.27914 19.6459 7.17914C19.5659 7.07914 19.326 6.84913 18.926 6.91913L16.806 7.29913H16.796ZM10.856 6.28912L11.606 6.37915C12.336 6.46915 13.066 6.44915 13.786 6.31915L14.326 6.21911L13.176 4.42914C12.966 4.10914 12.6659 4.08911 12.5059 4.08911C12.3759 4.08911 12.056 4.13911 11.866 4.46911L10.846 6.28912H10.856Z" fill="currentColor"></path></svg>