<svg xmlns="http://www.w3.org/2000/svg" width="24" height="24" viewBox="0 0 24 24" fill="none"><path d="M4.25276 20.302C5.6554 21.5 7.77027 21.5 12 21.5C16.2297 21.5 18.3446 21.5 19.7472 20.302C19.9464 20.1319 20.1319 19.9464 20.302 19.7472C21.5 18.3446 21.5 16.2297 21.5 12C21.5 7.77027 21.5 5.6554 20.302 4.25276C20.1319 4.05358 19.9464 3.86808 19.7472 3.69797C18.3446 2.5 16.2297 2.5 12 2.5C7.77027 2.5 5.6554 2.5 4.25276 3.69797C4.05358 3.86808 3.86808 4.05358 3.69797 4.25276C2.5 5.6554 2.5 7.77027 2.5 12C2.5 16.2297 2.5 18.3446 3.69797 19.7472C3.86808 19.9464 4.05358 20.1319 4.25276 20.302Z" stroke="currentColor" stroke-linecap="round" stroke-linejoin="round" stroke-width="1.5" /><path d="M9.05181 16.0523L7.44711 16.6596C7.17802 16.7615 7 17.0193 7 17.3071C7 17.7968 7.49439 18.1317 7.94888 17.9498L8.87139 17.5806C9.25105 17.4287 9.5 17.0608 9.5 16.6517V9.5M15.5518 14.5517L13.9471 15.159C13.678 15.2608 13.5 15.5186 13.5 15.8064C13.5 16.2961 13.9944 16.631 14.4489 16.4491L15.3714 16.08C15.751 15.928 16 15.5602 16 15.1511V8.20125M9.5 9.5L16 8.20125M9.5 9.5V8.65872M16 8.20125V7.35063M16 7.35063V6.5L9.5 7.81743V8.65872M16 7.35063L9.5 8.65872" stroke="currentColor" stroke-linecap="round" stroke-linejoin="round" stroke-width="1.5" /></svg>