<svg xmlns="http://www.w3.org/2000/svg" width="24" height="24" viewBox="0 0 24 24" fill="none" stroke-width="1.5" stroke-linecap="round" stroke-linejoin="round" color="currentColor"><path d="M12.05 2.07227H11.95C9.88001 2.07227 8.26001 2.07218 6.98001 2.23218C5.67001 2.38218 4.62999 2.71239 3.76999 3.45239C3.53999 3.64239 3.33 3.86229 3.13 4.09229C2.4 4.94229 2.07 5.99225 1.91 7.30225C1.75 8.57225 1.75 10.2022 1.75 12.2722V12.3723C1.75 14.4423 1.75 16.0723 1.91 17.3423C2.07 18.6523 2.4 19.7022 3.13 20.5522C3.33 20.7822 3.53999 21.0024 3.76999 21.1924C4.62999 21.9324 5.67001 22.2624 6.98001 22.4124C8.26001 22.5724 9.88001 22.5723 11.95 22.5723H12.05C14.12 22.5723 15.74 22.5724 17.02 22.4124C18.33 22.2624 19.37 21.9324 20.23 21.1924C20.46 21.0024 20.67 20.7822 20.87 20.5522C21.6 19.7022 21.93 18.6523 22.09 17.3423C22.25 16.0723 22.25 14.4423 22.25 12.3723V12.2722C22.25 10.2022 22.25 8.57225 22.09 7.30225C21.93 5.99225 21.6 4.94229 20.87 4.09229C20.67 3.86229 20.46 3.64239 20.23 3.45239C19.37 2.71239 18.33 2.38218 17.02 2.23218C15.74 2.07218 14.12 2.07227 12.05 2.07227ZM4.73999 4.59229C5.27999 4.12229 6 3.8624 7.16 3.7124C8.34 3.5724 9.87 3.57227 12 3.57227C14.13 3.57227 15.67 3.5724 16.84 3.7124C18 3.8624 18.71 4.12229 19.26 4.59229C19.43 4.73229 19.59 4.89226 19.73 5.06226C20.19 5.60226 20.46 6.32218 20.6 7.48218C20.74 8.65218 20.74 10.1923 20.74 12.3223C20.74 14.4523 20.74 15.9924 20.6 17.1624C20.46 18.3224 20.19 19.0423 19.73 19.5823C19.58 19.7523 19.43 19.9122 19.26 20.0522C18.72 20.5222 18 20.7824 16.84 20.9324C15.66 21.0724 14.13 21.0723 12 21.0723C9.87 21.0723 8.33 21.0724 7.16 20.9324C6 20.7824 5.28999 20.5222 4.73999 20.0522C4.56999 19.9122 4.40999 19.7523 4.26999 19.5823C3.80999 19.0423 3.53999 18.3224 3.39999 17.1624C3.25999 15.9924 3.26001 14.4523 3.26001 12.3223C3.26001 10.1923 3.25999 8.65218 3.39999 7.48218C3.53999 6.32218 3.80999 5.60226 4.26999 5.06226C4.41999 4.89226 4.56999 4.73229 4.73999 4.59229ZM16.75 6.82227C16.75 6.59227 16.65 6.38219 16.47 6.24219C16.3 6.10219 16.07 6.04228 15.85 6.08228L9.35001 7.40234C9.00001 7.47234 8.75 7.78233 8.75 8.14233V15.6824L7.17999 16.2822C6.61999 16.4922 6.25 17.0323 6.25 17.6323C6.25 18.6523 7.28001 19.3524 8.23001 18.9724L9.14999 18.6023C9.80999 18.3323 10.25 17.6924 10.25 16.9724V10.4324L15.25 9.44238V14.1824L13.68 14.7822C13.12 14.9922 12.75 15.5323 12.75 16.1323C12.75 17.1523 13.78 17.8424 14.73 17.4724L15.65 17.1023C16.31 16.8323 16.75 16.1924 16.75 15.4724V6.82227Z" fill="currentColor" fill-rule="evenodd"></path></svg>