<svg xmlns="http://www.w3.org/2000/svg" width="24" height="24" viewBox="0 0 24 24" fill="none" stroke-width="1.5" stroke-linecap="round" stroke-linejoin="round" color="currentColor"><path d="M15.25 5.31641C15.25 5.72641 15.59 6.06641 16 6.06641C16.41 6.06641 16.75 5.72641 16.75 5.31641V4.78207C17.4312 4.91995 17.9295 5.14597 18.3 5.51648C18.8321 6.04853 19.0662 6.84404 19.1691 8.06641H2.83087C2.93384 6.84404 3.1679 6.04853 3.69995 5.51648C4.07046 5.14597 4.56876 4.91995 5.25 4.78207V5.31641C5.25 5.72641 5.59 6.06641 6 6.06641C6.41 6.06641 6.75 5.72641 6.75 5.31641V4.61337C7.62564 4.56642 8.69365 4.56641 10 4.56641H12C13.3063 4.56641 14.3744 4.56642 15.25 4.61337V5.31641ZM2.76273 9.56641C2.75 10.2247 2.75 10.9703 2.75 11.8159V11.8164V14.3164V14.317C2.75 17.8766 2.75 19.6665 3.69995 20.6165C4.6499 21.5664 6.43981 21.5664 9.99944 21.5664H10H11.5C11.91 21.5664 12.25 21.9064 12.25 22.3164C12.25 22.7264 11.91 23.0664 11.5 23.0664H10C6.02 23.0664 4.03001 23.0664 2.64001 21.6764C1.25001 20.2864 1.25 18.2964 1.25 14.3164V11.8164C1.25 7.83641 1.25001 5.84642 2.64001 4.45642C3.31528 3.78115 4.13216 3.43393 5.25 3.25539V2.31641C5.25 1.90641 5.59 1.56641 6 1.56641C6.41 1.56641 6.75 1.90641 6.75 2.31641V3.11171C7.6605 3.06641 8.72874 3.06641 10 3.06641H12C13.2713 3.06641 14.3395 3.06641 15.25 3.11171V2.31641C15.25 1.90641 15.59 1.56641 16 1.56641C16.41 1.56641 16.75 1.90641 16.75 2.31641V3.25539C17.8678 3.43393 18.6847 3.78115 19.36 4.45642C20.75 5.84642 20.75 7.83641 20.75 11.8164V13.3164C20.75 13.7264 20.41 14.0664 20 14.0664C19.59 14.0664 19.25 13.7264 19.25 13.3164V11.8164V11.8158C19.25 10.9703 19.25 10.2247 19.2373 9.56641H2.76273ZM16.0011 23.0664H15.9111C15.6211 23.0264 15.3811 22.8264 15.2911 22.5564C14.7862 21.0125 13.8286 20.5624 13.7369 20.5193L13.7311 20.5165C13.3511 20.3565 13.1611 19.9264 13.3111 19.5464C13.4611 19.1664 13.8911 18.9765 14.2711 19.1165L14.2717 19.1167C14.3291 19.1396 15.3343 19.5414 16.1311 20.8064C17.2811 19.2164 19.5711 16.3865 21.7511 15.6065C22.1411 15.4665 22.5711 15.6764 22.7111 16.0664C22.8511 16.4564 22.6411 16.8865 22.2511 17.0265C20.1411 17.7765 17.4811 21.3965 16.6311 22.7265C16.4911 22.9465 16.2511 23.0764 16.0011 23.0764V23.0664Z" fill="currentColor" fill-rule="evenodd"></path></svg>