<svg xmlns="http://www.w3.org/2000/svg" width="24" height="24" viewBox="0 0 24 24" fill="none" stroke-width="1.5" stroke-linecap="round" stroke-linejoin="round" color="currentColor"><path d="M16.25 5.32227C16.25 5.73227 16.59 6.07227 17 6.07227C17.41 6.07227 17.75 5.73227 17.75 5.32227V4.78793C18.4312 4.92581 18.9295 5.15183 19.3 5.52234C19.8321 6.05439 20.0662 6.8499 20.1691 8.07227H3.83087C3.93384 6.8499 4.1679 6.05439 4.69995 5.52234C5.07046 5.15183 5.56876 4.92581 6.25 4.78793V5.32227C6.25 5.73227 6.59 6.07227 7 6.07227C7.41 6.07227 7.75 5.73227 7.75 5.32227V4.61923C8.62564 4.57228 9.69365 4.57227 11 4.57227H13C14.3063 4.57227 15.3744 4.57228 16.25 4.61923V5.32227ZM3.76273 9.57227H20.2373C20.25 10.2305 20.25 10.9762 20.25 11.8217V11.8223V14.3223V14.3228C20.25 17.8825 20.25 19.6724 19.3 20.6223C18.3501 21.5723 16.5602 21.5723 13.0006 21.5723H13H11H10.9994C7.43981 21.5723 5.6499 21.5723 4.69995 20.6223C3.75 19.6724 3.75 17.8824 3.75 14.3228V14.3223V11.8223V11.8217C3.75 10.9762 3.75 10.2305 3.76273 9.57227ZM17.75 3.26124V2.32227C17.75 1.91227 17.41 1.57227 17 1.57227C16.59 1.57227 16.25 1.91227 16.25 2.32227V3.11757C15.3395 3.07227 14.2713 3.07227 13 3.07227H11C9.72874 3.07227 8.6605 3.07227 7.75 3.11757V2.32227C7.75 1.91227 7.41 1.57227 7 1.57227C6.59 1.57227 6.25 1.91227 6.25 2.32227V3.26124C5.13216 3.43979 4.31528 3.78701 3.64001 4.46228C2.25001 5.85228 2.25 7.84227 2.25 11.8223V14.3223C2.25 18.3023 2.25001 20.2923 3.64001 21.6823C5.03001 23.0723 7.02 23.0723 11 23.0723H13C16.98 23.0723 18.97 23.0723 20.36 21.6823C21.75 20.2923 21.75 18.3023 21.75 14.3223V11.8223C21.75 7.84227 21.75 5.85228 20.36 4.46228C19.6847 3.78701 18.8678 3.43979 17.75 3.26124ZM10.9296 18.5723H10.9995C11.2695 18.5723 11.5296 18.4223 11.6596 18.1823C11.6603 18.1812 11.6637 18.1752 11.6697 18.1647C11.8294 17.8857 13.8305 14.3901 16.2495 13.5324C16.6395 13.3924 16.8495 12.9623 16.7095 12.5723C16.5695 12.1823 16.1395 11.9723 15.7495 12.1123C13.6495 12.8623 11.9195 15.0223 11.0195 16.3623C10.2595 15.4623 9.28951 15.1323 9.22951 15.1123C8.83951 14.9823 8.41957 15.1923 8.28957 15.5823C8.14957 15.9723 8.35953 16.3924 8.74953 16.5324C8.75025 16.5331 8.75693 16.5359 8.76883 16.5409C8.92167 16.6053 9.9363 17.0325 10.2796 18.0623C10.3796 18.3423 10.6296 18.5423 10.9296 18.5723Z" fill="currentColor" fill-rule="evenodd"></path></svg>