<svg xmlns="http://www.w3.org/2000/svg" width="24" height="24" viewBox="0 0 24 24" fill="none" stroke-width="1.5" stroke-linecap="round" stroke-linejoin="round" color="currentColor"><path d="M13.5061 13.602C12.905 13.7883 12.2654 13.8887 11.602 13.8887C9.12036 13.8887 6.96846 12.4845 5.93046 10.4312C5.48592 9.55186 4.39999 9.19306 3.50496 9.62982C2.60993 10.0666 2.24474 11.1335 2.68928 12.0128C4.3146 15.2279 7.69305 17.4443 11.602 17.4443C12.8475 17.4443 14.0394 17.2194 15.138 16.8086" stroke="currentColor"></path><path d="M18.2384 14.9503C20.013 13.3868 21.2128 11.2055 21.4889 8.75051C21.5986 7.7746 20.8824 6.89607 19.8891 6.78825C18.8958 6.68043 18.0016 7.38415 17.8918 8.36006C17.7555 9.57236 17.2644 10.6796 16.5229 11.5795" stroke="currentColor"></path><path d="M11.5473 4C12.2327 4 12.8592 4.38045 13.1658 4.98273L19.4989 17.4272C19.9458 18.3054 19.5835 19.3733 18.6897 19.8124C17.7958 20.2515 16.7089 19.8955 16.262 19.0173L11.5473 9.75303L9.6037 13.5722C8.41018 13.1821 7.37371 12.4519 6.61386 11.4967L9.92887 4.98273C10.2354 4.38045 10.8619 4 11.5473 4Z" stroke="currentColor"></path><path d="M6.8326 19.0173C6.38568 19.8955 5.29878 20.2515 4.40494 19.8124C3.5111 19.3733 3.1488 18.3054 3.59572 17.4272L4.89047 14.8831C5.78379 15.6862 6.82705 16.3316 7.97447 16.7736L6.8326 19.0173Z" stroke="currentColor"></path></svg>