<svg xmlns="http://www.w3.org/2000/svg" width="24" height="24" viewBox="0 0 24 24" fill="none" stroke-width="1.5" stroke-linecap="round" stroke-linejoin="round" color="currentColor"><path d="M2 2L22 22" fill="none"></path><path d="M21.9239 18C22 17.2261 22 16.2515 22 15V14.1555C22 13.5795 22 13.2915 21.9459 13.0104C21.8917 12.7293 21.7848 12.4619 21.5709 11.9272L19.5087 6.77166C18.778 4.94495 18.4126 4.0316 17.6508 3.5158C16.8889 3 15.9052 3 13.9378 3H10.0622C8.71815 3 7.8332 3 7.16445 3.16445M20.5 20.5613C19.5975 21 18.2438 21 16 21H8C5.17157 21 3.75736 21 2.87868 20.1213C2 19.2426 2 17.8284 2 15V14.1555C2 13.5795 2 13.2915 2.05413 13.0104C2.10826 12.7293 2.21522 12.4619 2.42914 11.9271L4.49134 6.77166C4.74844 6.12889 4.96032 5.59921 5.16014 5.16014" fill="none"></path><path d="M2.5 13H5.58579C6.16263 13 6.45105 13 6.71982 13.0766C6.86747 13.1187 7.00978 13.1776 7.14394 13.2523C7.38816 13.3882 7.59211 13.5921 8 14C8.40789 14.4079 8.61184 14.6118 8.85606 14.7477C8.99022 14.8224 9.13253 14.8813 9.28018 14.9234C9.54895 15 9.83737 15 10.4142 15H13.5858C14.1626 15 14.4511 15 14.7198 14.9234M17 13H21.5" fill="none"></path></svg>