<svg xmlns="http://www.w3.org/2000/svg" width="24" height="24" viewBox="0 0 24 24" fill="none"><path d="M4 8V15C4 17.8284 4 19.2426 4.87868 20.1213C5.75736 21 7.17157 21 10 21H14C16.8284 21 18.2426 21 19.1213 20.1213C20 19.2426 20 17.8284 20 15V8" stroke="currentColor" stroke-linecap="round" stroke-width="1.5" /><path d="M9.5 12L14.5 17M14.5 12L9.5 17" stroke="currentColor" stroke-linecap="round" stroke-linejoin="round" stroke-width="1.5" /><path d="M2 5.50002C2 5.0354 2 4.80309 2.03842 4.60991C2.19623 3.81651 2.81644 3.19629 3.60984 3.03848C3.80302 3.00006 4.03533 3.00006 4.49995 3.00006L19.5 3C19.9646 3 20.197 3 20.3902 3.03843C21.1836 3.19623 21.8038 3.81643 21.9616 4.60982C22 4.80302 22 5.03534 22 5.49999C22 5.96464 22 6.19696 21.9616 6.39016C21.8038 7.18355 21.1836 7.80374 20.3902 7.96156C20.197 7.99998 19.9647 7.99998 19.5 7.99998H4.49996C4.03534 7.99998 3.80303 7.99998 3.60985 7.96156C2.81644 7.80375 2.19623 7.18354 2.03842 6.39014C2 6.19695 2 5.96464 2 5.50002Z" stroke="currentColor" fill-rule="evenodd" clip-rule="evenodd" stroke-linecap="round" stroke-linejoin="round" stroke-width="1.5" /></svg>