<svg xmlns="http://www.w3.org/2000/svg" width="24" height="24" viewBox="0 0 24 24" fill="none" stroke-width="1.5" stroke-linecap="round" stroke-linejoin="round" color="currentColor"><path d="M11 17.0294L20 21C19.4444 20.4444 18.4898 18.6435 19.1158 15.8842C19.8982 12.4351 21.3667 8.96668 15.9368 7.06317C14.0333 1.63335 10.5649 3.10176 7.11578 3.88422C4.35649 4.51018 2.55556 3.55556 2 3L6 12.0741" stroke="currentColor"></path><path d="M5 18H2L5 15H8V18L5 21V18Z" stroke="currentColor"></path><path d="M8 15L20 3" stroke="currentColor"></path><path d="M17 3H19C19.4714 3 19.7071 3 19.8536 3.14645C20 3.29289 20 3.5286 20 4V6" stroke="currentColor"></path></svg>