<svg xmlns="http://www.w3.org/2000/svg" width="24" height="24" viewBox="0 0 24 24" fill="none"><path d="M7 12V11.5C7 10.1193 5.88071 9 4.5 9C3.11929 9 2 10.1193 2 11.5C2 12.3179 2.39278 13.0441 3 13.5002V14C3 15.8856 3 16.8284 3.58579 17.4142C4.17157 18 5.11438 18 7 18H17C18.8856 18 19.8284 18 20.4142 17.4142C21 16.8284 21 15.8856 21 14V13.5002C21.6072 13.0441 22 12.3179 22 11.5C22 10.1193 20.8807 9 19.5 9C18.1193 9 17 10.1193 17 11.5V12C17 12.9428 17 13.4142 16.7071 13.7071C16.4142 14 15.9428 14 15 14H9C8.05719 14 7.58579 14 7.29289 13.7071C7 13.4142 7 12.9428 7 12Z" stroke="currentColor" stroke-linecap="round" stroke-linejoin="round" stroke-width="1.5" /><path d="M4.5 9C4.5 7.13077 4.5 6.19615 4.90192 5.5C5.16523 5.04394 5.54394 4.66523 6 4.40192C6.69615 4 7.63077 4 9.5 4H14.5C16.3692 4 17.3038 4 18 4.40192C18.4561 4.66523 18.8348 5.04394 19.0981 5.5C19.5 6.19615 19.5 7.13077 19.5 9" stroke="currentColor" stroke-linecap="round" stroke-linejoin="round" stroke-width="1.5" /><path d="M19 18V20M5 18V20" stroke="currentColor" stroke-linecap="round" stroke-linejoin="round" stroke-width="1.5" /></svg>