<svg xmlns="http://www.w3.org/2000/svg" width="24" height="24" viewBox="0 0 24 24" fill="none"><path d="M8 19V4" stroke="currentColor" stroke-linecap="round" stroke-linejoin="round" stroke-width="1.5" /><path d="M16 8H20" stroke="currentColor" stroke-linecap="round" stroke-linejoin="round" stroke-width="1.5" /><path d="M20 10V6C20 4.89543 19.1046 4 18 4C16.8954 4 16 4.89543 16 6V10" stroke="currentColor" stroke-linecap="round" stroke-linejoin="round" stroke-width="1.5" /><path d="M16 14H18.365C19.2886 14 19.7504 14 19.8853 14.2879C20.0201 14.5758 19.7245 14.9306 19.1332 15.6402L16.8668 18.3598C16.2755 19.0694 15.9799 19.4242 16.1147 19.7121C16.2496 20 16.7114 20 17.635 20H20" stroke="currentColor" stroke-linecap="round" stroke-linejoin="round" stroke-width="1.5" /><path d="M4 16C4 16 6.94596 20 8.00003 20C9.05411 20 12 16 12 16" stroke="currentColor" stroke-linecap="round" stroke-linejoin="round" stroke-width="1.5" /></svg>