<svg xmlns="http://www.w3.org/2000/svg" width="24" height="24" viewBox="0 0 24 24" fill="none"><path d="M16 10H20" stroke="currentColor" stroke-linecap="round" stroke-linejoin="round" stroke-width="1.5" /><path d="M18 10V5.48779C18 4.61275 18 4.17523 17.7236 4.03665C17.4472 3.89808 17.0981 4.1606 16.4 4.68562L16 4.98644" stroke="currentColor" stroke-linecap="round" stroke-linejoin="round" stroke-width="1.5" /><path d="M20 18V16C20 14.8954 19.1046 14 18 14C16.8954 14 16 14.8954 16 16V18C16 19.1046 16.8954 20 18 20C19.1046 20 20 19.1046 20 18Z" stroke="currentColor" stroke-linecap="round" stroke-linejoin="round" stroke-width="1.5" /><path d="M4 7.99997C4 7.99997 6.94596 4.00001 8.00003 4C9.05411 3.99999 12 8 12 8" stroke="currentColor" stroke-linecap="round" stroke-linejoin="round" stroke-width="1.5" /><path d="M8 5V20" stroke="currentColor" stroke-linecap="round" stroke-linejoin="round" stroke-width="1.5" /></svg>