<svg xmlns="http://www.w3.org/2000/svg" width="24" height="24" viewBox="0 0 24 24" fill="none"><path d="M18.7236 9.06494L16.0046 6.60723C13.8559 4.66499 12.7816 3.69387 11.8908 4.08568C11 4.47749 11 5.92117 11 8.80852V9H10C8.58579 9 7.87868 9 7.43934 9.43934C7 9.87868 7 10.5858 7 12C7 13.4142 7 14.1213 7.43934 14.5607C7.87868 15 8.58579 15 10 15H11V15.1915C11 18.0788 11 19.5225 11.8908 19.9143C12.7816 20.3061 13.8559 19.335 16.0046 17.3928L18.7236 14.9351C20.2412 13.5633 21 12.8774 21 12C21 11.1226 20.2412 10.4367 18.7236 9.06494Z" stroke="currentColor" stroke-linecap="round" stroke-linejoin="round" stroke-width="1.5" /><path opacity="0.4" d="M3 9V15" stroke="currentColor" stroke-linecap="round" stroke-linejoin="round" stroke-width="1.5" /></svg>