<svg xmlns="http://www.w3.org/2000/svg" width="24" height="24" viewBox="0 0 24 24" fill="none"><path d="M21 9L21 15" stroke="currentColor" stroke-linecap="round" stroke-linejoin="round" stroke-width="1.5" /><path d="M5.27643 14.9351L7.99539 17.3928C10.1441 19.335 11.2184 20.3061 12.1092 19.9143C13 19.5225 13 18.0788 13 15.1915V15H14C15.4142 15 16.1213 15 16.5607 14.5607C17 14.1213 17 13.4142 17 12C17 10.5858 17 9.87868 16.5607 9.43934C16.1213 9 15.4142 9 14 9H13V8.80852C13 5.92117 13 4.47749 12.1092 4.08568C11.2184 3.69387 10.1441 4.66499 7.99538 6.60723L5.27642 9.06495C3.75881 10.4367 3 11.1226 3 12C3 12.8774 3.75881 13.5633 5.27643 14.9351Z" stroke="currentColor" stroke-linecap="round" stroke-linejoin="round" stroke-width="1.5" /></svg>