<svg xmlns="http://www.w3.org/2000/svg" width="24" height="24" viewBox="0 0 24 24" fill="none"><path d="M21 6V18" stroke="currentColor" stroke-linecap="round" stroke-width="1.5" /><path d="M16 12.75C16.4142 12.75 16.75 12.4142 16.75 12C16.75 11.5858 16.4142 11.25 16 11.25V12V12.75ZM3 11.25C2.58579 11.25 2.25 11.5858 2.25 12C2.25 12.4142 2.58579 12.75 3 12.75V12V11.25ZM17 12L16.25 12V12L17 12ZM12.4448 6.39611C12.1113 6.15047 11.6418 6.22172 11.3961 6.55524C11.1505 6.88876 11.2218 7.35826 11.5553 7.60389L12 7L12.4448 6.39611ZM11.5552 16.3961C11.2217 16.6417 11.1505 17.1112 11.3961 17.4448C11.6417 17.7783 12.1112 17.8495 12.4448 17.6039L12 17L11.5552 16.3961ZM16 12V11.25H3V12V12.75H16V12ZM17 12L17.75 12C17.75 11.6265 17.5843 11.2799 17.4275 11.0197C17.2582 10.7389 17.0305 10.449 16.7808 10.1663C16.2798 9.5993 15.6261 8.9904 14.9917 8.4396C14.3536 7.88557 13.7177 7.37543 13.2427 7.00471C13.0048 6.81904 12.8063 6.66763 12.6669 6.56233C12.5972 6.50967 12.5422 6.46851 12.5044 6.44032C12.4855 6.42622 12.4708 6.41537 12.4608 6.40794C12.4558 6.40422 12.4519 6.40136 12.4492 6.39939C12.4479 6.3984 12.4469 6.39763 12.4461 6.39708C12.4457 6.39681 12.4455 6.39659 12.4452 6.39643C12.4451 6.39634 12.445 6.39627 12.445 6.39622C12.4449 6.39616 12.4448 6.39611 12 7C11.5553 7.60389 11.5552 7.60387 11.5552 7.60386C11.5553 7.60387 11.5553 7.60388 11.5553 7.60391C11.5554 7.60397 11.5555 7.60409 11.5558 7.60426C11.5563 7.60461 11.557 7.60518 11.5581 7.60596C11.5602 7.60753 11.5635 7.60998 11.568 7.61327C11.5769 7.61986 11.5903 7.62984 11.608 7.64304C11.6434 7.66943 11.6959 7.70867 11.7628 7.75927C11.8969 7.86051 12.089 8.00708 12.3199 8.18723C12.7823 8.54814 13.3964 9.04096 14.0083 9.57224C14.6239 10.1068 15.2202 10.6655 15.6567 11.1595C15.8757 11.4074 16.0387 11.6213 16.1428 11.7941C16.2594 11.9875 16.25 12.0442 16.25 12L17 12ZM12 17C12.4448 17.6039 12.4448 17.6038 12.4449 17.6038C12.445 17.6037 12.4451 17.6037 12.4452 17.6036C12.4454 17.6034 12.4457 17.6032 12.4461 17.6029C12.4468 17.6024 12.4479 17.6016 12.4492 17.6006C12.4519 17.5986 12.4557 17.5958 12.4608 17.5921C12.4708 17.5846 12.4854 17.5738 12.5043 17.5597C12.5422 17.5315 12.5971 17.4903 12.6669 17.4377C12.8063 17.3324 13.0048 17.181 13.2427 16.9953C13.7177 16.6246 14.3536 16.1145 14.9917 15.5604C15.6261 15.0097 16.2798 14.4008 16.7808 13.8337C17.0305 13.5511 17.2582 13.2612 17.4275 12.9804C17.5843 12.7202 17.75 12.3736 17.75 12L17 12L16.25 12C16.25 11.9559 16.2594 12.0126 16.1428 12.206C16.0387 12.3787 15.8757 12.5927 15.6567 12.8405C15.2202 13.3345 14.6239 13.8933 14.0083 14.4278C13.3964 14.9591 12.7823 15.4519 12.3198 15.8128C12.089 15.9929 11.8969 16.1395 11.7628 16.2407C11.6958 16.2913 11.6434 16.3306 11.608 16.357C11.5903 16.3702 11.5768 16.3801 11.5679 16.3867C11.5635 16.39 11.5602 16.3925 11.5581 16.394C11.557 16.3948 11.5562 16.3954 11.5558 16.3957C11.5555 16.3959 11.5554 16.396 11.5553 16.3961C11.5552 16.3961 11.5552 16.3961 11.5552 16.3961C11.5552 16.3961 11.5552 16.3961 12 17Z" fill="currentColor" /></svg>