<svg xmlns="http://www.w3.org/2000/svg" width="24" height="24" viewBox="0 0 24 24" fill="none" stroke-width="1.5" stroke-linecap="round" stroke-linejoin="round" color="currentColor"><path d="M11.9902 8.98595V3.31543" stroke="currentColor"></path><path d="M11.9902 20.6705V15" stroke="currentColor"></path><path d="M20.6703 12.0001L15 11.9482" stroke="currentColor"></path><path d="M9.00036 12.0001L3.33008 11.9482" stroke="currentColor"></path><path d="M15 5.99998C15 5.99998 12.7905 3.00001 12 3C11.2094 2.99999 9 6 9 6" stroke="currentColor"></path><path d="M5.99998 15C5.99998 15 3.00001 12.7905 3 12C2.99999 11.2094 6 9 6 9" stroke="currentColor"></path><path d="M18 9C18 9 21 11.2095 21 12C21 12.7906 18 15 18 15" stroke="currentColor"></path><path d="M9 18C9 18 11.2095 21 12 21C12.7906 21 15 18 15 18" stroke="currentColor"></path></svg>