<svg xmlns="http://www.w3.org/2000/svg" width="24" height="24" viewBox="0 0 24 24" fill="none"><path d="M18 20V15.4878C18 14.6127 18 14.1752 17.7236 14.0367C17.4472 13.8981 17.0981 14.1606 16.4 14.6856L16 14.9864" stroke="currentColor" stroke-linecap="round" stroke-linejoin="round" stroke-width="1.5" /><path d="M16 20H20" stroke="currentColor" stroke-linecap="round" stroke-linejoin="round" stroke-width="1.5" /><path d="M20 8V6C20 4.89543 19.1046 4 18 4C16.8954 4 16 4.89543 16 6V8C16 9.10457 16.8954 10 18 10C19.1046 10 20 9.10457 20 8Z" stroke="currentColor" stroke-linecap="round" stroke-linejoin="round" stroke-width="1.5" /><path d="M4 7.99997C4 7.99997 6.94596 4.00001 8.00003 4C9.05411 3.99999 12 8 12 8" stroke="currentColor" stroke-linecap="round" stroke-linejoin="round" stroke-width="1.5" /><path d="M8 5V20" stroke="currentColor" stroke-linecap="round" stroke-linejoin="round" stroke-width="1.5" /></svg>