<svg xmlns="http://www.w3.org/2000/svg" width="24" height="24" viewBox="0 0 24 24" fill="none"><path d="M14.9351 18.7236L17.3928 16.0046C19.335 13.8559 20.3061 12.7816 19.9143 11.8908C19.5225 11 18.0788 11 15.1915 11H15V10C15 8.58579 15 7.87868 14.5607 7.43934C14.1213 7 13.4142 7 12 7C10.5858 7 9.87868 7 9.43934 7.43934C9 7.87868 9 8.58579 9 10V11H8.80852C5.92117 11 4.47749 11 4.08568 11.8908C3.69387 12.7816 4.66499 13.8559 6.60724 16.0046L9.06495 18.7236C10.4367 20.2412 11.1226 21 12 21C12.8774 21 13.5633 20.2412 14.9351 18.7236Z" stroke="currentColor" stroke-linecap="round" stroke-linejoin="round" stroke-width="1.5" /><path d="M9 3H15" stroke="currentColor" stroke-linecap="round" stroke-linejoin="round" stroke-width="1.5" /></svg>