<svg xmlns="http://www.w3.org/2000/svg" width="24" height="24" viewBox="0 0 24 24" fill="none"><path d="M12.5 8.45596V9L6.5 9C5.56812 9 5.10218 9 4.73463 9.15224C4.24458 9.35523 3.85523 9.74458 3.65224 10.2346C3.5 10.6022 3.5 11.0681 3.5 12C3.5 12.9319 3.5 13.3978 3.65224 13.7654C3.85523 14.2554 4.24458 14.6448 4.73463 14.8478C5.10218 15 5.56812 15 6.5 15H12.5V15.544C12.5 17.6268 12.5 18.6681 13.1003 18.9422C13.7006 19.2163 14.4183 18.5026 15.8536 17.0751L19.4172 13.5311C20.1391 12.8132 20.5 12.4542 20.5 12C20.5 11.5458 20.1391 11.1868 19.4172 10.4689L15.8536 6.92487C14.4183 5.49743 13.7006 4.78372 13.1003 5.05779C12.5 5.33185 12.5 6.37322 12.5 8.45596Z" stroke="currentColor" stroke-linecap="round" stroke-linejoin="round" stroke-width="1.5" /></svg>