<svg xmlns="http://www.w3.org/2000/svg" width="24" height="24" viewBox="0 0 24 24" fill="none"><path d="M16 18H20" stroke="currentColor" stroke-linecap="round" stroke-linejoin="round" stroke-width="1.5" /><path d="M20 20V16C20 14.8954 19.1046 14 18 14C16.8954 14 16 14.8954 16 16V20" stroke="currentColor" stroke-linecap="round" stroke-linejoin="round" stroke-width="1.5" /><path d="M4 7.99997C4 7.99997 6.94596 4.00001 8.00003 4C9.05411 3.99999 12 8 12 8" stroke="currentColor" stroke-linecap="round" stroke-linejoin="round" stroke-width="1.5" /><path d="M8 5V20" stroke="currentColor" stroke-linecap="round" stroke-linejoin="round" stroke-width="1.5" /><path d="M16 4H18.365C19.2886 4 19.7504 4 19.8853 4.28792C20.0201 4.57584 19.7245 4.93062 19.1332 5.64018L16.8668 8.35982C16.2755 9.06938 15.9799 9.42416 16.1147 9.71208C16.2496 10 16.7114 10 17.635 10H20" stroke="currentColor" stroke-linecap="round" stroke-linejoin="round" stroke-width="1.5" /></svg>