<svg xmlns="http://www.w3.org/2000/svg" width="24" height="24" viewBox="0 0 24 24" fill="none" stroke-width="1.5" stroke-linecap="round" stroke-linejoin="round" color="currentColor"><path d="M8 4.5V3M16 4.5V3" stroke="currentColor"></path><path d="M19.5 8L21 8M19.5 16H21" stroke="currentColor"></path><path d="M8 21V19.5M16 21V19.5" stroke="currentColor"></path><path d="M3 8L4.5 8M3 16H4.5" stroke="currentColor"></path><path d="M8 11C8 9.58579 8 8.87868 8.43934 8.43934C8.87868 8 9.58579 8 11 8H13C14.4142 8 15.1213 8 15.5607 8.43934C16 8.87868 16 9.58579 16 11V13C16 14.4142 16 15.1213 15.5607 15.5607C15.1213 16 14.4142 16 13 16H11C9.58579 16 8.87868 16 8.43934 15.5607C8 15.1213 8 14.4142 8 13V11Z" stroke="currentColor"></path></svg>