<svg xmlns="http://www.w3.org/2000/svg" width="24" height="24" viewBox="0 0 24 24" fill="none" stroke-width="1.5" stroke-linecap="round" stroke-linejoin="round" color="currentColor"><path d="M17.4639 8.79199C17.6339 9.22199 18.0439 9.50195 18.5039 9.50195V9.51196C18.9739 9.51196 19.3739 9.232 19.5439 8.802L19.8839 7.93201C20.0239 7.57201 20.3139 7.27196 20.6839 7.13196L21.5439 6.79199C21.9739 6.62199 22.2539 6.21195 22.2539 5.75195C22.2539 5.29195 21.9839 4.89198 21.5539 4.72198L20.6839 4.38196C20.3239 4.24196 20.0239 3.95197 19.8839 3.58197L19.5439 2.71198C19.3739 2.28198 18.9639 2.00195 18.5039 2.00195C18.0439 2.00195 17.6339 2.28198 17.4639 2.71198L17.1239 3.57196C16.9839 3.93196 16.6939 4.23201 16.3239 4.37201L15.4639 4.71198C15.0339 4.88198 14.7539 5.29195 14.7539 5.75195C14.7539 6.21195 15.0239 6.61198 15.4539 6.78198L16.3239 7.12201C16.6839 7.26201 16.9839 7.552 17.1239 7.922L17.4639 8.79199ZM18.5039 7.33197C18.2139 6.62197 17.6339 6.04195 16.9239 5.75195C17.6339 5.46195 18.2039 4.882 18.5039 4.172C18.7939 4.882 19.3739 5.46195 20.0839 5.75195C19.3739 6.04195 18.8039 6.62197 18.5039 7.33197ZM8.90219 21.4105C9.16219 22.0705 9.79219 22.5004 10.5022 22.5004C11.2122 22.5004 11.8422 22.0705 12.1022 21.4105L13.0122 19.1005C13.5322 17.8005 14.5622 16.7604 15.8622 16.2504L18.1722 15.3405C18.8322 15.0805 19.2622 14.4505 19.2622 13.7405C19.2622 13.0305 18.8322 12.4004 18.1722 12.1404L15.8622 11.2305C14.5622 10.7105 13.5222 9.68043 13.0122 8.38043L12.1022 6.07043C11.8422 5.41043 11.2122 4.98047 10.5022 4.98047C9.79219 4.98047 9.16219 5.41043 8.90219 6.07043L7.99219 8.38043C7.47219 9.68043 6.44219 10.7205 5.14219 11.2305L2.83219 12.1404C2.17219 12.4004 1.74219 13.0305 1.74219 13.7405C1.74219 14.4505 2.17219 15.0805 2.83219 15.3405L5.14219 16.2504C6.44219 16.7704 7.48219 17.8005 7.99219 19.1005L8.90219 21.4105ZM10.3022 6.64044C10.3422 6.52044 10.4322 6.50043 10.5022 6.50043C10.5722 6.50043 10.6622 6.53044 10.7022 6.64044L11.6122 8.95044C12.2722 10.6304 13.6222 11.9804 15.3022 12.6404L17.6122 13.5505C17.7322 13.5905 17.7522 13.6804 17.7522 13.7504C17.7522 13.8204 17.7222 13.9104 17.6122 13.9504L15.3022 14.8605C13.6222 15.5205 12.2722 16.8705 11.6122 18.5505L10.7022 20.8605C10.6122 21.0905 10.3922 21.0905 10.3022 20.8605L9.39219 18.5505C8.73219 16.8705 7.38219 15.5205 5.70219 14.8605L3.39219 13.9504C3.27219 13.9104 3.25219 13.8204 3.25219 13.7504C3.25219 13.6804 3.28219 13.5905 3.39219 13.5505L5.70219 12.6404C7.38219 11.9804 8.73219 10.6304 9.39219 8.95044L10.3022 6.64044Z" fill="currentColor" fill-rule="evenodd"></path></svg>