<svg xmlns="http://www.w3.org/2000/svg" width="24" height="24" viewBox="0 0 24 24" fill="none" stroke-width="1.5" stroke-linecap="round" stroke-linejoin="round" color="currentColor"><circle cx="12" cy="10" r="7" stroke="currentColor"></circle><ellipse cx="12" cy="10" rx="4" ry="3" stroke="currentColor"></ellipse><path d="M5 13C3.34315 13 2 11.6569 2 10C2 8.34315 2 7 5 7" stroke="currentColor"></path><path d="M19 13C20.6569 13 22 11.6569 22 10C22 8.34315 22 7 19 7" stroke="currentColor"></path><path d="M20.5 7V3" stroke="currentColor"></path><path d="M18 21C18.5523 21 19 20.5523 19 20C19 18.3431 17.6569 17 16 17H8C6.34315 17 5 18.3431 5 20C5 20.5523 5.44772 21 6 21H18Z" stroke="currentColor"></path></svg>