<svg xmlns="http://www.w3.org/2000/svg" width="24" height="24" viewBox="0 0 24 24" fill="none" stroke-width="1.5" stroke-linecap="round" stroke-linejoin="round" color="currentColor"><path d="M9.25 21.75C8.84 21.75 8.5 21.41 8.5 21V3C8.5 2.59 8.84 2.25 9.25 2.25C9.66 2.25 10 2.59 10 3V21C10 21.41 9.66 21.75 9.25 21.75ZM6.25 17.75C5.84 17.75 5.5 17.41 5.5 17V7C5.5 6.59 5.84 6.25 6.25 6.25C6.66 6.25 7 6.59 7 7V17C7 17.41 6.66 17.75 6.25 17.75ZM11.5 18C11.5 18.41 11.84 18.75 12.25 18.75C12.66 18.75 13 18.41 13 18V6C13 5.59 12.66 5.25 12.25 5.25C11.84 5.25 11.5 5.59 11.5 6V18ZM15.25 15.75C14.84 15.75 14.5 15.41 14.5 15V9C14.5 8.59 14.84 8.25 15.25 8.25C15.66 8.25 16 8.59 16 9V15C16 15.41 15.66 15.75 15.25 15.75ZM17.5 17C17.5 17.41 17.84 17.75 18.25 17.75C18.66 17.75 19 17.41 19 17V7C19 6.59 18.66 6.25 18.25 6.25C17.84 6.25 17.5 6.59 17.5 7V17ZM21.25 13.75C20.84 13.75 20.5 13.41 20.5 13V11C20.5 10.59 20.84 10.25 21.25 10.25C21.66 10.25 22 10.59 22 11V13C22 13.41 21.66 13.75 21.25 13.75ZM2.5 13C2.5 13.41 2.84 13.75 3.25 13.75C3.66 13.75 4 13.41 4 13V11C4 10.59 3.66 10.25 3.25 10.25C2.84 10.25 2.5 10.59 2.5 11V13Z" fill="currentColor" fill-rule="evenodd"></path></svg>