<svg xmlns="http://www.w3.org/2000/svg" width="24" height="24" viewBox="0 0 24 24" fill="none" stroke-width="1.5" stroke-linecap="round" stroke-linejoin="round" color="currentColor"><path d="M20 22H6C4.89543 22 4 21.1046 4 20M4 20C4 18.8954 4.89543 18 6 18H20V6C20 4.11438 20 3.17157 19.4142 2.58579C18.8284 2 17.8856 2 16 2H10C7.17157 2 5.75736 2 4.87868 2.87868C4 3.75736 4 5.17157 4 8V20Z" fill="none"></path><path d="M19.5 18C19.5 18 18.5 18.7628 18.5 20C18.5 21.2372 19.5 22 19.5 22" fill="none"></path><path d="M14.576 9.235L11.189 7.11812C11.0655 7.04093 10.9228 7 10.7771 7C10.3479 7 10 7.34793 10 7.77712V12.2229C10 12.6521 10.3479 13 10.7771 13C10.9228 13 11.0655 12.9591 11.189 12.8819L14.576 10.765C14.8398 10.6001 15 10.311 15 10C15 9.68896 14.8398 9.39985 14.576 9.235Z" fill="none"></path></svg>