<svg xmlns="http://www.w3.org/2000/svg" width="24" height="24" viewBox="0 0 24 24" fill="none"><path d="M22 12.9544H21.3795C20.4795 12.9544 20.0295 12.9544 19.651 12.7947C19.3827 12.6814 19.143 12.5119 18.9486 12.298C18.6745 11.9963 18.5322 11.5774 18.2475 10.7398C17.695 9.11358 17.4188 8.30047 17.014 8.1251C16.7365 8.0049 16.4185 8.01473 16.1493 8.15182C15.7565 8.35184 15.533 9.1804 15.0859 10.8375L14.161 14.2655C13.3057 17.4353 12.8781 19.0202 12.0876 18.9998C11.297 18.9795 10.9547 17.3748 10.27 14.1654L9.37455 9.96823C8.68107 6.71761 8.33433 5.0923 7.62335 5.00722C7.54262 4.99756 7.46099 4.99759 7.38028 5.00733C6.66937 5.09305 6.31867 6.74457 5.61727 10.0476C5.34622 11.324 5.2107 11.9622 4.79263 12.3751C4.69291 12.4736 4.58282 12.5614 4.46422 12.6371C3.96694 12.9544 3.31129 12.9544 2 12.9544" stroke="currentColor" stroke-linecap="round" stroke-linejoin="round" stroke-width="1.5" /></svg>