<svg xmlns="http://www.w3.org/2000/svg" width="24" height="24" viewBox="0 0 24 24" fill="none" stroke-width="1.5" stroke-linecap="round" stroke-linejoin="round" color="currentColor"><path d="M3.25 14V9.5C3.25 8.67157 3.92157 8 4.75 8C5.57843 8 6.25 8.67157 6.25 9.5V16.5C6.25 17.3284 6.92157 18 7.75 18C8.57843 18 9.25 17.3284 9.25 16.5V4.5C9.25 3.67157 9.92157 3 10.75 3C11.5784 3 12.25 3.67157 12.25 4.5V19.5C12.25 20.3284 12.9216 21 13.75 21C14.5784 21 15.25 20.3284 15.25 19.5V8.5C15.25 7.67157 15.9216 7 16.75 7C17.5784 7 18.25 7.67157 18.25 8.5V15.5C18.25 16.3284 18.9216 17 19.75 17C20.5784 17 21.25 16.3284 21.25 15.5V12" fill="none"></path></svg>