<svg xmlns="http://www.w3.org/2000/svg" width="24" height="24" viewBox="0 0 24 24" fill="none"><path d="M9 7H8C7.05719 7 6.58579 7 6.29289 6.70711C6 6.41421 6 5.94281 6 5C6 4.05719 6 3.58579 6.29289 3.29289C6.58579 3 7.05719 3 8 3H9.52786C10.7307 3 11.3321 3 11.8154 3.2987C12.2987 3.5974 12.5677 4.13531 13.1056 5.21115L19 17C19.9428 17 20.4142 17 20.7071 17.2929C21 17.5858 21 18.0572 21 19C21 19.9428 21 20.4142 20.7071 20.7071C20.4142 21 19.9428 21 19 21H18.4721C17.2693 21 16.6679 21 16.1846 20.7013C15.7013 20.4026 15.4323 19.8647 14.8944 18.7889L9 7Z" stroke="currentColor" stroke-linecap="round" stroke-linejoin="round" stroke-width="1.5" /><path d="M6.81966 21H3.7942C3.35558 21 3 20.6444 3 20.2058C3 20.0708 3.0344 19.9381 3.09994 19.8201L8 11L10.5 16L8.52786 19.9443C8.28351 20.433 8.16133 20.6773 7.94949 20.8234C7.92208 20.8422 7.89375 20.8598 7.8646 20.8758C7.63926 21 7.36606 21 6.81966 21Z" stroke="currentColor" stroke-linecap="round" stroke-linejoin="round" stroke-width="1.5" /></svg>