<svg xmlns="http://www.w3.org/2000/svg" width="24" height="24" viewBox="0 0 24 24" fill="none"><circle cx="12" cy="8" r="6" stroke="currentColor" stroke-width="1.5" /><path d="M16.874 12C17.5826 13.037 18 14.3093 18 15.6842C18 16.5017 17.8524 17.2829 17.5838 18M7.12605 12C6.41738 13.037 6 14.3093 6 15.6842C6 19.1723 8.68629 22 12 22C14.5371 22 16.7064 20.3424 17.5838 18M17.5838 18C14.8509 16.8 12.0559 14.8333 11 14" stroke="currentColor" stroke-linecap="round" stroke-width="1.5" /><path d="M12 2C11.0059 2 10.2 2.7835 10.2 3.75C10.2 4.7165 11.0059 5.5 12 5.5C12.461 5.5 12.8815 5.3315 13.2 5.0544" stroke="currentColor" stroke-linecap="round" stroke-width="1.5" /><path d="M10 8H10.0081M14 8H14.0081" stroke="currentColor" stroke-linecap="round" stroke-width="1.5" /></svg>