<svg xmlns="http://www.w3.org/2000/svg" width="24" height="24" viewBox="0 0 24 24" fill="none"><path d="M4.25276 20.302C5.6554 21.5 7.77027 21.5 12 21.5C16.2297 21.5 18.3446 21.5 19.7472 20.302C19.9464 20.1319 20.1319 19.9464 20.302 19.7472C21.5 18.3446 21.5 16.2297 21.5 12C21.5 7.77027 21.5 5.6554 20.302 4.25276C20.1319 4.05358 19.9464 3.86808 19.7472 3.69797C18.3446 2.5 16.2297 2.5 12 2.5C7.77027 2.5 5.6554 2.5 4.25276 3.69797C4.05358 3.86808 3.86808 4.05358 3.69797 4.25276C2.5 5.6554 2.5 7.77027 2.5 12C2.5 16.2297 2.5 18.3446 3.69797 19.7472C3.86808 19.9464 4.05358 20.1319 4.25276 20.302Z" stroke="currentColor" stroke-linecap="round" stroke-linejoin="round" stroke-width="1.5" /><path d="M4 20L20 4" stroke="currentColor" stroke-linecap="round" stroke-linejoin="round" stroke-width="1.5" /><path d="M2.69803 15.8021L15.8058 2.69434" stroke="currentColor" stroke-linecap="round" stroke-linejoin="round" stroke-width="1.5" /><path d="M21.3058 8.19434L8.19803 21.3021" stroke="currentColor" stroke-linecap="round" stroke-linejoin="round" stroke-width="1.5" /><path d="M13.5 21.5L21.5 13.5" stroke="currentColor" stroke-linecap="round" stroke-linejoin="round" stroke-width="1.5" /><path d="M2.5 10.5L10.5 2.5" stroke="currentColor" stroke-linecap="round" stroke-linejoin="round" stroke-width="1.5" /></svg>