<svg xmlns="http://www.w3.org/2000/svg" width="24" height="24" viewBox="0 0 24 24" fill="none" stroke-width="1.5" stroke-linecap="round" stroke-linejoin="round" color="currentColor"><path d="M20.242 22.3166C20.242 22.7266 20.582 23.0666 20.992 23.0666H21.002C21.412 23.0666 21.752 22.7266 21.752 22.3166V11.0266C21.752 9.79664 21.752 9.17663 21.592 8.57663C21.212 7.12663 20.202 5.97663 18.842 5.40663C18.3202 5.17472 17.7517 5.09221 16.6583 4.93353L16.542 4.91664L16.432 4.89664C15.932 4.82664 15.662 4.78664 15.512 4.72664C15.162 4.57664 14.892 4.26663 14.792 3.87663C14.752 3.72663 14.752 3.44664 14.752 2.94664V2.30664C14.752 1.89664 14.412 1.55664 14.002 1.55664C13.592 1.55664 13.252 1.89664 13.252 2.30664V2.94664C13.252 3.57664 13.252 3.92664 13.342 4.25664C13.552 5.07664 14.142 5.77663 14.932 6.10663C15.262 6.24663 15.602 6.29663 16.222 6.37663L16.322 6.39664L16.575 6.43543C17.4489 6.56913 17.9133 6.64018 18.252 6.78664C19.182 7.17664 19.872 7.96663 20.132 8.95663C20.242 9.36663 20.242 9.91664 20.242 11.0266V22.3166ZM13.2422 8.81665C13.2422 10.0567 14.2522 11.0667 15.4922 11.0667C15.9022 11.0667 16.2422 10.7267 16.2422 10.3167C16.2422 9.90665 15.9022 9.56665 15.4922 9.56665C15.0822 9.56665 14.7422 9.22665 14.7422 8.81665C14.7422 8.40665 14.4022 8.06665 13.9922 8.06665C13.5822 8.06665 13.2422 8.40665 13.2422 8.81665ZM7.74219 10.3167C7.74219 10.7267 8.08219 11.0667 8.49219 11.0667C9.73219 11.0667 10.7422 10.0567 10.7422 8.81665C10.7422 8.40665 10.4022 8.06665 9.99219 8.06665C9.58219 8.06665 9.24219 8.40665 9.24219 8.81665C9.24219 9.22665 8.90219 9.56665 8.49219 9.56665C8.08219 9.56665 7.74219 9.90665 7.74219 10.3167ZM2.99219 23.0667C2.58219 23.0667 2.24219 22.7267 2.24219 22.3167V11.0267C2.24219 9.78666 2.24219 9.16665 2.39219 8.57664C2.78219 7.12665 3.78219 5.97665 5.15219 5.40665C5.67287 5.18487 6.24004 5.10257 7.32883 4.94456L7.45219 4.92665L7.55219 4.90665C8.05219 4.83665 8.33219 4.79665 8.48219 4.73665C8.83219 4.58665 9.10219 4.27665 9.19219 3.90665C9.24219 3.73665 9.24219 3.45666 9.24219 2.95668V2.95665V2.31665C9.24219 1.90665 9.58219 1.56665 9.99219 1.56665C10.4022 1.56665 10.7422 1.90665 10.7422 2.31665V2.95665C10.7422 3.58665 10.7422 3.93665 10.6422 4.28665C10.4422 5.08665 9.85219 5.78665 9.06219 6.11665C8.73219 6.25665 8.38219 6.30666 7.76219 6.38666H7.66219C7.53463 6.40751 7.41489 6.42685 7.3023 6.44505L7.30199 6.4451C6.49677 6.5752 6.05676 6.64629 5.73219 6.78665C4.79219 7.17665 4.11219 7.96665 3.84219 8.95665C3.74219 9.35665 3.74219 9.91666 3.74219 11.0267V22.3167C3.74219 22.7267 3.40219 23.0667 2.99219 23.0667ZM11.2422 22.3167C11.2422 22.7267 11.5822 23.0667 11.9922 23.0667C12.4022 23.0667 12.7422 22.7267 12.7422 22.3167V13.3167C12.7422 12.9067 12.4022 12.5667 11.9922 12.5667C11.5822 12.5667 11.2422 12.9067 11.2422 13.3167V22.3167ZM17.9915 23.0667C17.6315 23.0667 17.3115 22.8067 17.2515 22.4367C17.2315 22.3167 16.7715 19.4867 16.7415 17.5567C16.694 14.7886 17.1803 12.0749 17.245 11.7134L17.2515 11.6767C17.3315 11.2667 17.7215 11.0067 18.1315 11.0867C18.5415 11.1667 18.8015 11.5567 18.7215 11.9667C18.7215 11.9694 18.7172 11.995 18.7092 12.0414C18.6298 12.5042 18.1952 15.0379 18.2316 17.5467C18.258 19.1488 18.6176 21.5182 18.7033 22.0829C18.715 22.1597 18.7215 22.2031 18.7215 22.2067C18.7915 22.6167 18.5115 22.9967 18.1016 23.0667H17.9915ZM5.87234 23.0666H5.98234C6.34234 23.0666 6.66234 22.8066 6.72234 22.4366C6.74234 22.3166 7.20234 19.4866 7.23234 17.5566C7.2799 14.7885 6.79362 12.0748 6.72885 11.7133C6.72553 11.6948 6.72332 11.6824 6.72234 11.6766C6.64234 11.2766 6.25234 11.0066 5.84234 11.0866C5.44234 11.1666 5.17234 11.5566 5.25234 11.9666C5.26234 11.9966 5.79234 14.7966 5.74234 17.5466C5.71593 19.1487 5.35631 21.518 5.27059 22.0828C5.25893 22.1595 5.25234 22.203 5.25234 22.2066C5.18234 22.6166 5.46234 22.9966 5.87234 23.0666Z" fill="currentColor" fill-rule="evenodd"></path></svg>