<svg xmlns="http://www.w3.org/2000/svg" width="24" height="24" viewBox="0 0 24 24" fill="none" stroke-width="1.5" stroke-linecap="round" stroke-linejoin="round" color="currentColor"><path d="M12.7472 22.3149H12.7483H12.7494C13.2583 22.3149 13.738 22.3149 14.1908 22.3128C14.2097 22.3142 14.2286 22.3149 14.2475 22.3149C14.2691 22.3149 14.2906 22.314 14.3121 22.3122C17.7052 22.2931 19.5722 22.1414 20.9883 20.9351C21.2283 20.7351 21.4283 20.5249 21.6283 20.2949C23.0083 18.6749 23.0083 16.4649 23.0083 12.0549C23.0083 7.64493 23.0083 5.43494 21.6283 3.81494C21.4283 3.57494 21.2183 3.37505 20.9883 3.17505C19.3683 1.79505 17.1583 1.79492 12.7483 1.79492C8.33828 1.79492 6.12828 1.79505 4.50828 3.17505C4.26828 3.37505 4.06828 3.58494 3.86828 3.81494C2.48828 5.43494 2.48828 7.64493 2.48828 12.0549C2.48828 16.4649 2.48828 18.6749 3.86828 20.2949C4.06828 20.5349 4.27828 20.7351 4.50828 20.9351C6.12814 22.3149 8.34791 22.3149 12.7472 22.3149ZM12.7483 20.7949C11.9524 20.7949 11.2346 20.7949 10.5857 20.7871L21.4803 9.88408C21.4883 10.5351 21.4883 11.2557 21.4883 12.0549C21.4883 12.4802 21.4883 12.8832 21.4871 13.2653L13.9587 20.7937C13.5766 20.7949 13.1736 20.7949 12.7483 20.7949ZM20.0083 19.7749C19.2025 20.4599 18.0224 20.6849 16.1137 20.7588L21.4521 15.4203C21.3782 17.329 21.1532 18.5091 20.4683 19.3149C20.3283 19.4849 20.1783 19.6349 20.0083 19.7749ZM11.5564 3.31608C11.9329 3.31494 12.3297 3.31494 12.7483 3.31494C13.5485 3.31494 14.2698 3.31494 14.9214 3.32293L4.01637 14.2364C4.00828 13.5826 4.00828 12.8585 4.00828 12.0549C4.00828 11.6365 4.00828 11.2396 4.00942 10.863L11.5564 3.31608ZM9.4022 3.35019L4.0437 8.70868C4.11684 6.78874 4.34104 5.60344 5.02828 4.79492C5.16828 4.62492 5.31828 4.47496 5.48828 4.33496C6.29744 3.64717 7.47944 3.42315 9.4022 3.35019ZM19.6667 4.08572L4.77905 18.9733C4.37704 18.3285 4.18471 17.4729 4.09269 16.2809L16.965 3.39865C18.1618 3.49039 19.0202 3.68268 19.6667 4.08572ZM5.84126 20.0312L20.7246 5.14788C21.1229 5.79318 21.3135 6.64877 21.4046 7.83894L8.54153 20.712C7.34656 20.6211 6.48821 20.4305 5.84126 20.0312Z" fill="currentColor"></path></svg>