<svg xmlns="http://www.w3.org/2000/svg" width="24" height="24" viewBox="0 0 24 24" fill="none"><path d="M3 22H21" stroke="currentColor" stroke-linecap="round" stroke-linejoin="round" stroke-width="1.5" /><path d="M15 6H9C6.17157 6 4.75736 6 3.87868 6.87868C3 7.75736 3 9.17157 3 12C3 14.8284 3 16.2426 3.87868 17.1213C4.75736 18 6.17157 18 9 18H15C17.8284 18 19.2426 18 20.1213 17.1213C21 16.2426 21 14.8284 21 12C21 9.17157 21 7.75736 20.1213 6.87868C19.2426 6 17.8284 6 15 6Z" stroke="currentColor" stroke-linecap="round" stroke-linejoin="round" stroke-width="1.5" /><path d="M17 6V18" stroke="currentColor" stroke-linecap="round" stroke-linejoin="round" stroke-width="1.5" /><path d="M7 6V18" stroke="currentColor" stroke-linecap="round" stroke-linejoin="round" stroke-width="1.5" /><path d="M9 6V5C9 4.06812 9 3.60218 9.15224 3.23463C9.35523 2.74458 9.74458 2.35523 10.2346 2.15224C10.6022 2 11.0681 2 12 2C12.9319 2 13.3978 2 13.7654 2.15224C14.2554 2.35523 14.6448 2.74458 14.8478 3.23463C15 3.60218 15 4.06812 15 5V6" stroke="currentColor" stroke-linecap="round" stroke-linejoin="round" stroke-width="1.5" /></svg>