<svg xmlns="http://www.w3.org/2000/svg" width="24" height="24" viewBox="0 0 24 24" fill="none" stroke-width="1.5" stroke-linecap="round" stroke-linejoin="round" color="currentColor"><path d="M9.25 6.75C9.25 4.49 10.65 3 12 3C13.35 3 14.75 4.49 14.75 6.75C14.75 9.01 13.35 10.5 12 10.5C10.65 10.5 9.25 9.01 9.25 6.75ZM12 1.5C9.49 1.5 7.75 4.04 7.75 6.75C7.75 9.24 9.22002 11.58 11.4 11.95C11.44 12.12 11.47 12.3401 11.5 12.5801C11.57 13.2701 11.57 14.15 11.29 15.02C10.45 17.56 10.44 19.44 10.66 20.71C10.77 21.35 10.94 21.8201 11.09 22.1501C11.17 22.3201 11.24 22.45 11.29 22.54C11.32 22.58 11.34 22.6201 11.36 22.6501L11.39 22.6799L11.4 22.7C11.65 23.03 12.12 23.1001 12.45 22.8501C12.78 22.6001 12.85 22.1401 12.6 21.8101C12.6 21.8101 12.59 21.78 12.58 21.76C12.55 21.72 12.51 21.64 12.46 21.53C12.36 21.31 12.23 20.96 12.14 20.45C11.96 19.45 11.95 17.82 12.71 15.48C13.08 14.35 13.08 13.2299 12.99 12.4199C12.97 12.2199 12.94 12.0401 12.91 11.8801C14.92 11.3601 16.25 9.12 16.25 6.75C16.25 4.04 14.51 1.5 12 1.5ZM15.75 15.75C15.75 13.49 17.15 12 18.5 12C19.85 12 21.25 13.49 21.25 15.75C21.25 18.01 19.85 19.5 18.5 19.5C17.15 19.5 15.75 18.01 15.75 15.75ZM19.21 20.9299C21.33 20.4999 22.75 18.2 22.75 15.75C22.75 13.04 21.01 10.5 18.5 10.5C15.99 10.5 14.25 13.04 14.25 15.75C14.25 18.17 15.63 20.4399 17.7 20.9099C17.69 20.9899 17.68 21.0701 17.66 21.1401C17.63 21.3101 17.59 21.4501 17.55 21.5701C17.51 21.6701 17.47 21.71 17.47 21.72C17.18 22.01 17.18 22.49 17.47 22.78C17.76 23.07 18.24 23.07 18.53 22.78C18.73 22.58 18.86 22.3301 18.95 22.1101C19.03 21.8901 19.09 21.6499 19.14 21.4299C19.17 21.2599 19.19 21.0899 19.21 20.9299ZM1.25 15.75C1.25 13.04 2.99 10.5 5.5 10.5C8.01 10.5 9.75 13.04 9.75 15.75C9.75 18.17 8.36999 20.4399 6.29999 20.9099C6.30999 20.9899 6.32003 21.0701 6.34003 21.1401C6.37003 21.3101 6.41001 21.4501 6.45001 21.5701C6.49001 21.6701 6.53003 21.71 6.53003 21.72C6.82003 22.01 6.82003 22.49 6.53003 22.78C6.24003 23.07 5.75997 23.07 5.46997 22.78C5.26997 22.58 5.13999 22.3301 5.04999 22.1101C4.96999 21.8901 4.90999 21.6499 4.85999 21.4299C4.82999 21.2599 4.80998 21.0899 4.78998 20.9299C2.66998 20.4999 1.25 18.2 1.25 15.75ZM5.5 19.5C6.85 19.5 8.25 18.01 8.25 15.75C8.25 13.49 6.85 12 5.5 12C4.15 12 2.75 13.49 2.75 15.75C2.75 18.01 4.15 19.5 5.5 19.5Z" fill="currentColor" fill-rule="evenodd"></path></svg>