<svg xmlns="http://www.w3.org/2000/svg" width="24" height="24" viewBox="0 0 24 24" fill="none"><path d="M14.5 10C14.5 11.3807 13.3807 12.5 12 12.5C10.6193 12.5 9.5 11.3807 9.5 10C9.5 8.61929 10.6193 7.5 12 7.5C13.3807 7.5 14.5 8.61929 14.5 10Z" stroke="currentColor" stroke-linecap="round" stroke-linejoin="round" stroke-width="1.5" /><path d="M19 14.5V20.5M19 14.5C18.1598 14.5 16.5898 16.8932 16 17.5M19 14.5C19.8402 14.5 21.4102 16.8932 22 17.5" stroke="currentColor" stroke-linecap="round" stroke-linejoin="round" stroke-width="1.5" /><path d="M5 10H6" stroke="currentColor" stroke-linecap="round" stroke-linejoin="round" stroke-width="1.5" /><path d="M18 10H19" stroke="currentColor" stroke-linecap="round" stroke-linejoin="round" stroke-width="1.5" /><path d="M22.4827 12.5C22.5 11.925 22.5 11.2641 22.5 10.5V9.5C22.5 6.67157 22.5 5.25736 21.6213 4.37868C20.7426 3.5 19.3284 3.5 16.5 3.5H7.5C4.67157 3.5 3.25736 3.5 2.37868 4.37868C1.5 5.25736 1.5 6.67157 1.5 9.5V10.5C1.5 13.3284 1.5 14.7426 2.37868 15.6213C3.25736 16.5 4.67157 16.5 7.5 16.5H13" stroke="currentColor" stroke-linecap="round" stroke-width="1.5" /></svg>