<svg xmlns="http://www.w3.org/2000/svg" width="24" height="24" viewBox="0 0 24 24" fill="none"><path d="M1.5 12.5V11.5C1.5 8.67157 1.5 7.25736 2.37868 6.37868C3.25736 5.5 4.67157 5.5 7.5 5.5H16.5C19.3284 5.5 20.7426 5.5 21.6213 6.37868C22.5 7.25736 22.5 8.67157 22.5 11.5V12.5C22.5 15.3284 22.5 16.7426 21.6213 17.6213C20.7426 18.5 19.3284 18.5 16.5 18.5H7.5C4.67157 18.5 3.25736 18.5 2.37868 17.6213C1.5 16.7426 1.5 15.3284 1.5 12.5Z" stroke="currentColor" stroke-width="1.5" /><path d="M14.5 12C14.5 13.3807 13.3807 14.5 12 14.5C10.6193 14.5 9.5 13.3807 9.5 12C9.5 10.6193 10.6193 9.5 12 9.5C13.3807 9.5 14.5 10.6193 14.5 12Z" stroke="currentColor" stroke-linecap="round" stroke-linejoin="round" stroke-width="1.5" /><path d="M5 12H6" stroke="currentColor" stroke-linecap="round" stroke-linejoin="round" stroke-width="1.5" /><path d="M18 12H19" stroke="currentColor" stroke-linecap="round" stroke-linejoin="round" stroke-width="1.5" /></svg>