<svg xmlns="http://www.w3.org/2000/svg" width="24" height="24" viewBox="0 0 24 24" fill="none" stroke-width="1.5" stroke-linecap="round" stroke-linejoin="round" color="currentColor"><path d="M9 21.0723H21C21.41 21.0723 21.75 20.7323 21.75 20.3223C21.75 19.9123 21.41 19.5723 21 19.5723H9H8.99896C6.37965 19.5723 5.06995 19.5723 4.41003 18.9124C3.75003 18.2524 3.75 16.9423 3.75 14.3223V4.32227C3.75 3.91227 3.41 3.57227 3 3.57227C2.59 3.57227 2.25 3.91227 2.25 4.32227V14.3223V14.3225C2.25 17.3523 2.25 18.8724 3.34998 19.9724C4.44983 21.0723 5.96959 21.0723 8.99879 21.0723H9ZM7 17.0723H16C16.41 17.0723 16.75 16.7323 16.75 16.3223C16.75 15.9123 16.41 15.5723 16 15.5723H7C6.59 15.5723 6.25 15.9123 6.25 16.3223C6.25 16.7323 6.59 17.0723 7 17.0723ZM20 13.0723H7C6.59 13.0723 6.25 12.7323 6.25 12.3223C6.25 11.9123 6.59 11.5723 7 11.5723H20C20.41 11.5723 20.75 11.9123 20.75 12.3223C20.75 12.7323 20.41 13.0723 20 13.0723ZM7 9.07227H13C13.41 9.07227 13.75 8.73227 13.75 8.32227C13.75 7.91227 13.41 7.57227 13 7.57227H7C6.59 7.57227 6.25 7.91227 6.25 8.32227C6.25 8.73227 6.59 9.07227 7 9.07227Z" fill="currentColor" fill-rule="evenodd"></path></svg>