<svg xmlns="http://www.w3.org/2000/svg" width="24" height="24" viewBox="0 0 24 24" fill="none" stroke-width="1.5" stroke-linecap="round" stroke-linejoin="round" color="currentColor"><path d="M3.92219 15.5022C4.21219 15.5722 4.49219 15.5723 5.00219 15.5723C5.51219 15.5723 5.79219 15.5722 6.08219 15.4922C6.86219 15.2822 7.46219 14.6723 7.67219 13.9023C7.75219 13.6124 7.75219 13.3323 7.75219 12.8123V12.8123V6.81226V6.81222C7.75219 6.30224 7.75219 6.01217 7.67219 5.73218C7.46219 4.96218 6.85219 4.35233 6.07219 4.14233C5.78219 4.07233 5.50219 4.07227 4.99219 4.07227C4.48219 4.07227 4.20219 4.07234 3.91219 4.15234C3.13219 4.36234 2.53219 4.97219 2.32219 5.74219C2.24219 6.03219 2.24219 6.31228 2.24219 6.83228V12.8323C2.24219 13.3423 2.24219 13.6324 2.32219 13.9124C2.53219 14.6824 3.14219 15.2922 3.92219 15.5022ZM4.30219 5.60229C4.40219 5.57229 4.64219 5.57227 5.00219 5.57227C5.36219 5.57227 5.60219 5.57229 5.69219 5.59229C5.95219 5.66229 6.15219 5.86231 6.22219 6.12231C6.25219 6.21231 6.25219 6.46223 6.25219 6.81221V6.81226V12.8123V12.8123C6.25219 13.1623 6.25219 13.4122 6.22219 13.5122C6.15219 13.7722 5.95219 13.9722 5.69219 14.0422C5.59219 14.0722 5.35219 14.0723 4.99219 14.0723C4.63219 14.0723 4.39219 14.0722 4.30219 14.0522C4.04219 13.9822 3.84219 13.7822 3.77219 13.5222C3.74219 13.4322 3.74219 13.1823 3.74219 12.8323V12.8323V6.83228V6.83223C3.74219 6.48226 3.74219 6.23232 3.77219 6.13232C3.84219 5.87232 4.04219 5.67229 4.30219 5.60229ZM12.0022 21.5723C11.4922 21.5723 11.2122 21.5722 10.9222 21.5022C10.1422 21.2922 9.53219 20.6824 9.32219 19.9124C9.24219 19.6324 9.24219 19.3423 9.24219 18.8323V18.8323V6.83228V6.83224C9.24219 6.31226 9.24219 6.03218 9.32219 5.74219C9.53219 4.97219 10.1322 4.36234 10.9122 4.15234C11.2022 4.07234 11.4822 4.07227 11.9922 4.07227C12.5022 4.07227 12.7822 4.07233 13.0722 4.14233C13.8522 4.35233 14.4622 4.96218 14.6722 5.73218C14.7522 6.01217 14.7522 6.30224 14.7522 6.81222V6.81226V18.8123V18.8123C14.7522 19.3323 14.7522 19.6124 14.6722 19.9023C14.4622 20.6723 13.8622 21.2822 13.0822 21.4922C12.7922 21.5722 12.5122 21.5723 12.0022 21.5723ZM12.0022 5.57227C11.6422 5.57227 11.4022 5.57229 11.3022 5.60229C11.0422 5.67229 10.8422 5.87232 10.7722 6.13232C10.7422 6.23232 10.7422 6.48226 10.7422 6.83224V6.83228V18.8323V18.8323C10.7422 19.1823 10.7422 19.4322 10.7722 19.5222C10.8422 19.7822 11.0422 19.9822 11.3022 20.0522C11.3922 20.0722 11.6322 20.0723 11.9922 20.0723C12.3522 20.0723 12.5922 20.0722 12.6922 20.0422C12.9522 19.9722 13.1522 19.7722 13.2222 19.5122C13.2522 19.4122 13.2522 19.1623 13.2522 18.8123V18.8123V6.81226V6.81222C13.2522 6.46224 13.2522 6.21231 13.2222 6.12231C13.1522 5.86231 12.9522 5.66229 12.6922 5.59229C12.6022 5.57229 12.3622 5.57227 12.0022 5.57227ZM19.0022 11.5723C18.4922 11.5723 18.2122 11.5722 17.9222 11.5022C17.1422 11.2922 16.5322 10.6824 16.3222 9.91235C16.2422 9.63236 16.2422 9.34229 16.2422 8.83231V8.83228V6.83228V6.83224C16.2422 6.31226 16.2422 6.03218 16.3222 5.74219C16.5322 4.97219 17.1322 4.36234 17.9122 4.15234C18.2022 4.07234 18.4822 4.07227 18.9922 4.07227C19.5022 4.07227 19.7822 4.07233 20.0722 4.14233C20.8522 4.35233 21.4622 4.96218 21.6722 5.73218C21.7522 6.01217 21.7522 6.30224 21.7522 6.81222V6.81226V8.81226V8.81229C21.7522 9.33227 21.7522 9.61235 21.6722 9.90234C21.4622 10.6723 20.8622 11.2822 20.0822 11.4922C19.7922 11.5722 19.5122 11.5723 19.0022 11.5723ZM19.0022 5.57227C18.6422 5.57227 18.4022 5.57229 18.3022 5.60229C18.0422 5.67229 17.8422 5.87232 17.7722 6.13232C17.7422 6.23232 17.7422 6.48226 17.7422 6.83224V6.83228V8.83228V8.83231C17.7422 9.18229 17.7422 9.43222 17.7722 9.52222C17.8422 9.78222 18.0422 9.98225 18.3022 10.0522C18.3922 10.0722 18.6322 10.0723 18.9922 10.0723C19.3522 10.0723 19.5922 10.0722 19.6922 10.0422C19.9522 9.97224 20.1522 9.77221 20.2222 9.51221C20.2522 9.41221 20.2522 9.16229 20.2522 8.81232V8.81226V6.81226V6.81219C20.2522 6.46222 20.2522 6.21231 20.2222 6.12231C20.1522 5.86231 19.9522 5.66229 19.6922 5.59229C19.6022 5.57229 19.3622 5.57227 19.0022 5.57227Z" fill="currentColor" fill-rule="evenodd"></path></svg>