<svg xmlns="http://www.w3.org/2000/svg" width="24" height="24" viewBox="0 0 24 24" fill="none"><path d="M2.5 8.18677C2.60406 6.08705 2.91537 4.77792 3.84664 3.84664C4.77792 2.91537 6.08705 2.60406 8.18677 2.5M21.5 8.18677C21.3959 6.08705 21.0846 4.77792 20.1534 3.84664C19.2221 2.91537 17.9129 2.60406 15.8132 2.5M15.8132 21.5C17.9129 21.3959 19.2221 21.0846 20.1534 20.1534C21.0846 19.2221 21.3959 17.9129 21.5 15.8132M8.18676 21.5C6.08705 21.3959 4.77792 21.0846 3.84664 20.1534C2.91537 19.2221 2.60406 17.9129 2.5 15.8132" stroke="currentColor" stroke-linecap="round" stroke-linejoin="round" stroke-width="1.5" /><path d="M16 7V17" stroke="currentColor" stroke-linecap="round" stroke-linejoin="round" stroke-width="1.5" /><path d="M12 7V13" stroke="currentColor" stroke-linecap="round" stroke-linejoin="round" stroke-width="1.5" /><path d="M12 17V17.01" stroke="currentColor" stroke-linecap="round" stroke-linejoin="round" stroke-width="1.5" /><path d="M8 7V17" stroke="currentColor" stroke-linecap="round" stroke-linejoin="round" stroke-width="1.5" /></svg>