<svg xmlns="http://www.w3.org/2000/svg" width="24" height="24" viewBox="0 0 24 24" fill="none"><path d="M4 18.5V5.5C4 5.22386 3.77614 5 3.5 5C3.22386 5 3 5.22386 3 5.5V18.5C3 18.7761 3.22386 19 3.5 19C3.77614 19 4 18.7761 4 18.5Z" stroke="currentColor" stroke-linecap="round" stroke-linejoin="round" stroke-width="1.5" /><path d="M17 18.5V5.5C17 5.22386 16.7761 5 16.5 5C16.2239 5 16 5.22386 16 5.5V18.5C16 18.7761 16.2239 19 16.5 19C16.7761 19 17 18.7761 17 18.5Z" stroke="currentColor" stroke-linecap="round" stroke-linejoin="round" stroke-width="1.5" /><path d="M8 5V19" stroke="currentColor" stroke-linecap="round" stroke-linejoin="round" stroke-width="1.5" /><path d="M12 5V19" stroke="currentColor" stroke-linecap="round" stroke-linejoin="round" stroke-width="1.5" /><path d="M21 5V19" stroke="currentColor" stroke-linecap="round" stroke-linejoin="round" stroke-width="1.5" /></svg>