<svg xmlns="http://www.w3.org/2000/svg" width="24" height="24" viewBox="0 0 24 24" fill="none"><path d="M5.315 15.6946C5.14633 16.0729 5.31628 16.5163 5.6946 16.685C6.07291 16.8537 6.51633 16.6837 6.685 16.3054L6 16L5.315 15.6946ZM10.1724 6.64162L9.48737 6.33622V6.33622L10.1724 6.64162ZM13.8276 6.64162L13.1426 6.94702V6.94702L13.8276 6.64162ZM17.315 16.3054C17.4837 16.6837 17.9271 16.8537 18.3054 16.685C18.6837 16.5163 18.8537 16.0729 18.685 15.6946L18 16L17.315 16.3054ZM8 11.25C7.58579 11.25 7.25 11.5858 7.25 12C7.25 12.4142 7.58579 12.75 8 12.75V12V11.25ZM16 12.75C16.4142 12.75 16.75 12.4142 16.75 12C16.75 11.5858 16.4142 11.25 16 11.25V12V12.75ZM6 16L6.685 16.3054L10.8574 6.94702L10.1724 6.64162L9.48737 6.33622L5.315 15.6946L6 16ZM13.8276 6.64162L13.1426 6.94702L17.315 16.3054L18 16L18.685 15.6946L14.5126 6.33622L13.8276 6.64162ZM10.1724 6.64162L10.8574 6.94702C11.2603 6.04328 11.5297 5.44382 11.7714 5.06034C12.0231 4.66106 12.0885 4.75 12 4.75V4V3.25C11.2616 3.25 10.8058 3.77921 10.5025 4.26047C10.1891 4.75753 9.86961 5.47888 9.48737 6.33622L10.1724 6.64162ZM13.8276 6.64162L14.5126 6.33622C14.1304 5.47888 13.8109 4.75753 13.4975 4.26047C13.1942 3.77921 12.7384 3.25 12 3.25V4V4.75C11.9115 4.75 11.9769 4.66106 12.2286 5.06034C12.4703 5.44382 12.7397 6.04328 13.1426 6.94702L13.8276 6.64162ZM8 12V12.75H16V12V11.25H8V12Z" fill="currentColor" /><path d="M4 20H20" stroke="currentColor" stroke-linecap="round" stroke-linejoin="round" stroke-width="1.5" /></svg>