<svg xmlns="http://www.w3.org/2000/svg" width="24" height="24" viewBox="0 0 24 24" fill="none" stroke-width="1.5" stroke-linecap="round" stroke-linejoin="round" color="currentColor"><path d="M12.0499 2.85156C13.8799 2.85156 15.32 2.85156 16.46 2.97156C17.63 3.09156 18.57 3.35156 19.38 3.94156C19.87 4.29156 20.2999 4.72156 20.6499 5.21156C21.2399 6.02156 21.5 6.97156 21.63 8.13156C21.75 9.27156 21.75 10.7116 21.75 12.5516V12.6416C21.75 14.4816 21.75 15.9216 21.63 17.0616C21.5 18.2316 21.2399 19.1716 20.6499 19.9816C20.2999 20.4716 19.87 20.9016 19.38 21.2516C18.57 21.8316 17.63 22.0916 16.46 22.2216C15.32 22.3416 13.8799 22.3416 12.0499 22.3416H11.95C10.12 22.3416 8.67992 22.3416 7.53992 22.2216C6.36992 22.1016 5.43 21.8416 4.62 21.2516C4.13 20.9016 3.69998 20.4716 3.34998 19.9816C2.75998 19.1716 2.49999 18.2216 2.36999 17.0616C2.25 15.9216 2.25 14.4816 2.25 12.6416V12.5516C2.25 10.7116 2.25 9.27156 2.36999 8.13156C2.49999 6.96156 2.75998 6.02156 3.34998 5.21156C3.69998 4.72156 4.13 4.29156 4.62 3.94156C5.43 3.36156 6.36992 3.10156 7.53992 2.97156C8.67992 2.85156 10.12 2.85156 11.95 2.85156H12.0499ZM5.5 5.16156C5.14 5.42156 4.81994 5.74156 4.55994 6.10156C4.18994 6.61156 3.98 7.26156 3.87 8.30156C3.75 9.35156 3.75 10.7116 3.75 12.6016C3.75 14.4916 3.75 15.8516 3.87 16.9016C3.98 17.9416 4.18994 18.5916 4.55994 19.1016C4.81994 19.4616 5.14 19.7816 5.5 20.0416C6.01 20.4116 6.65995 20.6316 7.69995 20.7416C8.74995 20.8616 10.11 20.8616 12 20.8616C13.89 20.8616 15.2499 20.8516 16.2999 20.7416C17.3399 20.6216 17.99 20.4116 18.5 20.0416C18.86 19.7816 19.1799 19.4616 19.4399 19.1016C19.8099 18.5916 20.0199 17.9416 20.1399 16.9016C20.2499 15.8516 20.25 14.4916 20.25 12.6016C20.25 10.7116 20.2499 9.35156 20.1399 8.30156C20.0199 7.26156 19.8099 6.61156 19.4399 6.10156C19.1799 5.74156 18.86 5.42156 18.5 5.16156C17.99 4.79156 17.3399 4.57156 16.2999 4.46156C15.2499 4.34156 13.89 4.34157 12 4.34157C10.11 4.34157 8.74995 4.35156 7.69995 4.46156C6.65995 4.58156 6.01 4.79156 5.5 5.16156ZM6.42993 7.11156C6.69993 6.80156 7.17999 6.76156 7.48999 7.03156L8.71997 8.09157L8.75 8.12157C8.98 8.32157 9.21 8.51157 9.37 8.70157C9.54999 8.90157 9.75 9.20156 9.75 9.60156C9.75 10.0016 9.54999 10.3016 9.37 10.5016C9.21 10.6816 8.98 10.8816 8.75 11.0816L8.71997 11.1116L7.48999 12.1716C7.17999 12.4416 6.69993 12.4116 6.42993 12.0916C6.15993 11.7816 6.20001 11.3016 6.51001 11.0316L7.73999 9.97156C7.93999 9.80156 8.06991 9.68157 8.15991 9.59157C8.06991 9.50157 7.93999 9.39156 7.73999 9.21156L6.51001 8.15157C6.20001 7.88157 6.15993 7.41157 6.42993 7.09157V7.11156ZM10.25 11.6016C10.25 11.1916 10.59 10.8516 11 10.8516H14C14.41 10.8516 14.75 11.1916 14.75 11.6016C14.75 12.0116 14.41 12.3516 14 12.3516H11C10.59 12.3516 10.25 12.0116 10.25 11.6016Z" fill="currentColor"></path></svg>