<svg xmlns="http://www.w3.org/2000/svg" width="24" height="24" viewBox="0 0 24 24" fill="none"><path d="M7 6.00171C4.82497 6.01382 3.64706 6.11027 2.87868 6.87865C2 7.75733 2 9.17154 2 12C2 14.8284 2 16.2426 2.87868 17.1213C3.64706 17.8897 4.82497 17.9861 7 17.9982M14 17.9982C16.175 17.9861 17.3529 17.8897 18.1213 17.1213C19 16.2426 19 14.8284 19 12C19 9.17154 19 7.75733 18.1213 6.87865C17.3529 6.11027 16.175 6.01382 14 6.00171" stroke="currentColor" stroke-linecap="round" stroke-linejoin="round" stroke-width="1.5" /><path d="M19 9.49976L20.0272 9.67096C20.7085 9.7845 21.0491 9.84128 21.3076 10.0064C21.5618 10.1688 21.7612 10.4042 21.8796 10.6816C22 10.9637 22 11.3091 22 11.9998C22 12.6904 22 13.0358 21.8796 13.3179C21.7612 13.5953 21.5618 13.8307 21.3076 13.9931C21.0491 14.1582 20.7085 14.215 20.0272 14.3286L19 14.4998" stroke="currentColor" stroke-linecap="round" stroke-linejoin="round" stroke-width="1.5" /><path d="M10.5 8.99976V14.9998M13.505 11.9946L7.50497 11.9946" stroke="currentColor" stroke-linecap="round" stroke-linejoin="round" stroke-width="1.5" /></svg>