<svg xmlns="http://www.w3.org/2000/svg" width="24" height="24" viewBox="0 0 24 24" fill="none"><path d="M14 6H8C5.17157 6 3.75736 6 2.87868 6.87868C2 7.75736 2 9.17157 2 12C2 14.8284 2 16.2426 2.87868 17.1213C3.75736 18 5.17157 18 8 18H14C16.8284 18 18.2426 18 19.1213 17.1213C20 16.2426 20 14.8284 20 12C20 9.17157 20 7.75736 19.1213 6.87868C18.2426 6 16.8284 6 14 6Z" stroke="currentColor" stroke-linecap="round" stroke-linejoin="round" stroke-width="1.5" /><path d="M20 10H21C21.5523 10 22 10.4477 22 11V13C22 13.5523 21.5523 14 21 14H20M21 10.5V13.5" stroke="currentColor" stroke-linecap="round" stroke-linejoin="round" stroke-width="1.5" /></svg>