<svg xmlns="http://www.w3.org/2000/svg" width="24" height="24" viewBox="0 0 24 24" fill="none" stroke-width="1.5" stroke-linecap="round" stroke-linejoin="round" color="currentColor"><path d="M12.5 2L10 6H14L11.5 10" stroke="currentColor"></path><path d="M17 6C17.9428 6 18.4142 6 18.7071 6.29289C19 6.58579 19 7.05719 19 8V10.5M7 6C6.05719 6 5.58579 6 5.29289 6.29289C5 6.58579 5 7.05719 5 8L5 10.5" stroke="currentColor"></path><path d="M20 13H18C17.0572 13 16.5858 13 16.2929 13.2929C16 13.5858 16 14.0572 16 15V20C16 20.9428 16 21.4142 16.2929 21.7071C16.5858 22 17.0572 22 18 22H20C20.9428 22 21.4142 22 21.7071 21.7071C22 21.4142 22 20.9428 22 20V15C22 14.0572 22 13.5858 21.7071 13.2929C21.4142 13 20.9428 13 20 13Z" stroke="currentColor"></path><path d="M16 19H22" stroke="currentColor"></path><path d="M16 16L22 16" stroke="currentColor"></path><path d="M6 13H4C3.05719 13 2.58579 13 2.29289 13.2929C2 13.5858 2 14.0572 2 15V20C2 20.9428 2 21.4142 2.29289 21.7071C2.58579 22 3.05719 22 4 22H6C6.94281 22 7.41421 22 7.70711 21.7071C8 21.4142 8 20.9428 8 20V15C8 14.0572 8 13.5858 7.70711 13.2929C7.41421 13 6.94281 13 6 13Z" stroke="currentColor"></path><path d="M2 19H8" stroke="currentColor"></path><path d="M2 16L8 16" stroke="currentColor"></path></svg>