<svg xmlns="http://www.w3.org/2000/svg" width="24" height="24" viewBox="0 0 24 24" fill="none"><path d="M9.2995 9.2995C8.79739 9.8016 8.14777 10.1562 7.42494 10.289C4.49201 10.8277 2.55106 13.6421 3.08979 16.5751C3.62852 19.508 6.44296 21.4489 9.37589 20.9102C12.3036 20.3724 14.9183 18.9527 16.9355 16.9355M10.8427 5.84268C11.9228 3.83297 14.2104 2.65544 16.5751 3.08979C19.508 3.62852 21.4489 6.44296 20.9102 9.37589C20.5964 11.0842 19.9824 12.6859 19.1245 14.1245" stroke="currentColor" stroke-linecap="round" stroke-linejoin="round" stroke-width="1.5" /><path d="M11.1734 5.64062C11.9536 6.14654 12.5464 6.91691 12.8248 7.82477M5.64142 11.1726C6.35428 12.2719 7.5922 12.9992 8.99998 12.9992C10.1043 12.9992 11.1042 12.5516 11.828 11.828" stroke="currentColor" stroke-linecap="round" stroke-linejoin="round" stroke-width="1.5" /><path d="M3 3L21 21" stroke="currentColor" stroke-linecap="round" stroke-linejoin="round" stroke-width="1.5" /></svg>