<svg xmlns="http://www.w3.org/2000/svg" width="24" height="24" viewBox="0 0 24 24" fill="none"><circle cx="8.00006" cy="10" r="2" stroke="currentColor" stroke-linecap="round" stroke-linejoin="round" stroke-width="1.5" /><path d="M2 10C2 13.3137 4.68629 16 8 16C9.05861 16 10.0532 15.7258 10.9166 15.2447C13.1893 13.9781 14.0001 13 18 12C20.2318 11.442 22 10.2091 22 8C22 5.79086 20.2091 4 18 4H8C4.68629 4 2 6.68629 2 10Z" stroke="currentColor" stroke-linecap="round" stroke-linejoin="round" stroke-width="1.5" /><path d="M2.00012 10L2 14C2 17.3137 4.68629 20 8 20C9.05861 20 10.0532 19.7258 10.9166 19.2447C13.1893 17.9781 14.0001 17 18 16C20.2318 15.442 22 14.2091 22 12V8" stroke="currentColor" stroke-linecap="round" stroke-linejoin="round" stroke-width="1.5" /></svg>