<svg xmlns="http://www.w3.org/2000/svg" width="24" height="24" viewBox="0 0 24 24" fill="none"><path d="M10.0001 10C10.0001 11.1046 9.1047 12 8.00013 12C6.89556 12 6.00013 11.1046 6.00013 10C6.00013 8.89543 6.89556 8 8.00013 8" stroke="currentColor" stroke-linecap="round" stroke-linejoin="round" stroke-width="1.5" /><path d="M4.87633 4.87627C3.15139 5.93015 2.00007 7.83062 2.00007 10C2.00007 13.3137 4.68636 16 8.00007 16C9.05868 16 10.0533 15.7258 10.9167 15.2447C11.9804 14.6518 12.7239 14.1222 13.624 13.624M9.00007 4H18.0001C20.2092 4 22.0001 5.79086 22.0001 8C22.0001 10.2091 20.2318 11.442 18.0001 12C17.7214 12.0697 17.4582 12.1392 17.2089 12.2088" stroke="currentColor" stroke-linecap="round" stroke-linejoin="round" stroke-width="1.5" /><path d="M2.00019 10L2.00007 14C2.00007 17.3137 4.68636 20 8.00007 20C9.05868 20 10.0533 19.7258 10.9167 19.2447C12.8576 18.163 13.7323 17.2917 16.4376 16.4376M22.0001 8V12C22.0001 13.4265 21.2628 14.4459 20.1395 15.1394" stroke="currentColor" stroke-linecap="round" stroke-linejoin="round" stroke-width="1.5" /><path d="M2.00007 2L22.0001 22" stroke="currentColor" stroke-linecap="round" stroke-linejoin="round" stroke-width="1.5" /></svg>