<svg xmlns="http://www.w3.org/2000/svg" width="24" height="24" viewBox="0 0 24 24" fill="none"><path d="M16 18C16 20.2091 14.2091 22 12 22C9.79086 22 8 20.2091 8 18" stroke="currentColor" stroke-linecap="round" stroke-linejoin="round" stroke-width="1.5" /><path d="M14.5218 2.3423C14.0096 2.16285 13.4656 2.0496 12.9 2.01285C12.7024 2 12.4682 2 12 2C11.5317 2 11.2976 2 11.1 2.01285C8.06972 2.20977 5.65599 4.60304 5.45738 7.60758C5.44442 7.80358 5.44442 8.03572 5.44442 8.5V9.8056C5.44442 10.5353 5.44442 10.9002 5.40807 11.254C5.29504 12.354 4.9208 13.4119 4.31599 14.3409C4.12146 14.6397 3.89157 14.9246 3.43183 15.4944L3.26064 15.7066C2.80212 16.2749 2.57287 16.559 2.5228 16.789C2.4255 17.2359 2.64625 17.6913 3.05897 17.8951C3.27136 18 3.63835 18 4.37233 18H19.6277C20.3616 18 20.7286 18 20.941 17.8951C21.3537 17.6913 21.5745 17.2359 21.4772 16.789C21.4271 16.559 21.1979 16.2749 20.7394 15.7066L20.5682 15.4944C20.1898 15.0255 19.9672 14.7495 19.7918 14.5" stroke="currentColor" stroke-linecap="round" stroke-linejoin="round" stroke-width="1.5" /><path d="M15 7.99988H21M17.995 11.0049L17.995 5.00488" stroke="currentColor" stroke-linecap="round" stroke-linejoin="round" stroke-width="1.5" /></svg>