<svg xmlns="http://www.w3.org/2000/svg" width="24" height="24" viewBox="0 0 24 24" fill="none"><path d="M19 11V12.7558C19 13.5514 19.3161 14.3145 19.8787 14.8771L20.4819 15.4803C20.8136 15.8121 21 16.262 21 16.7311C21 17.708 20.208 18.5 19.2311 18.5H4.76887C3.79195 18.5 3 17.708 3 16.7311C3 16.262 3.18636 15.8121 3.51809 15.4803L4.12132 14.8771C4.68393 14.3145 5 13.5514 5 12.7558V10C5 6.13401 8.13401 3 12 3" stroke="currentColor" stroke-linecap="round" stroke-linejoin="round" stroke-width="1.5" /><path d="M15.5 18.5C15.5 20.433 13.933 22 12 22C10.067 22 8.5 20.433 8.5 18.5" stroke="currentColor" stroke-linecap="round" stroke-linejoin="round" stroke-width="1.5" /><path d="M21 5C21 3.34315 19.6568 2 18 2C16.3431 2 15 3.34315 15 5C15 6.65684 16.3431 8 18 8C19.6568 8 21 6.65684 21 5Z" stroke="currentColor" stroke-linecap="round" stroke-linejoin="round" stroke-width="1.5" /></svg>