<svg xmlns="http://www.w3.org/2000/svg" width="24" height="24" viewBox="0 0 24 24" fill="none"><path d="M7.59664 15.3392C9.52872 13.2691 11.8621 13.2998 13.4439 13.7191C14.2125 13.9228 14.5969 14.0247 14.7695 14.0102C14.9421 13.9957 15.4098 13.7829 16.3452 13.3573C16.8495 13.1278 17.4098 13 18 13C20.2091 13 22 14.7909 22 17C22 19 20 21 16.5 21C14.6145 21 9.75576 21 4.95306 19.7566C3.35687 19.3433 2 18.1488 2 16.5C2 14.6889 4.23802 10.3911 6.05252 6.95854C6.76271 5.61507 7.1178 4.94334 7.6333 4.47339C7.7782 4.3413 7.92016 4.22937 8.08241 4.1193C8.65966 3.72767 9.38317 3.54231 10.8302 3.1716L11.249 3.06429C11.4157 3.0216 11.587 3 11.7591 3C12.7637 3 13.621 3.7263 13.7862 4.71725L13.9812 5.88691C13.9937 5.96217 14 6.03835 14 6.11465C14 6.87976 13.3798 7.5 12.6147 7.5H12.5L11.1949 7.28249C10.3737 7.14561 9.96302 7.07717 9.63176 7.30215C9.30051 7.52714 9.21912 7.90452 9.05634 8.65929C8.63189 10.6274 8.51166 12.6477 8.51166 13.9468" stroke="currentColor" stroke-linecap="round" stroke-linejoin="round" stroke-width="1.5" /></svg>