<svg xmlns="http://www.w3.org/2000/svg" width="24" height="24" viewBox="0 0 24 24" fill="none" stroke-width="1.5" stroke-linecap="round" stroke-linejoin="round" color="currentColor"><path d="M22.5366 15.7902V15.7702L19.6166 5.88023C19.2466 4.62023 18.0566 3.74023 16.7266 3.74023C15.8966 3.74023 15.1166 4.07023 14.5466 4.67023C13.9766 5.26023 13.6866 6.03024 13.7166 6.86024L13.7666 7.75024H10.1666L10.2166 6.86024C10.2466 6.05024 9.95656 5.27024 9.39656 4.68024C8.82656 4.08024 8.04656 3.75024 7.21656 3.75024C5.88656 3.75024 4.69656 4.63024 4.32656 5.89024L1.39656 15.7802V15.8002C1.28656 16.1802 1.22656 16.5802 1.22656 16.9902C1.22656 19.3302 3.13656 21.2402 5.47656 21.2402C7.81656 21.2402 9.56656 19.4702 9.69656 17.2402H14.2466C14.3766 19.4702 16.2166 21.2402 18.4666 21.2402C20.7166 21.2402 22.7166 19.3302 22.7166 16.9902C22.7166 16.5802 22.6566 16.1802 22.5466 15.8002L22.5366 15.7902ZM15.6166 5.69023C15.9066 5.39023 16.2966 5.22024 16.7166 5.22024C17.3866 5.22024 17.9866 5.66024 18.1666 6.29024L20.1766 13.0802C19.6466 12.8502 19.0666 12.7202 18.4566 12.7202C17.3466 12.7202 16.3266 13.1502 15.5766 13.8502L15.2166 6.76024C15.1966 6.36024 15.3466 5.98024 15.6266 5.68024L15.6166 5.69023ZM13.8366 9.23023L14.1666 15.7302H9.74656L10.0766 9.23023H13.8266H13.8366ZM5.74656 6.30023C5.93656 5.67023 6.52656 5.23023 7.19656 5.23023C7.61656 5.23023 8.00656 5.40023 8.29656 5.70023C8.57656 5.99023 8.72656 6.37023 8.70656 6.77023L8.33656 13.8702C7.57656 13.1702 6.56656 12.7402 5.45656 12.7402C4.84656 12.7402 4.26656 12.8702 3.73656 13.1002L5.74656 6.31023V6.30023ZM5.45656 19.7302C3.93656 19.7302 2.70656 18.5002 2.70656 16.9802C2.70656 15.4602 3.93656 14.2302 5.45656 14.2302C6.97656 14.2302 8.20656 15.4602 8.20656 16.9802C8.20656 18.5002 6.97656 19.7302 5.45656 19.7302ZM18.4566 19.7302C16.9366 19.7302 15.7066 18.5002 15.7066 16.9802C15.7066 15.4602 16.9366 14.2302 18.4566 14.2302C19.9766 14.2302 21.2066 15.4602 21.2066 16.9802C21.2066 18.5002 19.9766 19.7302 18.4566 19.7302Z" fill="currentColor"></path></svg>