<svg xmlns="http://www.w3.org/2000/svg" width="24" height="24" viewBox="0 0 24 24" fill="none" stroke-width="1.5" stroke-linecap="round" stroke-linejoin="round" color="currentColor"><path d="M5 9C5 5.70017 5 4.05025 6.02513 3.02513C7.05025 2 8.70017 2 12 2C15.2998 2 16.9497 2 17.9749 3.02513C19 4.05025 19 5.70017 19 9V15C19 18.2998 19 19.9497 17.9749 20.9749C16.9497 22 15.2998 22 12 22C8.70017 22 7.05025 22 6.02513 20.9749C5 19.9497 5 18.2998 5 15V9Z" stroke="currentColor"></path><path d="M16 13V10.5C16 8.29086 14.2091 6.5 12 6.5C9.79086 6.5 8 8.29086 8 10.5V13" stroke="currentColor"></path><path d="M13.5 11V10.5C13.5 9.67157 12.8284 9 12 9C11.1716 9 10.5 9.67157 10.5 10.5V14M13.5 13.5V15" stroke="currentColor"></path><path d="M12 19V19.01" stroke="currentColor"></path></svg>