<svg xmlns="http://www.w3.org/2000/svg" width="24" height="24" viewBox="0 0 24 24" fill="none" stroke-width="1.5" stroke-linecap="round" stroke-linejoin="round" color="currentColor"><path d="M12 8.99988C8.41013 8.99988 5.49998 11.91 5.49998 15.4999C5.49998 19.0897 8.41013 21.9999 12 21.9999C15.5898 21.9999 18.5 19.0897 18.5 15.4999C18.5 11.91 15.5898 8.99988 12 8.99988Z" fill="none"></path><path d="M14.5 4.49988C14.0085 3.99418 12.7002 1.99988 12 1.99988M9.49999 4.49988C9.99152 3.99418 11.2998 1.99988 12 1.99988M12 1.99988L12 6.49988" fill="none"></path><path d="M10.4375 18.1667L10.4375 12.8333M12 12.8333V11.5M12 19.5V18.1667M10.4375 15.5H13.5625M13.5625 15.5C14.0803 15.5 14.5 15.9477 14.5 16.5V17.1667C14.5 17.719 14.0803 18.1667 13.5625 18.1667H9.49999M13.5625 15.5C14.0803 15.5 14.5 15.0523 14.5 14.5V13.8333C14.5 13.281 14.0803 12.8333 13.5625 12.8333H9.49999" fill="none"></path></svg>