<svg xmlns="http://www.w3.org/2000/svg" width="24" height="24" viewBox="0 0 24 24" fill="none"><path d="M20.5 11.9998C20.5 7.3054 16.6944 3.49982 12 3.49982C7.30558 3.49982 3.5 7.3054 3.5 11.9998C3.5 16.6942 7.30558 20.4998 12 20.4998C16.6944 20.4998 20.5 16.6942 20.5 11.9998Z" stroke="currentColor" stroke-width="1.5" /><path d="M12 2V5" stroke="currentColor" stroke-linecap="round" stroke-width="1.5" /><path d="M22 12L19 12" stroke="currentColor" stroke-linecap="round" stroke-width="1.5" /><path d="M12 19L12 22" stroke="currentColor" stroke-linecap="round" stroke-width="1.5" /><path d="M5 12H2" stroke="currentColor" stroke-linecap="round" stroke-width="1.5" /><path d="M10.4375 14.6667L10.4375 9.33333M12 9.33333V8M12 16V14.6667M10.4375 12H13.5625M13.5625 12C14.0803 12 14.5 12.4477 14.5 13V13.6667C14.5 14.219 14.0803 14.6667 13.5625 14.6667H9.5M13.5625 12C14.0803 12 14.5 11.5523 14.5 11V10.3333C14.5 9.78105 14.0803 9.33333 13.5625 9.33333H9.5" stroke="currentColor" stroke-linecap="round" stroke-linejoin="round" stroke-width="1.5" /></svg>