<svg xmlns="http://www.w3.org/2000/svg" width="24" height="24" viewBox="0 0 24 24" fill="none" stroke-width="1.5" stroke-linecap="round" stroke-linejoin="round" color="currentColor"><path d="M2.5 12C2.5 7.52166 2.5 5.28249 3.89124 3.89124C5.28249 2.5 7.52166 2.5 12 2.5C16.4783 2.5 18.7175 2.5 20.1088 3.89124C21.5 5.28249 21.5 7.52166 21.5 12C21.5 16.4783 21.5 18.7175 20.1088 20.1088C18.7175 21.5 16.4783 21.5 12 21.5C7.52166 21.5 5.28249 21.5 3.89124 20.1088C2.5 18.7175 2.5 16.4783 2.5 12Z" stroke="currentColor"></path><path d="M9.5 16L9.5 8" stroke="currentColor"></path><path d="M11 8V6M13.5 8V6" stroke="currentColor"></path><path d="M11 18V16M13.5 18V16" stroke="currentColor"></path><path d="M9.5 12L14.5 12C15.3284 12 16 12.6716 16 13.5V14.5C16 15.3284 15.3284 16 14.5 16H8" stroke="currentColor"></path><path d="M8 8L14.5 8C15.3284 8 16 8.67157 16 9.5V10.5C16 11.3284 15.3284 12 14.5 12H9.5" stroke="currentColor"></path></svg>