<svg xmlns="http://www.w3.org/2000/svg" width="24" height="24" viewBox="0 0 24 24" fill="none"><ellipse cx="12" cy="13" rx="10" ry="5" stroke="currentColor" stroke-linecap="round" stroke-linejoin="round" stroke-width="1.5" /><path d="M18.6017 12C17.6407 13.1652 15.0478 14 12 14C8.95216 14 6.35927 13.1652 5.39832 12" stroke="currentColor" stroke-linecap="round" stroke-linejoin="round" stroke-width="1.5" /><path d="M10.063 13.5C10.0219 13.3402 10 13.1726 10 13C10 11.8954 10.8954 11 12 11C13.1046 11 14 11.8954 14 13C14 13.1726 13.9781 13.3402 13.937 13.5" stroke="currentColor" stroke-linecap="round" stroke-linejoin="round" stroke-width="1.5" /><path d="M6 4L9 13.5M7 20L9 18" stroke="currentColor" stroke-linecap="round" stroke-linejoin="round" stroke-width="1.5" /><path d="M17 6L15 13.5M17 20L15 18" stroke="currentColor" stroke-linecap="round" stroke-linejoin="round" stroke-width="1.5" /><path d="M12 2V11M12 22V18" stroke="currentColor" stroke-linecap="round" stroke-linejoin="round" stroke-width="1.5" /></svg>