<svg xmlns="http://www.w3.org/2000/svg" width="24" height="24" viewBox="0 0 24 24" fill="none" stroke-width="1.5" stroke-linecap="round" stroke-linejoin="round" color="currentColor"><ellipse cx="12" cy="13" rx="10" ry="5" stroke="currentColor"></ellipse><path d="M18.6018 12C17.6409 13.1652 15.048 14 12.0001 14C8.95228 14 6.35939 13.1652 5.39844 12" stroke="currentColor"></path><path d="M10.063 13.5C10.0219 13.3402 10 13.1726 10 13C10 11.8954 10.8954 11 12 11C13.1046 11 14 11.8954 14 13C14 13.1726 13.9781 13.3402 13.937 13.5" stroke="currentColor"></path><path d="M6 4L9 13.5M7 20L9 18" stroke="currentColor"></path><path d="M17 6L15 13.5M17 20L15 18" stroke="currentColor"></path><path d="M12 2V11M12 22V18" stroke="currentColor"></path></svg>