<svg xmlns="http://www.w3.org/2000/svg" width="24" height="24" viewBox="0 0 24 24" fill="none"><path d="M15.365 9.72752C15.8998 10 16.5999 10 18 10C19.4001 10 20.1002 10 20.635 9.72752C21.1054 9.48783 21.4878 9.10538 21.7275 8.63498C22 8.1002 22 7.40013 22 6C22 4.59987 22 3.8998 21.7275 3.36502C21.4878 2.89462 21.1054 2.51217 20.635 2.27248C20.1002 2 19.4001 2 18 2C16.5999 2 15.8998 2 15.365 2.27248C14.8946 2.51217 14.5122 2.89462 14.2725 3.36502C14 3.8998 14 4.59987 14 6C14 7.40013 14 8.1002 14.2725 8.63498C14.5122 9.10538 14.8946 9.48783 15.365 9.72752Z" stroke="currentColor" stroke-linecap="round" stroke-linejoin="round" stroke-width="1.5" /><path d="M10 14V10C10 8.59987 10 7.8998 9.72752 7.36502C9.48783 6.89462 9.10538 6.51217 8.63498 6.27248C8.1002 6 7.40013 6 6 6C4.59987 6 3.8998 6 3.36502 6.27248C2.89462 6.51217 2.51217 6.89462 2.27248 7.36502C2 7.8998 2 8.59987 2 10V14H10Z" stroke="currentColor" stroke-linecap="round" stroke-linejoin="round" stroke-width="1.5" /><path d="M10 14H2V17C2 19.357 2 20.5355 2.73223 21.2678C3.46447 22 4.64298 22 7 22H10V14Z" stroke="currentColor" stroke-linecap="round" stroke-linejoin="round" stroke-width="1.5" /><path d="M14 14H10V22H14C15.4001 22 16.1002 22 16.635 21.7275C17.1054 21.4878 17.4878 21.1054 17.7275 20.635C18 20.1002 18 19.4001 18 18C18 16.5999 18 15.8998 17.7275 15.365C17.4878 14.8946 17.1054 14.5122 16.635 14.2725C16.1002 14 15.4001 14 14 14Z" stroke="currentColor" stroke-linecap="round" stroke-linejoin="round" stroke-width="1.5" /></svg>