<svg xmlns="http://www.w3.org/2000/svg" width="24" height="24" viewBox="0 0 24 24" fill="none" stroke-width="1.5" stroke-linecap="round" stroke-linejoin="round" color="currentColor"><path d="M15.4923 22.082C13.9123 22.082 12.7123 20.282 11.9923 18.802C11.2723 20.272 10.0723 22.082 8.49231 22.082C6.06231 22.082 3.24231 19.212 3.24231 17.332C3.24231 16.132 3.90231 15.312 4.72231 14.742C3.17231 14.142 2.15231 12.8721 1.76231 10.9821C1.32231 8.76206 0.762308 4.81204 2.02231 3.28204C2.40231 2.82204 2.91231 2.58203 3.50231 2.58203C6.95231 2.58203 10.4723 7.76202 12.0023 10.322C13.5323 7.77202 17.0523 2.58203 20.5023 2.58203C21.0923 2.58203 21.6023 2.82204 21.9823 3.28204C23.2423 4.81204 22.6823 8.76206 22.2423 10.9821C21.8523 12.8721 20.8323 14.142 19.2823 14.742C20.1023 15.302 20.7623 16.132 20.7623 17.332C20.7623 19.212 17.9423 22.082 15.5123 22.082H15.4923ZM11.9923 16.082C12.3123 16.082 12.6023 16.292 12.7023 16.592C13.2423 18.202 14.5023 20.572 15.4923 20.572C17.1423 20.572 19.2423 18.372 19.2423 17.322C19.2423 15.542 15.9323 15.072 15.9023 15.062C15.4923 15.012 15.2023 14.6421 15.2523 14.2321C15.3023 13.8221 15.6623 13.532 16.0823 13.572C18.7623 13.872 20.2923 12.922 20.7623 10.662C21.3823 7.53205 21.4123 4.94204 20.8123 4.21204C20.7223 4.10204 20.6323 4.06201 20.4923 4.06201C17.7823 4.06201 14.2923 9.14203 12.6623 12.142C12.5323 12.382 12.2723 12.5421 12.0023 12.5421C11.7323 12.5421 11.4723 12.402 11.3423 12.162L11.3323 12.142C9.70231 9.14203 6.21231 4.06201 3.50231 4.06201C3.36231 4.06201 3.27231 4.10204 3.18231 4.21204C2.59231 4.94204 2.61231 7.53205 3.23231 10.662C3.70231 12.912 5.23231 13.862 7.91231 13.562C8.33231 13.522 8.69231 13.812 8.74231 14.222C8.79231 14.632 8.50231 15.002 8.09231 15.052C8.06231 15.052 4.75231 15.532 4.75231 17.312C4.75231 18.362 6.85231 20.562 8.50231 20.562C9.49231 20.562 10.7523 18.182 11.2923 16.582C11.3923 16.272 11.6823 16.072 12.0023 16.072L11.9923 16.082Z" fill="currentColor"></path></svg>