<svg xmlns="http://www.w3.org/2000/svg" width="24" height="24" viewBox="0 0 24 24" fill="none"><path d="M9.9975 11.9989L13.4163 8.58014C14.1536 7.84283 14.5223 7.47417 14.4976 7.02788C14.4729 6.58159 14.0653 6.25542 13.2501 5.60308C11.8375 4.47274 11.1312 3.90757 10.5644 4.17997C9.9975 4.45238 9.9975 5.35568 9.9975 7.16228V11.9989ZM9.9975 11.9989L9.99611 12.0003M9.9975 11.9989V12.0017M9.99611 12.0003L4.99609 17.0003M9.99611 12.0003L9.9975 12.0017M9.99611 12.0003L4.99609 7.0003M9.9975 12.0017V16.8384C9.9975 18.645 9.9975 19.5483 10.5644 19.8207C11.1312 20.0931 11.8375 19.5279 13.2501 18.3976C14.0653 17.7452 14.4729 17.419 14.4976 16.9728C14.5223 16.5265 14.1536 16.1578 13.4163 15.4205L9.9975 12.0017Z" stroke="currentColor" stroke-linecap="round" stroke-linejoin="round" stroke-width="1.5" /><path d="M18.1314 9.49C18.698 10.2006 19.0057 11.0829 19.0039 11.9918C19.0021 12.9006 18.6908 13.7817 18.1214 14.49M14.9961 11.99L14.9961 12" stroke="currentColor" stroke-linecap="round" stroke-linejoin="round" stroke-width="1.5" /></svg>