<svg xmlns="http://www.w3.org/2000/svg" width="24" height="24" viewBox="0 0 24 24" fill="none"><path d="M3 3L21 21" stroke="currentColor" stroke-linecap="round" stroke-linejoin="round" stroke-width="1.5" /><path d="M15.2686 9.48464C15.455 9.30715 15.651 9.12049 15.8607 8.92079C16.625 8.19283 17.0072 7.82886 16.9902 7.37818C16.9733 6.9275 16.5649 6.59325 15.748 5.92475L15.2686 5.53242C13.8533 4.37412 13.1456 3.79497 12.5738 4.0659C12.0104 4.33285 12.0021 5.2245 12.002 7" stroke="currentColor" stroke-linecap="round" stroke-linejoin="round" stroke-width="1.5" /><path d="M12.0014 12.1221V12.5956M12.0014 12.5956L7 17.3588M12.0014 12.5956V17.6377C12.0014 19.4666 12.0014 20.381 12.5732 20.652C13.1451 20.9229 13.8527 20.3437 15.2681 19.1854L15.7475 18.7931C16.5643 18.1246 16.9728 17.7903 16.9897 17.3397" stroke="currentColor" stroke-linecap="round" stroke-linejoin="round" stroke-width="1.5" /></svg>