<svg xmlns="http://www.w3.org/2000/svg" width="24" height="24" viewBox="0 0 24 24" fill="none" stroke-width="1.5" stroke-linecap="round" stroke-linejoin="round" color="currentColor"><path d="M3 10C3 6.22876 3 4.34315 4.17157 3.17157C5.34315 2 7.22876 2 11 2H13C16.7712 2 18.6569 2 19.8284 3.17157C21 4.34315 21 6.22876 21 10V16H3V10Z" stroke="currentColor"></path><path d="M2 16H22" stroke="currentColor"></path><path d="M4 22L7 16" stroke="currentColor"></path><path d="M20 22L17 16" stroke="currentColor"></path><path d="M13 9H11" stroke="currentColor"></path><path d="M8 11L8 7L7 8" stroke="currentColor"></path><path d="M17 11L17 7L16 8" stroke="currentColor"></path><path d="M12 20L12 16" stroke="currentColor"></path></svg>