<svg xmlns="http://www.w3.org/2000/svg" width="24" height="24" viewBox="0 0 24 24" fill="none" stroke-width="1.5" stroke-linecap="round" stroke-linejoin="round" color="currentColor"><path d="M3 16H21" stroke="currentColor"></path><path d="M2 22L22 22" stroke="currentColor"></path><path d="M3 9H21" stroke="currentColor"></path><path d="M3 22V8C3 5.17157 3 3.75736 3.93037 2.87868C4.86073 2 6.35814 2 9.35294 2H14.6471C17.6419 2 19.1393 2 20.0696 2.87868C21 3.75736 21 5.17157 21 8V22" stroke="currentColor"></path><path d="M11 19H13" stroke="currentColor"></path><path d="M10 9L9 5" stroke="currentColor"></path><path d="M6.5 9V5" stroke="currentColor"></path><path d="M14 16V12" stroke="currentColor"></path><path d="M12 9V5" stroke="currentColor"></path><path d="M16 16L17 12" stroke="currentColor"></path><path d="M19 16V12" stroke="currentColor"></path></svg>