<svg xmlns="http://www.w3.org/2000/svg" width="24" height="24" viewBox="0 0 24 24" fill="none"><path d="M17 7.5V13" stroke="currentColor" stroke-linecap="round" stroke-linejoin="round" stroke-width="1.5" /><path d="M19.5 18C19.5 18 18.5 18.7628 18.5 20C18.5 21.2372 19.5 22 19.5 22" stroke="currentColor" stroke-linecap="round" stroke-linejoin="round" stroke-width="1.5" /><path d="M14 4.99998C14 4.99998 16.2095 2.00001 17 2C17.7906 1.99999 20 5 20 5" stroke="currentColor" stroke-linecap="round" stroke-linejoin="round" stroke-width="1.5" /><path d="M14 9.99998C14 9.99998 16.2095 7.00001 17 7C17.7906 6.99999 20 10 20 10" stroke="currentColor" stroke-linecap="round" stroke-linejoin="round" stroke-width="1.5" /><path d="M20 15V18H6C4.89543 18 4 18.8954 4 20M12 2H10C7.17157 2 5.75736 2 4.87868 2.87868C4 3.75736 4 5.17157 4 8V20M4 20C4 21.1046 4.89543 22 6 22H20" stroke="currentColor" stroke-linecap="round" stroke-linejoin="round" stroke-width="1.5" /></svg>