<svg xmlns="http://www.w3.org/2000/svg" width="24" height="24" viewBox="0 0 24 24" fill="none"><path d="M5.33333 3.00001C7.79379 2.99657 10.1685 3.88709 12 5.5V21C10.1685 19.3871 7.79379 18.4966 5.33333 18.5C3.77132 18.5 2.99032 18.5 2.64526 18.2792C2.4381 18.1466 2.35346 18.0619 2.22086 17.8547C2 17.5097 2 16.8941 2 15.6629V6.40322C2 4.97543 2 4.26154 2.54874 3.68286C3.09748 3.10418 3.65923 3.07432 4.78272 3.0146C4.965 3.00491 5.14858 3.00001 5.33333 3.00001Z" stroke="currentColor" stroke-linecap="round" stroke-linejoin="round" stroke-width="1.5" /><path d="M12 21V5.5C13.8315 3.88709 16.2062 2.99657 18.6667 3.00001C18.8514 3.00001 19.035 3.00491 19.2173 3.0146C20.3408 3.07432 20.9025 3.10418 21.4513 3.68286C22 4.26154 22 4.97543 22 6.40322V11.5" stroke="currentColor" stroke-linecap="round" stroke-linejoin="round" stroke-width="1.5" /><path d="M21.6887 14.9339L21.0661 14.3113C20.651 13.8962 19.978 13.8962 19.5629 14.3113L16.2141 17.6601C15.769 18.1052 15.4656 18.6722 15.3421 19.2895L15 21L16.7105 20.6579C17.3278 20.5344 17.8948 20.231 18.3399 19.7859L21.6887 16.4371C22.1038 16.022 22.1038 15.349 21.6887 14.9339Z" stroke="currentColor" stroke-linecap="round" stroke-linejoin="round" stroke-width="1.5" /></svg>