<svg xmlns="http://www.w3.org/2000/svg" width="24" height="24" viewBox="0 0 24 24" fill="none"><path d="M19.543 2H6.5C5.11929 2 4 3.11929 4 4.5C4 4.5454 4.00121 4.59053 4.0036 4.63533M6.5 4.5H16C16.9428 4.5 17.4142 4.5 17.7071 4.79289C18 5.08579 18 5.55719 18 6.5M4.0036 4.63533C4.0739 5.95312 5.16469 7 6.5 7H16C17.8856 7 18.8284 7 19.4142 7.58579C20 8.17157 20 9.11438 20 11L20 18C20 19.8856 20 20.8284 19.4142 21.4142C18.8284 22 17.8856 22 16 22H10.0036C7.17517 22 5.76096 22 4.88228 21.1213C4.0036 20.2426 4.0036 18.8284 4.0036 16V4.63533ZM4.0036 4.63533V4.50127" stroke="currentColor" stroke-linecap="round" stroke-linejoin="round" stroke-width="1.5" /><path d="M15.5 12.5H8.5M12.5 16.5H8.5" stroke="currentColor" stroke-linecap="round" stroke-linejoin="round" stroke-width="1.5" /></svg>