<svg xmlns="http://www.w3.org/2000/svg" width="24" height="24" viewBox="0 0 24 24" fill="none"><path d="M18.5 17.5L21 20M19 15C19 16.6569 17.6569 18 16 18C14.3431 18 13 16.6569 13 15C13 13.3431 14.3431 12 16 12C17.6569 12 19 13.3431 19 15Z" stroke="currentColor" stroke-linecap="round" stroke-linejoin="round" stroke-width="1.5" /><path d="M17 22H5C3.89543 22 3 21.1046 3 20M10 18H5C3.89543 18 3 18.8954 3 20M3 20V8C3 5.17157 3 3.75736 3.87868 2.87868C4.75736 2 6.17157 2 9 2H15C16.8856 2 17.8284 2 18.4142 2.58579C19 3.17157 19 4.11438 19 6V9" stroke="currentColor" stroke-linecap="round" stroke-linejoin="round" stroke-width="1.5" /></svg>