<svg xmlns="http://www.w3.org/2000/svg" width="24" height="24" viewBox="0 0 24 24" fill="none"><path d="M12 8V6C12 4.89543 11.1046 4 10 4H9" stroke="currentColor" stroke-linecap="round" stroke-linejoin="round" stroke-width="1.5" /><path d="M2 14H4" stroke="currentColor" stroke-linecap="round" stroke-linejoin="round" stroke-width="1.5" /><path d="M20 14H22" stroke="currentColor" stroke-linecap="round" stroke-linejoin="round" stroke-width="1.5" /><path d="M9 13V15" stroke="currentColor" stroke-linecap="round" stroke-linejoin="round" stroke-width="1.5" /><path d="M2 2L22 22" stroke="currentColor" stroke-linecap="round" stroke-linejoin="round" stroke-width="1.5" /><path d="M8 8.01758C6.44655 8.06438 5.51998 8.23763 4.87868 8.87893C4 9.75761 4 11.1718 4 14.0003C4 16.8287 4 18.2429 4.87868 19.1216C5.75736 20.0003 7.17157 20.0003 10 20.0003H14C16.7018 20.0003 18.1132 20.0003 19 19.2344" stroke="currentColor" stroke-linecap="round" stroke-width="1.5" /><path d="M12 8H14C16.8284 8 18.2426 8 19.1213 8.87868C20 9.75736 20 11.1716 20 14C20 14.7641 20 15.425 19.9827 16" stroke="currentColor" stroke-linecap="round" stroke-width="1.5" /></svg>