<svg xmlns="http://www.w3.org/2000/svg" width="24" height="24" viewBox="0 0 24 24" fill="none"><path d="M15 11.75V13.75" stroke="currentColor" stroke-linecap="round" stroke-linejoin="round" stroke-width="1.5" /><path d="M20 13.226V12.7144C20 9.90275 20 8.49693 19.1213 7.62346C18.2426 6.75 16.8284 6.75 14 6.75H10C7.17157 6.75 5.75736 6.75 4.87868 7.62346C4 8.49693 4 9.90275 4 12.7144V14.951C4 15.6439 4 15.9903 4.05764 16.2784C4.29436 17.4614 5.22466 18.3861 6.41473 18.6215C6.70453 18.6788 7.05302 18.6788 7.75 18.6788H7.82843C7.98779 18.6788 8.06748 18.6788 8.13435 18.6878C8.58001 18.7478 8.93051 19.0963 8.99093 19.5393C9 19.6058 9 19.685 9 19.8434C9 20.1851 9 20.3559 9.02036 20.4547C9.16244 21.1439 9.96003 21.4723 10.5508 21.0848C10.6354 21.0293 10.7569 20.9085 11 20.6669L11.9781 19.6946C12.4077 19.2676 12.6224 19.0541 12.8818 18.9155C12.9998 18.8526 13.1238 18.8015 13.252 18.7631C13.534 18.6788 13.8425 18.6788 14.4597 18.6788C16.8278 18.6788 18.0119 18.6788 18.8171 18.0695C19.0319 17.907 19.2236 17.7164 19.3871 17.5029C20 16.7025 20 15.5437 20 13.226Z" stroke="currentColor" stroke-linejoin="round" stroke-width="1.5" /><path d="M9 11.75V13.75" stroke="currentColor" stroke-linecap="round" stroke-linejoin="round" stroke-width="1.5" /><path d="M7 2.75H8C8.92997 2.75 9.39496 2.75 9.77646 2.85222C10.8117 3.12962 11.6204 3.93827 11.8978 4.97354C12 5.35504 12 5.82003 12 6.75" stroke="currentColor" stroke-linecap="round" stroke-width="1.5" /><path d="M2 12.75H4" stroke="currentColor" stroke-linecap="round" stroke-width="1.5" /><path d="M20 12.75H22" stroke="currentColor" stroke-linecap="round" stroke-width="1.5" /></svg>