<svg xmlns="http://www.w3.org/2000/svg" width="24" height="24" viewBox="0 0 24 24" fill="none"><path d="M14 6.48492V4C14 3.05719 14 2.58579 13.7071 2.29289C13.4142 2 12.9428 2 12 2C11.0572 2 10.5858 2 10.2929 2.29289C10 2.58579 10 3.05719 10 4V6.48492C10 6.80671 9.83918 7.10722 9.57143 7.28571C7.96494 8.35671 7 10.1597 7 12.0905V17C7 18.8692 7 19.8038 7.40192 20.5C7.66523 20.9561 8.04394 21.3348 8.5 21.5981C9.19615 22 10.1308 22 12 22C13.8692 22 14.8038 22 15.5 21.5981C15.9561 21.3348 16.3348 20.9561 16.5981 20.5C17 19.8038 17 18.8692 17 17V12.0905C17 10.1597 16.0351 8.35671 14.4286 7.28571C14.1608 7.10722 14 6.80671 14 6.48492Z" stroke="currentColor" stroke-linecap="round" stroke-linejoin="round" stroke-width="1.5" /><path d="M17 13H14.5C13.5654 13 13.0981 13 12.75 13.201C12.522 13.3326 12.3326 13.522 12.201 13.75C12 14.0981 12 14.5654 12 15.5C12 16.4346 12 16.9019 12.201 17.25C12.3326 17.478 12.522 17.6674 12.75 17.799C13.0981 18 13.5654 18 14.5 18H17" stroke="currentColor" stroke-linecap="round" stroke-linejoin="round" stroke-width="1.5" /></svg>