<svg xmlns="http://www.w3.org/2000/svg" width="24" height="24" viewBox="0 0 24 24" fill="none" stroke-width="1.5" stroke-linecap="round" stroke-linejoin="round" color="currentColor"><path d="M1.25 12.0625C1.25 17.9925 6.07 22.8125 12 22.8125C17.93 22.8125 22.7501 17.9925 22.7501 12.0625C22.7501 6.1325 17.93 1.3125 12 1.3125C6.07 1.3125 1.25 6.1325 1.25 12.0625ZM2.75 12.0625C2.75 6.9625 6.9 2.8125 12 2.8125C17.1 2.8125 21.2501 6.9625 21.2501 12.0625C21.2501 17.1625 17.1 21.3125 12 21.3125C6.9 21.3125 2.75 17.1625 2.75 12.0625ZM14 6.07251C14 6.62251 14.4501 7.07251 15.0001 7.07251V7.08252C15.5501 7.08252 16.0001 6.63251 16.0001 6.07251C16.0001 5.51251 15.5501 5.07251 15.0001 5.07251C14.4501 5.07251 14 5.52251 14 6.07251ZM18 10.0725C17.45 10.0725 17 9.62251 17 9.07251C17 8.52251 17.45 8.07251 18 8.07251C18.55 8.07251 19 8.51251 19 9.07251C19 9.63251 18.55 10.0825 18 10.0825V10.0725ZM13 10.0725C13 10.6225 13.45 11.0725 14 11.0725V11.0825C14.55 11.0825 15.0001 10.6325 15.0001 10.0725C15.0001 9.51251 14.55 9.07251 14 9.07251C13.45 9.07251 13 9.52251 13 10.0725Z" fill="currentColor" fill-rule="evenodd"></path></svg>