<svg xmlns="http://www.w3.org/2000/svg" width="24" height="24" viewBox="0 0 24 24" fill="none"><path d="M10.5 21.5981C9.80385 22 8.86923 22 7 22C5.13077 22 4.19615 22 3.5 21.5981C3.04394 21.3348 2.66523 20.9561 2.40192 20.5C2 19.8038 2 18.8692 2 17C2 15.1308 2 14.1962 2.40192 13.5C2.66523 13.0439 3.04394 12.6652 3.5 12.4019C4.19615 12 5.13077 12 7 12C8.86923 12 9.80385 12 10.5 12.4019C10.9561 12.6652 11.3348 13.0439 11.5981 13.5C12 14.1962 12 15.1308 12 17C12 18.8692 12 19.8038 11.5981 20.5C11.3348 20.9561 10.9561 21.3348 10.5 21.5981Z" stroke="currentColor" stroke-linecap="round" stroke-linejoin="round" stroke-width="1.5" /><path d="M20.5 21.5981C19.8038 22 18.8692 22 17 22C15.1308 22 14.1962 22 13.5 21.5981C13.0439 21.3348 12.6652 20.9561 12.4019 20.5C12 19.8038 12 18.8692 12 17C12 15.1308 12 14.1962 12.4019 13.5C12.6652 13.0439 13.0439 12.6652 13.5 12.4019C14.1962 12 15.1308 12 17 12C18.8692 12 19.8038 12 20.5 12.4019C20.9561 12.6652 21.3348 13.0439 21.5981 13.5C22 14.1962 22 15.1308 22 17C22 18.8692 22 19.8038 21.5981 20.5C21.3348 20.9561 20.9561 21.3348 20.5 21.5981Z" stroke="currentColor" stroke-linecap="round" stroke-linejoin="round" stroke-width="1.5" /><path d="M15.5 11.5981C14.8038 12 13.8692 12 12 12C10.1308 12 9.19615 12 8.5 11.5981C8.04394 11.3348 7.66523 10.9561 7.40192 10.5C7 9.80385 7 8.86923 7 7C7 5.13077 7 4.19615 7.40192 3.5C7.66523 3.04394 8.04394 2.66523 8.5 2.40192C9.19615 2 10.1308 2 12 2C13.8692 2 14.8038 2 15.5 2.40192C15.9561 2.66523 16.3348 3.04394 16.5981 3.5C17 4.19615 17 5.13077 17 7C17 8.86923 17 9.80385 16.5981 10.5C16.3348 10.9561 15.9561 11.3348 15.5 11.5981Z" stroke="currentColor" stroke-linecap="round" stroke-linejoin="round" stroke-width="1.5" /><path d="M12 2V5" stroke="currentColor" stroke-linecap="round" stroke-linejoin="round" stroke-width="1.5" /><path d="M7 12V15" stroke="currentColor" stroke-linecap="round" stroke-linejoin="round" stroke-width="1.5" /><path d="M17 12V15" stroke="currentColor" stroke-linecap="round" stroke-linejoin="round" stroke-width="1.5" /></svg>