<svg xmlns="http://www.w3.org/2000/svg" width="24" height="24" viewBox="0 0 24 24" fill="none"><path d="M14.5 12.0001C14.5 13.3808 13.3807 14.5001 12 14.5001M14.5 12.0001C14.5 10.6193 13.3807 9.50006 12 9.50006M14.5 12.0001H16M12 14.5001C10.6193 14.5001 9.5 13.3808 9.5 12.0001M12 14.5001V16.0001M9.5 12.0001C9.5 10.6193 10.6193 9.50006 12 9.50006M9.5 12.0001H8M12 9.50006V8.00006M13.7678 10.2323L14.8284 9.17163M10.2322 13.7678L9.17157 14.8285M13.7678 13.7678L14.8284 14.8285M10.2322 10.2323L9.17157 9.17163" stroke="currentColor" stroke-linecap="round" stroke-linejoin="round" stroke-width="1.5" /><path d="M4 16.5001C4 17.9181 4.98379 19.1063 6.30605 19.4194C6.68225 19.5085 6.99009 19.8196 7.09676 20.1912C7.39661 21.2358 8.35905 22.0001 9.5 22.0001C10.8807 22.0001 12 20.8808 12 19.5001C12 20.8808 13.1193 22 14.5 22C15.641 22 16.6034 21.2357 16.9032 20.1911C17.0099 19.8195 17.3177 19.5084 17.6939 19.4193C19.0162 19.1062 20 17.918 20 16.5C20 16.287 19.9778 16.0792 19.9356 15.8788C19.8351 15.4013 20.0842 14.8405 20.506 14.5951C21.3994 14.0756 22 13.1079 22 12C22 10.892 21.3994 9.92438 20.506 9.40481C20.0842 9.15949 19.8351 8.59867 19.9356 8.12116C19.9778 7.92074 20 7.71294 20 7.49997C20 6.08198 19.0162 4.89376 17.6939 4.58063C17.3178 4.49155 17.0099 4.18042 16.9032 3.80883C16.6034 2.76428 15.641 1.99997 14.5 1.99997C13.1193 1.99997 12 3.11935 12 4.50006C12 3.11935 10.8807 2.00006 9.5 2.00006C8.35905 2.00006 7.39661 2.76437 7.09676 3.80892C6.99009 4.18051 6.68225 4.49164 6.30606 4.58073C4.98379 4.89386 4 6.08207 4 7.50006C4 7.71304 4.02219 7.92083 4.06439 8.12125C4.16493 8.59876 3.9158 9.15958 3.49397 9.40491C2.6006 9.92447 2 10.8921 2 12.0001C2 13.108 2.6006 14.0757 3.49397 14.5952C3.9158 14.8405 4.16493 15.4014 4.06439 15.8789C4.02219 16.0793 4 16.2871 4 16.5001Z" stroke="currentColor" stroke-linecap="round" stroke-linejoin="round" stroke-width="1.5" /></svg>