<svg xmlns="http://www.w3.org/2000/svg" width="24" height="24" viewBox="0 0 24 24" fill="none" stroke-width="1.5" stroke-linecap="round" stroke-linejoin="round" color="currentColor"><path d="M9.79688 1.57227C7.72688 1.57227 6.04688 3.25227 6.04688 5.32227C6.04688 5.46227 5.93688 5.57227 5.79688 5.57227C3.72688 5.57227 2.04688 7.25227 2.04688 9.32227C2.04688 10.5523 2.63688 11.6423 3.54688 12.3223C2.63688 13.0023 2.04688 14.0923 2.04688 15.3223C2.04688 17.3923 3.72688 19.0723 5.79688 19.0723C5.93688 19.0723 6.04688 19.1823 6.04688 19.3223C6.04688 21.3923 7.72688 23.0723 9.79688 23.0723C11.0269 23.0723 12.1169 22.4823 12.7969 21.5723C13.4769 22.4823 14.5669 23.0723 15.7969 23.0723C17.8669 23.0723 19.5469 21.3923 19.5469 19.3223C19.5469 19.1823 19.6569 19.0723 19.7969 19.0723C21.8669 19.0723 23.5469 17.3923 23.5469 15.3223C23.5469 14.0923 22.9569 13.0023 22.0469 12.3223C22.9569 11.6423 23.5469 10.5523 23.5469 9.32227C23.5469 7.25227 21.8669 5.57227 19.7969 5.57227C19.6569 5.57227 19.5469 5.46227 19.5469 5.32227C19.5469 3.25227 17.8669 1.57227 15.7969 1.57227C14.5669 1.57227 13.4769 2.16227 12.7969 3.07227C12.1169 2.16227 11.0269 1.57227 9.79688 1.57227ZM12.0469 5.32227V19.3223C12.0469 20.5623 11.0369 21.5723 9.79688 21.5723C8.55687 21.5723 7.54688 20.5623 7.54688 19.3223C7.54688 18.3523 6.76688 17.5723 5.79688 17.5723C4.55687 17.5723 3.54688 16.5623 3.54688 15.3223C3.54688 14.0823 4.55687 13.0723 5.79688 13.0723C6.20687 13.0723 6.54688 12.7323 6.54688 12.3223C6.54688 11.9123 6.20687 11.5723 5.79688 11.5723C4.55687 11.5723 3.54688 10.5623 3.54688 9.32227C3.54688 8.08227 4.55687 7.07227 5.79688 7.07227C6.76688 7.07227 7.54688 6.29227 7.54688 5.32227C7.54688 4.08227 8.55687 3.07227 9.79688 3.07227C11.0369 3.07227 12.0469 4.08227 12.0469 5.32227ZM13.5469 19.3223V5.32227C13.5469 4.08227 14.5569 3.07227 15.7969 3.07227C17.0369 3.07227 18.0469 4.08227 18.0469 5.32227C18.0469 6.29227 18.8269 7.07227 19.7969 7.07227C21.0369 7.07227 22.0469 8.08227 22.0469 9.32227C22.0469 10.5623 21.0369 11.5723 19.7969 11.5723C19.3869 11.5723 19.0469 11.9123 19.0469 12.3223C19.0469 12.7323 19.3869 13.0723 19.7969 13.0723C21.0369 13.0723 22.0469 14.0823 22.0469 15.3223C22.0469 16.5623 21.0369 17.5723 19.7969 17.5723C18.8269 17.5723 18.0469 18.3523 18.0469 19.3223C18.0469 20.5623 17.0369 21.5723 15.7969 21.5723C14.5569 21.5723 13.5469 20.5623 13.5469 19.3223Z" fill="currentColor"></path></svg>