<svg xmlns="http://www.w3.org/2000/svg" width="24" height="24" viewBox="0 0 24 24" fill="none"><path d="M15.7857 8.5C16.6193 9.26495 18.1664 12.7366 16.5 15C18 15.5 19.5 14.5 20 13.0883C20.7864 13.8991 21.5 15.7403 21.5 16.9117C21.5 19.446 19.2614 21.5 16.5 21.5C13.7386 21.5 11.5 19.446 11.5 16.9117C11.5 15.3421 12.145 14.0517 13.1664 13.0883C14.1893 12.1256 15.7857 10.8229 15.7857 8.5Z" stroke="currentColor" stroke-linecap="round" stroke-linejoin="round" stroke-width="1.5" /><path d="M20.4991 9.5C20.49 6.3857 20.3915 4.73467 19.3284 3.67157C18.1569 2.5 16.2712 2.5 12.5 2.5H10.5C6.72876 2.5 4.84315 2.5 3.67157 3.67157C2.5 4.84315 2.5 6.72876 2.5 10.5V12.5C2.5 16.2712 2.5 18.1569 3.67157 19.3284C4.61466 20.2715 6.02043 20.4554 8.5 20.4913" stroke="currentColor" stroke-linecap="round" stroke-linejoin="round" stroke-width="1.5" /><path d="M11.5 8.5H2.5H7V3M8.5 14.5H2.5H7V20M16 3V5.5" stroke="currentColor" stroke-linecap="round" stroke-linejoin="round" stroke-width="1.5" /></svg>