<svg xmlns="http://www.w3.org/2000/svg" width="24" height="24" viewBox="0 0 24 24" fill="none"><path d="M8.5 7V6.5C8.5 5.09554 8.5 4.39331 8.83706 3.88886C8.98298 3.67048 9.17048 3.48298 9.38886 3.33706C9.89331 3 10.5955 3 12 3C13.4045 3 14.1067 3 14.6111 3.33706C14.8295 3.48298 15.017 3.67048 15.1629 3.88886C15.5 4.39331 15.5 5.09554 15.5 6.5V7" stroke="currentColor" stroke-linecap="round" stroke-linejoin="round" stroke-width="1.5" /><path d="M22 15.0009V13.001C22 10.1725 22 8.75834 21.1213 7.87966C20.2426 7.00098 18.8284 7.00098 16 7.00098H8C5.17157 7.00098 3.75736 7.00098 2.87868 7.87966C2 8.75834 2 10.1725 2 13.001V15.0009C2 17.8293 2 19.2435 2.87868 20.1222C3.75736 21.0009 5.17157 21.0009 8 21.0009H16C18.8284 21.0009 20.2426 21.0009 21.1213 20.1222C22 19.2435 22 17.8293 22 15.0009Z" stroke="currentColor" stroke-linecap="round" stroke-linejoin="round" stroke-width="1.5" /><path d="M11.9925 11V17M15 13.9925L9 13.9925" stroke="currentColor" stroke-linecap="round" stroke-linejoin="round" stroke-width="1.5" /></svg>