<svg xmlns="http://www.w3.org/2000/svg" width="24" height="24" viewBox="0 0 24 24" fill="none"><path d="M12 6C14.0336 6 15.9443 6.09109 17.6038 6.25101C19.4956 6.43332 20.4415 6.52447 21.2207 7.38245C22 8.24042 22 9.31574 22 11.4664V11.7332C22 12.8632 22 13.4281 21.6194 13.9533C21.2387 14.4784 20.8018 14.6215 19.9279 14.9077C17.8599 15.5848 15.0699 16 12 16C8.93012 16 6.1401 15.5848 4.07213 14.9077C3.19821 14.6215 2.76125 14.4784 2.38063 13.9533C2 13.4281 2 12.8632 2 11.7332V11.4664C2 9.31574 2 8.24042 2.77927 7.38245C3.55853 6.52447 4.50444 6.43332 6.39625 6.25101C8.05567 6.09109 9.96643 6 12 6Z" stroke="currentColor" stroke-linecap="round" stroke-linejoin="round" stroke-width="1.5" /><path d="M8.5 6L8.5 5.49997C8.50001 4.09552 8.50002 3.3933 8.83708 2.88885C8.983 2.67047 9.1705 2.48297 9.38888 2.33706C9.89332 2 10.5956 2 12 2C13.4045 2 14.1067 2 14.6111 2.33706C14.8295 2.48298 15.017 2.67048 15.1629 2.88886C15.5 3.39331 15.5 4.09554 15.5 5.5V6" stroke="currentColor" stroke-linecap="round" stroke-linejoin="round" stroke-width="1.5" /><path d="M12 12.625V12.75M12.25 12.75C12.25 12.8881 12.1381 13 12 13C11.8619 13 11.75 12.8881 11.75 12.75C11.75 12.6119 11.8619 12.5 12 12.5C12.1381 12.5 12.25 12.6119 12.25 12.75Z" stroke="currentColor" stroke-linecap="round" stroke-linejoin="round" stroke-width="1.5" /><path d="M21 15V16.6731C21 18.7558 21 19.7972 20.2235 20.6545C19.4471 21.5117 18.5488 21.6008 16.7523 21.779C15.3281 21.9203 13.7124 22 12 22C10.2876 22 8.67189 21.9203 7.24773 21.779C5.45119 21.6008 4.55292 21.5117 3.77646 20.6545C3 19.7972 3 18.7558 3 16.6731V15" stroke="currentColor" stroke-linecap="round" stroke-linejoin="round" stroke-width="1.5" /></svg>