<svg xmlns="http://www.w3.org/2000/svg" width="24" height="24" viewBox="0 0 24 24" fill="none"><path d="M8.5 6.5C8.5 5.09554 8.5 4.39331 8.83706 3.88886C8.98298 3.67048 9.17048 3.48298 9.38886 3.33706C9.89331 3 10.5955 3 12 3C13.4045 3 14.1067 3 14.6111 3.33706C14.8295 3.48298 15.017 3.67048 15.1629 3.88886C15.5 4.39331 15.5 5.09554 15.5 6.5" stroke="currentColor" stroke-linecap="round" stroke-linejoin="round" stroke-width="1.5" /><path d="M22 14V13.5C22 10.2002 22 8.55025 20.9749 7.52513C19.9497 6.5 18.2998 6.5 15 6.5H9C5.70017 6.5 4.05025 6.5 3.02513 7.52513C2 8.55025 2 10.2002 2 13.5V14C2 17.2998 2 18.9497 3.02513 19.9749C4.05025 21 5.70017 21 9 21H15C18.2998 21 19.9497 21 20.9749 19.9749C22 18.9497 22 17.2998 22 14Z" stroke="currentColor" stroke-linecap="round" stroke-linejoin="round" stroke-width="1.5" /><path d="M2 10C2 10 4.63158 14 12 14C19.3684 14 22 10 22 10" stroke="currentColor" stroke-linejoin="round" stroke-width="1.5" /><path d="M12 14V16" stroke="currentColor" stroke-linecap="round" stroke-linejoin="round" stroke-width="1.5" /></svg>