<svg xmlns="http://www.w3.org/2000/svg" width="24" height="24" viewBox="0 0 24 24" fill="none"><path d="M22 20H2" stroke="currentColor" stroke-linecap="round" stroke-linejoin="round" stroke-width="1.5" /><path d="M12 20V22" stroke="currentColor" stroke-linecap="round" stroke-linejoin="round" stroke-width="1.5" /><path d="M16 20V22" stroke="currentColor" stroke-linecap="round" stroke-linejoin="round" stroke-width="1.5" /><path d="M20 20V22" stroke="currentColor" stroke-linecap="round" stroke-linejoin="round" stroke-width="1.5" /><path d="M8 20V22" stroke="currentColor" stroke-linecap="round" stroke-linejoin="round" stroke-width="1.5" /><path d="M4 20V22" stroke="currentColor" stroke-linecap="round" stroke-linejoin="round" stroke-width="1.5" /><path d="M9.5 16H14.5C16.8456 16 18.0184 16 18.8263 15.3801C19.0343 15.2205 19.2205 15.0343 19.3801 14.8263C20 14.0184 20 12.8456 20 10.5C20 8.15442 20 6.98164 19.3801 6.17372C19.2205 5.96572 19.0343 5.77954 18.8263 5.61994C18.0184 5 16.8456 5 14.5 5H9.5C7.15442 5 5.98164 5 5.17372 5.61994C4.96572 5.77954 4.77954 5.96572 4.61994 6.17372C4 6.98164 4 8.15442 4 10.5C4 12.8456 4 14.0184 4.61994 14.8263C4.77954 15.0343 4.96572 15.2205 5.17372 15.3801C5.98164 16 7.15442 16 9.5 16Z" stroke="currentColor" stroke-linecap="round" stroke-linejoin="round" stroke-width="1.5" /><path d="M15 5C15 3.58579 15 2.87868 14.5607 2.43934C14.1213 2 13.4142 2 12 2C10.5858 2 9.87868 2 9.43934 2.43934C9 2.87868 9 3.58579 9 5" stroke="currentColor" stroke-linecap="round" stroke-linejoin="round" stroke-width="1.5" /><path d="M4 10H20" stroke="currentColor" stroke-linecap="round" stroke-linejoin="round" stroke-width="1.5" /><path d="M8 9V11" stroke="currentColor" stroke-linecap="round" stroke-linejoin="round" stroke-width="1.5" /><path d="M16 9V11" stroke="currentColor" stroke-linecap="round" stroke-linejoin="round" stroke-width="1.5" /></svg>