<svg xmlns="http://www.w3.org/2000/svg" width="24" height="24" viewBox="0 0 24 24" fill="none"><path d="M21.5 12C21.5 17.2467 17.2467 21.5 12 21.5C10.3719 21.5 8.8394 21.0904 7.5 20.3687C5.63177 19.362 4.37462 20.2979 3.26592 20.4658C3.09774 20.4913 2.93024 20.4302 2.80997 20.31C2.62741 20.1274 2.59266 19.8451 2.6935 19.6074C3.12865 18.5818 3.5282 16.6382 2.98341 15C2.6698 14.057 2.5 13.0483 2.5 12C2.5 6.75329 6.75329 2.5 12 2.5C17.2467 2.5 21.5 6.75329 21.5 12Z" stroke="currentColor" stroke-linecap="round" stroke-linejoin="round" stroke-width="1.5" /><path d="M10.2367 15.1527L8.5 15.5L8.84733 13.7633C8.91788 13.4106 9.09126 13.0866 9.34563 12.8323L13.4111 8.76684C13.7668 8.41105 14.3437 8.41105 14.6995 8.76684L15.2332 9.30052C15.5889 9.65631 15.5889 10.2332 15.2332 10.5889L11.1677 14.6544C10.9134 14.9087 10.5894 15.0821 10.2367 15.1527Z" stroke="currentColor" stroke-linecap="round" stroke-linejoin="round" stroke-width="1.5" /></svg>