<svg xmlns="http://www.w3.org/2000/svg" width="24" height="24" viewBox="0 0 24 24" fill="none" stroke-width="1.5" stroke-linecap="round" stroke-linejoin="round" color="currentColor"><path d="M12.0045 12H12.0135M8.00903 12H8.018" fill="none"></path><path d="M21.448 11C21.4824 11.3286 21.5 11.6623 21.5 12C21.5 17.2467 17.2467 21.5 12 21.5C10.3719 21.5 8.8394 21.0904 7.5 20.3687C5.63177 19.362 4.37462 20.2979 3.26592 20.4658C3.09774 20.4913 2.93024 20.4302 2.80997 20.31C2.62741 20.1274 2.59266 19.8451 2.6935 19.6074C3.12865 18.5818 3.5282 16.6382 2.98341 15C2.6698 14.057 2.5 13.0483 2.5 12C2.5 6.75329 6.75329 2.5 12 2.5C12.3377 2.5 12.6714 2.51762 13 2.552" fill="none"></path><path d="M17.9693 2.52506C17.9761 2.49165 18.0239 2.49165 18.0307 2.52506C18.3852 4.25942 19.7406 5.61481 21.4749 5.9693C21.5084 5.97613 21.5084 6.02387 21.4749 6.0307C19.7406 6.38519 18.3852 7.74058 18.0307 9.47494C18.0239 9.50835 17.9761 9.50835 17.9693 9.47494C17.6148 7.74058 16.2594 6.38519 14.5251 6.0307C14.4916 6.02387 14.4916 5.97613 14.5251 5.9693C16.2594 5.61481 17.6148 4.25942 17.9693 2.52506Z" fill="none"></path></svg>