<svg xmlns="http://www.w3.org/2000/svg" width="24" height="24" viewBox="0 0 24 24" fill="none"><path d="M21.5 12C21.5 17.2467 17.2467 21.5 12 21.5C10.3719 21.5 8.8394 21.0904 7.5 20.3687C5.63177 19.362 4.37462 20.2979 3.26592 20.4658C3.09774 20.4913 2.93024 20.4302 2.80997 20.31C2.62741 20.1274 2.59266 19.8451 2.6935 19.6074C3.12865 18.5818 3.5282 16.6382 2.98341 15C2.6698 14.057 2.5 13.0483 2.5 12C2.5 6.75329 6.75329 2.5 12 2.5C17.2467 2.5 21.5 6.75329 21.5 12Z" stroke="currentColor" stroke-linecap="round" stroke-linejoin="round" stroke-width="1.5" /><path d="M12 9V7.5M8 9H16M9 16.5C11.7116 14.6923 13.8451 12.2747 14.5 9M13.5 15C11.8882 13.7106 11.0341 12.3345 10.6761 11.5" stroke="currentColor" stroke-linecap="round" stroke-linejoin="round" stroke-width="1.5" /></svg>