<svg xmlns="http://www.w3.org/2000/svg" width="24" height="24" viewBox="0 0 24 24" fill="none"><path d="M21.5 12C21.5 17.2467 17.2467 21.5 12 21.5C10.3719 21.5 8.8394 21.0904 7.5 20.3687C5.63177 19.362 4.37462 20.2979 3.26592 20.4658C3.09774 20.4913 2.93024 20.4302 2.80997 20.31C2.62741 20.1274 2.59266 19.8451 2.6935 19.6074C3.12865 18.5818 3.5282 16.6382 2.98341 15C2.6698 14.057 2.5 13.0483 2.5 12C2.5 6.75329 6.75329 2.5 12 2.5C17.2467 2.5 21.5 6.75329 21.5 12Z" stroke="currentColor" stroke-linecap="round" stroke-linejoin="round" stroke-width="1.5" /><path d="M14.609 8.59814C13.8731 8.22153 12.9726 8 12 8C11.0274 8 10.1269 8.22153 9.39101 8.59814C9.03013 8.78282 8.84969 8.87517 8.67484 9.16551C8.5 9.45586 8.5 9.73699 8.5 10.2993V11.6948C8.5 13.9682 10.2665 15.2321 11.2895 15.7735C11.5748 15.9245 11.7175 16 12 16C12.2825 16 12.4252 15.9245 12.7105 15.7735C13.7335 15.2321 15.5 13.9682 15.5 11.6948L15.5 10.2993C15.5 9.73699 15.5 9.45586 15.3252 9.16551C15.1503 8.87517 14.9699 8.78282 14.609 8.59814Z" stroke="currentColor" stroke-linecap="round" stroke-linejoin="round" stroke-width="1.5" /></svg>