<svg xmlns="http://www.w3.org/2000/svg" width="24" height="24" viewBox="0 0 24 24" fill="none"><path d="M21.5 12C21.5 17.2467 17.2467 21.5 12 21.5C10.3719 21.5 8.8394 21.0904 7.5 20.3687C5.63177 19.362 4.37462 20.2979 3.26592 20.4658C3.09774 20.4913 2.93024 20.4302 2.80997 20.31C2.62741 20.1274 2.59266 19.8451 2.6935 19.6074C3.12865 18.5818 3.5282 16.6382 2.98341 15C2.6698 14.057 2.5 13.0483 2.5 12C2.5 6.75329 6.75329 2.5 12 2.5C17.2467 2.5 21.5 6.75329 21.5 12Z" stroke="currentColor" stroke-linecap="round" stroke-linejoin="round" stroke-width="1.5" /><path d="M11.9999 15.9996C11.9999 15.9996 7.99994 13.529 7.99994 11.1385C7.99994 9.95725 8.84204 8.99963 9.99994 8.99963C10.5999 8.99963 11.1999 9.20552 11.9999 10.029C12.7999 9.20552 13.3999 8.99963 13.9999 8.99963C15.1578 8.99963 15.9999 9.95725 15.9999 11.1385C15.9999 13.529 11.9999 15.9996 11.9999 15.9996Z" stroke="currentColor" stroke-linecap="round" stroke-linejoin="round" stroke-width="1.5" /></svg>