<svg xmlns="http://www.w3.org/2000/svg" width="24" height="24" viewBox="0 0 24 24" fill="none" stroke-width="1.5" stroke-linecap="round" stroke-linejoin="round" color="currentColor"><path d="M7.50397 20.3687C5.63574 19.362 4.37858 20.2979 3.26989 20.4658C3.10171 20.4913 2.93421 20.4302 2.81393 20.31C2.63138 20.1274 2.59663 19.8451 2.69747 19.6074C2.96149 18.9852 3.21241 18.0249 3.24724 17M13.504 2.61775C13.0154 2.54025 12.5144 2.5 12.004 2.5C11.4936 2.5 10.9926 2.54025 10.504 2.61775M17.5751 4.30418C18.3893 4.89461 19.1061 5.61108 19.6969 6.42496M21.3862 10.5C21.4637 10.9886 21.504 11.4896 21.504 12C21.504 12.5104 21.4637 13.0114 21.3862 13.5M19.697 17.575C19.1062 18.3889 18.3893 19.1053 17.5751 19.6958M13.504 21.3822C13.0154 21.4597 12.5144 21.5 12.004 21.5C11.4936 21.5 10.9926 21.4597 10.504 21.3822M2.62172 13.5C2.54422 13.0114 2.50397 12.5104 2.50397 12C2.50397 11.4896 2.54422 10.9886 2.62172 10.5M4.30819 6.42883C4.89862 5.61464 5.6151 4.89781 6.42898 4.30699" fill="none"></path></svg>