<svg xmlns="http://www.w3.org/2000/svg" width="24" height="24" viewBox="0 0 24 24" fill="none"><path d="M7.50403 20.3687C5.6358 19.362 4.37865 20.2979 3.26995 20.4658C3.10177 20.4913 2.93427 20.4302 2.81399 20.31C2.63144 20.1274 2.59669 19.8451 2.69753 19.6074C2.96156 18.9852 3.21247 18.0249 3.2473 17M13.504 2.61775C13.0154 2.54025 12.5144 2.5 12.004 2.5C11.4936 2.5 10.9926 2.54025 10.504 2.61775M17.5751 4.30418C18.3893 4.89461 19.1062 5.61108 19.697 6.42496M21.3863 10.5C21.4638 10.9886 21.504 11.4896 21.504 12C21.504 12.5104 21.4638 13.0114 21.3863 13.5M19.697 17.575C19.1062 18.3889 18.3894 19.1053 17.5752 19.6958M13.504 21.3822C13.0154 21.4597 12.5144 21.5 12.004 21.5C11.4936 21.5 10.9926 21.4597 10.504 21.3822M2.62178 13.5C2.54428 13.0114 2.50403 12.5104 2.50403 12C2.50403 11.4896 2.54428 10.9886 2.62178 10.5M4.30825 6.42883C4.89868 5.61464 5.61516 4.89781 6.42904 4.30699" stroke="currentColor" stroke-linecap="round" stroke-linejoin="round" stroke-width="1.5" /></svg>