<svg xmlns="http://www.w3.org/2000/svg" width="24" height="24" viewBox="0 0 24 24" fill="none"><path d="M11 9C15.4183 9 19 7.65685 19 6C19 4.34315 15.4183 3 11 3C6.58172 3 3 4.34315 3 6C3 7.65685 6.58172 9 11 9Z" stroke="currentColor" stroke-linecap="round" stroke-linejoin="round" stroke-width="1.5" /><path d="M19 6L17.1498 18.9517C17.0561 19.6074 16.6462 20.1853 16.0121 20.377C14.7407 20.7614 12.9649 21 11 21C9.0351 21 7.25928 20.7614 5.98792 20.377C5.35384 20.1853 4.94392 19.6074 4.85024 18.9517L3 6" stroke="currentColor" stroke-linecap="round" stroke-linejoin="round" stroke-width="1.5" /><path d="M11 14C11.5523 14 12 13.5523 12 13C12 12.4477 11.5523 12 11 12C10.4477 12 10 12.4477 10 13C10 13.5523 10.4477 14 11 14Z" stroke="currentColor" stroke-linecap="round" stroke-linejoin="round" stroke-width="1.5" /><path d="M11 13.172C11.295 13.3597 11.5997 13.5438 11.9133 13.7232C15.9608 16.0387 19.9523 16.6966 20.8286 15.1927C21.4199 14.1779 20.4419 12.4383 18.5 10.7027" stroke="currentColor" stroke-linecap="round" stroke-linejoin="round" stroke-width="1.5" /></svg>