<svg xmlns="http://www.w3.org/2000/svg" width="24" height="24" viewBox="0 0 24 24" fill="none"><path d="M6 21C5.07003 21 4.60504 21 4.22354 20.8978C3.18827 20.6204 2.37962 19.8117 2.10222 18.7765C2 18.395 2 17.93 2 17V13C2 12.07 2 11.605 2.10222 11.2235C2.37962 10.1883 3.18827 9.37962 4.22354 9.10222C4.60504 9 5.07003 9 6 9" stroke="currentColor" stroke-linecap="round" stroke-linejoin="round" stroke-width="1.5" /><path d="M18 21C18.93 21 19.395 21 19.7765 20.8978C20.8117 20.6204 21.6204 19.8117 21.8978 18.7765C22 18.395 22 17.93 22 17V13C22 12.07 22 11.605 21.8978 11.2235C21.6204 10.1883 20.8117 9.37962 19.7765 9.10222C19.395 9 18.93 9 18 9" stroke="currentColor" stroke-linecap="round" stroke-linejoin="round" stroke-width="1.5" /><path d="M18 21V9C18 6.17157 18 4.75736 17.1213 3.87868C16.2426 3 14.8284 3 12 3C9.17157 3 7.75736 3 6.87868 3.87868C6 4.75736 6 6.17157 6 9V21H18Z" stroke="currentColor" stroke-linecap="round" stroke-linejoin="round" stroke-width="1.5" /><path d="M10 21V18C10 17.0572 10 16.5858 10.2929 16.2929C10.5858 16 11.0572 16 12 16C12.9428 16 13.4142 16 13.7071 16.2929C14 16.5858 14 17.0572 14 18V21" stroke="currentColor" stroke-linecap="round" stroke-linejoin="round" stroke-width="1.5" /><path d="M10 8H14" stroke="currentColor" stroke-linecap="round" stroke-linejoin="round" stroke-width="1.5" /><path d="M10 12H14" stroke="currentColor" stroke-linecap="round" stroke-linejoin="round" stroke-width="1.5" /></svg>