<svg xmlns="http://www.w3.org/2000/svg" width="24" height="24" viewBox="0 0 24 24" fill="none"><path d="M17.6664 9.16667C19.4373 7.39583 20.4998 3.5 20.4998 3.5C20.4998 3.5 16.6039 4.5625 14.8331 6.33333M17.6664 9.16667L14.8331 6.33333M17.6664 9.16667L16.2498 11.2917M14.8331 6.33333L12.7081 7.75M16.2498 11.2917L12.7081 7.75M16.2498 11.2917L9.87476 17.6667C9.28795 18.2535 8.33656 18.2535 7.74976 17.6667M12.7081 7.75L6.33309 14.125C5.74629 14.7118 5.74629 15.6632 6.33309 16.25M7.74976 17.6667L6.33309 16.25M7.74976 17.6667C8.33656 18.2535 8.33656 19.2049 7.74976 19.7917L7.04142 20.5L3.49976 16.9583L4.20809 16.25C4.79489 15.6632 5.74629 15.6632 6.33309 16.25" stroke="currentColor" stroke-linecap="round" stroke-linejoin="round" stroke-width="1.5" /></svg>