<svg xmlns="http://www.w3.org/2000/svg" width="24" height="24" viewBox="0 0 24 24" fill="none" stroke-width="1.5" stroke-linecap="round" stroke-linejoin="round" color="currentColor"><path d="M17.6664 9.66667C19.4373 7.89583 20.4998 4 20.4998 4C20.4998 4 16.6039 5.0625 14.8331 6.83333M17.6664 9.66667L14.8331 6.83333M17.6664 9.66667L16.2498 11.7917M14.8331 6.83333L12.7081 8.25M16.2498 11.7917L12.7081 8.25M16.2498 11.7917L9.87476 18.1667C9.28795 18.7535 8.33656 18.7535 7.74976 18.1667M12.7081 8.25L6.33309 14.625C5.74629 15.2118 5.74629 16.1632 6.33309 16.75M7.74976 18.1667L6.33309 16.75M7.74976 18.1667C8.33656 18.7535 8.33656 19.7049 7.74976 20.2917L7.04142 21L3.49976 17.4583L4.20809 16.75C4.79489 16.1632 5.74629 16.1632 6.33309 16.75" fill="none"></path></svg>