<svg xmlns="http://www.w3.org/2000/svg" width="24" height="24" viewBox="0 0 24 24" fill="none" stroke-width="1.5" stroke-linecap="round" stroke-linejoin="round" color="currentColor"><path d="M17 20.5V22" stroke="currentColor"></path><path d="M7 20.5V22" stroke="currentColor"></path><path d="M4 6.78186C4 6.14251 4 5.82283 4.17387 5.43355C4.34773 5.04428 4.52427 4.88606 4.87736 4.56964C6.03437 3.53277 8.36029 2 12 2C15.6397 2 17.9656 3.53277 19.1226 4.56964C19.4757 4.88606 19.6523 5.04428 19.8261 5.43355C20 5.82283 20 6.14251 20 6.78186V14C20 16.8284 20 18.2426 19.1213 19.1213C18.2426 20 16.8284 20 14 20H10C7.17157 20 5.75736 20 4.87868 19.1213C4 18.2426 4 16.8284 4 14V6.78186Z" stroke="currentColor"></path><path d="M4 14C4 14 7.73333 15 12 15C16.2667 15 20 14 20 14" stroke="currentColor"></path><path d="M4.5 17.5H6" stroke="currentColor"></path><path d="M18 17.5H19.5" stroke="currentColor"></path><path d="M11 17.5L13 17.5" stroke="currentColor"></path><path d="M4 6H20" stroke="currentColor"></path><path d="M2 9L2 10" stroke="currentColor"></path><path d="M22 9L22 10" stroke="currentColor"></path></svg>