<svg xmlns="http://www.w3.org/2000/svg" width="24" height="24" viewBox="0 0 24 24" fill="none"><path d="M5.5 18V21M18.5 18V21" stroke="currentColor" stroke-linecap="round" stroke-linejoin="round" stroke-width="1.5" /><path d="M21 2.99994H3V12.9999C3 15.357 3 16.5355 3.82376 17.2677C4.64752 17.9999 5.97335 17.9999 8.625 17.9999H15.375C18.0267 17.9999 19.3525 17.9999 20.1762 17.2677C21 16.5355 21 15.357 21 12.9999V2.99994Z" stroke="currentColor" stroke-linecap="round" stroke-linejoin="round" stroke-width="1.5" /><path d="M2 3H22" stroke="currentColor" stroke-linecap="round" stroke-linejoin="round" stroke-width="1.5" /><path d="M3 10.5L21 10.5" stroke="currentColor" stroke-linecap="round" stroke-linejoin="round" stroke-width="1.5" /><path d="M10 13.5L10.1554 13.5777C10.5758 13.7879 10.786 13.893 11.0126 13.9465C11.2393 14 11.4743 14 11.9443 14H12.0557C12.5257 14 12.7607 14 12.9874 13.9465C13.214 13.893 13.4242 13.7879 13.8446 13.5777L14 13.5" stroke="currentColor" stroke-linecap="round" stroke-linejoin="round" stroke-width="1.5" /><path d="M10 6.5L10.1554 6.57771C10.5758 6.7879 10.786 6.893 11.0126 6.9465C11.2393 7 11.4743 7 11.9443 7H12.0557C12.5257 7 12.7607 7 12.9874 6.9465C13.214 6.893 13.4242 6.7879 13.8446 6.57771L14 6.5" stroke="currentColor" stroke-linecap="round" stroke-linejoin="round" stroke-width="1.5" /></svg>