<svg xmlns="http://www.w3.org/2000/svg" width="24" height="24" viewBox="0 0 24 24" fill="none" stroke-width="1.5" stroke-linecap="round" stroke-linejoin="round" color="currentColor"><path d="M6 18L5 21M18 18L19 21" stroke="currentColor"></path><path d="M16 18H8C5.17157 18 3.75736 18 2.87868 17.0586C2 16.1171 2 14.6019 2 11.5714V9.42857C2 6.39811 2 4.88289 2.87868 3.94144C3.75736 3 5.17157 3 8 3H16C18.8284 3 20.2426 3 21.1213 3.94144C22 4.88289 22 6.39811 22 9.42857V11.5714C22 14.6019 22 16.1171 21.1213 17.0586C20.2426 18 18.8284 18 16 18Z" stroke="currentColor"></path><path d="M2.5 14H21.5" stroke="currentColor"></path><path d="M12 3L12 14" stroke="currentColor"></path><path d="M9 9L9 8" stroke="currentColor"></path><path d="M15 9L15 8" stroke="currentColor"></path></svg>