<svg xmlns="http://www.w3.org/2000/svg" width="24" height="24" viewBox="0 0 24 24" fill="none"><path d="M8 17.125V17C8 16.5355 8 16.3032 7.96922 16.1089C7.79979 15.0392 6.96082 14.2002 5.89109 14.0308C5.69675 14 5.4645 14 5 14C4.5355 14 4.30325 14 4.10891 14.0308C3.03918 14.2002 2.20021 15.0392 2.03078 16.1089C2 16.3032 2 16.5355 2 17V17.125C2 17.4735 2 17.6477 2.02882 17.7926C2.14718 18.3877 2.61233 18.8528 3.20736 18.9712C3.35226 19 3.52651 19 3.875 19H6.125C6.47349 19 6.64774 19 6.79264 18.9712C7.38767 18.8528 7.85282 18.3877 7.97118 17.7926C8 17.6477 8 17.4735 8 17.125Z" stroke="currentColor" stroke-linecap="round" stroke-linejoin="round" stroke-width="1.5" /><path d="M5 14V6.5C5 4.567 6.567 3 8.5 3C10.433 3 12 4.567 12 6.5V17.5C12 19.433 13.567 21 15.5 21C17.433 21 19 19.433 19 17.5V10" stroke="currentColor" stroke-linecap="round" stroke-linejoin="round" stroke-width="1.5" /><path d="M20.125 5H17.875C17.5265 5 17.3523 5 17.2074 5.02882C16.6123 5.14718 16.1472 5.61233 16.0288 6.20736C16 6.35226 16 6.52651 16 6.875V7C16 7.4645 16 7.69675 16.0308 7.89109C16.2002 8.96082 17.0392 9.79979 18.1089 9.96922C18.3032 10 18.5355 10 19 10C19.4645 10 19.6968 10 19.8911 9.96922C20.9608 9.79979 21.7998 8.96082 21.9692 7.89109C22 7.69675 22 7.4645 22 7V6.875C22 6.52651 22 6.35226 21.9712 6.20736C21.8528 5.61233 21.3877 5.14718 20.7926 5.02882C20.6477 5 20.4735 5 20.125 5Z" stroke="currentColor" stroke-linecap="round" stroke-linejoin="round" stroke-width="1.5" /><path d="M17 5V3M21 3V5" stroke="currentColor" stroke-linecap="round" stroke-linejoin="round" stroke-width="1.5" /><path d="M3 21V19M7 19V21" stroke="currentColor" stroke-linecap="round" stroke-linejoin="round" stroke-width="1.5" /></svg>