<svg xmlns="http://www.w3.org/2000/svg" width="24" height="24" viewBox="0 0 24 24" fill="none" stroke-width="1.5" stroke-linecap="round" stroke-linejoin="round" color="currentColor"><path d="M16 2V6M8 2V6" fill="none"></path><path d="M21 14V12C21 8.22876 21 6.34315 19.8284 5.17157C18.6569 4 16.7712 4 13 4H11C7.22876 4 5.34315 4 4.17157 5.17157C3 6.34315 3 8.22876 3 12V14C3 17.7712 3 19.6569 4.17157 20.8284C5.34315 22 7.22876 22 11 22H12" fill="none"></path><path d="M3 10H21" fill="none"></path><path d="M19.778 16.222L15.2424 20.7576M21 18.5C21 20.433 19.433 22 17.5 22C15.567 22 14 20.433 14 18.5C14 16.567 15.567 15 17.5 15C19.433 15 21 16.567 21 18.5Z" fill="none"></path></svg>