<svg xmlns="http://www.w3.org/2000/svg" width="24" height="24" viewBox="0 0 24 24" fill="none" stroke-width="1.5" stroke-linecap="round" stroke-linejoin="round" color="currentColor"><path d="M16 2V6M8 2V6" fill="none"></path><path d="M21 15V12C21 8.22876 21 6.34315 19.8284 5.17157C18.6569 4 16.7712 4 13 4H11C7.22876 4 5.34315 4 4.17157 5.17157C3 6.34315 3 8.22876 3 12V14C3 17.7712 3 19.6569 4.17157 20.8284C5.34315 22 7.22876 22 11 22H12" fill="none"></path><path d="M3 10H21" fill="none"></path><path d="M18.5 22C19.0057 21.5085 21 20.2002 21 19.5C21 18.7998 19.0057 17.4915 18.5 17M20.5 19.5H14" fill="none"></path></svg>