<svg xmlns="http://www.w3.org/2000/svg" width="24" height="24" viewBox="0 0 24 24" fill="none" stroke-width="1.5" stroke-linecap="round" stroke-linejoin="round" color="currentColor"><path d="M11.5 22H11.05C7.01949 22 5.00424 22 3.75212 20.6464C2.5 19.2927 2.5 17.1141 2.5 12.7568V12.2432C2.5 7.88594 2.5 5.70728 3.75212 4.35364C5.00424 3 7.01949 3 11.05 3H12.95C16.9805 3 18.9958 3 20.2479 4.35364C21.5 5.70728 21.5 7.88594 21.5 12.2432C21.5 12.6622 21.4997 13 21.4997 13" stroke="currentColor"></path><path d="M15.0251 20.9749L19.9749 16.0251M21 18.5C21 20.433 19.433 22 17.5 22C15.567 22 14 20.433 14 18.5C14 16.567 15.567 15 17.5 15C19.433 15 21 16.567 21 18.5Z" stroke="currentColor"></path><path d="M18 2V4M6 2V4" stroke="currentColor"></path><path d="M3 8H21" stroke="currentColor"></path></svg>