<svg xmlns="http://www.w3.org/2000/svg" width="24" height="24" viewBox="0 0 24 24" fill="none"><path d="M16 2V6M8 2V6" stroke="currentColor" stroke-linecap="round" stroke-linejoin="round" stroke-width="1.5" /><path d="M12 22H11C7.22876 22 5.34315 22 4.17157 20.8284C3 19.6569 3 17.7712 3 14V12C3 8.22876 3 6.34315 4.17157 5.17157C5.34315 4 7.22876 4 11 4H13C16.7712 4 18.6569 4 19.8284 5.17157C20.8915 6.23467 20.99 7.8857 20.9991 11" stroke="currentColor" stroke-linecap="round" stroke-linejoin="round" stroke-width="1.5" /><path d="M3 10H21" stroke="currentColor" stroke-linecap="round" stroke-linejoin="round" stroke-width="1.5" /><path d="M14.385 15.7855C15.0271 14.4342 16.4044 13.5 18 13.5C19.4806 13.5 20.7733 14.3044 21.4649 15.5M14.385 15.7855C14.6833 16 15.1502 16 16 16H17M14.385 15.7855C14.3524 15.762 14.3218 15.736 14.2929 15.7071C14 15.4142 14 14.9428 14 14V13M21.615 19.2145C20.9729 20.5658 19.5956 21.5 18 21.5C16.5194 21.5 15.2267 20.6956 14.5351 19.5M21.615 19.2145C21.3166 19 20.8498 19 20 19H19M21.615 19.2145C21.6476 19.238 21.6782 19.264 21.7071 19.2929C22 19.5858 22 20.0572 22 21V22" stroke="currentColor" stroke-linecap="round" stroke-linejoin="round" stroke-width="1.5" /></svg>