<svg xmlns="http://www.w3.org/2000/svg" width="24" height="24" viewBox="0 0 24 24" fill="none"><path d="M20 20.5L21.5 22M20.5 18C20.5 19.6569 19.1569 21 17.5 21C15.8431 21 14.5 19.6569 14.5 18C14.5 16.3431 15.8431 15 17.5 15C19.1569 15 20.5 16.3431 20.5 18Z" stroke="currentColor" stroke-linecap="round" stroke-linejoin="round" stroke-width="1.5" /><path d="M15.5 2V6M7.5 2V6" stroke="currentColor" stroke-linecap="round" stroke-linejoin="round" stroke-width="1.5" /><path d="M2.5 10H20.5" stroke="currentColor" stroke-linecap="round" stroke-linejoin="round" stroke-width="1.5" /><path d="M20.5 12C20.5 8.22876 20.5 6.34315 19.3284 5.17157C18.1569 4 16.2712 4 12.5 4H10.5C6.72876 4 4.84315 4 3.67157 5.17157C2.5 6.34315 2.5 8.22876 2.5 12V14C2.5 17.7712 2.5 19.6569 3.67157 20.8284C4.84315 22 6.72876 22 10.5 22H11.5" stroke="currentColor" stroke-linecap="round" stroke-linejoin="round" stroke-width="1.5" /></svg>