<svg xmlns="http://www.w3.org/2000/svg" width="24" height="24" viewBox="0 0 24 24" fill="none" stroke-width="1.5" stroke-linecap="round" stroke-linejoin="round" color="currentColor"><path d="M8 18L10 16C10.2726 15.7274 10.4089 15.5911 10.556 15.5182C10.8358 15.3796 11.1642 15.3796 11.444 15.5182C11.5911 15.5911 11.7274 15.7274 12 16C12.2726 16.2726 12.4089 16.4089 12.556 16.4818C12.8358 16.6204 13.1642 16.6204 13.444 16.4818C13.5911 16.4089 13.7274 16.2726 14 16L16 14" fill="none"></path><path d="M3 10H21" fill="none"></path><path d="M16 2V6M8 2V6" fill="none"></path><path d="M13 4H11C7.22876 4 5.34315 4 4.17157 5.17157C3 6.34315 3 8.22876 3 12V14C3 17.7712 3 19.6569 4.17157 20.8284C5.34315 22 7.22876 22 11 22H13C16.7712 22 18.6569 22 19.8284 20.8284C21 19.6569 21 17.7712 21 14V12C21 8.22876 21 6.34315 19.8284 5.17157C18.6569 4 16.7712 4 13 4Z" fill="none"></path></svg>