<svg xmlns="http://www.w3.org/2000/svg" width="24" height="24" viewBox="0 0 24 24" fill="none" stroke-width="1.5" stroke-linecap="round" stroke-linejoin="round" color="currentColor"><path d="M16 2V6M8 2V6" fill="none"></path><path d="M12 22H11C7.22876 22 5.34315 22 4.17157 20.8284C3 19.6569 3 17.7712 3 14V12C3 8.22876 3 6.34315 4.17157 5.17157C5.34315 4 7.22876 4 11 4H13C16.7712 4 18.6569 4 19.8284 5.17157C21 6.34315 21 8.22876 21 12V12.5" fill="none"></path><path d="M3 10H21" fill="none"></path><path d="M17 22C17 22 21 20.1471 21 17.1389C21 15.9576 20.1579 15 19 15C18.0526 15 17.4211 15.4118 17 16.2353C16.5789 15.4118 15.9474 15 15 15C13.8421 15 13 15.9576 13 17.1389C13 20.1471 17 22 17 22Z" fill="none"></path></svg>