<svg xmlns="http://www.w3.org/2000/svg" width="24" height="24" viewBox="0 0 24 24" fill="none"><path d="M15.5 2V6M7.5 2V6" stroke="currentColor" stroke-linecap="round" stroke-linejoin="round" stroke-width="1.5" /><path d="M20.3985 8C20.2706 6.69989 19.9816 5.82475 19.3284 5.17157C18.1569 4 16.2712 4 12.5 4H10.5C6.72876 4 4.84315 4 3.67157 5.17157C2.5 6.34315 2.5 8.22876 2.5 12V14C2.5 17.7712 2.5 19.6569 3.67157 20.8284C4.47975 21.6366 5.6277 21.8873 7.5 21.965" stroke="currentColor" stroke-linecap="round" stroke-linejoin="round" stroke-width="1.5" /><path d="M2.5 10H7.5" stroke="currentColor" stroke-linecap="round" stroke-linejoin="round" stroke-width="1.5" /><path d="M15.5 22C18.8137 22 21.5 19.3137 21.5 16C21.5 12.6863 18.8137 10 15.5 10C12.1863 10 9.5 12.6863 9.5 16C9.5 19.3137 12.1863 22 15.5 22Z" stroke="currentColor" stroke-linecap="round" stroke-linejoin="round" stroke-width="1.5" /><path d="M15.5 13V16L17.5 17" stroke="currentColor" stroke-linecap="round" stroke-linejoin="round" stroke-width="1.5" /></svg>