<svg xmlns="http://www.w3.org/2000/svg" width="24" height="24" viewBox="0 0 24 24" fill="none"><path d="M16.5 17L19 19.5M19 19.5L21.5 22M19 19.5L16.5 22M19 19.5L21.5 17" stroke="currentColor" stroke-linecap="round" stroke-linejoin="round" stroke-width="1.5" /><path d="M15.5 2V6M7.5 2V6" stroke="currentColor" stroke-linecap="round" stroke-linejoin="round" stroke-width="1.5" /><path d="M2.5 10H20.5" stroke="currentColor" stroke-linecap="round" stroke-linejoin="round" stroke-width="1.5" /><path d="M12.5 22H10.5C6.72876 22 4.84315 22 3.67157 20.8284C2.5 19.6569 2.5 17.7712 2.5 14V12C2.5 8.22876 2.5 6.34315 3.67157 5.17157C4.84315 4 6.72876 4 10.5 4H12.5C16.2712 4 18.1569 4 19.3284 5.17157C20.5 6.34315 20.5 8.22876 20.5 12V13" stroke="currentColor" stroke-linecap="round" stroke-linejoin="round" stroke-width="1.5" /></svg>