<svg xmlns="http://www.w3.org/2000/svg" width="24" height="24" viewBox="0 0 24 24" fill="none" stroke-width="1.5" stroke-linecap="round" stroke-linejoin="round" color="currentColor"><path d="M13.1418 14.4418C14.3486 13.7108 15.4018 14.0054 16.0345 14.4747C16.294 14.6671 16.4237 14.7633 16.5 14.7633C16.5763 14.7633 16.706 14.6671 16.9655 14.4747C17.5982 14.0054 18.6514 13.7108 19.8582 14.4418C21.4419 15.4013 21.8002 18.5666 18.1472 21.237C17.4514 21.7457 17.1035 22 16.5 22C15.8965 22 15.5486 21.7457 14.8528 21.237C11.1998 18.5666 11.5581 15.4013 13.1418 14.4418Z" stroke="currentColor"></path><path d="M3 8H21" stroke="currentColor"></path><path d="M18 2V4M6 2V4" stroke="currentColor"></path><path d="M11.05 22C7.01949 22 5.00424 22 3.75212 20.6464C2.5 19.2927 2.5 17.1141 2.5 12.7568V12.2432C2.5 7.88594 2.5 5.70728 3.75212 4.35364C5.00424 3 7.01949 3 11.05 3H12.95C16.9805 3 18.9958 3 20.2479 4.35364C21.4765 5.68186 21.4996 7.80438 21.5 12" stroke="currentColor"></path></svg>