<svg xmlns="http://www.w3.org/2000/svg" width="24" height="24" viewBox="0 0 24 24" fill="none"><path d="M16 2V6M8 2V6" stroke="currentColor" stroke-linecap="round" stroke-linejoin="round" stroke-width="1.5" /><path d="M13 4H11C7.22876 4 5.34315 4 4.17157 5.17157C3 6.34315 3 8.22876 3 12V14C3 17.7712 3 19.6569 4.17157 20.8284C5.34315 22 7.22876 22 11 22H13C16.7712 22 18.6569 22 19.8284 20.8284C21 19.6569 21 17.7712 21 14V12C21 8.22876 21 6.34315 19.8284 5.17157C18.6569 4 16.7712 4 13 4Z" stroke="currentColor" stroke-linecap="round" stroke-linejoin="round" stroke-width="1.5" /><path d="M3 10H21" stroke="currentColor" stroke-linecap="round" stroke-linejoin="round" stroke-width="1.5" /><path d="M15.5 15.5V17.5M17 16.5C17 17.3284 16.3284 18 15.5 18C14.6716 18 14 17.3284 14 16.5C14 15.6716 14.6716 15 15.5 15C16.3284 15 17 15.6716 17 16.5Z" stroke="currentColor" stroke-linecap="round" stroke-linejoin="round" stroke-width="1.5" /></svg>