<svg xmlns="http://www.w3.org/2000/svg" width="24" height="24" viewBox="0 0 24 24" fill="none"><path d="M12 17.875V18M12.25 18C12.25 18.1381 12.1381 18.25 12 18.25C11.8619 18.25 11.75 18.1381 11.75 18C11.75 17.8619 11.8619 17.75 12 17.75C12.1381 17.75 12.25 17.8619 12.25 18Z" stroke="currentColor" stroke-linecap="round" stroke-linejoin="round" stroke-width="1.5" /><path d="M12 13.875V14M12.25 14C12.25 14.1381 12.1381 14.25 12 14.25C11.8619 14.25 11.75 14.1381 11.75 14C11.75 13.8619 11.8619 13.75 12 13.75C12.1381 13.75 12.25 13.8619 12.25 14Z" stroke="currentColor" stroke-linecap="round" stroke-linejoin="round" stroke-width="1.5" /><path d="M7.25 17.875V18M7.5 18C7.5 18.1381 7.38807 18.25 7.25 18.25C7.11193 18.25 7 18.1381 7 18C7 17.8619 7.11193 17.75 7.25 17.75C7.38807 17.75 7.5 17.8619 7.5 18Z" stroke="currentColor" stroke-linecap="round" stroke-linejoin="round" stroke-width="1.5" /><path d="M7.25 13.875V14M7.5 14C7.5 14.1381 7.38807 14.25 7.25 14.25C7.11193 14.25 7 14.1381 7 14C7 13.8619 7.11193 13.75 7.25 13.75C7.38807 13.75 7.5 13.8619 7.5 14Z" stroke="currentColor" stroke-linecap="round" stroke-linejoin="round" stroke-width="1.5" /><path d="M16.75 13.875V14M17 14C17 14.1381 16.8881 14.25 16.75 14.25C16.6119 14.25 16.5 14.1381 16.5 14C16.5 13.8619 16.6119 13.75 16.75 13.75C16.8881 13.75 17 13.8619 17 14Z" stroke="currentColor" stroke-linecap="round" stroke-linejoin="round" stroke-width="1.5" /><path d="M16 2V6M8 2V6" stroke="currentColor" stroke-linecap="round" stroke-linejoin="round" stroke-width="1.5" /><path d="M3 10H21" stroke="currentColor" stroke-linecap="round" stroke-linejoin="round" stroke-width="1.5" /><path d="M13 4H11C7.22876 4 5.34315 4 4.17157 5.17157C3 6.34315 3 8.22876 3 12V14C3 17.7712 3 19.6569 4.17157 20.8284C5.34315 22 7.22876 22 11 22H13C16.7712 22 18.6569 22 19.8284 20.8284C21 19.6569 21 17.7712 21 14V12C21 8.22876 21 6.34315 19.8284 5.17157C18.6569 4 16.7712 4 13 4Z" stroke="currentColor" stroke-linecap="round" stroke-linejoin="round" stroke-width="1.5" /></svg>