<svg xmlns="http://www.w3.org/2000/svg" width="24" height="24" viewBox="0 0 24 24" fill="none" stroke-width="1.5" stroke-linecap="round" stroke-linejoin="round" color="currentColor"><path d="M16 2V6M8 2V6" fill="none"></path><path d="M21 13V12C21 8.22876 21 6.34315 19.8284 5.17157C18.6569 4 16.7712 4 13 4H11C7.22876 4 5.34315 4 4.17157 5.17157C3 6.34315 3 8.22876 3 12V14C3 17.7712 3 19.6569 4.17157 20.8284C5.34315 22 7.22876 22 11 22" fill="none"></path><path d="M3 10H21" fill="none"></path><path d="M17.5 18.5C16.3954 18.5 15.5 17.6046 15.5 16.5C15.5 15.3954 16.3954 14.5 17.5 14.5C18.6046 14.5 19.5 15.3954 19.5 16.5C19.5 17.6046 18.6046 18.5 17.5 18.5ZM17.5 18.5C19.433 18.5 21 20.067 21 22M17.5 18.5C15.567 18.5 14 20.067 14 22" fill="none"></path></svg>