<svg xmlns="http://www.w3.org/2000/svg" width="24" height="24" viewBox="0 0 24 24" fill="none" stroke-width="1.5" stroke-linecap="round" stroke-linejoin="round" color="currentColor"><path d="M16 2V6M8 2V6" fill="none"></path><path d="M21 12.5V12C21 8.22876 21 6.34315 19.8284 5.17157C18.6569 4 16.7712 4 13 4H11C7.22876 4 5.34315 4 4.17157 5.17157C3 6.34315 3 8.22876 3 12V14C3 17.7712 3 19.6569 4.17157 20.8284C5.34315 22 7.22876 22 11 22" fill="none"></path><path d="M3 10H21" fill="none"></path><path d="M17.5 20.5C18.4293 20.5 19.2402 19.993 19.671 19.2404M17.5 20.5C16.5707 20.5 15.7598 19.993 15.329 19.2404M17.5 20.5L17.5 22M17.5 15.5C18.4292 15.5 19.24 16.0069 19.6709 16.7593M17.5 15.5C16.5708 15.5 15.76 16.0069 15.3291 16.7593M17.5 15.5L17.5 14M21 15.9998L19.6709 16.7593M14 19.9998L15.329 19.2404M21 19.9998L19.671 19.2404M14 15.9998L15.3291 16.7593M19.6709 16.7593C19.8803 17.1249 20 17.5485 20 18C20 18.4514 19.8804 18.8749 19.671 19.2404M15.329 19.2404C15.1196 18.8749 15 18.4514 15 18C15 17.5485 15.1197 17.1249 15.3291 16.7593" fill="none"></path></svg>