<svg xmlns="http://www.w3.org/2000/svg" width="24" height="24" viewBox="0 0 24 24" fill="none"><path d="M4.91186 10.5413L7.55229 7.90088C8.09091 7.36227 8.27728 6.56642 8.05944 5.83652C7.8891 5.26577 7.69718 4.57964 7.56961 3.99292C7.45162 3.45027 6.97545 3 6.42012 3H4.91186C3.8012 3 2.88911 3.90384 3.01094 5.0078C3.93709 13.3996 10.6004 20.0629 18.9922 20.9891C20.0962 21.1109 21 20.1988 21 19.0881V17.5799C21 17.0246 20.5479 16.569 20.0015 16.4696C19.3988 16.36 18.7611 16.1804 18.2276 16.0103C17.4611 15.7659 16.6091 15.9377 16.0403 16.5065L13.4587 19.0881" stroke="currentColor" stroke-linecap="round" stroke-linejoin="round" stroke-width="1.5" /><path d="M14.5 9C13.9943 8.50847 12 7.20023 12 6.5C12 5.79977 13.9943 4.49153 14.5 4M12.5 6.5H20.5M18.5 9C19.0057 8.50847 21 7.20023 21 6.5C21 5.79977 19.0057 4.49153 18.5 4" stroke="currentColor" stroke-linecap="round" stroke-linejoin="round" stroke-width="1.5" /></svg>