<svg xmlns="http://www.w3.org/2000/svg" width="24" height="24" viewBox="0 0 24 24" fill="none"><path d="M9.1585 5.71217L8.75584 4.80619C8.49256 4.21382 8.36092 3.91762 8.16405 3.69095C7.91732 3.40688 7.59571 3.19788 7.23592 3.08779C6.94883 2.99994 6.6247 2.99994 5.97645 2.99994C5.02815 2.99994 4.554 2.99994 4.15597 3.18223C3.68711 3.39696 3.26368 3.86322 3.09497 4.35054C2.95175 4.76423 2.99278 5.18937 3.07482 6.03964C3.94815 15.0901 8.91006 20.052 17.9605 20.9254C18.8108 21.0074 19.236 21.0484 19.6496 20.9052C20.137 20.7365 20.6032 20.3131 20.818 19.8442C21.0002 19.4462 21.0002 18.972 21.0002 18.0237C21.0002 17.3755 21.0002 17.0514 20.9124 16.7643C20.8023 16.4045 20.5933 16.0829 20.3092 15.8361C20.0826 15.6393 19.7864 15.5076 19.194 15.2443L18.288 14.8417C17.6465 14.5566 17.3257 14.414 16.9998 14.383C16.6878 14.3533 16.3733 14.3971 16.0813 14.5108C15.7762 14.6296 15.5066 14.8543 14.9672 15.3038C14.4304 15.7511 14.162 15.9748 13.834 16.0946C13.5432 16.2009 13.1588 16.2402 12.8526 16.1951C12.5071 16.1442 12.2426 16.0028 11.7135 15.7201C10.0675 14.8404 9.15977 13.9327 8.28011 12.2867C7.99738 11.7576 7.85602 11.4931 7.80511 11.1476C7.75998 10.8414 7.79932 10.457 7.90554 10.1662C8.02536 9.83822 8.24905 9.5698 8.69643 9.03294C9.14586 8.49362 9.37058 8.22396 9.48939 7.91885C9.60309 7.62688 9.64686 7.31234 9.61719 7.00042C9.58618 6.67446 9.44362 6.3537 9.1585 5.71217Z" stroke="currentColor" stroke-linecap="round" stroke-width="1.5" /></svg>