<svg xmlns="http://www.w3.org/2000/svg" width="24" height="24" viewBox="0 0 24 24" fill="none" stroke-width="1.5" stroke-linecap="round" stroke-linejoin="round" color="currentColor"><path d="M4.91186 10.5413L7.55229 7.90088C8.09091 7.36227 8.27728 6.56642 8.05944 5.83652C7.8891 5.26577 7.69718 4.57964 7.56961 3.99292C7.45162 3.45027 6.97545 3 6.42012 3H4.91186C3.8012 3 2.88911 3.90384 3.01094 5.0078C3.93709 13.3996 10.6004 20.0629 18.9922 20.9891C20.0962 21.1109 21 20.1988 21 19.0881V17.5799C21 17.0246 20.5479 16.569 20.0015 16.4696C19.3988 16.36 18.7611 16.1804 18.2276 16.0103C17.4611 15.7659 16.6091 15.9377 16.0403 16.5065L13.4587 19.0881" fill="none"></path><path d="M12.4887 5.48869L15.6464 8.64645C15.8728 8.87282 16.1799 9 16.5 9C16.8201 9 17.1272 8.87282 17.3536 8.64645L21 5M12.2072 8.5C12.1307 7.62126 11.7742 5.66718 12.2207 5.22067C12.6672 4.77415 14.6213 5.13074 15.5 5.2072" fill="none"></path></svg>