<svg xmlns="http://www.w3.org/2000/svg" width="24" height="24" viewBox="0 0 24 24" fill="none"><path d="M9.1585 5.71223L8.75584 4.80625C8.49256 4.21388 8.36092 3.91768 8.16405 3.69101C7.91732 3.40694 7.59571 3.19794 7.23592 3.08785C6.94883 3 6.6247 3 5.97645 3C5.02815 3 4.554 3 4.15597 3.18229C3.68711 3.39702 3.26368 3.86328 3.09497 4.3506C2.95175 4.76429 2.99278 5.18943 3.07482 6.0397C3.94815 15.0902 8.91006 20.0521 17.9605 20.9254C18.8108 21.0075 19.236 21.0485 19.6496 20.9053C20.137 20.7366 20.6032 20.3131 20.818 19.8443C21.0002 19.4462 21.0002 18.9721 21.0002 18.0238C21.0002 17.3755 21.0002 17.0514 20.9124 16.7643C20.8023 16.4045 20.5933 16.0829 20.3092 15.8362C20.0826 15.6393 19.7864 15.5077 19.194 15.2444L18.288 14.8417C17.6465 14.5566 17.3257 14.4141 16.9998 14.3831C16.6878 14.3534 16.3733 14.3972 16.0813 14.5109C15.7762 14.6297 15.5066 14.8544 14.9672 15.3038C14.4304 15.7512 14.162 15.9749 13.834 16.0947C13.5432 16.2009 13.1588 16.2403 12.8526 16.1951C12.5071 16.1442 12.2426 16.0029 11.7135 15.7201C10.0675 14.8405 9.15977 13.9328 8.28011 12.2867C7.99738 11.7577 7.85602 11.4931 7.80511 11.1477C7.75998 10.8414 7.79932 10.457 7.90554 10.1663C8.02536 9.83828 8.24905 9.56986 8.69643 9.033C9.14586 8.49368 9.37058 8.22402 9.48939 7.91891C9.60309 7.62694 9.64686 7.3124 9.61719 7.00048C9.58618 6.67452 9.44362 6.35376 9.1585 5.71223Z" stroke="currentColor" stroke-linecap="round" stroke-width="1.5" /><path d="M17.4695 3.02506C17.4764 2.99165 17.5241 2.99165 17.5309 3.02506C17.8854 4.75942 19.2408 6.11481 20.9752 6.4693C21.0086 6.47613 21.0086 6.52387 20.9752 6.5307C19.2408 6.88519 17.8854 8.24058 17.5309 9.97494C17.5241 10.0084 17.4764 10.0084 17.4695 9.97494C17.1151 8.24058 15.7597 6.88519 14.0253 6.5307C13.9919 6.52387 13.9919 6.47613 14.0253 6.4693C15.7597 6.11481 17.1151 4.75942 17.4695 3.02506Z" stroke="currentColor" stroke-linejoin="round" stroke-width="1.5" /></svg>