<svg xmlns="http://www.w3.org/2000/svg" width="24" height="24" viewBox="0 0 24 24" fill="none"><path d="M21 3L3 21" stroke="currentColor" stroke-linecap="round" stroke-linejoin="round" stroke-width="1.5" /><path d="M4.91186 10.5413L7.55229 7.90088C8.09091 7.36227 8.27728 6.56642 8.05944 5.83652C7.8891 5.26577 7.69718 4.57964 7.56961 3.99292C7.45162 3.45027 6.97545 3 6.42012 3H4.91186C3.8012 3 2.88911 3.90384 3.01094 5.0078C3.36459 8.21219 4.55477 11.1646 6.35829 13.6417M13.4587 19.0881L16.0403 16.5065C16.6091 15.9377 17.4611 15.7659 18.2276 16.0103C18.7611 16.1804 19.3988 16.36 20.0015 16.4696C20.5479 16.569 21 17.0246 21 17.5799V19.0881C21 20.1988 20.0962 21.1109 18.9922 20.9891C14.7963 20.526 11.0325 18.6286 8.20196 15.798" stroke="currentColor" stroke-linecap="round" stroke-linejoin="round" stroke-width="1.5" /></svg>