<svg xmlns="http://www.w3.org/2000/svg" width="24" height="24" viewBox="0 0 24 24" fill="none"><path d="M22 7.49945V15.4994C22 18.3279 22 19.7421 21.1213 20.6208C20.2426 21.4994 18.8284 21.4994 16 21.4994H8C5.17157 21.4994 3.75736 21.4994 2.87868 20.6208C2 19.7421 2 18.3279 2 15.4994V12.9994C2 10.171 2 8.7568 2.87868 7.87812C3.75736 6.99944 5.17157 6.99944 8 6.99944H8.39922C9.02578 6.99944 9.33906 6.99944 9.62612 6.91124C9.81759 6.85241 9.99914 6.76516 10.1647 6.65239C10.4129 6.48333 10.6086 6.2387 11 5.74944C11.3914 5.26018 11.5871 5.01555 11.8353 4.84648C12.0009 4.73372 12.1824 4.64646 12.3739 4.58763C12.5504 4.53339 12.7369 4.5086 13 4.50056" stroke="currentColor" stroke-linecap="round" stroke-linejoin="round" stroke-width="1.5" /><path d="M16 5.00056H21M18.5 7.50056V2.50056" stroke="currentColor" stroke-linecap="round" stroke-linejoin="round" stroke-width="1.5" /><path d="M5 10.0006H7" stroke="currentColor" stroke-linecap="round" stroke-linejoin="round" stroke-width="1.5" /><path d="M18.5309 14.0006C18.5309 16.2097 16.74 18.0006 14.5309 18.0006C12.3217 18.0006 10.5309 16.2097 10.5309 14.0006C10.5309 11.7914 12.3217 10.0006 14.5309 10.0006C16.74 10.0006 18.5309 11.7914 18.5309 14.0006Z" stroke="currentColor" stroke-linecap="round" stroke-linejoin="round" stroke-width="1.5" /></svg>