<svg xmlns="http://www.w3.org/2000/svg" width="24" height="24" viewBox="0 0 24 24" fill="none" stroke-width="1.5" stroke-linecap="round" stroke-linejoin="round" color="currentColor"><path d="M7 7L7.89443 5.21114C8.43234 4.13531 8.7013 3.5974 9.18461 3.2987C9.66791 3 10.2693 3 11.4721 3H12.5279C13.7307 3 14.3321 3 14.8154 3.2987C15.2987 3.5974 15.5677 4.13531 16.1056 5.21115L17 7C18.8692 7 19.8038 7 20.5 7.40192C20.9561 7.66523 21.3348 8.04394 21.5981 8.5C22 9.19615 22 10.1308 22 12V15C22 17.8284 22 19.2426 21.1213 20.1213C20.2426 21 18.8284 21 16 21H8C5.17157 21 3.75736 21 2.87868 20.1213C2 19.2426 2 17.8284 2 15V12C2 10.1308 2 9.19615 2.40192 8.5C2.66523 8.04394 3.04394 7.66523 3.5 7.40192C4.19615 7 5.13077 7 7 7ZM7 7H12" fill="none"></path><path d="M15.5 14C15.5 15.933 13.933 17.5 12 17.5C10.067 17.5 8.5 15.933 8.5 14C8.5 12.067 10.067 10.5 12 10.5C13.933 10.5 15.5 12.067 15.5 14Z" fill="none"></path><path d="M19 10V10.01" fill="none"></path></svg>