<svg xmlns="http://www.w3.org/2000/svg" width="24" height="24" viewBox="0 0 24 24" fill="none" stroke-width="1.5" stroke-linecap="round" stroke-linejoin="round" color="currentColor"><path d="M12.6974 3.49997H11.303C10.5884 3.49997 10.2311 3.49997 9.91067 3.61197C9.71499 3.68036 9.53113 3.77876 9.36568 3.90364C9.09474 4.10813 8.89655 4.40541 8.50018 4.99997L8.50017 4.99998C8.29717 5.3045 7.99794 5.75334 7.87867 5.87868C7.58314 6.18924 7.19563 6.39663 6.77329 6.47026C6.60284 6.49997 6.41985 6.49997 6.05387 6.49997C5.07379 6.49997 4.58376 6.49997 4.18307 6.61339C3.18074 6.89713 2.39734 7.68052 2.1136 8.68286C2.00018 9.08354 2.00018 9.57358 2.00018 10.5537V14.5C2.00018 17.3284 2.00018 18.7426 2.87886 19.6213C3.75754 20.5 5.17176 20.5 8.00018 20.5H16.0002C18.8286 20.5 20.2428 20.5 21.1215 19.6213C22.0002 18.7426 22.0002 17.3284 22.0002 14.5V10.5537C22.0002 9.57358 22.0002 9.08354 21.8868 8.68286C21.603 7.68052 20.8196 6.89713 19.8173 6.61339C19.4166 6.49997 18.9266 6.49997 17.9465 6.49997C17.5805 6.49997 17.3975 6.49997 17.2271 6.47026C16.8047 6.39663 16.4172 6.18924 16.1217 5.87868C16.0024 5.75333 15.7032 5.30448 15.5002 4.99997C15.1038 4.40541 14.9056 4.10813 14.6347 3.90364C14.4692 3.77876 14.2854 3.68036 14.0897 3.61197C13.7693 3.49997 13.412 3.49997 12.6974 3.49997Z" fill="none"></path><path d="M19.0002 9.49997V9.50997" fill="none"></path><path d="M12.0002 16C13.3964 16 15.0001 15 15.5001 14M12.0002 16C10.604 16 9.00032 15 8.50032 14M12.0002 16L12.0002 17.5M12.0002 13.5C11.1718 13.5 10.5002 12.8284 10.5002 12L10.5002 9.99997C10.5002 9.17154 11.1718 8.49997 12.0002 8.49997C12.8286 8.49997 13.5002 9.17154 13.5002 9.99997V12C13.5002 12.8284 12.8286 13.5 12.0002 13.5Z" fill="none"></path></svg>