<svg xmlns="http://www.w3.org/2000/svg" width="24" height="24" viewBox="0 0 24 24" fill="none" stroke-width="1.5" stroke-linecap="round" stroke-linejoin="round" color="currentColor"><path d="M2.75 12C2.75 17.5228 7.22715 22 12.75 22C18.2728 22 22.75 17.5228 22.75 12C22.75 6.47715 18.2728 2 12.75 2" stroke="currentColor"></path><path d="M5.39856 5.07876C5.53691 4.93211 5.67948 4.7895 5.8261 4.65111M8.69733 2.72939C8.87884 2.6478 9.06313 2.57128 9.25 2.5M3.48172 7.94192C3.39925 8.12518 3.32195 8.31127 3.25 8.5" stroke="currentColor"></path><path d="M15.75 9L12.75 12M12.75 12L9.75 15M12.75 12L15.75 15M12.75 12L9.75 9" stroke="currentColor"></path></svg>