<svg xmlns="http://www.w3.org/2000/svg" width="24" height="24" viewBox="0 0 24 24" fill="none"><path d="M8.5 8.5L7.44975 9.55025C6.52149 10.4785 6 11.7375 6 13.0503C6 15.7839 8.21608 18 10.9497 18C12.2625 18 13.5215 17.4785 14.4497 16.5503L15.5 15.5M11.3144 6.31436C11.8643 6.10841 12.4517 6 13.0503 6C15.7839 6 18 8.21608 18 10.9497C18 11.5483 17.8916 12.1357 17.6856 12.6856" stroke="currentColor" stroke-linecap="round" stroke-linejoin="round" stroke-width="1.5" /><path d="M14 6.5V8.99997M14 16.5V14M10 10V17.5" stroke="currentColor" stroke-linecap="round" stroke-linejoin="round" stroke-width="1.5" /><path d="M17.5 8.5L21.5115 8.05428C21.7896 8.02338 22 7.78832 22 7.50851C22 7.22157 21.7748 7.00246 21.497 6.93046C21.2738 6.8726 21.0465 6.76078 20.8095 6.52381C19.9429 5.65714 20.7238 5.00952 19.8571 4.14286C19.0238 3.30952 18.3095 4.02381 17.4762 3.19048C17.2351 2.94935 17.1215 2.72518 17.0645 2.50853C16.9911 2.2298 16.7746 2 16.4864 2C16.2095 2 15.9769 2.20822 15.9463 2.48345L15.5 6.5" stroke="currentColor" stroke-linecap="round" stroke-linejoin="round" stroke-width="1.5" /><path d="M3 3L21 21" stroke="currentColor" stroke-linecap="round" stroke-linejoin="round" stroke-width="1.5" /><path d="M6.5 15.5L2.48849 15.9457C2.21039 15.9766 2 16.2117 2 16.4915C2 16.7784 2.22522 16.9975 2.50298 17.0695C2.72617 17.1274 2.95351 17.2392 3.19048 17.4762C4.05714 18.3429 3.27619 18.9905 4.14286 19.8571C4.97619 20.6905 5.69048 19.9762 6.52381 20.8095C6.76494 21.0507 6.87852 21.2748 6.93554 21.4915C7.0089 21.7702 7.22536 22 7.51357 22C7.7905 22 8.02314 21.7918 8.05372 21.5165L8.5 17.5" stroke="currentColor" stroke-linecap="round" stroke-linejoin="round" stroke-width="1.5" /></svg>