<svg xmlns="http://www.w3.org/2000/svg" width="24" height="24" viewBox="0 0 24 24" fill="none" stroke-width="1.5" stroke-linecap="round" stroke-linejoin="round" color="currentColor"><path d="M2 3H22" stroke="currentColor"></path><path d="M12 3V16" stroke="currentColor"></path><path d="M19.5 3V11" stroke="currentColor"></path><path d="M4.5 3V11" stroke="currentColor"></path><path d="M4.5 11.0001C2.7846 11.0001 1.7947 13.512 2.03594 14.9903C2.24261 16.2568 6.73167 16.4143 6.96406 14.9903C7.2053 13.512 6.21541 11.0001 4.5 11.0001Z" stroke="currentColor"></path><path d="M12 16C10.2846 16 9.2947 18.5119 9.53594 19.9902C9.74261 21.2567 14.2317 21.4142 14.4641 19.9902C14.7053 18.5119 13.7154 16 12 16Z" stroke="currentColor"></path><path d="M19.5 11.0001C17.7846 11.0001 16.7947 13.512 17.0359 14.9903C17.2426 16.2568 21.7317 16.4143 21.9641 14.9903C22.2053 13.512 21.2154 11.0001 19.5 11.0001Z" stroke="currentColor"></path></svg>