<svg xmlns="http://www.w3.org/2000/svg" width="24" height="24" viewBox="0 0 24 24" fill="none"><path d="M5.20209 14.4862L6.63118 19.7143M8.13036 9.51447L9.55945 14.7425M11.2373 5.19627L12.4877 9.77084M14.8801 2.8386L15.7733 6.10615M13.9519 7.28499L6.14314 20.5429C5.60406 21.4581 4.41013 21.7717 3.47641 21.2433C2.5427 20.7149 2.22279 19.5445 2.76187 18.6293L10.5706 5.37138C12.1878 2.62558 15.7696 1.6848 18.5708 3.27008C21.3719 4.85537 22.3316 8.36641 20.7144 11.1122C20.1753 12.0275 18.9814 12.3411 18.0477 11.8126C17.114 11.2842 16.794 10.1139 17.3331 9.1986C17.8722 8.28333 17.5523 7.11299 16.6186 6.58456C15.6849 6.05613 14.4909 6.36972 13.9519 7.28499Z" stroke="currentColor" stroke-linecap="round" stroke-linejoin="round" stroke-width="1.5" /></svg>