<svg xmlns="http://www.w3.org/2000/svg" width="24" height="24" viewBox="0 0 24 24" fill="none"><path d="M16.138 18.9493C14.4767 18.4529 13.0974 17.2428 12 16.1282C10.9026 17.2428 9.52326 18.4529 7.86201 18.9493C7.0273 19.1988 6.28877 18.4881 6.50754 17.6718C6.78501 16.6364 7.35923 15.5654 8.30824 14.6015C8.30824 14.6015 6.46081 14.9209 3.81791 14.0776C3.05617 13.8345 2.71706 13.0154 3.28083 12.4646C4.35383 11.4163 6.19616 10.5303 7.25345 10.5303C6.16951 9.79631 4.59663 8.05354 3.90726 6.41249C3.579 5.63107 4.27594 4.92255 5.13376 5.08315C6.99279 5.43119 8.77897 6.34797 9.89042 7.47689C9.89042 5.80231 10.2213 4.19236 10.9007 2.71887C11.3426 1.76038 12.6574 1.76038 13.0993 2.71887C13.7787 4.19236 14.1096 5.80231 14.1096 7.47689C15.221 6.34797 17.0072 5.43119 18.8662 5.08315C19.7241 4.92255 20.421 5.63107 20.0927 6.41249C19.4034 8.05354 17.8305 9.79631 16.7466 10.5303C17.8038 10.5303 19.6462 11.4163 20.7192 12.4646C21.2829 13.0154 20.9438 13.8345 20.1821 14.0776C17.5392 14.9209 15.6918 14.6015 15.6918 14.6015C16.6408 15.5654 17.215 16.6364 17.4925 17.6718C17.7112 18.4881 16.9727 19.1988 16.138 18.9493Z" stroke="currentColor" stroke-linecap="round" stroke-linejoin="round" stroke-width="1.5" /><path d="M12 16.5V22" stroke="currentColor" stroke-linecap="round" stroke-linejoin="round" stroke-width="1.5" /></svg>