<svg xmlns="http://www.w3.org/2000/svg" width="24" height="24" viewBox="0 0 24 24" fill="none" stroke-width="1.5" stroke-linecap="round" stroke-linejoin="round" color="currentColor"><path d="M2.5 17L2.05801 14.5262C1.4248 8.63648 6.05622 3.5 12 3.5C17.9438 3.5 22.5752 8.63648 21.942 14.5262L21.5 17" stroke="currentColor"></path><path d="M8.0157 10.5C7.81291 7.29507 9.59813 3.5 12 3.5" stroke="currentColor"></path><path d="M15.9999 10.5C16.2027 7.29507 14.4175 3.5 12.0156 3.5" stroke="currentColor"></path><path d="M12 3V2" stroke="currentColor"></path><path d="M2.5 17.0094C10.5 14.1428 13.5 14.5244 21.5 17.0094C21.2236 18.1308 21.0732 21.2996 19.851 21.8967C19.265 22.183 18.4247 21.7989 17.821 21.6547C14.9252 20.963 13.4773 20.6171 12 20.6171C10.5227 20.6171 9.07482 20.963 6.17904 21.6547C5.57535 21.7989 4.73502 22.183 4.14904 21.8967C2.92684 21.2996 2.77642 18.1308 2.5 17.0094Z" stroke="currentColor"></path></svg>