<svg xmlns="http://www.w3.org/2000/svg" width="24" height="24" viewBox="0 0 24 24" fill="none"><path d="M5 5.19043C4.51843 5.29022 4.12468 5.44233 3.77772 5.67416C3.34096 5.966 2.96596 6.341 2.67412 6.77776C2 7.78666 2 9.19112 2 12C2 14.809 2 16.2134 2.67412 17.2223C2.96596 17.6591 3.34096 18.0341 3.77772 18.3259C4.78661 19 6.19108 19 9 19H15C16.5282 19 17.6407 19 18.5 18.8915" stroke="currentColor" stroke-linecap="round" stroke-linejoin="round" stroke-width="1.5" /><path d="M21.4501 17.0182C22 16.023 22 14.6245 22 12C22 9.19108 22 7.78661 21.3259 6.77772C21.034 6.34096 20.659 5.96596 20.2223 5.67412C19.2134 5 17.8089 5 15 5H10" stroke="currentColor" stroke-linecap="round" stroke-linejoin="round" stroke-width="1.5" /><path d="M6 11H10.5" stroke="currentColor" stroke-linecap="round" stroke-linejoin="round" stroke-width="1.5" /><path d="M16 11H18" stroke="currentColor" stroke-linecap="round" stroke-linejoin="round" stroke-width="1.5" /><path d="M15 15H12" stroke="currentColor" stroke-linecap="round" stroke-linejoin="round" stroke-width="1.5" /><path d="M8 15H6" stroke="currentColor" stroke-linecap="round" stroke-linejoin="round" stroke-width="1.5" /><path d="M2 2L22 22" stroke="currentColor" stroke-linecap="round" stroke-linejoin="round" stroke-width="1.5" /></svg>