<svg xmlns="http://www.w3.org/2000/svg" width="24" height="24" viewBox="0 0 24 24" fill="none"><path d="M15 5H9C6.19108 5 4.78661 5 3.77772 5.67412C3.34096 5.96596 2.96596 6.34096 2.67412 6.77772C2 7.78661 2 9.19108 2 12C2 14.8089 2 16.2134 2.67412 17.2223C2.96596 17.659 3.34096 18.034 3.77772 18.3259C4.78661 19 6.19108 19 9 19H15C17.8089 19 19.2134 19 20.2223 18.3259C20.659 18.034 21.034 17.659 21.3259 17.2223C22 16.2134 22 14.8089 22 12C22 9.19108 22 7.78661 21.3259 6.77772C21.034 6.34096 20.659 5.96596 20.2223 5.67412C19.2134 5 17.8089 5 15 5Z" stroke="currentColor" stroke-linecap="round" stroke-linejoin="round" stroke-width="1.5" /><path d="M6 11H12" stroke="currentColor" stroke-linecap="round" stroke-linejoin="round" stroke-width="1.5" /><path d="M16 11H18" stroke="currentColor" stroke-linecap="round" stroke-linejoin="round" stroke-width="1.5" /><path d="M18 15H12" stroke="currentColor" stroke-linecap="round" stroke-linejoin="round" stroke-width="1.5" /><path d="M8 15H6" stroke="currentColor" stroke-linecap="round" stroke-linejoin="round" stroke-width="1.5" /></svg>