<svg xmlns="http://www.w3.org/2000/svg" width="24" height="24" viewBox="0 0 24 24" fill="none" stroke-width="1.5" stroke-linecap="round" stroke-linejoin="round" color="currentColor"><path d="M12.2598 6.31738C12.2598 8.93738 14.3898 11.0674 17.0098 11.0674C19.6298 11.0674 21.7598 8.93738 21.7598 6.31738C21.7598 3.69738 19.6298 1.56738 17.0098 1.56738C14.3898 1.56738 12.2598 3.69738 12.2598 6.31738ZM13.7598 6.31738C13.7598 4.52738 15.2198 3.06738 17.0098 3.06738C18.7998 3.06738 20.2598 4.52738 20.2598 6.31738C20.2598 8.10738 18.7998 9.56738 17.0098 9.56738C15.2198 9.56738 13.7598 8.10738 13.7598 6.31738ZM20.5091 23.0674H20.5103L20.4903 23.0774H20.4915C21.0308 23.0774 21.3505 23.0774 21.6603 22.9375C22.1003 22.7575 22.4403 22.4273 22.6103 21.9973C22.7503 21.6773 22.7503 21.3774 22.7503 20.8274V17.7473C22.7503 16.5173 22.7503 15.8375 22.5503 15.1575C22.3456 14.4851 21.9606 13.9077 21.3304 12.9626L21.3303 12.9625L21.3303 12.9625L21.3303 12.9625L21.3303 12.9625L21.2803 12.8875L20.6203 11.9075C20.4503 11.6475 20.1303 11.5174 19.8203 11.5974L18.2703 11.9873C18.2262 11.9989 18.1869 12.0094 18.1521 12.0188L18.1521 12.0188C18.0371 12.0497 17.971 12.0674 17.9403 12.0674H17.5103H6.49027H6.12027C6.02027 12.0474 5.92027 12.0273 5.70027 11.9673L5.02027 11.7974L5.65027 10.2974C6.39027 8.53736 6.71027 7.81727 7.25027 7.44727C7.8201 7.06738 8.70972 7.06738 10.4986 7.06738H10.5003C10.9103 7.06738 11.2503 6.72738 11.2503 6.31738C11.2503 5.90738 10.9103 5.56738 10.5003 5.56738H10.4991C8.47986 5.56738 7.37009 5.56738 6.42027 6.19727C5.48638 6.81658 5.06467 7.82247 4.30964 9.62338L4.27027 9.71729L3.68027 11.1375L2.45027 10.2173C2.12027 9.96729 1.65027 10.0374 1.40027 10.3674C1.15027 10.6974 1.22027 11.1675 1.55027 11.4175L2.98027 12.4873L2.72027 12.8774L2.67024 12.9525C2.03998 13.8976 1.65491 14.4751 1.45027 15.1475C1.25027 15.8275 1.25027 16.5073 1.25027 17.7373V17.7373V20.8174C1.25027 21.3674 1.25027 21.6673 1.38027 21.9773C1.56027 22.4173 1.90027 22.7575 2.32027 22.9275C2.65002 23.0674 2.9598 23.0674 3.49904 23.0674H3.50027H3.50151C4.04076 23.0674 4.36051 23.0674 4.67027 22.9275C5.11027 22.7475 5.45027 22.4173 5.62027 21.9873C5.76027 21.6673 5.76027 21.3674 5.76027 20.8174C5.76027 20.5574 5.76027 20.2873 5.78027 20.2173C5.81027 20.1573 5.85027 20.1174 5.92027 20.0874C5.99027 20.0674 6.25027 20.0674 6.51027 20.0674H17.5103C17.7703 20.0674 18.0303 20.0674 18.1103 20.0874C18.1703 20.1174 18.2103 20.1573 18.2403 20.2173C18.2603 20.2873 18.2603 20.5574 18.2603 20.8174C18.2603 21.3674 18.2603 21.6673 18.3903 21.9773C18.5703 22.4173 18.9103 22.7575 19.3303 22.9275C19.66 23.0674 19.9798 23.0674 20.5091 23.0674ZM6.52027 18.5674H6.51904C5.97979 18.5674 5.66004 18.5674 5.35027 18.7073C4.91027 18.8873 4.57027 19.2175 4.40027 19.6475C4.26027 19.9675 4.26027 20.2674 4.26027 20.8174V20.8174C4.26027 21.0774 4.26027 21.3475 4.24027 21.4175C4.21027 21.4775 4.17027 21.5174 4.10027 21.5474C3.97027 21.5874 3.07027 21.5974 2.91027 21.5474C2.85027 21.5174 2.81027 21.4775 2.78027 21.4175C2.76027 21.3475 2.76027 21.0774 2.76027 20.8174V17.7373C2.76027 16.6073 2.76027 16.0474 2.90027 15.5874C3.04027 15.1374 3.35027 14.6673 3.98027 13.7173L4.34027 13.1775L5.38027 13.4375L5.42014 13.4471L5.42017 13.4471C5.64364 13.5008 5.76121 13.529 5.95027 13.5574C6.09027 13.5674 6.22027 13.5674 6.50027 13.5674H17.5203C17.7903 13.5674 17.9303 13.5674 18.1303 13.5474C18.2603 13.5274 18.3903 13.4975 18.6703 13.4275L19.6803 13.1775L20.0403 13.7173C20.6703 14.6673 20.9803 15.1374 21.1203 15.5874C21.2603 16.0474 21.2603 16.6173 21.2603 17.7373V20.8174C21.2603 21.0774 21.2603 21.3475 21.2403 21.4175C21.2103 21.4775 21.1703 21.5174 21.1003 21.5474C20.9703 21.5874 20.0703 21.5974 19.9103 21.5474C19.8503 21.5174 19.8103 21.4775 19.7803 21.4175C19.7603 21.3475 19.7603 21.0774 19.7603 20.8174C19.7603 20.2674 19.7603 19.9675 19.6303 19.6575C19.4503 19.2175 19.1103 18.8773 18.6903 18.7073C18.3605 18.5674 18.0408 18.5674 17.5115 18.5674H17.5103H6.52027ZM17.0098 16.3274C17.0098 16.8774 17.4598 17.3274 18.0098 17.3274V17.3374C18.5598 17.3374 19.0098 16.8874 19.0098 16.3274C19.0098 15.7674 18.5598 15.3274 18.0098 15.3274C17.4598 15.3274 17.0098 15.7774 17.0098 16.3274ZM6.00977 17.3274C5.45977 17.3274 5.00977 16.8774 5.00977 16.3274C5.00977 15.7774 5.45977 15.3274 6.00977 15.3274C6.55977 15.3274 7.00977 15.7674 7.00977 16.3274C7.00977 16.8874 6.55977 17.3374 6.00977 17.3374V17.3274ZM17.0098 7.06738C16.5998 7.06738 16.2598 6.72738 16.2598 6.31738V4.31738C16.2598 3.90738 16.5998 3.56738 17.0098 3.56738C17.4198 3.56738 17.7598 3.90738 17.7598 4.31738V6.31738C17.7598 6.72738 17.4198 7.06738 17.0098 7.06738ZM16.2598 8.31738C16.2598 8.72738 16.5998 9.06738 17.0098 9.06738V9.07739C17.4198 9.07739 17.7598 8.73738 17.7598 8.31738C17.7598 7.89738 17.4198 7.56738 17.0098 7.56738C16.5998 7.56738 16.2598 7.90738 16.2598 8.31738Z" fill="currentColor" fill-rule="evenodd"></path></svg>