<svg xmlns="http://www.w3.org/2000/svg" width="24" height="24" viewBox="0 0 24 24" fill="none" stroke-width="1.5" stroke-linecap="round" stroke-linejoin="round" color="currentColor"><path d="M17.0098 11.0664C14.3898 11.0664 12.2598 8.93641 12.2598 6.31641C12.2598 3.69641 14.3898 1.56641 17.0098 1.56641C19.6298 1.56641 21.7598 3.69641 21.7598 6.31641C21.7598 8.93641 19.6298 11.0664 17.0098 11.0664ZM17.0098 3.06641C15.2198 3.06641 13.7598 4.52641 13.7598 6.31641C13.7598 8.10641 15.2198 9.56641 17.0098 9.56641C18.7998 9.56641 20.2598 8.10641 20.2598 6.31641C20.2598 4.52641 18.7998 3.06641 17.0098 3.06641ZM20.5103 23.0664H20.5091C19.9798 23.0664 19.66 23.0664 19.3303 22.9265C18.9103 22.7565 18.5703 22.4163 18.3903 21.9763C18.2603 21.6663 18.2603 21.3664 18.2603 20.8164C18.2603 20.5564 18.2603 20.2863 18.2403 20.2163C18.2103 20.1563 18.1703 20.1164 18.1103 20.0864C18.0303 20.0664 17.7703 20.0664 17.5103 20.0664H6.51027C6.25027 20.0664 5.99027 20.0664 5.92027 20.0864C5.85027 20.1164 5.81027 20.1563 5.78027 20.2163C5.76027 20.2863 5.76027 20.5564 5.76027 20.8164C5.76027 21.3664 5.76027 21.6663 5.62027 21.9863C5.45027 22.4163 5.11027 22.7465 4.67027 22.9265C4.36051 23.0664 4.04076 23.0664 3.50151 23.0664H3.50027H3.49904C2.9598 23.0664 2.65002 23.0664 2.32027 22.9265C1.90027 22.7565 1.56027 22.4163 1.38027 21.9763C1.25027 21.6663 1.25027 21.3664 1.25027 20.8164V17.7363V17.7363C1.25027 16.5063 1.25027 15.8265 1.45027 15.1465C1.65491 14.4741 2.03998 13.8966 2.67024 12.9515L2.72027 12.8765L2.98027 12.4863L1.55027 11.4165C1.22027 11.1665 1.15027 10.6965 1.40027 10.3665C1.65027 10.0365 2.12027 9.96631 2.45027 10.2163L3.68027 11.1365L4.27027 9.71631L4.30964 9.6224C5.06467 7.82149 5.48638 6.81561 6.42027 6.19629C7.37009 5.56641 8.47986 5.56641 10.4991 5.56641H10.5003C10.9103 5.56641 11.2503 5.90641 11.2503 6.31641C11.2503 6.72641 10.9103 7.06641 10.5003 7.06641H10.4986C8.70972 7.06641 7.8201 7.06641 7.25027 7.44629C6.71027 7.81629 6.39027 8.53639 5.65027 10.2964L5.02027 11.7964L5.70027 11.9663C5.92027 12.0263 6.02027 12.0464 6.12027 12.0664H6.49027H17.5103H17.9403C17.971 12.0664 18.0371 12.0487 18.1521 12.0178L18.1521 12.0178C18.1869 12.0085 18.2262 11.9979 18.2703 11.9863L19.8203 11.5964C20.1303 11.5164 20.4503 11.6465 20.6203 11.9065L21.2803 12.8865L21.3303 12.9615L21.3303 12.9615L21.3303 12.9616L21.3303 12.9616C21.9606 13.9067 22.3456 14.4841 22.5503 15.1565C22.7503 15.8365 22.7503 16.5163 22.7503 17.7463V20.8264C22.7503 21.3764 22.7503 21.6763 22.6103 21.9963C22.4403 22.4263 22.1003 22.7565 21.6603 22.9365C21.3505 23.0764 21.0308 23.0764 20.4915 23.0764H20.4903L20.5103 23.0664ZM6.51904 18.5664H6.52027H17.5103H17.5115C18.0408 18.5664 18.3605 18.5664 18.6903 18.7063C19.1103 18.8763 19.4503 19.2165 19.6303 19.6565C19.7603 19.9665 19.7603 20.2664 19.7603 20.8164C19.7603 21.0764 19.7603 21.3465 19.7803 21.4165C19.8103 21.4765 19.8503 21.5164 19.9103 21.5464C20.0703 21.5964 20.9703 21.5864 21.1003 21.5464C21.1703 21.5164 21.2103 21.4765 21.2403 21.4165C21.2603 21.3465 21.2603 21.0764 21.2603 20.8164V17.7363C21.2603 16.6163 21.2603 16.0464 21.1203 15.5864C20.9803 15.1364 20.6703 14.6663 20.0403 13.7163L19.6803 13.1765L18.6703 13.4265C18.3903 13.4965 18.2603 13.5264 18.1303 13.5464C17.9303 13.5664 17.7903 13.5664 17.5203 13.5664H6.50027C6.22027 13.5664 6.09027 13.5664 5.95027 13.5564C5.76121 13.528 5.64364 13.4998 5.42017 13.4461L5.42014 13.4461L5.38027 13.4365L4.34027 13.1765L3.98027 13.7163C3.35027 14.6663 3.04027 15.1364 2.90027 15.5864C2.76027 16.0464 2.76027 16.6063 2.76027 17.7363V20.8164C2.76027 21.0764 2.76027 21.3465 2.78027 21.4165C2.81027 21.4765 2.85027 21.5164 2.91027 21.5464C3.07027 21.5964 3.97027 21.5864 4.10027 21.5464C4.17027 21.5164 4.21027 21.4765 4.24027 21.4165C4.26027 21.3465 4.26027 21.0764 4.26027 20.8165V20.8164C4.26027 20.2664 4.26027 19.9665 4.40027 19.6465C4.57027 19.2165 4.91027 18.8863 5.35027 18.7063C5.66004 18.5664 5.97979 18.5664 6.51904 18.5664ZM18.0098 17.3264C17.4598 17.3264 17.0098 16.8764 17.0098 16.3264C17.0098 15.7764 17.4598 15.3264 18.0098 15.3264C18.5598 15.3264 19.0098 15.7664 19.0098 16.3264C19.0098 16.8864 18.5598 17.3364 18.0098 17.3364V17.3264ZM5.00977 16.3264C5.00977 16.8764 5.45977 17.3264 6.00977 17.3264V17.3364C6.55977 17.3364 7.00977 16.8864 7.00977 16.3264C7.00977 15.7664 6.55977 15.3264 6.00977 15.3264C5.45977 15.3264 5.00977 15.7764 5.00977 16.3264ZM18.2698 7.52637C18.3498 7.55637 18.4298 7.56641 18.5098 7.56641C18.8198 7.56641 19.1198 7.3664 19.2198 7.0564C19.3498 6.6664 19.1398 6.23645 18.7498 6.10645L17.7598 5.77637V4.31641C17.7598 3.90641 17.4198 3.56641 17.0098 3.56641C16.5998 3.56641 16.2598 3.90641 16.2598 4.31641V6.31641C16.2598 6.63641 16.4598 6.92637 16.7698 7.02637L18.2698 7.52637Z" fill="currentColor" fill-rule="evenodd"></path></svg>