<svg xmlns="http://www.w3.org/2000/svg" width="24" height="24" viewBox="0 0 24 24" fill="none" stroke-width="1.5" stroke-linecap="round" stroke-linejoin="round" color="currentColor"><path d="M19.33 20.9324C19.6579 21.0715 19.976 21.0723 20.5001 21.0723C21.034 21.0723 21.3519 21.0715 21.66 20.9324C22.1 20.7524 22.44 20.4222 22.61 19.9922C22.75 19.6722 22.75 19.3723 22.75 18.8223V15.7422C22.75 14.5122 22.75 13.8323 22.55 13.1523C22.3454 12.48 21.9603 11.9025 21.3301 10.9574L21.28 10.8823L21.0194 10.4956L22.4503 9.42244C22.7803 9.17244 22.8503 8.70239 22.6003 8.37239C22.3503 8.04239 21.8803 7.97224 21.5503 8.22224L20.3206 9.14462L19.73 7.72217C18.96 5.86217 18.53 4.83238 17.58 4.19238C16.63 3.57238 15.52 3.57227 13.5 3.57227H10.5H10.4989C8.47959 3.57227 7.36982 3.57227 6.42 4.20215C5.48611 4.82147 5.0644 5.82735 4.30937 7.62826L4.27 7.72217L3.67956 9.14431L2.45027 8.22224C2.12027 7.97224 1.65027 8.04239 1.40027 8.37239C1.15027 8.70239 1.22027 9.17244 1.55027 9.42244L2.98077 10.4953L2.72 10.8823L2.66997 10.9574C2.03971 11.9025 1.65464 12.48 1.45 13.1523C1.25 13.8323 1.25 14.5122 1.25 15.7422V18.8223C1.25 19.3723 1.25 19.6722 1.38 19.9822C1.56 20.4222 1.9 20.7624 2.32 20.9324C2.64975 21.0723 2.95953 21.0723 3.49877 21.0723H3.5H3.50124C4.04049 21.0723 4.36024 21.0723 4.67 20.9324C5.11 20.7524 5.45 20.4222 5.62 19.9922C5.76 19.6722 5.76 19.3723 5.76 18.8223C5.76 18.5623 5.76 18.2922 5.78 18.2222C5.81 18.1622 5.85 18.1223 5.92 18.0923C5.99 18.0723 6.25 18.0723 6.51 18.0723H17.51C17.77 18.0723 18.03 18.0723 18.11 18.0923C18.17 18.1223 18.21 18.1622 18.24 18.2222C18.26 18.2922 18.26 18.5623 18.26 18.8223C18.26 19.3723 18.26 19.6722 18.39 19.9822C18.57 20.4222 18.91 20.7624 19.33 20.9324ZM4.33455 11.1809L5.58027 11.4923C5.79027 11.5423 6.02027 11.5723 6.25027 11.5723H17.7503C17.9803 11.5723 18.2103 11.5423 18.4203 11.4923L19.6741 11.1788L20.04 11.7222C20.67 12.6722 20.98 13.1423 21.12 13.5923C21.26 14.0523 21.26 14.6222 21.26 15.7422V18.8223C21.26 19.0823 21.26 19.3524 21.24 19.4224C21.21 19.4824 21.17 19.5222 21.1 19.5522C20.97 19.5922 20.07 19.6022 19.91 19.5522C19.85 19.5222 19.81 19.4824 19.78 19.4224C19.76 19.3524 19.76 19.0823 19.76 18.8223C19.76 18.2723 19.76 17.9724 19.63 17.6624C19.45 17.2224 19.11 16.8822 18.69 16.7122C18.3603 16.5723 18.0405 16.5723 17.5112 16.5723H17.51H6.51H6.50875C5.96951 16.5723 5.64976 16.5723 5.34 16.7122C4.9 16.8922 4.56 17.2223 4.39 17.6523C4.25 17.9723 4.25 18.2723 4.25 18.8223C4.25 19.0823 4.25 19.3524 4.23 19.4224C4.2 19.4824 4.16 19.5222 4.09 19.5522C3.96 19.5922 3.06 19.6022 2.9 19.5522C2.84 19.5222 2.8 19.4824 2.77 19.4224C2.75 19.3524 2.75 19.0823 2.75 18.8223V15.7422C2.75 14.6122 2.75 14.0523 2.89 13.5923C3.03 13.1423 3.34 12.6722 3.97 11.7222L4.33455 11.1809ZM5.03453 9.80732L5.66 8.30225C6.4 6.54225 6.72 5.82215 7.26 5.45215C7.82982 5.07227 8.71945 5.07227 10.5083 5.07227H10.51H13.51C15.29 5.07227 16.19 5.07238 16.75 5.44238C17.3 5.81238 17.62 6.54225 18.35 8.30225L18.9742 9.80423L18.0503 10.0323C17.9503 10.0623 17.8503 10.0723 17.7503 10.0723H6.24027C6.14027 10.0723 6.04027 10.0623 5.94027 10.0323L5.03453 9.80732ZM18.0098 15.3323C17.4598 15.3323 17.0098 14.8823 17.0098 14.3323C17.0098 13.7823 17.4598 13.3323 18.0098 13.3323C18.5598 13.3323 19.0098 13.7723 19.0098 14.3323C19.0098 14.8923 18.5598 15.3423 18.0098 15.3423V15.3323ZM5.00977 14.3323C5.00977 14.8823 5.45977 15.3323 6.00977 15.3323V15.3423C6.55977 15.3423 7.00977 14.8923 7.00977 14.3323C7.00977 13.7723 6.55977 13.3323 6.00977 13.3323C5.45977 13.3323 5.00977 13.7823 5.00977 14.3323Z" fill="currentColor"></path></svg>