<svg xmlns="http://www.w3.org/2000/svg" width="24" height="24" viewBox="0 0 24 24" fill="none"><path d="M17.6569 4.65686L17.2782 4.27817C16.1867 3.18667 15.6409 2.64091 14.954 2.33869C14.9008 2.3153 14.8472 2.29308 14.793 2.27203C14.0936 2 13.3218 2 11.7782 2C8.22226 2 6.44431 2 5.29741 3.0511C5.21177 3.12959 5.12959 3.21177 5.0511 3.29741C4 4.44431 4 6.22226 4 9.77817V14C4 17.7712 4 19.6569 5.17157 20.8284C6.34315 22 8.22876 22 12 22C15.7712 22 17.6569 22 18.8284 20.8284C20 19.6569 20 17.7712 20 14V10.3137C20 8.67871 20 7.8612 19.6955 7.12612C19.391 6.39104 18.813 5.81297 17.6569 4.65686Z" stroke="currentColor" stroke-linecap="round" stroke-linejoin="round" stroke-width="1.5" /><path d="M8.58579 17.4142C9.17157 18 10.1144 18 12 18C13.8856 18 14.8284 18 15.4142 17.4142C16 16.8284 16 15.8856 16 14C16 12.1144 16 11.1716 15.4142 10.5858C14.8284 10 13.8856 10 12 10C10.1144 10 9.17157 10 8.58579 10.5858C8 11.1716 8 12.1144 8 14C8 15.8856 8 16.8284 8.58579 17.4142Z" stroke="currentColor" stroke-linecap="round" stroke-linejoin="round" stroke-width="1.5" /><path d="M12 10V18" stroke="currentColor" stroke-linecap="round" stroke-linejoin="round" stroke-width="1.5" /><path d="M12 14H16" stroke="currentColor" stroke-linecap="round" stroke-linejoin="round" stroke-width="1.5" /></svg>