<svg xmlns="http://www.w3.org/2000/svg" width="24" height="24" viewBox="0 0 24 24" fill="none" stroke-width="1.5" stroke-linecap="round" stroke-linejoin="round" color="currentColor"><path d="M2 12C2 17.5228 6.47715 22 12 22C17.5228 22 22 17.5228 22 12C22 6.47715 17.5228 2 12 2C7.89936 2 4.3752 4.46819 2.83209 8M2 4.5L2.5 8.5L6.5 7.5" fill="none"></path><path d="M12.5 12C11.1193 12 10 10.8807 10 9.5C10 8.11929 11.1193 7 12.5 7C13.8807 7 15 8.11929 15 9.5M12.5 12C11.5 14.5 9 16 9 16H13.5858C14.4913 16 15.3597 15.6403 16 15M12.5 12H9M12.5 12H14" fill="none"></path></svg>