<svg xmlns="http://www.w3.org/2000/svg" width="24" height="24" viewBox="0 0 24 24" fill="none" stroke-width="1.5" stroke-linecap="round" stroke-linejoin="round" color="currentColor"><path d="M2.01709 13.5C4.21666 13.5 5.99977 15.2831 5.99977 17.4827" fill="none"></path><path d="M18 17.4827V17.3908C18 15.242 19.742 13.5 21.8908 13.5" fill="none"></path><path d="M5.99977 3.51562C5.99977 5.7152 4.21666 7.4983 2.01709 7.4983" fill="none"></path><path d="M18 3.51562C18 5.69594 19.769 7.46705 21.9423 7.49789" fill="none"></path><path d="M16 3.5H8C5.17157 3.5 3.75736 3.5 2.87868 4.37868C2 5.25736 2 6.67157 2 9.5V11.5C2 14.3284 2 15.7426 2.87868 16.6213C3.75736 17.5 5.17157 17.5 8 17.5H16C18.8284 17.5 20.2426 17.5 21.1213 16.6213C22 15.7426 22 14.3284 22 11.5V9.5C22 6.67157 22 5.25736 21.1213 4.37868C20.2426 3.5 18.8284 3.5 16 3.5Z" fill="none"></path><path d="M5 20.5H19" fill="none"></path><path d="M15 10.5C15 12.1569 13.6569 13.5 12 13.5C10.3431 13.5 9 12.1569 9 10.5C9 8.84315 10.3431 7.5 12 7.5C13.6569 7.5 15 8.84315 15 10.5Z" fill="none"></path></svg>