<svg xmlns="http://www.w3.org/2000/svg" width="24" height="24" viewBox="0 0 24 24" fill="none" stroke-width="1.5" stroke-linecap="round" stroke-linejoin="round" color="currentColor"><path d="M2 12C2 17.5228 6.47715 22 12 22C17.5228 22 22 17.5228 22 12C22 6.47715 17.5228 2 12 2C7.89936 2 4.3752 4.46819 2.83209 8M2 4.5L2.5 8.5L6.5 7.5" stroke="currentColor"></path><path d="M14.7258 10.0603C14.6269 9.29771 13.7528 8.06549 12.1813 8.06546C10.3551 8.06543 9.58679 9.07873 9.43087 9.58538C9.18764 10.263 9.23628 11.6563 11.3767 11.8083C14.0523 11.9983 15.1241 12.3146 14.9877 13.9552C14.8514 15.5958 13.3599 15.9502 12.1813 15.9122C11.0025 15.8742 9.07404 15.3318 8.99921 13.8726M11.9942 6.49927V8.06908M11.9942 15.9024V17.4993" stroke="currentColor"></path></svg>