<svg xmlns="http://www.w3.org/2000/svg" width="24" height="24" viewBox="0 0 24 24" fill="none"><path d="M8 11.0059V11.5059" stroke="currentColor" stroke-linecap="round" stroke-linejoin="round" stroke-width="1.5" /><path d="M16 11.0059V11.5059" stroke="currentColor" stroke-linecap="round" stroke-linejoin="round" stroke-width="1.5" /><path d="M11 15.0039H13L12 16.0039L11 15.0039Z" stroke="currentColor" stroke-linecap="round" stroke-linejoin="round" stroke-width="1.5" /><path d="M12 21C7.02944 21 3 17.4204 3 13.0048C3 12.0531 3.18719 11.1402 3.53066 10.2936C3.73678 9.78553 3.83984 9.5315 3.85136 9.37485C3.86289 9.2182 3.79135 8.92393 3.64826 8.3354L3.64826 8.33539C3.48638 7.66957 3.4236 6.9388 3.42029 6.21803C3.41215 4.45075 3.40808 3.56711 4.21032 3.14258C5.01255 2.71805 5.82239 3.27349 7.44206 4.38436C7.57926 4.47847 7.71208 4.56999 7.83857 4.65769L7.83858 4.65769C8.41215 5.05532 8.69893 5.25414 8.88778 5.29711C9.07663 5.34007 9.51313 5.27022 10.3861 5.13051L10.3861 5.13051C10.8215 5.06083 11.3595 5.00958 12 5.00958C12.6405 5.00958 13.1785 5.06083 13.6139 5.13051L13.6139 5.13051C14.4869 5.27022 14.9234 5.34007 15.1122 5.29711C15.3011 5.25414 15.5878 5.05533 16.1614 4.6577L16.1614 4.65769C16.2879 4.56999 16.4207 4.47847 16.5579 4.38436C18.1776 3.27349 18.9874 2.71805 19.7897 3.14258C20.5919 3.56711 20.5878 4.45075 20.5797 6.21803C20.5764 6.9388 20.5136 7.66957 20.3517 8.33539C20.2087 8.92393 20.1371 9.2182 20.1486 9.37485C20.1602 9.5315 20.2632 9.78553 20.4693 10.2936C20.8128 11.1402 21 12.0531 21 13.0048C21 17.4204 16.9706 21 12 21Z" stroke="currentColor" stroke-linecap="round" stroke-linejoin="round" stroke-width="1.5" /></svg>