<svg xmlns="http://www.w3.org/2000/svg" width="24" height="24" viewBox="0 0 24 24" fill="none"><path d="M8.08665 13.5V15C8.08665 16.8856 8.08665 17.8284 7.49072 18.4142C6.89478 19 5.93563 19 4.01733 19H3" stroke="currentColor" stroke-linecap="round" stroke-linejoin="round" stroke-width="1.5" /><path d="M3 17V21" stroke="currentColor" stroke-linecap="round" stroke-linejoin="round" stroke-width="1.5" /><path d="M8 3C8.27336 3.09886 8.57042 3.21 8.89516 3.33149L17.6375 6.60223C19.1243 7.15852 19.8678 7.43666 19.9852 8.04464C20.1026 8.65262 19.5187 9.20029 18.3507 10.2956L16.5335 12" stroke="currentColor" stroke-linecap="round" stroke-linejoin="round" stroke-width="1.5" /><path d="M4.61554 5C4.48179 5.35097 4.33952 5.75274 4.17734 6.21075L3.77687 7.34171C3.1182 9.20182 2.78887 10.1319 3.14701 10.9202C3.50515 11.7085 4.41112 12.0476 6.22308 12.726L10.8152 14.4451C11.9522 14.8708 12.5208 15.0836 13.0826 14.9695C13.3921 14.9066 13.6666 14.7512 14 14.4842" stroke="currentColor" stroke-linecap="round" stroke-linejoin="round" stroke-width="1.5" /><path d="M20.5859 12.25C20.972 12.7236 21.1138 13.4084 20.9016 14.0466L20.6321 14.8572C20.5817 15.0085 20.5387 15.1378 20.5002 15.25" stroke="currentColor" stroke-linecap="round" stroke-linejoin="round" stroke-width="1.5" /><path d="M3 3L21 21" stroke="currentColor" stroke-linecap="round" stroke-linejoin="round" stroke-width="1.5" /></svg>