<svg xmlns="http://www.w3.org/2000/svg" width="24" height="24" viewBox="0 0 24 24" fill="none"><path d="M3 3V13C3 16.7712 3 18.6569 4.17157 19.8284C5.34315 21 7.22876 21 11 21H21" stroke="currentColor" stroke-linecap="round" stroke-linejoin="round" stroke-width="1.5" /><path d="M15 17H9.82843C9.05733 17 8.67178 17 8.36077 16.8958C7.76904 16.6975 7.3045 16.2361 7.1049 15.6483C7 15.3393 7 14.9563 7 14.1904C7 13.8552 7 13.6876 7.0264 13.5278C7.07629 13.2258 7.19574 12.9393 7.37543 12.6907C7.47051 12.5592 7.58982 12.4407 7.82843 12.2036L8.70852 11.3294C9.32187 10.7201 9.62855 10.4155 10.0161 10.398C10.4036 10.3806 10.7367 10.6564 11.4031 11.208L11.5969 11.3684C12.2633 11.92 12.5964 12.1958 12.9839 12.1784C13.3715 12.1609 13.6781 11.8563 14.2915 11.247L15.5858 9.96127C17.0388 8.51787 17.7654 7.79617 18.3827 8.05017C19 8.30417 19 9.32481 19 11.3661V13.0266C19 14.8997 19 15.8362 18.4142 16.4181C17.8284 17 16.8856 17 15 17Z" stroke="currentColor" stroke-linecap="round" stroke-linejoin="round" stroke-width="1.5" /></svg>