<svg xmlns="http://www.w3.org/2000/svg" width="24" height="24" viewBox="0 0 24 24" fill="none" stroke-width="1.5" stroke-linecap="round" stroke-linejoin="round" color="currentColor"><path d="M9 21.0723H21C21.41 21.0723 21.75 20.7323 21.75 20.3223C21.75 19.9123 21.41 19.5723 21 19.5723H9H8.99896C6.37965 19.5723 5.06995 19.5723 4.41003 18.9124C3.75003 18.2524 3.75 16.9423 3.75 14.3223V4.32227C3.75 3.91227 3.41 3.57227 3 3.57227C2.59 3.57227 2.25 3.91227 2.25 4.32227V14.3223V14.3225C2.25 17.3523 2.25 18.8724 3.34998 19.9724C4.44983 21.0723 5.96959 21.0723 8.99879 21.0723H9ZM5.46945 14.8523C5.61945 15.0023 5.80948 15.0722 5.99948 15.0722C6.18948 15.0722 6.37951 15.0023 6.52951 14.8523L9.77951 11.6023C10.2595 11.1223 10.6095 10.7724 10.7995 10.7224C10.9295 10.6824 11.0594 10.6824 11.2094 10.7224C11.3894 10.7724 11.7395 11.1223 12.2195 11.6023C12.9395 12.3223 13.3295 12.7123 13.8795 12.8623C14.2895 12.9823 14.7195 12.9823 15.1095 12.8623C15.6695 12.7123 16.0595 12.3223 16.7795 11.6023L20.5295 7.85227C20.8195 7.56227 20.8195 7.08221 20.5295 6.79221C20.2395 6.50221 19.7595 6.50221 19.4695 6.79221L15.7195 10.5422L15.7184 10.5433C15.2389 11.0227 14.8893 11.3724 14.6994 11.4223C14.5694 11.4623 14.4395 11.4623 14.2895 11.4223C14.1097 11.3724 13.7601 11.0228 13.2808 10.5435L13.2795 10.5422C12.5595 9.82221 12.1695 9.4322 11.6195 9.2822C11.2095 9.1622 10.7795 9.1622 10.3895 9.2822C9.8295 9.4322 9.43945 9.82221 8.71945 10.5422L5.46945 13.7922C5.17945 14.0822 5.17945 14.5623 5.46945 14.8523Z" fill="currentColor" fill-rule="evenodd"></path></svg>