<svg xmlns="http://www.w3.org/2000/svg" width="24" height="24" viewBox="0 0 24 24" fill="none" stroke-width="1.5" stroke-linecap="round" stroke-linejoin="round" color="currentColor"><path d="M18.5862 10.4605L17.658 9.30176C17.398 8.98176 17.448 8.50177 17.778 8.25177C18.108 7.99177 18.578 8.04177 18.828 8.37177L20.828 10.8718C21.088 11.1918 21.038 11.6718 20.708 11.9218L18.208 13.9218C18.068 14.0318 17.908 14.0818 17.738 14.0818L17.748 14.0718C17.528 14.0718 17.308 13.9717 17.158 13.7917C16.898 13.4717 16.948 12.9918 17.278 12.7418L18.2775 11.9412C15.6613 11.5625 9.95353 10.0878 4.2175 4.35178C3.9275 4.06178 3.9275 3.58172 4.2175 3.29172C4.5075 3.00172 4.9875 3.00172 5.2775 3.29172C10.7474 8.76157 16.2521 10.1226 18.5862 10.4605ZM5.75 22.5723C5.22 22.5723 4.9 22.5723 4.58 22.4423C4.15 22.2623 3.81 21.9222 3.63 21.4922C3.5 21.1722 3.5 20.8523 3.5 20.3223V11.3223C3.5 10.7923 3.5 10.4723 3.63 10.1523C3.81 9.72228 4.15 9.38227 4.58 9.20227C4.9 9.07227 5.22 9.07227 5.75 9.07227C6.28 9.07227 6.6 9.07227 6.92 9.20227C7.35 9.38227 7.69 9.72228 7.87 10.1523C8 10.4723 8 10.7923 8 11.3223V20.3223C8 20.8523 8 21.1722 7.87 21.4922C7.69 21.9222 7.35 22.2623 6.92 22.4423C6.6 22.5723 6.28 22.5723 5.75 22.5723ZM5.75 10.5723C5.49 10.5723 5.22 10.5723 5.15 10.5923C5.09 10.6123 5.05 10.6623 5.02 10.7223C5 10.7823 5 11.0523 5 11.3223V20.3223C5 20.5823 5 20.8522 5.02 20.9222C5.04 20.9822 5.09 21.0322 5.15 21.0522C5.28 21.0922 6.21 21.0922 6.35 21.0522C6.41 21.0322 6.45 20.9822 6.48 20.9222C6.5 20.8622 6.5 20.5923 6.5 20.3223V20.3223V11.3223V11.3222C6.5 11.0622 6.5 10.7923 6.48 10.7223C6.46 10.6623 6.41 10.6123 6.35 10.5923C6.29 10.5723 6.02 10.5723 5.75 10.5723ZM12.75 22.5723C12.22 22.5723 11.9 22.5723 11.58 22.4423C11.15 22.2623 10.81 21.9222 10.63 21.4922C10.5 21.1722 10.5 20.8523 10.5 20.3223V14.8223C10.5 14.2923 10.5 13.9723 10.63 13.6523C10.81 13.2223 11.15 12.8823 11.58 12.7023C11.9 12.5723 12.22 12.5723 12.75 12.5723C13.28 12.5723 13.6 12.5723 13.92 12.7023C14.35 12.8823 14.69 13.2223 14.87 13.6523C15 13.9723 15 14.2923 15 14.8223V20.3223C15 20.8523 15 21.1722 14.87 21.4922C14.69 21.9222 14.35 22.2623 13.92 22.4423C13.6 22.5723 13.28 22.5723 12.75 22.5723ZM12.75 14.0723C12.49 14.0723 12.22 14.0723 12.15 14.0923C12.09 14.1123 12.05 14.1623 12.02 14.2223C12 14.2823 12 14.5523 12 14.8223V20.3223C12 20.5823 12 20.8522 12.02 20.9222C12.04 20.9822 12.09 21.0322 12.15 21.0522C12.28 21.0922 13.21 21.0922 13.35 21.0522C13.41 21.0322 13.45 20.9822 13.48 20.9222C13.5 20.8622 13.5 20.5923 13.5 20.3223V14.8223C13.5 14.5623 13.5 14.2923 13.48 14.2223C13.46 14.1623 13.41 14.1123 13.35 14.0923C13.29 14.0723 13.02 14.0723 12.75 14.0723ZM18.58 22.4423C18.9 22.5723 19.22 22.5723 19.75 22.5723C20.28 22.5723 20.6 22.5723 20.92 22.4423C21.35 22.2623 21.69 21.9222 21.87 21.4922C22 21.1722 22 20.8523 22 20.3223V17.3223C22 16.7923 22 16.4723 21.87 16.1523C21.69 15.7223 21.35 15.3823 20.92 15.2023C20.6 15.0723 20.28 15.0723 19.75 15.0723C19.22 15.0723 18.9 15.0723 18.58 15.2023C18.15 15.3823 17.81 15.7223 17.63 16.1523C17.5 16.4723 17.5 16.7923 17.5 17.3223V20.3223C17.5 20.8523 17.5 21.1722 17.63 21.4922C17.81 21.9222 18.15 22.2623 18.58 22.4423ZM19.15 16.5923C19.22 16.5723 19.49 16.5723 19.75 16.5723C20.02 16.5723 20.29 16.5723 20.35 16.5923C20.41 16.6123 20.46 16.6623 20.48 16.7223C20.5 16.7923 20.5 17.0623 20.5 17.3223V20.3223C20.5 20.5923 20.5 20.8622 20.48 20.9222C20.45 20.9822 20.41 21.0322 20.35 21.0522C20.21 21.0922 19.28 21.0922 19.15 21.0522C19.09 21.0322 19.04 20.9822 19.02 20.9222C19 20.8522 19 20.5823 19 20.3223V17.3223C19 17.0523 19 16.7823 19.02 16.7223C19.05 16.6623 19.09 16.6123 19.15 16.5923Z" fill="currentColor" fill-rule="evenodd"></path></svg>