<svg xmlns="http://www.w3.org/2000/svg" width="24" height="24" viewBox="0 0 24 24" fill="none"><path d="M13.5 19.5V4.5C13.5 4.03406 13.5 3.80109 13.4239 3.61732C13.3224 3.37229 13.1277 3.17761 12.8827 3.07612C12.6989 3 12.4659 3 12 3C11.5341 3 11.3011 3 11.1173 3.07612C10.8723 3.17761 10.6776 3.37229 10.5761 3.61732C10.5 3.80109 10.5 4.03406 10.5 4.5V19.5C10.5 19.9659 10.5 20.1989 10.5761 20.3827C10.6776 20.6277 10.8723 20.8224 11.1173 20.9239C11.3011 21 11.5341 21 12 21C12.4659 21 12.6989 21 12.8827 20.9239C13.1277 20.8224 13.3224 20.6277 13.4239 20.3827C13.5 20.1989 13.5 19.9659 13.5 19.5Z" stroke="currentColor" stroke-linecap="round" stroke-linejoin="round" stroke-width="1.5" /><path d="M7 19.5V15.5C7 15.0341 7 14.8011 6.92388 14.6173C6.82239 14.3723 6.62771 14.1776 6.38268 14.0761C6.19891 14 5.96594 14 5.5 14C5.03406 14 4.80109 14 4.61732 14.0761C4.37229 14.1776 4.17761 14.3723 4.07612 14.6173C4 14.8011 4 15.0341 4 15.5V19.5C4 19.9659 4 20.1989 4.07612 20.3827C4.17761 20.6277 4.37229 20.8224 4.61732 20.9239C4.80109 21 5.03406 21 5.5 21C5.96594 21 6.19891 21 6.38268 20.9239C6.62771 20.8224 6.82239 20.6277 6.92388 20.3827C7 20.1989 7 19.9659 7 19.5Z" stroke="currentColor" stroke-linecap="round" stroke-linejoin="round" stroke-width="1.5" /><path d="M20 19.5V10.5C20 10.0341 20 9.80109 19.9239 9.61732C19.8224 9.37229 19.6277 9.17761 19.3827 9.07612C19.1989 9 18.9659 9 18.5 9C18.0341 9 17.8011 9 17.6173 9.07612C17.3723 9.17761 17.1776 9.37229 17.0761 9.61732C17 9.80109 17 10.0341 17 10.5V19.5C17 19.9659 17 20.1989 17.0761 20.3827C17.1776 20.6277 17.3723 20.8224 17.6173 20.9239C17.8011 21 18.0341 21 18.5 21C18.9659 21 19.1989 21 19.3827 20.9239C19.6277 20.8224 19.8224 20.6277 19.9239 20.3827C20 20.1989 20 19.9659 20 19.5Z" stroke="currentColor" stroke-linecap="round" stroke-linejoin="round" stroke-width="1.5" /></svg>