<svg xmlns="http://www.w3.org/2000/svg" width="24" height="24" viewBox="0 0 24 24" fill="none"><path d="M7 15V16C7 16.5523 7.44772 17 8 17H14C14.5523 17 15 16.5523 15 16V15C15 14.4477 14.5523 14 14 14H8C7.44772 14 7 14.4477 7 15Z" stroke="currentColor" stroke-linecap="round" stroke-linejoin="round" stroke-width="1.5" /><path d="M7 8V9C7 9.55228 7.44772 10 8 10H18C18.5523 10 19 9.55228 19 9V8C19 7.44772 18.5523 7 18 7H8C7.44772 7 7 7.44772 7 8Z" stroke="currentColor" stroke-linecap="round" stroke-linejoin="round" stroke-width="1.5" /><path d="M15 7V10" stroke="currentColor" stroke-linecap="round" stroke-linejoin="round" stroke-width="1.5" /><path d="M11 14V17" stroke="currentColor" stroke-linecap="round" stroke-linejoin="round" stroke-width="1.5" /><path d="M3 3V13C3 16.7712 3 18.6569 4.17157 19.8284C5.34315 21 7.22876 21 11 21H21" stroke="currentColor" stroke-linecap="round" stroke-linejoin="round" stroke-width="1.5" /></svg>