<svg xmlns="http://www.w3.org/2000/svg" width="24" height="24" viewBox="0 0 24 24" fill="none"><path d="M13.5 19.5V10.5C13.5 10.0341 13.5 9.80109 13.4239 9.61732C13.3224 9.37229 13.1277 9.17761 12.8827 9.07612C12.6989 9 12.4659 9 12 9C11.5341 9 11.3011 9 11.1173 9.07612C10.8723 9.17761 10.6776 9.37229 10.5761 9.61732C10.5 9.80109 10.5 10.0341 10.5 10.5V19.5C10.5 19.9659 10.5 20.1989 10.5761 20.3827C10.6776 20.6277 10.8723 20.8224 11.1173 20.9239C11.3011 21 11.5341 21 12 21C12.4659 21 12.6989 21 12.8827 20.9239C13.1277 20.8224 13.3224 20.6277 13.4239 20.3827C13.5 20.1989 13.5 19.9659 13.5 19.5Z" stroke="currentColor" stroke-linecap="round" stroke-linejoin="round" stroke-width="1.5" /><path d="M7 19.5V4.5C7 4.03406 7 3.80109 6.92388 3.61732C6.82239 3.37229 6.62771 3.17761 6.38268 3.07612C6.19891 3 5.96594 3 5.5 3C5.03406 3 4.80109 3 4.61732 3.07612C4.37229 3.17761 4.17761 3.37229 4.07612 3.61732C4 3.80109 4 4.03406 4 4.5V19.5C4 19.9659 4 20.1989 4.07612 20.3827C4.17761 20.6277 4.37229 20.8224 4.61732 20.9239C4.80109 21 5.03406 21 5.5 21C5.96594 21 6.19891 21 6.38268 20.9239C6.62771 20.8224 6.82239 20.6277 6.92388 20.3827C7 20.1989 7 19.9659 7 19.5Z" stroke="currentColor" stroke-linecap="round" stroke-linejoin="round" stroke-width="1.5" /><path d="M20 19.5V16.5C20 16.0341 20 15.8011 19.9239 15.6173C19.8224 15.3723 19.6277 15.1776 19.3827 15.0761C19.1989 15 18.9659 15 18.5 15C18.0341 15 17.8011 15 17.6173 15.0761C17.3723 15.1776 17.1776 15.3723 17.0761 15.6173C17 15.8011 17 16.0341 17 16.5V19.5C17 19.9659 17 20.1989 17.0761 20.3827C17.1776 20.6277 17.3723 20.8224 17.6173 20.9239C17.8011 21 18.0341 21 18.5 21C18.9659 21 19.1989 21 19.3827 20.9239C19.6277 20.8224 19.8224 20.6277 19.9239 20.3827C20 20.1989 20 19.9659 20 19.5Z" stroke="currentColor" stroke-linecap="round" stroke-linejoin="round" stroke-width="1.5" /></svg>