<svg xmlns="http://www.w3.org/2000/svg" width="24" height="24" viewBox="0 0 24 24" fill="none"><path d="M7 15.2461L9.87381 11.5319C10.1242 11.2082 10.2495 11.0464 10.3862 10.9354C10.7975 10.6017 11.3471 10.5135 11.8368 10.7026C11.9997 10.7654 12.1664 10.8804 12.5 11.1103C12.8336 11.3402 13.0003 11.4552 13.1632 11.518C13.6529 11.7071 14.2025 11.6189 14.6138 11.2852C14.7505 11.1742 14.8757 11.0124 15.1262 10.6887L15.9061 9.68068C16.8833 8.41772 17.3719 7.78624 18.0414 7.7479C18.7109 7.70956 19.264 8.28139 20.3701 9.42505L21 10.0764" stroke="currentColor" stroke-linecap="round" stroke-linejoin="round" stroke-width="1.5" /><path d="M21 21H10C6.70017 21 5.05025 21 4.02513 19.9749C3 18.9497 3 17.2998 3 14V3" stroke="currentColor" stroke-linecap="round" stroke-width="1.5" /></svg>