<svg xmlns="http://www.w3.org/2000/svg" width="24" height="24" viewBox="0 0 24 24" fill="none" stroke-width="1.5" stroke-linecap="round" stroke-linejoin="round" color="currentColor"><path d="M20.25 7.57227C19.84 7.57227 19.5 7.23227 19.5 6.82227V5.67835C17.8328 7.30829 13.5381 10.8463 5.47848 13.5328C5.40026 13.5621 5.32205 13.5723 5.24383 13.5728C4.93549 13.5708 4.63798 13.3712 4.53848 13.0628C4.40848 12.6728 4.61848 12.2428 5.00848 12.1128C12.8048 9.51144 16.9583 6.05127 18.4765 4.57227H17.25C16.84 4.57227 16.5 4.23227 16.5 3.82227C16.5 3.41227 16.84 3.07227 17.25 3.07227H20.25C20.66 3.07227 21 3.41227 21 3.82227V6.82227C21 7.23227 20.66 7.57227 20.25 7.57227ZM5.24383 13.5728L5.24848 13.5728H5.23848L5.24383 13.5728ZM19.75 22.5723C19.22 22.5723 18.9 22.5723 18.58 22.4423C18.15 22.2623 17.81 21.9222 17.63 21.4922C17.5 21.1722 17.5 20.8523 17.5 20.3223V11.3223C17.5 10.7923 17.5 10.4723 17.63 10.1523C17.81 9.72228 18.15 9.38227 18.58 9.20227C18.9 9.07227 19.22 9.07227 19.75 9.07227C20.28 9.07227 20.6 9.07227 20.92 9.20227C21.35 9.38227 21.69 9.72228 21.87 10.1523C22 10.4723 22 10.7923 22 11.3223V20.3223C22 20.8523 22 21.1722 21.87 21.4922C21.69 21.9222 21.35 22.2623 20.92 22.4423C20.6 22.5723 20.28 22.5723 19.75 22.5723ZM19.75 10.5723C19.49 10.5723 19.22 10.5723 19.15 10.5923C19.09 10.6123 19.05 10.6623 19.02 10.7223C19 10.7823 19 11.0523 19 11.3223V20.3223C19 20.5823 19 20.8522 19.02 20.9222C19.04 20.9822 19.09 21.0322 19.15 21.0522C19.28 21.0922 20.21 21.0922 20.35 21.0522C20.41 21.0322 20.45 20.9822 20.48 20.9222C20.5 20.8622 20.5 20.5923 20.5 20.3223V11.3223C20.5 11.0623 20.5 10.7923 20.48 10.7223C20.46 10.6623 20.41 10.6123 20.35 10.5923C20.29 10.5723 20.02 10.5723 19.75 10.5723ZM12.75 22.5723C12.22 22.5723 11.9 22.5723 11.58 22.4423C11.15 22.2623 10.81 21.9222 10.63 21.4922C10.5 21.1722 10.5 20.8523 10.5 20.3223V14.8223C10.5 14.2923 10.5 13.9723 10.63 13.6523C10.81 13.2223 11.15 12.8823 11.58 12.7023C11.9 12.5723 12.22 12.5723 12.75 12.5723C13.28 12.5723 13.6 12.5723 13.92 12.7023C14.35 12.8823 14.69 13.2223 14.87 13.6523C15 13.9723 15 14.2923 15 14.8223V20.3223C15 20.8523 15 21.1722 14.87 21.4922C14.69 21.9222 14.35 22.2623 13.92 22.4423C13.6 22.5723 13.28 22.5723 12.75 22.5723ZM12.75 14.0723C12.49 14.0723 12.22 14.0723 12.15 14.0923C12.09 14.1123 12.05 14.1623 12.02 14.2223C12 14.2823 12 14.5523 12 14.8223V20.3223C12 20.5823 12 20.8522 12.02 20.9222C12.04 20.9822 12.09 21.0322 12.15 21.0522C12.28 21.0922 13.21 21.0922 13.35 21.0522C13.41 21.0322 13.45 20.9822 13.48 20.9222C13.5 20.8622 13.5 20.5923 13.5 20.3223V14.8223C13.5 14.5623 13.5 14.2923 13.48 14.2223C13.46 14.1623 13.41 14.1123 13.35 14.0923C13.29 14.0723 13.02 14.0723 12.75 14.0723ZM4.58 22.4423C4.9 22.5723 5.22 22.5723 5.75 22.5723C6.28 22.5723 6.6 22.5723 6.92 22.4423C7.35 22.2623 7.69 21.9222 7.87 21.4922C8 21.1722 8 20.8523 8 20.3223V17.3223C8 16.7923 8 16.4723 7.87 16.1523C7.69 15.7223 7.35 15.3823 6.92 15.2023C6.6 15.0723 6.28 15.0723 5.75 15.0723C5.22 15.0723 4.9 15.0723 4.58 15.2023C4.15 15.3823 3.81 15.7223 3.63 16.1523C3.5 16.4723 3.5 16.7923 3.5 17.3223V20.3223C3.5 20.8523 3.5 21.1722 3.63 21.4922C3.81 21.9222 4.15 22.2623 4.58 22.4423ZM5.15 16.5923C5.22 16.5723 5.49 16.5723 5.75 16.5723C6.02 16.5723 6.29 16.5723 6.35 16.5923C6.41 16.6123 6.46 16.6623 6.48 16.7223C6.5 16.7923 6.5 17.0622 6.5 17.3222V17.3223V20.3223V20.3223C6.5 20.5923 6.5 20.8622 6.48 20.9222C6.45 20.9822 6.41 21.0322 6.35 21.0522C6.21 21.0922 5.28 21.0922 5.15 21.0522C5.09 21.0322 5.04 20.9822 5.02 20.9222C5 20.8522 5 20.5823 5 20.3223V17.3223C5 17.0523 5 16.7823 5.02 16.7223C5.05 16.6623 5.09 16.6123 5.15 16.5923Z" fill="currentColor" fill-rule="evenodd"></path></svg>