<svg xmlns="http://www.w3.org/2000/svg" width="24" height="24" viewBox="0 0 24 24" fill="none" stroke-width="1.5" stroke-linecap="round" stroke-linejoin="round" color="currentColor"><path d="M11.9978 21.0764C11.4678 21.0764 11.1478 21.0764 10.8278 20.9364C10.4078 20.7664 10.0578 20.4164 9.88781 19.9864C9.75781 19.6664 9.75781 19.3464 9.75781 18.8164V18.8164V5.81641V5.81637C9.75781 5.28639 9.75781 4.96642 9.88781 4.64642C10.0678 4.21642 10.3978 3.87641 10.8378 3.69641C11.1578 3.56641 11.4778 3.56641 12.0078 3.56641C12.5378 3.56641 12.8578 3.56641 13.1778 3.69641C13.6078 3.87641 13.9478 4.21642 14.1278 4.64642C14.2578 4.96642 14.2578 5.28641 14.2578 5.81641V18.8164C14.2578 19.3464 14.2578 19.6664 14.1278 19.9864C13.9478 20.4164 13.6078 20.7564 13.1778 20.9364C12.8578 21.0664 12.5378 21.0664 12.0078 21.0664L11.9978 21.0764ZM11.9978 5.07642H11.9974C11.7375 5.07642 11.4678 5.07642 11.3978 5.09641C11.3378 5.11641 11.2978 5.16641 11.2678 5.22641C11.2478 5.28641 11.2478 5.55642 11.2478 5.82642V18.8264C11.2478 19.0864 11.2478 19.3564 11.2678 19.4264C11.2878 19.4864 11.3378 19.5364 11.3978 19.5564C11.5378 19.5964 12.4578 19.5964 12.5978 19.5564C12.6578 19.5364 12.7078 19.4864 12.7278 19.4264C12.7478 19.3664 12.7478 19.0964 12.7478 18.8364V5.83643C12.7478 5.57643 12.7478 5.30642 12.7278 5.23642C12.7078 5.17642 12.6578 5.12641 12.5978 5.10641C12.5378 5.08643 12.2681 5.08643 12.0082 5.08643H12.0078L11.9978 5.07642ZM5 21.0742C4.47 21.0742 4.15 21.0742 3.83 20.9442C3.4 20.7642 3.06 20.4242 2.88 19.9942C2.75 19.6742 2.75 19.3542 2.75 18.8242V9.82422C2.75 9.29422 2.75 8.97421 2.88 8.65421C3.06 8.22421 3.4 7.88422 3.83 7.70422C4.15 7.57422 4.47 7.57422 5 7.57422C5.53 7.57422 5.85 7.57422 6.17 7.70422C6.6 7.88422 6.94 8.22421 7.12 8.65421C7.25 8.97421 7.25 9.29422 7.25 9.82422V18.8242C7.25 19.3542 7.25 19.6742 7.12 19.9942C6.94 20.4242 6.6 20.7642 6.17 20.9442C5.85 21.0742 5.53 21.0742 5 21.0742ZM5 9.07422H4.99957C4.7397 9.07422 4.46996 9.07422 4.4 9.09421C4.34 9.11421 4.3 9.16421 4.27 9.22421C4.25 9.28421 4.25 9.55422 4.25 9.82422V18.8242C4.25 19.0842 4.25 19.3542 4.27 19.4242C4.29 19.4842 4.34 19.5342 4.4 19.5542C4.53 19.5942 5.46 19.5942 5.6 19.5542C5.66 19.5342 5.7 19.4842 5.73 19.4242C5.75 19.3642 5.75 19.0943 5.75 18.8243V18.8242V9.82422V9.82416C5.75 9.56418 5.75 9.29421 5.73 9.22421C5.71 9.16421 5.66 9.11421 5.6 9.09421C5.54003 9.07422 5.2703 9.07422 5.00044 9.07422H5ZM17.83 20.9442C18.15 21.0742 18.47 21.0742 19 21.0742C19.53 21.0742 19.85 21.0742 20.17 20.9442C20.6 20.7642 20.94 20.4242 21.12 19.9942C21.25 19.6742 21.25 19.3542 21.25 18.8242V12.8242C21.25 12.2942 21.25 11.9742 21.12 11.6542C20.94 11.2242 20.6 10.8842 20.17 10.7042C19.85 10.5742 19.53 10.5742 19 10.5742C18.47 10.5742 18.15 10.5742 17.83 10.7042C17.4 10.8842 17.06 11.2242 16.88 11.6542C16.75 11.9742 16.75 12.2942 16.75 12.8242V18.8242C16.75 19.3542 16.75 19.6742 16.88 19.9942C17.06 20.4242 17.4 20.7642 17.83 20.9442ZM18.9996 12.0742H19H19.0005C19.2703 12.0742 19.54 12.0742 19.6 12.0942C19.66 12.1142 19.71 12.1642 19.73 12.2242C19.75 12.2942 19.75 12.5642 19.75 12.8242V18.8242C19.75 19.0942 19.75 19.3642 19.73 19.4242C19.7 19.4842 19.66 19.5342 19.6 19.5542C19.46 19.5942 18.53 19.5942 18.4 19.5542C18.34 19.5342 18.29 19.4842 18.27 19.4242C18.25 19.3542 18.25 19.0842 18.25 18.8242V12.8242C18.25 12.5542 18.25 12.2842 18.27 12.2242C18.3 12.1642 18.34 12.1142 18.4 12.0942C18.47 12.0742 18.7397 12.0742 18.9996 12.0742Z" fill="currentColor" fill-rule="evenodd"></path></svg>