<svg xmlns="http://www.w3.org/2000/svg" width="24" height="24" viewBox="0 0 24 24" fill="none" stroke-width="1.5" stroke-linecap="round" stroke-linejoin="round" color="currentColor"><path d="M17.5375 7.03039C17.9312 7.36799 18.4423 7.57227 19 7.57227C20.24 7.57227 21.25 6.56227 21.25 5.32227C21.25 4.08227 20.24 3.07227 19 3.07227C17.76 3.07227 16.75 4.08227 16.75 5.32227C16.75 5.46345 16.7631 5.60165 16.7881 5.73571L13.4755 7.62541C13.0801 7.28109 12.5638 7.07227 12 7.07227C11.2441 7.07227 10.5736 7.44764 10.1653 8.02166L7.24576 7.18344C7.17374 6.00776 6.19339 5.07227 5 5.07227C3.76 5.07227 2.75 6.08227 2.75 7.32227C2.75 8.56227 3.76 9.57227 5 9.57227C5.75586 9.57227 6.42625 9.19699 6.83452 8.62309L9.75426 9.46135C9.82641 10.6369 10.8067 11.5723 12 11.5723C13.24 11.5723 14.25 10.5623 14.25 9.32227C14.25 9.18701 14.238 9.05449 14.215 8.92573L17.5375 7.03039ZM18.25 5.32227C18.25 4.91227 18.59 4.57227 19 4.57227C19.41 4.57227 19.75 4.91227 19.75 5.32227C19.75 5.73227 19.41 6.07227 19 6.07227C18.59 6.07227 18.25 5.73227 18.25 5.32227ZM5 6.57227C4.59 6.57227 4.25 6.91227 4.25 7.32227C4.25 7.73227 4.59 8.07227 5 8.07227C5.41 8.07227 5.75 7.73227 5.75 7.32227C5.75 6.91227 5.41 6.57227 5 6.57227ZM17.83 22.4423C18.15 22.5723 18.47 22.5723 19 22.5723C19.53 22.5723 19.85 22.5723 20.17 22.4423C20.6 22.2623 20.94 21.9222 21.12 21.4922C21.25 21.1722 21.25 20.8523 21.25 20.3223V11.3223C21.25 10.7923 21.25 10.4723 21.12 10.1523C20.94 9.72228 20.6 9.38227 20.17 9.20227C19.85 9.07227 19.53 9.07227 19 9.07227C18.47 9.07227 18.15 9.07227 17.83 9.20227C17.4 9.38227 17.06 9.72228 16.88 10.1523C16.75 10.4723 16.75 10.7923 16.75 11.3223V20.3223C16.75 20.8523 16.75 21.1722 16.88 21.4922C17.06 21.9222 17.4 22.2623 17.83 22.4423ZM18.4 10.5923C18.47 10.5723 18.74 10.5723 19 10.5723C19.27 10.5723 19.54 10.5723 19.6 10.5923C19.66 10.6123 19.71 10.6623 19.73 10.7223C19.75 10.7923 19.75 11.0623 19.75 11.3223V20.3223C19.75 20.5923 19.75 20.8622 19.73 20.9222C19.7 20.9822 19.66 21.0322 19.6 21.0522C19.46 21.0922 18.53 21.0922 18.4 21.0522C18.34 21.0322 18.29 20.9822 18.27 20.9222C18.25 20.8522 18.25 20.5823 18.25 20.3223V11.3223C18.25 11.0523 18.25 10.7823 18.27 10.7223C18.3 10.6623 18.34 10.6123 18.4 10.5923ZM5 22.5723C4.47 22.5723 4.15 22.5723 3.83 22.4423C3.4 22.2623 3.06 21.9222 2.88 21.4922C2.75 21.1722 2.75 20.8523 2.75 20.3223V13.3223C2.75 12.7923 2.75 12.4723 2.88 12.1523C3.06 11.7223 3.4 11.3823 3.83 11.2023C4.15 11.0723 4.47 11.0723 5 11.0723C5.53 11.0723 5.85 11.0723 6.17 11.2023C6.6 11.3823 6.94 11.7223 7.12 12.1523C7.25 12.4723 7.25 12.7923 7.25 13.3223V20.3223C7.25 20.8523 7.25 21.1722 7.12 21.4922C6.94 21.9222 6.6 22.2623 6.17 22.4423C5.85 22.5723 5.53 22.5723 5 22.5723ZM5 12.5723C4.74 12.5723 4.47 12.5723 4.4 12.5923C4.34 12.6123 4.3 12.6623 4.27 12.7223C4.25 12.7823 4.25 13.0523 4.25 13.3223V20.3223C4.25 20.5823 4.25 20.8522 4.27 20.9222C4.29 20.9822 4.34 21.0322 4.4 21.0522C4.53 21.0922 5.46 21.0922 5.6 21.0522C5.66 21.0322 5.7 20.9822 5.73 20.9222C5.75 20.8622 5.75 20.5923 5.75 20.3223V20.3223V13.3223V13.3222C5.75 13.0622 5.75 12.7923 5.73 12.7223C5.71 12.6623 5.66 12.6123 5.6 12.5923C5.54 12.5723 5.27 12.5723 5 12.5723ZM11.9978 22.5725C11.4678 22.5725 11.1478 22.5725 10.8278 22.4325C10.4078 22.2625 10.0578 21.9125 9.88781 21.4825C9.75781 21.1625 9.75781 20.8425 9.75781 20.3125V20.3125V15.3125V15.3125C9.75781 14.7825 9.75781 14.4625 9.88781 14.1425C10.0678 13.7125 10.4078 13.3725 10.8378 13.1925C11.1578 13.0625 11.4778 13.0625 12.0078 13.0625C12.5378 13.0625 12.8578 13.0625 13.1778 13.1925C13.6078 13.3725 13.9478 13.7125 14.1278 14.1425C14.2578 14.4625 14.2578 14.7825 14.2578 15.3125V20.3125C14.2578 20.8425 14.2578 21.1625 14.1278 21.4825C13.9478 21.9125 13.6078 22.2525 13.1778 22.4325C12.8578 22.5625 12.5378 22.5625 12.0078 22.5625L11.9978 22.5725ZM11.9978 14.5725C11.7378 14.5725 11.4678 14.5725 11.3978 14.5925C11.3378 14.6125 11.2978 14.6625 11.2678 14.7225C11.2478 14.7825 11.2478 15.0525 11.2478 15.3225V20.3225C11.2478 20.5825 11.2478 20.8525 11.2678 20.9225C11.2878 20.9825 11.3378 21.0325 11.3978 21.0525C11.5378 21.0925 12.4578 21.0925 12.5978 21.0525C12.6578 21.0325 12.7078 20.9825 12.7278 20.9225C12.7478 20.8625 12.7478 20.5925 12.7478 20.3325V15.3325C12.7478 15.0725 12.7478 14.8025 12.7278 14.7325C12.7078 14.6725 12.6578 14.6225 12.5978 14.6025C12.5378 14.5825 12.2678 14.5825 11.9978 14.5825V14.5725ZM12 8.57227C11.59 8.57227 11.25 8.91227 11.25 9.32227C11.25 9.73227 11.59 10.0723 12 10.0723C12.41 10.0723 12.75 9.73227 12.75 9.32227C12.75 8.91227 12.41 8.57227 12 8.57227Z" fill="currentColor" fill-rule="evenodd"></path></svg>