<svg xmlns="http://www.w3.org/2000/svg" width="24" height="24" viewBox="0 0 24 24" fill="none" stroke-width="1.5" stroke-linecap="round" stroke-linejoin="round" color="currentColor"><path d="M12.0045 11H12.0135M8.00903 11H8.018" fill="none"></path><path d="M22 12.5C21.9941 12.7527 21.9696 13.0027 21.9609 13.2497C21.8772 15.6232 21.8353 16.8099 20.8699 17.7826C19.9046 18.7552 18.6843 18.8074 16.2437 18.9118C15.5098 18.9432 14.7498 18.9667 13.9693 18.9815C13.2282 18.9955 12.8576 19.0026 12.532 19.1266C12.2064 19.2506 11.9325 19.4855 11.3845 19.9553L9.20503 21.8242C9.07273 21.9376 8.90419 22 8.72991 22C8.32679 22 8 21.6732 8 21.2701V18.9219C7.91842 18.9186 7.83715 18.9153 7.75619 18.9118C5.31569 18.8074 4.09545 18.7552 3.13007 17.7825C2.16469 16.8099 2.12282 15.6232 2.03909 13.2497C2.01346 12.5232 2 11.7708 2 11C2 10.2292 2.01346 9.47679 2.03909 8.7503C2.12282 6.37683 2.16469 5.19009 3.13007 4.21745C4.09545 3.24481 5.3157 3.1926 7.7562 3.08819C9.09517 3.0309 10.5209 3 12 3C12.5067 3 13.0072 3.00363 13.5 3.0107" fill="none"></path><path d="M17.5 5V3.5C17.5 2.67157 18.1716 2 19 2C19.5552 2 20.0399 2.30159 20.2993 2.74988M17.5 5H20.5C21.3284 5 22 5.67157 22 6.5V8C22 8.82843 21.3284 9.5 20.5 9.5H17.5C16.6716 9.5 16 8.82843 16 8V6.5C16 5.67157 16.6716 5 17.5 5Z" fill="none"></path></svg>