<svg xmlns="http://www.w3.org/2000/svg" width="24" height="24" viewBox="0 0 24 24" fill="none" stroke-width="1.5" stroke-linecap="round" stroke-linejoin="round" color="currentColor"><path d="M12.0045 10.5H12.0135M16 10.5H16.009M8.009 10.5H8.01797" fill="none"></path><path d="M13.9693 2.51851C13.3258 2.50631 12.6684 2.5 12 2.5C10.5209 2.5 9.09517 2.5309 7.7562 2.58819C5.3157 2.6926 4.09545 2.74481 3.13007 3.71745C2.16469 4.69009 2.12282 5.87683 2.03909 8.2503C2.01346 8.97679 2 9.72921 2 10.5C2 11.2708 2.01346 12.0232 2.03909 12.7497C2.12282 15.1232 2.16469 16.3099 3.13007 17.2825C4.09545 18.2552 5.31569 18.3074 7.75619 18.4118C7.83715 18.4153 7.91842 18.4186 8 18.4219V20.7701C8 21.1732 8.32679 21.5 8.72991 21.5C8.90419 21.5 9.07273 21.4376 9.20503 21.3242L11.3845 19.4553C11.9325 18.9855 12.2064 18.7506 12.532 18.6266C12.8576 18.5026 13.2282 18.4955 13.9693 18.4815C14.7498 18.4667 15.5098 18.4432 16.2437 18.4118C18.6843 18.3074 19.9046 18.2552 20.8699 17.2826C21.8353 16.3099 21.8772 15.1232 21.9609 12.7497C21.9865 12.0232 22 11.2708 22 10.5C22 10.3324 21.9994 10.1657 21.9981 10" fill="none"></path><path d="M22.0001 5C22.0001 6.38071 20.8808 7.5 19.5001 7.5C18.1193 7.5 17.0001 6.38071 17.0001 5C17.0001 3.61929 18.1193 2.5 19.5001 2.5C20.8808 2.5 22.0001 3.61929 22.0001 5Z" fill="none"></path></svg>