<svg xmlns="http://www.w3.org/2000/svg" width="24" height="24" viewBox="0 0 24 24" fill="none" stroke-width="1.5" stroke-linecap="round" stroke-linejoin="round" color="currentColor"><path d="M22 11C22 11.7708 21.9865 12.5232 21.9609 13.2497C21.8772 15.6232 21.8353 16.8099 20.8699 17.7826C19.9046 18.7552 18.6843 18.8074 16.2437 18.9118C15.5098 18.9432 14.7498 18.9667 13.9693 18.9815C13.2282 18.9955 12.8576 19.0026 12.532 19.1266C12.2064 19.2506 11.9325 19.4855 11.3845 19.9553L9.20503 21.8242C9.07273 21.9376 8.90419 22 8.72991 22C8.32679 22 8 21.6732 8 21.2701V18.9219C7.91842 18.9186 7.83715 18.9153 7.75619 18.9118C5.31569 18.8074 4.09545 18.7552 3.13007 17.7825C2.16469 16.8099 2.12282 15.6232 2.03909 13.2497C2.01346 12.5232 2 11.7708 2 11C2 10.2292 2.01346 9.47679 2.03909 8.7503C2.12282 6.37683 2.16469 5.19009 3.13007 4.21745C4.09545 3.24481 5.3157 3.1926 7.7562 3.08819C9.09517 3.0309 10.5209 3 12 3" fill="none"></path><path d="M12.0045 11H12.0135M8.00903 11H8.018" fill="none"></path><path d="M18.5 5.5L19.375 4.625M22 5.5C22 7.433 20.433 9 18.5 9C16.567 9 15 7.433 15 5.5C15 3.567 16.567 2 18.5 2C20.433 2 22 3.567 22 5.5Z" fill="none"></path></svg>