<svg xmlns="http://www.w3.org/2000/svg" width="24" height="24" viewBox="0 0 24 24" fill="none" stroke-width="1.5" stroke-linecap="round" stroke-linejoin="round" color="currentColor"><path d="M12.0045 11H12.0135M8.00903 11H8.018" fill="none"></path><path d="M12 3C10.5209 3 9.09517 3.0309 7.7562 3.08819C5.3157 3.1926 4.09545 3.24481 3.13007 4.21745C2.16469 5.19009 2.12282 6.37683 2.03909 8.7503C2.01346 9.47679 2 10.2292 2 11C2 11.7708 2.01346 12.5232 2.03909 13.2497C2.12282 15.6232 2.16469 16.8099 3.13007 17.7825C4.09545 18.7552 5.31569 18.8074 7.75619 18.9118C7.83715 18.9153 7.91842 18.9186 8 18.9219V21.2701C8 21.6732 8.32679 22 8.72991 22C8.90419 22 9.07273 21.9376 9.20503 21.8242L11.3845 19.9553C11.9325 19.4855 12.2064 19.2506 12.532 19.1266C12.8576 19.0026 13.2282 18.9955 13.9693 18.9815C14.7498 18.9667 15.5098 18.9432 16.2437 18.9118C18.6843 18.8074 19.9046 18.7552 20.8699 17.7826C21.8353 16.8099 21.8772 15.6232 21.9609 13.2497C21.981 12.6811 21.9936 12.0967 21.9981 11.5" fill="none"></path><path d="M21.109 2.59814C20.3731 2.22153 19.4726 2 18.5 2C17.5274 2 16.6269 2.22153 15.891 2.59814C15.5301 2.78282 15.3497 2.87517 15.1748 3.16551C15 3.45586 15 3.73699 15 4.29925V5.69482C15 7.96819 16.7665 9.23214 17.7895 9.77353C18.0748 9.92451 18.2175 10 18.5 10C18.7825 10 18.9252 9.92451 19.2105 9.77353C20.2335 9.23214 22 7.96819 22 5.69482L22 4.29926C22 3.73699 22 3.45586 21.8252 3.16551C21.6503 2.87517 21.4699 2.78282 21.109 2.59814Z" fill="none"></path></svg>