<svg xmlns="http://www.w3.org/2000/svg" width="24" height="24" viewBox="0 0 24 24" fill="none" stroke-width="1.5" stroke-linecap="round" stroke-linejoin="round" color="currentColor"><path d="M12.0045 11H12.0135M8.00903 11H8.018" fill="none"></path><path d="M21.9332 8C21.9428 8.23627 21.9516 8.48593 21.9609 8.7503C21.9865 9.47679 22 10.2292 22 11C22 11.7708 21.9865 12.5232 21.9609 13.2497C21.8772 15.6232 21.8353 16.8099 20.8699 17.7826C19.9046 18.7552 18.6843 18.8074 16.2437 18.9118C15.5098 18.9432 14.7498 18.9667 13.9693 18.9815C13.2282 18.9955 12.8576 19.0026 12.532 19.1266C12.2064 19.2506 11.9325 19.4855 11.3845 19.9553L9.20503 21.8242C9.07273 21.9376 8.90419 22 8.72991 22C8.32679 22 8 21.6732 8 21.2701V18.9219C7.91842 18.9186 7.83715 18.9153 7.75619 18.9118C5.31569 18.8074 4.09545 18.7552 3.13007 17.7825C2.16469 16.8099 2.12282 15.6232 2.03909 13.2497C2.01346 12.5232 2 11.7708 2 11C2 10.2292 2.01346 9.47679 2.03909 8.7503C2.12282 6.37683 2.16469 5.19009 3.13007 4.21745C4.09545 3.24481 5.3157 3.1926 7.7562 3.08819C9.09517 3.0309 10.5209 3 12 3C13.0296 3 14.0334 3.01497 15 3.0434" fill="none"></path><path d="M17.2367 8.15267L15.5 8.5L15.8473 6.76334C15.9179 6.4106 16.0913 6.08663 16.3456 5.83226L19.9111 2.26684C20.2668 1.91105 20.8437 1.91105 21.1995 2.26684L21.7332 2.80052C22.0889 3.15631 22.0889 3.73316 21.7332 4.08895L18.1677 7.65437C17.9134 7.90874 17.5894 8.08212 17.2367 8.15267Z" fill="none"></path></svg>