<svg xmlns="http://www.w3.org/2000/svg" width="24" height="24" viewBox="0 0 24 24" fill="none" stroke-width="1.5" stroke-linecap="round" stroke-linejoin="round" color="currentColor"><path d="M2 2L22 22" fill="none"></path><path d="M6.64014 2.64016C6.98163 2.62133 7.35218 2.60547 7.75617 2.58819C9.09514 2.5309 10.5209 2.5 12 2.5C13.4791 2.5 14.9048 2.5309 16.2438 2.58819C18.6843 2.6926 19.9045 2.74481 20.8699 3.71745C21.8353 4.69009 21.8772 5.87683 21.9609 8.2503C21.9865 8.97679 22 9.72921 22 10.5C22 11.2708 21.9865 12.0232 21.9609 12.7497C21.8832 14.9504 21.8416 16.1309 21.0664 17.0664" fill="none"></path><path d="M3.13007 3.71875C2.16469 4.69139 2.12282 5.87813 2.03909 8.2516C2.01346 8.97809 2 9.73051 2 10.5013C2 11.2721 2.01346 12.0245 2.03909 12.751C2.12282 15.1245 2.16469 16.3112 3.13007 17.2838C4.09545 18.2565 5.31569 18.3087 7.75619 18.4131C7.83715 18.4166 7.91842 18.4199 8 18.4232V20.7714C8 21.1745 8.32679 21.5013 8.72991 21.5013C8.90419 21.5013 9.07273 21.4389 9.20503 21.3255L11.3845 19.4566C11.9325 18.9868 12.2064 18.7519 12.532 18.6279C12.8576 18.5039 13.2282 18.4968 13.9693 18.4828C14.7498 18.468 15.5098 18.4445 16.2437 18.4131C17.0714 18.3777 17.7587 18.3483 18.3433 18.287" fill="none"></path><path d="M17 10.5H17.009M7.00903 10.5H7.018" fill="none"></path></svg>