<svg xmlns="http://www.w3.org/2000/svg" width="24" height="24" viewBox="0 0 24 24" fill="none" stroke-width="1.5" stroke-linecap="round" stroke-linejoin="round" color="currentColor"><path d="M7.5 9H16.5M7.5 13H13" fill="none"></path><path d="M22 4.5C22 5.88071 20.8807 7 19.5 7C18.1193 7 17 5.88071 17 4.5C17 3.11929 18.1193 2 19.5 2C20.8807 2 22 3.11929 22 4.5Z" fill="none"></path><path d="M13.9693 3.01851C13.3258 3.00631 12.6684 3 12 3C10.5209 3 9.09517 3.0309 7.7562 3.08819C5.3157 3.1926 4.09545 3.24481 3.13007 4.21745C2.16469 5.19009 2.12282 6.37683 2.03909 8.7503C2.01346 9.47679 2 10.2292 2 11C2 11.7708 2.01346 12.5232 2.03909 13.2497C2.12282 15.6232 2.16469 16.8099 3.13007 17.7825C4.09545 18.7552 5.31569 18.8074 7.75619 18.9118C7.83715 18.9153 7.91842 18.9186 8 18.9219V21.2701C8 21.6732 8.32679 22 8.72991 22C8.90419 22 9.07273 21.9376 9.20503 21.8242L11.3845 19.9553C11.9325 19.4855 12.2064 19.2506 12.532 19.1266C12.8576 19.0026 13.2282 18.9955 13.9693 18.9815C14.7498 18.9667 15.5098 18.9432 16.2437 18.9118C18.6843 18.8074 19.9046 18.7552 20.8699 17.7826C21.8353 16.8099 21.8772 15.6232 21.9609 13.2497C21.9865 12.5232 22 11.7708 22 11C22 10.4913 21.9941 9.99055 21.9828 9.5" fill="none"></path></svg>