<svg xmlns="http://www.w3.org/2000/svg" width="24" height="24" viewBox="0 0 24 24" fill="none" stroke-width="1.5" stroke-linecap="round" stroke-linejoin="round" color="currentColor"><path d="M21.4477 8.2C21.5 9.25014 21.5 10.4994 21.5 12C21.5 16.4783 21.5 18.7175 20.1088 20.1088C18.7175 21.5 16.4783 21.5 12 21.5C7.52166 21.5 5.28249 21.5 3.89124 20.1088C2.5 18.7175 2.5 16.4783 2.5 12C2.5 7.52166 2.5 5.28249 3.89124 3.89124C5.28249 2.5 7.52166 2.5 12 2.5C13.0719 2.5 14.0156 2.5 14.85 2.51908" stroke="currentColor"></path><path d="M8 11.5C8 11.5 9.5 11.5 11.5 15C11.5 15 16.5588 5.83333 21.5 4" stroke="currentColor"></path></svg>