<svg xmlns="http://www.w3.org/2000/svg" width="24" height="24" viewBox="0 0 24 24" fill="none"><path d="M17 22H7C6.53501 22 6.30252 22 6.11177 21.9489C5.59413 21.8102 5.18981 21.4059 5.05111 20.8882C5 20.6975 5 20.465 5 20C5 18.8954 5.89543 18 7 18H17C18.1046 18 19 18.8954 19 20C19 20.465 19 20.6975 18.9489 20.8882C18.8102 21.4059 18.4059 21.8102 17.8882 21.9489C17.6975 22 17.465 22 17 22Z" stroke="currentColor" stroke-linecap="round" stroke-linejoin="round" stroke-width="1.5" /><path d="M4 11.5833C4 9.05203 5.68421 7 8 7C9.2 7 10.4 7.44118 12 9.20588C13.6 7.44118 14.8 7 16 7C18.3158 7 20 9.05203 20 11.5833C20 13.8457 18.4396 16.1415 16.697 18H7.30298C5.56044 16.1415 4 13.8457 4 11.5833Z" stroke="currentColor" stroke-linecap="round" stroke-linejoin="round" stroke-width="1.5" /><path d="M12 2V8" stroke="currentColor" stroke-linecap="round" stroke-linejoin="round" stroke-width="1.5" /><path d="M10 4H14" stroke="currentColor" stroke-linecap="round" stroke-linejoin="round" stroke-width="1.5" /></svg>