<svg xmlns="http://www.w3.org/2000/svg" width="24" height="24" viewBox="0 0 24 24" fill="none"><path d="M14.5 11.875V12M14.75 12C14.75 12.1381 14.6381 12.25 14.5 12.25C14.3619 12.25 14.25 12.1381 14.25 12C14.25 11.8619 14.3619 11.75 14.5 11.75C14.6381 11.75 14.75 11.8619 14.75 12Z" stroke="currentColor" stroke-linecap="round" stroke-linejoin="round" stroke-width="1.5" /><path d="M9.5 11.875V12M9.75 12C9.75 12.1381 9.63807 12.25 9.5 12.25C9.36193 12.25 9.25 12.1381 9.25 12C9.25 11.8619 9.36193 11.75 9.5 11.75C9.63807 11.75 9.75 11.8619 9.75 12Z" stroke="currentColor" stroke-linecap="round" stroke-linejoin="round" stroke-width="1.5" /><path d="M6.99996 17C6.99996 17 2.00001 13.3176 2 12C1.99999 10.6824 7 7 7 7" stroke="currentColor" stroke-linecap="round" stroke-linejoin="round" stroke-width="1.5" /><path d="M17 17C17 17 22 13.3176 22 12C22 10.6824 17 7 17 7" stroke="currentColor" stroke-linecap="round" stroke-linejoin="round" stroke-width="1.5" /></svg>