<svg xmlns="http://www.w3.org/2000/svg" width="24" height="24" viewBox="0 0 24 24" fill="none" stroke-width="1.5" stroke-linecap="round" stroke-linejoin="round" color="currentColor"><path d="M7.41207 17.353C5.52458 16.0999 4.14189 14.1317 3.66998 11.8125C2.45998 11.7725 1.5 10.7825 1.5 9.5625C1.5 8.3425 2.51 7.3125 3.75 7.3125H3.94C5.12 3.7525 8.45 1.3125 12.25 1.3125C16.05 1.3125 19.4 3.76252 20.57 7.33252C21.66 7.49252 22.5001 8.4225 22.5001 9.5625C22.5001 10.6025 21.8 11.4725 20.84 11.7325C20.3835 14.0903 18.992 16.0873 17.0861 17.3532C18.3089 18.615 19.0001 20.3013 19.0001 22.0625C19.0001 22.4725 18.6601 22.8125 18.2501 22.8125C17.8401 22.8125 17.5001 22.4725 17.5001 22.0625C17.5001 20.5625 16.85 19.1226 15.72 18.1226C15.7132 18.1164 15.7065 18.1101 15.7 18.1038C14.6374 18.5607 13.4697 18.8125 12.25 18.8125C11.0298 18.8125 9.86222 18.5606 8.7998 18.1041C8.79335 18.1103 8.78676 18.1165 8.78003 18.1226C7.65003 19.1226 7 20.5625 7 22.0625C7 22.4725 6.66 22.8125 6.25 22.8125C5.84 22.8125 5.5 22.4725 5.5 22.0625C5.5 20.3022 6.19048 18.6084 7.41207 17.353ZM12.25 5.15151C11.1265 7.32346 8.85781 8.8125 6.25 8.8125H4.75C4.70817 8.8125 4.66706 8.80896 4.62697 8.80217C4.58575 8.80897 4.54333 8.8125 4.5 8.8125H3.75C3.34 8.8125 3 9.1525 3 9.5625C3 9.9725 3.34 10.3125 3.75 10.3125H4.31C4.69 10.3125 5.00999 10.5925 5.04999 10.9725C5.49999 14.5925 8.59 17.3125 12.25 17.3125C15.91 17.3125 19 14.5825 19.45 10.9725C19.5 10.5925 19.82 10.3125 20.19 10.3125C20.66 10.3125 21.0001 9.9725 21.0001 9.5625C21.0001 9.1525 20.6601 8.8125 20.2501 8.8125H20.0001C19.9575 8.8125 19.9155 8.80889 19.8745 8.80192C19.834 8.80888 19.7924 8.8125 19.7501 8.8125H18.2501C15.6423 8.8125 13.3735 7.32346 12.25 5.15151ZM18.957 7.3125H18.2501C15.6302 7.3125 13.4459 5.37312 13.0604 2.85761C15.6953 3.1525 17.9546 4.86952 18.957 7.3125ZM6.25 7.3125C8.86984 7.3125 11.0541 5.37311 11.4396 2.85759C8.80342 3.15242 6.5379 4.86946 5.54057 7.3125H6.25ZM12.25 15.8125C11.29 15.8125 10.5 15.0225 10.5 14.0625C10.5 13.6525 10.84 13.3125 11.25 13.3125H13.25C13.66 13.3125 14 13.6525 14 14.0625C14 15.0225 13.21 15.8125 12.25 15.8125ZM9.25 11.0725C8.7 11.0725 8.25 10.6225 8.25 10.0725C8.25 9.52251 8.7 9.07251 9.25 9.07251C9.8 9.07251 10.25 9.51251 10.25 10.0725C10.25 10.6325 9.8 11.0825 9.25 11.0825V11.0725ZM14.25 10.0725C14.25 10.6225 14.7001 11.0725 15.2501 11.0725V11.0825C15.8001 11.0825 16.2501 10.6325 16.2501 10.0725C16.2501 9.51251 15.8001 9.07251 15.2501 9.07251C14.7001 9.07251 14.25 9.52251 14.25 10.0725Z" fill="currentColor" fill-rule="evenodd"></path></svg>