<svg xmlns="http://www.w3.org/2000/svg" width="24" height="24" viewBox="0 0 24 24" fill="none" stroke-width="1.5" stroke-linecap="round" stroke-linejoin="round" color="currentColor"><path d="M7.92246 21.7514C7.48246 21.7514 7.03246 21.5815 6.69246 21.2415C5.98246 20.5315 5.98246 19.4415 6.64246 18.7715L16.1225 9.29147C16.1225 9.29147 16.1525 9.25149 16.1725 9.24149C16.1925 9.22149 16.2125 9.20144 16.2325 9.19144L18.9025 6.52145C19.2125 6.20145 19.6425 6.02145 20.1025 6.02145C20.5625 6.02145 21.0025 6.20146 21.3325 6.53146L21.9925 7.19144C22.3325 7.52144 22.5225 7.99146 22.5025 8.46146C22.4925 8.93146 22.2825 9.37149 21.9425 9.68149L9.06246 21.3115C8.73246 21.6015 8.33246 21.7514 7.92246 21.7514ZM16.7025 10.8315L7.70246 19.8315C7.62246 19.9115 7.62246 20.0614 7.71246 20.1414C7.83246 20.2614 7.97246 20.2714 8.05246 20.1914L17.5225 11.6414L16.7025 10.8214V10.8315ZM17.7625 9.77145L18.6325 10.6414L20.9325 8.56149C20.9825 8.51149 21.0025 8.45147 21.0025 8.41147C21.0025 8.37147 21.0025 8.30149 20.9325 8.24149L20.2725 7.58145C20.2125 7.52145 20.1425 7.51145 20.1125 7.51145C20.1125 7.53145 20.0225 7.51149 19.9725 7.56149L17.7725 9.76145L17.7625 9.77145ZM3.77246 18.6115C3.33246 18.6115 2.89246 18.4415 2.54246 18.1015C1.85246 17.4115 1.82246 16.3614 2.44246 15.6914L14.0725 2.81149C14.3925 2.46149 14.8225 2.26144 15.2925 2.25144C15.7525 2.23144 16.2325 2.42144 16.5625 2.76144L17.2125 3.42148C17.5425 3.75148 17.7225 4.18145 17.7225 4.64145C17.7225 5.10145 17.5425 5.53148 17.2125 5.86148L14.5325 8.54147C14.5325 8.54147 14.5125 8.56145 14.5025 8.58145C14.4925 8.60145 14.4825 8.60148 14.4625 8.61148L4.97246 18.1115C4.63246 18.4415 4.20246 18.6115 3.76246 18.6115H3.77246ZM12.1025 7.23148L3.55246 16.7014C3.47246 16.7914 3.48246 16.9214 3.56246 17.0114C3.68246 17.1314 3.82246 17.1415 3.91246 17.0515L12.9125 8.05148L12.1025 7.24149V7.23148ZM13.1125 6.11148L13.9825 6.98148L16.1725 4.79147C16.2225 4.74147 16.2325 4.68145 16.2325 4.64145C16.2325 4.60145 16.2225 4.54148 16.1625 4.48148L15.5125 3.82144C15.4525 3.76144 15.3825 3.75144 15.3425 3.75144C15.3025 3.75144 15.2425 3.76144 15.1925 3.82144L13.1225 6.12149L13.1125 6.11148Z" fill="currentColor"></path></svg>