<svg xmlns="http://www.w3.org/2000/svg" width="24" height="24" viewBox="0 0 24 24" fill="none" stroke-width="1.5" stroke-linecap="round" stroke-linejoin="round" color="currentColor"><path d="M22 9C22 12.3137 17.5228 15 12 15C6.47715 15 2 12.3137 2 9C2 5.68629 6.47715 3 12 3C17.5228 3 22 5.68629 22 9Z" stroke="currentColor"></path><path d="M12 6.85441C15 5.44094 17 7.71729 17 8.7817C17 11.9514 7 11.7874 7 7.88187C7 5.49755 9 3 12 3" stroke="currentColor"></path><path d="M22 9V15C22 18.3137 17.5228 21 12 21C6.47715 21 2 18.3137 2 15V9" stroke="currentColor"></path></svg>