<svg xmlns="http://www.w3.org/2000/svg" width="24" height="24" viewBox="0 0 24 24" fill="none" stroke-width="1.5" stroke-linecap="round" stroke-linejoin="round" color="currentColor"><path d="M12 22C17.5228 22 22 17.5228 22 12C22 6.47715 17.5228 2 12 2C6.47715 2 2 6.47715 2 12C2 17.5228 6.47715 22 12 22Z" stroke="currentColor"></path><path d="M14.4921 11.6429C15.0223 11.031 16.0939 10.1642 15.9847 9.80444M15.9847 9.80444C15.9847 9.38542 14.9336 8.58635 14.4921 8.00049M15.9847 9.80444C14.0658 9.92644 11.5926 9.55136 10.5852 10.3508C9.52468 11.2379 9.91163 13.7604 9.80534 15.993M9.80534 15.993C10.3405 16.0399 11.0315 15.0079 11.6398 14.4736M9.80534 15.993C9.44987 16.0907 8.54077 14.9853 8.00781 14.4759" stroke="currentColor"></path></svg>