<svg xmlns="http://www.w3.org/2000/svg" width="24" height="24" viewBox="0 0 24 24" fill="none"><path d="M7.88376 2.88376C9.13912 2.31604 10.5327 2 12 2C17.5228 2 22 6.47715 22 12C22 13.4673 21.684 14.8609 21.1162 16.1162M4.92893 4.92893C3.11929 6.73858 2 9.23858 2 12C2 17.5228 6.47715 22 12 22C14.7614 22 17.2614 20.8807 19.0711 19.0711" stroke="currentColor" stroke-linecap="round" stroke-linejoin="round" stroke-width="1.5" /><path d="M9 13V18M9 13H13M9 13V9M12 7H13C14.6569 7 16 8.34315 16 10C16 10.3031 15.9551 10.5957 15.8715 10.8715" stroke="currentColor" stroke-linecap="round" stroke-linejoin="round" stroke-width="1.5" /><path d="M2 2L22 22" stroke="currentColor" stroke-linecap="round" stroke-linejoin="round" stroke-width="1.5" /></svg>