<svg xmlns="http://www.w3.org/2000/svg" width="24" height="24" viewBox="0 0 24 24" fill="none"><path d="M11.9082 1.99805C11.0831 2.0062 10.2456 2.11736 9.41181 2.34079C8.57797 2.56421 7.79713 2.88668 7.07853 3.29214M1.99789 11.9082C2.0127 10.1907 2.47296 8.53244 3.2945 7.07923M6.92123 20.6143C5.48315 19.7666 4.25543 18.5606 3.38385 17.0807M12.0918 22.002C12.9169 21.9939 13.7544 21.8827 14.5882 21.6593C15.422 21.4359 16.2029 21.1134 16.9215 20.7079M22.0021 12.0919C21.9873 13.8094 21.527 15.4677 20.7055 16.9209M17.0788 3.38574C18.5168 4.23349 19.7446 5.43944 20.6161 6.91943" stroke="currentColor" stroke-linecap="round" stroke-linejoin="round" stroke-width="1.5" /><path d="M11.9998 11.5V12M12.9998 12C12.9998 12.5523 12.5521 13 11.9998 13C11.4476 13 10.9998 12.5523 10.9998 12C10.9998 11.4477 11.4476 11 11.9998 11C12.5521 11 12.9998 11.4477 12.9998 12Z" stroke="currentColor" stroke-linecap="round" stroke-linejoin="round" stroke-width="1.5" /></svg>