<svg xmlns="http://www.w3.org/2000/svg" width="24" height="24" viewBox="0 0 24 24" fill="none"><path d="M12 22C17.5228 22 22 17.5228 22 12C22 6.47715 17.5228 2 12 2C6.47715 2 2 6.47715 2 12C2 17.5228 6.47715 22 12 22Z" stroke="currentColor" stroke-linecap="round" stroke-linejoin="round" stroke-width="1.5" /><path d="M9.14844 14.999C9.54108 15.9665 10.6694 16.6654 12.0002 16.6654C13.657 16.6654 15.0002 15.974 15.0002 14.2456C15.0002 12.5172 14.0002 11.8259 12.0002 11.8259C10.0002 11.8259 9.25017 11.0882 9.25017 9.75178C9.25017 8.41539 10.4814 7.33203 12.0002 7.33203C13.2203 7.33203 14.2548 8.03119 14.6145 8.99902" stroke="currentColor" stroke-linecap="round" stroke-width="1.5" /><path d="M12 6L12 18" stroke="currentColor" stroke-linecap="round" stroke-linejoin="round" stroke-width="1.5" /></svg>