<svg xmlns="http://www.w3.org/2000/svg" width="24" height="24" viewBox="0 0 24 24" fill="none"><path d="M8.93718 5.16602C6.31712 7.90764 6.35481 12.2544 9.05025 14.9499C11.7457 17.6453 16.0925 17.683 18.8341 15.0629" stroke="currentColor" stroke-linecap="round" stroke-linejoin="round" stroke-width="1.5" /><path d="M14 10L9.5 14.5" stroke="currentColor" stroke-linecap="round" stroke-linejoin="round" stroke-width="1.5" /><path d="M14 17V10H7" stroke="currentColor" stroke-linecap="round" stroke-linejoin="round" stroke-width="1.5" /><path d="M6.26567 17.7343C9.54361 21.0123 14.3548 21.8225 18.3907 20.1651C19.9481 19.5255 20.7269 19.2057 20.9588 18.0486C21.1908 16.8914 20.4329 16.1335 18.9169 14.6175L9.38247 5.08306C7.86654 3.56713 7.10858 2.80917 5.95145 3.04116C4.79431 3.27315 4.47451 4.05187 3.83491 5.60933C2.17749 9.64524 2.98774 14.4564 6.26567 17.7343Z" stroke="currentColor" stroke-linecap="round" stroke-linejoin="round" stroke-width="1.5" /></svg>