<svg xmlns="http://www.w3.org/2000/svg" width="24" height="24" viewBox="0 0 24 24" fill="none" stroke-width="1.5" stroke-linecap="round" stroke-linejoin="round" color="currentColor"><path d="M2 22H22" stroke="currentColor"></path><path d="M14 4H10C8.34533 4 8 4.34533 8 6V22H16V6C16 4.34533 15.6547 4 14 4Z" stroke="currentColor"></path><path d="M8 13H5C3.34533 13 3 13.3453 3 15V22H8V13Z" stroke="currentColor"></path><path d="M19 13H16V22H21V15C21 13.3453 20.6547 13 19 13Z" stroke="currentColor"></path><path d="M12 4L12 2" stroke="currentColor"></path><path d="M12 22L12 20" stroke="currentColor"></path><path d="M11 15H13M11 11.5H13M11 8L13 8" stroke="currentColor"></path></svg>