<svg xmlns="http://www.w3.org/2000/svg" width="24" height="24" viewBox="0 0 24 24" fill="none"><path d="M2 22H22" stroke="currentColor" stroke-linecap="round" stroke-linejoin="round" stroke-width="1.5" /><path d="M14 4H10C8.34533 4 8 4.34533 8 6V22H16V6C16 4.34533 15.6547 4 14 4Z" stroke="currentColor" stroke-linejoin="round" stroke-width="1.5" /><path d="M8 13H6C4.34533 13 4 13.3453 4 15V22H8V13Z" stroke="currentColor" stroke-linejoin="round" stroke-width="1.5" /><path d="M18 13H16V22H20V15C20 13.3453 19.6547 13 18 13Z" stroke="currentColor" stroke-linejoin="round" stroke-width="1.5" /><path d="M12 4L12 2" stroke="currentColor" stroke-linecap="round" stroke-linejoin="round" stroke-width="1.5" /><path d="M12 22L12 18" stroke="currentColor" stroke-linecap="round" stroke-linejoin="round" stroke-width="1.5" /><path d="M11 15H13M11 11.5H13M11 8L13 8" stroke="currentColor" stroke-linecap="round" stroke-linejoin="round" stroke-width="1.5" /></svg>