<svg xmlns="http://www.w3.org/2000/svg" width="24" height="24" viewBox="0 0 24 24" fill="none" stroke-width="1.5" stroke-linecap="round" stroke-linejoin="round" color="currentColor"><path d="M22.37 11.949C22.17 11.329 21.79 10.939 21.13 10.279L13.46 2.60902C12.82 1.96902 12.43 1.58902 11.8 1.37902C11.18 1.17902 10.72 1.24902 9.99 1.37902C4.78 2.23902 1 6.69902 1 11.989C1 17.919 5.83 22.749 11.76 22.749C17.05 22.749 21.51 18.969 22.38 13.749C22.5 13.039 22.57 12.579 22.37 11.949ZM19.98 11.249C16.36 11.239 14.86 11.129 13.74 10.009C12.62 8.87902 12.51 7.37902 12.5 3.75902L19.98 11.239V11.249ZM20.9 13.519C20.15 17.999 16.31 21.249 11.76 21.249C6.65 21.249 2.5 17.099 2.5 11.989C2.5 7.43902 5.75 3.59902 10.28 2.83902C10.63 2.77902 10.84 2.74902 11 2.74902C11 7.42902 11.03 9.40902 12.68 11.069C14.33 12.719 16.31 12.749 20.99 12.749C20.99 12.919 20.96 13.139 20.9 13.519Z" fill="currentColor"></path></svg>