<svg xmlns="http://www.w3.org/2000/svg" width="24" height="24" viewBox="0 0 24 24" fill="none"><path d="M13 22V20.6611C13 20.0548 13.2408 19.4735 13.6695 19.0448L18.3102 14.4041C18.5689 14.1453 18.9198 14 19.2857 14C19.6516 14 20.0025 14.1453 20.2612 14.4041L20.5959 14.7388C20.8547 14.9975 21 15.3484 21 15.7143C21 16.0802 20.8547 16.4311 20.5959 16.6898L15.9552 21.3305C15.5265 21.7592 14.9452 22 14.3389 22H13Z" stroke="currentColor" stroke-linecap="round" stroke-linejoin="round" stroke-width="1.5" /><path d="M8 22H10" stroke="currentColor" stroke-linecap="round" stroke-linejoin="round" stroke-width="1.5" /><path d="M13.5 2H8.5C7.67157 2 7 2.67157 7 3.5C7 4.32843 7.67157 5 8.5 5H13.5C14.3284 5 15 4.32843 15 3.5C15 2.67157 14.3284 2 13.5 2Z" stroke="currentColor" stroke-linecap="round" stroke-linejoin="round" stroke-width="1.5" /><path d="M6.9999 3.5C5.44651 3.54681 4.51997 3.72007 3.87868 4.36136C3 5.24004 3.00001 6.65425 3.00001 9.48269L3 15.9995C3.00001 18.8279 3.00001 20.2421 3.87869 21.1208C4.17848 21.4206 4.54062 21.6181 5 21.7482" stroke="currentColor" stroke-linecap="round" stroke-linejoin="round" stroke-width="1.5" /><path d="M18.9998 9C18.997 6.4904 18.9485 5.18857 18.1213 4.36137C17.48 3.72007 16.5534 3.54681 15 3.5" stroke="currentColor" stroke-linecap="round" stroke-linejoin="round" stroke-width="1.5" /></svg>