<svg xmlns="http://www.w3.org/2000/svg" width="24" height="24" viewBox="0 0 24 24" fill="none"><circle cx="15.002" cy="16" r="6" stroke="currentColor" stroke-linecap="round" stroke-linejoin="round" stroke-width="1.5" /><path d="M15.002 13.5V16L16.502 17" stroke="currentColor" stroke-linecap="round" stroke-linejoin="round" stroke-width="1.5" /><path d="M13.498 2H8.49805C7.66962 2 6.99805 2.67157 6.99805 3.5C6.99805 4.32843 7.66962 5 8.49805 5H13.498C14.3265 5 14.998 4.32843 14.998 3.5C14.998 2.67157 14.3265 2 13.498 2Z" stroke="currentColor" stroke-linecap="round" stroke-linejoin="round" stroke-width="1.5" /><path d="M14.9981 3.5C16.5515 3.54681 17.4781 3.72007 18.1194 4.36137C18.6913 4.93328 18.891 5.73206 18.9607 7M6.99795 3.5C5.44456 3.54681 4.51802 3.72007 3.87673 4.36136C2.99805 5.24004 2.99805 6.65425 2.99806 9.48269L2.99805 15.9995C2.99805 18.8279 2.99806 20.2421 3.87674 21.1208C4.51802 21.7621 5.44457 21.9353 6.99795 21.9821" stroke="currentColor" stroke-linecap="round" stroke-linejoin="round" stroke-width="1.5" /></svg>