<svg xmlns="http://www.w3.org/2000/svg" width="24" height="24" viewBox="0 0 24 24" fill="none"><path d="M11.502 13.0003L20.502 13.0003" stroke="currentColor" stroke-linecap="round" stroke-linejoin="round" stroke-width="1.5" /><path d="M13.5019 10.0003C13.5019 10.0003 10.502 12.2097 10.502 13.0003C10.5019 13.7909 13.502 16.0003 13.502 16.0003" stroke="currentColor" stroke-linecap="round" stroke-linejoin="round" stroke-width="1.5" /><path d="M13.998 2.00027H8.99805C8.16962 2.00027 7.49805 2.67185 7.49805 3.50027C7.49805 4.3287 8.16962 5.00027 8.99805 5.00027H13.998C14.8265 5.00027 15.498 4.3287 15.498 3.50027C15.498 2.67185 14.8265 2.00027 13.998 2.00027Z" stroke="currentColor" stroke-linecap="round" stroke-linejoin="round" stroke-width="1.5" /><path d="M15.4981 3.50027C17.0515 3.54709 17.9781 3.72035 18.6194 4.36164C19.4466 5.18885 19.495 6.49068 19.4979 9.00027M7.49795 3.50027C5.94456 3.54708 5.01802 3.72034 4.37673 4.36163C3.49805 5.24031 3.49805 6.65453 3.49806 9.48296L3.49805 15.9998C3.49805 18.8282 3.49806 20.2424 4.37674 21.1211C5.25541 21.9997 6.66963 21.9997 9.49805 21.9997L13.498 21.9997C16.3265 21.9997 17.7407 21.9997 18.6194 21.1211C19.3877 20.3527 19.4842 19.175 19.4963 17.0003" stroke="currentColor" stroke-linecap="round" stroke-linejoin="round" stroke-width="1.5" /></svg>