<svg xmlns="http://www.w3.org/2000/svg" width="24" height="24" viewBox="0 0 24 24" fill="none"><path d="M11.5 22V20.4937C11.5 19.8117 11.7709 19.1576 12.2532 18.6754L17.474 13.4546C17.7651 13.1635 18.1598 13 18.5714 13C18.983 13 19.3778 13.1635 19.6689 13.4546L20.0454 13.8311C20.3365 14.1222 20.5 14.517 20.5 14.9286C20.5 15.3402 20.3365 15.7349 20.0454 16.026L14.8246 21.2468C14.3423 21.7291 13.6883 22 13.0063 22H11.5Z" stroke="currentColor" stroke-linecap="round" stroke-linejoin="round" stroke-width="1.5" /><path d="M14 2H9C8.17157 2 7.5 2.67157 7.5 3.5C7.5 4.32843 8.17157 5 9 5H14C14.8284 5 15.5 4.32843 15.5 3.5C15.5 2.67157 14.8284 2 14 2Z" stroke="currentColor" stroke-linecap="round" stroke-linejoin="round" stroke-width="1.5" /><path d="M7.4999 21.9821C5.94652 21.9353 5.01998 21.7621 4.37869 21.1208C3.50001 20.2421 3.50001 18.8279 3.5 15.9995L3.50001 9.48269C3.50001 6.65425 3.5 5.24004 4.37868 4.36136C5.01997 3.72007 5.94651 3.54681 7.4999 3.5" stroke="currentColor" stroke-linecap="round" stroke-linejoin="round" stroke-width="1.5" /><path d="M19.4998 9C19.497 6.4904 19.4485 5.18857 18.6213 4.36137C17.98 3.72007 17.0534 3.54681 15.5 3.5" stroke="currentColor" stroke-linecap="round" stroke-linejoin="round" stroke-width="1.5" /></svg>