<svg xmlns="http://www.w3.org/2000/svg" width="24" height="24" viewBox="0 0 24 24" fill="none"><path d="M21.9 10C20.9734 5.43552 16.9379 2 12.1 2C6.57717 2 2.10002 6.47715 2.10002 12C2.10002 17.5228 6.57717 22 12.1 22C13.1452 22 14.153 21.8396 15.1 21.5422" stroke="currentColor" stroke-linecap="round" stroke-linejoin="round" stroke-width="1.5" /><path d="M12.1 8V12L14.1 14" stroke="currentColor" stroke-linecap="round" stroke-linejoin="round" stroke-width="1.5" /><path d="M20.1 18V14" stroke="currentColor" stroke-linecap="round" stroke-linejoin="round" stroke-width="1.5" /><path d="M20.225 21.75H20.1M20.35 21.75C20.35 21.8881 20.2381 22 20.1 22C19.962 22 19.85 21.8881 19.85 21.75C19.85 21.6119 19.962 21.5 20.1 21.5C20.2381 21.5 20.35 21.6119 20.35 21.75Z" stroke="currentColor" stroke-linecap="round" stroke-linejoin="round" stroke-width="1.5" /></svg>