<svg xmlns="http://www.w3.org/2000/svg" width="24" height="24" viewBox="0 0 24 24" fill="none" stroke-width="1.5" stroke-linecap="round" stroke-linejoin="round" color="currentColor"><path d="M12 22C6.47711 22 2 17.5228 2 12C2 6.47715 6.47715 2 12 2C16.4776 2 20.2257 4.94289 21.5 9H19" stroke="currentColor"></path><path d="M12 8V12L14 14" stroke="currentColor"></path><path d="M21.9551 13C21.9848 12.6709 22 12.3373 22 12M15 22C15.3416 21.8876 15.6753 21.7564 16 21.6078M20.7906 17C20.9835 16.6284 21.1555 16.2433 21.305 15.8462M18.1925 20.2292C18.5369 19.9441 18.8631 19.6358 19.1688 19.3065" stroke="currentColor"></path></svg>