<svg xmlns="http://www.w3.org/2000/svg" width="24" height="24" viewBox="0 0 24 24" fill="none"><path d="M14 20.7938C15.1709 20.3563 16 19.2703 16 18C16 16.3431 14.5897 15 12.85 15C12.8448 15 12.8395 15 12.8343 15C12.8447 14.8902 12.85 14.779 12.85 14.6667C12.85 12.6416 11.1263 11 9 11C6.98627 11 5.33363 12.4724 5.1643 14.3485C3.38879 14.5094 2 15.9336 2 17.6667C2 18.9964 2.81753 20.1442 4 20.6792" stroke="currentColor" stroke-linecap="round" stroke-linejoin="round" stroke-width="1.5" /><path d="M17.3686 13C17.4509 12.6804 17.4946 12.3453 17.4946 12C17.4946 9.79086 15.7038 8 13.4946 8C12.7915 8 12.1308 8.18142 11.5566 8.5" stroke="currentColor" stroke-linecap="round" stroke-linejoin="round" stroke-width="1.5" /><path d="M13.494 3V4M21.999 11.495H20.999M19.5059 5.48617L18.7988 6.19328M8.19929 6.19343L7.49218 5.48633" stroke="currentColor" stroke-linecap="round" stroke-linejoin="round" stroke-width="1.5" /><path d="M11 19V21" stroke="currentColor" stroke-linecap="round" stroke-linejoin="round" stroke-width="1.5" /><path d="M7 18V20" stroke="currentColor" stroke-linecap="round" stroke-linejoin="round" stroke-width="1.5" /></svg>