<svg xmlns="http://www.w3.org/2000/svg" width="24" height="24" viewBox="0 0 24 24" fill="none"><path d="M17.4776 9.00005C17.485 9.00002 17.4925 9 17.5 9C19.9853 9 22 11.0147 22 13.5C22 15.4593 20.7478 17.1262 19 17.7439M16.9003 11C17.2119 10.3904 17.4131 9.71494 17.4776 9.00005C17.4924 8.83536 17.5 8.66856 17.5 8.5C17.5 5.46243 15.0376 3 12 3C9.12324 3 6.76233 5.20862 6.52042 8.0227M6.52042 8.0227C3.98398 8.26407 2 10.4003 2 13C2 15.0503 3.2341 16.8124 5 17.584M6.52042 8.0227C6.67826 8.00768 6.83823 8 7 8C7.7111 8 8.38754 8.14845 9 8.41604" stroke="currentColor" stroke-linecap="round" stroke-linejoin="round" stroke-width="1.5" /><path d="M12.028 19C13.1326 19 14.028 18.1046 14.028 17C14.028 15.8954 13.1326 15 12.028 15M12.028 19C10.9234 19 10.028 18.1046 10.028 17C10.028 15.8954 10.9234 15 12.028 15M12.028 19V21M12.028 15V13M13.7626 15.9956L15.4946 14.9956M10.2985 17.9956L8.56643 18.9956M13.7676 17.9956L15.4996 18.9956M10.3035 15.9956L8.57143 14.9956" stroke="currentColor" stroke-linecap="round" stroke-linejoin="round" stroke-width="1.5" /></svg>