<svg xmlns="http://www.w3.org/2000/svg" width="24" height="24" viewBox="0 0 24 24" fill="none"><path d="M17.4776 8.50005C17.485 8.50002 17.4925 8.5 17.5 8.5C19.9853 8.5 22 10.5147 22 13C22 14.5602 21.206 15.935 20 16.7422M16.9003 10.5C17.2119 9.89038 17.4131 9.21494 17.4776 8.50005C17.4924 8.33536 17.5 8.16856 17.5 8C17.5 4.96243 15.0376 2.5 12 2.5C9.12324 2.5 6.76233 4.70862 6.52042 7.5227M6.52042 7.5227C3.98398 7.76407 2 9.90034 2 12.5C2 14.1358 2.78555 15.5882 4 16.5004M6.52042 7.5227C6.67826 7.50768 6.83823 7.5 7 7.5C7.78232 7.5 8.52268 7.67967 9.18206 8" stroke="currentColor" stroke-linecap="round" stroke-linejoin="round" stroke-width="1.5" /><path d="M10.1992 21.5L12.1992 16.5" stroke="currentColor" stroke-linecap="round" stroke-linejoin="round" stroke-width="1.5" /><path d="M9 14.5L7 19.5" stroke="currentColor" stroke-linecap="round" stroke-linejoin="round" stroke-width="1.5" /><path d="M17 14.5L15 19.5" stroke="currentColor" stroke-linecap="round" stroke-linejoin="round" stroke-width="1.5" /></svg>