<svg xmlns="http://www.w3.org/2000/svg" width="24" height="24" viewBox="0 0 24 24" fill="none"><path d="M17.4776 8.50005C17.485 8.50002 17.4925 8.5 17.5 8.5C19.9853 8.5 22 10.5147 22 13C22 14.5602 21.206 15.935 20 16.7422M17.4776 8.50005C17.4924 8.33536 17.5 8.16856 17.5 8C17.5 4.96243 15.0376 2.5 12 2.5C9.12324 2.5 6.76233 4.70862 6.52042 7.5227M17.4776 8.50005C17.4466 8.84345 17.3841 9.17773 17.293 9.5M6.52042 7.5227C3.98398 7.76407 2 9.90034 2 12.5C2 14.1358 2.78555 15.5882 4 16.5004M6.52042 7.5227C6.67826 7.50768 6.83823 7.5 7 7.5C7.7111 7.5 8.38754 7.64845 9 7.91604" stroke="currentColor" stroke-linecap="round" stroke-linejoin="round" stroke-width="1.5" /><path d="M16 13.5V15.5" stroke="currentColor" stroke-linecap="round" stroke-linejoin="round" stroke-width="1.5" /><path d="M8 13.5V15.5" stroke="currentColor" stroke-linecap="round" stroke-linejoin="round" stroke-width="1.5" /><path d="M16 19.5H16.01" stroke="currentColor" stroke-linecap="round" stroke-linejoin="round" stroke-width="1.5" /><path d="M8 19.5H8.01" stroke="currentColor" stroke-linecap="round" stroke-linejoin="round" stroke-width="1.5" /><path d="M12 15.5V17.5" stroke="currentColor" stroke-linecap="round" stroke-linejoin="round" stroke-width="1.5" /><path d="M12 21.5H12.01" stroke="currentColor" stroke-linecap="round" stroke-linejoin="round" stroke-width="1.5" /></svg>