<svg xmlns="http://www.w3.org/2000/svg" width="24" height="24" viewBox="0 0 24 24" fill="none"><path d="M12 13V17" stroke="currentColor" stroke-linecap="round" stroke-linejoin="round" stroke-width="1.5" /><path d="M12.125 20.75H12M12.25 20.75C12.25 20.8881 12.1381 21 12 21C11.8619 21 11.75 20.8881 11.75 20.75C11.75 20.6119 11.8619 20.5 12 20.5C12.1381 20.5 12.25 20.6119 12.25 20.75Z" stroke="currentColor" stroke-linecap="round" stroke-linejoin="round" stroke-width="1.5" /><path d="M17.4776 9.00005C17.485 9.00002 17.4925 9 17.5 9C19.9853 9 22 11.0147 22 13.5C22 15.9853 19.9853 18 17.5 18H16M17.4776 9.00005C17.4924 8.83536 17.5 8.66856 17.5 8.5C17.5 5.46243 15.0376 3 12 3C9.12324 3 6.76233 5.20862 6.52042 8.0227M17.4776 9.00005C17.3753 10.1345 16.9286 11.1696 16.2428 12M6.52042 8.0227C3.98398 8.26407 2 10.4003 2 13C2 15.7614 4.23858 18 7 18H8M6.52042 8.0227C6.67826 8.00768 6.83823 8 7 8C8.12582 8 9.16474 8.37209 10.0005 9" stroke="currentColor" stroke-linecap="round" stroke-linejoin="round" stroke-width="1.5" /></svg>