<svg xmlns="http://www.w3.org/2000/svg" width="24" height="24" viewBox="0 0 24 24" fill="none"><path d="M17.4776 9.50005C17.485 9.50002 17.4925 9.5 17.5 9.5C19.9853 9.5 22 11.5147 22 14C22 15.9593 20.7478 17.6262 19 18.2439M17.1251 11C17.3093 10.5282 17.4303 10.0248 17.4776 9.50005C17.4924 9.33536 17.5 9.16856 17.5 9C17.5 5.96243 15.0376 3.5 12 3.5C9.12324 3.5 6.76233 5.70862 6.52042 8.5227M6.52042 8.5227C3.98398 8.76407 2 10.9003 2 13.5C2 15.5503 3.2341 17.3124 5 18.084M6.52042 8.5227C6.67826 8.50768 6.83823 8.5 7 8.5C7.7111 8.5 8.38754 8.64845 9 8.91604" stroke="currentColor" stroke-linecap="round" stroke-linejoin="round" stroke-width="1.5" /><path d="M9.5 18.5L11.5 20.5L16.5 15.5" stroke="currentColor" stroke-linecap="round" stroke-linejoin="round" stroke-width="1.5" /></svg>