<svg xmlns="http://www.w3.org/2000/svg" width="24" height="24" viewBox="0 0 24 24" fill="none"><path d="M7 18C4.23858 18 2 15.7614 2 13C2 10.4003 3.98398 8.26407 6.52042 8.0227M17.5 18C19.9853 18 22 15.9853 22 13.5C22 11.0147 19.9853 9 17.5 9C17.4925 9 17.485 9.00002 17.4776 9.00005M16.9003 11C17.2119 10.3904 17.4131 9.71494 17.4776 9.00005C17.4924 8.83536 17.5 8.66856 17.5 8.5C17.5 5.46243 15.0376 3 12 3C9.12324 3 6.76233 5.20862 6.52042 8.0227M6.52042 8.0227C6.67826 8.00768 6.83823 8 7 8C7.7111 8 8.38754 8.14845 9 8.41604" stroke="currentColor" stroke-linecap="round" stroke-linejoin="round" stroke-width="1.5" /><path d="M12.9994 13L11.1994 15.4C10.6758 16.0981 10.414 16.4472 10.5522 16.7236C10.6904 17 11.1267 17 11.9994 17C12.8721 17 13.3084 17 13.4466 17.2764C13.5848 17.5528 13.323 17.9019 12.7994 18.6L10.9994 21" stroke="currentColor" stroke-linecap="round" stroke-linejoin="round" stroke-width="1.5" /></svg>