<svg xmlns="http://www.w3.org/2000/svg" width="24" height="24" viewBox="0 0 24 24" fill="none"><path d="M17 9H4.33333C4.02334 9 3.86835 9 3.74118 9.03407C3.39609 9.12654 3.12654 9.39609 3.03407 9.74118C3 9.86835 3 10.0233 3 10.3333V14C3 17.866 6.13401 21 10 21C13.866 21 17 17.866 17 14V9Z" stroke="currentColor" stroke-linecap="round" stroke-linejoin="round" stroke-width="1.5" /><path d="M17 9H18C19.6569 9 21 10.3431 21 12C21 13.6569 19.6569 15 18 15H17" stroke="currentColor" stroke-linecap="round" stroke-linejoin="round" stroke-width="1.5" /><path d="M10 3V5" stroke="currentColor" stroke-linecap="round" stroke-linejoin="round" stroke-width="1.5" /><path d="M14 3V5" stroke="currentColor" stroke-linecap="round" stroke-linejoin="round" stroke-width="1.5" /><path d="M6 3V5" stroke="currentColor" stroke-linecap="round" stroke-linejoin="round" stroke-width="1.5" /></svg>