<svg xmlns="http://www.w3.org/2000/svg" width="24" height="24" viewBox="0 0 24 24" fill="none" stroke-width="1.5" stroke-linecap="round" stroke-linejoin="round" color="currentColor"><path d="M12.0339 22.0625C6.64391 22.0625 2.25391 17.6925 2.25391 12.3125C2.25391 6.9325 6.64391 2.5625 12.0339 2.5625C17.0239 2.5625 21.2039 6.29251 21.7439 11.2325C21.7639 11.4425 21.7039 11.6525 21.5539 11.8125C21.4139 11.9725 21.2039 12.0625 20.9939 12.0625H16.4239C16.0739 12.0625 15.7739 11.8225 15.6939 11.4825C15.2939 9.76251 13.7939 8.5625 12.0239 8.5625C9.94391 8.5625 8.25391 10.2425 8.25391 12.3125C8.25391 14.3825 9.94391 16.0625 12.0239 16.0625C13.7839 16.0625 15.2939 14.8625 15.6939 13.1425C15.7739 12.8025 16.0739 12.5625 16.4239 12.5625H20.9939C21.2039 12.5625 21.4139 12.6525 21.5539 12.8125C21.6939 12.9725 21.7639 13.1825 21.7439 13.3925C21.1939 18.3325 17.0139 22.0625 12.0339 22.0625ZM12.0339 4.0625C7.4639 4.0625 3.75391 7.7625 3.75391 12.3125C3.75391 16.8625 7.4639 20.5625 12.0339 20.5625C15.9739 20.5625 19.3139 17.8225 20.1239 14.0625H16.9939C16.2539 16.1525 14.2939 17.5625 12.0339 17.5625C9.12391 17.5625 6.76391 15.2025 6.76391 12.3125C6.76391 9.4225 9.12391 7.0625 12.0339 7.0625C14.2939 7.0625 16.2639 8.4725 16.9939 10.5625H20.1239C19.3139 6.8025 15.9739 4.0625 12.0339 4.0625Z" fill="currentColor"></path></svg>