<svg xmlns="http://www.w3.org/2000/svg" width="24" height="24" viewBox="0 0 24 24" fill="none"><path d="M16 3H8C5.17157 3 3.75736 3 2.87868 3.87868C2 4.75736 2 6.17157 2 9V11C2 13.8284 2 15.2426 2.87868 16.1213C3.75736 17 5.17157 17 8 17H16C18.8284 17 20.2426 17 21.1213 16.1213C22 15.2426 22 13.8284 22 11V9C22 6.17157 22 4.75736 21.1213 3.87868C20.2426 3 18.8284 3 16 3Z" stroke="currentColor" stroke-linecap="round" stroke-linejoin="round" stroke-width="1.5" /><path d="M14 9C14 7.89543 13.1046 7 12 7C10.8954 7 10 7.89543 10 9H9.5C8.39543 9 7.5 9.89543 7.5 11C7.5 12.1046 8.39543 13 9.5 13H14.5C15.6046 13 16.5 12.1046 16.5 11C16.5 9.89543 15.6046 9 14.5 9H14Z" stroke="currentColor" stroke-linecap="round" stroke-linejoin="round" stroke-width="1.5" /><path d="M14 21H16M14 21C13.1716 21 12.5 20.3284 12.5 19.5V17L12 17M14 21H10M10 21H8M10 21C10.8284 21 11.5 20.3284 11.5 19.5V17L12 17M12 17V21" stroke="currentColor" stroke-linecap="round" stroke-linejoin="round" stroke-width="1.5" /></svg>