<svg xmlns="http://www.w3.org/2000/svg" width="24" height="24" viewBox="0 0 24 24" fill="none" stroke-width="1.5" stroke-linecap="round" stroke-linejoin="round" color="currentColor"><path d="M14 21H16M14 21C13.1716 21 12.5 20.3284 12.5 19.5V17L12 17M14 21H10M10 21H8M10 21C10.8284 21 11.5 20.3284 11.5 19.5V17L12 17M12 17V21" fill="none"></path><path d="M14 3H8C5.17157 3 3.75736 3 2.87868 3.87868C2 4.75736 2 6.17157 2 9V11C2 13.8284 2 15.2426 2.87868 16.1213C3.75736 17 5.17157 17 8 17H16.5" fill="none"></path><path d="M19 10H20C21.1046 10 22 9.10457 22 8V5.5H17V8C17 9.10457 17.8954 10 19 10Z" fill="none"></path><path d="M19.5 10V21" fill="none"></path><path d="M17 5.5H22V3.5C22 3.22386 21.7761 3 21.5 3H17.5C17.2239 3 17 3.22386 17 3.5V5.5Z" fill="none"></path></svg>