<svg xmlns="http://www.w3.org/2000/svg" width="24" height="24" viewBox="0 0 24 24" fill="none"><path d="M6 17H8" stroke="currentColor" stroke-linecap="round" stroke-linejoin="round" stroke-width="1.5" /><path d="M12 17H18" stroke="currentColor" stroke-linecap="round" stroke-linejoin="round" stroke-width="1.5" /><path d="M10 3H14C15.8692 3 16.8038 3 17.5 3.40192C17.9561 3.66523 18.3348 4.04394 18.5981 4.5C19 5.19615 19 6.13077 19 8C19 9.86923 19 10.8038 18.5981 11.5C18.3348 11.9561 17.9561 12.3348 17.5 12.5981C16.8038 13 15.8692 13 14 13H10C8.13077 13 7.19615 13 6.5 12.5981C6.04394 12.3348 5.66523 11.9561 5.40192 11.5C5 10.8038 5 9.86923 5 8C5 6.13077 5 5.19615 5.40192 4.5C5.66523 4.04394 6.04394 3.66523 6.5 3.40192C7.19615 3 8.13077 3 10 3Z" stroke="currentColor" stroke-linecap="round" stroke-linejoin="round" stroke-width="1.5" /><path d="M6 13H18C18.93 13 19.395 13 19.7765 13.1022C20.8117 13.3796 21.6204 14.1883 21.8978 15.2235C22 15.605 22 16.07 22 17C22 17.93 22 18.395 21.8978 18.7765C21.6204 19.8117 20.8117 20.6204 19.7765 20.8978C19.395 21 18.93 21 18 21H6C5.07003 21 4.60504 21 4.22354 20.8978C3.18827 20.6204 2.37962 19.8117 2.10222 18.7765C2 18.395 2 17.93 2 17C2 16.07 2 15.605 2.10222 15.2235C2.37962 14.1883 3.18827 13.3796 4.22354 13.1022C4.60504 13 5.07003 13 6 13Z" stroke="currentColor" stroke-linecap="round" stroke-linejoin="round" stroke-width="1.5" /></svg>