<svg xmlns="http://www.w3.org/2000/svg" width="24" height="24" viewBox="0 0 24 24" fill="none" stroke-width="1.5" stroke-linecap="round" stroke-linejoin="round" color="currentColor"><path d="M21.999 11C21.9906 13.6255 21.9127 15.0435 21.1862 16.0811C20.8851 16.5111 20.5111 16.8851 20.0811 17.1862C18.9188 18 17.2792 18 14 18H10C6.72077 18 5.08116 18 3.91891 17.1862C3.48891 16.8851 3.1149 16.5111 2.81382 16.0811C2 14.9188 2 13.2792 2 10C2 6.72077 2 5.08116 2.81382 3.91891C3.1149 3.48891 3.48891 3.1149 3.91891 2.81382C5.08116 2 6.72077 2 10 2H11.5" stroke="currentColor"></path><path d="M14 6C14 6 15 6 16 8C16 8 19.1765 3 22 2" stroke="currentColor"></path><path d="M11 15H13" stroke="currentColor"></path><path d="M12 18V22" stroke="currentColor"></path><path d="M8 22H16" stroke="currentColor"></path></svg>