<svg xmlns="http://www.w3.org/2000/svg" width="24" height="24" viewBox="0 0 24 24" fill="none"><path d="M3.5 20.5H20.5C20.9659 20.5 21.1989 20.5 21.3827 20.4239C21.6277 20.3224 21.8224 20.1277 21.9239 19.8827C22 19.6989 22 19.4659 22 19C22 18.5341 22 18.3011 21.9239 18.1173C21.8224 17.8723 21.6277 17.6776 21.3827 17.5761C21.1989 17.5 20.9659 17.5 20.5 17.5H3.5C3.03406 17.5 2.80109 17.5 2.61732 17.5761C2.37229 17.6776 2.17761 17.8723 2.07612 18.1173C2 18.3011 2 18.5341 2 19C2 19.4659 2 19.6989 2.07612 19.8827C2.17761 20.1277 2.37229 20.3224 2.61732 20.4239C2.80109 20.5 3.03406 20.5 3.5 20.5Z" stroke="currentColor" stroke-linecap="round" stroke-linejoin="round" stroke-width="1.5" /><path d="M20 14.5C20 10.0817 16.4183 6.5 12 6.5C7.58172 6.5 4 10.0817 4 14.5" stroke="currentColor" stroke-linecap="round" stroke-linejoin="round" stroke-width="1.5" /><path d="M12 3.50195V6.50195" stroke="currentColor" stroke-linecap="round" stroke-linejoin="round" stroke-width="1.5" /><path d="M10 3.50195L14 3.50158" stroke="currentColor" stroke-linecap="round" stroke-linejoin="round" stroke-width="1.5" /></svg>