<svg xmlns="http://www.w3.org/2000/svg" width="24" height="24" viewBox="0 0 24 24" fill="none" stroke-width="1.5" stroke-linecap="round" stroke-linejoin="round" color="currentColor"><path d="M13.55 1.75H9.94C8.11 1.75 6.65001 1.75015 5.51001 1.90015C4.34001 2.06015 3.39001 2.39014 2.64001 3.14014C1.89002 3.89014 1.56002 4.84001 1.40002 6.01001C1.31002 6.68001 1.28001 7.47012 1.26001 8.37012C1.25001 8.42012 1.25 8.46 1.25 8.5C1.25 8.54 1.25001 8.5701 1.26001 8.6001C1.25001 9.1701 1.25 9.77994 1.25 10.4399V11.5601C1.25 13.3901 1.25002 14.85 1.40002 15.99C1.56002 17.16 1.89002 18.1101 2.64001 18.8601C3.39001 19.6101 4.34001 19.9401 5.51001 20.1001C6.65001 20.2501 8.11 20.25 9.94 20.25H10C10.41 20.25 10.75 19.91 10.75 19.5C10.75 19.09 10.41 18.75 10 18.75C8.09 18.75 6.74002 18.7501 5.71002 18.6101C4.70002 18.4701 4.13001 18.22 3.70001 17.8C3.28001 17.37 3.03001 16.8 2.89001 15.79C2.75001 14.76 2.75 13.41 2.75 11.5V9.25H20.25V10C20.25 10.41 20.59 10.75 21 10.75C21.41 10.75 21.75 10.41 21.75 10V9.94995V8.40991C21.74 7.50991 21.71 6.73008 21.63 6.08008C21.51 5.04008 21.25 4.19999 20.67 3.48999C20.47 3.24999 20.25 3.03008 20.01 2.83008C19.3 2.25008 18.46 1.99012 17.42 1.87012C16.42 1.75012 15.15 1.75 13.55 1.75ZM20.23 7.75H2.78003C2.80003 7.16 2.83001 6.65996 2.89001 6.20996C3.03001 5.19996 3.28001 4.62995 3.70001 4.19995C4.13001 3.77995 4.70002 3.53014 5.71002 3.39014C6.74002 3.25014 8.09 3.25 10 3.25H13.5C15.16 3.25 16.34 3.25011 17.25 3.36011C18.14 3.46011 18.66 3.65999 19.06 3.98999C19.23 4.11999 19.38 4.26994 19.51 4.43994C19.84 4.83994 20.04 5.36 20.14 6.25C20.19 6.68 20.22 7.17 20.23 7.75ZM4.5 5.5C4.5 4.95 4.95 4.5 5.5 4.5H5.51001C6.06001 4.5 6.51001 4.95 6.51001 5.5C6.51001 6.05 6.06001 6.5 5.51001 6.5H5.5C4.95 6.5 4.5 6.05 4.5 5.5ZM8.48999 5.5C8.48999 4.95 8.93999 4.5 9.48999 4.5H9.5C10.05 4.5 10.5 4.95 10.5 5.5C10.5 6.05 10.05 6.5 9.5 6.5H9.48999C8.93999 6.5 8.48999 6.05 8.48999 5.5ZM21.71 12.4099C20.83 11.5299 19.41 11.5299 18.53 12.4099L13.06 17.8801C12.54 18.4001 12.25 19.1001 12.25 19.8301V21.5C12.25 21.91 12.59 22.25 13 22.25H14.67C15.4 22.25 16.1 21.9599 16.62 21.4399L22.09 15.97C22.97 15.09 22.97 13.67 22.09 12.79L21.71 12.4099ZM19.59 13.47C19.88 13.18 20.36 13.18 20.65 13.47L21.03 13.8501C21.32 14.1401 21.32 14.6199 21.03 14.9099L15.56 20.3801C15.32 20.6201 15 20.75 14.67 20.75H13.75V19.8301C13.75 19.5001 13.88 19.1799 14.12 18.9399L19.59 13.47Z" fill="currentColor"></path></svg>