<svg xmlns="http://www.w3.org/2000/svg" width="24" height="24" viewBox="0 0 24 24" fill="none"><path d="M15 5H9C6.09433 5 4.64149 5 3.62036 5.73563C3.27976 5.981 2.981 6.27976 2.73563 6.62036C2 7.64149 2 9.09433 2 12C2 14.9057 2 16.3585 2.73563 17.3796C2.981 17.7202 3.27976 18.019 3.62036 18.2644C4.64149 19 6.09433 19 9 19H15C17.9057 19 19.3585 19 20.3796 18.2644C20.7202 18.019 21.019 17.7202 21.2644 17.3796C22 16.3585 22 14.9057 22 12C22 9.09433 22 7.64149 21.2644 6.62036C21.019 6.27976 20.7202 5.981 20.3796 5.73563C19.3585 5 17.9057 5 15 5Z" stroke="currentColor" stroke-linecap="round" stroke-linejoin="round" stroke-width="1.5" /><path d="M18 9V15" stroke="currentColor" stroke-linecap="round" stroke-linejoin="round" stroke-width="1.5" /><path d="M14 9V15" stroke="currentColor" stroke-linecap="round" stroke-linejoin="round" stroke-width="1.5" /><path d="M10 9V15" stroke="currentColor" stroke-linecap="round" stroke-linejoin="round" stroke-width="1.5" /><path d="M6 9V15" stroke="currentColor" stroke-linecap="round" stroke-linejoin="round" stroke-width="1.5" /></svg>