<svg xmlns="http://www.w3.org/2000/svg" width="24" height="24" viewBox="0 0 24 24" fill="none"><path d="M18 10.9531H6C5.05719 10.9531 4.58579 10.9531 4.29289 11.246C4 11.5389 4 12.0103 4 12.9531V15.9531C4 18.7816 4 20.1958 4.87868 21.0744C5.75736 21.9531 7.17157 21.9531 10 21.9531H14C16.8284 21.9531 18.2426 21.9531 19.1213 21.0744C20 20.1958 20 18.7816 20 15.9531V12.9531C20 12.0103 20 11.5389 19.7071 11.246C19.4142 10.9531 18.9428 10.9531 18 10.9531Z" stroke="currentColor" stroke-linecap="round" stroke-linejoin="round" stroke-width="1.5" /><path d="M20 12.9531H22" stroke="currentColor" stroke-linecap="round" stroke-linejoin="round" stroke-width="1.5" /><path d="M2 12.9531H4" stroke="currentColor" stroke-linecap="round" stroke-linejoin="round" stroke-width="1.5" /><path d="M4 7.95312L20.4207 3.5532" stroke="currentColor" stroke-linecap="round" stroke-width="1.5" /><path d="M9.3125 6.52974L9.18309 6.04678C8.9419 5.14665 8.82131 4.69658 8.87323 4.30216C8.94247 3.77627 9.21778 3.29941 9.6386 2.97651C9.95422 2.73433 10.4043 2.61373 11.3044 2.37254C12.2045 2.13135 12.6546 2.01076 13.049 2.06269C13.5749 2.13192 14.0518 2.40723 14.3747 2.82805C14.6169 3.14367 14.7375 3.59373 14.9786 4.49386L15.1081 4.97683" stroke="currentColor" stroke-linecap="round" stroke-width="1.5" /></svg>