<svg xmlns="http://www.w3.org/2000/svg" width="24" height="24" viewBox="0 0 24 24" fill="none"><path d="M13 2.00195C10.1716 2.00195 8.75736 2.00195 7.87868 2.88063C7 3.75931 7 5.17353 7 8.00195V12.002C7 14.8304 7 16.2446 7.87868 17.1233C8.75736 18.002 10.1716 18.002 13 18.002H15C17.8284 18.002 19.2426 18.002 20.1213 17.1233C21 16.2446 21 14.8304 21 12.002V8.00195C21 5.17353 21 3.75931 20.1213 2.88063C19.2426 2.00195 17.8284 2.00195 15 2.00195H13Z" stroke="currentColor" fill-rule="evenodd" clip-rule="evenodd" stroke-linecap="round" stroke-width="1.5" /><path d="M11.5 7.50195L16.5 12.502M16.5 7.50195L11.5 12.502" stroke="currentColor" stroke-linecap="round" stroke-width="1.5" /><path d="M17 22.002H9C6.17157 22.002 4.75736 22.002 3.87868 21.1233C3 20.2446 3 18.8304 3 16.002V6.00195" stroke="currentColor" stroke-linecap="round" stroke-width="1.5" /></svg>