<svg xmlns="http://www.w3.org/2000/svg" width="24" height="24" viewBox="0 0 24 24" fill="none"><path d="M10 9.17071C9.68722 9.06015 9.35064 9 9 9C7.34315 9 6 10.3431 6 12C6 13.6569 7.34315 15 9 15C9.35064 15 9.68722 14.9398 10 14.8293" stroke="currentColor" stroke-linecap="round" stroke-linejoin="round" stroke-width="1.5" /><path d="M17 9.17071C16.6872 9.06015 16.3506 9 16 9C14.3431 9 13 10.3431 13 12C13 13.6569 14.3431 15 16 15C16.3506 15 16.6872 14.9398 17 14.8293" stroke="currentColor" stroke-linecap="round" stroke-linejoin="round" stroke-width="1.5" /><path d="M2 12C2 17.5228 6.47715 22 12 22C17.5228 22 22 17.5228 22 12C22 6.47715 17.5228 2 12 2C6.47715 2 2 6.47715 2 12Z" stroke="currentColor" stroke-linecap="round" stroke-linejoin="round" stroke-width="1.5" /></svg>