<svg xmlns="http://www.w3.org/2000/svg" width="24" height="24" viewBox="0 0 24 24" fill="none" stroke-width="1.5" stroke-linecap="round" stroke-linejoin="round" color="currentColor"><path d="M11 20H10.5C6.74142 20 4.86213 20 3.60746 19.0091C3.40678 18.8506 3.22119 18.676 3.0528 18.4871C2 17.3062 2 15.5375 2 12C2 8.46252 2 6.69377 3.0528 5.5129C3.22119 5.32403 3.40678 5.14935 3.60746 4.99087C4.86213 4 6.74142 4 10.5 4H13.5C17.2586 4 19.1379 4 20.3925 4.99087C20.5932 5.14935 20.7788 5.32403 20.9472 5.5129C21.8957 6.57684 21.9897 8.11799 21.999 11" stroke="currentColor"></path><path d="M2 9H22" stroke="currentColor"></path><path d="M14 18C14 18 15 18 16 20C16 20 19.1765 15 22 14" stroke="currentColor"></path></svg>