<svg xmlns="http://www.w3.org/2000/svg" width="24" height="24" viewBox="0 0 24 24" fill="none"><path d="M16 6.00195H6C4.89543 6.00195 4 6.89738 4 8.00195C4 8.55424 4.44772 9.00195 5 9.00195H17C17.5523 9.00195 18 8.55424 18 8.00195C18 6.89738 17.1046 6.00195 16 6.00195Z" stroke="currentColor" stroke-linecap="round" stroke-linejoin="round" stroke-width="1.5" /><path d="M17 9.00195L16.3835 17.0167C16.2226 19.1077 16.1422 20.1532 15.5655 20.8748C15.3784 21.1089 15.1573 21.3137 14.9095 21.4823C14.1457 22.002 13.0972 22.002 11 22.002C8.90284 22.002 7.85426 22.002 7.09047 21.4823C6.84271 21.3137 6.62161 21.1089 6.43453 20.8748C5.85778 20.1532 5.77736 19.1077 5.61652 17.0167L5 9.00195H17Z" stroke="currentColor" stroke-linecap="round" stroke-linejoin="round" stroke-width="1.5" /><path d="M12 6.00195L12.2724 4.91238C12.6069 3.57436 12.7742 2.90534 13.2501 2.49199C13.3027 2.44629 13.3577 2.40336 13.4148 2.3634C13.9312 2.00195 14.6208 2.00195 16 2.00195" stroke="currentColor" stroke-linecap="round" stroke-linejoin="round" stroke-width="1.5" /></svg>