<svg xmlns="http://www.w3.org/2000/svg" width="24" height="24" viewBox="0 0 24 24" fill="none" stroke-width="1.5" stroke-linecap="round" stroke-linejoin="round" color="currentColor"><path d="M8.96 4.5H15.04C16.41 4.5 17.49 4.50009 18.36 4.59009C19.25 4.68009 19.99 4.87005 20.64 5.30005C21.16 5.65005 21.6 6.09011 21.95 6.61011C22.38 7.26011 22.57 8.00014 22.66 8.89014C22.75 9.75014 22.75 10.84 22.75 12.21V12.29C22.75 13.66 22.75 14.7501 22.66 15.6101C22.57 16.5001 22.38 17.2401 21.95 17.8901C21.6 18.4101 21.16 18.85 20.64 19.2C19.99 19.63 19.25 19.8199 18.36 19.9099C17.49 19.9999 16.41 20 15.04 20H8.96C7.59 20 6.51 19.9999 5.64 19.9099C4.75 19.8199 4.01 19.63 3.36 19.2C2.84 18.85 2.4 18.4101 2.05 17.8901C1.62 17.2401 1.43 16.5001 1.34 15.6101C1.25 14.7501 1.25 13.66 1.25 12.29V12.21C1.25 10.84 1.25 9.75014 1.34 8.89014C1.43 8.00014 1.62 7.26011 2.05 6.61011C2.4 6.09011 2.84 5.65005 3.36 5.30005C4.01 4.87005 4.75 4.68009 5.64 4.59009C6.51 4.50009 7.59 4.5 8.96 4.5ZM5.79 6.08008C5.02 6.16008 4.56 6.31005 4.19 6.55005C3.84 6.78005 3.53 7.08994 3.29 7.43994C3.05 7.80994 2.9 8.27004 2.82 9.04004C2.74 9.82004 2.74 10.83 2.74 12.25C2.74 13.67 2.74 14.68 2.82 15.46C2.9 16.23 3.05 16.6901 3.29 17.0601C3.53 17.4101 3.83 17.72 4.19 17.95C4.55 18.19 5.02 18.3399 5.79 18.4199C6.57 18.4999 7.58 18.5 9 18.5H15C16.42 18.5 17.43 18.4999 18.21 18.4199C18.98 18.3399 19.44 18.19 19.81 17.95C20.16 17.72 20.47 17.4101 20.71 17.0601C20.95 16.6901 21.1 16.23 21.18 15.46C21.26 14.68 21.26 13.67 21.26 12.25C21.26 10.83 21.26 9.82004 21.18 9.04004C21.1 8.27004 20.95 7.80994 20.71 7.43994C20.47 7.08994 20.17 6.78005 19.81 6.55005C19.45 6.31005 18.98 6.16008 18.21 6.08008C17.43 6.00008 16.42 6 15 6H9C7.58 6 6.57 6.00008 5.79 6.08008ZM15.83 10.1001C15.66 10.2201 15.45 10.42 15.1 10.76L14.51 11.3301C14.21 11.6201 13.74 11.6101 13.45 11.3101C13.16 11.0201 13.17 10.54 13.47 10.25L14.06 9.67993L14.09 9.65015C14.4 9.36015 14.68 9.08014 14.94 8.89014C15.23 8.68014 15.57 8.5 16 8.5C16.43 8.5 16.77 8.68014 17.06 8.89014C17.32 9.08014 17.6 9.36015 17.91 9.65015L17.94 9.67993L18.53 10.25C18.83 10.54 18.83 11.0201 18.55 11.3101C18.26 11.6101 17.79 11.6201 17.49 11.3301L16.9 10.76C16.55 10.42 16.34 10.2201 16.17 10.1001C16.09 10.0401 16.05 10.02 16.02 10.01C16.01 10 16 10 16 10C16 10 16 10 15.98 10.01C15.96 10.02 15.91 10.0401 15.83 10.1001ZM13.46 13.1899C13.75 12.8899 14.22 12.8799 14.52 13.1699L15.11 13.74C15.46 14.08 15.67 14.2801 15.84 14.4001C15.92 14.4601 15.96 14.48 15.99 14.49C16 14.5 16.01 14.5 16.01 14.5C16.01 14.5 16.01 14.5 16.03 14.49C16.05 14.48 16.1 14.4601 16.18 14.4001C16.35 14.2801 16.56 14.08 16.91 13.74L17.5 13.1699C17.8 12.8799 18.27 12.8899 18.56 13.1899C18.85 13.4799 18.84 13.96 18.54 14.25L17.95 14.8201L17.92 14.8501C17.61 15.1401 17.33 15.4201 17.07 15.6101C16.78 15.8201 16.44 16 16.01 16C15.58 16 15.24 15.8201 14.95 15.6101C14.69 15.4201 14.41 15.1401 14.1 14.8501L14.07 14.8201L13.48 14.25C13.18 13.96 13.18 13.4799 13.46 13.1899ZM6 11.5C5.59 11.5 5.25 11.84 5.25 12.25C5.25 12.66 5.59 13 6 13H10C10.41 13 10.75 12.66 10.75 12.25C10.75 11.84 10.41 11.5 10 11.5H6Z" fill="currentColor" fill-rule="evenodd"></path></svg>