<svg xmlns="http://www.w3.org/2000/svg" width="24" height="24" viewBox="0 0 24 24" fill="none" stroke-width="1.5" stroke-linecap="round" stroke-linejoin="round" color="currentColor"><path d="M12.2517 22.7495C11.5417 22.7495 10.8217 22.6795 10.1017 22.5395C9.69172 22.4595 9.43172 22.0594 9.51172 21.6594C9.59172 21.2494 9.99172 20.9896 10.3917 21.0696C11.6217 21.3196 12.8617 21.3196 14.1017 21.0696C14.5117 20.9896 14.9017 21.2494 14.9817 21.6594C15.0617 22.0694 14.8017 22.4595 14.3917 22.5395C13.6817 22.6795 12.9517 22.7495 12.2417 22.7495H12.2517ZM17.7517 21.0996C17.5117 21.0996 17.2717 20.9795 17.1217 20.7595C16.8917 20.4095 16.9917 19.9495 17.3417 19.7195C18.3817 19.0395 19.2917 18.1296 19.9717 17.0896C20.2017 16.7396 20.6617 16.6496 21.0117 16.8696C21.3617 17.0996 21.4517 17.5594 21.2317 17.9094C20.4417 19.1194 19.3717 20.1795 18.1617 20.9795C18.0317 21.0595 17.8917 21.0996 17.7517 21.0996ZM6.75172 21.0996C6.61172 21.0996 6.47172 21.0595 6.34172 20.9795C5.13172 20.1895 4.07172 19.1294 3.27172 17.9094C3.04172 17.5594 3.14172 17.0996 3.49172 16.8696C3.84172 16.6396 4.30172 16.7396 4.53172 17.0896C5.21172 18.1296 6.12172 19.0395 7.16172 19.7195C7.51172 19.9495 7.60172 20.4095 7.38172 20.7595C7.24172 20.9795 7.00172 21.0996 6.75172 21.0996ZM22.0517 14.7495C22.0517 14.7495 21.9517 14.7495 21.9017 14.7395C21.4917 14.6595 21.2317 14.2596 21.3117 13.8596C21.4317 13.2496 21.5017 12.6195 21.5017 12.0095C21.5017 11.3995 21.4417 10.7694 21.3117 10.1594C21.2317 9.74939 21.4917 9.35951 21.9017 9.27951C22.3117 9.19951 22.7017 9.4596 22.7817 9.8696C22.9217 10.5796 22.9917 11.2995 22.9917 12.0195C22.9917 12.7395 22.9217 13.4594 22.7817 14.1694C22.7117 14.5294 22.4017 14.7695 22.0517 14.7695V14.7495ZM2.45172 14.7495C2.10172 14.7495 1.79172 14.4996 1.72172 14.1496C1.58172 13.4396 1.51172 12.7195 1.51172 11.9995C1.51172 11.2795 1.58172 10.5596 1.72172 9.84958C1.80172 9.43958 2.20172 9.18949 2.60172 9.25949C3.01172 9.33949 3.27172 9.73962 3.19172 10.1396C3.07172 10.7496 3.00172 11.3795 3.00172 11.9895C3.00172 12.5995 3.06172 13.2296 3.19172 13.8396C3.27172 14.2496 3.01172 14.6395 2.60172 14.7195C2.55172 14.7195 2.50172 14.7295 2.45172 14.7295V14.7495ZM20.6017 7.24948C20.3617 7.24948 20.1217 7.12939 19.9717 6.90939C19.2917 5.86939 18.3817 4.95951 17.3417 4.27951C16.9917 4.04951 16.9017 3.58947 17.1217 3.23947C17.3517 2.88947 17.8117 2.7995 18.1617 3.0195C19.3717 3.8095 20.4317 4.86957 21.2317 6.08957C21.4617 6.43957 21.3617 6.89961 21.0117 7.12961C20.8817 7.20961 20.7417 7.24948 20.6017 7.24948ZM3.90172 7.24948C3.76172 7.24948 3.62172 7.20961 3.49172 7.12961C3.14172 6.89961 3.05172 6.43957 3.27172 6.08957C4.06172 4.87957 5.13172 3.8195 6.34172 3.0195C6.69172 2.7895 7.15172 2.88947 7.38172 3.23947C7.61172 3.58947 7.51172 4.04951 7.16172 4.27951C6.12172 4.95951 5.21172 5.86939 4.53172 6.90939C4.39172 7.12939 4.15172 7.24948 3.90172 7.24948ZM14.2517 2.94943C14.2517 2.94943 14.1517 2.94942 14.1017 2.93942C12.8717 2.68942 11.6317 2.68942 10.3917 2.93942C9.98172 3.01942 9.59172 2.75958 9.51172 2.34958C9.43172 1.93958 9.69172 1.54945 10.1017 1.46945C11.5317 1.17945 12.9717 1.17945 14.3917 1.46945C14.8017 1.54945 15.0617 1.94958 14.9817 2.34958C14.9117 2.70958 14.6017 2.94943 14.2517 2.94943Z" fill="currentColor"></path></svg>