<svg xmlns="http://www.w3.org/2000/svg" width="24" height="24" viewBox="0 0 24 24" fill="none" stroke-width="1.5" stroke-linecap="round" stroke-linejoin="round" color="currentColor"><path d="M2.5 12C2.5 7.52166 2.5 5.28249 3.89124 3.89124C5.28249 2.5 7.52166 2.5 12 2.5C16.4783 2.5 18.7175 2.5 20.1088 3.89124C21.5 5.28249 21.5 7.52166 21.5 12C21.5 16.4783 21.5 18.7175 20.1088 20.1088C18.7175 21.5 16.4783 21.5 12 21.5C7.52166 21.5 5.28249 21.5 3.89124 20.1088C2.5 18.7175 2.5 16.4783 2.5 12Z" stroke="currentColor"></path><path d="M2.5 12H21.5" stroke="currentColor"></path><path d="M13 7L17 7" stroke="currentColor"></path><circle cx="8.25" cy="7" r="1.25" stroke="currentColor"></circle><circle cx="8.25" cy="17" r="1.25" stroke="currentColor"></circle><path d="M13 17L17 17" stroke="currentColor"></path></svg>