<svg xmlns="http://www.w3.org/2000/svg" width="24" height="24" viewBox="0 0 24 24" fill="none" stroke-width="1.5" stroke-linecap="round" stroke-linejoin="round" color="currentColor"><path d="M17.2969 6.57227C16.8869 6.57227 16.5469 6.23227 16.5469 5.82227V4.59787C15.7726 4.57227 14.8643 4.57227 13.7969 4.57227H13.7969H11.7969H11.7968C10.7294 4.57227 9.82112 4.57227 9.04688 4.59787V5.82227C9.04688 6.23227 8.70687 6.57227 8.29688 6.57227C7.88688 6.57227 7.54688 6.23227 7.54688 5.82227V4.70603C6.60172 4.82938 5.9526 5.06649 5.49683 5.52226C4.89543 6.12366 4.67477 7.06168 4.5938 8.57227H20.9999C20.919 7.06168 20.6983 6.12366 20.0969 5.52226C19.6412 5.06649 18.992 4.82938 18.0469 4.70603V5.82227C18.0469 6.23227 17.7069 6.57227 17.2969 6.57227ZM21.0414 10.0723C21.0469 10.6021 21.0469 11.1834 21.0469 11.8217V11.8223V12.8223C21.0469 13.2323 21.3869 13.5723 21.7969 13.5723C22.2069 13.5723 22.5469 13.2323 22.5469 12.8223V11.8223C22.5469 7.84227 22.5469 5.85226 21.1569 4.46227C20.3847 3.69015 19.4275 3.34693 18.0469 3.19436V2.32227C18.0469 1.91227 17.7069 1.57227 17.2969 1.57227C16.8869 1.57227 16.5469 1.91227 16.5469 2.32227V3.09747C15.7508 3.07227 14.8425 3.07227 13.7969 3.07227H13.7969H11.7969H11.7969C10.7512 3.07227 9.84299 3.07227 9.04688 3.09747V2.32227C9.04688 1.91227 8.70687 1.57227 8.29688 1.57227C7.88688 1.57227 7.54688 1.91227 7.54688 2.32227V3.19436C6.16625 3.34693 5.20901 3.69015 4.43689 4.46227C3.04689 5.85226 3.04688 7.85227 3.04688 11.8223V13.8223C3.04688 17.8023 3.04689 19.7923 4.43689 21.1823C5.82689 22.5723 7.81687 22.5723 11.7969 22.5723C12.2069 22.5723 12.5469 22.2323 12.5469 21.8223C12.5469 21.4123 12.2069 21.0723 11.7969 21.0723C8.23688 21.0723 6.44683 21.0723 5.49683 20.1223C4.54688 19.1723 4.54688 17.3825 4.54688 13.8228V13.8223V11.8223V11.8217C4.54688 11.1835 4.54688 10.6021 4.55235 10.0723H21.0414ZM17.7969 23.0723C15.1769 23.0723 13.0469 20.9423 13.0469 18.3223C13.0469 15.7023 15.1769 13.5723 17.7969 13.5723C20.4169 13.5723 22.5469 15.7023 22.5469 18.3223C22.5469 20.9423 20.4169 23.0723 17.7969 23.0723ZM17.7969 15.0723C16.0069 15.0723 14.5469 16.5323 14.5469 18.3223C14.5469 20.1123 16.0069 21.5723 17.7969 21.5723C19.5869 21.5723 21.0469 20.1123 21.0469 18.3223C21.0469 16.5323 19.5869 15.0723 17.7969 15.0723ZM18.2668 19.8523C18.4168 20.0023 18.6069 20.0723 18.7969 20.0723C18.9869 20.0723 19.1769 20.0023 19.3269 19.8523C19.6169 19.5623 19.6169 19.0823 19.3269 18.7923L18.5469 18.0123V16.3223C18.5469 15.9123 18.2069 15.5723 17.7969 15.5723C17.3869 15.5723 17.0469 15.9123 17.0469 16.3223V18.3223C17.0469 18.5223 17.1268 18.7123 17.2668 18.8523L18.2668 19.8523Z" fill="currentColor" fill-rule="evenodd"></path></svg>