<svg xmlns="http://www.w3.org/2000/svg" width="24" height="24" viewBox="0 0 24 24" fill="none" stroke-width="1.5" stroke-linecap="round" stroke-linejoin="round" color="currentColor"><path d="M1.49609 14.9941C1.21609 14.9941 0.996094 14.7741 0.996094 14.4941V9.49414C0.996094 9.21414 1.21609 8.99414 1.49609 8.99414H2.49609C4.14609 8.99414 5.49609 10.3441 5.49609 11.9941C5.49609 13.6441 4.14609 14.9941 2.49609 14.9941H1.49609ZM1.99609 13.9941H2.49609C3.59609 13.9941 4.49609 13.0941 4.49609 11.9941C4.49609 10.8941 3.59609 9.99414 2.49609 9.99414H1.99609V13.9941ZM5.99533 14.9942C5.93533 14.9942 5.87533 14.9842 5.80533 14.9542C5.54533 14.8542 5.42533 14.5643 5.52533 14.3043L7.52533 9.30429C7.67533 8.92429 8.30533 8.92429 8.45533 9.30429L10.4553 14.3043C10.5153 14.4543 10.4953 14.6343 10.4053 14.7743C10.3153 14.9143 10.1553 14.9942 9.99533 14.9942H8.28533C8.00533 14.9942 7.78533 14.7742 7.78533 14.4942C7.78533 14.2142 8.00533 13.9942 8.28533 13.9942H9.25533L7.99533 10.8443L6.45533 14.6842C6.37533 14.8842 6.18533 14.9942 5.99533 14.9942ZM20.537 14.684C20.607 14.874 20.797 14.9941 20.997 14.9941L21.007 15.0041C21.207 15.0041 21.387 14.884 21.467 14.694L23.467 9.69402C23.527 9.53402 23.507 9.36405 23.417 9.22405C23.327 9.08405 23.177 9.00408 23.007 9.00408H21.297C21.017 9.00408 20.797 9.22408 20.797 9.50408C20.797 9.78408 21.017 10.0041 21.297 10.0041H22.267L21.007 13.154L19.467 9.31414C19.367 9.05414 19.067 8.93411 18.817 9.03411C18.557 9.13411 18.437 9.42402 18.537 9.68402L20.537 14.684ZM11.9961 14.9941C11.7161 14.9941 11.4961 14.7741 11.4961 14.4941V9.99414H10.4961C10.2161 9.99414 9.99609 9.77414 9.99609 9.49414C9.99609 9.21414 10.2161 8.99414 10.4961 8.99414H13.4961C13.7761 8.99414 13.9961 9.21414 13.9961 9.49414C13.9961 9.77414 13.7761 9.99414 13.4961 9.99414H12.4961V14.4941C12.4961 14.7741 12.2761 14.9941 11.9961 14.9941ZM14.9961 14.9941H17.4961C17.7761 14.9941 17.9961 14.7741 17.9961 14.4941C17.9961 14.2141 17.7761 13.9941 17.4961 13.9941H15.4961V12.4941H17.4961C17.7761 12.4941 17.9961 12.2741 17.9961 11.9941C17.9961 11.7141 17.7761 11.4941 17.4961 11.4941H15.4961V9.99414H17.4961C17.7761 9.99414 17.9961 9.77414 17.9961 9.49414C17.9961 9.21414 17.7761 8.99414 17.4961 8.99414H14.9961C14.7161 8.99414 14.4961 9.21414 14.4961 9.49414V14.4941C14.4961 14.7741 14.7161 14.9941 14.9961 14.9941Z" fill="currentColor" fill-rule="evenodd"></path></svg>