<svg xmlns="http://www.w3.org/2000/svg" width="24" height="24" viewBox="0 0 24 24" fill="none" stroke-width="1.5" stroke-linecap="round" stroke-linejoin="round" color="currentColor"><path d="M21.1868 5.99805C20.9852 5.10929 20.6537 4.43424 20.1088 3.88929C18.7175 2.49805 16.4783 2.49805 12 2.49805C7.52166 2.49805 5.28248 2.49805 3.89124 3.88929C2.5 5.28053 2.5 7.5197 2.5 11.998C2.5 16.4764 2.5 18.7156 3.89124 20.1068C5.28249 21.498 7.52166 21.498 12 21.498C16.4783 21.498 18.7175 21.498 20.1088 20.1068C20.6537 19.5619 20.9852 18.8868 21.1868 17.998" stroke="currentColor"></path><path d="M21.5 15L18.5 12M18.5 12L15.5 9M18.5 12L15.5 15M18.5 12L21.5 9" stroke="currentColor"></path><path d="M9 21.5L9 2.5" stroke="currentColor"></path><path d="M2.5 15.5L9 15.5M2.5 8.5L9 8.5" stroke="currentColor"></path></svg>