<svg xmlns="http://www.w3.org/2000/svg" width="24" height="24" viewBox="0 0 24 24" fill="none" stroke-width="1.5" stroke-linecap="round" stroke-linejoin="round" color="currentColor"><path d="M2 13.4286V8H22V13.4286C22 17.4692 22 19.4895 20.6983 20.7447C19.3965 22 17.3014 22 13.1111 22H10.8889C6.69863 22 4.6035 22 3.30175 20.7447C2 19.4895 2 17.4692 2 13.4286Z" stroke="currentColor"></path><path d="M2 8L2.96154 5.69231C3.70726 3.90257 4.08013 3.0077 4.8359 2.50385C5.59167 2 6.56112 2 8.5 2H15.5C17.4389 2 18.4083 2 19.1641 2.50385C19.9199 3.0077 20.2927 3.90257 21.0385 5.69231L22 8" stroke="currentColor"></path><path d="M12 8V2" stroke="currentColor"></path><path d="M10 12H14" stroke="currentColor"></path></svg>