<svg xmlns="http://www.w3.org/2000/svg" width="24" height="24" viewBox="0 0 24 24" fill="none"><path d="M10.5 21.5C6.72876 21.5 4.84315 21.5 3.67157 20.3284C2.5 19.1569 2.5 17.2712 2.5 13.5V6.5H21.5V14.5" stroke="currentColor" stroke-linecap="round" stroke-linejoin="round" stroke-width="1.5" /><path d="M2.5 6.5L3.1 5.7C4.27771 4.12972 4.86656 3.34458 5.71115 2.92229C6.55573 2.5 7.53715 2.5 9.5 2.5H14.5C16.4628 2.5 17.4443 2.5 18.2889 2.92229C19.1334 3.34458 19.7223 4.12972 20.9 5.7L21.5 6.5" stroke="currentColor" stroke-linecap="round" stroke-linejoin="round" stroke-width="1.5" /><path d="M21.5 18.5C21.5 18.5 19.458 21.5 16.5 21.5C13.542 21.5 11.5 18.5 11.5 18.5C11.5 18.5 13.5 15.5 16.5 15.5C19.5 15.5 21.5 18.5 21.5 18.5Z" stroke="currentColor" stroke-linecap="round" stroke-linejoin="round" stroke-width="1.5" /><path d="M16.5 18.5H16.509" stroke="currentColor" stroke-linecap="round" stroke-linejoin="round" stroke-width="2" /></svg>