<svg xmlns="http://www.w3.org/2000/svg" width="24" height="24" viewBox="0 0 24 24" fill="none"><path d="M11.5 21.5H10.5C6.72876 21.5 4.84315 21.5 3.67157 20.3284C2.5 19.1569 2.5 17.2712 2.5 13.5V6.5H21.5V11.5" stroke="currentColor" stroke-linecap="round" stroke-linejoin="round" stroke-width="1.5" /><path d="M2.5 6.5L3.1 5.7C4.27771 4.12972 4.86656 3.34458 5.71115 2.92229C6.55573 2.5 7.53715 2.5 9.5 2.5H14.5C16.4628 2.5 17.4443 2.5 18.2889 2.92229C19.1334 3.34458 19.7223 4.12972 20.9 5.7L21.5 6.5" stroke="currentColor" stroke-linecap="round" stroke-linejoin="round" stroke-width="1.5" /><path d="M16 17V15.5C16 14.3954 16.8954 13.5 18 13.5C19.1046 13.5 20 14.3954 20 15.5V17" stroke="currentColor" stroke-linecap="round" stroke-linejoin="round" stroke-width="1.5" /><path d="M20 17H16C15.1716 17 14.5 17.6716 14.5 18.5V20C14.5 20.8284 15.1716 21.5 16 21.5H20C20.8284 21.5 21.5 20.8284 21.5 20V18.5C21.5 17.6716 20.8284 17 20 17Z" stroke="currentColor" stroke-linecap="round" stroke-linejoin="round" stroke-width="1.5" /></svg>