<svg xmlns="http://www.w3.org/2000/svg" width="24" height="24" viewBox="0 0 24 24" fill="none"><path d="M15.5 21.5H10.5C6.72876 21.5 4.84315 21.5 3.67157 20.3284C2.5 19.1569 2.5 17.2712 2.5 13.5V6.5H21.5V13.5" stroke="currentColor" stroke-linecap="round" stroke-linejoin="round" stroke-width="1.5" /><path d="M2.5 6.5L3.1 5.7C4.27771 4.12972 4.86656 3.34458 5.71115 2.92229C6.55573 2.5 7.53715 2.5 9.5 2.5H14.5C16.4628 2.5 17.4443 2.5 18.2889 2.92229C19.1334 3.34458 19.7223 4.12972 20.9 5.7L21.5 6.5" stroke="currentColor" stroke-linecap="round" stroke-linejoin="round" stroke-width="1.5" /><path d="M16 13.4988C16 13.4988 13.5 15.34 13.5 15.9988C13.5 16.6576 16 18.4988 16 18.4988M14 15.9988L18.7502 15.9995C20.2689 15.9998 21.5 17.2311 21.5 18.7499C21.5 20.2686 20.2688 21.5 18.75 21.5" stroke="currentColor" stroke-linecap="round" stroke-linejoin="round" stroke-width="1.5" /></svg>