<svg xmlns="http://www.w3.org/2000/svg" width="24" height="24" viewBox="0 0 24 24" fill="none"><path d="M2.00406 12.1864C2.07656 13.8499 3.42215 15.1955 6.11333 17.8867C8.80451 20.5778 10.1501 21.9234 11.8136 21.9959C11.9378 22.0014 12.0622 22.0014 12.1864 21.9959C13.8499 21.9234 15.1955 20.5778 17.8867 17.8867C20.5778 15.1955 21.9234 13.8499 21.9959 12.1864C22.0014 12.0622 22.0014 11.9378 21.9959 11.8136C21.9234 10.1501 20.5778 8.80451 17.8867 6.11333C15.1955 3.42215 13.8499 2.07656 12.1864 2.00406C12.0622 1.99865 11.9378 1.99865 11.8136 2.00406C10.1501 2.07656 8.80451 3.42215 6.11333 6.11333C3.42215 8.80451 2.07656 10.1501 2.00406 11.8136C1.99865 11.9378 1.99865 12.0622 2.00406 12.1864Z" stroke="currentColor" stroke-linecap="round" stroke-linejoin="round" stroke-width="1.5" /><path d="M8 12H16" stroke="currentColor" stroke-linecap="round" stroke-linejoin="round" stroke-width="1.5" /></svg>