<svg xmlns="http://www.w3.org/2000/svg" width="24" height="24" viewBox="0 0 24 24" fill="none" stroke-width="1.5" stroke-linecap="round" stroke-linejoin="round" color="currentColor"><path d="M13.5 12H19" stroke="currentColor"></path><path d="M10.5 12H5" stroke="currentColor"></path><path d="M12 13.5C11.1716 13.5 10.5 12.8284 10.5 12C10.5 11.1716 11.1716 10.5 12 10.5C12.8284 10.5 13.5 11.1716 13.5 12C13.5 12.8284 12.8284 13.5 12 13.5Z" stroke="currentColor"></path><path d="M12 22C6.47715 22 2 17.5228 2 12C2 6.47715 6.47715 2 12 2C17.5228 2 22 6.47715 22 12C22 17.5228 17.5228 22 12 22Z" stroke="currentColor"></path><path d="M7.00977 14C6.48977 13.48 4.99977 12.5 4.99977 12C4.99977 11.5 6.50977 10.5 7.00977 10" stroke="currentColor"></path><path d="M17 10C17.52 10.52 19.01 11.5 19.01 12C19.01 12.5 17.5 13.5 17 14" stroke="currentColor"></path></svg>