<svg xmlns="http://www.w3.org/2000/svg" width="24" height="24" viewBox="0 0 24 24" fill="none"><path d="M5 19.0001V21.0001M19 19.0001V21.0001" stroke="currentColor" stroke-linecap="round" stroke-linejoin="round" stroke-width="1.5" /><path d="M16 6H8C5.17157 6 3.75736 6 2.87868 6.87868C2 7.75736 2 9.17157 2 12V13C2 15.8284 2 17.2426 2.87868 18.1213C3.75736 19 5.17157 19 8 19H16C18.8284 19 20.2426 19 21.1213 18.1213C22 17.2426 22 15.8284 22 13V12C22 9.17157 22 7.75736 21.1213 6.87868C20.2426 6 18.8284 6 16 6Z" stroke="currentColor" stroke-linecap="round" stroke-linejoin="round" stroke-width="1.5" /><path d="M7 6L7.0883 5.73509C7.52832 4.41505 7.74832 3.75503 8.2721 3.37752C8.79587 3 9.49159 3 10.883 3H13.117C14.5084 3 15.2041 3 15.7279 3.37752C16.2517 3.75503 16.4717 4.41505 16.9117 5.73509L17 6" stroke="currentColor" stroke-linecap="round" stroke-linejoin="round" stroke-width="1.5" /><path d="M19 13.75V11.25C19 10.5597 18.4404 10 17.75 10C17.0596 10 16.5 10.5597 16.5 11.25V13.75C16.5 14.4404 17.0596 15 17.75 15C18.4404 15 19 14.4404 19 13.75Z" stroke="currentColor" stroke-linecap="round" stroke-linejoin="round" stroke-width="1.5" /><path d="M13.5 13.75V11.25C13.5 10.5596 12.9404 10 12.25 10C11.5596 10 11 10.5596 11 11.25V13.75C11 14.4404 11.5596 15 12.25 15C12.9404 15 13.5 14.4403 13.5 13.75Z" stroke="currentColor" stroke-linecap="round" stroke-linejoin="round" stroke-width="1.5" /><path d="M5 15V10" stroke="currentColor" stroke-linecap="round" stroke-linejoin="round" stroke-width="1.5" /><path d="M7.99996 11H8.00894M7.99102 14H8" stroke="currentColor" stroke-linecap="round" stroke-linejoin="round" stroke-width="1.5" /></svg>