<svg xmlns="http://www.w3.org/2000/svg" width="24" height="24" viewBox="0 0 24 24" fill="none" stroke-width="1.5" stroke-linecap="round" stroke-linejoin="round" color="currentColor"><path d="M22 12.001C22 17.5236 17.5229 22.001 12 22.001C6.47713 22.001 2 17.5236 2 12.001C2 6.47811 6.47713 2.00098 12 2.00098C17.5229 2.00098 22 6.47811 22 12.001Z" stroke="currentColor"></path><path d="M15.6904 9.00098L17.1609 10.704C17.9481 11.6155 17.2771 12.9999 16.048 13.0005L15 13.001" stroke="currentColor"></path><path d="M9 8.00098V12.999" stroke="currentColor"></path><path d="M9.5 17.5007H11M9.5 17.5007H8M9.5 17.5007C9.16667 17.1673 8.69989 16.3005 9.5 15.5007C10.1328 14.8681 11 15.5015 11 15.5015" stroke="currentColor"></path><path d="M12 13.001V13.011" stroke="currentColor"></path></svg>