<svg xmlns="http://www.w3.org/2000/svg" width="24" height="24" viewBox="0 0 24 24" fill="none"><path d="M7.5 22.002C8 21.502 8.5 20.502 8.5 18.002M7.6671 15.3355C6.33381 10.0023 7.33378 9.00238 7.6671 8.66905M7.6671 15.3355C2.33394 14.0022 1.66664 14.6682 1 15.3349M7.6671 15.3355C13.0003 16.6688 13.9996 15.6682 14.3329 15.3349M21 8.66905C20.3334 9.3357 19.6667 10.0023 14.3336 8.66905M14.3336 8.66905C13.534 8.46916 12.8318 8.32171 12.2146 8.2166M14.3336 8.66905C14.5334 9.46864 14.6809 10.1708 14.786 10.7879M14.3329 2.00195C14 2.50195 13.5 3.50195 13.5 6.00195" stroke="currentColor" stroke-linecap="round" stroke-linejoin="round" stroke-width="1.5" /><path d="M1 2.00195L21 22.002" stroke="currentColor" stroke-linecap="round" stroke-linejoin="round" stroke-width="1.5" /></svg>