<svg xmlns="http://www.w3.org/2000/svg" width="24" height="24" viewBox="0 0 24 24" fill="none" stroke-width="1.5" stroke-linecap="round" stroke-linejoin="round" color="currentColor"><path d="M10.625 8.62963C10.625 6.62504 8.77817 5 6.5 5C4.22182 5 2.375 6.62504 2.375 8.62963C2.375 10.6342 3.5 11.7407 6.5 11.7407C9.5 11.7407 11 12.7778 11 15.3704C11 17.963 8.98528 19 6.5 19C4.01472 19 2 17.375 2 15.3704" stroke="currentColor"></path><path d="M6.5 3L6.5 5M6.5 21L6.5 19" stroke="currentColor"></path><path d="M22 12H14.5M22 12C22 12.7002 20.0057 14.0085 19.5 14.5M22 12C22 11.2998 20.0057 9.99153 19.5 9.5" stroke="currentColor"></path></svg>