<svg xmlns="http://www.w3.org/2000/svg" width="24" height="24" viewBox="0 0 24 24" fill="none"><path d="M18 20C19.1046 20 20 19.1046 20 18V6C20 4.89543 19.1046 4 18 4" stroke="currentColor" stroke-linecap="round" stroke-linejoin="round" stroke-width="1.5" /><path d="M4 6.84771V17.1523C4 18.7454 4 19.542 4.4645 20.0976C4.92899 20.6531 5.71415 20.7956 7.28446 21.0806L10.2845 21.6251C12.4701 22.0217 13.563 22.2201 14.2815 21.6215C15 21.023 15 19.9142 15 17.6968V6.30325C15 4.08578 15 2.97704 14.2815 2.37849C13.563 1.77994 12.4701 1.97827 10.2845 2.37495L7.28446 2.91941C5.71415 3.2044 4.92899 3.34689 4.4645 3.90244C4 4.45799 4 5.25457 4 6.84771Z" stroke="currentColor" stroke-linecap="round" stroke-linejoin="round" stroke-width="1.5" /><path d="M11.5 11.9983L11.5 11.9883" stroke="currentColor" stroke-linecap="round" stroke-linejoin="round" stroke-width="2" /></svg>