<svg xmlns="http://www.w3.org/2000/svg" width="24" height="24" viewBox="0 0 24 24" fill="none" stroke-width="1.5" stroke-linecap="round" stroke-linejoin="round" color="currentColor"><path d="M5 22V8C5 5.17157 5 3.75736 5.87868 2.87868C6.75736 2 8.17157 2 11 2H13C15.8284 2 17.2426 2 18.1213 2.87868C19 3.75736 19 5.17157 19 8V22H5Z" stroke="currentColor"></path><path d="M8 11V7C8 5.34533 8.34533 5 10 5H14C15.6547 5 16 5.34533 16 7V11C16 12.6547 15.6547 13 14 13H10C8.34533 13 8 12.6547 8 11Z" stroke="currentColor"></path><path d="M3 22H21" stroke="currentColor"></path><path d="M12 5V13M16 9L8 9" stroke="currentColor"></path><path d="M8.00801 17L7.99902 17" stroke="currentColor"></path></svg>