<svg xmlns="http://www.w3.org/2000/svg" width="24" height="24" viewBox="0 0 24 24" fill="none"><path d="M4.00002 16.1579L4.00005 7.84097C4.00005 5.99407 4.00006 5.07062 4.51764 4.39698C5.03522 3.72334 5.92751 3.48547 7.71208 3.00972L11.2203 2.07447C11.406 2.02495 11.5974 1.99988 11.7896 1.99988C13.0104 1.99988 14.0001 2.98951 14.0001 4.21029V19.789C14.0001 21.0097 13.0105 21.9993 11.7897 21.9993C11.5974 21.9993 11.406 21.9742 11.2202 21.9247L7.71171 20.9891C5.92728 20.5132 5.03506 20.2753 4.51753 19.6017C4 18.9281 4.00001 18.0047 4.00002 16.1579Z" stroke="currentColor" stroke-linecap="round" stroke-linejoin="round" stroke-width="1.5" /><path d="M11 10.9993V12.9993" stroke="currentColor" stroke-linecap="round" stroke-linejoin="round" stroke-width="1.5" /><path d="M17.5001 19.9993C17.9647 19.9993 18.197 19.9993 18.3901 19.9608C19.1836 19.803 19.8038 19.1828 19.9616 18.3894C20 18.1962 20 17.9639 20 17.4993V6.49921C20 6.03461 20 5.80231 19.9616 5.60913C19.8038 4.81571 19.1836 4.19549 18.3901 4.03769C18.197 3.99927 17.9647 3.99927 17.5001 3.99927" stroke="currentColor" stroke-linecap="round" stroke-linejoin="round" stroke-width="1.5" /></svg>