<svg xmlns="http://www.w3.org/2000/svg" width="24" height="24" viewBox="0 0 24 24" fill="none" stroke-width="1.5" stroke-linecap="round" stroke-linejoin="round" color="currentColor"><path d="M18.25 9C20.3077 9.0736 22.0549 10.6169 21.9987 12.6844C21.9856 13.1654 21.7993 13.7599 21.4266 14.9489C20.5298 17.8104 19.0226 20.2944 15.6462 20.8904C15.0255 21 14.3271 21 12.9303 21H11.0697C9.6729 21 8.9745 21 8.35384 20.8904C4.97739 20.2944 3.47018 17.8104 2.57336 14.9489C2.20072 13.7599 2.01439 13.1654 2.00132 12.6844C1.94512 10.6169 3.6923 9.0736 5.75001 9" stroke="currentColor"></path><path d="M12 14L12 3M12 14C11.2998 14 9.99153 12.0057 9.5 11.5M12 14C12.7002 14 14.0085 12.0057 14.5 11.5" stroke="currentColor"></path></svg>