<svg xmlns="http://www.w3.org/2000/svg" width="24" height="24" viewBox="0 0 24 24" fill="none"><path d="M16.0001 12C16.0001 12 13.0542 16 12.0001 16C10.946 16 8.00012 12 8.00012 12M12.0001 15.5L12.0001 3" stroke="currentColor" stroke-linecap="round" stroke-linejoin="round" stroke-width="1.5" /><path d="M17.0001 8C19.2093 8 21.0001 9.79086 21.0001 12V14.5C21.0001 16.8346 21.0001 18.0019 20.5278 18.8856C20.1549 19.5833 19.5834 20.1547 18.8857 20.5277C18.0021 21 16.8348 21 14.5001 21H9.50052C7.16551 21 5.99801 21 5.11426 20.5275C4.41677 20.1546 3.84547 19.5834 3.47258 18.8859C3.00012 18.0021 3.00012 16.8346 3.00012 14.4996V11.999C3.00067 9.79114 4.78999 8.00125 6.99785 8H7.00012" stroke="currentColor" stroke-linecap="round" stroke-linejoin="round" stroke-width="1.5" /></svg>