<svg xmlns="http://www.w3.org/2000/svg" width="24" height="24" viewBox="0 0 24 24" fill="none"><path d="M16 9C17.4001 9 18.1002 9 18.635 9.27248C19.1054 9.51217 19.4878 9.89462 19.7275 10.365C20 10.8998 20 11.5999 20 13V16C20 18.357 20 19.5355 19.2678 20.2678C18.5355 21 17.357 21 15 21H9C6.64298 21 5.46447 21 4.73223 20.2678C4 19.5355 4 18.357 4 16V13C4 11.5999 4 10.8998 4.27248 10.365C4.51217 9.89462 4.89462 9.51217 5.36502 9.27248C5.8998 9 6.59987 9 8 9" stroke="currentColor" stroke-linecap="round" stroke-linejoin="round" stroke-width="1.5" /><path d="M12 3V15" stroke="currentColor" stroke-linecap="round" stroke-linejoin="round" stroke-width="1.5" /><path d="M15 13C15 13 12.7905 16 12 16C11.2094 16 9 13 9 13" stroke="currentColor" stroke-linecap="round" stroke-linejoin="round" stroke-width="1.5" /></svg>