<svg xmlns="http://www.w3.org/2000/svg" width="24" height="24" viewBox="0 0 24 24" fill="none"><path d="M2.50003 13.5V6.5H21.5V13.5C21.5 17.2712 21.5 19.1569 20.3285 20.3284C19.1569 21.5 17.2713 21.5 13.5 21.5H10.5C6.72879 21.5 4.84318 21.5 3.6716 20.3284C2.50003 19.1569 2.50003 17.2712 2.50003 13.5Z" stroke="currentColor" stroke-linecap="round" stroke-linejoin="round" stroke-width="1.5" /><path d="M2.50003 6.5L3.10003 5.7C4.27774 4.12972 4.86659 3.34458 5.71118 2.92229C6.55576 2.5 7.53718 2.5 9.50003 2.5H14.5C16.4629 2.5 17.4443 2.5 18.2889 2.92229C19.1335 3.34458 19.7223 4.12972 20.9 5.7L21.5 6.5" stroke="currentColor" stroke-linecap="round" stroke-linejoin="round" stroke-width="1.5" /><path d="M15 14.5C15 14.5 12.7906 17.5 12 17.5C11.2095 17.5 9.00003 14.5 9.00003 14.5M12 17L12 10.5" stroke="currentColor" stroke-linecap="round" stroke-linejoin="round" stroke-width="1.5" /></svg>