<svg xmlns="http://www.w3.org/2000/svg" width="24" height="24" viewBox="0 0 24 24" fill="none"><path d="M16 18.3375C14.7182 19.9602 12.731 21.002 10.5 21.002C6.63401 21.002 3.5 17.8738 3.5 14.015C3.5 10.7847 6.4327 6.71808 8.50161 4.25113C8.99925 3.65774 9.24808 3.36104 9.64473 3.17374C10.1298 2.94467 10.8704 2.94469 11.3554 3.17379C11.7521 3.36111 12.0014 3.65842 12.5 4.25304" stroke="currentColor" stroke-linecap="round" stroke-linejoin="round" stroke-width="1.5" /><path d="M17 15.0347C18.933 15.0347 20.5 13.3853 20.5 11.3505C20.5 10.4291 20.0709 9.37872 19.5133 8.40256C18.6116 6.82429 18.1608 6.03516 17 6.03516C15.8392 6.03516 15.3884 6.82429 14.4867 8.40256C13.9291 9.37872 13.5 10.4291 13.5 11.3505C13.5 13.3853 15.067 15.0347 17 15.0347Z" stroke="currentColor" stroke-linejoin="round" stroke-width="1.5" /><path d="M10.5 17.0352C8.84315 17.0352 7.5 15.692 7.5 14.0352" stroke="currentColor" stroke-linecap="round" stroke-linejoin="round" stroke-width="1.5" /></svg>