<svg xmlns="http://www.w3.org/2000/svg" width="24" height="24" viewBox="0 0 24 24" fill="none"><path d="M12.0009 17.9994C13.6228 17.9994 15.0193 17.034 15.6471 15.6465" stroke="currentColor" stroke-linecap="round" stroke-linejoin="round" stroke-width="1.5" /><path d="M2 2L22 22" stroke="currentColor" stroke-linecap="round" stroke-linejoin="round" stroke-width="1.5" /><path d="M8.77661 3.77661C9.05754 3.49066 9.3321 3.22188 9.59499 2.97222C10.96 1.67593 13.0417 1.67593 14.4067 2.97222C16.9201 5.35907 20.5009 9.49387 20.5009 13.678C20.5009 14.2298 20.4426 14.7836 20.329 15.329M6.45106 6.45106C4.8377 8.58331 3.50085 11.1215 3.50085 13.678C3.50085 17.7804 6.71963 22 12.0009 22C14.9766 22 17.2975 20.6603 18.7569 18.7569" stroke="currentColor" stroke-linecap="round" stroke-linejoin="round" stroke-width="1.5" /></svg>