<svg xmlns="http://www.w3.org/2000/svg" width="24" height="24" viewBox="0 0 24 24" fill="none"><path d="M18 4H6C4.59987 4 3.8998 4 3.36502 4.27248C2.89462 4.51217 2.51217 4.89462 2.27248 5.36502C2 5.8998 2 6.59987 2 8C2 9.40013 2 10.1002 2.27248 10.635C2.51217 11.1054 2.89462 11.4878 3.36502 11.7275C3.8998 12 4.59987 12 6 12H18C19.4001 12 20.1002 12 20.635 11.7275C21.1054 11.4878 21.4878 11.1054 21.7275 10.635C22 10.1002 22 9.40013 22 8C22 6.59987 22 5.8998 21.7275 5.36502C21.4878 4.89462 21.1054 4.51217 20.635 4.27248C20.1002 4 19.4001 4 18 4Z" stroke="currentColor" stroke-linecap="round" stroke-linejoin="round" stroke-width="1.5" /><path d="M18 7.00002C18 7.00002 16.527 9 16 9C15.4729 9 14 7 14 7" stroke="currentColor" stroke-linecap="round" stroke-linejoin="round" stroke-width="1.5" /><path d="M2 16H14" stroke="currentColor" stroke-linecap="round" stroke-linejoin="round" stroke-width="1.5" /><path d="M2 20H14" stroke="currentColor" stroke-linecap="round" stroke-linejoin="round" stroke-width="1.5" /></svg>