<svg xmlns="http://www.w3.org/2000/svg" width="24" height="24" viewBox="0 0 24 24" fill="none"><path d="M18.5 6L12.916 2.27735C12.6448 2.0965 12.326 2 12 2C11.674 2 11.3552 2.0965 11.084 2.27735L5.5 6" stroke="currentColor" stroke-linecap="round" stroke-linejoin="round" stroke-width="1.5" /><path d="M20 14L12.916 9.27735C12.6448 9.0965 12.326 9 12 9C11.674 9 11.3552 9.0965 11.084 9.27735L4 14" stroke="currentColor" stroke-linecap="round" stroke-linejoin="round" stroke-width="1.5" /><path d="M18.5 13.5V18C18.5 19.8856 18.5 20.8284 17.9142 21.4142C17.3284 22 16.3856 22 14.5 22H9.5C7.61438 22 6.67157 22 6.08579 21.4142C5.5 20.8284 5.5 19.8856 5.5 18V13.5" stroke="currentColor" stroke-linecap="round" stroke-linejoin="round" stroke-width="1.5" /><path d="M17 5V12M7 5V12" stroke="currentColor" stroke-linecap="round" stroke-linejoin="round" stroke-width="1.5" /><path d="M14 22V18C14 16.8954 13.1046 16 12 16C10.8954 16 10 16.8954 10 18V22" stroke="currentColor" stroke-linecap="round" stroke-linejoin="round" stroke-width="1.5" /></svg>