<svg xmlns="http://www.w3.org/2000/svg" width="24" height="24" viewBox="0 0 24 24" fill="none"><path d="M6.07692 18C6.07692 20.2091 7.226 22 9.30769 22C11.3894 22 13.0769 20.5 13.6154 18C13.8736 16.8013 14.4026 16.0767 15.2308 15.5C15.2836 15.4632 15.3361 15.426 15.3882 15.3882M5 9C5 7.83973 5.28229 6.7454 5.78193 5.78193M8.15176 3.15176C9.25593 2.42372 10.5785 2 12 2C15.866 2 19 5.13401 19 9C19 10.4031 18.5612 11.7018 17.8361 12.8361" stroke="currentColor" stroke-linecap="round" stroke-linejoin="round" stroke-width="1.5" /><path d="M9 15C10.385 15 11.5078 13.9926 11.5078 12.75C11.5078 11.5074 10.385 10.5 9 10.5C9 10.0426 9.02385 9.56132 9.09042 9.09042M15 9C14.8496 7.22416 13.7998 6 12.0094 6C11.6787 6 11.3832 6.0419 11.1192 6.11923" stroke="currentColor" stroke-linecap="round" stroke-linejoin="round" stroke-width="1.5" /><path d="M2 2L22 22" stroke="currentColor" stroke-linecap="round" stroke-linejoin="round" stroke-width="1.5" /></svg>