<svg xmlns="http://www.w3.org/2000/svg" width="24" height="24" viewBox="0 0 24 24" fill="none"><path d="M12 2C6.47715 2 2 6.47715 2 12C2 17.5228 6.47715 22 12 22C16.8379 22 20.8734 18.5645 21.8 14" stroke="currentColor" stroke-linecap="round" stroke-linejoin="round" stroke-width="1.5" /><path d="M11.5 6L10.7929 5.29289C10.6054 5.10536 10.5 4.851 10.5 4.58579V2.5" stroke="currentColor" stroke-linecap="round" stroke-linejoin="round" stroke-width="1.5" /><path d="M21 16H17.9142C17.649 16 17.3946 16.1054 17.2071 16.2929L16.29 17.21C15.8686 17.6314 15.1744 17.593 14.8021 17.1276L13.8002 15.8753C13.6105 15.6381 13.3232 15.5 13.0194 15.5H12.8028C12.6054 15.5 12.4123 15.5584 12.2481 15.6679L9.9453 17.2031C9.6671 17.3886 9.5 17.7008 9.5 18.0352V18.2639C9.5 18.4192 9.53615 18.5723 9.60557 18.7111L11 21.5" stroke="currentColor" stroke-linecap="round" stroke-linejoin="round" stroke-width="1.5" /><path d="M5 5L5.57464 7.29858C5.70921 7.83683 5.77649 8.10595 5.91218 8.31545C6.09497 8.59767 6.36729 8.81028 6.68541 8.91917C6.92156 9 7.19897 9 7.75379 9H8.23223C8.48096 9 8.60532 9 8.70962 9.01472C9.37161 9.10814 9.89186 9.62839 9.98528 10.2904C10 10.3947 10 10.519 10 10.7678C10 10.8768 10 10.9313 9.99632 10.9837C9.97352 11.3084 9.84578 11.6168 9.63235 11.8624C9.59785 11.9021 9.55931 11.9407 9.48223 12.0178L8.77126 12.7287C8.44431 13.0557 8.28084 13.2192 8.08292 13.3244C7.99808 13.3695 7.9091 13.4064 7.81721 13.4345C7.60284 13.5 7.37165 13.5 6.90927 13.5C6.31715 13.5 6.0211 13.5 5.7586 13.6022C5.64651 13.6458 5.54007 13.7028 5.44158 13.7719C5.21095 13.9336 5.04672 14.1799 4.71828 14.6726L3.5 16.5" stroke="currentColor" stroke-linecap="round" stroke-linejoin="round" stroke-width="1.5" /><path d="M20.5 5.5V4C20.5 2.89543 19.6046 2 18.5 2C17.3954 2 16.5 2.89543 16.5 4V5.5M20.5 5.5H16.5M20.5 5.5C21.3284 5.5 22 6.17157 22 7V7.75C22 8.44891 22 8.79837 21.8858 9.07403C21.7336 9.44157 21.4416 9.73358 21.074 9.88582C20.7984 10 20.4489 10 19.75 10H17.25C16.5511 10 16.2016 10 15.926 9.88582C15.5584 9.73358 15.2664 9.44157 15.1142 9.07403C15 8.79837 15 8.44891 15 7.75V7C15 6.17157 15.6716 5.5 16.5 5.5" stroke="currentColor" stroke-linecap="round" stroke-linejoin="round" stroke-width="1.5" /></svg>