<svg xmlns="http://www.w3.org/2000/svg" width="24" height="24" viewBox="0 0 24 24" fill="none" stroke-width="1.5" stroke-linecap="round" stroke-linejoin="round" color="currentColor"><path d="M10 5.75H11.25V6V8.25H10.5H9.5C9.09 8.25 8.75 8.59 8.75 9C8.75 9.41 9.09 9.75 9.5 9.75H9.75V11.71C7.64 12.6 6.25 14.66 6.25 17C6.25 20.17 8.83 22.75 12 22.75C15.17 22.75 17.75 20.17 17.75 17C17.75 14.67 16.36 12.6 14.25 11.71V9.75H14.5C14.91 9.75 15.25 9.41 15.25 9C15.25 8.59 14.91 8.25 14.5 8.25H13.5H12.75V6.75H14C15.52 6.75 16.75 5.52 16.75 4V3C16.75 2.59 16.41 2.25 16 2.25H14C13.4213 2.25 12.8846 2.42829 12.4419 2.73299C11.984 1.85148 11.0629 1.25 10 1.25H8C7.59 1.25 7.25 1.59 7.25 2V3C7.25 4.52 8.48 5.75 10 5.75ZM12.75 5.25V5C12.75 4.31 13.31 3.75 14 3.75H15.25V4C15.25 4.69 14.69 5.25 14 5.25H12.75ZM11.25 12.23V9.75H12H12.75V12.23C12.75 12.56 12.97 12.85 13.28 12.95C15.05 13.51 16.25 15.14 16.25 17.01C16.25 19.35 14.34 21.26 12 21.26C9.66 21.26 7.75 19.35 7.75 17.01C7.75 15.14 8.94 13.51 10.72 12.95C11.04 12.85 11.25 12.56 11.25 12.23ZM8.75 2.75H10C10.69 2.75 11.25 3.31 11.25 4V4.25H10C9.31 4.25 8.75 3.69 8.75 3V2.75Z" fill="currentColor"></path></svg>