<svg xmlns="http://www.w3.org/2000/svg" width="24" height="24" viewBox="0 0 24 24" fill="none" stroke-width="1.5" stroke-linecap="round" stroke-linejoin="round" color="currentColor"><path d="M10 5.75H11.25V6V8.25H9H8C7.59 8.25 7.25 8.59 7.25 9C7.25 9.41 7.59 9.75 8 9.75H8.25V19C8.25 21.07 9.93 22.75 12 22.75C14.07 22.75 15.75 21.07 15.75 19V9.75H16C16.41 9.75 16.75 9.41 16.75 9C16.75 8.59 16.41 8.25 16 8.25H15H12.75V6.75H14C15.52 6.75 16.75 5.52 16.75 4V3C16.75 2.59 16.41 2.25 16 2.25H14C13.4213 2.25 12.8846 2.42829 12.4419 2.73299C11.984 1.85148 11.0629 1.25 10 1.25H8C7.59 1.25 7.25 1.59 7.25 2V3C7.25 4.52 8.48 5.75 10 5.75ZM12.75 5.25V5C12.75 4.31 13.31 3.75 14 3.75H15.25V4C15.25 4.69 14.69 5.25 14 5.25H12.75ZM9.75 19V9.75H12H14.25V19C14.25 20.24 13.24 21.25 12 21.25C10.76 21.25 9.75 20.24 9.75 19ZM8.75 2.75H10C10.69 2.75 11.25 3.31 11.25 4V4.25H10C9.31 4.25 8.75 3.69 8.75 3V2.75Z" fill="currentColor"></path></svg>