<svg xmlns="http://www.w3.org/2000/svg" width="24" height="24" viewBox="0 0 24 24" fill="none" stroke-width="1.5" stroke-linecap="round" stroke-linejoin="round" color="currentColor"><path d="M10.0117 5.75H11.2617V6V8.25H10H9.01172C8.60172 8.25 8.26172 8.59 8.26172 9C8.26172 9.41 8.60172 9.75 9.01172 9.75H9.25V13.3L5.51 19.85C5.34 20.14 5.25 20.47 5.25 20.81C5.25 21.88 6.12 22.75 7.19 22.75H16.81C17.88 22.75 18.75 21.88 18.75 20.81C18.75 20.47 18.67 20.14 18.5 19.85L14.75 13.3V9.75H15.0117C15.4217 9.75 15.7617 9.41 15.7617 9C15.7617 8.59 15.4217 8.25 15.0117 8.25H14H12.7617V6.75H14.0117C15.5317 6.75 16.7617 5.52 16.7617 4V3C16.7617 2.59 16.4217 2.25 16.0117 2.25H14.0117C13.433 2.25 12.8964 2.42829 12.4536 2.73299C11.9957 1.85148 11.0746 1.25 10.0117 1.25H8.01172C7.60172 1.25 7.26172 1.59 7.26172 2V3C7.26172 4.52 8.49172 5.75 10.0117 5.75ZM12.7617 5.25V5C12.7617 4.31 13.3217 3.75 14.0117 3.75H15.2617V4C15.2617 4.69 14.7017 5.25 14.0117 5.25H12.7617ZM10.76 13.5V9.75H10.77H12.0117H13.27V13.5C13.27 13.63 13.31 13.76 13.37 13.87L17.21 20.6C17.25 20.67 17.27 20.74 17.27 20.82C17.27 21.06 17.07 21.26 16.83 21.26H7.20001C6.96001 21.26 6.76 21.06 6.76 20.82C6.76 20.74 6.78 20.67 6.82 20.6L10.66 13.87C10.73 13.76 10.76 13.63 10.76 13.5ZM8.76172 2.75H10.0117C10.7017 2.75 11.2617 3.31 11.2617 4V4.25H10.0117C9.32172 4.25 8.76172 3.69 8.76172 3V2.75Z" fill="currentColor"></path></svg>