<svg xmlns="http://www.w3.org/2000/svg" width="24" height="24" viewBox="0 0 24 24" fill="none"><path d="M12 5V9" stroke="currentColor" stroke-linecap="round" stroke-linejoin="round" stroke-width="1.5" /><path d="M8 2H10C11.1046 2 12 2.89543 12 4V5H10C8.89543 5 8 4.10457 8 3V2Z" stroke="currentColor" stroke-linecap="round" stroke-linejoin="round" stroke-width="1.5" /><path d="M16.8148 22H7.18524C6.53065 22 6 21.4693 6 20.8148C6 20.6085 6.05383 20.4058 6.15616 20.2267L10 13.5V9H14V13.5L17.8438 20.2267C17.9462 20.4058 18 20.6085 18 20.8148C18 21.4693 17.4693 22 16.8148 22Z" stroke="currentColor" stroke-linecap="round" stroke-linejoin="round" stroke-width="1.5" /><path d="M9 9H15" stroke="currentColor" stroke-linecap="round" stroke-linejoin="round" stroke-width="1.5" /><path d="M16 3H14C12.8954 3 12 3.89543 12 5V6H14C15.1046 6 16 5.10457 16 4V3Z" stroke="currentColor" stroke-linecap="round" stroke-linejoin="round" stroke-width="1.5" /></svg>