<svg xmlns="http://www.w3.org/2000/svg" width="24" height="24" viewBox="0 0 24 24" fill="none" stroke-width="1.5" stroke-linecap="round" stroke-linejoin="round" color="currentColor"><path d="M8.17151 19.8284L19.8284 8.17157C20.3736 7.62632 20.6462 7.3537 20.792 7.0596C21.0693 6.50005 21.0693 5.8431 20.792 5.28354C20.6462 4.98945 20.3736 4.71682 19.8284 4.17157C19.2831 3.62632 19.0105 3.3537 18.7164 3.20796C18.1568 2.93068 17.4999 2.93068 16.9403 3.20796C16.6462 3.3537 16.3736 3.62632 15.8284 4.17157L4.17151 15.8284C3.59345 16.4064 3.30442 16.6955 3.15218 17.063C2.99994 17.4305 2.99994 17.8393 2.99994 18.6568V20.9999H5.34308C6.16059 20.9999 6.56934 20.9999 6.93688 20.8477C7.30442 20.6955 7.59345 20.4064 8.17151 19.8284Z" fill="none"></path><path d="M12 21H18" fill="none"></path><path d="M14.5 5.5L18.5 9.5" fill="none"></path></svg>