<svg xmlns="http://www.w3.org/2000/svg" width="24" height="24" viewBox="0 0 24 24" fill="none"><circle cx="10" cy="14" r="3" stroke="currentColor" stroke-linecap="round" stroke-linejoin="round" stroke-width="1.5" /><path d="M18.9999 8C18.9999 5.23858 16.7614 3 13.9999 3C12.3283 3 10.8486 3.82039 9.94099 5.08048C9.18334 6.13236 8.18419 7.11569 7.01211 7.66951C4.64065 8.79005 2.99994 11.2029 2.99994 14C2.99994 17.866 6.13395 21 9.99994 21C12.0336 21 13.8633 20.1319 15.1418 18.7468C15.609 18.2406 16.3111 18 16.9999 18C19.2091 18 20.9999 16.2091 20.9999 14C20.9999 13.1489 20.734 12.3603 20.2807 11.7122C19.5567 10.677 18.9999 9.26325 18.9999 8Z" stroke="currentColor" stroke-linecap="round" stroke-linejoin="round" stroke-width="1.5" /></svg>