<svg xmlns="http://www.w3.org/2000/svg" width="24" height="24" viewBox="0 0 24 24" fill="none"><path d="M13 3H15C17.8284 3 19.2426 3 20.1213 3.87868C21 4.75736 21 6.17157 21 9V11C21 13.8284 21 15.2426 20.1213 16.1213C19.2426 17 17.8284 17 15 17H13C10.1716 17 8.75736 17 7.87868 16.1213C7 15.2426 7 13.8284 7 11V9C7 6.17157 7 4.75736 7.87868 3.87868C8.75736 3 10.1716 3 13 3Z" stroke="currentColor" stroke-linecap="round" stroke-linejoin="round" stroke-width="1.5" /><path d="M16 20.1213C15.1213 21 13.7071 21 10.8787 21H9C6.17157 21 4.75736 21 3.87868 20.1213C3 19.2426 3 17.8284 3 15V13.1213C3 10.2929 3 8.87868 3.87868 8" stroke="currentColor" stroke-linecap="round" stroke-linejoin="round" stroke-width="1.5" /><path d="M14 7L12.8181 8.35982C12.2013 9.06938 11.8929 9.42416 12.0336 9.71208C12.1743 10 12.656 10 13.6193 10H14.3807C15.344 10 15.8257 10 15.9664 10.2879C16.1071 10.5758 15.7987 10.9306 15.1819 11.6402L14 13" stroke="currentColor" stroke-linecap="round" stroke-linejoin="round" stroke-width="1.5" /></svg>