<svg xmlns="http://www.w3.org/2000/svg" width="24" height="24" viewBox="0 0 24 24" fill="none"><path d="M12 12.002V11.502M12 5.00195V4.50195M12 19.002V18.502M13 12.002C13 11.4497 12.5523 11.002 12 11.002C11.4477 11.002 11 11.4497 11 12.002C11 12.5542 11.4477 13.002 12 13.002C12.5523 13.002 13 12.5542 13 12.002ZM13 5.00195C13 4.44967 12.5523 4.00195 12 4.00195C11.4477 4.00195 11 4.44967 11 5.00195C11 5.55424 11.4477 6.00195 12 6.00195C12.5523 6.00195 13 5.55424 13 5.00195ZM13 19.002C13 18.4497 12.5523 18.002 12 18.002C11.4477 18.002 11 18.4497 11 19.002C11 19.5542 11.4477 20.002 12 20.002C12.5523 20.002 13 19.5542 13 19.002Z" stroke="currentColor" stroke-linecap="round" stroke-linejoin="round" stroke-width="1.5" /></svg>