<svg xmlns="http://www.w3.org/2000/svg" width="24" height="24" viewBox="0 0 24 24" fill="none" stroke-width="1.5" stroke-linecap="round" stroke-linejoin="round" color="currentColor"><path d="M3.25609 10.3145C3.25609 5.48445 7.1761 1.56445 12.0061 1.56445C16.8361 1.56445 20.7561 5.48445 20.7561 10.3145V19.0144C20.7561 19.6044 20.7561 20.1044 20.7161 20.5044C20.6761 20.9244 20.5961 21.3244 20.3861 21.6844C20.1461 22.1044 19.7961 22.4544 19.3761 22.6944C19.0061 22.9044 18.6161 22.9844 18.1961 23.0244C17.7961 23.0644 17.2961 23.0644 16.7061 23.0644H6.98609C6.52609 23.0644 6.13609 23.0644 5.80609 23.0244C5.38609 22.9844 4.98609 22.9044 4.62609 22.6944C4.20609 22.4544 3.85609 22.1044 3.61609 21.6844C3.40609 21.3244 3.32609 20.9244 3.28609 20.5044C3.24609 20.1044 3.24609 19.6044 3.24609 19.0144V10.3145H3.25609ZM7.75609 21.5644H16.6761C17.3161 21.5644 17.7361 21.5644 18.0661 21.5344C18.3861 21.5044 18.5361 21.4544 18.6361 21.3944C18.8261 21.2844 18.9861 21.1244 19.0961 20.9344C19.1561 20.8344 19.2061 20.6844 19.2361 20.3644C19.2661 20.0544 19.2661 19.6444 19.2661 19.0544H9.01609C8.52609 19.0544 8.22609 19.0544 8.01609 19.0844C7.91609 19.0944 7.86609 19.1144 7.84609 19.1244C7.84609 19.1244 7.84609 19.1244 7.84609 19.1344C7.84609 19.1544 7.82609 19.2044 7.80609 19.3044C7.77609 19.5144 7.77609 19.8044 7.77609 20.3044V21.5544L7.75609 21.5644ZM10.2561 17.5644H8.96609C8.53609 17.5644 8.13609 17.5644 7.81609 17.6044C7.45609 17.6544 7.08609 17.7644 6.77609 18.0744C6.46609 18.3844 6.35609 18.7544 6.30609 19.1144C6.26609 19.4344 6.26609 19.8344 6.26609 20.2644V21.5444C6.15609 21.5444 6.04609 21.5344 5.95609 21.5244C5.63609 21.4944 5.48609 21.4444 5.38609 21.3844C5.19609 21.2744 5.03609 21.1144 4.92609 20.9244C4.86609 20.8244 4.81609 20.6744 4.78609 20.3544C4.75609 20.0244 4.75609 19.5944 4.75609 18.9644V10.2945C4.75609 6.29446 8.00609 3.04446 12.0061 3.04446C15.7561 3.04446 18.8461 5.89446 19.2161 9.54446H16.9561C16.5261 9.54446 16.1261 9.54444 15.8061 9.58444C15.4461 9.63444 15.0761 9.74444 14.7661 10.0544C14.4561 10.3644 14.3461 10.7345 14.2961 11.0944C14.2561 11.4144 14.2561 11.8144 14.2561 12.2444V13.5444H12.9661C12.5361 13.5444 12.1361 13.5444 11.8161 13.5844C11.4561 13.6344 11.0861 13.7444 10.7761 14.0544C10.4661 14.3644 10.3561 14.7344 10.3061 15.0944C10.2661 15.4144 10.2661 15.8144 10.2661 16.2444V17.5444L10.2561 17.5644ZM11.7561 17.5644H19.2561V15.0644H13.0061C12.5161 15.0644 12.2161 15.0644 12.0061 15.0944C11.9061 15.1044 11.8561 15.1244 11.8361 15.1344C11.8361 15.1344 11.8361 15.1344 11.8261 15.1344C11.8261 15.1344 11.8261 15.1344 11.8261 15.1444C11.8261 15.1644 11.8061 15.2144 11.7861 15.3144C11.7561 15.5244 11.7561 15.8144 11.7561 16.3144V17.5644ZM15.7561 13.5644H19.2561V11.0644H17.0061C16.5161 11.0644 16.2161 11.0644 16.0061 11.0944C15.9061 11.1044 15.8561 11.1244 15.8361 11.1344C15.8361 11.1344 15.8361 11.1344 15.8261 11.1344C15.8261 11.1344 15.8261 11.1344 15.8261 11.1444C15.8261 11.1644 15.8061 11.2144 15.7861 11.3144C15.7561 11.5244 15.7561 11.8144 15.7561 12.3144V13.5644Z" fill="currentColor" fill-rule="evenodd"></path></svg>