<svg xmlns="http://www.w3.org/2000/svg" width="24" height="24" viewBox="0 0 24 24" fill="none"><path d="M16 4H8C5.17157 4 3.75736 4 2.87868 4.87868C2 5.75736 2 7.17157 2 10V12.5C2 13.8978 2 14.5967 2.22836 15.1481C2.53284 15.8831 3.11687 16.4672 3.85195 16.7716C4.40326 17 5.10218 17 6.5 17L7.20092 17.8411C8.08561 18.9027 8.52795 19.4335 9.13266 19.7168C9.73737 20 10.4283 20 11.8102 20H12.1898C13.5717 20 14.2626 20 14.8673 19.7168C15.4721 19.4335 15.9144 18.9027 16.7991 17.8411L17.5 17C18.8978 17 19.5967 17 20.1481 16.7716C20.8831 16.4672 21.4672 15.8831 21.7716 15.1481C22 14.5967 22 13.8978 22 12.5V10C22 7.17157 22 5.75736 21.1213 4.87868C20.2426 4 18.8284 4 16 4Z" stroke="currentColor" stroke-linecap="round" stroke-linejoin="round" stroke-width="1.5" /><path d="M6 8V11" stroke="currentColor" stroke-linecap="round" stroke-linejoin="round" stroke-width="1.5" /><path d="M10 8V11" stroke="currentColor" stroke-linecap="round" stroke-linejoin="round" stroke-width="1.5" /><path d="M14 8V11" stroke="currentColor" stroke-linecap="round" stroke-linejoin="round" stroke-width="1.5" /><path d="M18 8V11" stroke="currentColor" stroke-linecap="round" stroke-linejoin="round" stroke-width="1.5" /></svg>