<svg xmlns="http://www.w3.org/2000/svg" width="24" height="24" viewBox="0 0 24 24" fill="none"><path d="M2 21H15" stroke="currentColor" stroke-linecap="round" stroke-linejoin="round" stroke-width="1.5" /><path d="M14 21V8.5C14 6.15442 14 4.98164 13.3801 4.17372C13.2205 3.96572 13.0343 3.77954 12.8263 3.61994C12.0184 3 10.8456 3 8.5 3C6.15442 3 4.98164 3 4.17372 3.61994C3.96572 3.77954 3.77954 3.96572 3.61994 4.17372C3 4.98164 3 6.15442 3 8.5V21" stroke="currentColor" stroke-linecap="round" stroke-linejoin="round" stroke-width="1.5" /><path d="M8.50092 7L7.67174 8.65836C7.39657 9.20871 7.25898 9.48388 7.35042 9.69708C7.36996 9.74263 7.39616 9.78502 7.42816 9.82287C7.57796 10 7.88561 10 8.50092 10C9.11623 10 9.42389 10 9.57369 10.1771C9.60569 10.215 9.63189 10.2574 9.65143 10.3029C9.74287 10.5161 9.60528 10.7913 9.3301 11.3416L8.50092 13" stroke="currentColor" stroke-linecap="round" stroke-linejoin="round" stroke-width="1.5" /><path d="M14 13H15C15.9319 13 16.3978 13 16.7654 13.1522C17.2554 13.3552 17.6448 13.7446 17.8478 14.2346C18 14.6022 18 15.0681 18 16V17C18 18.1046 18.8954 19 20 19C21.1046 19 22 18.1046 22 17V9.65685C22 8.83935 22 8.4306 21.8478 8.06306C21.6955 7.69552 21.4065 7.40649 20.8284 6.82843L19 5M20.5 7V8.58579C20.5 9.16263 20.5 9.45105 20.5766 9.71982C20.6187 9.86747 20.6776 10.0098 20.7523 10.1439C20.8882 10.3882 21.0921 10.5921 21.5 11" stroke="currentColor" stroke-linecap="round" stroke-linejoin="round" stroke-width="1.5" /></svg>