<svg xmlns="http://www.w3.org/2000/svg" width="24" height="24" viewBox="0 0 24 24" fill="none"><path d="M15 3H18C19.4142 3 20.1213 3 20.5607 3.43934C21 3.87868 21 4.58579 21 6V9M20 4L11 13" stroke="currentColor" stroke-linecap="round" stroke-linejoin="round" stroke-width="1.5" /><path d="M20 13C20 16.7712 20 18.6569 18.8284 19.8284C17.6569 21 15.7712 21 12 21H11C7.22876 21 5.34315 21 4.17157 19.8284C3 18.6569 3 16.7712 3 13V12C3 8.22876 3 6.34315 4.17157 5.17157C5.34315 4 7.22876 4 11 4" stroke="currentColor" stroke-linecap="round" stroke-width="1.5" /></svg>