<svg xmlns="http://www.w3.org/2000/svg" width="24" height="24" viewBox="0 0 24 24" fill="none"><path d="M12 16.0351V7.9649C12 6.0377 12 5.0741 12.5918 4.80895C13.1837 4.54379 13.9003 5.18631 15.3336 6.47136L19.8342 10.5065C20.6116 11.2035 21.0003 11.552 21.0003 12C21.0003 12.448 20.6116 12.7965 19.8342 13.4935L15.3336 17.5286C13.9003 18.8137 13.1837 19.4562 12.5918 19.1911C12 18.9259 12 17.9623 12 16.0351Z" stroke="currentColor" stroke-linecap="round" stroke-linejoin="round" stroke-width="1.5" /><path d="M3 16.0351V7.9649C3 6.0377 3 5.0741 3.59183 4.80895C4.18366 4.54379 4.9003 5.18631 6.33359 6.47136L10.8342 10.5065C11.6116 11.2035 12.0003 11.552 12.0003 12C12.0003 12.448 11.6116 12.7965 10.8342 13.4935L6.33359 17.5286C4.9003 18.8137 4.18366 19.4562 3.59183 19.1911C3 18.9259 3 17.9623 3 16.0351Z" stroke="currentColor" stroke-linecap="round" stroke-linejoin="round" stroke-width="1.5" /></svg>