<svg xmlns="http://www.w3.org/2000/svg" width="24" height="24" viewBox="0 0 24 24" fill="none" stroke-width="1.5" stroke-linecap="round" stroke-linejoin="round" color="currentColor"><path d="M8.26872 8.49708C9.60954 7.67461 10.7798 8.00606 11.4828 8.53401C11.7711 8.75048 11.9152 8.85871 12 8.85871C12.0848 8.85871 12.2289 8.75048 12.5172 8.53401C13.2202 8.00606 14.3905 7.67461 15.7313 8.49708C17.491 9.57647 17.8891 13.1374 13.8302 16.1417C13.0571 16.7139 12.6706 17 12 17C11.3294 17 10.9429 16.7139 10.1698 16.1417C6.11086 13.1374 6.50903 9.57647 8.26872 8.49708Z" stroke="currentColor"></path><path d="M22 12C22 6.47715 17.5228 2 12 2C6.47715 2 2 6.47715 2 12C2 17.5228 6.47715 22 12 22C17.5228 22 22 17.5228 22 12Z" stroke="currentColor"></path></svg>