<svg xmlns="http://www.w3.org/2000/svg" width="24" height="24" viewBox="0 0 24 24" fill="none" stroke-width="1.5" stroke-linecap="round" stroke-linejoin="round" color="currentColor"><path d="M12 23C11.59 23 11.25 22.66 11.25 22.25V20H9C8.59 20 8.25 19.66 8.25 19.25C8.25 18.84 8.59 18.5 9 18.5H11.25V14.9601C7.88 14.5901 5.25 11.72 5.25 8.25C5.25 4.53 8.28 1.5 12 1.5C15.72 1.5 18.75 4.53 18.75 8.25C18.75 11.72 16.12 14.5801 12.75 14.9601V18.5H15C15.41 18.5 15.75 18.84 15.75 19.25C15.75 19.66 15.41 20 15 20H12.75V22.25C12.75 22.66 12.41 23 12 23ZM12 3C9.1 3 6.75 5.35 6.75 8.25C6.75 11.15 9.1 13.5 12 13.5C14.9 13.5 17.25 11.15 17.25 8.25C17.25 5.35 14.9 3 12 3Z" fill="currentColor"></path></svg>