<svg xmlns="http://www.w3.org/2000/svg" width="24" height="24" viewBox="0 0 24 24" fill="none" stroke-width="1.5" stroke-linecap="round" stroke-linejoin="round" color="currentColor"><path d="M20.1032 22.5036H3.91319C3.38319 22.5036 2.88319 22.2636 2.57319 21.8636C2.28319 21.4936 2.19319 21.0337 2.30319 20.5737C2.71319 18.9437 3.97319 17.6337 5.57319 17.1437L8.75319 16.1837V15.2336C7.67319 15.0636 6.66319 14.8037 5.74319 14.4637C5.54319 14.3937 5.38319 14.2337 5.30319 14.0337C5.22319 13.8337 5.23319 13.6137 5.33319 13.4237C5.78319 12.5237 6.25319 11.1536 6.25319 7.85362C6.25319 3.82362 8.61319 2.59364 9.62319 2.25364C11.2932 1.69364 13.2132 2.07365 14.3032 3.13365C15.2532 3.04365 16.0032 3.23361 16.5632 3.72361C17.7532 4.73361 17.7532 6.64362 17.7532 8.85362C17.7532 11.0636 18.3532 12.8037 18.6732 13.4337C18.7732 13.6237 18.7832 13.8437 18.7032 14.0437C18.6232 14.2437 18.4632 14.4036 18.2632 14.4736C17.3432 14.8136 16.3332 15.0736 15.2532 15.2436V16.1937L18.4332 17.1537C20.0432 17.6437 21.2932 18.9537 21.7032 20.5737C21.8132 21.0237 21.7132 21.4936 21.4332 21.8636C21.1232 22.2636 20.6232 22.5036 20.0932 22.5036H20.1032ZM7.03319 13.3237C7.82319 13.5637 8.69319 13.7336 9.60319 13.8536C9.98319 13.9036 10.2632 14.2237 10.2632 14.5937V16.7536C10.2632 17.0836 10.0432 17.3736 9.73319 17.4736L6.01319 18.5937C4.91319 18.9237 4.04319 19.8337 3.76319 20.9537C3.76319 20.9637 3.83319 21.0137 3.92319 21.0137H20.1132C20.2032 21.0137 20.2632 20.9737 20.2732 20.9537C19.9832 19.8437 19.1232 18.9436 18.0232 18.6036L14.3132 17.4836C13.9932 17.3836 13.7832 17.0936 13.7832 16.7636V14.6036C13.7832 14.2236 14.0632 13.9036 14.4432 13.8636C15.3632 13.7436 16.2332 13.5737 17.0332 13.3337C16.6732 12.3237 16.2832 10.7236 16.2832 8.87364C16.2832 7.02364 16.2832 5.45366 15.6232 4.89366C15.3332 4.65366 14.8432 4.5837 14.1532 4.6937C13.8732 4.7437 13.6032 4.63366 13.4332 4.40366C12.9032 3.70366 11.4432 3.25371 10.1232 3.70371C8.61319 4.21371 7.77319 5.70365 7.77319 7.88365C7.77319 10.7036 7.44319 12.2837 7.04319 13.3437L7.03319 13.3237Z" fill="currentColor"></path></svg>