<svg xmlns="http://www.w3.org/2000/svg" width="24" height="24" viewBox="0 0 24 24" fill="none" stroke-width="1.5" stroke-linecap="round" stroke-linejoin="round" color="currentColor"><path d="M11.9996 20C15.5002 20 20 14.2944 20 9.84106C20 4.64401 16.5709 1.98287 11.9996 2C7.42842 2.01713 4 4.64399 4 9.84104C4 14.2944 8.49907 20 11.9996 20Z" stroke="currentColor"></path><path d="M12 2L12 20" stroke="currentColor"></path><path d="M4.5 8C8 10 16 10 19.5 8" stroke="currentColor"></path><path d="M4.5 13C8 15 16 15 19.5 13" stroke="currentColor"></path><path d="M6 16C6 18.4 5 20.8 3 22" stroke="currentColor"></path><path d="M18 16C18 18.4 19 20.8 21 22" stroke="currentColor"></path></svg>