<svg xmlns="http://www.w3.org/2000/svg" width="24" height="24" viewBox="0 0 24 24" fill="none"><path d="M11 18.75C11.4142 18.75 11.75 18.4142 11.75 18C11.75 17.5858 11.4142 17.25 11 17.25V18V18.75ZM9 13.25C8.58579 13.25 8.25 13.5858 8.25 14C8.25 14.4142 8.58579 14.75 9 14.75V14V13.25ZM9 21.25C8.58579 21.25 8.25 21.5858 8.25 22C8.25 22.4142 8.58579 22.75 9 22.75V22V21.25ZM3 17.25C2.58579 17.25 2.25 17.5858 2.25 18C2.25 18.4142 2.58579 18.75 3 18.75V18V17.25ZM5 22.75C5.41421 22.75 5.75 22.4142 5.75 22C5.75 21.5858 5.41421 21.25 5 21.25V22V22.75ZM5 14.75C5.41421 14.75 5.75 14.4142 5.75 14C5.75 13.5858 5.41421 13.25 5 13.25V14V14.75ZM10 15H9.25V17H10H10.75V15H10ZM10 17H9.25C9.25 17.9665 10.0335 18.75 11 18.75V18V17.25C10.8619 17.25 10.75 17.1381 10.75 17H10ZM9 14V14.75C9.13807 14.75 9.25 14.8619 9.25 15H10H10.75C10.75 14.0335 9.9665 13.25 9 13.25V14ZM10 21H10.75V19H10H9.25V21H10ZM10 19H10.75C10.75 18.8619 10.8619 18.75 11 18.75V18V17.25C10.0335 17.25 9.25 18.0335 9.25 19H10ZM9 22V22.75C9.9665 22.75 10.75 21.9665 10.75 21H10H9.25C9.25 21.1381 9.13807 21.25 9 21.25V22ZM4 17H3.25C3.25 17.1381 3.13807 17.25 3 17.25V18V18.75C3.9665 18.75 4.75 17.9665 4.75 17H4ZM4 19H4.75C4.75 18.0335 3.9665 17.25 3 17.25V18V18.75C3.13807 18.75 3.25 18.8619 3.25 19H4ZM4 21H4.75V19H4H3.25V21H4ZM4 15H3.25V17H4H4.75V15H4ZM5 22V21.25C4.86193 21.25 4.75 21.1381 4.75 21H4H3.25C3.25 21.9665 4.0335 22.75 5 22.75V22ZM5 14V13.25C4.0335 13.25 3.25 14.0335 3.25 15H4H4.75C4.75 14.8619 4.86193 14.75 5 14.75V14Z" fill="currentColor" /><path d="M14 2.5V3C14 5.82843 14 7.24264 14.8787 8.12132C15.7574 9 17.1716 9 20 9H20.5" stroke="currentColor" stroke-linecap="round" stroke-linejoin="round" stroke-width="1.5" /><path d="M14 21.9991C17.1143 21.99 18.7653 21.8915 19.8284 20.8284C21 19.6569 21 17.7712 21 14V10.6569C21 9.83935 21 9.4306 20.8478 9.06306C20.6955 8.69552 20.4065 8.40649 19.8284 7.82843L15.0919 3.09188C14.593 2.593 14.3436 2.34355 14.0345 2.19575C13.9702 2.165 13.9044 2.13772 13.8372 2.11401C13.5141 2 13.1614 2 12.4558 2C9.21082 2 7.58831 2 6.48933 2.88607C6.26731 3.06508 6.06508 3.26731 5.88607 3.48933C5 4.58831 5 6.21082 5 9.45584V10" stroke="currentColor" stroke-linecap="round" stroke-linejoin="round" stroke-width="1.5" /></svg>