<svg xmlns="http://www.w3.org/2000/svg" width="24" height="24" viewBox="0 0 24 24" fill="none"><path d="M14 22.75C14.4142 22.75 14.75 22.4142 14.75 22C14.75 21.5858 14.4142 21.25 14 21.25V22V22.75ZM3.99988 15.9999L4.74988 15.9999L3.99988 15.9999ZM4.74998 12C4.74999 11.5858 4.41421 11.25 4 11.25C3.58578 11.25 3.24999 11.5858 3.24998 12L3.99998 12L4.74998 12ZM4.46965 20.4697C4.17675 20.7626 4.17676 21.2374 4.46965 21.5303C4.76254 21.8232 5.23742 21.8232 5.53031 21.5303L4.99998 21L4.46965 20.4697ZM10.5303 16.5303C10.8232 16.2374 10.8232 15.7626 10.5303 15.4697C10.2374 15.1768 9.76254 15.1768 9.46965 15.4697L9.99998 16L10.5303 16.5303ZM14 22V21.25H9.99988V22V22.75H14V22ZM3.99988 15.9999L4.74988 15.9999L4.74998 12L3.99998 12L3.24998 12L3.24988 15.9998L3.99988 15.9999ZM9.99988 22V21.25C8.56443 21.25 7.5633 21.2484 6.80793 21.1468C6.07414 21.0482 5.68556 20.8677 5.40879 20.591L4.87846 21.1213L4.34812 21.6516C4.95004 22.2536 5.70793 22.5125 6.60806 22.6335C7.48661 22.7516 8.60684 22.75 9.99988 22.75V22ZM3.99988 15.9999L3.24988 15.9998C3.24984 17.3929 3.24822 18.5131 3.36632 19.3917C3.48732 20.2918 3.7462 21.0497 4.34812 21.6516L4.87846 21.1213L5.40879 20.591C5.13203 20.3142 4.95159 19.9256 4.85295 19.1918C4.75141 18.4365 4.74984 17.4353 4.74988 15.9999L3.99988 15.9999ZM4.99998 21L5.53031 21.5303L10.5303 16.5303L9.99998 16L9.46965 15.4697L4.46965 20.4697L4.99998 21Z" fill="currentColor" /><path d="M13 2.5V3C13 5.82843 13 7.24264 13.8787 8.12132C14.7574 9 16.1716 9 19 9H19.5" stroke="currentColor" stroke-linecap="round" stroke-linejoin="round" stroke-width="1.5" /><path d="M18 21.4151C18.3136 21.2627 18.5862 21.0706 18.8284 20.8284C20 19.6569 20 17.7712 20 14V10.6569C20 9.83935 20 9.4306 19.8478 9.06306C19.6955 8.69552 19.4065 8.40649 18.8284 7.82843L14.0919 3.09188C13.593 2.593 13.3436 2.34355 13.0345 2.19575C12.9702 2.165 12.9044 2.13772 12.8372 2.11401C12.5141 2 12.1614 2 11.4558 2C8.21082 2 6.58831 2 5.48933 2.88607C5.26732 3.06508 5.06508 3.26731 4.88608 3.48933C4.14374 4.41003 4.02332 5.69818 4.00378 8" stroke="currentColor" stroke-linecap="round" stroke-linejoin="round" stroke-width="1.5" /></svg>