<svg xmlns="http://www.w3.org/2000/svg" width="24" height="24" viewBox="0 0 24 24" fill="none"><path d="M14.5 15.9164C13.0924 14.4234 11.1479 13.5 9 13.5C6.85212 13.5 4.90757 14.4234 3.5 15.9164M6.25 18.8333C6.95379 18.0868 7.92606 17.6251 9 17.6251C10.0739 17.6251 11.0462 18.0868 11.75 18.8333M9.12579 21.75H9.00079M9.25079 21.75C9.25079 21.8881 9.13886 22 9.00079 22C8.86272 22 8.75079 21.8881 8.75079 21.75C8.75079 21.6119 8.86272 21.5 9.00079 21.5C9.13886 21.5 9.25079 21.6119 9.25079 21.75Z" stroke="currentColor" stroke-linecap="round" stroke-linejoin="round" stroke-width="1.5" /><path d="M4.5 10.0035V9.45908C4.5 6.21265 4.5 4.58943 5.38607 3.48998C5.56508 3.26787 5.76731 3.06554 5.98933 2.88646C7.08831 2 8.71082 2 11.9558 2C12.6614 2 13.0141 2 13.3372 2.11406C13.4044 2.13778 13.4702 2.16508 13.5345 2.19583C13.8436 2.3437 14.093 2.59325 14.5919 3.09236L19.3284 7.83096C19.9065 8.40927 20.1955 8.69843 20.3478 9.06613C20.5 9.43383 20.5 9.84276 20.5 10.6606V14.0052C20.5 17.7781 20.5 19.6645 19.3284 20.8366C18.3853 21.7801 16.9796 21.9641 14.5 22M13.5 2.50022V3.00043C13.5 5.83009 13.5 7.24492 14.3787 8.12398C15.2574 9.00304 16.6716 9.00304 19.5 9.00304H20" stroke="currentColor" stroke-linecap="round" stroke-linejoin="round" stroke-width="1.5" /></svg>