<svg xmlns="http://www.w3.org/2000/svg" width="24" height="24" viewBox="0 0 24 24" fill="none" stroke-width="1.5" stroke-linecap="round" stroke-linejoin="round" color="currentColor"><path d="M14.499 19H12.499C9.6706 19 8.25638 19 7.3777 18.1213C6.49902 17.2426 6.49902 15.8284 6.49902 13V8C6.49902 5.17157 6.49902 3.75736 7.3777 2.87868C8.25638 2 9.6706 2 12.499 2H13.8422C14.6597 2 15.0684 2 15.436 2.15224C15.8035 2.30448 16.0925 2.59351 16.6706 3.17157L19.3275 5.82843C19.9055 6.40648 20.1945 6.69552 20.3468 7.06306C20.499 7.4306 20.499 7.83935 20.499 8.65685V13C20.499 15.8284 20.499 17.2426 19.6203 18.1213C18.7417 19 17.3275 19 14.499 19Z" stroke="currentColor"></path><path d="M14.999 2.5V3.5C14.999 5.38562 14.999 6.32843 15.5848 6.91421C16.1706 7.5 17.1134 7.5 18.999 7.5H19.999" stroke="currentColor"></path><path d="M6.49903 5C4.84217 5 3.49902 6.34315 3.49902 8V16C3.49902 18.8285 3.49902 20.2427 4.3777 21.1213C5.25638 22 6.6706 22 9.49902 22H14.4994C16.1562 22 17.4994 20.6568 17.4994 19" stroke="currentColor"></path><path d="M10 11H14M10 15H17" stroke="currentColor"></path></svg>