<svg xmlns="http://www.w3.org/2000/svg" width="24" height="24" viewBox="0 0 24 24" fill="none"><path d="M12.5 2.5V3C12.5 5.82843 12.5 7.24264 13.3787 8.12132C14.2574 9 15.6716 9 18.5 9H19" stroke="currentColor" stroke-linecap="round" stroke-linejoin="round" stroke-width="1.5" /><path d="M9.5 21.9913C7.02043 21.9554 5.61466 21.7715 4.67157 20.8284C3.5 19.6569 3.5 17.7712 3.5 14V9.45584C3.5 6.21082 3.5 4.58831 4.38607 3.48933C4.56508 3.26731 4.76731 3.06508 4.98933 2.88607C6.08831 2 7.71082 2 10.9558 2C11.6614 2 12.0141 2 12.3372 2.11401C12.4044 2.13772 12.4702 2.165 12.5345 2.19575C12.8436 2.34355 13.093 2.593 13.5919 3.09188L18.3284 7.82843C18.9065 8.40649 19.1955 8.69552 19.3478 9.06306C19.5 9.4306 19.5 9.83935 19.5 10.6569V13" stroke="currentColor" stroke-linecap="round" stroke-linejoin="round" stroke-width="1.5" /><path d="M13.5 20C13.5 20 14.5 20.5 15.25 22C15.25 22 18.0294 17.8333 20.5 17" stroke="currentColor" stroke-linecap="round" stroke-linejoin="round" stroke-width="1.5" /></svg>