<svg xmlns="http://www.w3.org/2000/svg" width="24" height="24" viewBox="0 0 24 24" fill="none"><path d="M21 14.5V20.5C21 21.3284 19.2091 22 17 22C14.7909 22 13 21.3284 13 20.5V14.5" stroke="currentColor" stroke-linecap="round" stroke-linejoin="round" stroke-width="1.5" /><path d="M12 2.5V3C12 5.82843 12 7.24264 12.8787 8.12132C13.7574 9 15.1716 9 18 9H18.5M19 10.5C18.9993 9.7855 18.9899 9.40631 18.8478 9.06306C18.6955 8.69552 18.4065 8.40649 17.8284 7.82843L13.0919 3.09188C12.593 2.593 12.3436 2.34355 12.0345 2.19575C11.9702 2.165 11.9044 2.13772 11.8372 2.11401C11.5141 2 11.1614 2 10.4558 2C7.21082 2 5.58831 2 4.48933 2.88607C4.26731 3.06508 4.06508 3.26731 3.88607 3.48933C3 4.58831 3 6.21082 3 9.45584V14C3 17.7712 3 19.6569 4.17157 20.8284C5.23467 21.8915 6.8857 21.99 10 21.9991" stroke="currentColor" stroke-linecap="round" stroke-linejoin="round" stroke-width="1.5" /><path d="M17 16C19.2091 16 21 15.3284 21 14.5C21 13.6716 19.2091 13 17 13C14.7909 13 13 13.6716 13 14.5C13 15.3284 14.7909 16 17 16Z" stroke="currentColor" stroke-linecap="round" stroke-linejoin="round" stroke-width="1.5" /><path d="M21 17.5C21 18.3284 19.2091 19 17 19C14.7909 19 13 18.3284 13 17.5" stroke="currentColor" stroke-linecap="round" stroke-linejoin="round" stroke-width="1.5" /></svg>