<svg xmlns="http://www.w3.org/2000/svg" width="24" height="24" viewBox="0 0 24 24" fill="none"><path d="M20.4917 17L18 19.4958M18 19.4958L15.5 22M18 19.4958L20.5 22M18 19.4958L15.5083 17" stroke="currentColor" stroke-linecap="round" stroke-linejoin="round" stroke-width="1.5" /><path d="M19.5 13V10.6569C19.5 9.83935 19.5 9.4306 19.3478 9.06306C19.1955 8.69552 18.9065 8.40649 18.3284 7.82843L13.5919 3.09188C13.093 2.593 12.8436 2.34355 12.5345 2.19575C12.4702 2.165 12.4044 2.13772 12.3372 2.11401C12.0141 2 11.6614 2 10.9558 2C7.71082 2 6.08831 2 4.98933 2.88607C4.76731 3.06508 4.56508 3.26731 4.38607 3.48933C3.5 4.58831 3.5 6.21082 3.5 9.45584V14C3.5 17.7712 3.5 19.6569 4.67157 20.8284C5.84315 22 7.72876 22 11.5 22M12.5 2.5V3C12.5 5.82843 12.5 7.24264 13.3787 8.12132C14.2574 9 15.6716 9 18.5 9H19" stroke="currentColor" stroke-linecap="round" stroke-linejoin="round" stroke-width="1.5" /></svg>