<svg xmlns="http://www.w3.org/2000/svg" width="24" height="24" viewBox="0 0 24 24" fill="none"><path d="M19 13.0052V10.6606C19 9.84276 19 9.43383 18.8478 9.06613C18.6955 8.69843 18.4065 8.40927 17.8284 7.83096L13.0919 3.09236C12.593 2.59325 12.3436 2.3437 12.0345 2.19583C11.9702 2.16508 11.9044 2.13778 11.8372 2.11406C11.5141 2 11.1614 2 10.4558 2C7.21082 2 5.58831 2 4.48933 2.88646C4.26731 3.06554 4.06508 3.26787 3.88607 3.48998C3 4.58943 3 6.21265 3 9.45908V14.0052C3 17.7781 3 19.6645 4.17157 20.8366C5.11466 21.7801 6.52043 21.9641 9 22M12 2.50022V3.00043C12 5.83009 12 7.24492 12.8787 8.12398C13.7574 9.00304 15.1716 9.00304 18 9.00304H18.5" stroke="currentColor" stroke-linecap="round" stroke-linejoin="round" stroke-width="1.5" /><path d="M16 22C18.7614 22 21 19 21 19C21 19 18.7614 16 16 16C13.2386 16 11 19 11 19C11 19 13.2386 22 16 22Z" stroke="currentColor" stroke-linejoin="round" stroke-width="1.5" /><path d="M15.9902 19H15.9992" stroke="currentColor" stroke-linecap="round" stroke-linejoin="round" stroke-width="2" /></svg>