<svg xmlns="http://www.w3.org/2000/svg" width="24" height="24" viewBox="0 0 24 24" fill="none"><path d="M5.9925 12V18M9 14.9925L3 14.9925" stroke="currentColor" stroke-linecap="round" stroke-linejoin="round" stroke-width="1.5" /><path d="M3 22H9" stroke="currentColor" stroke-linecap="round" stroke-linejoin="round" stroke-width="1.5" /><path d="M13 22C16.7712 22 18.6569 22 19.8284 20.8284C21 19.6569 21 17.7712 21 14V10.6569C21 9.83935 21 9.4306 20.8478 9.06306C20.6955 8.69552 20.4065 8.40649 19.8284 7.82843L15.0919 3.09188C14.593 2.593 14.3436 2.34355 14.0345 2.19575C13.9702 2.165 13.9044 2.13772 13.8372 2.11401C13.5141 2 13.1614 2 12.4558 2C9.21082 2 7.58831 2 6.48933 2.88607C6.26732 3.06508 6.06508 3.26731 5.88608 3.48933C5.14374 4.41003 5.02332 5.69818 5.00378 8M14 2.5V3C14 5.82843 14 7.24264 14.8787 8.12132C15.7574 9 17.1716 9 20 9H20.5" stroke="currentColor" stroke-linecap="round" stroke-linejoin="round" stroke-width="1.5" /></svg>