<svg xmlns="http://www.w3.org/2000/svg" width="24" height="24" viewBox="0 0 24 24" fill="none"><path d="M13.5 2.50088V3.00175C13.5 5.83513 13.5 7.25182 14.3787 8.13204C15.2574 9.01226 16.6716 9.01226 19.5 9.01226H20M15.5 22C17.3723 21.9221 18.5203 21.671 19.3284 20.8614C20.5 19.6878 20.5 17.7989 20.5 14.021V10.672C20.5 9.85308 20.5 9.44362 20.3478 9.07543C20.1955 8.70724 19.9065 8.41771 19.3284 7.83864L14.5919 3.0938C14.093 2.59404 13.8436 2.34416 13.5345 2.19609C13.4702 2.16529 13.4044 2.13796 13.3372 2.11421C13.0141 2 12.6614 2 11.9558 2C8.71082 2 7.08831 2 5.98933 2.88763C5.76731 3.06694 5.56508 3.26953 5.38607 3.49194C4.54367 4.53858 4.50205 6.05926 4.5 9" stroke="currentColor" stroke-linecap="round" stroke-linejoin="round" stroke-width="1.5" /><path d="M12 15L8 17M8 17L4 15M8 17V22" stroke="currentColor" stroke-linecap="round" stroke-linejoin="round" stroke-width="1.5" /><path d="M10.7188 13.3822L10.2188 13.0552C9.1433 12.3517 8.60555 12 8 12C7.39445 12 6.8567 12.3517 5.7812 13.0552L5.2812 13.3822C4.40927 13.9525 3.9733 14.2377 3.73665 14.6715C3.5 15.1053 3.5 15.6194 3.5 16.6475V17.3525C3.5 18.3806 3.5 18.8947 3.73665 19.3285C3.9733 19.7623 4.40927 20.0475 5.2812 20.6178L5.7812 20.9448C6.85669 21.6483 7.39445 22 8 22C8.60555 22 9.1433 21.6483 10.2188 20.9448L10.7188 20.6178C11.5907 20.0475 12.0267 19.7623 12.2633 19.3285C12.5 18.8947 12.5 18.3806 12.5 17.3525V16.6475C12.5 15.6194 12.5 15.1053 12.2633 14.6715C12.0267 14.2377 11.5907 13.9525 10.7188 13.3822Z" stroke="currentColor" stroke-linecap="round" stroke-linejoin="round" stroke-width="1.5" /></svg>