<svg xmlns="http://www.w3.org/2000/svg" width="24" height="24" viewBox="0 0 24 24" fill="none"><path d="M13 2.50022V3.00043C13 5.83009 13 7.24492 13.8787 8.12398C14.7574 9.00304 16.1716 9.00304 19 9.00304H19.5M14 22C16.4796 21.9641 17.8853 21.7801 18.8284 20.8366C20 19.6645 20 17.7781 20 14.0052V10.6606C20 9.84276 20 9.43383 19.8478 9.06613C19.6955 8.69843 19.4065 8.40927 18.8284 7.83096L14.0919 3.09236C13.593 2.59325 13.3436 2.3437 13.0345 2.19583C12.9702 2.16508 12.9044 2.13778 12.8372 2.11406C12.5141 2 12.1614 2 11.4558 2C8.21082 2 6.58831 2 5.48933 2.88646C5.26731 3.06554 5.06508 3.26787 4.88607 3.48998C4 4.58943 4 6.21265 4 9.45908V14.0052C4 15.1755 4 16.1643 4.03496 17.0065" stroke="currentColor" stroke-linecap="round" stroke-linejoin="round" stroke-width="1.5" /><path d="M10.5 20.5C10.5 21.3284 9.82843 22 9 22C8.17157 22 7.5 21.3284 7.5 20.5C7.5 19.6716 8.17157 19 9 19C9.82843 19 10.5 19.6716 10.5 20.5Z" stroke="currentColor" stroke-linecap="round" stroke-linejoin="round" stroke-width="1.5" /><path d="M9 19V17M9 13V11M9 7V5" stroke="currentColor" stroke-linecap="round" stroke-linejoin="round" stroke-width="1.5" /></svg>