<svg xmlns="http://www.w3.org/2000/svg" width="24" height="24" viewBox="0 0 24 24" fill="none"><path d="M5.99998 22C5.99998 22 3.00001 19.7905 3 19C3 18.2094 6 16 6 16" stroke="currentColor" stroke-linecap="round" stroke-linejoin="round" stroke-width="1.5" /><path d="M10 22C10 22 13 19.7905 13 19C13 18.2094 10 16 10 16" stroke="currentColor" stroke-linecap="round" stroke-linejoin="round" stroke-width="1.5" /><path d="M5 12V9.45584C5 6.21082 5 4.58831 5.88607 3.48933C6.06508 3.26731 6.26731 3.06508 6.48933 2.88607C7.58831 2 9.21082 2 12.4558 2C13.1614 2 13.5141 2 13.8372 2.11401C13.9044 2.13772 13.9702 2.165 14.0345 2.19575C14.3436 2.34355 14.593 2.593 15.0919 3.09188L19.8284 7.82843C20.4065 8.40649 20.6955 8.69552 20.8478 9.06306C21 9.4306 21 9.83935 21 10.6569V14C21 17.7712 21 19.6569 19.8284 20.8284C18.8853 21.7715 17.4796 21.9554 15 21.9913M14 2.5V3C14 5.82843 14 7.24264 14.8787 8.12132C15.7574 9 17.1716 9 20 9H20.5" stroke="currentColor" stroke-linecap="round" stroke-linejoin="round" stroke-width="1.5" /></svg>