<svg xmlns="http://www.w3.org/2000/svg" width="24" height="24" viewBox="0 0 24 24" fill="none"><path d="M7 16H6.5C5.56812 16 5.10218 16 4.73463 16.1522C4.24458 16.3552 3.85523 16.7446 3.65224 17.2346C3.5 17.6022 3.5 18.0681 3.5 19C3.5 19.9319 3.5 20.3978 3.65224 20.7654C3.85523 21.2554 4.24458 21.6448 4.73463 21.8478C5.10218 22 5.56812 22 6.5 22H7C7.93188 22 8.39782 22 8.76537 21.8478C9.25542 21.6448 9.64477 21.2554 9.84776 20.7654C10 20.3978 10 19.9319 10 19C10 18.0681 10 17.6022 9.84776 17.2346C9.64477 16.7446 9.25542 16.3552 8.76537 16.1522C8.39782 16 7.93188 16 7 16Z" stroke="currentColor" stroke-linecap="round" stroke-linejoin="round" stroke-width="1.5" /><path d="M10 18.0455L12.0039 16.9526C12.6692 16.5897 13.0019 16.4082 13.251 16.5462C13.5 16.6841 13.5 17.0498 13.5 17.7813V20.2187C13.5 20.9502 13.5 21.3159 13.251 21.4538C13.0019 21.5918 12.6692 21.4103 12.0039 21.0474L10 19.9545" stroke="currentColor" stroke-linecap="round" stroke-linejoin="round" stroke-width="1.5" /><path d="M4.5 12V9.45584C4.5 6.21082 4.5 4.58831 5.38607 3.48933C5.56508 3.26731 5.76731 3.06508 5.98933 2.88607C7.08831 2 8.71082 2 11.9558 2C12.6614 2 13.0141 2 13.3372 2.11401C13.4044 2.13772 13.4702 2.165 13.5345 2.19575C13.8436 2.34355 14.093 2.593 14.5919 3.09188L19.3284 7.82843C19.9065 8.40649 20.1955 8.69552 20.3478 9.06306C20.5 9.4306 20.5 9.83935 20.5 10.6569V14.252C20.5 18.0232 20.5 19.9089 19.3284 21.0804C18.8588 21.55 18.2745 21.8314 17.5 22M13.5 2.5V3C13.5 5.82843 13.5 7.24264 14.3787 8.12132C15.2574 9 16.6716 9 19.5 9H20" stroke="currentColor" stroke-linecap="round" stroke-linejoin="round" stroke-width="1.5" /></svg>