<svg xmlns="http://www.w3.org/2000/svg" width="24" height="24" viewBox="0 0 24 24" fill="none" stroke-width="1.5" stroke-linecap="round" stroke-linejoin="round" color="currentColor"><path d="M12.2478 3.08228C12.0778 3.07228 11.8378 3.07227 11.4578 3.07227C9.81779 3.07227 8.64781 3.07225 7.75781 3.18225C6.87781 3.28225 6.3578 3.47224 5.9678 3.79224C5.7878 3.94224 5.61781 4.10235 5.47781 4.28235C5.15781 4.67235 4.9678 5.20227 4.8678 6.07227C4.7578 6.97227 4.75781 8.14235 4.75781 9.78235V14.3223C4.75781 16.2323 4.7578 17.5823 4.8978 18.6123C5.0378 19.6223 5.28779 20.2023 5.70779 20.6223C6.12779 21.0423 6.7078 21.3023 7.7178 21.4323C8.7478 21.5723 10.0978 21.5723 12.0078 21.5723C13.9178 21.5723 15.2678 21.5723 16.2978 21.4323C17.3078 21.3023 17.8878 21.0423 18.3078 20.6223C18.7278 20.2023 18.9878 19.6223 19.1178 18.6123C19.2578 17.5823 19.2578 16.2323 19.2578 14.3223V10.9823C19.2578 10.5423 19.2578 10.2623 19.2378 10.0723H18.9478C17.5778 10.0723 16.4778 10.0723 15.6078 9.95227C14.7078 9.83227 13.9478 9.57229 13.3478 8.97229C12.7478 8.37229 12.4878 7.61228 12.3678 6.71228C12.2478 5.84228 12.2478 4.74231 12.2478 3.37231V3.08228ZM13.3578 1.84229C13.7878 2.04229 14.1178 2.38226 14.5478 2.81226C14.5778 2.83226 14.5978 2.86232 14.6178 2.88232L19.3578 7.62231C19.3578 7.62231 19.4178 7.68227 19.4378 7.70227C19.9378 8.20227 20.3278 8.59229 20.5378 9.10229C20.7478 9.60229 20.7478 10.1623 20.7478 10.8623V14.3823C20.7478 16.2123 20.7478 17.6723 20.5978 18.8123C20.4378 19.9823 20.1078 20.9323 19.3578 21.6823C18.6078 22.4323 17.6578 22.7622 16.4878 22.9222C15.3478 23.0722 13.8878 23.0723 12.0578 23.0723H11.9478C10.1078 23.0723 8.65779 23.0722 7.51779 22.9222C6.34779 22.7622 5.3978 22.4323 4.6478 21.6823C3.8978 20.9323 3.56781 19.9823 3.40781 18.8123C3.25781 17.6723 3.25781 16.2123 3.25781 14.3823V9.7323C3.25781 8.1523 3.25781 6.89234 3.37781 5.90234C3.49781 4.88234 3.74781 4.04229 4.31781 3.34229C4.52781 3.08229 4.76781 2.83231 5.03781 2.62231C5.73781 2.05231 6.57781 1.80226 7.59781 1.69226C8.58781 1.57226 9.8378 1.57227 11.4278 1.57227H11.5778C12.1778 1.57227 12.6578 1.5723 13.1078 1.7323C13.1978 1.7623 13.2878 1.80229 13.3778 1.84229H13.3578ZM13.7478 4.13232C13.7478 5.15232 13.7678 5.91233 13.8478 6.51233C13.9478 7.25233 14.1278 7.63235 14.4078 7.91235C14.6878 8.19235 15.0678 8.37229 15.8078 8.47229C16.4078 8.55229 17.1678 8.57227 18.1878 8.57227L13.7478 4.13232Z" fill="currentColor" fill-rule="evenodd"></path></svg>