<svg xmlns="http://www.w3.org/2000/svg" width="24" height="24" viewBox="0 0 24 24" fill="none"><path d="M13 2.5V3C13 5.82843 13 7.24264 13.8787 8.12132C14.7574 9 16.1716 9 19 9H19.5M20 10.6569V14C20 17.7712 20 19.6569 18.8284 20.8284C17.6569 22 15.7712 22 12 22C8.22876 22 6.34315 22 5.17157 20.8284C4 19.6569 4 17.7712 4 14V9.45584C4 6.21082 4 4.58831 4.88607 3.48933C5.06508 3.26731 5.26731 3.06508 5.48933 2.88607C6.58831 2 8.21082 2 11.4558 2C12.1614 2 12.5141 2 12.8372 2.11401C12.9044 2.13772 12.9702 2.165 13.0345 2.19575C13.3436 2.34355 13.593 2.593 14.0919 3.09188L18.8284 7.82843C19.4065 8.40649 19.6955 8.69552 19.8478 9.06306C20 9.4306 20 9.83935 20 10.6569Z" stroke="currentColor" stroke-linecap="round" stroke-linejoin="round" stroke-width="1.5" /><path d="M14.957 15.3384C14.8182 15.8756 14.1619 16.2552 12.8494 17.0144C11.5806 17.7484 10.9462 18.1153 10.4349 17.9678C10.2236 17.9068 10.031 17.791 9.87567 17.6315C9.5 17.2456 9.5 16.497 9.5 15C9.5 13.503 9.5 12.7544 9.87567 12.3685C10.031 12.209 10.2236 12.0932 10.4349 12.0322C10.9462 11.8847 11.5806 12.2516 12.8494 12.9856C14.1619 13.7448 14.8182 14.1244 14.957 14.6616C15.0143 14.8834 15.0143 15.1166 14.957 15.3384Z" stroke="currentColor" stroke-linecap="round" stroke-linejoin="round" stroke-width="1.5" /></svg>