<svg xmlns="http://www.w3.org/2000/svg" width="24" height="24" viewBox="0 0 24 24" fill="none" stroke-width="1.5" stroke-linecap="round" stroke-linejoin="round" color="currentColor"><path d="M16.4783 1.72229C15.3383 1.57229 13.8783 1.57227 12.0483 1.57227C10.2183 1.57227 8.63829 1.57229 7.49829 1.72229C6.32829 1.88229 5.3783 2.21228 4.6283 2.96228C3.8783 3.71228 3.54828 4.66228 3.38828 5.83228C3.23828 6.97228 3.23828 8.43233 3.23828 10.2623V14.9124C3.23828 16.4924 3.23828 17.7523 3.35828 18.7423C3.47828 19.7623 3.72828 20.6022 4.29828 21.3022C4.50828 21.5722 4.74828 21.8123 5.01828 22.0223C5.71828 22.5923 6.55828 22.8423 7.57828 22.9523C8.56828 23.0723 9.97829 23.0723 11.5583 23.0723C12.1583 23.0723 12.6383 23.0724 13.0883 22.9124C13.1783 22.8824 13.2683 22.8422 13.3583 22.8022C13.7883 22.6022 14.1183 22.2623 14.5483 21.8323L19.4483 16.9423C19.9483 16.4423 20.3383 16.0522 20.5483 15.5422C20.7583 15.0422 20.7583 14.4823 20.7583 13.7823V10.2623C20.7583 8.43233 20.7583 6.97228 20.6083 5.83228C20.4483 4.66228 20.1183 3.71228 19.3683 2.96228C18.6183 2.21228 17.6683 1.88229 16.4983 1.72229H16.4783ZM5.68829 4.02234C6.10829 3.60234 6.68827 3.35228 7.69827 3.21228C8.72827 3.07228 10.0783 3.07227 11.9883 3.07227C13.8983 3.07227 15.2483 3.07228 16.2783 3.21228C17.2883 3.35228 17.8683 3.60234 18.2883 4.02234C18.7083 4.45234 18.9683 5.02235 19.0983 6.03235C19.2383 7.06235 19.2383 8.41227 19.2383 10.3223V13.6624C19.2383 14.1024 19.2383 14.3823 19.2183 14.5723C17.8483 14.5723 16.4583 14.5723 15.5983 14.6923C14.6983 14.8123 13.9383 15.0722 13.3383 15.6722C12.7383 16.2722 12.4783 17.0323 12.3583 17.9323C12.2383 18.8023 12.2383 20.1923 12.2383 21.5623C12.2383 21.5623 11.8283 21.5723 11.4483 21.5723C9.80827 21.5723 8.63829 21.5723 7.74829 21.4623C6.86829 21.3623 6.34828 21.1723 5.95828 20.8523C5.77828 20.7023 5.60829 20.5423 5.46829 20.3623C5.14829 19.9723 4.95828 19.4423 4.85828 18.5723C4.74828 17.6723 4.74829 16.5023 4.74829 14.8623V10.3223C4.74829 8.41227 4.74828 7.06235 4.88828 6.03235C5.02828 5.02235 5.27827 4.45234 5.69827 4.02234H5.68829ZM15.7983 16.1722C16.3983 16.0922 17.1583 16.0723 18.1783 16.0723L13.7383 20.5123C13.7383 19.4923 13.7583 18.7323 13.8383 18.1323C13.9383 17.3923 14.1183 17.0123 14.3983 16.7323C14.6783 16.4523 15.0583 16.2722 15.7983 16.1722Z" fill="currentColor" fill-rule="evenodd"></path></svg>