<svg xmlns="http://www.w3.org/2000/svg" width="24" height="24" viewBox="0 0 24 24" fill="none"><path d="M4.5 13V9.45584C4.5 6.21082 4.5 4.58831 5.38607 3.48933C5.56508 3.26731 5.76731 3.06508 5.98933 2.88607C7.08831 2 8.71082 2 11.9558 2C12.6614 2 13.0141 2 13.3372 2.11401C13.4044 2.13772 13.4702 2.165 13.5345 2.19575C13.8436 2.34355 14.093 2.593 14.5919 3.09188L19.3284 7.82843C19.9065 8.40649 20.1955 8.69552 20.3478 9.06306C20.5 9.4306 20.5 9.83935 20.5 10.6569V14C20.5 17.7712 20.5 19.6569 19.3284 20.8284C18.1569 22 16.2712 22 12.5 22C12.1508 22 11.8178 22 11.5 21.9991M13.5 2.5V3C13.5 5.82843 13.5 7.24264 14.3787 8.12132C15.2574 9 16.6716 9 19.5 9H20" stroke="currentColor" stroke-linecap="round" stroke-linejoin="round" stroke-width="1.5" /><path d="M3.5 22V20.6611C3.5 20.0548 3.74082 19.4735 4.16947 19.0448L8.81022 14.4041C9.06894 14.1453 9.41983 14 9.78571 14C10.1516 14 10.5025 14.1453 10.7612 14.4041L11.0959 14.7388C11.3547 14.9975 11.5 15.3484 11.5 15.7143C11.5 16.0802 11.3547 16.4311 11.0959 16.6898L6.45518 21.3305C6.02653 21.7592 5.44515 22 4.83894 22H3.5Z" stroke="currentColor" stroke-linecap="round" stroke-linejoin="round" stroke-width="1.5" /></svg>