<svg xmlns="http://www.w3.org/2000/svg" width="24" height="24" viewBox="0 0 24 24" fill="none"><path d="M12.5 15.5C13.1491 16.2212 13.5 17.0985 13.5 18C13.5 18.9015 13.1491 19.7788 12.5 20.5" stroke="currentColor" stroke-linecap="round" stroke-linejoin="round" stroke-width="1.5" /><path d="M6.85982 14.8008L5.90841 15.6104C5.64452 15.8349 5.31188 15.9579 4.96837 15.9579C4.15741 15.9579 3.5 16.6291 3.5 17.4572V18.5428C3.5 19.3709 4.15741 20.0421 4.96837 20.0421C5.31188 20.0421 5.64452 20.1651 5.90841 20.3896L6.85982 21.1992C7.56938 21.8029 7.92416 22.1048 8.21208 21.9671C8.5 21.8294 8.5 21.3579 8.5 20.4148V15.5852C8.5 14.6421 8.5 14.1706 8.21208 14.0329C7.92416 13.8952 7.56938 14.1971 6.85982 14.8008Z" stroke="currentColor" stroke-linecap="round" stroke-linejoin="round" stroke-width="1.5" /><path d="M4.5 11V9.45584C4.5 6.21082 4.5 4.58831 5.38607 3.48933C5.56508 3.26731 5.76731 3.06508 5.98933 2.88607C7.08831 2 8.71082 2 11.9558 2C12.6614 2 13.0141 2 13.3372 2.11401C13.4044 2.13772 13.4702 2.165 13.5345 2.19575C13.8436 2.34355 14.093 2.593 14.5919 3.09188L19.3284 7.82843C19.9065 8.40649 20.1955 8.69552 20.3478 9.06306C20.5 9.4306 20.5 9.83935 20.5 10.6569V14.1015C20.5 17.8727 20.5 19.7583 19.3284 20.9299C18.6752 21.5831 17.8001 21.8721 16.5 22M13.5 2.5V3C13.5 5.82843 13.5 7.24264 14.3787 8.12132C15.2574 9 16.6716 9 19.5 9H20" stroke="currentColor" stroke-linecap="round" stroke-linejoin="round" stroke-width="1.5" /></svg>