<svg xmlns="http://www.w3.org/2000/svg" width="24" height="24" viewBox="0 0 24 24" fill="none" stroke-width="1.5" stroke-linecap="round" stroke-linejoin="round" color="currentColor"><path d="M12 21.5C7.52166 21.5 5.28249 21.5 3.89124 20.1088C2.5 18.7175 2.5 16.4783 2.5 12C2.5 7.52166 2.5 5.28249 3.89124 3.89124C5.28248 2.5 7.52166 2.5 12 2.5C16.4783 2.5 18.7175 2.5 20.1088 3.89124C21.5 5.28248 21.5 7.52166 21.5 12C21.5 16.4783 21.5 18.7175 20.1088 20.1088C18.7175 21.5 16.4783 21.5 12 21.5Z" stroke="currentColor"></path><path d="M7 21.5L7 2.5" stroke="currentColor"></path><path d="M17 21.5L17 2.5" stroke="currentColor"></path><path d="M17 12L7 12" stroke="currentColor"></path><path d="M7 16L3 16M7 8L3 8" stroke="currentColor"></path><path d="M21 16L17 16M21 8L17 8" stroke="currentColor"></path></svg>