<svg xmlns="http://www.w3.org/2000/svg" width="24" height="24" viewBox="0 0 24 24" fill="none" stroke-width="1.5" stroke-linecap="round" stroke-linejoin="round" color="currentColor"><path d="M3.75781 14.5006C3.75781 19.0489 7.4551 22.7478 12.0028 22.7505C12.0011 22.7505 11.9995 22.7505 11.9978 22.7505H12.0078C12.0061 22.7505 12.0045 22.7505 12.0028 22.7505C16.5505 22.7478 20.2478 19.0489 20.2478 14.5006V14.5005C20.2478 13.4405 20.2478 11.2405 18.0878 8.53055C17.8978 8.29055 17.5678 8.19056 17.2678 8.29056C16.9778 8.38056 16.7678 8.66055 16.7578 8.97055C16.7478 9.37055 16.5778 10.3005 16.1678 10.6205C16.0678 10.7005 15.9178 10.7805 15.5978 10.7105C14.9178 10.5705 14.8078 10.0606 14.7578 8.25055L14.7577 8.24659C14.6977 6.00694 14.6156 2.93959 10.8078 1.31055C10.5678 1.21055 10.3078 1.23055 10.0978 1.37055C9.88784 1.51055 9.75781 1.75055 9.75781 2.00055C9.75781 4.11055 8.54783 5.52054 7.14783 7.15054C5.55783 8.99054 3.75781 11.0906 3.75781 14.5006ZM8.28784 8.12055C9.51784 6.69055 10.7878 5.21054 11.1578 3.18054C13.1565 4.46966 13.2077 6.39789 13.2577 8.27667L13.2578 8.28055C13.2978 9.91055 13.3478 11.7606 15.2878 12.1706C16.1578 12.3506 16.7478 12.0606 17.0978 11.7906C17.4378 11.5306 17.6778 11.1805 17.8478 10.8105C18.7678 12.4505 18.7678 13.7305 18.7678 14.4905V14.4905C18.7678 18.2105 15.7378 21.2405 12.0178 21.2405C8.29782 21.2405 5.26782 18.2105 5.26782 14.4905C5.26782 11.6471 6.73106 9.93845 8.27711 8.13308L8.28784 8.12055ZM7.75781 15C7.75781 17.75 9.54781 19.75 12.0078 19.75C14.3478 19.75 16.2578 17.4 16.2578 14.5C16.2578 14.25 16.1378 14.02 15.9378 13.88C15.7378 13.74 15.4778 13.7 15.2478 13.79C14.3678 14.12 13.6478 14.12 13.0978 13.77C12.2478 13.24 11.8478 11.95 11.7578 10.93C11.7378 10.7 11.6078 10.48 11.4078 10.36C11.2078 10.24 10.9578 10.22 10.7378 10.3C8.94779 10.98 7.75781 13.58 7.75781 15ZM9.25781 15C9.25781 14.3 9.77778 13.06 10.4778 12.29C10.7178 13.22 11.2378 14.39 12.2878 15.05C12.9778 15.48 13.7678 15.63 14.6578 15.5C14.3378 17.08 13.2678 18.25 12.0078 18.25C10.3678 18.25 9.25781 16.94 9.25781 15Z" fill="currentColor" fill-rule="evenodd"></path></svg>