<svg xmlns="http://www.w3.org/2000/svg" width="24" height="24" viewBox="0 0 24 24" fill="none" stroke-width="1.5" stroke-linecap="round" stroke-linejoin="round" color="currentColor"><path d="M3.25 13.4987C3.25 18.3187 7.17 22.2487 12 22.2487C16.83 22.2487 20.75 18.3187 20.75 13.4987C20.75 10.2087 18.97 6.11876 16.52 3.78876C16.36 3.64876 16.15 3.57874 15.94 3.58874C15.72 3.60874 15.53 3.71873 15.4 3.88873L13.99 5.76874L11.09 2.03876C10.84 1.71876 10.39 1.65873 10.06 1.88873C6.68 4.30873 3.25 9.06875 3.25 13.4987ZM4.75 13.4987C4.75 10.2787 7.11999 6.10876 10.36 3.53876H10.37L13.42 7.45874C13.56 7.63874 13.78 7.74875 14.01 7.74875C14.24 7.74875 14.46 7.63876 14.6 7.44876L16.07 5.48874C17.92 7.59874 19.25 10.8887 19.25 13.4987C19.25 17.4987 16 20.7487 12 20.7487C8 20.7487 4.75 17.4987 4.75 13.4987ZM7.25 13.9989C7.25 16.8989 9.38 19.2489 12 19.2489H12.01C14.63 19.2489 16.76 16.8989 16.76 13.9989C16.76 13.1189 16.56 12.2488 16.18 11.4888C16.08 11.2789 15.89 11.1389 15.66 11.0889C15.43 11.0389 15.2 11.0989 15.02 11.2489L13.63 12.4189L11.1 9.04885C10.97 8.86885 10.77 8.76886 10.55 8.74886C10.34 8.72886 10.12 8.81886 9.96997 8.96886C9.15997 9.77886 7.25 11.6889 7.25 13.9989ZM8.75 13.9989C8.75 12.7789 9.52999 11.6489 10.43 10.6589V10.6489L12.9 13.9389C13.02 14.1089 13.21 14.2189 13.41 14.2388C13.62 14.2589 13.82 14.1989 13.98 14.0689L15.15 13.0889C15.22 13.3889 15.25 13.6889 15.25 13.9989C15.25 16.0689 13.79 17.7489 12 17.7489C10.21 17.7489 8.75 16.0689 8.75 13.9989Z" fill="currentColor" fill-rule="evenodd"></path></svg>