<svg xmlns="http://www.w3.org/2000/svg" width="24" height="24" viewBox="0 0 24 24" fill="none" stroke-width="1.5" stroke-linecap="round" stroke-linejoin="round" color="currentColor"><path d="M17.0003 2.5C17.4103 2.5 17.7503 2.84 17.7503 3.25C17.7503 3.67 17.4103 4.01001 17.0003 4.01001C16.5903 4.01001 16.2503 3.67001 16.2503 3.26001C16.2503 2.84001 16.5903 2.5 17.0003 2.5ZM6.28029 3.55005C5.89029 3.40005 5.46025 3.58997 5.30025 3.96997C5.15025 4.35997 5.34023 4.78995 5.72023 4.94995C8.31023 5.97995 9.85028 8.00013 10.6403 9.63013C6.39028 7.55013 2.96025 8.60993 1.55025 9.67993C1.22025 9.92993 1.15029 10.4 1.40029 10.73C1.65029 11.06 2.12027 11.1201 2.45027 10.8701C3.38027 10.1801 6.13026 9.17015 9.81026 10.9001C9.19026 11.1201 8.59026 11.41 8.06026 11.73C6.94026 12.39 6.00023 13.18 5.47023 13.72C5.18023 14.02 5.18023 14.49 5.47023 14.78C5.77023 15.07 6.24029 15.07 6.53029 14.78C6.99029 14.32 7.82027 13.61 8.82027 13.02C9.21027 12.79 9.61027 12.5899 10.0103 12.4299C9.79027 12.7199 9.57024 13.0599 9.35024 13.4299C8.30024 15.2099 7.25026 17.84 7.25026 21.25C7.25026 21.66 7.59026 22 8.00026 22C8.41026 22 8.75026 21.66 8.75026 21.25C8.75026 18.16 9.70029 15.7899 10.6503 14.1899C11.0903 13.4499 11.5303 12.87 11.8703 12.47C12.4903 13.51 12.9603 15.1599 12.6503 18.1699C12.6103 18.5899 12.9103 18.95 13.3203 19C13.7403 19.04 14.1003 18.7401 14.1503 18.3301C14.4003 15.8201 14.1603 14.08 13.6803 12.79C13.9503 12.94 14.2303 13.1101 14.5203 13.3101C15.9803 14.3001 17.5903 15.92 18.2803 18.45C18.3903 18.85 18.8003 19.08 19.2003 18.97C19.6003 18.86 19.8302 18.45 19.7202 18.05C18.9102 15.08 17.0202 13.2001 15.3602 12.0701C14.5802 11.5401 13.8503 11.1699 13.2803 10.9299C14.7503 9.44993 17.7403 7.71997 21.7803 8.96997C22.1703 9.08997 22.5902 8.86998 22.7202 8.47998C22.8402 8.07998 22.6202 7.66004 22.2202 7.54004C18.2102 6.29004 15.0502 7.57009 13.1102 9.09009C13.6802 7.41009 14.8002 6.28012 15.4202 5.87012C15.7602 5.64012 15.8503 5.18008 15.6203 4.83008C15.3903 4.49008 14.9303 4.40013 14.5803 4.63013C13.7703 5.17013 12.4402 6.49998 11.7302 8.47998C10.7502 6.67998 9.03029 4.65005 6.28029 3.55005ZM13.7503 20.74C13.7503 20.33 13.4103 19.99 13.0003 19.99C12.5903 19.99 12.2503 20.33 12.2503 20.74C12.2503 21.17 12.5903 21.5 13.0003 21.5C13.4103 21.5 13.7503 21.17 13.7503 20.75V20.74ZM20.7503 12.25C20.7503 11.84 20.4103 11.5 20.0003 11.5C19.5903 11.5 19.2503 11.84 19.2503 12.25C19.2503 12.67 19.5903 13.01 20.0003 13.01C20.4103 13.01 20.7503 12.67 20.7503 12.26V12.25ZM11.0003 3.5C11.4103 3.5 11.7503 3.84 11.7503 4.25C11.7503 4.67 11.4103 5.01001 11.0003 5.01001C10.5903 5.01001 10.2503 4.67001 10.2503 4.26001C10.2503 3.84001 10.5903 3.5 11.0003 3.5ZM18.7503 11.25C18.7503 10.84 18.4103 10.5 18.0003 10.5C17.5903 10.5 17.2503 10.84 17.2503 11.25C17.2503 11.67 17.5903 12.01 18.0003 12.01C18.4103 12.01 18.7503 11.67 18.7503 11.26V11.25ZM3.00026 2.5C3.41026 2.5 3.75026 2.84 3.75026 3.25C3.75026 3.67 3.41026 4.01001 3.00026 4.01001C2.59026 4.01001 2.25026 3.67001 2.25026 3.26001C2.25026 2.84001 2.59026 2.5 3.00026 2.5ZM4.75026 16.25C4.75026 15.84 4.41026 15.5 4.00026 15.5C3.59026 15.5 3.25026 15.84 3.25026 16.25C3.25026 16.67 3.59026 17.01 4.00026 17.01C4.41026 17.01 4.75026 16.67 4.75026 16.26V16.25Z" fill="currentColor" fill-rule="evenodd"></path></svg>