<svg xmlns="http://www.w3.org/2000/svg" width="24" height="24" viewBox="0 0 24 24" fill="none"><path d="M9 18C10.1046 18 11 17.1046 11 16C11 14.8954 10.1046 14 9 14C7.89543 14 7 14.8954 7 16C7 17.1046 7.89543 18 9 18Z" stroke="currentColor" stroke-linecap="round" stroke-linejoin="round" stroke-width="1.5" /><path d="M21 15H19.5" stroke="currentColor" stroke-linecap="round" stroke-linejoin="round" stroke-width="1.5" /><path d="M17 18.9821C17 20.0966 17.8954 21 19 21C20.1046 21 21 20.0966 21 18.9821V8.12841C21 5.01842 21 3.46342 20.074 3.07643C19.1481 2.68945 18.0583 3.789 15.8787 5.98809L3.41421 18.5642C3.149 18.8318 3 19.1947 3 19.5731C3 20.3612 3.63317 21 4.41421 21C4.78929 21 5.149 20.8497 5.41421 20.5821L8 17.9731" stroke="currentColor" stroke-linecap="round" stroke-linejoin="round" stroke-width="1.5" /></svg>