<svg xmlns="http://www.w3.org/2000/svg" width="24" height="24" viewBox="0 0 24 24" fill="none" stroke-width="1.5" stroke-linecap="round" stroke-linejoin="round" color="currentColor"><path d="M3 20.9023C2.59 20.9023 2.25 20.5623 2.25 20.1523V4.15234C2.25 3.74234 2.59 3.40234 3 3.40234C3.41 3.40234 3.75 3.74234 3.75 4.15234V20.1523C3.75 20.5623 3.41 20.9023 3 20.9023ZM21 20.9023C20.59 20.9023 20.25 20.5623 20.25 20.1523V4.15234C20.25 3.74234 20.59 3.40234 21 3.40234C21.41 3.40234 21.75 3.74234 21.75 4.15234V20.1523C21.75 20.5623 21.41 20.9023 21 20.9023ZM15.0898 15.6823C15.2398 15.8323 15.4298 15.9023 15.6198 15.9023C15.8098 15.9023 15.9998 15.8323 16.1498 15.6823L17.0298 14.8022L17.03 14.802C18.1399 13.6921 18.7498 13.0822 18.7498 12.1523C18.7498 11.2224 18.1399 10.6125 17.03 9.50266L17.0298 9.50241L16.1498 8.62229C15.8598 8.33228 15.3798 8.33228 15.0898 8.62229C14.7998 8.91229 14.7998 9.39234 15.0898 9.68234L15.9698 10.5622C16.0378 10.6302 16.1036 10.6956 16.1672 10.7588C16.4122 11.0022 16.6231 11.2117 16.7898 11.4023H7.21979C7.43979 11.1623 7.70979 10.8922 8.03979 10.5622L8.91974 9.68234C9.20974 9.39234 9.20974 8.91229 8.91974 8.62229C8.62974 8.33228 8.14974 8.33228 7.85974 8.62229L6.9798 9.50241L6.97933 9.50288C5.86963 10.6126 5.25977 11.2224 5.25977 12.1523C5.25977 13.0822 5.86963 13.692 6.97933 14.8018L6.9798 14.8022L7.85974 15.6823C8.14974 15.9723 8.62974 15.9723 8.91974 15.6823C9.20974 15.3923 9.20974 14.9123 8.91974 14.6223L8.03979 13.7424C7.97182 13.6744 7.90596 13.609 7.8424 13.5458C7.59741 13.3024 7.38653 13.0929 7.21979 12.9023H16.7898C16.5698 13.1423 16.2998 13.4124 15.9698 13.7424L15.0898 14.6223C14.7998 14.9123 14.7998 15.3923 15.0898 15.6823Z" fill="currentColor" fill-rule="evenodd"></path></svg>