<svg xmlns="http://www.w3.org/2000/svg" width="24" height="24" viewBox="0 0 24 24" fill="none"><path d="M4 12L4 21" stroke="currentColor" stroke-linecap="round" stroke-linejoin="round" stroke-width="1.5" /><path d="M8.00876 3.00876C9.16422 2.95225 10.4492 3.16236 11.7576 3.83892C13.4549 4.7166 15.2471 5.04124 17.021 4.84327C18.5627 4.67121 19.3335 4.58518 19.6667 4.88332C20 5.18146 20 5.82588 20 7.11473V13.2898C20 13.409 20 13.4685 19.9895 13.5405C19.9503 13.8088 19.743 14.118 19.5096 14.2562C19.4471 14.2933 19.4107 14.3082 19.3381 14.3381M4.24191 4.24191C4.15535 4.30176 4.0746 4.3614 4 4.42024V12.1531C4 13.2018 4 13.7261 4.2098 13.8757C4.4196 14.0252 5.02221 13.8172 6.22741 13.4012C7.63078 12.9168 9.53498 12.8405 11.7576 13.9897C12.8503 14.5547 13.9344 14.8438 14.9505 14.9505" stroke="currentColor" stroke-linecap="round" stroke-linejoin="round" stroke-width="1.5" /><path d="M3 3L21 21" stroke="currentColor" stroke-linecap="round" stroke-linejoin="round" stroke-width="1.5" /></svg>