<svg xmlns="http://www.w3.org/2000/svg" width="24" height="24" viewBox="0 0 24 24" fill="none"><path d="M14.4725 2V7.86783C14.4725 8.43028 14.4725 8.71151 14.5473 8.9786C14.6221 9.2457 14.7679 9.48521 15.0594 9.96422L18.6743 15.9036C20.3166 18.602 21.1377 19.9512 20.5716 20.9756C20.0054 22 18.4386 22 15.305 22H8.69496C5.56136 22 3.99455 22 3.42841 20.9756C2.86227 19.9512 3.68343 18.602 5.32575 15.9036L8.94061 9.96422C9.23215 9.48521 9.37792 9.2457 9.45269 8.9786C9.52746 8.71151 9.52746 8.43028 9.52746 7.86783V2" stroke="currentColor" stroke-linecap="round" stroke-linejoin="round" stroke-width="1.5" /><path d="M8 2H16" stroke="currentColor" stroke-linecap="round" stroke-linejoin="round" stroke-width="1.5" /><path d="M19 16.7232C18.4694 16.8939 17.8143 17 17 17C14 17 11 14 8 14C7.65244 14 7.31998 14.0181 7 14.0512" stroke="currentColor" stroke-linecap="round" stroke-linejoin="round" stroke-width="1.5" /></svg>