<svg xmlns="http://www.w3.org/2000/svg" width="24" height="24" viewBox="0 0 24 24" fill="none"><path d="M6 6C6 7.04416 6.27249 8.07025 6.79054 8.97683L7.71665 10.526C7.85746 10.7616 7.92786 10.8793 7.96393 11.01C8 11.1406 8 11.2778 8 11.5522V18C8 19.4001 8 20.1002 8.27248 20.635C8.51217 21.1054 8.89462 21.4878 9.36502 21.7275C9.8998 22 10.5999 22 12 22C13.4001 22 14.1002 22 14.635 21.7275C15.1054 21.4878 15.4878 21.1054 15.7275 20.635C16 20.1002 16 19.4001 16 18V16" stroke="currentColor" stroke-linecap="round" stroke-linejoin="round" stroke-width="1.5" /><path d="M7 2.29243C7.60164 2 8.50417 2 10 2H14C15.8856 2 16.8284 2 17.4142 2.58579C18 3.17157 18 4.11438 18 6C18 7.04416 17.7275 8.07025 17.2095 8.97683L16.2834 10.526C16.1425 10.7616 16.0721 10.8793 16.0361 11.01" stroke="currentColor" stroke-linecap="round" stroke-linejoin="round" stroke-width="1.5" /><path d="M2 2L22 22" stroke="currentColor" stroke-linecap="round" stroke-linejoin="round" stroke-width="1.5" /><path d="M11 6L18 6" stroke="currentColor" stroke-linecap="round" stroke-linejoin="round" stroke-width="1.5" /><path d="M12 12V15" stroke="currentColor" stroke-linecap="round" stroke-linejoin="round" stroke-width="1.5" /></svg>