<svg xmlns="http://www.w3.org/2000/svg" width="24" height="24" viewBox="0 0 24 24" fill="none"><path d="M5.5 13.3247C6.25954 13.1279 7.07646 13 8 13C11 13 14 16 17 16C17.5754 16 18.0713 15.947 18.5 15.8557" stroke="currentColor" stroke-linecap="round" stroke-linejoin="round" stroke-width="1.5" /><path d="M8 2H16" stroke="currentColor" stroke-linecap="round" stroke-linejoin="round" stroke-width="1.5" /><path d="M9.5 2V6.3951C9.5 7.25859 9.5 7.69034 9.34736 8.00229C9.19472 8.31425 8.69913 8.69945 7.70796 9.46982C6.06019 10.7505 5 12.7515 5 15C5 18.866 8.13401 22 12 22C15.866 22 19 18.866 19 15C19 12.7514 17.9398 10.7505 16.292 9.46982C15.3009 8.69944 14.8053 8.31425 14.6526 8.00229C14.5 7.69034 14.5 7.25859 14.5 6.3951V2" stroke="currentColor" stroke-linecap="round" stroke-linejoin="round" stroke-width="1.5" /></svg>