<svg xmlns="http://www.w3.org/2000/svg" width="24" height="24" viewBox="0 0 24 24" fill="none" stroke-width="1.5" stroke-linecap="round" stroke-linejoin="round" color="currentColor"><path d="M8.95526 2.84571L9.00001 2.84571H15L15.0448 2.84571C15.4776 2.84566 15.8744 2.84561 16.1972 2.88901C16.5527 2.9368 16.9284 3.04925 17.2374 3.35828C17.5465 3.6673 17.6589 4.04302 17.7067 4.39851C17.7501 4.72131 17.7501 5.11814 17.75 5.55095V6.59571C17.75 7.77039 17.4435 8.92474 16.8606 9.94465L16.8532 9.95738L15.75 11.8028V18.6209C15.75 19.0654 15.75 19.4364 15.7292 19.741C15.7076 20.0581 15.661 20.3577 15.5407 20.6481C15.2616 21.3219 14.7262 21.8572 14.0524 22.1363C13.762 22.2566 13.4625 22.3033 13.1454 22.3249C12.8408 22.3457 12.4697 22.3457 12.0253 22.3457H11.9748C11.5303 22.3457 11.1593 22.3457 10.8546 22.3249C10.5375 22.3033 10.238 22.2566 9.94763 22.1363C9.2738 21.8572 8.73845 21.3219 8.45934 20.6481C8.33906 20.3577 8.29241 20.0581 8.27078 19.741C8.24999 19.4364 8.25 19.0654 8.25001 18.6209V11.8028L7.14681 9.95738L7.13937 9.94465C6.55716 8.92579 6.25064 7.77277 6.25001 6.59935L6.25 6.59571L6.25001 6.59243V5.59571L6.25 5.55096C6.24995 5.11815 6.24991 4.72132 6.29331 4.39851C6.3411 4.04302 6.45355 3.6673 6.76257 3.35828C7.07159 3.04925 7.44732 2.9368 7.8028 2.88901C8.12561 2.84561 8.52244 2.84566 8.95526 2.84571ZM8.4382 9.19425L9.64375 11.2109C9.71329 11.3272 9.75001 11.4602 9.75001 11.5957V18.5957C9.75001 19.0719 9.75041 19.3915 9.7673 19.6389C9.78372 19.8797 9.8132 19.9969 9.84516 20.074C9.97202 20.3803 10.2154 20.6237 10.5217 20.7505C10.5988 20.7825 10.716 20.812 10.9568 20.8284C11.2042 20.8453 11.5238 20.8457 12 20.8457C12.4762 20.8457 12.7958 20.8453 13.0433 20.8284C13.284 20.812 13.4012 20.7825 13.4784 20.7505C13.7847 20.6237 14.028 20.3803 14.1549 20.074C14.1868 19.9969 14.2163 19.8797 14.2327 19.6389C14.2496 19.3915 14.25 19.0719 14.25 18.5957V11.5957C14.25 11.4602 14.2867 11.3272 14.3563 11.2109L15.5618 9.19423C15.8882 8.62129 16.1026 7.99399 16.1962 7.34571H7.80385C7.89743 7.99399 8.11183 8.6213 8.4382 9.19425ZM16.25 5.59571C16.25 5.10311 16.2484 4.8091 16.2201 4.59838C16.2071 4.50182 16.1918 4.45346 16.1828 4.43168C16.1808 4.42663 16.1792 4.42332 16.1781 4.42138L16.1768 4.41895L16.1743 4.41757C16.1724 4.41656 16.1691 4.41495 16.164 4.41287C16.1423 4.40391 16.0939 4.38862 15.9973 4.37564C15.7866 4.34731 15.4926 4.34571 15 4.34571H9.00001C8.5074 4.34571 8.21339 4.34731 8.00267 4.37564C7.90611 4.38862 7.85775 4.40391 7.83597 4.41287C7.83093 4.41495 7.82761 4.41656 7.82568 4.41757L7.82324 4.41895L7.82187 4.42138C7.82086 4.42332 7.81924 4.42663 7.81717 4.43168C7.80821 4.45346 7.79291 4.50182 7.77993 4.59838C7.7516 4.8091 7.75001 5.10311 7.75001 5.59571V5.84571H16.25V5.59571ZM12.75 13.5957C12.75 13.1815 12.4142 12.8457 12 12.8457C11.5858 12.8457 11.25 13.1815 11.25 13.5957V15.5957C11.25 16.0099 11.5858 16.3457 12 16.3457C12.4142 16.3457 12.75 16.0099 12.75 15.5957V13.5957Z" fill="currentColor"></path></svg>