<svg xmlns="http://www.w3.org/2000/svg" width="24" height="24" viewBox="0 0 24 24" fill="none"><path d="M11.5161 3L12.4839 3C14.4451 3 15.4257 3 15.6918 3.59386C15.9579 4.18771 15.2983 4.90394 13.9791 6.33641L13.4952 6.86179C12.7964 7.6206 12.447 8 12 8C11.553 8 11.2036 7.6206 10.5048 6.86179L10.0209 6.33641C8.70169 4.90394 8.04206 4.18771 8.3082 3.59386C8.57433 3 9.55494 3 11.5161 3Z" stroke="currentColor" stroke-width="1.5" /><path d="M11.5161 21H12.4839C14.4451 21 15.4257 21 15.6918 20.4061C15.9579 19.8123 15.2983 19.0961 13.9791 17.6636L13.4952 17.1382C12.7964 16.3794 12.447 16 12 16C11.553 16 11.2036 16.3794 10.5048 17.1382L10.0209 17.6636C8.70169 19.0961 8.04206 19.8123 8.3082 20.4061C8.57433 21 9.55494 21 11.5161 21Z" stroke="currentColor" stroke-width="1.5" /><path d="M22 12L20 12M16 12L14 12M10 12L8 12M4 12L2 12" stroke="currentColor" stroke-linecap="round" stroke-linejoin="round" stroke-width="1.5" /></svg>