<svg xmlns="http://www.w3.org/2000/svg" width="24" height="24" viewBox="0 0 24 24" fill="none"><path d="M2.5 9.5H13.5" stroke="currentColor" stroke-linecap="round" stroke-linejoin="round" stroke-width="1.5" /><path d="M17.5 9.5H21.5" stroke="currentColor" stroke-linecap="round" stroke-linejoin="round" stroke-width="1.5" /><path d="M9.5 21.5L9.5 9.5" stroke="currentColor" stroke-width="1.5" /><path d="M9.5 6.5V2.5" stroke="currentColor" stroke-linecap="round" stroke-linejoin="round" stroke-width="1.5" /><path d="M17 17C15 17 13 18.6223 13 21.5H10.5C6.72876 21.5 4.84315 21.5 3.67157 20.3284C2.5 19.1569 2.5 17.2712 2.5 13.5V10.5C2.5 6.72876 2.5 4.84315 3.67157 3.67157C4.84315 2.5 6.72876 2.5 10.5 2.5H13.5C17.2712 2.5 19.1569 2.5 20.3284 3.67157C21.5 4.84315 21.5 6.72876 21.5 10.5V17.8432C21.5 19.8628 19.8628 21.5 17.8432 21.5" stroke="currentColor" stroke-linecap="round" stroke-linejoin="round" stroke-width="1.5" /></svg>