<svg xmlns="http://www.w3.org/2000/svg" width="24" height="24" viewBox="0 0 24 24" fill="none" stroke-width="1.5" stroke-linecap="round" stroke-linejoin="round" color="currentColor"><path d="M12 22C7.28595 22 4.92893 22 3.46447 20.5355C2 19.0711 2 16.714 2 12C2 7.28595 2 4.92893 3.46447 3.46447C4.92893 2 7.28595 2 12 2C16.714 2 19.0711 2 20.5355 3.46447C22 4.92893 22 7.28595 22 12C22 16.714 22 19.0711 20.5355 20.5355C19.7191 21.352 18.6251 21.7133 17 21.8731" stroke="currentColor"></path><path d="M12 22C12 19.2386 14.2386 17 17 17" stroke="currentColor"></path><path d="M2 9H14" stroke="currentColor"></path><path d="M18 9L22 9" stroke="currentColor"></path><path d="M9 22V9" stroke="currentColor"></path><path d="M9 5L9 2" stroke="currentColor"></path></svg>