<svg xmlns="http://www.w3.org/2000/svg" width="24" height="24" viewBox="0 0 24 24" fill="none"><path d="M12 2C13.2439 2 14.288 2.91191 14.5824 4.0827C14.6182 4.2249 14.636 4.296 14.6381 4.30334C14.7228 4.60118 14.7944 4.65698 15.1038 4.66643C15.1115 4.66667 15.1854 4.66667 15.3333 4.66667C16.8061 4.66667 18 5.86057 18 7.33333C18 7.96065 17.7834 8.53738 17.4209 8.9928C17.0345 9.47821 16.8413 9.72091 16.815 9.8259C16.7886 9.93088 16.8446 10.2378 16.9566 10.8516C16.9851 11.0078 17 11.1688 17 11.3333C17 12.8061 15.8061 14 14.3333 14C13.9749 14 13.633 13.9293 13.3208 13.8011C12.5061 13.4664 12.0987 13.2991 12 13.2991C11.9013 13.2991 11.4939 13.4664 10.6792 13.8011C10.367 13.9293 10.0251 14 9.66667 14C8.19391 14 7 12.8061 7 11.3333C7 11.1688 7.01489 11.0078 7.0434 10.8516C7.1554 10.2378 7.2114 9.93088 7.18505 9.8259C7.1587 9.72091 6.96551 9.47821 6.57912 8.9928C6.21661 8.53738 6 7.96065 6 7.33333C6 5.86057 7.19391 4.66667 8.66667 4.66667C8.81458 4.66667 8.88854 4.66667 8.89617 4.66643C9.20565 4.65698 9.27723 4.60118 9.36186 4.30334C9.36395 4.296 9.38183 4.2249 9.41759 4.0827C9.71199 2.91191 10.7561 2 12 2Z" stroke="currentColor" stroke-linejoin="round" stroke-width="1.5" /><path d="M12 10C12.8284 10 13.5 9.32843 13.5 8.5C13.5 7.67157 12.8284 7 12 7C11.1716 7 10.5 7.67157 10.5 8.5C10.5 9.32843 11.1716 10 12 10Z" stroke="currentColor" stroke-linecap="round" stroke-linejoin="round" stroke-width="1.5" /><path d="M12 14V22" stroke="currentColor" stroke-linecap="round" stroke-linejoin="round" stroke-width="1.5" /><path d="M18.6127 18.9478C17.9029 20.5445 16.2557 21.5149 13.9938 21.8588C13.0843 21.997 12.6295 22.0661 12.2701 21.595C11.9107 21.1238 12.0693 20.7668 12.3867 20.0528C13.0965 18.456 14.7436 17.4856 17.0056 17.1418C17.9151 17.0035 18.3698 16.9344 18.7293 17.4056C19.0887 17.8768 18.93 18.2338 18.6127 18.9478Z" stroke="currentColor" stroke-linecap="round" stroke-linejoin="round" stroke-width="1.5" /><path d="M5.38673 18.9478C6.09648 20.5445 7.74364 21.5149 10.0056 21.8588C10.9151 21.997 11.3698 22.0661 11.7293 21.595C12.0887 21.1238 11.93 20.7668 11.6127 20.0528C10.9029 18.456 9.25574 17.4856 6.9938 17.1418C6.0843 17.0035 5.62955 16.9344 5.2701 17.4056C4.91065 17.8768 5.06935 18.2338 5.38673 18.9478Z" stroke="currentColor" stroke-linecap="round" stroke-linejoin="round" stroke-width="1.5" /></svg>