<svg xmlns="http://www.w3.org/2000/svg" width="24" height="24" viewBox="0 0 24 24" fill="none" stroke-width="1.5" stroke-linecap="round" stroke-linejoin="round" color="currentColor"><path d="M14.5 12.5C14.5 13.8807 13.3807 15 12 15C10.6193 15 9.5 13.8807 9.5 12.5C9.5 11.1193 10.6193 10 12 10C13.3807 10 14.5 11.1193 14.5 12.5Z" stroke="currentColor"></path><path d="M12 3C14.2091 3 15.998 4.91739 15.998 7.12653C16.3182 7.04393 16.654 7 17 7C19.2091 7 21 8.79086 21 11C21 12.5964 20.0648 13.9745 18.7123 14.616C19.2072 15.2818 19.5 16.1067 19.5 17C19.5 19.2091 17.7091 21 15.5 21C13.994 21 12.6824 20.1677 12 18.938C11.3176 20.1677 10.006 21 8.5 21C6.29086 21 4.5 19.2091 4.5 17C4.5 16.1067 4.79283 15.2818 5.28773 14.616C3.93525 13.9745 3 12.5964 3 11C3 8.79086 4.79086 7 7 7C7.34601 7 7.68175 7.04393 8.00196 7.12652C8.00196 4.91738 9.79086 3 12 3Z" stroke="currentColor"></path></svg>