<svg xmlns="http://www.w3.org/2000/svg" width="24" height="24" viewBox="0 0 24 24" fill="none" stroke-width="1.5" stroke-linecap="round" stroke-linejoin="round" color="currentColor"><path d="M9.13432 2.5C6.46805 2.56075 4.9107 2.81456 3.84664 3.87493C2.91537 4.80297 2.60406 6.10756 2.5 8.2M14.8657 2.5C17.532 2.56075 19.0893 2.81456 20.1534 3.87493C21.0846 4.80297 21.3959 6.10756 21.5 8.2M14.8657 21.5C17.532 21.4392 19.0893 21.1854 20.1534 20.1251C21.0846 19.197 21.3959 17.8924 21.5 15.8M9.13432 21.5C6.46805 21.4392 4.9107 21.1854 3.84664 20.1251C2.91537 19.197 2.60406 17.8924 2.5 15.8" stroke="currentColor"></path><path d="M11.5 7L12.5 7M11.5 12H12.5M11.5 17H12.5M5 12H6M18 12H19" stroke="currentColor"></path></svg>