<svg xmlns="http://www.w3.org/2000/svg" width="24" height="24" viewBox="0 0 24 24" fill="none"><path d="M8 6.5H16.75C18.8567 6.5 19.91 6.5 20.6667 7.00559C20.9943 7.22447 21.2755 7.50572 21.4944 7.83329C21.9361 8.4943 21.9919 9.38172 21.999 11M12 6.5L11.3666 5.23313C10.8418 4.18358 10.3622 3.12712 9.19926 2.69101C8.6899 2.5 8.10802 2.5 6.94427 2.5C5.1278 2.5 4.21956 2.5 3.53806 2.88032C3.05227 3.15142 2.65142 3.55227 2.38032 4.03806C2 4.71956 2 5.6278 2 7.44427V10.5C2 15.214 2 17.5711 3.46447 19.0355C4.8215 20.3926 6.94493 20.4921 11 20.4994" stroke="currentColor" stroke-linecap="round" stroke-linejoin="round" stroke-width="1.5" /><path d="M20.5 17.5C20.5 18.8807 19.3807 20 18 20M20.5 17.5C20.5 16.1193 19.3807 15 18 15M20.5 17.5H22M18 20C16.6193 20 15.5 18.8807 15.5 17.5M18 20V21.5M15.5 17.5C15.5 16.1193 16.6193 15 18 15M15.5 17.5H14M18 15V13.5M19.7678 15.7322L20.8284 14.6716M16.2322 19.2678L15.1716 20.3284M19.7678 19.2678L20.8284 20.3284M16.2322 15.7322L15.1716 14.6716" stroke="currentColor" stroke-linecap="round" stroke-linejoin="round" stroke-width="1.5" /></svg>