<svg xmlns="http://www.w3.org/2000/svg" width="24" height="24" viewBox="0 0 24 24" fill="none"><path d="M8 7H12M12 7H16.75C18.8567 7 19.91 7 20.6667 7.50559C20.9943 7.72447 21.2755 8.00572 21.4944 8.33329C22 9.08996 22 10.1433 22 12.25C22 15.7612 22 17.5167 21.1573 18.7779C20.7926 19.3238 20.3238 19.7926 19.7779 20.1573C18.5167 21 16.7612 21 13.25 21H12C7.28595 21 4.92893 21 3.46447 19.5355C2.93416 19.0052 2.64986 18.2157 2.50661 17.3979C2.27647 16.0841 2.16139 15.4271 2.76083 14.7136C3.36026 14 4.21042 14 5.91073 14L11 14M12 7L11.3666 5.73313C10.8418 4.68358 10.3622 3.62712 9.19926 3.19101C8.6899 3 8.10802 3 6.94427 3C5.1278 3 4.21956 3 3.53806 3.38032C3.05227 3.65142 2.65142 4.05227 2.38032 4.53806C2 5.21956 2 6.1278 2 7.94427L2.02008 10M9.00002 17C9.00002 17 12 14.7905 12 14C12 13.2094 9 11 9 11" stroke="currentColor" stroke-linecap="round" stroke-linejoin="round" stroke-width="1.5" /></svg>