<svg xmlns="http://www.w3.org/2000/svg" width="24" height="24" viewBox="0 0 24 24" fill="none"><path d="M12 7V5.33333C12 4.55608 12 4.16746 12.1405 3.86607C12.2896 3.54646 12.5465 3.28958 12.8661 3.14054C13.1675 3 13.5561 3 14.3333 3C14.7406 3 14.9443 3 15.1321 3.04949C15.3321 3.10217 15.519 3.19563 15.6811 3.324C15.8334 3.44459 15.9556 3.6075 16.2 3.93333L17 5H18.5C19.4346 5 19.9019 5 20.25 5.20096C20.478 5.33261 20.6674 5.52197 20.799 5.75C21 6.09808 21 6.56538 21 7.5C21 8.43462 21 8.90192 20.799 9.25C20.6674 9.47803 20.478 9.66739 20.25 9.79904C19.9019 10 19.4346 10 18.5 10H15C13.5858 10 12.8787 10 12.4393 9.56066C12 9.12132 12 8.41421 12 7Z" stroke="currentColor" stroke-linecap="round" stroke-linejoin="round" stroke-width="1.5" /><path d="M12 18V16.3333C12 15.5561 12 15.1675 12.1405 14.8661C12.2896 14.5465 12.5465 14.2896 12.8661 14.1405C13.1675 14 13.5561 14 14.3333 14C14.7406 14 14.9443 14 15.1321 14.0495C15.3321 14.1022 15.519 14.1956 15.6811 14.324C15.8334 14.4446 15.9556 14.6075 16.2 14.9333L17 16H18.5C19.4346 16 19.9019 16 20.25 16.201C20.478 16.3326 20.6674 16.522 20.799 16.75C21 17.0981 21 17.5654 21 18.5C21 19.4346 21 19.9019 20.799 20.25C20.6674 20.478 20.478 20.6674 20.25 20.799C19.9019 21 19.4346 21 18.5 21H15C13.5858 21 12.8787 21 12.4393 20.5607C12 20.1213 12 19.4142 12 18Z" stroke="currentColor" stroke-linecap="round" stroke-linejoin="round" stroke-width="1.5" /><path d="M8 7H7C6.07003 7 5.60504 7 5.22354 6.89778C4.18827 6.62038 3.37962 5.81173 3.10222 4.77646C3 4.39496 3 3.92997 3 3" stroke="currentColor" stroke-linecap="round" stroke-linejoin="round" stroke-width="1.5" /><path d="M3 3V13C3 14.8692 3 15.8038 3.40192 16.5C3.66523 16.9561 4.04394 17.3348 4.5 17.5981C5.19615 18 6.13077 18 8 18" stroke="currentColor" stroke-linecap="round" stroke-linejoin="round" stroke-width="1.5" /></svg>