<svg xmlns="http://www.w3.org/2000/svg" width="24" height="24" viewBox="0 0 24 24" fill="none"><path d="M8 6.50116H16.75C18.8567 6.50116 19.91 6.50116 20.6667 7.0069C20.9943 7.22584 21.2755 7.50717 21.4944 7.83484C22 8.59173 22 9.64538 22 11.7527C22 12.0122 22 12.2621 21.9997 12.5029M12 6.50116L11.3666 5.23392C10.8418 4.18406 10.3622 3.1273 9.19926 2.69106C8.6899 2.5 8.10802 2.5 6.94427 2.5C5.1278 2.5 4.21956 2.5 3.53806 2.88043C3.05227 3.15161 2.65142 3.55257 2.38032 4.03851C2 4.72021 2 5.62871 2 7.44571V10.5023C2 15.2177 2 17.5754 3.46447 19.0403C4.70529 20.2815 6.58687 20.4711 10 20.5" stroke="currentColor" stroke-linecap="round" stroke-linejoin="round" stroke-width="1.5" /><circle cx="14" cy="12.5" r="2" stroke="currentColor" stroke-linecap="round" stroke-linejoin="round" stroke-width="1.5" /><circle cx="20" cy="18.5" r="2" stroke="currentColor" stroke-linecap="round" stroke-linejoin="round" stroke-width="1.5" /><path d="M18 18.5C15.7909 18.5 14 16.7091 14 14.5" stroke="currentColor" stroke-linecap="round" stroke-linejoin="round" stroke-width="1.5" /><path d="M14 14.5V21.5" stroke="currentColor" stroke-linecap="round" stroke-linejoin="round" stroke-width="1.5" /></svg>