<svg xmlns="http://www.w3.org/2000/svg" width="24" height="24" viewBox="0 0 24 24" fill="none"><circle cx="17" cy="16.5" r="5" stroke="currentColor" stroke-linecap="round" stroke-linejoin="round" stroke-width="1.5" /><path d="M17 14.5V16.5L18.5 17" stroke="currentColor" stroke-linecap="round" stroke-linejoin="round" stroke-width="1.5" /><path d="M8.01332 6.50447H16.7827C18.8941 6.50447 19.9498 6.50447 20.7081 7.01062C21.0364 7.22974 21.3183 7.51131 21.5377 7.83925C21.8193 8.26031 21.9444 8.77313 22 9.50782M12.0222 6.50447L11.3874 5.23618C10.8614 4.18546 10.3808 3.12782 9.21524 2.69122C8.70475 2.5 8.12158 2.5 6.95525 2.5C5.13474 2.5 4.22449 2.5 3.54148 2.88074C3.0546 3.15215 2.65287 3.55344 2.38116 4.03978C2 4.72204 2 5.63129 2 7.44979V10.5089C2 15.2282 2 17.5879 3.46772 19.054C4.58412 20.1692 6.21809 20.4361 9.01554 20.5" stroke="currentColor" stroke-linecap="round" stroke-linejoin="round" stroke-width="1.5" /></svg>