<svg xmlns="http://www.w3.org/2000/svg" width="24" height="24" viewBox="0 0 24 24" fill="none"><path d="M8 7H16.75C18.8567 7 19.91 7 20.6667 7.50559C20.9943 7.72447 21.2755 8.00572 21.4944 8.33329C22 9.08996 22 10.1433 22 12.25C22 15.7612 22 17.5167 21.1573 18.7779C20.7926 19.3238 20.3238 19.7926 19.7779 20.1573C18.5167 21 16.7612 21 13.25 21H12C8.65343 21 6.49475 21 5 20.476M12 7L11.3666 5.73313C10.8418 4.68358 10.3622 3.62712 9.19926 3.19101C8.6899 3 8.10802 3 6.94427 3C5.1278 3 4.21956 3 3.53806 3.38032C3.05227 3.65142 2.65142 4.05227 2.38032 4.53806C2 5.21956 2 6.1278 2 7.94427" stroke="currentColor" stroke-linecap="round" stroke-linejoin="round" stroke-width="1.5" /><path d="M4.99998 17C4.99998 17 2.00001 14.7905 2 14C1.99999 13.2094 5 11 5 11M3 14L12 14" stroke="currentColor" stroke-linecap="round" stroke-linejoin="round" stroke-width="1.5" /></svg>