<svg xmlns="http://www.w3.org/2000/svg" width="24" height="24" viewBox="0 0 24 24" fill="none"><path d="M12 20.5C7.28595 20.5 4.92893 20.5 3.46447 19.0355C2 17.5711 2 15.214 2 10.5V7.44427C2 5.6278 2 4.71956 2.38032 4.03806C2.65142 3.55227 3.05227 3.15142 3.53806 2.88032C4.21956 2.5 5.1278 2.5 6.94427 2.5C8.10802 2.5 8.6899 2.5 9.19926 2.69101C10.3622 3.12712 10.8418 4.18358 11.3666 5.23313L12 6.5M8 6.5H16.75C18.8567 6.5 19.91 6.5 20.6667 7.00559C20.9943 7.22447 21.2755 7.50572 21.4944 7.83329C21.9796 8.55942 21.9992 9.55876 22 11.5" stroke="currentColor" stroke-linecap="round" stroke-linejoin="round" stroke-width="1.5" /><path d="M17.3643 21.2808C16.2358 20.4121 14 18.4261 14 16.6389C14 15.4576 14.8421 14.5 16 14.5C16.6 14.5 17.2 14.7059 18 15.5294C18.8 14.7059 19.4 14.5 20 14.5C21.1579 14.5 22 15.4576 22 16.6389C22 18.4261 19.7642 20.4121 18.6357 21.2808C18.256 21.5731 17.744 21.5731 17.3643 21.2808Z" stroke="currentColor" stroke-linecap="round" stroke-linejoin="round" stroke-width="1.5" /></svg>