<svg xmlns="http://www.w3.org/2000/svg" width="24" height="24" viewBox="0 0 24 24" fill="none"><path d="M15.5 17H20M17.0192 6C19.5072 6 21 8 21 11C21 12.5022 20.7401 13.9522 20.4642 15.0312C20.2122 16.017 20.0362 17.0241 19.965 18.0394C19.8371 19.8655 19.2971 22 17.0192 22C14.6308 22 14.5312 19 15.5264 16.5C16.1931 14 14.0336 12.4 14.0336 10C13.8678 8.66667 14.2327 6 17.0192 6Z" stroke="currentColor" stroke-width="1.5" /><path d="M8.5 13H4M6.98077 2C4.49279 2 3 4 3 7C3 8.50224 3.25994 9.95224 3.53576 11.0312C3.78776 12.017 3.9638 13.0241 4.03495 14.0394C4.16293 15.8655 4.70287 18 6.98077 18C9.36923 18 9.46875 15 8.47355 12.5C7.8069 10 9.96637 8.4 9.96637 6C10.1322 4.66667 9.76728 2 6.98077 2Z" stroke="currentColor" stroke-width="1.5" /></svg>