<svg xmlns="http://www.w3.org/2000/svg" width="24" height="24" viewBox="0 0 24 24" fill="none" stroke-width="1.5" stroke-linecap="round" stroke-linejoin="round" color="currentColor"><path d="M15.395 21.9009C13.9836 21.966 12.5498 22 10.9709 22C9.39194 22 7.95815 21.966 6.5467 21.9009C4.8693 21.8235 3.4909 20.515 3.26684 18.8447C3.12061 17.7547 3 16.6376 3 15.5C3 14.3624 3.1206 13.2453 3.26684 12.1553C3.4909 10.485 4.8693 9.17649 6.5467 9.09909C7.95815 9.03397 9.39194 9 10.9709 9C12.5498 9 13.9836 9.03397 15.395 9.09909C16.4545 9.14798 17.3946 9.68796 18 10.5" stroke="currentColor"></path><path d="M17 14.978C17 13.8856 17.8954 13 19 13C20.1046 13 21 13.8856 21 14.978C21 15.3718 20.8837 15.7387 20.6831 16.0469C20.0854 16.9656 19 17.8416 19 18.9341V19.4286M19 22H19.012" stroke="currentColor"></path><path d="M6.5 9V6.5C6.5 4.01472 8.51472 2 11 2C13.4853 2 15.5 4.01472 15.5 6.5V9" stroke="currentColor"></path><path d="M12 15.49V15.5" stroke="currentColor"></path><path d="M8 15.49V15.5" stroke="currentColor"></path></svg>