<svg xmlns="http://www.w3.org/2000/svg" width="24" height="24" viewBox="0 0 24 24" fill="none"><path d="M18 8H6C5.53501 8 5.30252 8 5.11177 8.05111C4.59413 8.18981 4.18981 8.59413 4.05111 9.11177C4 9.30252 4 9.53501 4 10C4 10.465 4 10.6975 4.05111 10.8882C4.18981 11.4059 4.59413 11.8102 5.11177 11.9489C5.30252 12 5.53501 12 6 12H18C18.465 12 18.6975 12 18.8882 11.9489C19.4059 11.8102 19.8102 11.4059 19.9489 10.8882C20 10.6975 20 10.465 20 10C20 9.53501 20 9.30252 19.9489 9.11177C19.8102 8.59413 19.4059 8.18981 18.8882 8.05111C18.6975 8 18.465 8 18 8Z" stroke="currentColor" stroke-linecap="round" stroke-linejoin="round" stroke-width="1.5" /><path d="M4 4H14" stroke="currentColor" stroke-linecap="round" stroke-linejoin="round" stroke-width="1.5" /><path d="M4 16H10" stroke="currentColor" stroke-linecap="round" stroke-linejoin="round" stroke-width="1.5" /><path d="M4 20H20" stroke="currentColor" stroke-linecap="round" stroke-linejoin="round" stroke-width="1.5" /></svg>