<svg xmlns="http://www.w3.org/2000/svg" width="24" height="24" viewBox="0 0 24 24" fill="none"><circle cx="12" cy="12" r="10" stroke="currentColor" stroke-linecap="round" stroke-linejoin="round" stroke-width="1.5" /><path d="M8 16C8.91212 14.7856 10.3643 14 12 14C13.6357 14 15.0879 14.7856 16 16" stroke="currentColor" stroke-linecap="round" stroke-linejoin="round" stroke-width="1.5" /><path d="M15.625 8.387V8.91649M8.375 8.387V8.91649M8.75 8.75C8.75 8.33579 8.58211 8 8.375 8C8.16789 8 8 8.33579 8 8.75C8 9.16421 8.16789 9.5 8.375 9.5C8.58211 9.5 8.75 9.16421 8.75 8.75ZM16 8.75C16 8.33579 15.8321 8 15.625 8C15.4179 8 15.25 8.33579 15.25 8.75C15.25 9.16421 15.4179 9.5 15.625 9.5C15.8321 9.5 16 9.16421 16 8.75Z" stroke="currentColor" stroke-linecap="round" stroke-linejoin="round" stroke-width="1.5" /></svg>