<svg xmlns="http://www.w3.org/2000/svg" width="24" height="24" viewBox="0 0 24 24" fill="none" stroke-width="1.5" stroke-linecap="round" stroke-linejoin="round" color="currentColor"><path d="M15.4922 21.9905C15.0822 21.9905 14.7422 21.6505 14.7422 21.2405C14.7422 20.8305 15.0822 20.4905 15.4922 20.4905C16.8122 20.4905 17.4722 20.4906 17.9422 20.3506C18.9822 20.0306 19.7922 19.2204 20.1122 18.1804C20.2522 17.7204 20.2522 17.0605 20.2522 15.7405C20.2522 15.3305 20.5922 14.9905 21.0022 14.9905C21.4122 14.9905 21.7522 15.3305 21.7522 15.7405C21.7522 17.2005 21.7522 17.9406 21.5522 18.6106C21.0822 20.1406 19.9022 21.3205 18.3822 21.7805C17.7022 21.9805 16.9622 21.9805 15.5022 21.9805L15.4922 21.9905ZM8.49219 21.9905C7.03219 21.9905 6.29219 21.9905 5.62219 21.7905C4.09219 21.3205 2.91221 20.1404 2.45221 18.6204C2.25221 17.9404 2.2522 17.2005 2.2522 15.7405C2.2522 15.3305 2.5922 14.9905 3.0022 14.9905C3.4122 14.9905 3.7522 15.3305 3.7522 15.7405C3.7522 17.0605 3.75221 17.7204 3.89221 18.1904C4.21221 19.2304 5.02219 20.0406 6.06219 20.3606C6.52219 20.5006 7.1822 20.5005 8.5022 20.5005C8.9122 20.5005 9.2522 20.8405 9.2522 21.2505C9.2522 21.6605 8.9122 22.0005 8.5022 22.0005L8.49219 21.9905ZM20.9922 9.49048C20.5822 9.49048 20.2422 9.15048 20.2422 8.74048C20.2422 7.42048 20.2422 6.76053 20.1022 6.29053C19.7822 5.25053 18.9722 4.44036 17.9322 4.12036C17.4722 3.98036 16.8122 3.98047 15.4922 3.98047C15.0822 3.98047 14.7422 3.64047 14.7422 3.23047C14.7422 2.82047 15.0822 2.48047 15.4922 2.48047C16.9522 2.48047 17.6922 2.48042 18.3622 2.68042C19.8922 3.15042 21.0722 4.33059 21.5322 5.85059C21.7322 6.53059 21.7322 7.27047 21.7322 8.73047C21.7322 9.14047 21.3922 9.48047 20.9822 9.48047L20.9922 9.49048ZM2.99219 9.49048C2.58219 9.49048 2.24219 9.15048 2.24219 8.74048C2.24219 7.28048 2.2422 6.54036 2.4422 5.87036C2.9122 4.34036 4.09218 3.16044 5.61218 2.70044C6.29218 2.50044 7.03219 2.50049 8.49219 2.50049C8.90219 2.50049 9.24219 2.84049 9.24219 3.25049C9.24219 3.66049 8.90219 4.00049 8.49219 4.00049C7.17219 4.00049 6.51218 4.00038 6.04218 4.14038C5.00218 4.46038 4.19219 5.27055 3.87219 6.31055C3.73219 6.77055 3.73218 7.43049 3.73218 8.75049C3.73218 9.16049 3.39218 9.50049 2.98218 9.50049L2.99219 9.49048Z" fill="currentColor"></path></svg>