<svg xmlns="http://www.w3.org/2000/svg" width="24" height="24" viewBox="0 0 24 24" fill="none" stroke-width="1.5" stroke-linecap="round" stroke-linejoin="round" color="currentColor"><path d="M18.7422 19.75C18.2122 19.75 17.8922 19.75 17.5622 19.61C17.1422 19.44 16.8022 19.1 16.6222 18.66C16.4922 18.35 16.4922 18.05 16.4922 17.5V6.5C16.4922 5.95 16.4922 5.65 16.6322 5.33C16.8022 4.9 17.1422 4.57 17.5822 4.39C17.8922 4.25 18.2122 4.25 18.7522 4.25C19.2922 4.25 19.6022 4.25 19.9322 4.39C20.3522 4.56 20.6922 4.9 20.8722 5.34C21.0022 5.65 21.0022 5.95 21.0022 6.5V17.5C21.0022 18.05 21.0022 18.35 20.8622 18.67C20.6922 19.1 20.3522 19.43 19.9122 19.61C19.6022 19.75 19.2822 19.75 18.7422 19.75ZM18.7422 5.75C18.4822 5.75 18.2222 5.75 18.1522 5.77C18.0822 5.8 18.0422 5.84 18.0122 5.9C17.9922 5.97 17.9922 6.24 17.9922 6.5V17.5C17.9922 17.76 17.9922 18.03 18.0122 18.1C18.0422 18.16 18.0822 18.2 18.1422 18.23C18.3022 18.28 19.2022 18.27 19.3322 18.23C19.4022 18.2 19.4422 18.16 19.4722 18.1C19.4922 18.03 19.4922 17.76 19.4922 17.5V6.5C19.4922 6.24 19.4922 5.97 19.4722 5.9C19.4422 5.84 19.4022 5.8 19.3422 5.77C19.2622 5.75 19.0022 5.75 18.7422 5.75ZM12.2422 19.75C11.7122 19.75 11.3922 19.75 11.0622 19.61C10.6422 19.44 10.3022 19.1 10.1222 18.66C9.99219 18.35 9.99219 18.05 9.99219 17.5V9.5C9.99219 8.95 9.99219 8.65 10.1322 8.33C10.3022 7.9 10.6422 7.57 11.0822 7.39C11.3922 7.25 11.7122 7.25 12.2522 7.25C12.7922 7.25 13.1022 7.25 13.4322 7.39C13.8522 7.56 14.1922 7.9 14.3722 8.34C14.5022 8.65 14.5022 8.95 14.5022 9.5V17.5C14.5022 18.05 14.5022 18.35 14.3622 18.67C14.1922 19.1 13.8522 19.43 13.4122 19.61C13.1022 19.75 12.7822 19.75 12.2422 19.75ZM12.2422 8.75C11.9822 8.75 11.7222 8.75 11.6522 8.77C11.5822 8.8 11.5422 8.84 11.5122 8.9C11.4922 8.97 11.4922 9.24 11.4922 9.5V17.5C11.4922 17.76 11.4922 18.03 11.5122 18.1C11.5422 18.16 11.5822 18.2 11.6422 18.23C11.8022 18.28 12.7022 18.27 12.8322 18.23C12.9022 18.2 12.9422 18.16 12.9722 18.1C12.9922 18.03 12.9922 17.76 12.9922 17.5V9.5C12.9922 9.24 12.9922 8.97 12.9722 8.9C12.9422 8.84 12.9022 8.8 12.8422 8.77C12.7622 8.75 12.5022 8.75 12.2422 8.75ZM4.56219 19.61C4.89219 19.75 5.21219 19.75 5.74219 19.75C6.28219 19.75 6.60219 19.75 6.91219 19.61C7.35219 19.43 7.69219 19.1 7.86219 18.67C8.00219 18.35 8.00219 18.05 8.00219 17.5V13.5C8.00219 12.95 8.00219 12.65 7.87219 12.34C7.69219 11.9 7.35219 11.56 6.93219 11.39C6.60219 11.25 6.29219 11.25 5.75219 11.25C5.21219 11.25 4.89219 11.25 4.58219 11.39C4.14219 11.57 3.80219 11.9 3.63219 12.33C3.49219 12.65 3.49219 12.95 3.49219 13.5V17.5C3.49219 18.05 3.49219 18.35 3.62219 18.66C3.80219 19.1 4.14219 19.44 4.56219 19.61ZM5.15219 12.77C5.22219 12.75 5.48219 12.75 5.74219 12.75C6.00219 12.75 6.26219 12.75 6.34219 12.77C6.40219 12.8 6.44219 12.84 6.47219 12.9C6.49219 12.97 6.49219 13.24 6.49219 13.5V17.5C6.49219 17.76 6.49219 18.03 6.47219 18.1C6.44219 18.16 6.40219 18.2 6.33219 18.23C6.20219 18.27 5.30219 18.28 5.14219 18.23C5.08219 18.2 5.04219 18.16 5.01219 18.1C4.99219 18.03 4.99219 17.76 4.99219 17.5V13.5C4.99219 13.24 4.99219 12.97 5.01219 12.9C5.04219 12.84 5.08219 12.8 5.15219 12.77Z" fill="currentColor" fill-rule="evenodd"></path></svg>