<svg xmlns="http://www.w3.org/2000/svg" width="24" height="24" viewBox="0 0 24 24" fill="none"><path d="M14.9852 12.1565L18.9283 7.74467C20.8466 5.59831 21.8058 4.52514 21.4133 3.63757C21.0207 2.75 19.5869 2.75 16.7193 2.75H7.28068C4.41309 2.75 2.97929 2.75 2.58674 3.63757C2.19419 4.52514 3.15335 5.59831 5.07167 7.74467L9.0148 12.1565C9.26618 12.4378 9.39189 12.5784 9.45764 12.751C9.5234 12.9235 9.5234 13.1128 9.5234 13.4912V18.3704C9.5234 20.0513 9.5234 20.8917 10.0566 21.1712C10.5897 21.4507 11.2734 20.9688 12.6409 20.0049L13.6315 19.3066C14.0456 19.0147 14.2527 18.8688 14.3646 18.6522C14.4766 18.4357 14.4766 18.1812 14.4766 17.6722V13.4912C14.4766 13.1128 14.4766 12.9235 14.5424 12.751C14.6081 12.5784 14.7338 12.4378 14.9852 12.1565Z" stroke="currentColor" stroke-linecap="round" stroke-linejoin="round" stroke-width="1.5" /></svg>