<svg xmlns="http://www.w3.org/2000/svg" width="24" height="24" viewBox="0 0 24 24" fill="none"><path d="M11 15V9C11 7.13077 11 6.19615 11.4019 5.5C11.6652 5.04394 12.0439 4.66523 12.5 4.40192C13.1962 4 14.1308 4 16 4C17.8692 4 18.8038 4 19.5 4.40192C19.9561 4.66523 20.3348 5.04394 20.5981 5.5C21 6.19615 21 7.13077 21 9V15C21 16.8692 21 17.8038 20.5981 18.5C20.3348 18.9561 19.9561 19.3348 19.5 19.5981C18.8038 20 17.8692 20 16 20C14.1308 20 13.1962 20 12.5 19.5981C12.0439 19.3348 11.6652 18.9561 11.4019 18.5C11 17.8038 11 16.8692 11 15Z" stroke="currentColor" stroke-linecap="round" stroke-linejoin="round" stroke-width="1.5" /><path d="M7 6V18" stroke="currentColor" stroke-linecap="round" stroke-linejoin="round" stroke-width="1.5" /><path d="M3 8V16" stroke="currentColor" stroke-linecap="round" stroke-linejoin="round" stroke-width="1.5" /></svg>