<svg xmlns="http://www.w3.org/2000/svg" width="24" height="24" viewBox="0 0 24 24" fill="none"><path d="M3.01486 18.0594C3.661 18.6865 4.44018 19 5.35238 19C5.99092 19 6.58385 18.8396 7.13117 18.5188C7.67849 18.1979 8.08898 17.7604 8.36264 17.2063C8.67356 16.6032 8.82901 16.3016 9.05447 16.0785C9.27611 15.8591 9.54597 15.6946 9.84249 15.5982C10.1441 15.5 10.4834 15.5 11.1619 15.5H12.841C13.5004 15.5 13.8301 15.5 14.1236 15.5925C14.4382 15.6917 14.7233 15.8671 14.9537 16.1032C15.1686 16.3234 15.3173 16.6177 15.6146 17.2063C15.8883 17.7604 16.2988 18.1979 16.8461 18.5188C17.3934 18.8396 17.9864 19 18.6249 19C19.5523 19 20.3467 18.6901 21.008 18.0703C21.6694 17.4505 22 16.6958 22 15.8063C22 15.675 21.9886 15.5401 21.9658 15.4016C21.943 15.263 21.9164 15.1281 21.886 14.9969L20.8403 10.983C20.0911 8.10773 19.7166 6.67008 18.6361 5.83504C17.5556 5 16.07 5 13.0987 5L10.8855 5C7.91888 5 6.43556 5 5.35584 5.83306C4.27612 6.66613 3.89982 8.10093 3.14723 10.9705L2.09126 14.9969C2.06085 15.1281 2.03805 15.2594 2.02284 15.3906C2.00764 15.5219 2.00004 15.6531 2.00004 15.7844C2.03044 16.674 2.36872 17.4323 3.01486 18.0594Z" stroke="currentColor" fill-rule="evenodd" clip-rule="evenodd" stroke-width="1.5" /><path d="M8.495 8.50781V12.5078M10.5 10.5028L6.5 10.5028" stroke="currentColor" stroke-linecap="round" stroke-linejoin="round" stroke-width="1.5" /><path d="M16.75 9.125V9.25M17 9.25C17 9.38807 16.8881 9.5 16.75 9.5C16.6119 9.5 16.5 9.38807 16.5 9.25C16.5 9.11193 16.6119 9 16.75 9C16.8881 9 17 9.11193 17 9.25Z" stroke="currentColor" stroke-linecap="round" stroke-linejoin="round" stroke-width="1.5" /><path d="M14.25 11.625V11.75M14.5 11.75C14.5 11.8881 14.3881 12 14.25 12C14.1119 12 14 11.8881 14 11.75C14 11.6119 14.1119 11.5 14.25 11.5C14.3881 11.5 14.5 11.6119 14.5 11.75Z" stroke="currentColor" stroke-linecap="round" stroke-linejoin="round" stroke-width="1.5" /></svg>