<svg xmlns="http://www.w3.org/2000/svg" width="24" height="24" viewBox="0 0 24 24" fill="none"><path d="M9.50002 6.08579V5.5C9.50002 4.56538 9.50002 4.09808 9.70098 3.75C9.83263 3.52197 10.022 3.33261 10.25 3.20096C10.5981 3 11.0654 3 12 3C12.9346 3 13.4019 3 13.75 3.20096C13.978 3.33261 14.1674 3.52197 14.2991 3.75C14.5 4.09808 14.5 4.56538 14.5 5.5V6.08579C14.5 6.351 14.3947 6.60536 14.2071 6.79289L12.8536 8.14645C12.6272 8.37282 12.3202 8.5 12 8.5C11.6799 8.5 11.3728 8.37282 11.1465 8.14645L9.79291 6.79289C9.60537 6.60536 9.50002 6.351 9.50002 6.08579Z" stroke="currentColor" stroke-linecap="round" stroke-linejoin="round" stroke-width="1.5" /><path d="M9.50002 17.9145V18.5002C9.50002 19.4349 9.50002 19.9022 9.70098 20.2502C9.83263 20.4783 10.022 20.6676 10.25 20.7993C10.5981 21.0002 11.0654 21.0002 12 21.0002C12.9346 21.0002 13.4019 21.0002 13.75 20.7993C13.978 20.6676 14.1674 20.4783 14.2991 20.2502C14.5 19.9022 14.5 19.4349 14.5 18.5002V17.9145C14.5 17.6492 14.3947 17.3949 14.2071 17.2074L12.8536 15.8538C12.6272 15.6274 12.3202 15.5002 12 15.5002C11.6799 15.5002 11.3728 15.6274 11.1465 15.8538L9.79291 17.2074C9.60537 17.3949 9.50002 17.6492 9.50002 17.9145Z" stroke="currentColor" stroke-linecap="round" stroke-linejoin="round" stroke-width="1.5" /><path d="M17.9142 9.5L18.5 9.5C19.4346 9.5 19.9019 9.5 20.25 9.70096C20.478 9.83261 20.6674 10.022 20.7991 10.25C21 10.5981 21 11.0654 21 12C21 12.9346 21 13.4019 20.7991 13.75C20.6674 13.978 20.478 14.1674 20.25 14.299C19.9019 14.5 19.4346 14.5 18.5 14.5H17.9142C17.649 14.5 17.3947 14.3946 17.2071 14.2071L15.8536 12.8536C15.6272 12.6272 15.5 12.3201 15.5 12C15.5 11.6799 15.6272 11.3728 15.8536 11.1464L17.2071 9.79289C17.3947 9.60536 17.649 9.5 17.9142 9.5Z" stroke="currentColor" stroke-linecap="round" stroke-linejoin="round" stroke-width="1.5" /><path d="M6.0858 9.5L5.50002 9.5C4.5654 9.5 4.09809 9.5 3.75002 9.70096C3.52199 9.83261 3.33263 10.022 3.20098 10.25C3.00002 10.5981 3.00002 11.0654 3.00002 12C3.00002 12.9346 3.00002 13.4019 3.20098 13.75C3.33263 13.978 3.52199 14.1674 3.75001 14.299C4.09809 14.5 4.5654 14.5 5.50002 14.5H6.0858C6.35102 14.5 6.60537 14.3946 6.79291 14.2071L8.14646 12.8536C8.37284 12.6272 8.50002 12.3201 8.50002 12C8.50002 11.6799 8.37284 11.3728 8.14646 11.1464L6.79291 9.79289C6.60537 9.60536 6.35102 9.5 6.0858 9.5Z" stroke="currentColor" stroke-linecap="round" stroke-linejoin="round" stroke-width="1.5" /></svg>