<svg xmlns="http://www.w3.org/2000/svg" width="24" height="24" viewBox="0 0 24 24" fill="none" stroke-width="1.5" stroke-linecap="round" stroke-linejoin="round" color="currentColor"><path d="M2.48044 2.67889C2.16044 2.40889 1.69046 2.44898 1.43046 2.76898C1.16046 3.08898 1.20048 3.55903 1.52048 3.81903C1.89048 4.12903 2.29044 4.4189 2.73044 4.6889L1.28049 9.52899C1.20049 9.80899 1.28045 10.109 1.49045 10.299C1.71045 10.499 2.01049 10.5489 2.28049 10.4489L4.24045 9.65887L5.40049 11.1989C5.57049 11.4189 5.84046 11.539 6.12046 11.489C6.40046 11.449 6.62048 11.249 6.71048 10.989L8.15049 6.65887C8.51049 6.72887 8.88046 6.77904 9.25046 6.82904V11.249C9.25046 11.529 9.41044 11.7889 9.66044 11.9189C9.92044 12.0489 10.2205 12.0191 10.4505 11.8491L12.0005 10.6889L13.5505 11.8491C13.7805 12.0191 14.0805 12.0489 14.3405 11.9189C14.5905 11.7889 14.7505 11.529 14.7505 11.249V6.82904C15.1205 6.77904 15.4904 6.72887 15.8504 6.65887L17.2904 10.989C17.3804 11.249 17.6005 11.449 17.8805 11.489C18.1605 11.539 18.4304 11.4189 18.6004 11.1989L19.7605 9.65887L21.7204 10.4489C21.9904 10.5489 22.2905 10.499 22.5105 10.299C22.7205 10.109 22.8004 9.80899 22.7204 9.52899L21.2705 4.6889C21.7105 4.4189 22.1104 4.12903 22.4804 3.81903C22.8004 3.55903 22.8405 3.08898 22.5705 2.76898C22.3105 2.44898 21.8405 2.40889 21.5205 2.67889C19.5305 4.33889 16.0505 5.49896 12.0005 5.49896C7.95046 5.49896 4.47044 4.33889 2.48044 2.67889ZM19.9204 5.40887C19.1204 5.77887 18.2505 6.08904 17.3205 6.32904L18.2605 9.15887L18.9005 8.29901C19.1005 8.02901 19.4605 7.92901 19.7805 8.04901L20.8405 8.47894L19.9204 5.40887ZM3.17045 8.47894L4.08048 5.40887C4.88048 5.77887 5.75046 6.08904 6.68046 6.32904L5.74045 9.15887L5.10044 8.29901C4.90044 8.02901 4.54043 7.92901 4.22043 8.04901L3.17045 8.47894ZM13.2505 6.96893C12.8405 6.98893 12.4205 6.99896 12.0005 6.99896C11.5805 6.99896 11.1605 6.98893 10.7505 6.96893V9.74896L11.5505 9.14911C11.8205 8.94911 12.1805 8.94911 12.4505 9.14911L13.2505 9.74896V6.96893ZM1.43046 12.769C1.69046 12.449 2.16044 12.4089 2.48044 12.6789C4.47044 14.3389 7.95046 15.499 12.0005 15.499C16.0505 15.499 19.5305 14.3389 21.5205 12.6789C21.8405 12.4089 22.3105 12.449 22.5705 12.769C22.8405 13.089 22.8004 13.559 22.4804 13.819C22.1104 14.129 21.7105 14.4189 21.2705 14.6889L22.7204 19.529C22.8004 19.809 22.7205 20.109 22.5105 20.299C22.2905 20.499 21.9904 20.5489 21.7204 20.4489L19.7605 19.6589L18.6004 21.1989C18.4304 21.4189 18.1605 21.539 17.8805 21.489C17.6005 21.449 17.3804 21.249 17.2904 20.989L15.8504 16.6589C15.4904 16.7289 15.1205 16.779 14.7505 16.829V21.249C14.7505 21.529 14.5905 21.7889 14.3405 21.9189C14.0805 22.0489 13.7805 22.0191 13.5505 21.8491L12.0005 20.6889L10.4505 21.8491C10.2205 22.0191 9.92044 22.0489 9.66044 21.9189C9.41044 21.7889 9.25046 21.529 9.25046 21.249V16.829C8.88046 16.779 8.51049 16.7289 8.15049 16.6589L6.71048 20.989C6.62048 21.249 6.40046 21.449 6.12046 21.489C5.84046 21.539 5.57049 21.4189 5.40049 21.1989L4.24045 19.6589L2.28049 20.4489C2.01049 20.5489 1.71045 20.499 1.49045 20.299C1.28045 20.109 1.20049 19.809 1.28049 19.529L2.73044 14.6889C2.29044 14.4189 1.89048 14.129 1.52048 13.819C1.20048 13.559 1.16046 13.089 1.43046 12.769ZM17.3205 16.329L18.2605 19.1589L18.9005 18.299C19.1005 18.029 19.4605 17.929 19.7805 18.049L20.8405 18.4789L19.9204 15.4089C19.1204 15.7789 18.2505 16.089 17.3205 16.329ZM4.08048 15.4089C4.88048 15.7789 5.75046 16.089 6.68046 16.329L5.74045 19.1589L5.10044 18.299C4.90044 18.029 4.54043 17.929 4.22043 18.049L3.17045 18.4789L4.08048 15.4089ZM10.7505 16.9689V19.749L11.5505 19.1491C11.8205 18.9491 12.1805 18.9491 12.4505 19.1491L13.2505 19.749V16.9689C12.8405 16.9889 12.4205 16.999 12.0005 16.999C11.5805 16.999 11.1605 16.9889 10.7505 16.9689Z" fill="currentColor" fill-rule="evenodd"></path></svg>