<svg xmlns="http://www.w3.org/2000/svg" width="24" height="24" viewBox="0 0 24 24" fill="none"><path d="M11.4021 2.66163L7.42723 6.63669C6.87842 7.18553 6.87842 8.07538 7.42723 8.62422C7.97605 9.17306 8.86585 9.17306 9.41466 8.62422L13.3895 4.64916C13.9383 4.10032 13.9383 3.21047 13.3895 2.66163C12.8407 2.11279 11.9509 2.11279 11.4021 2.66163Z" stroke="currentColor" stroke-linecap="round" stroke-linejoin="round" stroke-width="1.5" /><path d="M17.3639 16.5734L21.3387 12.5984C21.8876 12.0495 21.8876 11.1597 21.3387 10.6108C20.7899 10.062 19.9001 10.062 19.3513 10.6108L15.3765 14.5859C14.8276 15.1347 14.8276 16.0246 15.3765 16.5734C15.9253 17.1223 16.8151 17.1223 17.3639 16.5734Z" stroke="currentColor" stroke-linecap="round" stroke-linejoin="round" stroke-width="1.5" /><path d="M15.3763 14.5861L9.41406 8.6235L13.3889 4.64844L19.3512 10.611L15.3763 14.5861Z" stroke="currentColor" stroke-linecap="round" stroke-linejoin="round" stroke-width="1.5" /><path d="M11.4004 10.6094L3.03012 18.143C2.84128 18.313 2.74685 18.398 2.67724 18.478C2.13029 19.1064 2.10589 20.0345 2.61905 20.6909C2.68436 20.7744 2.7742 20.8643 2.95384 21.0439C3.13348 21.2236 3.22331 21.3134 3.30684 21.3787C3.96316 21.8919 4.89121 21.8675 5.51965 21.3205C5.59964 21.2509 5.68463 21.1565 5.85457 20.9676L13.3878 12.5969" stroke="currentColor" stroke-linecap="round" stroke-linejoin="round" stroke-width="1.5" /></svg>