<svg xmlns="http://www.w3.org/2000/svg" width="24" height="24" viewBox="0 0 24 24" fill="none" stroke-width="1.5" stroke-linecap="round" stroke-linejoin="round" color="currentColor"><path d="M7.60614 13.4844H7.89618L7.91614 13.5144C8.45614 13.5144 8.83619 13.5144 9.21619 13.2144C9.57619 12.9044 9.64619 12.4944 9.72619 12.0144L9.81616 11.4543C9.8482 11.4357 9.88096 11.417 9.91405 11.3981L9.91409 11.3981L9.91422 11.398C10.005 11.3462 10.0983 11.293 10.1862 11.2344L10.7062 11.4244C11.1362 11.5944 11.5461 11.7544 12.0461 11.5944C12.4812 11.4362 12.6816 11.102 12.947 10.6596L12.9562 10.6443L13.1562 10.3044C13.3862 9.90438 13.5862 9.5544 13.4962 9.1344C13.4162 8.6744 13.1162 8.42435 12.6962 8.08435L12.2462 7.71436V7.50439V7.29437L12.7162 6.91437L12.7295 6.90348C13.1132 6.58866 13.4169 6.33948 13.4861 5.91437C13.5856 5.45684 13.3784 5.09822 13.1203 4.65159L13.1161 4.64435L12.9562 4.37439C12.6962 3.92439 12.4862 3.57437 12.0362 3.41437C11.5962 3.26437 11.2062 3.40435 10.7262 3.58435L10.1962 3.77435C10.0764 3.69452 9.94669 3.62467 9.81696 3.55481L9.81616 3.55438L9.72619 2.99438C9.64619 2.50438 9.57618 2.09436 9.20618 1.78436C8.84619 1.48438 8.43617 1.48438 7.9162 1.48438H7.91614H7.62616H7.62609C7.09613 1.48438 6.70616 1.48438 6.32617 1.78436C5.96617 2.08436 5.89616 2.48438 5.81616 2.98438L5.71619 3.54437C5.58618 3.61437 5.45618 3.6844 5.33618 3.7644L4.80615 3.56439L4.80406 3.56362C4.31507 3.38399 3.9355 3.24456 3.48614 3.39435C3.03614 3.55435 2.82616 3.90437 2.56616 4.35437L2.37616 4.67438C2.13616 5.08438 1.93618 5.44438 2.02618 5.86438C2.10618 6.33438 2.40617 6.58438 2.82617 6.92438L3.27618 7.29437V7.49438V7.6944L2.79614 8.08435C2.40614 8.39435 2.09618 8.6444 2.02618 9.0744C1.92618 9.5344 2.12618 9.88437 2.39618 10.3544L2.56616 10.6443L2.57768 10.6634C2.83215 11.0844 3.03312 11.4169 3.49615 11.5844C3.933 11.73 4.34161 11.574 4.74937 11.4184L4.78619 11.4044L5.31616 11.2043C5.44616 11.2843 5.56617 11.3544 5.69617 11.4244L5.80615 12.0344C5.87615 12.4844 5.94618 12.8844 6.33618 13.2144C6.69618 13.4844 7.07614 13.4844 7.60614 13.4844ZM7.60614 11.9844H7.31616L7.35614 11.9644C7.35377 11.9478 7.3514 11.9301 7.3489 11.9114L7.3489 11.9113L7.34889 11.9113C7.34084 11.8511 7.33141 11.7806 7.31616 11.7043L7.14618 10.7544C7.10618 10.5044 6.93617 10.2944 6.69617 10.1944C6.42617 10.0844 6.17615 9.94439 5.92615 9.75439C5.72615 9.59439 5.45619 9.55435 5.21619 9.64435L4.30615 9.98438C4.26836 9.99517 4.21892 10.0147 4.16726 10.0351L4.16723 10.0351L4.16721 10.0351C4.1232 10.0525 4.07759 10.0706 4.03619 10.0844C3.98619 10.0144 3.93617 9.93436 3.88617 9.84436L3.69617 9.52435C3.66638 9.46478 3.63656 9.41509 3.60678 9.36544L3.60614 9.36438C3.66614 9.31438 3.72614 9.26435 3.79614 9.20435L4.56616 8.58435C4.77616 8.41435 4.88618 8.14439 4.83618 7.87439C4.80618 7.73439 4.80615 7.59436 4.80615 7.46436C4.80615 7.33436 4.81618 7.19439 4.83618 7.06439C4.87618 6.79439 4.77616 6.52437 4.56616 6.35437L3.77618 5.72437C3.75616 5.70768 3.73502 5.69099 3.71388 5.67431C3.67169 5.64101 3.6295 5.60771 3.59619 5.5744L3.62625 5.52366C3.65137 5.48101 3.68135 5.43012 3.71619 5.37439L3.87616 5.10437C3.90179 5.0531 3.93564 4.99774 3.96718 4.94616L3.96719 4.94614L3.96719 4.94614L3.96719 4.94613C3.98487 4.91723 4.00181 4.88952 4.01617 4.86438C4.06117 4.87938 4.10866 4.89687 4.15616 4.91437L4.15617 4.91437C4.20366 4.93186 4.25115 4.94936 4.29614 4.96436L5.19617 5.29437C5.42617 5.38437 5.69619 5.34439 5.90619 5.18439C6.15619 4.99439 6.40614 4.85439 6.66614 4.75439C6.90614 4.65439 7.07616 4.44439 7.12616 4.18439L7.30615 3.17438C7.31026 3.14153 7.31605 3.11205 7.32146 3.08456L7.32146 3.08455L7.32147 3.08453L7.32147 3.08453L7.32147 3.0845C7.32923 3.04506 7.33618 3.00971 7.33618 2.97437H7.62616H7.91614H8.20618C8.21193 3.0204 8.22099 3.07306 8.22955 3.12282L8.22956 3.12286L8.22956 3.12289L8.22957 3.12293L8.2296 3.12309C8.23589 3.15969 8.24192 3.19472 8.24615 3.22437L8.40619 4.17438C8.45619 4.43438 8.62616 4.64438 8.87616 4.74438C9.15616 4.85438 9.40616 5.00438 9.62616 5.17438C9.82616 5.33438 10.1062 5.37436 10.3462 5.28436L11.2462 4.95435C11.3362 4.92435 11.4462 4.88437 11.5262 4.85437L11.5507 4.89756L11.5508 4.8976C11.5858 4.95926 11.6259 5.03004 11.6661 5.09436L11.8462 5.40436C11.8862 5.47436 11.9162 5.5244 11.9462 5.5744C11.9199 5.59626 11.8918 5.61811 11.8626 5.6408L11.8625 5.64083L11.8625 5.64085C11.8249 5.67004 11.7855 5.70062 11.7462 5.73438L10.9861 6.35437C10.7861 6.51437 10.6862 6.78436 10.7162 7.03436C10.7193 7.07802 10.7234 7.12265 10.7275 7.16795L10.7275 7.168C10.7367 7.26795 10.7462 7.37116 10.7462 7.47437C10.7462 7.60851 10.7302 7.73467 10.7125 7.87428L10.7062 7.92438C10.6762 8.18438 10.7762 8.43436 10.9762 8.59436L11.7562 9.23438L11.7591 9.2368C11.8181 9.28599 11.877 9.33504 11.9261 9.37439L11.8961 9.42516L11.8961 9.42516C11.8709 9.46781 11.841 9.51868 11.8062 9.5744L11.6362 9.86438L11.6351 9.86604C11.5855 9.94548 11.5359 10.0248 11.4962 10.0944C11.3962 10.0644 11.2862 10.0244 11.2162 9.99438L10.3162 9.66437C10.0762 9.58437 9.80614 9.62435 9.60614 9.77435C9.36614 9.95435 9.11618 10.1044 8.83618 10.2144C8.59618 10.3144 8.42617 10.5244 8.38617 10.7844L8.22619 11.7344C8.22385 11.7508 8.22151 11.7688 8.21903 11.7879L8.21902 11.788L8.21901 11.788C8.21093 11.8503 8.20146 11.9232 8.18616 11.9844H7.89618H7.60614ZM15.6065 22.9844H15.8964L15.9165 23.0044C16.4565 23.0044 16.8365 23.0043 17.2165 22.7043C17.5765 22.3943 17.6465 21.9844 17.7265 21.5044L17.8165 20.9444C17.8484 20.9258 17.881 20.9072 17.9139 20.8884C18.0049 20.8365 18.0984 20.7831 18.1865 20.7244L18.7065 20.9144C19.1365 21.0844 19.5465 21.2444 20.0465 21.0844C20.4815 20.9261 20.682 20.592 20.9474 20.1495L20.9565 20.1344L21.1565 19.7944L21.1711 19.7677C21.3852 19.3788 21.5745 19.0348 21.4865 18.6144C21.4065 18.1544 21.0965 17.8944 20.6865 17.5644L20.2365 17.2043V16.9944V16.7944L20.6865 16.4244L20.6992 16.4139C21.0932 16.0889 21.4073 15.8298 21.4765 15.4044C21.5665 14.9444 21.3765 14.5944 21.1065 14.1244L20.9365 13.8344L20.9248 13.8151L20.9248 13.8151C20.6704 13.3942 20.4695 13.0618 20.0066 12.8943C19.5466 12.7443 19.1365 12.9044 18.7165 13.0744L18.1865 13.2644C18.0665 13.1844 17.9365 13.1144 17.8065 13.0444L17.7165 12.4844C17.6365 12.0044 17.5665 11.5944 17.1865 11.2644C16.8265 10.9744 16.4465 10.9744 15.9065 10.9744H15.6165H15.6165C15.0865 10.9744 14.7065 10.9744 14.3065 11.2744C13.9565 11.5844 13.8865 11.9744 13.8065 12.4744L13.7065 13.0444C13.5765 13.1144 13.4465 13.1844 13.3265 13.2644L12.8065 13.0744C12.3765 12.9044 11.9665 12.7444 11.4665 12.9044C11.0315 13.0625 10.831 13.3967 10.5656 13.8391L10.5565 13.8544L10.3565 14.1944L10.342 14.2206C10.1278 14.6098 9.93849 14.9538 10.0265 15.3744C10.1065 15.8344 10.4165 16.0944 10.8265 16.4244L11.2765 16.7844V16.9844V17.1844L10.8165 17.5544L10.804 17.5647C10.4098 17.8898 10.0958 18.1489 10.0265 18.5744C9.93651 19.0344 10.1265 19.3844 10.3965 19.8544L10.5665 20.1443L10.578 20.1634C10.8325 20.5844 11.0335 20.9169 11.4965 21.0844C11.9333 21.23 12.3419 21.074 12.7497 20.9184L12.7865 20.9044L13.3165 20.7043C13.4465 20.7843 13.5665 20.8544 13.6965 20.9244L13.8065 21.5344C13.8765 21.9844 13.9465 22.3844 14.3365 22.7144C14.6965 22.9844 15.0765 22.9844 15.6065 22.9844ZM15.3251 21.4844H15.6065H15.8964H16.1865C16.2018 21.4232 16.2113 21.3503 16.2193 21.2881C16.2218 21.2689 16.2242 21.2508 16.2265 21.2344L16.3864 20.2844C16.4264 20.0244 16.5965 19.8144 16.8365 19.7144C17.1165 19.6044 17.3665 19.4544 17.6065 19.2744C17.8065 19.1144 18.0765 19.0844 18.3165 19.1644L19.2165 19.4944C19.2865 19.5244 19.3965 19.5644 19.4965 19.5944C19.5365 19.5244 19.5864 19.4444 19.6364 19.3644L19.8065 19.0744C19.8413 19.0187 19.8713 18.9678 19.8964 18.9252L19.9145 18.8944L19.9265 18.8744L19.8999 18.8521L19.8998 18.8521C19.8462 18.8072 19.7864 18.7571 19.7265 18.7144L18.9765 18.1044C18.7765 17.9444 18.6765 17.6944 18.6965 17.4344L18.7053 17.3613C18.722 17.223 18.7365 17.1023 18.7365 16.9744C18.7365 16.8244 18.7165 16.6744 18.6965 16.5344C18.6665 16.2844 18.7665 16.0244 18.9665 15.8644L19.7265 15.2444C19.7565 15.2194 19.7915 15.1919 19.8265 15.1644C19.8615 15.1369 19.8965 15.1094 19.9265 15.0844C19.8965 15.0344 19.8665 14.9844 19.8365 14.9244L19.6464 14.6144C19.5964 14.5244 19.5465 14.4444 19.4965 14.3744C19.4551 14.3882 19.4095 14.4062 19.3655 14.4236C19.3138 14.444 19.2643 14.4636 19.2265 14.4744L18.3165 14.8144C18.0765 14.9044 17.7965 14.8643 17.5965 14.7043C17.3765 14.5343 17.1265 14.3844 16.8365 14.2644C16.5965 14.1644 16.4264 13.9544 16.3864 13.6944L16.2265 12.7444C16.2223 12.7147 16.2162 12.6795 16.2099 12.6428C16.2013 12.593 16.1922 12.5404 16.1865 12.4944H15.8964H15.6065H15.3165C15.3065 12.5544 15.2965 12.6244 15.2865 12.6944L15.1065 13.7043C15.0665 13.9543 14.8865 14.1644 14.6565 14.2644C14.3765 14.3744 14.1265 14.5243 13.8865 14.7043C13.6865 14.8543 13.4165 14.8944 13.1765 14.8144L12.2765 14.4844C12.2065 14.4544 12.0965 14.4144 11.9965 14.3844C11.9568 14.4539 11.9072 14.5333 11.8575 14.6127L11.8565 14.6144L11.6865 14.9044C11.6517 14.96 11.6217 15.0109 11.5966 15.0535L11.5966 15.0535L11.5966 15.0536L11.5665 15.1044L11.5925 15.1261C11.6463 15.1712 11.7064 15.2215 11.7665 15.2644L12.5365 15.8844C12.7465 16.0544 12.8565 16.3344 12.8065 16.6044C12.7865 16.7344 12.7765 16.8644 12.7765 17.0044V17.0048C12.7765 17.1447 12.7765 17.2745 12.8065 17.4044C12.8565 17.6744 12.7565 17.9444 12.5365 18.1244L11.7665 18.7444C11.7365 18.7694 11.704 18.7969 11.6715 18.8244L11.671 18.8248C11.6387 18.8521 11.6064 18.8795 11.5765 18.9044C11.6065 18.9544 11.6365 19.0044 11.6665 19.0644L11.8565 19.3744C11.9065 19.4644 11.9565 19.5444 12.0065 19.6144C12.0479 19.6006 12.0935 19.5826 12.1376 19.5652C12.1892 19.5447 12.2387 19.5252 12.2765 19.5144L13.1865 19.1744C13.4265 19.0844 13.6965 19.1244 13.8965 19.2844C14.1465 19.4744 14.3965 19.6144 14.6665 19.7244C14.9065 19.8244 15.0765 20.0344 15.1165 20.2844L15.2865 21.2344C15.3018 21.3109 15.3112 21.3816 15.3193 21.4419L15.3193 21.4419L15.3251 21.4844ZM7.74609 8.98438C6.91609 8.98438 6.24609 8.31437 6.24609 7.48438C6.24609 6.65438 6.91609 5.98438 7.74609 5.98438C8.57609 5.98438 9.24609 6.65438 9.24609 7.48438C9.24609 8.31437 8.57609 8.98438 7.74609 8.98438ZM14.2461 16.9844C14.2461 17.8144 14.9162 18.4844 15.7462 18.4844C16.5762 18.4844 17.2462 17.8144 17.2462 16.9844C17.2462 16.1544 16.5762 15.4844 15.7462 15.4844C14.9162 15.4844 14.2461 16.1544 14.2461 16.9844Z" fill="currentColor" fill-rule="evenodd"></path></svg>