<svg xmlns="http://www.w3.org/2000/svg" width="24" height="24" viewBox="0 0 24 24" fill="none" stroke-width="1.5" stroke-linecap="round" stroke-linejoin="round" color="currentColor"><path d="M14.0539 3.5H9.9439C8.1039 3.5 6.6539 3.50015 5.5139 3.65015C4.3439 3.81015 3.3939 4.14014 2.6439 4.89014C1.89391 5.64014 1.56391 6.59001 1.40391 7.76001C1.25391 8.90001 1.25391 10.3599 1.25391 12.1899V12.3101C1.25391 14.1401 1.25391 15.6 1.40391 16.74C1.56391 17.91 1.89391 18.8601 2.6439 19.6101C3.3939 20.3601 4.3439 20.6901 5.5139 20.8501C6.6539 21.0001 8.1039 21 9.9439 21H14.0539C15.8939 21 17.3439 21.0001 18.4839 20.8501C19.6539 20.6901 20.6039 20.3601 21.3539 19.6101C22.1039 18.8601 22.4339 17.91 22.5939 16.74C22.7439 15.6 22.7439 14.1401 22.7439 12.3101V12.1899C22.7439 10.3599 22.7439 8.90001 22.5939 7.76001C22.4339 6.59001 22.1039 5.64014 21.3539 4.89014C20.6039 4.14014 19.6539 3.81015 18.4839 3.65015C17.3439 3.50015 15.8939 3.5 14.0539 3.5ZM5.7039 5.14014C6.5939 5.02014 7.7239 5 9.2439 5V10.4399L7.5239 8.71997C7.2339 8.42997 6.7539 8.42997 6.4639 8.71997C6.1739 9.00997 6.1739 9.49003 6.4639 9.78003L8.1839 11.5H2.7439C2.7439 9.98 2.7639 8.84996 2.8839 7.95996C3.0239 6.94996 3.2739 6.37995 3.6939 5.94995C4.1139 5.52995 4.6939 5.28014 5.7039 5.14014ZM8.1839 13L6.4639 14.72C6.1739 15.01 6.1739 15.49 6.4639 15.78C6.7539 16.07 7.2339 16.07 7.5239 15.78L9.2439 14.0601V19.5C7.7239 19.5 6.5939 19.4801 5.7039 19.3601C4.6939 19.2201 4.1139 18.97 3.6939 18.55C3.2739 18.12 3.0239 17.55 2.8839 16.54C2.7639 15.65 2.7439 14.52 2.7439 13H8.1839ZM10.7439 14.0601L12.4639 15.78C12.7539 16.07 13.2339 16.07 13.5239 15.78C13.8139 15.49 13.8139 15.01 13.5239 14.72L11.8039 13H21.2439C21.2439 14.52 21.2239 15.65 21.1039 16.54C20.9739 17.55 20.7139 18.12 20.2939 18.55C19.8739 18.97 19.2939 19.2201 18.2839 19.3601C17.2539 19.5001 15.9039 19.5 13.9939 19.5H10.7439V14.0601ZM11.8039 11.5L13.5239 9.78003C13.8139 9.49003 13.8139 9.00997 13.5239 8.71997C13.2339 8.42997 12.7539 8.42997 12.4639 8.71997L10.7439 10.4399V5H13.9939C15.9039 5 17.2539 5.00014 18.2839 5.14014C19.2939 5.28014 19.8739 5.52995 20.2939 5.94995C20.7139 6.37995 20.9639 6.94996 21.1039 7.95996C21.2239 8.84996 21.2439 9.98 21.2439 11.5H11.8039Z" fill="currentColor"></path></svg>