<svg xmlns="http://www.w3.org/2000/svg" width="24" height="24" viewBox="0 0 24 24" fill="none"><path d="M5 9C6.65685 9 8 7.65685 8 6C8 4.34315 6.65685 3 5 3C3.34315 3 2 4.34315 2 6C2 7.65685 3.34315 9 5 9Z" stroke="currentColor" stroke-linecap="round" stroke-linejoin="round" stroke-width="1.5" /><path d="M5 9V15" stroke="currentColor" stroke-linecap="round" stroke-linejoin="round" stroke-width="1.5" /><path d="M5 21C6.65685 21 8 19.6569 8 18C8 16.3431 6.65685 15 5 15C3.34315 15 2 16.3431 2 18C2 19.6569 3.34315 21 5 21Z" stroke="currentColor" stroke-linecap="round" stroke-linejoin="round" stroke-width="1.5" /><path d="M12 3V21" stroke="currentColor" stroke-linecap="round" stroke-linejoin="round" stroke-width="1.5" /><path d="M19 9C20.6569 9 22 7.65685 22 6C22 4.34315 20.6569 3 19 3C17.3431 3 16 4.34315 16 6C16 7.65685 17.3431 9 19 9Z" stroke="currentColor" stroke-linecap="round" stroke-linejoin="round" stroke-width="1.5" /><path d="M16 15.7C16.9428 14.8567 17.6972 13.8242 18.2142 12.6698C18.7311 11.5153 18.9988 10.2649 19 9" stroke="currentColor" stroke-linecap="round" stroke-linejoin="round" stroke-width="1.5" /></svg>