<svg xmlns="http://www.w3.org/2000/svg" width="24" height="24" viewBox="0 0 24 24" fill="none"><path d="M5 9C6.65685 9 8 7.65685 8 6C8 4.34315 6.65685 3 5 3C3.34315 3 2 4.34315 2 6C2 7.65685 3.34315 9 5 9Z" stroke="currentColor" stroke-linecap="round" stroke-linejoin="round" stroke-width="1.5" /><path d="M12 6H14C15.8692 6 16.8038 6 17.5 6.40192C17.9561 6.66523 18.3348 7.04394 18.5981 7.5C19 8.19615 19 9.13077 19 11" stroke="currentColor" stroke-linecap="round" stroke-linejoin="round" stroke-width="1.5" /><path d="M19 21C20.6569 21 22 19.6569 22 18C22 16.3431 20.6569 15 19 15C17.3431 15 16 16.3431 16 18C16 19.6569 17.3431 21 19 21Z" stroke="currentColor" stroke-linecap="round" stroke-linejoin="round" stroke-width="1.5" /><path d="M12 18H10C8.13077 18 7.19615 18 6.5 17.5981C6.04394 17.3348 5.66523 16.9561 5.40192 16.5C5 15.8038 5 14.8692 5 13" stroke="currentColor" stroke-linecap="round" stroke-linejoin="round" stroke-width="1.5" /><path d="M9.00002 15C9.00002 15 12 17.2095 12 18C12 18.7906 9 21 9 21" stroke="currentColor" stroke-linecap="round" stroke-linejoin="round" stroke-width="1.5" /><path d="M15 9C15 9 12 6.79053 12 5.99998C12 5.20942 15 3 15 3" stroke="currentColor" stroke-linecap="round" stroke-linejoin="round" stroke-width="1.5" /></svg>