<svg xmlns="http://www.w3.org/2000/svg" width="24" height="24" viewBox="0 0 24 24" fill="none" stroke-width="1.5" stroke-linecap="round" stroke-linejoin="round" color="currentColor"><path d="M19 17L19 11C19 8.17157 19 6.75736 18.1213 5.87868C17.2426 5 15.8284 5 13 5H10M10 5C10 4.29977 11.9943 2.99153 12.5 2.5M10 5C10 5.70023 11.9943 7.00847 12.5 7.5" stroke="currentColor"></path><path d="M5 7.5L5 13.5C5 16.3284 5 17.7426 5.87868 18.6213C6.75736 19.5 8.17157 19.5 11 19.5H14M14 19.5C14 20.2002 12.0057 21.5085 11.5 22M14 19.5C14 18.7998 12.0057 17.4915 11.5 17" stroke="currentColor"></path><circle cx="19" cy="19" r="2" stroke="currentColor"></circle><circle cx="5" cy="5" r="2" stroke="currentColor"></circle></svg>