<svg xmlns="http://www.w3.org/2000/svg" width="24" height="24" viewBox="0 0 24 24" fill="none"><path d="M12 13C14.7614 13 17 10.7614 17 8C17 5.23858 14.7614 3 12 3M12 13C9.23858 13 7 10.7614 7 8C7 5.23858 9.23858 3 12 3M12 13C13.1046 13 14 10.7614 14 8C14 5.23858 13.1046 3 12 3M12 13C10.8954 13 10 10.7614 10 8C10 5.23858 10.8954 3 12 3M7.46012 8H16.5766" stroke="currentColor" stroke-linecap="round" stroke-linejoin="round" stroke-width="1.5" /><path d="M12 15.25V21C13.8315 19.3871 16.2062 18.4966 18.6667 18.5C20.2287 18.5 21.0097 18.5 21.3547 18.2792C21.5619 18.1466 21.6465 18.0619 21.7791 17.8547C22 17.5097 22 16.8941 22 15.6629V6.40322C22 4.97543 22 4.26154 21.4513 3.68286C20.9025 3.10418 20.3408 3.07432 19.2173 3.0146C19.035 3.00491 18.8514 3.00001 18.6667 3.00001C18.2177 2.99938 17.7715 3.02853 17.331 3.0864" stroke="currentColor" stroke-linecap="round" stroke-linejoin="round" stroke-width="1.5" /><path d="M6.66901 3.0864C6.22849 3.02853 5.78234 2.99938 5.33333 3.00001C5.14858 3.00001 4.965 3.00491 4.78272 3.0146C3.65923 3.07432 3.09748 3.10418 2.54874 3.68286C2 4.26154 2 4.97543 2 6.40322V15.6629C2 16.8941 2 17.5097 2.22086 17.8547C2.35346 18.0619 2.4381 18.1466 2.64526 18.2792C2.99031 18.5 3.77133 18.5 5.33333 18.5C7.79379 18.4966 10.1685 19.3871 12 21V15.25" stroke="currentColor" stroke-linecap="round" stroke-linejoin="round" stroke-width="1.5" /></svg>