<svg xmlns="http://www.w3.org/2000/svg" width="24" height="24" viewBox="0 0 24 24" fill="none"><path d="M7.88376 2.88376C9.13912 2.31604 10.5327 2 12 2C17.5228 2 22 6.47715 22 12C22 13.4673 21.684 14.8609 21.1162 16.1162M4.92893 4.92893C3.11929 6.73858 2 9.23858 2 12C2 17.5228 6.47715 22 12 22C14.7614 22 17.2614 20.8807 19.0711 19.0711" stroke="currentColor" stroke-linecap="round" stroke-linejoin="round" stroke-width="1.5" /><path d="M9.40013 4.40013C10.0993 2.90379 11.0074 2 12 2C14.0713 2 15.7749 5.93597 15.9794 10.9794M8.28511 8.28511C8.10118 9.4336 8 10.6873 8 12C8 17.5228 9.79086 22 12 22C13.684 22 15.125 19.3983 15.7149 15.7149" stroke="currentColor" stroke-linecap="round" stroke-linejoin="round" stroke-width="1.5" /><path d="M22 12H19M2 12H12" stroke="currentColor" stroke-linecap="round" stroke-linejoin="round" stroke-width="1.5" /><path d="M2 2L22 22" stroke="currentColor" stroke-linecap="round" stroke-linejoin="round" stroke-width="1.5" /></svg>