<svg xmlns="http://www.w3.org/2000/svg" width="24" height="24" viewBox="0 0 24 24" fill="none"><path d="M11 7.10156C8.71776 7.56483 7 9.58259 7 12.0015C7 14.763 9.23858 17.0015 12 17.0015C14.419 17.0015 16.4367 15.2838 16.9 13.0015" stroke="currentColor" stroke-linecap="round" stroke-linejoin="round" stroke-width="1.5" /><path d="M22 12C22 17.5228 17.5228 22 12 22C6.47715 22 2 17.5228 2 12C2 6.47715 6.47715 2 12 2" stroke="currentColor" stroke-linecap="round" stroke-linejoin="round" stroke-width="1.5" /><path d="M14.5 7.11525V9.5H16.8847C17.7168 9.5 18.1328 9.5 18.5068 9.34506C18.8809 9.19011 19.1751 8.89595 19.7634 8.30762L20.0977 7.97337C21.0515 7.01951 21.5284 6.54258 21.4987 6.0829C21.4874 5.90785 21.431 5.73869 21.335 5.59185C21.083 5.20626 20.4153 5.11087 19.0799 4.9201C18.8891 3.5847 18.7937 2.917 18.4081 2.665C18.2613 2.56903 18.0922 2.51264 17.9171 2.50131C17.4574 2.47156 16.9805 2.94849 16.0266 3.90235L15.6924 4.2366C15.1041 4.82493 14.8099 5.11909 14.6549 5.49316C14.5 5.86723 14.5 6.28323 14.5 7.11525Z" stroke="currentColor" stroke-linecap="round" stroke-linejoin="round" stroke-width="1.5" /><path d="M14.5 9.5L12 12" stroke="currentColor" stroke-linecap="round" stroke-linejoin="round" stroke-width="1.5" /></svg>