<svg xmlns="http://www.w3.org/2000/svg" width="24" height="24" viewBox="0 0 24 24" fill="none"><path d="M22 9V15" stroke="currentColor" stroke-linecap="round" stroke-linejoin="round" stroke-width="1.5" /><path d="M18 12V15.0669C18 16.1333 18 16.6665 17.737 17.1071L17.7316 17.1159C17.4661 17.5551 16.9843 17.8238 16.0206 18.3611C14.0645 19.4518 13.0864 19.9972 12.0109 20H11.9891C10.9136 19.9972 9.93551 19.4518 7.97941 18.3611C7.01574 17.8238 6.53391 17.5551 6.2684 17.1159L6.26305 17.1071C6 16.6665 6 16.1333 6 15.0669V12" stroke="currentColor" stroke-linecap="round" stroke-linejoin="round" stroke-width="1.5" /><path d="M8.52143 5.22252L4.40645 7.2074C2.80215 7.98124 2 8.36816 2 8.99125C2 9.61434 2.80215 10.0013 4.40645 10.7751L8.598 12.7969C10.2608 13.599 11.0922 14 11.9816 14C12.8711 14 13.7025 13.599 15.3653 12.7969L19.6386 10.7356C21.2141 9.97571 22.0018 9.59575 22 8.97064C21.9982 8.34553 21.2146 7.97321 19.6473 7.22857C18.2179 6.5494 16.8685 5.92516 15.433 5.24184C13.6907 4.41243 12.8195 3.99772 11.9353 4.00001C11.0512 4.00229 10.2079 4.40904 8.52143 5.22252Z" stroke="currentColor" stroke-linecap="round" stroke-linejoin="round" stroke-width="1.5" /></svg>