<svg xmlns="http://www.w3.org/2000/svg" width="24" height="24" viewBox="0 0 24 24" fill="none"><path d="M4 17V5H16C18.8284 5 20.2426 5 21.1213 5.87868C22 6.75736 22 8.17157 22 11C22 13.8284 22 15.2426 21.1213 16.1213C20.2426 17 18.8284 17 16 17H4Z" stroke="currentColor" stroke-linecap="round" stroke-linejoin="round" stroke-width="1.5" /><path d="M8 17V18.5C8 18.9659 8 19.1989 8.07612 19.3827C8.17761 19.6277 8.37229 19.8224 8.61732 19.9239C8.80109 20 9.03406 20 9.5 20C9.96594 20 10.1989 20 10.3827 19.9239C10.6277 19.8224 10.8224 19.6277 10.9239 19.3827C11 19.1989 11 18.9659 11 18.5V17" stroke="currentColor" stroke-linecap="round" stroke-linejoin="round" stroke-width="1.5" /><path d="M14 17V18C14 18.9428 14 19.4142 14.2929 19.7071C14.5858 20 15.0572 20 16 20H17C17.9428 20 18.4142 20 18.7071 19.7071C19 19.4142 19 18.9428 19 18V17" stroke="currentColor" stroke-linecap="round" stroke-linejoin="round" stroke-width="1.5" /><path d="M4 21V5C4 3.89543 3.10457 3 2 3" stroke="currentColor" stroke-linecap="round" stroke-linejoin="round" stroke-width="1.5" /><path d="M8 9V13" stroke="currentColor" stroke-linecap="round" stroke-linejoin="round" stroke-width="1.5" /><path d="M15 14C16.6569 14 18 12.6569 18 11C18 9.34315 16.6569 8 15 8C13.3431 8 12 9.34315 12 11C12 12.6569 13.3431 14 15 14Z" stroke="currentColor" stroke-linecap="round" stroke-linejoin="round" stroke-width="1.5" /></svg>