<svg xmlns="http://www.w3.org/2000/svg" width="24" height="24" viewBox="0 0 24 24" fill="none"><path d="M21.2417 16.25L18.75 18.7458M18.75 18.7458L16.25 21.25M18.75 18.7458L21.25 21.25M18.75 18.7458L16.2583 16.25" stroke="currentColor" stroke-linecap="round" stroke-linejoin="round" stroke-width="1.5" /><path d="M11.75 20.75C7.50736 20.75 5.38604 20.75 4.06802 19.432C2.75 18.114 2.75 15.9926 2.75 11.75C2.75 7.50736 2.75 5.38604 4.06802 4.06802C5.38604 2.75 7.50736 2.75 11.75 2.75C15.9926 2.75 18.114 2.75 19.432 4.06802C20.75 5.38604 20.75 7.50736 20.75 11.75" stroke="currentColor" stroke-linejoin="round" stroke-width="1.5" /><path d="M11.75 2.75V20.75" stroke="currentColor" stroke-linecap="round" stroke-linejoin="round" stroke-width="1.5" /><path d="M20.7509 11.7422H2.75586" stroke="currentColor" stroke-linecap="round" stroke-linejoin="round" stroke-width="1.5" /></svg>