<svg xmlns="http://www.w3.org/2000/svg" width="24" height="24" viewBox="0 0 24 24" fill="none" stroke-width="1.5" stroke-linecap="round" stroke-linejoin="round" color="currentColor"><path d="M4.25 21.2402C4.25 21.6502 4.59 21.9902 5 21.9902C5.41 21.9902 5.75 21.6502 5.75 21.2402V18.9902H18.25V21.2402C18.25 21.6502 18.59 21.9902 19 21.9902C19.41 21.9902 19.75 21.6502 19.75 21.2402V18.9902H22.0001C22.4101 18.9902 22.7501 18.6502 22.7501 18.2402C22.7501 17.8302 22.4101 17.4902 22.0001 17.4902H19.75V6.99023H22.0001C22.4101 6.99023 22.7501 6.65023 22.7501 6.24023C22.7501 5.83023 22.4101 5.49023 22.0001 5.49023H19.75V3.24023C19.75 2.83023 19.41 2.49023 19 2.49023C18.59 2.49023 18.25 2.83023 18.25 3.24023V5.49023H5.75V3.24023C5.75 2.83023 5.41 2.49023 5 2.49023C4.59 2.49023 4.25 2.83023 4.25 3.24023V5.49023H2C1.59 5.49023 1.25 5.83023 1.25 6.24023C1.25 6.65023 1.59 6.99023 2 6.99023H4.25V17.4902H2C1.59 17.4902 1.25 17.8302 1.25 18.2402C1.25 18.6502 1.59 18.9902 2 18.9902H4.25V21.2402ZM18.25 6.99023V17.4902H5.75V6.99023H18.25Z" fill="currentColor"></path></svg>