<svg xmlns="http://www.w3.org/2000/svg" width="24" height="24" viewBox="0 0 24 24" fill="none"><path d="M15 18H13C12.0681 18 11.6022 18 11.2346 17.8478C10.7446 17.6448 10.3552 17.2554 10.1522 16.7654C10 16.3978 10 15.9319 10 15C10 14.0681 10 13.6022 10.1522 13.2346C10.3552 12.7446 10.7446 12.3552 11.2346 12.1522C11.6022 12 12.0681 12 13 12H15C15.9319 12 16.3978 12 16.7654 12.1522C17.2554 12.3552 17.6448 12.7446 17.8478 13.2346C18 13.6022 18 14.0681 18 15C18 15.9319 18 16.3978 17.8478 16.7654C17.6448 17.2554 17.2554 17.6448 16.7654 17.8478C16.3978 18 15.9319 18 15 18Z" stroke="currentColor" stroke-linecap="round" stroke-linejoin="round" stroke-width="1.5" /><path d="M10 13C9.06812 13 8.60218 13 8.23463 12.8478C7.74458 12.6448 7.35523 12.2554 7.15224 11.7654C7 11.3978 7 10.9319 7 10C7 9.06812 7 8.60218 7.15224 8.23463C7.35523 7.74458 7.74458 7.35523 8.23463 7.15224C8.60218 7 9.06812 7 10 7H12C12.9319 7 13.3978 7 13.7654 7.15224C14.2554 7.35523 14.6448 7.74458 14.8478 8.23463C15 8.60218 15 9.06812 15 10C15 10.9319 15 11.3978 14.8478 11.7654" stroke="currentColor" stroke-linecap="round" stroke-linejoin="round" stroke-width="1.5" /><path d="M16.5 21.5C17.4293 21.5 17.894 21.5 18.2804 21.4231C19.8671 21.1075 21.1075 19.8671 21.4231 18.2804C21.5 17.894 21.5 17.4293 21.5 16.5M7.5 2.5C6.57069 2.5 6.10603 2.5 5.71964 2.57686C4.13288 2.89249 2.89249 4.13288 2.57686 5.71964C2.5 6.10603 2.5 6.57069 2.5 7.5M7.5 21.5C6.57069 21.5 6.10603 21.5 5.71964 21.4231C4.13288 21.1075 2.89249 19.8671 2.57686 18.2804C2.5 17.894 2.5 17.4293 2.5 16.5M16.5 2.5C17.4293 2.5 17.894 2.5 18.2804 2.57686C19.8671 2.89249 21.1075 4.13288 21.4231 5.71964C21.5 6.10603 21.5 6.57069 21.5 7.5" stroke="currentColor" stroke-linecap="round" stroke-linejoin="round" stroke-width="1.5" /></svg>