<svg xmlns="http://www.w3.org/2000/svg" width="24" height="24" viewBox="0 0 24 24" fill="none"><path d="M11.5505 12.447L11.1881 12.8094L18.4362 5.5625M6.83923 15.7079L8.28885 17.1574M11.9129 13.5341C11.5126 13.9344 10.8636 13.9344 10.4633 13.5341C10.063 13.1338 10.063 12.4849 10.4633 12.0846C10.8636 11.6843 11.5126 11.6843 11.9129 12.0846C12.3132 12.4849 12.3132 13.1338 11.9129 13.5341ZM14.8122 9.18631C17.7114 12.0853 17.5172 13.3406 16.9866 14.2595C16.6863 14.7797 16.0853 15.2894 15.1176 15.6714C14.3091 15.9906 13.6733 16.6521 13.4915 17.5019C13.2667 18.5521 12.8333 19.862 11.9129 20.7823C10.1009 22.5941 7.92649 22.5941 4.66485 19.3328C1.40321 16.0714 1.40321 13.8972 3.21524 12.0853C4.13562 11.165 5.44559 10.7316 6.49584 10.5069C7.3458 10.3251 8.00733 9.6893 8.32652 8.88091C8.70857 7.91334 9.21833 7.31237 9.73852 7.01207C10.6575 6.48152 11.9129 6.28732 14.8122 9.18631Z" stroke="currentColor" stroke-linecap="round" stroke-linejoin="round" stroke-width="1.5" /><path d="M21.5193 4.48223L20.5193 5.48223C20.4115 5.59007 20.3576 5.64399 20.3075 5.68469C19.8483 6.05773 19.1904 6.05773 18.7312 5.68469C18.6811 5.64399 18.6272 5.59006 18.5193 5.48223C18.4115 5.3744 18.3576 5.32048 18.3169 5.27038C17.9438 4.81116 17.9438 4.15331 18.3169 3.69409C18.3576 3.64399 18.4115 3.59007 18.5193 3.48223L19.5193 2.48223C19.6272 2.3744 19.6811 2.32048 19.7312 2.27978C20.1904 1.90674 20.8483 1.90674 21.3075 2.27978C21.3576 2.32048 21.4115 2.3744 21.5193 2.48223C21.6272 2.59006 21.6811 2.64399 21.7218 2.69409C22.0948 3.15331 22.0948 3.81116 21.7218 4.27038C21.6811 4.32048 21.6272 4.3744 21.5193 4.48223Z" stroke="currentColor" stroke-width="1.5" /></svg>