<svg xmlns="http://www.w3.org/2000/svg" width="24" height="24" viewBox="0 0 24 24" fill="none" stroke-width="1.5" stroke-linecap="round" stroke-linejoin="round" color="currentColor"><path d="M17 22.0625H21C21.41 22.0625 21.75 21.7225 21.75 21.3125C21.75 15.9325 17.38 11.5625 12 11.5625C10.51 11.5625 9.07 11.9025 7.75 12.5425V3.3125C7.75 2.9025 7.41 2.5625 7 2.5625H3C2.59 2.5625 2.25 2.9025 2.25 3.3125V21.3125C2.25 21.7225 2.59 22.0625 3 22.0625H7C7.41 22.0625 7.75 21.7225 7.75 21.3125C7.75 18.9725 9.66 17.0625 12 17.0625C14.34 17.0625 16.25 18.9725 16.25 21.3125C16.25 21.7225 16.59 22.0625 17 22.0625ZM20.21 20.5625H17.7C17.33 17.7425 14.91 15.5625 12 15.5625C9.09 15.5625 6.67 17.7425 6.3 20.5625H3.75V4.0625H6.24V13.8325C6.24 14.1125 6.39 14.3625 6.64 14.4925C6.88 14.6225 7.18 14.6025 7.41 14.4525C8.77 13.5425 10.35 13.0625 11.99 13.0625C16.29 13.0625 19.83 16.3625 20.21 20.5625ZM11.25 3.3125C11.25 8.6925 15.62 13.0625 21 13.0625C21.41 13.0625 21.75 12.7225 21.75 12.3125V8.3125C21.75 7.9025 21.41 7.5625 21 7.5625C18.66 7.5625 16.75 5.6525 16.75 3.3125C16.75 2.9025 16.41 2.5625 16 2.5625H12C11.59 2.5625 11.25 2.9025 11.25 3.3125ZM20.25 11.5325C16.29 11.1725 13.14 8.0125 12.78 4.0625L12.79 4.0725H15.3C15.63 6.6425 17.68 8.6825 20.25 9.0225V11.5325Z" fill="currentColor" fill-rule="evenodd"></path></svg>