<svg xmlns="http://www.w3.org/2000/svg" width="24" height="24" viewBox="0 0 24 24" fill="none"><path d="M17.5 9.5V8.75C17.5 7.7835 18.2835 7 19.25 7C20.2165 7 21 7.7835 21 8.75V12.8C21 16.7765 17.7765 20 13.8 20H10.0588C6.16034 20 3 16.8397 3 12.9412V12C3 10.8954 3.89543 10 5 10C6.10457 10 7 10.8954 7 12V12.9412" stroke="currentColor" stroke-linecap="round" stroke-linejoin="round" stroke-width="1.5" /><path d="M17.5 9.5V6.75C17.5 5.7835 16.7165 5 15.75 5C14.7835 5 14 5.7835 14 6.75V8.5" stroke="currentColor" stroke-linecap="round" stroke-linejoin="round" stroke-width="1.5" /><path d="M14 8.5V5.75C14 4.7835 13.2165 4 12.25 4C11.2835 4 10.5 4.7835 10.5 5.75V8" stroke="currentColor" stroke-linecap="round" stroke-linejoin="round" stroke-width="1.5" /><path d="M10.5 8V6.75C10.5 5.7835 9.7165 5 8.75 5C7.7835 5 7 5.7835 7 6.75V12" stroke="currentColor" stroke-linecap="round" stroke-linejoin="round" stroke-width="1.5" /></svg>