<svg xmlns="http://www.w3.org/2000/svg" width="24" height="24" viewBox="0 0 24 24" fill="none"><path d="M2 14.5V8.5C2 8.03501 2 7.80252 2.05111 7.61177C2.18981 7.09413 2.59413 6.68981 3.11177 6.55111C3.30252 6.5 3.53501 6.5 4 6.5C4.46499 6.5 4.69748 6.5 4.88823 6.55111C5.40587 6.68981 5.81019 7.09413 5.94889 7.61177C6 7.80252 6 8.03501 6 8.5V14.5C6 14.965 6 15.1975 5.94889 15.3882C5.81019 15.9059 5.40587 16.3102 4.88823 16.4489C4.69748 16.5 4.46499 16.5 4 16.5C3.53501 16.5 3.30252 16.5 3.11177 16.4489C2.59413 16.3102 2.18981 15.9059 2.05111 15.3882C2 15.1975 2 14.965 2 14.5Z" stroke="currentColor" stroke-linecap="round" stroke-linejoin="round" stroke-width="1.5" /><path d="M6 7.5H7.76845C8.58101 7.5 9.38511 7.66505 10.132 7.98513L14.8574 10.0103C15.5506 10.3074 16 10.989 16 11.7431C16 12.4373 15.4373 13 14.7431 13H14.0986C13.3729 13 12.6538 12.8615 11.98 12.592L10.5 12" stroke="currentColor" stroke-linecap="round" stroke-linejoin="round" stroke-width="1.5" /><path d="M14 13H20.5749C21.362 13 22 13.638 22 14.4251C22 15.0613 21.5782 15.6205 20.9664 15.7953L15.7451 17.2871C15.2508 17.4283 14.7392 17.5 14.2251 17.5C13.7437 17.5 13.2645 17.4372 12.7994 17.3132L6 15.5" stroke="currentColor" stroke-linecap="round" stroke-linejoin="round" stroke-width="1.5" /></svg>