<svg xmlns="http://www.w3.org/2000/svg" width="24" height="24" viewBox="0 0 24 24" fill="none"><path d="M7.28571 9H16.7143C18.3849 9 19.2202 9 19.8301 9.38319C20.1481 9.58301 20.417 9.85191 20.6168 10.1699C21 10.7798 21 11.6151 21 13.2857C21 16.2929 21 17.7964 20.3103 18.8941C19.9506 19.4666 19.4666 19.9506 18.8941 20.3103C17.7964 21 16.2929 21 13.2857 21H10.7143C7.70714 21 6.20357 21 5.10586 20.3103C4.53344 19.9506 4.04941 19.4666 3.68974 18.8941C3 17.7964 3 16.2929 3 13.2857C3 11.6151 3 10.7798 3.38319 10.1699C3.58301 9.85191 3.85191 9.58301 4.16992 9.38319C4.77976 9 5.61508 9 7.28571 9Z" stroke="currentColor" stroke-linecap="round" stroke-linejoin="round" stroke-width="1.5" /><path d="M8 9V7C8 4.79086 9.79086 3 12 3C14.2091 3 16 4.79086 16 7V9" stroke="currentColor" stroke-linecap="round" stroke-linejoin="round" stroke-width="1.5" /></svg>