<svg xmlns="http://www.w3.org/2000/svg" width="24" height="24" viewBox="0 0 24 24" fill="none" stroke-width="1.5" stroke-linecap="round" stroke-linejoin="round" color="currentColor"><path d="M21.9986 8.83422H21.0513C20.4058 8.83422 19.7775 8.62547 19.2595 8.23892L14.3566 4.58048C13.7911 4.15855 13.0896 3.82155 12.4419 4.10011C11.3935 4.55106 10.7124 5.8233 12.2843 7.38052L13.9937 8.9781L3.57057 8.9781C1.52742 9.03433 1.42614 12.3231 3.57057 12.4638H9.5106C9.31946 13.9441 10.3629 20.9177 14.7831 19.9012C14.9931 19.853 15.2063 19.8048 15.4165 19.7577C16.3353 19.552 17.9727 18.944 18.93 18.2735C19.9266 17.5756 21.5155 17.8219 22 17.8219" stroke="currentColor"></path></svg>