<svg xmlns="http://www.w3.org/2000/svg" width="24" height="24" viewBox="0 0 24 24" fill="none"><path d="M12 18H14.2984C14.7526 18 15.1932 17.8454 15.5478 17.5617L19.5944 14.3245C19.857 14.1144 20.1864 14 20.5226 14C21.3335 14 22 14.6574 22 15.4684C22 15.8119 21.8796 16.1445 21.6597 16.4084L18.4992 20.2009C17.5493 21.3409 16.142 22 14.6581 22H9.81139C9.27398 22 8.74008 21.9134 8.23025 21.7434L6 21" stroke="currentColor" stroke-linecap="round" stroke-linejoin="round" stroke-width="1.5" /><path d="M6 15L7.61445 14.4619C8.53215 14.156 9.49316 14 10.4605 14H10.892C11.6279 14 12.361 14.0902 13.0749 14.2687L14.7239 14.681C15.4739 14.8685 16 15.5423 16 16.3153C16 17.2458 15.2458 18 14.3153 18H12" stroke="currentColor" stroke-linecap="round" stroke-linejoin="round" stroke-width="1.5" /><path d="M12 3V2" stroke="currentColor" stroke-linecap="round" stroke-linejoin="round" stroke-width="1.5" /><path d="M4 10H20" stroke="currentColor" stroke-linecap="round" stroke-linejoin="round" stroke-width="1.5" /><path d="M5 10C5 8.14348 5.7375 6.36301 7.05025 5.05025C8.36301 3.7375 10.1435 3 12 3C13.8565 3 15.637 3.7375 16.9497 5.05025C18.2625 6.36301 19 8.14348 19 10" stroke="currentColor" stroke-linecap="round" stroke-linejoin="round" stroke-width="1.5" /><path d="M2 20V16C2 15.535 2 15.3025 2.05111 15.1118C2.18981 14.5941 2.59413 14.1898 3.11177 14.0511C3.30252 14 3.53501 14 4 14C4.46499 14 4.69748 14 4.88823 14.0511C5.40587 14.1898 5.81019 14.5941 5.94889 15.1118C6 15.3025 6 15.535 6 16V20C6 20.465 6 20.6975 5.94889 20.8882C5.81019 21.4059 5.40587 21.8102 4.88823 21.9489C4.69748 22 4.46499 22 4 22C3.53501 22 3.30252 22 3.11177 21.9489C2.59413 21.8102 2.18981 21.4059 2.05111 20.8882C2 20.6975 2 20.465 2 20Z" stroke="currentColor" stroke-linecap="round" stroke-linejoin="round" stroke-width="1.5" /></svg>