<svg xmlns="http://www.w3.org/2000/svg" width="24" height="24" viewBox="0 0 24 24" fill="none"><path d="M20.9434 8.5V5.5C20.9434 4.39543 20.0479 3.5 18.9434 3.5C17.8388 3.5 16.9434 4.39543 16.9434 5.5V8.5C16.9434 9.60457 17.8388 10.5 18.9434 10.5C20.0479 10.5 20.9434 9.60457 20.9434 8.5Z" stroke="currentColor" stroke-linecap="round" stroke-linejoin="round" stroke-width="1.5" /><path d="M16.9434 8.5V4.5C16.9434 3.39543 16.0479 2.5 14.9434 2.5C13.8388 2.5 12.9434 3.39543 12.9434 4.5V8.5C12.9434 9.60457 13.8388 10.5 14.9434 10.5C16.0479 10.5 16.9434 9.60457 16.9434 8.5Z" stroke="currentColor" stroke-linecap="round" stroke-linejoin="round" stroke-width="1.5" /><path d="M12.9434 8.5V4.5C12.9434 3.39543 12.0479 2.5 10.9434 2.5C9.83879 2.5 8.94336 3.39543 8.94336 4.5V7" stroke="currentColor" stroke-linecap="round" stroke-linejoin="round" stroke-width="1.5" /><path d="M8.94336 7V5.5C8.94336 4.39543 8.04793 3.5 6.94336 3.5C5.83879 3.5 4.94336 4.39543 4.94336 5.5V8.5C4.94336 8.67265 4.96524 8.84019 5.00637 9" stroke="currentColor" stroke-linecap="round" stroke-linejoin="round" stroke-width="1.5" /><path d="M20.9432 7.4987V12.6011C20.9432 14.3648 20.9432 15.2467 20.7852 15.9779C20.2047 18.6629 18.1074 20.7602 15.4224 21.3406C14.6912 21.4987 13.8094 21.4987 12.0456 21.4987C10.6084 21.4987 9.88985 21.4987 9.25954 21.3823C6.95975 20.9576 5.02399 19.4124 4.10014 17.2639C3.84694 16.6751 3.6847 15.9612 3.36022 14.5335C3.16624 13.68 3.06926 13.2533 3.05681 12.8704C3.01394 11.5518 3.62394 10.297 4.6873 9.51618C4.99611 9.28943 5.38455 9.10543 6.16143 8.73744L10.9969 6.44694C11.5228 6.19785 12.1513 6.41481 12.4115 6.93523C13.0042 8.12075 12.6391 9.56159 11.5532 10.3217L8.44322 12.4987C9.60988 12.9987 11.9432 14.4987 11.9432 16.4987" stroke="currentColor" stroke-linecap="round" stroke-linejoin="round" stroke-width="1.5" /></svg>