<svg xmlns="http://www.w3.org/2000/svg" width="24" height="24" viewBox="0 0 24 24" fill="none"><path d="M6.41699 21.8262L2.1739 17.5853C1.91158 17.3231 1.94759 16.8882 2.24947 16.6727C3.68235 15.6497 5.64516 15.8121 6.89028 17.0566L6.94596 17.1122C8.19108 18.3567 8.35352 20.3185 7.33004 21.7507C7.11441 22.0524 6.67931 22.0884 6.41699 21.8262Z" stroke="currentColor" stroke-linecap="round" stroke-linejoin="round" stroke-width="1.5" /><path d="M7 17.002L11.002 13.002" stroke="currentColor" stroke-linecap="round" stroke-linejoin="round" stroke-width="1.5" /><path d="M14.498 9.50198H14.507" stroke="currentColor" stroke-linecap="round" stroke-linejoin="round" stroke-width="2" /><path d="M13.8631 5.67983C17.2916 3.92938 17.1251 2.68028 18.0622 2.01555C18.3557 1.88862 19.2716 2.46754 20.1767 3.28985C21.2027 4.22211 22.17 5.50263 21.9779 5.99628C21.3543 6.69231 20.0862 6.98319 18.7047 9.52817C16.9362 12.4935 14.4751 13.3921 13.0604 13.9085L13.0243 13.9217C12.7108 14.0362 12.3553 14.003 12.0997 13.7883C11.6727 13.4295 11.344 13.0471 11.052 12.7635C9.99414 11.8001 9.99414 11.5296 9.99414 11.2752C10.0554 10.2461 12.1171 6.74924 13.8631 5.67983Z" stroke="currentColor" stroke-linecap="round" stroke-linejoin="round" stroke-width="1.5" /></svg>