<svg xmlns="http://www.w3.org/2000/svg" width="24" height="24" viewBox="0 0 24 24" fill="none"><path d="M7 18V17.8M7.25 18C7.25 17.8619 7.13807 17.75 7 17.75C6.86193 17.75 6.75 17.8619 6.75 18C6.75 18.1381 6.86193 18.25 7 18.25C7.13807 18.25 7.25 18.1381 7.25 18Z" stroke="currentColor" stroke-linecap="round" stroke-linejoin="round" stroke-width="1.5" /><path d="M11 18V17.8M11.25 18C11.25 17.8619 11.1381 17.75 11 17.75C10.8619 17.75 10.75 17.8619 10.75 18C10.75 18.1381 10.8619 18.25 11 18.25C11.1381 18.25 11.25 18.1381 11.25 18Z" stroke="currentColor" stroke-linecap="round" stroke-linejoin="round" stroke-width="1.5" /><path d="M8 5.99997C8 5.99997 10.946 2.00001 12 2C13.0541 1.99999 16 6 16 6M12 3V10" stroke="currentColor" stroke-linecap="round" stroke-linejoin="round" stroke-width="1.5" /><path d="M17 14H7C5.59987 14 4.8998 14 4.36502 14.2725C3.89462 14.5122 3.51217 14.8946 3.27248 15.365C3 15.8998 3 16.5999 3 18C3 19.4001 3 20.1002 3.27248 20.635C3.51217 21.1054 3.89462 21.4878 4.36502 21.7275C4.8998 22 5.59987 22 7 22H17C18.4001 22 19.1002 22 19.635 21.7275C20.1054 21.4878 20.4878 21.1054 20.7275 20.635C21 20.1002 21 19.4001 21 18C21 16.5999 21 15.8998 20.7275 15.365C20.4878 14.8946 20.1054 14.5122 19.635 14.2725C19.1002 14 18.4001 14 17 14Z" stroke="currentColor" stroke-linecap="round" stroke-linejoin="round" stroke-width="1.5" /></svg>