<svg xmlns="http://www.w3.org/2000/svg" width="24" height="24" viewBox="0 0 24 24" fill="none"><path d="M2 10L2.09969 10.0498C3.34939 10.6747 4.72741 11 6.12461 11H17.8754C19.2726 11 20.6506 10.6747 21.9003 10.0498L22 10" stroke="currentColor" stroke-linecap="round" stroke-linejoin="round" stroke-width="1.5" /><path d="M4.5 10.5L6.19034 4.97204C6.58942 3.6669 8.12011 3.14184 9.20886 3.93661C10.015 4.52505 11.0563 4.66044 11.9809 4.29702L13.3004 3.77837C14.8952 3.15152 15.6926 2.83809 16.384 3.08379C16.53 3.13565 16.6696 3.20462 16.8 3.28932C17.4178 3.69061 17.6727 4.52397 18.1823 6.19069L19.5 10.5" stroke="currentColor" stroke-linecap="round" stroke-linejoin="round" stroke-width="1.5" /><path d="M17 21C18.6569 21 20 19.6569 20 18C20 16.3431 18.6569 15 17 15C15.3431 15 14 16.3431 14 18C14 19.6569 15.3431 21 17 21Z" stroke="currentColor" stroke-linecap="round" stroke-linejoin="round" stroke-width="1.5" /><path d="M14 18C14 16.8954 13.1046 16 12 16C10.8954 16 10 16.8954 10 18" stroke="currentColor" stroke-linecap="round" stroke-linejoin="round" stroke-width="1.5" /><path d="M7 21C8.65685 21 10 19.6569 10 18C10 16.3431 8.65685 15 7 15C5.34315 15 4 16.3431 4 18C4 19.6569 5.34315 21 7 21Z" stroke="currentColor" stroke-linecap="round" stroke-linejoin="round" stroke-width="1.5" /></svg>