<svg xmlns="http://www.w3.org/2000/svg" width="24" height="24" viewBox="0 0 24 24" fill="none" stroke-width="1.5" stroke-linecap="round" stroke-linejoin="round" color="currentColor"><path d="M12.0087 16.082L12.0187 16.072C14.8538 16.072 17.4829 15.7458 19.3412 15.173L21.1778 16.6423C21.2178 16.6823 21.2478 16.7323 21.2478 16.7823C21.2478 16.8323 21.2178 16.8823 21.1778 16.9023C18.8978 17.9723 15.5478 18.5823 11.9978 18.5823C8.44781 18.5823 5.09781 17.9723 2.81781 16.9023C2.77781 16.8823 2.74781 16.8423 2.74781 16.7823C2.74781 16.7323 2.81781 16.6423 2.81781 16.6423L4.65427 15.1731C6.5144 15.7521 9.15737 16.082 12.0087 16.082ZM4.17873 10.592L3.80374 13.9395L1.88781 15.4723C1.48781 15.7923 1.25781 16.2723 1.25781 16.7823C1.25781 17.4123 1.61781 18.0023 2.18781 18.2623C4.66561 19.4212 8.24147 20.0811 11.9978 20.0823H11.9878H12.0078H11.9978C15.7642 20.0811 19.34 19.4212 21.8078 18.2623C22.3678 18.0023 22.7378 17.4223 22.7378 16.7823C22.7378 16.2723 22.5078 15.7923 22.1078 15.4723L20.2281 13.9685L19.8487 10.582C19.5587 7.94203 19.3987 6.49203 18.3287 5.53203C17.2587 4.58203 15.7888 4.58203 13.1388 4.58203H10.8787C8.22878 4.58203 6.76872 4.58203 5.68873 5.54202C4.62873 6.50202 4.46873 7.95203 4.17873 10.592ZM5.31873 13.802H5.32873L5.66873 10.752C5.93873 8.25203 6.07873 7.21203 6.68873 6.66203C7.33873 6.08203 8.51873 6.08203 10.8787 6.08203H13.1388C15.4988 6.08203 16.6887 6.08203 17.3287 6.65202C17.9487 7.20202 18.0787 8.24203 18.3587 10.752L18.6987 13.802C16.9987 14.292 14.5687 14.582 12.0087 14.582C9.44873 14.582 7.00873 14.292 5.31873 13.802ZM11.0078 11.082H13.0078C13.4178 11.082 13.7578 10.742 13.7578 10.332C13.7578 9.92203 13.4178 9.58203 13.0078 9.58203H11.0078C10.5978 9.58203 10.2578 9.92203 10.2578 10.332C10.2578 10.742 10.5978 11.082 11.0078 11.082Z" fill="currentColor"></path></svg>