<svg xmlns="http://www.w3.org/2000/svg" width="24" height="24" viewBox="0 0 24 24" fill="none"><path d="M6 7H18C18.93 7 19.395 7 19.7765 7.10222C20.8117 7.37962 21.6204 8.18827 21.8978 9.22354C22 9.60504 22 10.07 22 11V12.5125C22 13.8863 20.8863 15 19.5125 15C19.1984 15 18.9113 15.1774 18.7708 15.4584L18.75 15.5C18.2903 16.4193 17.3508 17 16.3229 17H7.67705C6.64924 17 5.70965 16.4193 5.25 15.5L5.22918 15.4584C5.08872 15.1774 4.80161 15 4.48754 15C3.11371 15 2 13.8863 2 12.5125V11C2 10.07 2 9.60504 2.10222 9.22354C2.37962 8.18827 3.18827 7.37962 4.22354 7.10222C4.60504 7 5.07003 7 6 7Z" stroke="currentColor" stroke-linecap="round" stroke-linejoin="round" stroke-width="1.5" /><path d="M7 11H17" stroke="currentColor" stroke-linecap="round" stroke-linejoin="round" stroke-width="1.5" /></svg>