<svg xmlns="http://www.w3.org/2000/svg" width="24" height="24" viewBox="0 0 24 24" fill="none"><path d="M3.5 6V18M11.5 6V18M3.5 12H11.5" stroke="currentColor" stroke-linecap="round" stroke-linejoin="round" stroke-width="1.5" /><path d="M16.5 16V15.6C16.5 15.0399 16.5 14.7599 16.609 14.546C16.7049 14.3578 16.8578 14.2049 17.046 14.109C17.2599 14 17.5399 14 18.1 14H18.5C18.965 14 19.1975 14 19.3882 14.0511C19.9059 14.1898 20.3102 14.5941 20.4489 15.1118C20.5 15.3025 20.5 15.535 20.5 16C20.5 16.465 20.5 16.6975 20.4489 16.8882C20.3102 17.4059 19.9059 17.8102 19.3882 17.9489C19.1975 18 18.965 18 18.5 18C18.035 18 17.8025 18 17.6118 17.9489C17.0941 17.8102 16.6898 17.4059 16.5511 16.8882C16.5 16.6975 16.5 16.465 16.5 16ZM16.5 16V13C16.5 11.5858 16.5 10.8787 16.9393 10.4393C17.3787 10 18.0858 10 19.5 10H20.5" stroke="currentColor" stroke-linecap="round" stroke-linejoin="round" stroke-width="1.5" /></svg>