<svg xmlns="http://www.w3.org/2000/svg" width="24" height="24" viewBox="0 0 24 24" fill="none"><path d="M3.5 6V18M11.5 6V18M3.5 12H11.5" stroke="currentColor" stroke-linecap="round" stroke-linejoin="round" stroke-width="1.5" /><path d="M20.5 10H18.5C18.035 10 17.8025 10 17.6118 10.0511C17.0941 10.1898 16.6898 10.5941 16.5511 11.1118C16.5 11.3025 16.5 11.535 16.5 12C16.5 12.465 16.5 12.6975 16.5511 12.8882C16.6898 13.4059 17.0941 13.8102 17.6118 13.9489C17.8025 14 18.035 14 18.5 14C18.965 14 19.1975 14 19.3882 14.0511C19.9059 14.1898 20.3102 14.5941 20.4489 15.1118C20.5 15.3025 20.5 15.535 20.5 16C20.5 16.465 20.5 16.6975 20.4489 16.8882C20.3102 17.4059 19.9059 17.8102 19.3882 17.9489C19.1975 18 18.965 18 18.5 18H16.5" stroke="currentColor" stroke-linecap="round" stroke-linejoin="round" stroke-width="1.5" /></svg>