<svg xmlns="http://www.w3.org/2000/svg" width="24" height="24" viewBox="0 0 24 24" fill="none"><path d="M8.97651 19.6043L7.23857 14.6127C7.05341 14.1466 6.4617 13.9131 5.97493 14.0297C4.46441 14.5333 3.6462 16.1718 4.14742 17.6895L4.58543 19.0158C5.08664 20.5334 6.71747 21.3555 8.22799 20.8519C8.68896 20.6556 9.10449 20.0897 8.97651 19.6043Z" stroke="currentColor" stroke-linecap="round" stroke-linejoin="round" stroke-width="1.5" /><path d="M3 3L21 21" stroke="currentColor" stroke-linecap="round" stroke-linejoin="round" stroke-width="1.5" /><path d="M16.2065 16.207L15.0235 19.6048C14.8955 20.0902 15.311 20.6561 15.772 20.8524C17.1843 21.3232 18.7018 20.6352 19.3028 19.3033" stroke="currentColor" stroke-linecap="round" stroke-linejoin="round" stroke-width="1.5" /><path d="M3.91512 17C3.41512 15.5 3 13.4368 3 12C3 9.51472 4.00736 7.26472 5.63604 5.63604M7.95702 3.95702C9.17263 3.34477 10.546 3 12 3C16.9706 3 21 7.02944 21 12C21 13.224 20.6987 14.9026 20.3004 16.3004" stroke="currentColor" stroke-linecap="round" stroke-linejoin="round" stroke-width="1.5" /></svg>