<svg xmlns="http://www.w3.org/2000/svg" width="24" height="24" viewBox="0 0 24 24" fill="none"><path d="M8.97651 19.6041L7.23857 14.6125C7.05341 14.1464 6.4617 13.9128 5.97493 14.0295C4.46441 14.533 3.6462 16.1716 4.14742 17.6892L4.58543 19.0155C5.08664 20.5332 6.71747 21.3552 8.22799 20.8516C8.68896 20.6553 9.10449 20.0895 8.97651 19.6041Z" stroke="currentColor" stroke-linecap="round" stroke-linejoin="round" stroke-width="1.5" /><path d="M3 2.99976L21 20.9998" stroke="currentColor" stroke-linecap="round" stroke-linejoin="round" stroke-width="1.5" /><path d="M16.2065 16.2068L15.0235 19.6046C14.8955 20.09 15.311 20.6558 15.772 20.8522C17.1843 21.323 18.7018 20.635 19.3028 19.3031" stroke="currentColor" stroke-linecap="round" stroke-linejoin="round" stroke-width="1.5" /><path d="M3.91512 16.9998C3.41512 15.4998 3 13.4366 3 11.9998C3 9.51447 4.00736 7.26447 5.63604 5.63579M7.95702 3.95678C9.17263 3.34453 10.546 2.99976 12 2.99976C16.9706 2.99976 21 7.02919 21 11.9998C21 13.2238 20.6987 14.9024 20.3004 16.3001" stroke="currentColor" stroke-linecap="round" stroke-linejoin="round" stroke-width="1.5" /></svg>