<svg xmlns="http://www.w3.org/2000/svg" width="24" height="24" viewBox="0 0 24 24" fill="none"><path d="M13 20.3025C12.1525 20.6505 11.1746 20.5389 10.4107 19.9677C7.58942 17.858 2 13.0348 2 8.69444C2 5.82563 4.10526 3.5 7 3.5C8.5 3.5 10 4 12 6C14 4 15.5 3.5 17 3.5C19.8947 3.5 22 5.82563 22 8.69444C22 9.12591 21.9448 9.56214 21.8425 10" stroke="currentColor" stroke-linecap="round" stroke-linejoin="round" stroke-width="1.5" /><path d="M14 17C14 17 15 17 16 19C16 19 19.1765 14 22 13" stroke="currentColor" stroke-linecap="round" stroke-linejoin="round" stroke-width="1.5" /></svg>