<svg xmlns="http://www.w3.org/2000/svg" width="24" height="24" viewBox="0 0 24 24" fill="none"><path d="M10.4107 19.9677C7.58942 17.858 2 13.0349 2 8.69451C2 5.82569 4.10526 3.50006 7 3.50006C8.5 3.50006 10 4.00006 12 6.00006C14 4.00006 15.5 3.50006 17 3.50006C19.8947 3.50006 22 5.82569 22 8.69451C22 13.0349 16.4106 17.858 13.5893 19.9677C12.6399 20.6777 11.3601 20.6777 10.4107 19.9677Z" stroke="currentColor" stroke-linecap="round" stroke-linejoin="round" stroke-width="1.5" /><path d="M20.0006 12.9998H16.0284C15.8164 12.9998 15.7103 12.9998 15.6186 12.9635C15.5687 12.9438 15.5225 12.9165 15.4817 12.8827C15.4068 12.8205 15.3594 12.7299 15.2645 12.5487C14.9917 12.0275 14.8553 11.7668 14.6593 11.7041C14.5563 11.6712 14.4449 11.6712 14.3418 11.7041C14.1458 11.7668 14.0094 12.0275 13.7366 12.5487L13.1168 13.7331C12.6438 14.6368 12.4074 15.0887 12.0702 15.062C11.7331 15.0353 11.5776 14.5525 11.2666 13.5868L10.802 12.1443C10.4664 11.1023 10.2986 10.5813 9.94999 10.5636C9.60136 10.5458 9.3766 11.0469 8.92709 12.049L8.76033 12.4207C8.63435 12.7016 8.57136 12.842 8.44613 12.9209C8.32089 12.9998 8.16099 12.9998 7.84118 12.9998H4.00058" stroke="currentColor" stroke-linecap="round" stroke-linejoin="round" stroke-width="1.5" /></svg>