<svg xmlns="http://www.w3.org/2000/svg" width="24" height="24" viewBox="0 0 24 24" fill="none"><path d="M18 8C18.9751 8.09652 19.6314 8.31467 20.1213 8.80768C21 9.69197 21 11.1152 21 13.9617C21 16.8082 21 18.2314 20.1213 19.1157C19.2426 20 17.8284 20 15 20H9C6.17157 20 4.75736 20 3.87868 19.1157C3 18.2314 3 16.8082 3 13.9617C3 11.1152 3 9.69197 3.87868 8.80768C4.36857 8.31467 5.02492 8.09652 6 8" stroke="currentColor" stroke-linecap="round" stroke-linejoin="round" stroke-width="1.5" /><path d="M18 20V22M6 20V22" stroke="currentColor" stroke-linecap="round" stroke-linejoin="round" stroke-width="1.5" /><path d="M12 12V16" stroke="currentColor" stroke-linecap="round" stroke-linejoin="round" stroke-width="1.5" /><path d="M16 12V16" stroke="currentColor" stroke-linecap="round" stroke-linejoin="round" stroke-width="1.5" /><path d="M8 12V16" stroke="currentColor" stroke-linecap="round" stroke-linejoin="round" stroke-width="1.5" /><path d="M14.5 8C16.2321 5 12.7679 5 14.5 2" stroke="currentColor" stroke-linecap="round" stroke-linejoin="round" stroke-width="1.5" /><path d="M9.5 8C11.2321 5 7.76795 5 9.5 2" stroke="currentColor" stroke-linecap="round" stroke-linejoin="round" stroke-width="1.5" /></svg>