<svg xmlns="http://www.w3.org/2000/svg" width="24" height="24" viewBox="0 0 24 24" fill="none" stroke-width="1.5" stroke-linecap="round" stroke-linejoin="round" color="currentColor"><path d="M22 19C22 20.6569 20.6569 22 19 22C17.3431 22 16 20.6569 16 19C16 17.3431 17.3431 16 19 16C20.6569 16 22 17.3431 22 19Z" stroke="currentColor"></path><path d="M22 5C22 6.65685 20.6569 8 19 8C17.3431 8 16 6.65685 16 5C16 3.34315 17.3431 2 19 2C20.6569 2 22 3.34315 22 5Z" stroke="currentColor"></path><path d="M16 5C13.547 5.1828 13 6.20315 13 9.65278V12M16 19C13.547 18.8172 13 17.7969 13 14.3472L13 12M13 12H10" stroke="currentColor"></path><path d="M10 12C10 14.2091 8.20914 16 6 16C3.79086 16 2 14.2091 2 12C2 9.79086 3.79086 8 6 8C8.20914 8 10 9.79086 10 12Z" stroke="currentColor"></path></svg>