<svg xmlns="http://www.w3.org/2000/svg" width="24" height="24" viewBox="0 0 24 24" fill="none" stroke-width="1.5" stroke-linecap="round" stroke-linejoin="round" color="currentColor"><path d="M6.75507 21.2436H2.75507C2.45507 21.2436 2.18507 21.0637 2.06507 20.7837C1.94507 20.5037 2.00507 20.1836 2.21507 19.9736L5.99507 16.0937C5.78507 15.5137 5.88507 14.8237 6.29507 14.2837C7.01507 13.3537 7.24507 12.5537 7.30507 12.0437C7.40507 11.2337 7.60507 10.2136 8.33507 9.49362L8.80507 9.02365C8.73507 8.83365 8.70507 8.63356 8.70507 8.43356C8.70507 7.96356 8.88507 7.52357 9.21507 7.19357L13.4551 2.96359C13.7451 2.67359 14.2251 2.67359 14.5151 2.96359C14.8051 3.25359 14.8051 3.73365 14.5151 4.02365L10.2751 8.25363C10.2151 8.31363 10.2051 8.39356 10.2051 8.43356C10.2051 8.47356 10.2051 8.55374 10.2751 8.61374L16.6251 14.9636C16.7251 15.0636 16.8851 15.0636 16.9851 14.9636L21.2151 10.7236C21.5051 10.4336 21.9851 10.4336 22.2751 10.7236C22.5651 11.0136 22.5651 11.4937 22.2751 11.7837L18.0451 16.0237C17.5551 16.5237 16.8351 16.6536 16.2151 16.4336L15.7351 16.9135C15.0251 17.6335 14.0051 17.8436 13.1951 17.9436C12.6851 18.0036 11.8851 18.2236 10.9551 18.9536C10.4151 19.3736 9.72507 19.4736 9.13507 19.2536L7.25507 21.0437C7.11507 21.1737 6.93507 21.2536 6.73507 21.2536L6.75507 21.2436ZM4.53507 19.7436H6.45507L7.97507 18.3037L6.94507 17.2737L4.53507 19.7436ZM9.57507 17.7837C9.69507 17.9037 9.90507 17.8636 10.0451 17.7636C11.2351 16.8336 12.3251 16.5336 13.0251 16.4536C13.5451 16.3936 14.2851 16.2637 14.6751 15.8637L15.0351 15.5036L9.74507 10.2136L9.38507 10.5737C8.98507 10.9637 8.85507 11.6636 8.78507 12.2336C8.70507 12.9336 8.40507 14.0236 7.47507 15.2136C7.35507 15.3636 7.34507 15.5736 7.45507 15.6836L9.56507 17.7937L9.57507 17.7837Z" fill="currentColor"></path></svg>