<svg xmlns="http://www.w3.org/2000/svg" width="24" height="24" viewBox="0 0 24 24" fill="none" stroke-width="1.5" stroke-linecap="round" stroke-linejoin="round" color="currentColor"><path d="M12 5C10.3431 5 9 6.34315 9 8V10C9 11.6569 10.3431 13 12 13C13.6569 13 15 11.6569 15 10V8C15 6.34315 13.6569 5 12 5Z" stroke="currentColor"></path><path d="M15 10C15 12.5 14.68 14.4 11.2667 16C7.85333 17.6 7 19.8333 7 21" stroke="currentColor"></path><path d="M9 8H15" stroke="currentColor"></path><path d="M17.8022 7.51864C17.8022 4.47078 15.2045 2 12 2C8.79554 2 6.19782 4.47078 6.19782 7.51864C6.19782 9.61659 5.45992 13.4691 3.05841 16.4349C2.31105 17.3578 1.93737 17.8193 2.00859 18.244C2.0798 18.6687 2.48003 18.9288 3.28049 19.4489C8.51571 22.8504 15.4843 22.8504 20.7195 19.4489C21.52 18.9288 21.9202 18.6687 21.9914 18.244C22.0626 17.8193 21.689 17.3578 20.9416 16.4349C18.5401 13.4691 17.8022 9.61659 17.8022 7.51864Z" stroke="currentColor"></path></svg>