<svg xmlns="http://www.w3.org/2000/svg" width="24" height="24" viewBox="0 0 24 24" fill="none" stroke-width="1.5" stroke-linecap="round" stroke-linejoin="round" color="currentColor"><path d="M8.99944 22L8.74881 18.4911C8.61406 16.6046 10.1082 15 11.9994 15C13.8907 15 15.3848 16.6046 15.2501 18.4911L14.9994 22" stroke="currentColor"></path><path d="M2.35151 13.2135C1.99849 10.9162 1.82198 9.76763 2.25629 8.74938C2.69059 7.73112 3.65415 7.03443 5.58126 5.64106L7.02111 4.6C9.41841 2.86667 10.6171 2 12.0001 2C13.3832 2 14.5818 2.86667 16.9791 4.6L18.419 5.64106C20.3461 7.03443 21.3097 7.73112 21.744 8.74938C22.1783 9.76763 22.0018 10.9162 21.6487 13.2135L21.3477 15.1724C20.8473 18.4289 20.597 20.0572 19.4291 21.0286C18.2612 22 16.5538 22 13.1389 22H10.8613C7.44646 22 5.73903 22 4.57112 21.0286C3.40321 20.0572 3.15299 18.4289 2.65255 15.1724L2.35151 13.2135Z" stroke="currentColor"></path></svg>