<svg xmlns="http://www.w3.org/2000/svg" width="24" height="24" viewBox="0 0 24 24" fill="none" stroke-width="1.5" stroke-linecap="round" stroke-linejoin="round" color="currentColor"><path d="M3 11.9896V14.5C3 17.7998 3 19.4497 4.02513 20.4749C5.05025 21.5 6.70017 21.5 10 21.5H14C17.2998 21.5 18.9497 21.5 19.9749 20.4749C21 19.4497 21 17.7998 21 14.5V11.9896C21 10.3083 21 9.46773 20.6441 8.74005C20.2882 8.01237 19.6247 7.49628 18.2976 6.46411L16.2976 4.90855C14.2331 3.30285 13.2009 2.5 12 2.5C10.7991 2.5 9.76689 3.30285 7.70242 4.90855L5.70241 6.46411C4.37533 7.49628 3.71179 8.01237 3.3559 8.74005C3 9.46773 3 10.3083 3 11.9896Z" fill="none"></path><path d="M15.0002 17C14.2007 17.6224 13.1504 18 12.0002 18C10.8499 18 9.79971 17.6224 9.00018 17" fill="none"></path></svg>