<svg xmlns="http://www.w3.org/2000/svg" width="24" height="24" viewBox="0 0 24 24" fill="none"><path d="M22 10.5L12.8825 2.82207C12.6355 2.61407 12.3229 2.5 12 2.5C11.6771 2.5 11.3645 2.61407 11.1175 2.82207L2 10.5" stroke="currentColor" stroke-linecap="round" stroke-linejoin="round" stroke-width="1.5" /><path d="M20.5 9.5V16C20.5 18.3456 20.5 19.5184 19.8801 20.3263C19.7205 20.5343 19.5343 20.7205 19.3263 20.8801C18.5184 21.5 17.3456 21.5 15 21.5V17C15 15.5858 15 14.8787 14.5607 14.4393C14.1213 14 13.4142 14 12 14C10.5858 14 9.87868 14 9.43934 14.4393C9 14.8787 9 15.5858 9 17V21.5C6.65442 21.5 5.48164 21.5 4.67372 20.8801C4.46572 20.7205 4.27954 20.5343 4.11994 20.3263C3.5 19.5184 3.5 18.3456 3.5 16V9.5" stroke="currentColor" stroke-linecap="round" stroke-linejoin="round" stroke-width="1.5" /></svg>