<svg xmlns="http://www.w3.org/2000/svg" width="24" height="24" viewBox="0 0 24 24" fill="none"><path d="M2 10L11.1076 2.80982C11.3617 2.60915 11.6761 2.5 12 2.5C12.3239 2.5 12.6383 2.60915 12.8924 2.80982L16.5 5.65789V4C16.5 3.44772 16.9477 3 17.5 3H18.5C19.0523 3 19.5 3.44771 19.5 4V8.02632L22 10" stroke="currentColor" stroke-linecap="round" stroke-linejoin="round" stroke-width="1.5" /><path d="M20 11.5V15.5C20 18.3284 20 19.7426 19.1213 20.6213C18.2426 21.5 16.8284 21.5 14 21.5H10C7.17157 21.5 5.75736 21.5 4.87868 20.6213C4 19.7426 4 18.3284 4 15.5V11.5" stroke="currentColor" stroke-linecap="round" stroke-linejoin="round" stroke-width="1.5" /><path d="M15.0011 15.5C14.2016 16.1224 13.1513 16.5 12.0011 16.5C10.8509 16.5 9.80062 16.1224 9.0011 15.5" stroke="currentColor" stroke-linecap="round" stroke-linejoin="round" stroke-width="1.5" /></svg>