<svg xmlns="http://www.w3.org/2000/svg" width="24" height="24" viewBox="0 0 24 24" fill="none" stroke-width="1.5" stroke-linecap="round" stroke-linejoin="round" color="currentColor"><path d="M3.16405 11.3497L4 11.5587L4.45686 16.1005C4.715 18.6668 4.84407 19.9499 5.701 20.7249C6.55793 21.5 7.84753 21.5 10.4267 21.5H13.5733C16.1525 21.5 17.4421 21.5 18.299 20.7249C19.1559 19.9499 19.285 18.6668 19.5431 16.1005L20 11.5587L20.836 11.3497C21.5201 11.1787 22 10.564 22 9.85882C22 9.35735 21.7553 8.88742 21.3445 8.59985L13.1469 2.86154C12.4583 2.37949 11.5417 2.37949 10.8531 2.86154L2.65549 8.59985C2.24467 8.88742 2 9.35735 2 9.85882C2 10.564 2.47993 11.1787 3.16405 11.3497Z" stroke="currentColor"></path></svg>