<svg xmlns="http://www.w3.org/2000/svg" width="24" height="24" viewBox="0 0 24 24" fill="none"><path d="M22 10.5L12.8825 2.82207C12.6355 2.61407 12.3229 2.5 12 2.5C11.6771 2.5 11.3645 2.61407 11.1175 2.82207L2 10.5" stroke="currentColor" stroke-linecap="round" stroke-linejoin="round" stroke-width="1.5" /><path d="M20.5 5V15.5C20.5 18.3284 20.5 19.7426 19.6213 20.6213C18.7426 21.5 17.3284 21.5 14.5 21.5H9.5C6.67157 21.5 5.25736 21.5 4.37868 20.6213C3.5 19.7426 3.5 18.3284 3.5 15.5V9.5" stroke="currentColor" stroke-linecap="round" stroke-linejoin="round" stroke-width="1.5" /><path d="M15 21.5V16.5C15 15.0858 15 14.3787 14.5607 13.9393C14.1213 13.5 13.4142 13.5 12 13.5C10.5858 13.5 9.87868 13.5 9.43934 13.9393C9 14.3787 9 15.0858 9 16.5V21.5" stroke="currentColor" stroke-linecap="round" stroke-linejoin="round" stroke-width="1.5" /></svg>