<svg xmlns="http://www.w3.org/2000/svg" width="24" height="24" viewBox="0 0 24 24" fill="none"><path d="M12.0001 15.0896C11.4414 15.8159 10.0555 17.2304 8.44234 17.8979C7.88978 18.1266 7.26284 17.9643 6.89836 17.4793C6.11291 16.4341 5.25782 14.5445 5.56364 12" stroke="currentColor" stroke-linecap="round" stroke-linejoin="round" stroke-width="1.5" /><path d="M6.30227 11.7295C5.3401 12.0268 4.85902 12.1755 4.34178 11.6582C3.82454 11.141 3.97319 10.6599 4.27048 9.69773C5.29014 6.39767 8.36507 4 12 4C12 7.63494 9.60233 10.7099 6.30227 11.7295Z" stroke="currentColor" stroke-linecap="round" stroke-linejoin="round" stroke-width="1.5" /><path d="M17.6977 11.7295C18.6599 12.0268 19.141 12.1755 19.6582 11.6582C20.1755 11.141 20.0268 10.6599 19.7295 9.69773C18.7099 6.39767 15.6349 4 12 4C12 7.63494 14.3977 10.7099 17.6977 11.7295Z" stroke="currentColor" stroke-linecap="round" stroke-linejoin="round" stroke-width="1.5" /><path d="M12 4V2" stroke="currentColor" stroke-linecap="round" stroke-linejoin="round" stroke-width="1.5" /><path d="M11.9999 15.0896C12.5585 15.8159 13.9444 17.2304 15.5576 17.8979C16.1102 18.1266 16.7371 17.9643 17.1016 17.4793C17.887 16.4341 18.7421 14.5445 18.4363 12" stroke="currentColor" stroke-linecap="round" stroke-linejoin="round" stroke-width="1.5" /><path d="M14.9999 10.5C14.5999 12.5 12.8332 14.3333 11.9999 15C11.1665 14.3333 9.39988 12.5 8.99988 10.5" stroke="currentColor" stroke-linecap="round" stroke-linejoin="round" stroke-width="1.5" /><path d="M15.5001 18C15.2254 18.7508 14.3847 20.343 12.978 21.6142C12.4087 22.1286 11.5914 22.1286 11.0221 21.6142C9.61545 20.343 8.77477 18.7508 8.50006 18" stroke="currentColor" stroke-linecap="round" stroke-linejoin="round" stroke-width="1.5" /></svg>