<svg xmlns="http://www.w3.org/2000/svg" width="24" height="24" viewBox="0 0 24 24" fill="none" stroke-width="1.5" stroke-linecap="round" stroke-linejoin="round" color="currentColor"><path d="M3.25 22.271C3.25 22.681 3.59 23.021 4 23.021V23.031C4.41 23.031 4.75 22.691 4.75 22.281V12.781C4.75 12.341 4.93 11.911 5.24 11.601C5.39085 11.4502 5.57408 11.3291 5.77906 11.2398C6.00998 13.0888 7.58875 14.521 9.5 14.521C11.57 14.521 13.25 12.841 13.25 10.771V10.5131C13.3129 10.4705 13.3762 10.4264 13.44 10.381C13.56 10.291 13.66 10.161 13.71 10.011L14.38 8.01096C14.87 6.52096 16.11 5.39095 17.68 5.00095C17.81 4.96095 17.93 4.901 18.03 4.801L19.03 3.801C19.32 3.511 19.32 3.03094 19.03 2.74094C18.74 2.45094 18.26 2.45094 17.97 2.74094L17.11 3.60104C15.14 4.17104 13.59 5.62099 12.95 7.54099L12.36 9.301C10.65 10.441 9.48 10.2111 7.9 9.73105C6.78879 9.40091 5.64516 9.53107 4.7667 10.0694L4.11 9.74097C3.83 9.59097 3.53 9.521 3.21 9.521C2.13 9.521 1.25 10.4011 1.25 11.4811V15.271C1.25 15.681 1.59 16.021 2 16.021V16.031C2.41 16.031 2.75 15.691 2.75 15.281V11.491C2.75 11.161 3.11 10.9111 3.42 11.0811L3.66484 11.2035C3.39679 11.6757 3.25 12.219 3.25 12.771V22.271ZM11.6794 11.3309C10.1451 11.8796 8.84541 11.5902 7.47 11.171C7.40592 11.1519 7.3416 11.1353 7.27724 11.1211C7.44605 12.1956 8.37904 13.021 9.5 13.021C10.5468 13.021 11.4297 12.3012 11.6794 11.3309ZM19.9704 11.301C20.1104 11.441 20.3004 11.5209 20.5004 11.5209L20.5104 11.5309C21.3704 11.5309 22.2604 10.941 22.6804 10.111C22.7904 9.88102 22.7804 9.60092 22.6404 9.38092L20.1404 5.38092C19.9204 5.03092 19.4604 4.92093 19.1104 5.14093C18.7604 5.36093 18.6504 5.82096 18.8704 6.17096L21.1004 9.74091C21.0004 9.83091 20.8804 9.911 20.7604 9.961L19.5304 8.74091C19.3904 8.60091 19.2004 8.52094 19.0004 8.52094C18.4504 8.52094 17.9004 8.09094 17.7104 7.53094C17.5804 7.14094 17.1504 6.94097 16.7604 7.06097C16.3704 7.19097 16.1604 7.62093 16.2904 8.01093C16.3758 8.26474 16.4944 8.5028 16.6399 8.72003C16.0543 9.73387 15.9607 10.9672 16.4 12.0607C16.61 12.5807 16.66 13.1307 16.55 13.6707C16.42 14.3207 15.79 15.1707 15.08 15.6507C14.87 15.7907 14.75 16.0207 14.75 16.2707V22.2707C14.75 22.6807 15.09 23.0207 15.5 23.0207L15.49 23.0307C15.9 23.0307 16.24 22.6907 16.24 22.2807V16.6607C17.02 16.0307 17.81 15.0308 18.02 13.9708C18.18 13.1508 18.1 12.3007 17.79 11.5107C17.5576 10.9497 17.5692 10.3053 17.8044 9.742C18.0765 9.87511 18.3687 9.96426 18.6704 10.0009L19.9704 11.301ZM13 23.021C12.59 23.021 12.25 22.681 12.25 22.271V18.3079C11.6326 18.4624 11.0463 18.5208 10.5102 18.5208C9.46328 18.5208 8.62264 18.2981 8.13397 18.1308C7.81958 18.4131 7.50124 18.6146 7.25 18.7509V22.2709C7.25 22.6809 6.91 23.0209 6.5 23.0209C6.09 23.0209 5.75 22.6809 5.75 22.2709V18.2709C5.75 17.9509 5.96 17.6609 6.26 17.5609C6.26 17.5609 7.42 17.1509 7.79 16.0309C7.92 15.6409 8.35 15.4309 8.74 15.5609C9.13 15.6909 9.34 16.1209 9.21 16.5109C9.17037 16.6307 9.1256 16.7454 9.07653 16.8549C9.79194 17.0323 10.9467 17.1694 12.25 16.7504V16.271C12.25 15.861 12.59 15.521 13 15.521C13.41 15.521 13.75 15.861 13.75 16.271V22.271C13.75 22.681 13.41 23.021 13 23.021Z" fill="currentColor" fill-rule="evenodd"></path></svg>