<svg xmlns="http://www.w3.org/2000/svg" width="24" height="24" viewBox="0 0 24 24" fill="none" stroke-width="1.5" stroke-linecap="round" stroke-linejoin="round" color="currentColor"><path d="M4 23.021C3.59 23.021 3.25 22.681 3.25 22.271V12.771C3.25 12.219 3.39679 11.6757 3.66484 11.2035L3.42 11.0811C3.11 10.9111 2.75 11.161 2.75 11.491V15.281C2.75 15.691 2.41 16.031 2 16.031V16.021C1.59 16.021 1.25 15.681 1.25 15.271V11.4811C1.25 10.4011 2.13 9.521 3.21 9.521C3.53 9.521 3.83 9.59097 4.11 9.74097L4.7667 10.0694C5.64516 9.53107 6.78879 9.40091 7.9 9.73105C9.48 10.2111 10.65 10.441 12.36 9.301L12.95 7.54099C13.59 5.62099 15.14 4.17104 17.11 3.60104L17.97 2.74094C18.26 2.45094 18.74 2.45094 19.03 2.74094C19.32 3.03094 19.32 3.511 19.03 3.801L18.03 4.801C17.93 4.901 17.81 4.96095 17.68 5.00095C16.11 5.39095 14.87 6.52096 14.38 8.01096L13.71 10.011C13.66 10.161 13.56 10.291 13.44 10.381C11.07 12.071 9.34 11.741 7.47 11.171C6.63 10.921 5.75 11.091 5.24 11.601C4.93 11.911 4.75 12.341 4.75 12.781V22.281C4.75 22.691 4.41 23.031 4 23.031V23.021ZM20.5004 11.5209C20.3004 11.5209 20.1104 11.441 19.9704 11.301L18.6704 10.0009C18.3688 9.96426 18.0766 9.87515 17.8045 9.74208C17.5692 10.3054 17.5575 10.9501 17.79 11.5112C18.1 12.3012 18.18 13.1513 18.02 13.9713C17.81 15.0313 17.02 16.0312 16.24 16.6612V22.2812C16.24 22.6912 15.9 23.0312 15.49 23.0312L15.5 23.0212C15.09 23.0212 14.75 22.6812 14.75 22.2712V16.2712C14.75 16.0212 14.87 15.7912 15.08 15.6512C15.79 15.1712 16.42 14.3212 16.55 13.6712C16.66 13.1312 16.61 12.5812 16.4 12.0612C15.9607 10.9676 16.0543 9.73414 16.6401 8.72026C16.4945 8.50296 16.3759 8.26483 16.2904 8.01093C16.1604 7.62093 16.3704 7.19097 16.7604 7.06097C17.1504 6.93097 17.5804 7.14094 17.7104 7.53094C17.9004 8.09094 18.4504 8.52094 19.0004 8.52094C19.2004 8.52094 19.3904 8.60091 19.5304 8.74091L20.7604 9.961C20.8804 9.911 21.0004 9.83091 21.1004 9.74091L18.8704 6.17096C18.6504 5.82096 18.7604 5.36093 19.1104 5.14093C19.4604 4.92093 19.9204 5.03092 20.1404 5.38092L22.6404 9.38092C22.7804 9.60092 22.7904 9.88102 22.6804 10.111C22.2604 10.941 21.3704 11.5309 20.5104 11.5309L20.5004 11.5209ZM12.25 22.271C12.25 22.681 12.59 23.021 13 23.021C13.41 23.021 13.75 22.681 13.75 22.271V15.771C13.75 15.361 13.41 15.021 13 15.021C12.59 15.021 12.25 15.361 12.25 15.771V16.7509C10.8549 17.1994 9.62994 17.0107 8.93194 16.8175C9.04888 16.5584 9.15066 16.2705 9.23 15.9511C9.33 15.5511 9.08 15.1411 8.68 15.0411C8.27 14.9411 7.87 15.1911 7.77 15.5911C7.38 17.1411 6.3 17.5511 6.26 17.5611C5.96 17.6611 5.75 17.9511 5.75 18.2711V22.2711C5.75 22.6811 6.09 23.0211 6.5 23.0211C6.91 23.0211 7.25 22.6811 7.25 22.2711V18.7312C7.48271 18.5938 7.76782 18.391 8.05369 18.1032C8.52727 18.2724 9.40348 18.5213 10.5102 18.5213C11.0463 18.5213 11.6326 18.4629 12.25 18.3084V22.271Z" fill="currentColor" fill-rule="evenodd"></path></svg>