<svg xmlns="http://www.w3.org/2000/svg" width="24" height="24" viewBox="0 0 24 24" fill="none" stroke-width="1.5" stroke-linecap="round" stroke-linejoin="round" color="currentColor"><path d="M14.0139 22.5336C13.8039 22.5336 13.6039 22.4536 13.4539 22.2836C8.53391 16.8136 11.9439 13.2836 11.9839 13.2536C12.1639 13.0736 12.4239 13.0036 12.6739 13.0536C12.9239 13.1036 13.1239 13.2836 13.2139 13.5236C13.9139 15.3736 16.3039 15.0636 16.4039 15.0436C16.6039 15.0136 16.8039 15.0636 16.9639 15.1936L18.7339 16.5536C18.7339 16.5536 18.8139 16.5437 18.8739 16.4737L20.2239 14.8436C20.2739 14.7736 20.2739 14.6136 20.1839 14.5236L18.8939 13.1536C18.2039 12.4136 17.7439 11.4736 17.5839 10.4436C17.4439 9.55362 16.8339 8.69366 16.3639 8.23366L15.4639 7.30361C15.2639 7.10361 15.2039 6.8136 15.2939 6.5436L15.8939 4.73366C15.2639 4.93366 14.5439 5.32365 14.1839 6.09365C14.0739 6.33365 13.8339 6.50358 13.5639 6.52358C6.96391 7.07358 3.75391 12.0636 3.75391 21.7736C3.75391 22.1836 3.41391 22.5236 3.00391 22.5236C2.59391 22.5236 2.25391 22.1836 2.25391 21.7736C2.25391 11.4736 5.8839 5.85362 13.0339 5.06362C14.2639 3.07362 16.8739 3.02358 16.9939 3.02358C17.2139 2.99358 17.4639 3.13364 17.6039 3.33364C17.7439 3.53364 17.7839 3.78357 17.7139 4.01357L16.8539 6.58364L17.4239 7.16359C18.0839 7.79359 18.8739 8.94363 19.0739 10.2036C19.1839 10.9236 19.5139 11.6037 19.9939 12.1137L21.2739 13.4837C21.8539 14.0937 21.9039 15.0736 21.3939 15.7536L20.0439 17.3836C19.5539 18.0536 18.6039 18.2336 17.8739 17.7736L16.2839 16.5536C15.2239 16.6336 13.5639 16.3936 12.5039 15.2136C12.0939 16.3136 11.9639 18.3836 14.5639 21.2736C14.8439 21.5836 14.8139 22.0536 14.5039 22.3336C14.3639 22.4636 14.1839 22.5236 14.0039 22.5236L14.0139 22.5336Z" fill="currentColor"></path></svg>