<svg xmlns="http://www.w3.org/2000/svg" width="24" height="24" viewBox="0 0 24 24" fill="none" stroke-width="1.5" stroke-linecap="round" stroke-linejoin="round" color="currentColor"><path d="M12.5 2C7.80558 2 4 5.61783 4 10.0807C4 12.6325 5.0625 14.6167 7.1875 16.389C8.68532 17.6382 10.4999 19.7131 11.5893 21.3951C12.1118 22.2016 12.8507 22.2016 13.4107 21.3951C14.5553 19.7466 16.3147 17.6382 17.8125 16.389C19.9375 14.6167 21 12.6325 21 10.0807C21 5.61783 17.1944 2 12.5 2Z" stroke="currentColor"></path><path d="M10.5 7V10M10.5 13V10M14.5 7V10M14.5 13V10M14.5 10H10.5" stroke="currentColor"></path></svg>