<svg xmlns="http://www.w3.org/2000/svg" width="24" height="24" viewBox="0 0 24 24" fill="none" stroke-width="1.5" stroke-linecap="round" stroke-linejoin="round" color="currentColor"><path d="M11.25 6.02215V4.5H9.5C9.09 4.5 8.75 4.16 8.75 3.75C8.75 3.34 9.09 3 9.5 3H14.5C14.91 3 15.25 3.34 15.25 3.75C15.25 4.16 14.91 4.5 14.5 4.5H12.75V6.02224C16.826 6.37093 20.1698 9.53086 20.6789 13.6504C20.7089 13.8604 20.9489 14.1404 21.3389 14.3704C21.9489 14.7704 22.3589 15.4003 22.4789 16.0903L22.7189 17.0603C22.7689 17.2803 22.7189 17.5202 22.5789 17.7002C22.4389 17.8802 22.2189 17.9902 21.9889 17.9902L21.9989 18.0002H1.9989C1.7689 18.0002 1.54887 17.8902 1.40887 17.7102C1.26887 17.5302 1.21892 17.2903 1.26892 17.0703L1.51892 16.0503C1.62892 15.4103 2.03891 14.7804 2.63891 14.3904C2.63891 14.3904 2.64887 14.3904 2.65887 14.3804C3.04887 14.1404 3.2889 13.8704 3.3189 13.6504C3.82805 9.53954 7.17301 6.37087 11.25 6.02215ZM21.0489 16.5002H2.96106L2.98889 16.3704C3.03889 16.0804 3.20892 15.8302 3.45892 15.6602C4.25892 15.1702 4.71889 14.5403 4.80889 13.8503C5.25889 10.2403 8.34891 7.51025 12.0089 7.51025C15.6689 7.51025 18.7589 10.2303 19.2089 13.8503C19.2989 14.5403 19.7689 15.1704 20.5489 15.6504C20.7989 15.8104 20.9689 16.0702 21.0289 16.4102L21.0489 16.5002ZM22.75 20.75C22.75 21.16 22.41 21.5 22 21.5H2C1.59 21.5 1.25 21.16 1.25 20.75C1.25 20.34 1.59 20 2 20H22C22.41 20 22.75 20.34 22.75 20.75ZM20.4999 9.50014C20.2199 9.50014 19.9599 9.35022 19.8299 9.08022C19.6399 8.71022 19.7899 8.26021 20.1699 8.07021L21.1699 7.57021C21.5399 7.39021 21.9899 7.53005 22.1799 7.91005C22.3699 8.28005 22.22 8.73006 21.84 8.92006L20.84 9.42006C20.73 9.47006 20.6199 9.50014 20.5099 9.50014H20.4999ZM18.4999 7.50014C18.3899 7.50014 18.2699 7.47006 18.1699 7.42006C17.7999 7.23006 17.6499 6.78005 17.8299 6.41005L18.3299 5.41005C18.5199 5.04005 18.97 4.89021 19.34 5.07021C19.71 5.26021 19.8599 5.71022 19.6799 6.08022L19.1799 7.08022C19.0499 7.34022 18.7799 7.50014 18.5099 7.50014H18.4999ZM3.16991 9.41989C3.26991 9.46989 3.38993 9.49997 3.49993 9.49997H3.50994C3.77994 9.49997 4.04992 9.34005 4.17992 9.08005C4.35992 8.71005 4.20996 8.26004 3.83996 8.07004L2.83996 7.57004C2.46996 7.39004 2.01995 7.53988 1.82995 7.90988C1.64995 8.27988 1.79991 8.72989 2.16991 8.91989L3.16991 9.41989ZM4.82995 7.08005C4.95995 7.35005 5.21993 7.49997 5.49993 7.49997H5.50994C5.61994 7.49997 5.72996 7.46989 5.83996 7.41989C6.21996 7.22989 6.36992 6.77988 6.17992 6.40988L5.67992 5.40988C5.48992 5.02988 5.03991 4.88004 4.66991 5.07004C4.28991 5.26004 4.13995 5.71005 4.32995 6.08005L4.82995 7.08005Z" fill="currentColor" fill-rule="evenodd"></path></svg>