<svg xmlns="http://www.w3.org/2000/svg" width="24" height="24" viewBox="0 0 24 24" fill="none"><path d="M3 11.9896V14.5C3 17.7998 3 19.4497 4.02513 20.4749C5.05025 21.5 6.70017 21.5 10 21.5H14C17.2998 21.5 18.9497 21.5 19.9749 20.4749C21 19.4497 21 17.7998 21 14.5V11.9896C21 10.3083 21 9.46773 20.6441 8.74005C20.2882 8.01237 19.6247 7.49628 18.2976 6.46411L16.2976 4.90855C14.2331 3.30285 13.2009 2.5 12 2.5C10.7991 2.5 9.76689 3.30285 7.70242 4.90855L5.70241 6.46411C4.37533 7.49628 3.71179 8.01237 3.3559 8.74005C3 9.46773 3 10.3083 3 11.9896Z" stroke="currentColor" stroke-linecap="round" stroke-linejoin="round" stroke-width="1.5" /><path d="M11.3643 17.2808C10.2358 16.4121 8 14.4261 8 12.6389C8 11.4576 8.84211 10.5 10 10.5C10.6 10.5 11.2 10.7059 12 11.5294C12.8 10.7059 13.4 10.5 14 10.5C15.1579 10.5 16 11.4576 16 12.6389C16 14.4261 13.7642 16.4121 12.6357 17.2808C12.256 17.5731 11.744 17.5731 11.3643 17.2808Z" stroke="currentColor" stroke-linecap="round" stroke-linejoin="round" stroke-width="1.5" /></svg>