<svg xmlns="http://www.w3.org/2000/svg" width="24" height="24" viewBox="0 0 24 24" fill="none"><path d="M17.995 15.5V21.5M21 18.495L15 18.495" stroke="currentColor" stroke-linecap="round" stroke-linejoin="round" stroke-width="1.5" /><path d="M13 21.5H10C6.70017 21.5 5.05025 21.5 4.02513 20.4749C3 19.4497 3 17.7998 3 14.5L3 11.9896C3 10.3083 3 9.46773 3.3559 8.74005C3.71179 8.01237 4.37533 7.49628 5.70241 6.46411L7.70242 4.90855C9.76689 3.30285 10.7991 2.5 12 2.5C13.2009 2.5 14.2331 3.30285 16.2976 4.90855L18.2976 6.46411C19.6247 7.49628 20.2882 8.01237 20.6441 8.74005C21 9.46773 21 10.3083 21 11.9896V13.5" stroke="currentColor" stroke-linecap="round" stroke-linejoin="round" stroke-width="1.5" /><path d="M9 21.5V16.5C9 15.0858 9 14.3787 9.43934 13.9393C9.87868 13.5 10.5858 13.5 12 13.5C12.3821 13.5 12.7125 13.5 13 13.5087" stroke="currentColor" stroke-linecap="round" stroke-linejoin="round" stroke-width="1.5" /></svg>