<svg xmlns="http://www.w3.org/2000/svg" width="24" height="24" viewBox="0 0 24 24" fill="none"><path d="M9.99915 10.3495V12.3495" stroke="currentColor" stroke-linecap="round" stroke-linejoin="round" stroke-width="1.5" /><path d="M13.9991 10.3495V12.3495" stroke="currentColor" stroke-linecap="round" stroke-linejoin="round" stroke-width="1.5" /><path d="M13.8325 12.3495H10.1658C10.011 12.3495 9.93365 12.3495 9.86841 12.3552C9.14324 12.4186 8.5683 12.9936 8.50485 13.7188C8.49915 13.784 8.49915 13.8614 8.49915 14.0162C8.49915 14.3257 8.49915 14.4805 8.51056 14.611C8.63745 16.0613 9.78734 17.2112 11.2377 17.3381C11.3682 17.3495 11.5229 17.3495 11.8325 17.3495H12.1658C12.4754 17.3495 12.6301 17.3495 12.7606 17.3381C14.211 17.2112 15.3608 16.0613 15.4877 14.611C15.4991 14.4805 15.4991 14.3257 15.4991 14.0162C15.4991 13.8614 15.4991 13.784 15.4934 13.7188C15.43 12.9936 14.855 12.4186 14.1299 12.3552C14.0646 12.3495 13.9873 12.3495 13.8325 12.3495Z" stroke="currentColor" stroke-linecap="round" stroke-linejoin="round" stroke-width="1.5" /><path d="M11.9991 17.3495V21.3495" stroke="currentColor" stroke-linecap="round" stroke-linejoin="round" stroke-width="1.5" /><path d="M15.9991 21.3495C17.8684 21.3495 18.803 21.3495 19.4991 20.9476C19.9552 20.6843 20.3339 20.3056 20.5972 19.8495C20.9991 19.1533 20.9991 18.2187 20.9991 16.3495V11.784C20.9991 10.3429 20.9991 9.62242 20.6941 8.9987C20.389 8.37497 19.8203 7.93261 18.6828 7.04789L15.6828 4.71456C13.9132 3.33824 13.0285 2.65009 11.9991 2.65009C10.9698 2.65009 10.085 3.33824 8.3155 4.71456L5.3155 7.04789C4.178 7.93261 3.60925 8.37497 3.3042 8.9987C2.99915 9.62242 2.99915 10.3429 2.99915 11.784V16.3495C2.99915 18.2187 2.99915 19.1533 3.40107 19.8495C3.66437 20.3056 4.04309 20.6843 4.49915 20.9476C5.1953 21.3495 6.12991 21.3495 7.99915 21.3495" stroke="currentColor" stroke-linecap="round" stroke-linejoin="round" stroke-width="1.5" /></svg>