<svg xmlns="http://www.w3.org/2000/svg" width="24" height="24" viewBox="0 0 24 24" fill="none"><path d="M9.5 14.3647C10.2106 13.7981 11.0929 13.4904 12.0018 13.4922C12.9106 13.494 13.7917 13.8053 14.5 14.3747M12 17.5H12.01M7 11.255C8.4189 10.119 10.1824 9.5 12 9.5C13.8176 9.5 15.5811 10.119 17 11.255" stroke="currentColor" stroke-linecap="round" stroke-linejoin="round" stroke-width="1.5" /><path d="M3 11.9896V14.5C3 17.7998 3 19.4497 4.02513 20.4749C5.05025 21.5 6.70017 21.5 10 21.5H14C17.2998 21.5 18.9497 21.5 19.9749 20.4749C21 19.4497 21 17.7998 21 14.5V11.9896C21 10.3083 21 9.46773 20.6441 8.74005C20.2882 8.01237 19.6247 7.49628 18.2976 6.46411L16.2976 4.90855C14.2331 3.30285 13.2009 2.5 12 2.5C10.7991 2.5 9.76689 3.30285 7.70242 4.90855L5.70241 6.46411C4.37533 7.49628 3.71179 8.01237 3.3559 8.74005C3 9.46773 3 10.3083 3 11.9896Z" stroke="currentColor" stroke-linecap="round" stroke-linejoin="round" stroke-width="1.5" /></svg>