<svg xmlns="http://www.w3.org/2000/svg" width="24" height="24" viewBox="0 0 24 24" fill="none"><path d="M4 11H20V22H4V11Z" stroke="currentColor" stroke-linejoin="round" stroke-width="1.5" /><path d="M14.5 22V19C14.5 18.0572 14.5 17.5858 14.2071 17.2929C13.9142 17 13.4428 17 12.5 17H11.5C10.5572 17 10.0858 17 9.79289 17.2929C9.5 17.5858 9.5 18.0572 9.5 19V22" stroke="currentColor" stroke-linejoin="round" stroke-width="1.5" /><path d="M2 9.72254C2 9.14501 2.26952 8.68201 2.81725 8.49897L10.9302 5.78773C11.7893 5.50062 12 5.0255 12 4.18608C12 3.42891 11.8761 1.9173 13.0641 2.00228C13.3438 2.02229 13.6832 2.28692 14.3619 2.81619L21.439 8.33464C21.8381 8.64581 22 9.01714 22 9.53489C22 10.4781 21.6036 11 20.6848 11H3.14677C2.40983 11 2 10.4554 2 9.72254Z" stroke="currentColor" stroke-linejoin="round" stroke-width="1.5" /><path d="M3 22H21" stroke="currentColor" stroke-linecap="round" stroke-linejoin="round" stroke-width="1.5" /><path d="M7 15H8" stroke="currentColor" stroke-linecap="round" stroke-width="1.5" /><path d="M17 15L16 15" stroke="currentColor" stroke-linecap="round" stroke-width="1.5" /><path d="M5 7.5L5 3" stroke="currentColor" stroke-linecap="round" stroke-linejoin="round" stroke-width="1.5" /></svg>