<svg xmlns="http://www.w3.org/2000/svg" width="24" height="24" viewBox="0 0 24 24" fill="none" stroke-width="1.5" stroke-linecap="round" stroke-linejoin="round" color="currentColor"><path d="M21.9922 9.0625H19.7322C19.5922 5.1825 16.1822 2.0625 11.9922 2.0625C7.80219 2.0625 4.40219 5.1825 4.25219 9.0625H1.99219C1.58219 9.0625 1.24219 9.4025 1.24219 9.8125C1.24219 10.2225 1.58219 10.5625 1.99219 10.5625H2.83219L3.48219 15.8125C3.87219 18.8925 4.06219 20.4425 5.26219 21.4925C6.47219 22.5625 8.04219 22.5625 11.1722 22.5625H12.8122C15.9322 22.5625 17.5022 22.5625 18.7222 21.4925C19.9222 20.4425 20.1122 18.8925 20.5122 15.7725L21.1622 10.5625H22.0022C22.4122 10.5625 22.7522 10.2225 22.7522 9.8125C22.7522 9.4025 22.4122 9.0625 22.0022 9.0625H21.9922ZM11.9922 3.5625C15.3422 3.5625 18.0822 6.0125 18.2322 9.0625H5.75219C5.89219 6.0125 8.63219 3.5625 11.9922 3.5625ZM19.0122 15.6225C18.6722 18.3325 18.5022 19.6825 17.7222 20.3625C16.9322 21.0525 15.5522 21.0525 12.8022 21.0525H11.1622C8.41219 21.0525 7.03219 21.0525 6.24219 20.3625C5.47219 19.6825 5.30219 18.3225 4.95219 15.5825L4.32219 10.5525H19.6222L18.9922 15.6125L19.0122 15.6225Z" fill="currentColor"></path></svg>