<svg xmlns="http://www.w3.org/2000/svg" width="24" height="24" viewBox="0 0 24 24" fill="none" stroke-width="1.5" stroke-linecap="round" stroke-linejoin="round" color="currentColor"><path d="M9.39925 11.289C8.00925 10.779 7.23925 10.489 6.74925 9.809C6.53925 9.529 6.38925 9.199 6.29925 8.839C6.08925 8.019 6.37925 7.219 6.90925 5.769L7.60925 6.029L8.30925 6.289C7.87925 7.469 7.64925 8.109 7.73925 8.489C7.77925 8.659 7.84925 8.809 7.94925 8.939C8.17925 9.249 8.78925 9.479 9.90925 9.889L10.0092 9.929C11.1992 10.369 11.8292 10.599 12.2092 10.499C12.3692 10.459 12.5192 10.389 12.6592 10.289C12.9592 10.059 13.1992 9.419 13.6192 8.269C14.0592 7.059 14.2892 6.419 14.1992 6.039C14.1592 5.869 14.0892 5.719 13.9892 5.589C13.7592 5.279 13.1492 5.049 12.0292 4.639L11.9292 4.599C11.8719 4.57827 11.8158 4.55798 11.761 4.53815C10.6791 4.14665 10.0909 3.93382 9.72925 4.029C9.56925 4.069 9.41925 4.139 9.27925 4.239C8.97925 4.469 8.73925 5.109 8.31925 6.259L7.60925 6.029L6.91925 5.739L6.92814 5.71502C7.45251 4.30016 7.74306 3.5162 8.41925 3.019C8.70925 2.809 9.01925 2.669 9.36925 2.569C10.1892 2.36154 10.9701 2.64206 12.358 3.14058L12.4092 3.159L12.5592 3.219C13.9492 3.729 14.7192 4.019 15.2092 4.699C15.4192 4.979 15.5692 5.309 15.6592 5.669C15.8692 6.489 15.5792 7.289 15.0492 8.739L15.0421 8.75823C14.5067 10.2059 14.2163 10.9912 13.5392 11.489C13.2492 11.699 12.9392 11.839 12.5892 11.939C12.4092 11.989 12.2192 12.009 12.0292 12.009C11.3692 12.009 10.6492 11.749 9.54925 11.349L9.39925 11.289ZM21.6894 15.669C21.5306 14.8255 20.9287 14.2184 19.8055 13.0854L19.7794 13.059C18.6894 11.969 18.0894 11.379 17.2594 11.229C16.9094 11.159 16.5694 11.159 16.2394 11.229C15.3958 11.3779 14.7985 11.9699 13.685 13.0736L13.6594 13.099L13.6594 13.099C12.5494 14.209 11.9394 14.819 11.7794 15.679C11.7194 16.019 11.7194 16.359 11.7794 16.689C11.9394 17.539 12.5494 18.149 13.6594 19.259L13.6994 19.299L13.725 19.3244C14.7988 20.3884 15.3961 20.9803 16.2494 21.139C16.4094 21.169 16.5694 21.179 16.7394 21.179C16.9094 21.179 17.0794 21.169 17.2594 21.139C18.0928 20.9803 18.69 20.3884 19.803 19.2851L19.8294 19.259C20.9394 18.149 21.5494 17.539 21.7094 16.689C21.7694 16.359 21.7694 16.019 21.7094 15.679L21.6894 15.669ZM18.7194 18.239L18.6724 18.2854L18.6724 18.2855C17.8222 19.1261 17.3527 19.5903 16.9894 19.659C16.8194 19.689 16.6594 19.689 16.5094 19.659C16.1262 19.5804 15.656 19.1156 14.8049 18.274L14.7594 18.229L14.7194 18.189C13.8194 17.289 13.3294 16.799 13.2594 16.399C13.2294 16.249 13.2294 16.089 13.2594 15.929C13.3282 15.5455 13.8129 15.0556 14.7039 14.1549L14.7494 14.109L14.7922 14.0667L14.7922 14.0667C15.645 13.2234 16.1159 12.7579 16.5094 12.689C16.6594 12.659 16.7994 12.659 16.9694 12.689C17.353 12.7579 17.8238 13.2235 18.7052 14.0954L18.7494 14.139C19.6494 15.039 20.1394 15.539 20.2094 15.919C20.2394 16.079 20.2394 16.239 20.2094 16.389C20.1394 16.779 19.6394 17.279 18.7094 18.209L18.7194 18.239ZM9.52 13.969C8.83 13.499 8 13.499 6.49 13.499C4.98 13.499 4.15 13.499 3.48 13.959C3.18 14.149 2.92 14.409 2.71 14.719C2.25 15.409 2.25 16.239 2.25 17.749C2.25 19.259 2.25 20.089 2.71 20.769C2.92 21.079 3.18 21.339 3.47 21.529C4.16 21.999 4.99 21.999 6.5 21.999C8.01 21.999 8.84 21.999 9.51 21.539C9.81 21.349 10.07 21.089 10.28 20.779C10.74 20.089 10.74 19.259 10.74 17.749C10.74 16.239 10.74 15.409 10.28 14.729C10.07 14.419 9.81 14.159 9.52 13.969ZM9.03 19.949C8.94 20.089 8.82 20.199 8.68 20.289C8.37 20.499 7.7 20.499 6.49 20.499C5.28 20.499 4.61 20.499 4.28 20.279C4.15 20.199 4.04 20.079 3.95 19.939C3.74 19.629 3.74 18.919 3.74 17.749C3.74 16.579 3.74 15.869 3.95 15.549C4.04 15.409 4.16 15.299 4.3 15.209C4.61 14.999 5.28 14.999 6.49 14.999C7.7 14.999 8.37 14.999 8.7 15.219C8.83 15.299 8.94 15.419 9.03 15.559C9.24 15.869 9.24 16.579 9.24 17.749C9.24 18.919 9.24 19.629 9.03 19.949Z" fill="currentColor" fill-rule="evenodd"></path></svg>