<svg xmlns="http://www.w3.org/2000/svg" width="24" height="24" viewBox="0 0 24 24" fill="none"><path d="M15 4C15.93 4 16.395 4 16.7765 4.10222C17.8117 4.37962 18.6204 5.18827 18.8978 6.22354C19 6.60504 19 7.07003 19 8V16C19 18.8284 19 20.2426 18.1213 21.1213C17.2426 22 15.8284 22 13 22H11C8.17157 22 6.75736 22 5.87868 21.1213C5 20.2426 5 18.8284 5 16V10C5 7.17157 5 5.75736 5.87868 4.87868C6.75736 4 8.17157 4 11 4" stroke="currentColor" stroke-linecap="round" stroke-linejoin="round" stroke-width="1.5" /><path d="M10 8H14" stroke="currentColor" stroke-linecap="round" stroke-linejoin="round" stroke-width="1.5" /><path d="M12 8L16 2M9.33333 4L8 2" stroke="currentColor" stroke-linecap="round" stroke-linejoin="round" stroke-width="1.5" /><path d="M14.5 14.5C14.5 13.1193 13.3807 12 12 12C10.6193 12 9.5 13.1193 9.5 14.5C9.5 15.8807 10.6193 17 12 17C13.3807 17 14.5 15.8807 14.5 14.5Z" stroke="currentColor" stroke-linecap="round" stroke-linejoin="round" stroke-width="1.5" /><path d="M7.02466 21.5C7.27552 18.9733 9.4073 17 12 17C14.5926 17 16.7244 18.9733 16.9753 21.5" stroke="currentColor" stroke-linecap="round" stroke-linejoin="round" stroke-width="1.5" /></svg>