<svg xmlns="http://www.w3.org/2000/svg" width="24" height="24" viewBox="0 0 24 24" fill="none" stroke-width="1.5" stroke-linecap="round" stroke-linejoin="round" color="currentColor"><path d="M16.2381 20.5682H18.3081C20.6481 20.5682 21.9281 20.5682 22.5381 19.4182C23.1081 18.2982 22.4781 17.1082 21.3281 14.9382L19.2581 11.0082L19.2381 10.9782L19.2305 10.9637C16.876 6.50421 15.8964 4.64877 14.2981 5.12824C12.7481 5.58824 12.7481 7.71825 12.7481 12.8782V16.8082C12.7481 18.3682 12.7481 19.2282 13.3481 19.8782C13.9781 20.5682 14.8281 20.5682 16.2381 20.5682ZM14.2481 12.8782C14.2481 9.91824 14.2481 6.85824 14.7081 6.56824L14.7181 6.55824C15.2621 6.64725 16.5298 9.03472 17.8828 11.5829L17.9281 11.6682L17.9381 11.6982L20.0081 15.6282C20.8281 17.1782 21.4181 18.2982 21.2081 18.7082C21.0281 19.0582 19.8881 19.0582 18.3081 19.0582H16.2381C15.2681 19.0582 14.6381 19.0582 14.4581 18.8682C14.2481 18.6482 14.2481 17.9182 14.2481 16.8082V12.8782ZM5.69766 20.5682H7.75766C9.16766 20.5682 10.0277 20.5682 10.6477 19.8782C11.2477 19.2282 11.2477 18.3682 11.2477 16.8082V12.8782C11.2477 7.71819 11.2477 5.58819 9.69766 5.12819C8.09842 4.65841 7.11859 6.50645 4.75101 10.9719L4.74766 10.9782L5.39766 11.3582L4.73766 11.0082L2.66766 14.9382L2.63994 14.991C1.51733 17.1277 0.892382 18.3172 1.46766 19.4182C2.07766 20.5682 3.35766 20.5682 5.69766 20.5682ZM6.06766 11.7082L5.40766 11.3582H5.41766L6.09766 11.6782L6.14479 11.5894C7.49716 9.04251 8.76374 6.65716 9.28766 6.56819C9.75766 6.85819 9.75766 9.91819 9.75766 12.8782V16.8082C9.75766 17.9182 9.75766 18.6482 9.54766 18.8782C9.36766 19.0682 8.72766 19.0682 7.76766 19.0682H5.69766C4.11766 19.0682 2.97766 19.0682 2.79766 18.7182C2.58132 18.315 3.15792 17.2253 3.95691 15.7152L3.99766 15.6382L6.06766 11.7082Z" fill="currentColor" fill-rule="evenodd"></path></svg>