<svg xmlns="http://www.w3.org/2000/svg" width="24" height="24" viewBox="0 0 24 24" fill="none" stroke-width="1.5" stroke-linecap="round" stroke-linejoin="round" color="currentColor"><path d="M7 6.56699C7.95 6.56699 8.85 6.87699 9.58 7.43699L7.29 8.08699C6.89 8.19699 6.66 8.61699 6.77 9.01699C6.88 9.41699 7.3 9.63699 7.7 9.53699L11.18 8.53699C11.18 8.53699 11.27 8.50699 11.31 8.48699C11.35 8.46699 11.39 8.44699 11.42 8.42699C11.46 8.39699 11.5 8.36699 11.53 8.33699C11.61 8.25699 11.66 8.16699 11.7 8.06699C11.72 8.00699 11.73 7.95699 11.74 7.89699V7.73699C11.74 7.69699 11.73 7.65699 11.72 7.62699L10.72 3.64699C10.62 3.24699 10.21 3.00699 9.81 3.09699C9.41 3.19699 9.16 3.60699 9.26 4.00699L9.7 5.75699C8.87 5.31699 7.94 5.07699 6.99 5.07699C3.83 5.06699 1.25 7.64699 1.25 10.817C1.25 12.067 1.65 13.257 2.4 14.267C2.55 14.467 2.77 14.567 3 14.567C3.16 14.567 3.31 14.517 3.45 14.417C3.78 14.167 3.85 13.697 3.6 13.367C3.04 12.627 2.75 11.737 2.75 10.817C2.75 8.47699 4.66 6.56699 7 6.56699ZM21.58 8.18689C20.42 7.06689 18.81 7.06689 15.6 7.06689H14C13.59 7.06689 13.25 7.40689 13.25 7.8169C13.25 8.22689 13.59 8.5669 14 8.5669H15.6C18.41 8.5669 19.82 8.5669 20.54 9.26689C21.22 9.9269 21.25 11.1369 21.25 14.0369V15.5969V16.7969L17.96 13.5469C17.35 12.9469 16.27 12.9169 15.6 13.4969L12.43 16.3669L11.24 15.2869C10.62 14.7069 9.5 14.7069 8.86 15.3369L6.77 17.4569C6.76 16.9269 6.75 16.3069 6.75 15.5769V11.7969C6.75 11.3869 6.41 11.0469 6 11.0469C5.59 11.0469 5.25 11.3869 5.25 11.7969V15.5769C5.25 18.6169 5.25 20.2969 6.42 21.4269C7.58 22.5469 9.19 22.5469 12.4 22.5469H15.6C18.82 22.5469 20.43 22.5469 21.58 21.4269C22.75 20.2969 22.75 18.6169 22.75 15.5769V14.0169C22.75 10.9769 22.75 9.2969 21.58 8.1669V8.18689ZM20.54 20.3669C19.82 21.0669 18.41 21.0669 15.6 21.0669H12.4C9.59 21.0669 8.18 21.0669 7.46 20.3669C7.22 20.1269 7.06 19.8169 6.95 19.3969C6.96183 19.389 6.97367 19.3827 6.98489 19.3767L6.98491 19.3767C7.00212 19.3674 7.01789 19.359 7.03 19.3469L9.91 16.4169C9.91 16.4169 10.15 16.3569 10.21 16.4169L11.92 17.9569C12.21 18.2169 12.64 18.2169 12.93 17.9569L16.6 14.6369C16.68 14.5669 16.85 14.5769 16.92 14.6369L20.99 18.6569C21.04 18.7069 21.11 18.7469 21.17 18.7769C21.08 19.5569 20.9 20.0469 20.55 20.3869L20.54 20.3669ZM11.4902 13.3169C10.9402 13.3169 10.4902 12.8669 10.4902 12.3169C10.4902 11.7669 10.9402 11.3169 11.4902 11.3169C12.0402 11.3169 12.4902 11.7569 12.4902 12.3169C12.4902 12.8669 12.0402 13.3169 11.4902 13.3169Z" fill="currentColor" fill-rule="evenodd"></path></svg>