<svg xmlns="http://www.w3.org/2000/svg" width="24" height="24" viewBox="0 0 24 24" fill="none" stroke-width="1.5" stroke-linecap="round" stroke-linejoin="round" color="currentColor"><path d="M17.0078 5.06904C16.0578 5.06904 15.1278 5.30904 14.2978 5.74904L14.7378 3.99904C14.8378 3.59904 14.5978 3.18904 14.1878 3.08904C13.7878 2.98904 13.3778 3.22904 13.2778 3.63904L12.2778 7.61904C12.2778 7.61904 12.2578 7.69904 12.2578 7.73904V7.87904C12.2578 7.94904 12.2778 8.00904 12.2978 8.06904C12.3278 8.16904 12.3878 8.25904 12.4678 8.33904C12.4978 8.36904 12.5278 8.39904 12.5678 8.42904C12.6078 8.45904 12.6478 8.47904 12.6878 8.49904C12.7278 8.51904 12.7778 8.53904 12.8178 8.54904L16.2978 9.54904C16.6978 9.66904 17.1078 9.42904 17.2278 9.03904C17.3478 8.64904 17.1078 8.22904 16.7078 8.10904L14.4178 7.44904C15.1478 6.88904 16.0478 6.57904 16.9978 6.57904C19.3378 6.57904 21.2478 8.48904 21.2478 10.829C21.2478 11.749 20.9578 12.639 20.3978 13.379C20.1478 13.709 20.2178 14.179 20.5478 14.429C20.6778 14.529 20.8378 14.579 20.9978 14.579C21.2278 14.579 21.4478 14.479 21.5978 14.279C22.3478 13.269 22.7478 12.079 22.7478 10.829C22.7478 7.65904 20.1678 5.07904 16.9978 5.07904L17.0078 5.06904ZM18.0078 11.0691C17.5978 11.0691 17.2578 11.4091 17.2578 11.8191V15.5991V16.7991L13.9678 13.5491C13.3578 12.9591 12.2778 12.9191 11.6078 13.4991L8.43781 16.3791L7.24781 15.2991C6.62781 14.7191 5.50781 14.7291 4.86781 15.3491L2.77781 17.4691C2.76781 16.9391 2.75781 16.3191 2.75781 15.5891V14.0291C2.75781 11.1291 2.78781 9.91908 3.46781 9.25908C4.18781 8.55908 5.59781 8.55908 8.40781 8.55908H10.0078C10.4178 8.55908 10.7578 8.21908 10.7578 7.80908C10.7578 7.39908 10.4178 7.05908 10.0078 7.05908H8.40781C5.18781 7.05908 3.57781 7.05908 2.42781 8.17908C1.25781 9.30908 1.25781 10.9891 1.25781 14.0291V15.5891C1.25781 18.6291 1.25781 20.3091 2.42781 21.4391C3.58781 22.5591 5.19781 22.5591 8.4078 22.5591H8.40781H11.6078H11.6078C14.8278 22.5591 16.4378 22.5591 17.5878 21.4391C18.7578 20.3091 18.7578 18.6291 18.7578 15.5891V11.8091C18.7578 11.3991 18.4178 11.0591 18.0078 11.0591V11.0691ZM8.40781 21.0691C5.59781 21.0691 4.18781 21.0691 3.46781 20.3691C3.22781 20.1291 3.06781 19.8191 2.95781 19.3991C2.96965 19.3912 2.98148 19.3849 2.9927 19.3789L2.99272 19.3788C3.00994 19.3696 3.02571 19.3612 3.03781 19.3491L5.91781 16.4191C5.91781 16.4191 6.15781 16.3491 6.21781 16.4191L7.92781 17.9591C8.21781 18.2191 8.64781 18.2191 8.93781 17.9591L12.6078 14.6391C12.6878 14.5691 12.8578 14.5791 12.9278 14.6391L16.9978 18.6591C17.0478 18.7091 17.1178 18.7491 17.1778 18.7791C17.0878 19.5591 16.9078 20.0491 16.5578 20.3891C15.8378 21.0891 14.4278 21.0891 11.6178 21.0891L11.6078 21.0691H8.40781ZM6.49805 12.3191C6.49805 11.7691 6.94805 11.3191 7.49805 11.3191C8.04805 11.3191 8.49805 11.7591 8.49805 12.3191C8.49805 12.8691 8.04805 13.3191 7.49805 13.3191C6.94805 13.3191 6.49805 12.8691 6.49805 12.3191Z" fill="currentColor" fill-rule="evenodd"></path></svg>