<svg xmlns="http://www.w3.org/2000/svg" width="24" height="24" viewBox="0 0 24 24" fill="none" stroke-width="1.5" stroke-linecap="round" stroke-linejoin="round" color="currentColor"><path d="M8.01219 12.058H11.9222C17.0722 12.058 19.2122 12.058 19.6722 10.508C20.1522 8.91798 18.3022 7.93798 13.8422 5.57799L13.4422 6.21799L13.7922 5.55799L9.87219 3.47799C7.63219 2.29799 6.50219 1.70799 5.40219 2.27799C4.24219 2.87799 4.24219 4.15799 4.24219 6.49799V8.57799C4.24219 9.98799 4.24219 10.848 4.93219 11.468C5.59219 12.058 6.45219 12.058 8.01219 12.058ZM6.29691 3.568C6.2191 3.56844 6.15086 3.57865 6.09219 3.60799C5.74219 3.78799 5.74219 4.92799 5.74219 6.49799V8.57799C5.74219 9.53799 5.74219 10.178 5.93219 10.348C6.16219 10.558 6.89219 10.558 8.00219 10.558H11.9222C14.8822 10.558 17.9422 10.558 18.2322 10.088C18.1422 9.55798 15.7122 8.26799 13.1322 6.90799L13.0822 6.88799L9.16219 4.80799C9.10558 4.77842 9.04957 4.74913 8.99416 4.72016C7.74169 4.0654 6.79619 3.57111 6.29691 3.568ZM5.40219 23.3481C5.69219 23.4981 5.98219 23.5681 6.29219 23.5681L6.30219 23.5581C7.17293 23.5581 8.20031 23.0196 9.82998 22.1655L9.88219 22.1381L13.8022 20.0581L13.4522 19.3981L13.8522 20.0381L13.916 20.0044C18.3298 17.6688 20.1599 16.7005 19.6822 15.1081C19.2222 13.5581 17.0922 13.5581 11.9322 13.5581H8.01219C6.45219 13.5581 5.59219 13.5581 4.93219 14.1481C4.24219 14.7781 4.24219 15.6281 4.24219 17.0381V19.1181C4.24219 21.4581 4.24219 22.7481 5.40219 23.3481ZM5.94219 15.2681C6.17219 15.0581 6.90219 15.0581 8.01219 15.0581H8.02219H11.9422C14.9022 15.0581 17.9622 15.0581 18.2522 15.5181C18.1624 16.0568 15.7341 17.3418 13.171 18.6982L13.1522 18.7081L13.1022 18.7281L9.18219 20.8081C7.63219 21.6281 6.51219 22.2181 6.10219 22.0081C5.75219 21.8281 5.75219 20.6881 5.75219 19.1181V17.0381C5.75219 16.0781 5.75219 15.4481 5.94219 15.2681Z" fill="currentColor" fill-rule="evenodd"></path></svg>