<svg xmlns="http://www.w3.org/2000/svg" width="24" height="24" viewBox="0 0 24 24" fill="none" stroke-width="1.5" stroke-linecap="round" stroke-linejoin="round" color="currentColor"><path d="M5 21C9.20998 16.2487 13.9412 9.9475 21 14.6734" stroke="currentColor"></path><path d="M14 3.00231C13.5299 3 12.0307 3 11.5 3C7.02166 3 4.78249 3 3.39124 4.39124C2 5.78249 2 8.02166 2 12.5C2 16.9783 2 19.2175 3.39124 20.6088C4.78249 22 7.02166 22 11.5 22C15.9783 22 18.2175 22 19.6088 20.6088C20.9472 19.2703 20.998 17.147 20.9999 13" stroke="currentColor"></path><path d="M17 7.5C17.4915 8.0057 18.7998 10 19.5 10M22 7.5C21.5085 8.0057 20.2002 10 19.5 10M19.5 10V2" stroke="currentColor"></path></svg>