<svg xmlns="http://www.w3.org/2000/svg" width="24" height="24" viewBox="0 0 24 24" fill="none" stroke-width="1.5" stroke-linecap="round" stroke-linejoin="round" color="currentColor"><path d="M14 2.8125C17.97 2.8125 19.97 2.8125 21.36 4.2025C22.75 5.5925 22.75 7.5825 22.75 11.5625V13.5625C22.75 17.5325 22.75 19.5325 21.36 20.9225C19.97 22.3125 17.97 22.3125 14 22.3125H10C6.03 22.3125 4.03 22.3125 2.64 20.9225C1.25 19.5325 1.25 17.5425 1.25 13.5625V11.5625C1.25 7.5925 1.25 5.5925 2.64 4.2025C4.03 2.8125 6.03 2.8125 10 2.8125H14ZM3.7 5.2625C2.75 6.2125 2.75 8.0025 2.75 11.5625H2.74V13.5625C2.74 15.0025 2.75 16.1525 2.81 17.0725L5.59 13.9525C6.28 13.1625 7.63 13.1225 8.37 13.8725L10 15.5025L14.13 11.3725C14.86 10.6425 16.18 10.6625 16.9 11.4325L21.23 16.1525C21.25 15.4125 21.25 14.5625 21.25 13.5625V11.5625C21.25 8.0025 21.25 6.2125 20.3 5.2625C19.35 4.3125 17.56 4.3125 14 4.3125H10C6.44 4.3125 4.65 4.3125 3.7 5.2625ZM10 20.8125H14V20.8025H14C17.56 20.8025 19.35 20.8025 20.3 19.8525C20.7 19.4625 20.93 18.9025 21.06 18.1425C21.02 18.1125 20.95 18.0625 20.95 18.0625L15.8 12.4425C15.64 12.2725 15.35 12.2625 15.19 12.4225L10.53 17.0825C10.25 17.3625 9.75 17.3625 9.47 17.0825L7.31 14.9225C7.15 14.7625 6.87 14.7725 6.72 14.9425L3.15 18.9625C3.28 19.3225 3.46 19.6225 3.7 19.8625C4.65 20.8125 6.44 20.8125 10 20.8125ZM10.75 9.0625C10.75 10.3025 9.74 11.3125 8.5 11.3125C7.26 11.3125 6.25 10.3025 6.25 9.0625C6.25 7.8225 7.26 6.8125 8.5 6.8125C9.74 6.8125 10.75 7.8225 10.75 9.0625ZM9.25 9.0625C9.25 8.6525 8.91 8.3125 8.5 8.3125C8.09 8.3125 7.75 8.6525 7.75 9.0625C7.75 9.4725 8.09 9.8125 8.5 9.8125C8.91 9.8125 9.25 9.4725 9.25 9.0625Z" fill="currentColor" fill-rule="evenodd"></path></svg>