<svg xmlns="http://www.w3.org/2000/svg" width="24" height="24" viewBox="0 0 24 24" fill="none" stroke-width="1.5" stroke-linecap="round" stroke-linejoin="round" color="currentColor"><path d="M13.498 20.0195C11.2171 20.0195 9.12616 19.1894 7.51153 17.8154L2.5275 22.7995C2.3775 22.9495 2.1875 23.0195 1.9975 23.0195C1.8075 23.0195 1.6175 22.9495 1.4675 22.7995C1.1775 22.5095 1.1775 22.0295 1.4675 21.7395L6.45158 16.7554C5.07795 15.1409 4.24805 13.0502 4.24805 10.7695C4.24805 5.66953 8.39805 1.51953 13.498 1.51953C18.598 1.51953 22.748 5.66953 22.748 10.7695C22.748 15.8695 18.598 20.0195 13.498 20.0195ZM13.498 3.01953C9.22805 3.01953 5.74805 6.49953 5.74805 10.7695C5.74805 15.0395 9.22805 18.5195 13.498 18.5195C17.768 18.5195 21.248 15.0395 21.248 10.7695C21.248 6.49953 17.768 3.01953 13.498 3.01953ZM9.2483 13.2697C9.2483 13.6797 9.5883 14.0197 9.9983 14.0197H10.0083C10.4183 14.0197 10.7583 13.6797 10.7583 13.2697V8.2697C10.7583 8.0097 10.6183 7.7697 10.3983 7.6297C10.1783 7.4997 9.8983 7.4797 9.6683 7.5997L8.6683 8.0997C8.2883 8.2897 8.1383 8.7397 8.3283 9.1097C8.4983 9.4497 8.8983 9.5997 9.2483 9.4797V13.2697ZM17.4983 14.0197C17.0883 14.0197 16.7483 13.6797 16.7483 13.2697V9.4797C16.3983 9.5997 15.9983 9.4497 15.8283 9.1097C15.6383 8.7397 15.7883 8.2897 16.1683 8.0997L17.1683 7.5997C17.3983 7.4797 17.6783 7.4997 17.8983 7.6297C18.1183 7.7697 18.2583 8.0097 18.2583 8.2697V13.2697C18.2583 13.6797 17.9183 14.0197 17.5083 14.0197H17.4983ZM12.748 12.2795C12.748 12.6895 13.088 13.0295 13.498 13.0295V13.0395C13.908 13.0395 14.248 12.6995 14.248 12.2795C14.248 11.8595 13.908 11.5295 13.498 11.5295C13.088 11.5295 12.748 11.8695 12.748 12.2795ZM12.748 9.27954C12.748 9.68954 13.088 10.0295 13.498 10.0295V10.0395C13.908 10.0395 14.248 9.69954 14.248 9.27954C14.248 8.85954 13.908 8.52954 13.498 8.52954C13.088 8.52954 12.748 8.86954 12.748 9.27954Z" fill="currentColor" fill-rule="evenodd"></path></svg>