<svg xmlns="http://www.w3.org/2000/svg" width="24" height="24" viewBox="0 0 24 24" fill="none" stroke-width="1.5" stroke-linecap="round" stroke-linejoin="round" color="currentColor"><path d="M3.68172 12.3166C4.15172 14.6466 5.53172 16.6066 7.42172 17.8566C6.20172 19.1166 5.51172 20.8066 5.51172 22.5666C5.51172 22.9766 5.85172 23.3166 6.26172 23.3166C6.67172 23.3166 7.01172 22.9766 7.01172 22.5666C7.01172 21.0666 7.66172 19.6266 8.79172 18.6266V18.6066C9.85172 19.0666 11.0217 19.3166 12.2417 19.3166C13.4617 19.3166 14.6317 19.0666 15.6917 18.6066C15.6917 18.6066 15.7017 18.6166 15.7117 18.6266C16.8417 19.6266 17.4917 21.0666 17.4917 22.5666C17.4917 22.9766 17.8317 23.3166 18.2417 23.3166C18.6517 23.3166 18.9917 22.9766 18.9917 22.5666C18.9917 20.8066 18.3017 19.1266 17.0817 17.8566C18.9717 16.6066 20.3517 14.6366 20.8217 12.3166C22.0217 12.2766 22.9917 11.3066 22.9917 10.0666C22.9917 8.82664 21.9817 7.81664 20.7417 7.81664H20.5517C19.4117 4.23664 16.0917 1.80664 12.2617 1.80664C8.43172 1.80664 5.12172 4.24664 3.95172 7.81664H3.76172C2.52172 7.81664 1.51172 8.84664 1.51172 10.0666C1.51172 11.2866 2.47172 12.2766 3.68172 12.3166ZM4.71172 10.8366C4.59172 10.7566 4.45172 10.7166 4.31172 10.7166H4.33172C4.24172 10.7266 4.16172 10.7366 4.08172 10.7666C3.48172 10.9766 3.03172 10.5766 3.03172 10.0766C3.03172 9.66664 3.37172 9.32664 3.78172 9.32664C3.91172 9.32664 4.02172 9.35664 4.12172 9.40664C4.32172 9.51664 4.57172 9.53664 4.79172 9.43664C5.01172 9.33664 5.17172 9.14664 5.22172 8.91664C5.97172 5.66664 8.81172 3.37664 12.1417 3.31664C12.1817 3.31664 12.2117 3.31664 12.2517 3.31664C12.8217 3.31664 13.5017 3.87664 13.5017 4.56664C13.5017 5.25664 12.8217 5.81664 12.2517 5.81664C11.9017 5.81664 11.4817 5.67664 11.2117 5.46664C10.8817 5.21664 10.4117 5.27664 10.1617 5.60664C9.91172 5.93664 9.97172 6.40664 10.3017 6.65664C10.8417 7.06664 11.5717 7.30664 12.2617 7.30664H12.2517C13.7117 7.30664 15.0017 6.02664 15.0017 4.56664C15.0017 4.29664 14.9617 4.02664 14.8717 3.77664C17.0717 4.60664 18.7817 6.48664 19.3417 8.90664C19.3917 9.13664 19.5517 9.33664 19.7717 9.42664C19.9817 9.52664 20.2317 9.51664 20.4417 9.39664C20.5417 9.34664 20.6517 9.31664 20.7817 9.31664C21.1917 9.31664 21.5317 9.65664 21.5317 10.0666C21.5317 10.5666 21.0717 10.9666 20.4817 10.7566C20.2617 10.6766 20.0217 10.7066 19.8317 10.8266C19.6317 10.9466 19.5117 11.1466 19.4817 11.3766C19.0617 15.0366 15.9717 17.8066 12.2717 17.8066C8.57172 17.8066 5.47172 15.0466 5.06172 11.3766C5.03172 11.1466 4.90172 10.9466 4.71172 10.8266V10.8366ZM10.5117 14.5666C10.5117 15.5266 11.3017 16.3166 12.2617 16.3166C13.2217 16.3166 14.0117 15.5266 14.0117 14.5666C14.0117 14.1566 13.6717 13.8166 13.2617 13.8166H11.2617C10.8517 13.8166 10.5117 14.1566 10.5117 14.5666ZM9.26172 11.5766C8.71172 11.5766 8.26172 11.1266 8.26172 10.5766C8.26172 10.0266 8.71172 9.57664 9.26172 9.57664C9.81172 9.57664 10.2617 10.0166 10.2617 10.5766C10.2617 11.1366 9.81172 11.5866 9.26172 11.5866V11.5766ZM14.2617 10.5766C14.2617 11.1266 14.7117 11.5766 15.2617 11.5766C15.8117 11.5866 16.2617 11.1366 16.2617 10.5766C16.2617 10.0166 15.8117 9.57664 15.2617 9.57664C14.7117 9.57664 14.2617 10.0266 14.2617 10.5766Z" fill="currentColor" fill-rule="evenodd"></path></svg>