<svg xmlns="http://www.w3.org/2000/svg" width="24" height="24" viewBox="0 0 24 24" fill="none"><path d="M15 5V19M15 5C15 3.89543 15.8954 3 17 3M15 5C15 3.89543 14.1046 3 13 3M15 19C15 20.1046 15.8954 21 17 21M15 19C15 20.1046 14.1046 21 13 21" stroke="currentColor" stroke-linecap="round" stroke-linejoin="round" stroke-width="1.5" /><path d="M5 15L6.49694 9.38649C6.55771 9.15858 6.76412 9 7 9C7.23588 9 7.44229 9.15858 7.50307 9.38649L9 15M6 13H8" stroke="currentColor" stroke-linecap="round" stroke-linejoin="round" stroke-width="1.5" /><path d="M12 6H8C5.17157 6 3.75736 6 2.87868 6.87868C2 7.75736 2 9.17157 2 12C2 14.8284 2 16.2426 2.87868 17.1213C3.75736 18 5.17157 18 8 18H12M18 6.01732C19.5534 6.06413 20.48 6.23738 21.1213 6.87868C22 7.75736 22 9.17157 22 12C22 14.8284 22 16.2426 21.1213 17.1213C20.48 17.7626 19.5534 17.9359 18 17.9827" stroke="currentColor" stroke-linecap="round" stroke-linejoin="round" stroke-width="1.5" /></svg>