<svg xmlns="http://www.w3.org/2000/svg" width="24" height="24" viewBox="0 0 24 24" fill="none"><path d="M15 6H8C5.17157 6 3.75736 6 2.87868 6.87868C2 7.75736 2 9.17157 2 12C2 14.8284 2 16.2426 2.87868 17.1213C3.75736 18 5.17157 18 8 18H15M21.1213 17.1213C22 16.2426 22 14.8284 22 12C22 9.17157 22 7.75736 21.1213 6.87868" stroke="currentColor" stroke-linecap="round" stroke-linejoin="round" stroke-width="1.5" /><path d="M5 15L6.49694 9.38649C6.55771 9.15858 6.76412 9 7 9C7.23588 9 7.44229 9.15858 7.50307 9.38649L9 15M6 13H8" stroke="currentColor" stroke-linecap="round" stroke-linejoin="round" stroke-width="1.5" /><path d="M13 12H11.5M13 12C13.8284 12 14.5 11.3284 14.5 10.5C14.5 9.67157 13.8284 9 13 9H11.5V12M13 12C13.8284 12 14.5 12.6716 14.5 13.5C14.5 14.3284 13.8284 15 13 15H11.5V12" stroke="currentColor" stroke-linecap="round" stroke-linejoin="round" stroke-width="1.5" /><path d="M18 5V19M18 5C18 3.89543 18.8954 3 20 3M18 5C18 3.89543 17.1046 3 16 3M18 19C18 20.1046 18.8954 21 20 21M18 19C18 20.1046 17.1046 21 16 21" stroke="currentColor" stroke-linecap="round" stroke-linejoin="round" stroke-width="1.5" /></svg>