<svg xmlns="http://www.w3.org/2000/svg" width="24" height="24" viewBox="0 0 24 24" fill="none" stroke-width="1.5" stroke-linecap="round" stroke-linejoin="round" color="currentColor"><path d="M3 17H19" stroke="currentColor"></path><path d="M3 21H12" stroke="currentColor"></path><path d="M3 8C3 5.64298 3 4.46447 3.73223 3.73223C4.46447 3 5.64298 3 8 3H16C18.357 3 19.5355 3 20.2678 3.73223C21 4.46447 21 5.64298 21 8C21 10.357 21 11.5355 20.2678 12.2678C19.5355 13 18.357 13 16 13H8C5.64298 13 4.46447 13 3.73223 12.2678C3 11.5355 3 10.357 3 8Z" stroke="currentColor"></path></svg>