<svg xmlns="http://www.w3.org/2000/svg" width="24" height="24" viewBox="0 0 24 24" fill="none" stroke-width="1.5" stroke-linecap="round" stroke-linejoin="round" color="currentColor"><path d="M2.8125 18C3.01415 18.8888 3.34564 19.5638 3.89059 20.1088C5.28184 21.5 7.52101 21.5 11.9994 21.5C16.4777 21.5 18.7169 21.5 20.1081 20.1088C21.4993 18.7175 21.4993 16.4783 21.4993 12C21.4993 7.52166 21.4993 5.28249 20.1081 3.89124C18.7169 2.5 16.4777 2.5 11.9994 2.5C7.52101 2.5 5.28184 2.5 3.89059 3.89124C3.34564 4.4362 3.01415 5.11125 2.8125 6.00001" stroke="currentColor"></path><path d="M5.5 9L2.5 12L5.5 15M3.5 12L10.5 12" stroke="currentColor"></path><path d="M15 2.49805L15 21.498" stroke="currentColor"></path><path d="M21.5 8.49805H15M21.5 15.498H15" stroke="currentColor"></path></svg>