<svg xmlns="http://www.w3.org/2000/svg" width="24" height="24" viewBox="0 0 24 24" fill="none" stroke-width="1.5" stroke-linecap="round" stroke-linejoin="round" color="currentColor"><path d="M16 22H18C19.8856 22 20.8284 22 21.4142 21.4142C22 20.8284 22 19.8856 22 18V17C22 15.1144 22 14.1716 21.4142 13.5858C20.8284 13 19.8856 13 18 13L15 13C13.1144 13 12.1716 13 11.5858 12.4142C11 11.8284 11 10.8856 11 9V6C11 4.11438 11 3.17157 10.4142 2.58579C9.82843 2 8.88562 2 7 2L6 2C4.11438 2 3.17157 2 2.58579 2.58579C2 3.17157 2 4.11438 2 6L2 8C2 14.5997 2 17.8995 4.05025 19.9497C6.10051 22 9.40034 22 16 22Z" stroke="currentColor"></path></svg>