<svg xmlns="http://www.w3.org/2000/svg" width="24" height="24" viewBox="0 0 24 24" fill="none" stroke-width="1.5" stroke-linecap="round" stroke-linejoin="round" color="currentColor"><path d="M3.05781 20.5493H3.06781H3.09781C3.53781 20.5493 3.95781 20.3893 4.31781 20.0593C4.35781 20.0193 4.44781 19.9293 4.88781 19.2693L5.13781 18.8693C5.16781 18.8193 5.20781 18.7293 5.20781 18.7293L6.25781 15.3487V18.6993C6.25781 18.8353 6.26293 18.9252 6.26585 18.9763L6.26585 18.9763C6.267 18.9966 6.26781 19.0108 6.26781 19.0193C6.27781 19.3093 6.34781 19.5993 6.48781 19.9493L6.61781 20.1993C6.80781 20.5693 6.92781 20.7993 7.02781 20.9293C7.43781 21.4893 8.07781 21.8893 8.77781 22.0093C8.99781 22.0493 9.22781 22.0493 9.62781 22.0493H14.3878L14.3778 22.0793C14.7878 22.0793 15.0078 22.0793 15.2278 22.0393C15.9278 21.9093 16.5678 21.5193 16.9578 20.9793C17.0698 20.8394 17.1817 20.6212 17.3505 20.2921L17.3505 20.2921L17.3878 20.2193L17.5478 19.8993C17.6678 19.6093 17.7378 19.3193 17.7378 19.0993C17.7578 19.0093 17.7578 18.9093 17.7578 18.7093V15.315L18.6386 18.1896L18.8386 18.7296C18.8586 18.7796 18.9086 18.8696 18.9086 18.8696L19.1686 19.2896C19.5986 19.9296 19.6886 20.0196 19.7586 20.0896C20.0886 20.3896 20.5086 20.5496 20.9486 20.5496V20.5596H20.9586C21.1585 20.5596 21.3185 20.5196 21.6385 20.4396L21.6386 20.4396L21.7171 20.4187C21.9761 20.3501 22.1665 20.2997 22.3486 20.1996C22.7686 19.9596 23.0786 19.5596 23.1986 19.0896C23.2386 18.9296 23.2486 18.6696 23.2486 17.9296L23.2186 17.3596C23.2186 17.3096 23.1986 17.2196 23.1986 17.2196L20.4486 7.65958C20.0786 6.35959 19.8686 5.63959 19.3686 5.02959C18.869 4.43015 18.2198 4.1002 17.002 3.48132L16.9986 3.47958L15.4687 2.70544C15.3396 2.60467 15.1777 2.54931 15.0079 2.54931H9.07715C8.98844 2.54211 8.89772 2.55077 8.80915 2.57679C8.74587 2.59456 8.6854 2.62057 8.62931 2.65373L6.98781 3.47934C5.78781 4.07934 5.13781 4.41934 4.63781 5.01934C4.15329 5.61046 3.95048 6.30487 3.5926 7.53027L3.55781 7.64934L0.927813 16.7293L0.807812 17.2193C0.787812 17.2693 0.787811 17.3593 0.787811 17.3593L0.757812 17.9693C0.757812 18.6693 0.767812 18.9193 0.807812 19.0993C0.927812 19.5593 1.23781 19.9593 1.65781 20.1893C1.86781 20.2993 2.06781 20.3593 2.44781 20.4493L2.47123 20.455L2.47125 20.455C2.70796 20.5118 2.86413 20.5493 3.05781 20.5493ZM8.73102 4.28651L7.69781 4.80934L7.66289 4.82696C6.61646 5.35504 6.10453 5.61339 5.80781 5.97934C5.50781 6.34934 5.33781 6.91934 5.00781 8.06934L2.29781 17.5093L2.26781 18.0093V18.0094C2.26781 18.2094 2.26781 18.6194 2.28781 18.7793C2.28781 18.7993 2.33781 18.8593 2.40781 18.8893C2.45404 18.9092 2.51334 18.9246 2.60013 18.9472C2.64477 18.9588 2.69668 18.9724 2.75781 18.9893L2.79944 19.0003C2.95854 19.0423 3.02318 19.0593 3.08781 19.0593C3.10781 19.0593 3.20781 19.0393 3.26781 18.9893L3.30711 18.9307C3.40176 18.7897 3.61781 18.4677 3.61781 18.4593L3.81781 18.1393L3.98781 17.6693L6.25781 10.2748V8.31934C6.25781 7.90934 6.59781 7.56934 7.00781 7.56934C7.41781 7.56934 7.75781 7.90934 7.75781 8.31934V10.0778C7.8 10.2165 7.80281 10.3693 7.75781 10.5193V18.6993V18.8893C7.76781 19.0793 7.79781 19.1993 7.84781 19.3293L7.95781 19.5393L8.00808 19.6404L8.00809 19.6404C8.09058 19.8068 8.16958 19.9661 8.22781 20.0493C8.42781 20.3193 8.71781 20.4993 9.03781 20.5593C9.16781 20.5793 9.32781 20.5793 9.62781 20.5793H14.3878C14.6878 20.5793 14.8478 20.5793 14.9778 20.5593C15.3078 20.4993 15.5878 20.3293 15.7678 20.0693C15.819 19.9926 15.8783 19.879 15.9433 19.7548L15.9433 19.7547C15.9798 19.6848 16.0182 19.6114 16.0578 19.5393L16.1978 19.2693C16.2178 19.1993 16.2478 19.0793 16.2578 18.9593C16.2644 18.887 16.2623 18.8406 16.2601 18.7917V18.7916C16.259 18.7662 16.2578 18.7401 16.2578 18.7093V10.3526C16.2552 10.3161 16.2552 10.2797 16.2578 10.2438V8.32934C16.2578 7.91934 16.5978 7.57934 17.0078 7.57934C17.4178 7.57934 17.7578 7.91934 17.7578 8.32934V10.1738L20.2286 18.1296L20.4386 18.4696C20.4386 18.4696 20.7386 18.9196 20.8286 19.0396C20.8286 19.0396 20.8886 19.0596 20.9486 19.0596C20.9856 19.0596 21.0266 19.0481 21.0831 19.0323C21.118 19.0225 21.1589 19.011 21.2086 18.9996C21.2693 18.9844 21.321 18.9718 21.3656 18.9609C21.4972 18.9288 21.5663 18.912 21.6186 18.8896C21.6786 18.8596 21.7286 18.7996 21.7486 18.7296C21.7553 18.6556 21.753 18.446 21.7507 18.2436V18.2435V18.2434C21.7496 18.1449 21.7486 18.0482 21.7486 17.9696L21.7186 17.5096L21.6186 17.0896L19.0086 8.06959C18.6786 6.91959 18.5086 6.33958 18.2086 5.97958C17.9121 5.62379 17.4007 5.36568 16.3752 4.84807L16.3386 4.82959L15.2802 4.29413L13.5079 7.20931C12.8279 8.32931 11.1879 8.32931 10.5079 7.20931L8.73102 4.28651ZM10.341 4.04931L11.7879 6.42932C11.8879 6.58932 12.1279 6.58932 12.2279 6.42932L13.6749 4.04931H10.341Z" fill="currentColor" fill-rule="evenodd"></path></svg>