<svg xmlns="http://www.w3.org/2000/svg" width="24" height="24" viewBox="0 0 24 24" fill="none" stroke-width="1.5" stroke-linecap="round" stroke-linejoin="round" color="currentColor"><path d="M21 22V5C21 3.58579 21 2.87868 20.5607 2.43934C20.1213 2 19.4142 2 18 2H6C4.58579 2 3.87868 2 3.43934 2.43934C3 2.87868 3 3.58579 3 5V22" stroke="currentColor"></path><path d="M7 17C7 16.0572 7 15.5858 7.29289 15.2929C7.58579 15 8.05719 15 9 15H10C10.9428 15 11.4142 15 11.7071 15.2929C12 15.5858 12 16.0572 12 17V22H7V17Z" stroke="currentColor"></path><path d="M2 22H22" stroke="currentColor"></path><path d="M3 6H21" stroke="currentColor"></path><path d="M3 19H7" stroke="currentColor"></path><path d="M12 19L21 19" stroke="currentColor"></path><path d="M3.5 9H5.5M8.5 9H10.5M13.5 9H15.5M18.5 9H20.5" stroke="currentColor"></path></svg>