<svg xmlns="http://www.w3.org/2000/svg" width="24" height="24" viewBox="0 0 24 24" fill="none" stroke-width="1.5" stroke-linecap="round" stroke-linejoin="round" color="currentColor"><path d="M11.9997 22.5723H12H12.0003C15.9101 22.5723 17.87 22.5723 19.38 21.4723C19.87 21.1223 20.29 20.6923 20.65 20.2023C21.75 18.6923 21.75 16.7323 21.75 12.8223V12.8223V12.8222C21.75 8.91226 21.75 6.95226 20.65 5.44226C20.3 4.95226 19.87 4.52224 19.38 4.17224C17.87 3.07227 15.9101 3.07227 12.0003 3.07227H12H11.9997C8.08991 3.07227 6.12997 3.07227 4.62 4.17224C4.13 4.52224 3.71 4.95226 3.35 5.44226C2.25 6.95226 2.25 8.91227 2.25 12.8223C2.25 16.7323 2.25 18.6923 3.35 20.2023C3.7 20.6923 4.13 21.1223 4.62 21.4723C6.12997 22.5723 8.08991 22.5723 11.9997 22.5723ZM12 4.57227H12H12C15.58 4.57227 17.38 4.57227 18.5 5.38226C18.86 5.64226 19.18 5.96227 19.44 6.32227C20.25 7.44226 20.25 9.24226 20.25 12.8222V12.8223V12.8223C20.25 16.4023 20.25 18.2023 19.44 19.3223C19.18 19.6823 18.86 20.0023 18.5 20.2623C17.38 21.0723 15.58 21.0723 12 21.0723H12H12C8.41999 21.0723 6.62 21.0723 5.5 20.2623C5.14 20.0023 4.82 19.6823 4.56 19.3223C3.75 18.2023 3.75 16.4023 3.75 12.8223C3.75 9.24227 3.75 7.44227 4.56 6.32227C4.82 5.96227 5.14 5.64226 5.5 5.38226C6.62 4.57227 8.41999 4.57227 12 4.57227ZM16.25 17.8223C16.25 18.2323 16.59 18.5723 17 18.5723C17.41 18.5723 17.75 18.2323 17.75 17.8223V7.82227C17.75 7.41227 17.41 7.07227 17 7.07227C16.59 7.07227 16.25 7.41227 16.25 7.82227V17.8223ZM6.25 14.8223C6.25 15.2323 6.59 15.5723 7 15.5723C7.41 15.5723 7.75 15.2323 7.75 14.8223V7.82227C7.75 7.41227 7.41 7.07227 7 7.07227C6.59 7.07227 6.25 7.41227 6.25 7.82227V14.8223ZM11.25 11.8223C11.25 12.2323 11.59 12.5723 12 12.5723C12.41 12.5723 12.75 12.2323 12.75 11.8223V7.82227C12.75 7.41227 12.41 7.07227 12 7.07227C11.59 7.07227 11.25 7.41227 11.25 7.82227V11.8223Z" fill="currentColor" fill-rule="evenodd"></path></svg>