<svg xmlns="http://www.w3.org/2000/svg" width="24" height="24" viewBox="0 0 24 24" fill="none" stroke-width="1.5" stroke-linecap="round" stroke-linejoin="round" color="currentColor"><path d="M18.9975 10.6909C19.6658 11.2951 20 11.5971 20 12C20 12.4029 19.6658 12.7049 18.9975 13.3091L17.3537 14.7948C16.4649 15.5983 16.0205 16 15.5 16C14.9795 16 14.5351 15.5983 13.6463 14.7948L12.0025 13.3091C11.3342 12.7049 11 12.4029 11 12C11 11.5971 11.3342 11.2951 12.0025 10.6909L13.6463 9.20516C14.5351 8.40172 14.9795 8 15.5 8C16.0205 8 16.4649 8.40172 17.3537 9.20515L18.9975 10.6909Z" stroke="currentColor"></path><path d="M8 12H4M4 3L4 21" stroke="currentColor"></path></svg>