<svg xmlns="http://www.w3.org/2000/svg" width="24" height="24" viewBox="0 0 24 24" fill="none" stroke-width="1.5" stroke-linecap="round" stroke-linejoin="round" color="currentColor"><path d="M12 2C7.71429 4.40741 4 8 2 14C5 12 9 11 12 14C15 11 19 12 22 14C20 8 16.2857 4.40741 12 2Z" stroke="currentColor"></path><path d="M11.9999 14C10.3912 14.7327 7.69631 15.8188 8.02333 18" stroke="currentColor"></path><path d="M11.6716 14C13.0709 17.203 9.38762 19.5 11.9053 22" stroke="currentColor"></path><path d="M12 14C14 14 13.5 18.5 15 19" stroke="currentColor"></path><path d="M12 14V2" stroke="currentColor"></path><path d="M10 7.00036C10.2913 6.73558 10.6667 6.52338 11.0134 6.36376C11.379 6.19547 11.5618 6.11133 12 6.11133C12.4382 6.11133 12.621 6.19547 12.9866 6.36376C13.3333 6.52338 13.7087 6.73558 14 7.00036" stroke="currentColor"></path></svg>