<svg xmlns="http://www.w3.org/2000/svg" width="24" height="24" viewBox="0 0 24 24" fill="none" stroke-width="1.5" stroke-linecap="round" stroke-linejoin="round" color="currentColor"><path d="M11.475 21.8225H16.085L16.075 21.8125C16.355 21.8125 16.615 21.6525 16.745 21.4025C16.875 21.1525 16.855 20.8525 16.685 20.6225L11.595 13.6725C12.765 12.5325 15.335 9.4325 15.335 4.0625C15.335 3.6525 14.995 3.3125 14.585 3.3125H10.785C10.375 3.3125 10.035 3.6525 10.035 4.0625C10.035 8.14604 7.75189 10.5632 6.33594 11.6684V4.07227C6.33594 3.66227 5.99594 3.32227 5.58594 3.32227H1.58594C1.17594 3.32227 0.835938 3.66227 0.835938 4.07227V21.0723C0.835938 21.4823 1.17594 21.8223 1.58594 21.8223H5.58594C5.99594 21.8223 6.33594 21.4823 6.33594 21.0723V15.3474L10.875 21.5125C11.015 21.7125 11.235 21.8225 11.475 21.8225ZM4.83594 13.0615C4.83594 13.0613 4.83594 13.0611 4.83594 13.0609V4.82227H2.33594V20.3223H4.83594V13.0615ZM14.605 20.3225H11.855L6.67501 13.2825C8.13501 12.2925 11.225 9.64248 11.515 4.82248H13.815C13.5361 10.302 10.2992 12.8436 10.1367 12.9712L10.135 12.9725C9.81501 13.2125 9.74501 13.6825 9.98501 14.0125L14.605 20.3225ZM19.5859 21.8223C18.0659 21.8223 16.8359 20.5923 16.8359 19.0723C16.8359 17.5523 18.0659 16.3223 19.5859 16.3223C21.1059 16.3223 22.3359 17.5523 22.3359 19.0723C22.3359 20.5923 21.1059 21.8223 19.5859 21.8223ZM19.5859 17.8223C18.8959 17.8223 18.3359 18.3823 18.3359 19.0723C18.3359 19.7623 18.8959 20.3223 19.5859 20.3223C20.2759 20.3223 20.8359 19.7623 20.8359 19.0723C20.8359 18.3823 20.2759 17.8223 19.5859 17.8223Z" fill="currentColor" fill-rule="evenodd"></path></svg>