<svg xmlns="http://www.w3.org/2000/svg" width="24" height="24" viewBox="0 0 24 24" fill="none" stroke-width="1.5" stroke-linecap="round" stroke-linejoin="round" color="currentColor"><path d="M13 19.5723H6C3.98 19.5723 2.85999 19.5722 2.04999 18.7622C1.25 17.9622 1.25 16.8523 1.25 14.8224V14.8223V7.82227C1.25 6.75227 1.25001 6.10229 1.76001 5.59229C2.28001 5.07229 2.93 5.07227 4 5.07227H17C20.17 5.07227 22.75 7.65227 22.75 10.8223C22.75 13.9923 20.17 16.5723 17 16.5723H16.75C16.74 17.1323 16.7 17.5123 16.55 17.8723C16.27 18.5423 15.75 19.0623 15.07 19.3523C14.5501 19.5623 14.0102 19.5623 13.0106 19.5623H13.01L13 19.5723ZM4 6.57227C3.5 6.57227 2.93001 6.57233 2.82001 6.64233C2.75001 6.71233 2.75 7.32227 2.75 7.82227V14.8223C2.75 16.5723 2.75999 17.3524 3.10999 17.7024C3.46999 18.0624 4.25 18.0723 6 18.0723H13C13.81 18.0723 14.25 18.0722 14.48 17.9822C14.79 17.8522 15.03 17.6123 15.15 17.3123C15.24 17.0823 15.24 16.6123 15.24 15.8324V15.8323C15.24 15.4223 15.58 15.0823 15.99 15.0823H16.99C19.33 15.0823 21.24 13.1723 21.24 10.8323C21.24 8.49228 19.33 6.58228 16.99 6.58228H3.98999L4 6.57227ZM17 14.0723H16C15.59 14.0723 15.25 13.7323 15.25 13.3223V8.32227C15.25 7.91227 15.59 7.57227 16 7.57227H17C18.79 7.57227 20.25 9.03227 20.25 10.8223C20.25 12.6123 18.79 14.0723 17 14.0723ZM16.75 12.5723H17C17.96 12.5723 18.75 11.7823 18.75 10.8223C18.75 9.86227 17.96 9.07227 17 9.07227H16.75V12.5723ZM8.45891 16.3423C8.59891 16.4923 8.79892 16.5723 8.99892 16.5723C9.20892 16.5723 9.39893 16.4823 9.53893 16.3423L12.9489 12.8423C14.0089 11.7523 14.0089 9.98234 12.9489 8.89234C11.9089 7.82234 10.0889 7.82234 9.04891 8.89234L8.99892 8.94227L8.94893 8.89234C7.90893 7.83234 6.08891 7.83234 5.04891 8.89234C3.98891 9.98234 3.98891 11.7523 5.04891 12.8423L8.45891 16.3423ZM6.11891 11.7922C5.61891 11.2822 5.61891 10.4523 6.11891 9.94227H6.12892C6.59892 9.46227 7.40892 9.46227 7.87892 9.94227L8.46892 10.5422C8.74892 10.8322 9.25893 10.8322 9.53893 10.5422L10.1289 9.94227C10.5989 9.46227 11.4089 9.46227 11.8789 9.94227C12.3789 10.4523 12.3789 11.2822 11.8789 11.7922L8.99892 14.7423L6.11891 11.7922Z" fill="currentColor" fill-rule="evenodd"></path></svg>