<svg xmlns="http://www.w3.org/2000/svg" width="24" height="24" viewBox="0 0 24 24" fill="none" stroke-width="1.5" stroke-linecap="round" stroke-linejoin="round" color="currentColor"><path d="M20 22V19C20 17.1144 20 16.1716 19.4142 15.5858C18.8284 15 17.8856 15 16 15H14L12 17L10 15H8C6.11438 15 5.17157 15 4.58579 15.5858C4 16.1716 4 17.1144 4 19V22" stroke="currentColor"></path><path d="M16 15V22" stroke="currentColor"></path><path d="M8 15V22" stroke="currentColor"></path><path d="M15.5 9V7C15.5 5.067 13.933 3.5 12 3.5C10.067 3.5 8.5 5.067 8.5 7V9C8.5 10.933 10.067 12.5 12 12.5C13.933 12.5 15.5 10.933 15.5 9Z" stroke="currentColor"></path><path d="M7.5 7.5H16.5" stroke="currentColor"></path><path d="M12 2V3.5" stroke="currentColor"></path></svg>