<svg xmlns="http://www.w3.org/2000/svg" width="24" height="24" viewBox="0 0 24 24" fill="none"><path d="M9 7H19" stroke="currentColor" stroke-linecap="round" stroke-linejoin="round" stroke-width="1.5" /><path d="M8.65943 12H19.3406C20.2571 12 21 11.2571 21 10.3406C21 10.1159 20.9544 9.89349 20.8659 9.68694L19.039 5.42433C18.5351 4.24853 18.2832 3.66064 17.7822 3.33032C17.2813 3 16.6417 3 15.3624 3H12.6376C11.3584 3 10.7188 3 10.2178 3.33032C9.7169 3.66064 9.46495 4.24853 8.96104 5.42432L7.1342 9.68694C7.04568 9.89349 7.00003 10.1159 7.00003 10.3406C7.00003 11.2571 7.74297 12 8.65943 12Z" stroke="currentColor" stroke-linecap="round" stroke-linejoin="round" stroke-width="1.5" /><path d="M3.00003 19.6667V16.3333C3.00003 16.0233 3.00003 15.8683 3.0341 15.7412C3.12657 15.3961 3.39612 15.1265 3.74121 15.0341C3.86838 15 4.02337 15 4.33336 15C4.95334 15 5.26334 15 5.51767 15.0681C6.20785 15.2531 6.74695 15.7922 6.93188 16.4824C7.00003 16.7367 7.00003 17.0467 7.00003 17.6667V18.3333C7.00003 18.9533 7.00003 19.2633 6.93188 19.5176C6.74695 20.2078 6.20785 20.7469 5.51767 20.9319C5.26334 21 4.95334 21 4.33336 21C4.02337 21 3.86838 21 3.74121 20.9659C3.39612 20.8735 3.12657 20.6039 3.0341 20.2588C3.00003 20.1317 3.00003 19.9767 3.00003 19.6667Z" stroke="currentColor" stroke-linecap="round" stroke-linejoin="round" stroke-width="1.5" /><path d="M7.00003 18H8.00003C10.8285 18 12.2427 18 13.1214 17.1213C14 16.2426 14 14.8284 14 12" stroke="currentColor" stroke-linecap="round" stroke-linejoin="round" stroke-width="1.5" /></svg>