<svg xmlns="http://www.w3.org/2000/svg" width="24" height="24" viewBox="0 0 24 24" fill="none"><path d="M14.9986 14C13.9733 14.8764 14.1964 16.4482 14.7714 17.487C15.3713 18.5704 15.723 19.7991 15.3413 20.9591C15.1382 21.5763 14.5055 22 13.7871 22H10.2249C9.52128 22 8.89841 21.5925 8.68443 20.9921C8.26498 19.8152 8.61274 18.555 9.21506 17.4437C9.76605 16.427 9.99549 14.8804 9.04318 14" stroke="currentColor" stroke-linecap="round" stroke-linejoin="round" stroke-width="1.5" /><path d="M8.5002 14H15.5002" stroke="currentColor" stroke-linecap="round" stroke-linejoin="round" stroke-width="1.5" /><path d="M14.5936 10H9.40637C7.51043 10 6.56247 10 6.16052 9.45157C5.75858 8.90313 6.14759 8.14046 6.92562 6.61512L8.31723 3.88683C8.78446 2.97081 9.01808 2.5128 9.46755 2.2564C9.91703 2 10.4863 2 11.6249 2H12.3751C13.5137 2 14.083 2 14.5324 2.2564C14.9819 2.5128 15.2155 2.97081 15.6828 3.88683L17.0744 6.61512C17.8524 8.14046 18.2414 8.90313 17.8395 9.45157C17.4375 10 16.4896 10 14.5936 10Z" stroke="currentColor" stroke-linecap="round" stroke-linejoin="round" stroke-width="1.5" /><path d="M12.0002 10L12.0002 14" stroke="currentColor" stroke-linecap="round" stroke-linejoin="round" stroke-width="1.5" /><path d="M9.0002 19H15.0002" stroke="currentColor" stroke-linecap="round" stroke-linejoin="round" stroke-width="1.5" /></svg>