<svg xmlns="http://www.w3.org/2000/svg" width="24" height="24" viewBox="0 0 24 24" fill="none"><path d="M15.4835 11.5L18.9129 13.4117C20.971 14.5591 22.0001 15.1327 22.0001 16.0001C22.0001 16.8675 20.971 17.4412 18.9129 18.5886L14.9668 20.7884C13.5176 21.5962 12.7931 22.0001 12.0001 22.0001C11.2071 22.0001 10.4825 21.5962 9.03335 20.7884L5.08727 18.5886C3.02913 17.4412 2.00006 16.8675 2.00006 16.0001C2.00006 15.1327 3.02913 14.5591 5.08727 13.4117L8.51657 11.5" stroke="currentColor" stroke-linecap="round" stroke-linejoin="round" stroke-width="1.5" /><path d="M17.25 12.75L6.75 19.25M6.75 12.75L17.25 19.25" stroke="currentColor" stroke-linecap="round" stroke-linejoin="round" stroke-width="1.5" /><path d="M12.0001 12V8.46038M12.0001 8.46038L12.0001 4.55707C12.0001 3.12848 12.0001 2.41418 12.4527 2.11609C12.9053 1.818 13.5312 2.12007 14.7831 2.7242L15.5367 3.08788C17.1789 3.88042 18.0001 4.27669 18.0001 4.92076C18.0001 5.56483 17.1789 5.9611 15.5367 6.75364L12.0001 8.46038Z" stroke="currentColor" stroke-linecap="round" stroke-linejoin="round" stroke-width="1.5" /></svg>