<svg xmlns="http://www.w3.org/2000/svg" width="24" height="24" viewBox="0 0 24 24" fill="none" stroke-width="1.5" stroke-linecap="round" stroke-linejoin="round" color="currentColor"><rect x="6" y="7.5" width="12" height="11" stroke="currentColor"></rect><path d="M6 7.5C6.71663 5.40983 8.72856 4 10.9947 4H13.0053C15.2714 4 17.2834 5.40983 18 7.5H6Z" stroke="currentColor"></path><path d="M18 18.5C17.2834 20.5902 15.2714 22 13.0053 22L10.9947 22C8.72855 22 6.71663 20.5902 6 18.5L18 18.5Z" stroke="currentColor"></path><path d="M6 7.5H5L6 8.5M18 7.5H19L18 8.5" stroke="currentColor"></path><path d="M18 18.5L19 18.5L18 17.5M6 18.5L5 18.5L6 17.5" stroke="currentColor"></path><path d="M21 11L22 10.5M21 15L22 15.5" stroke="currentColor"></path><path d="M3 11L2 10.5M3 15L2 15.5" stroke="currentColor"></path><path d="M12 12V14" stroke="currentColor"></path><path d="M12 2V4" stroke="currentColor"></path></svg>