<svg xmlns="http://www.w3.org/2000/svg" width="24" height="24" viewBox="0 0 24 24" fill="none" stroke-width="1.5" stroke-linecap="round" stroke-linejoin="round" color="currentColor"><path d="M20 15V10M4 15V7C4 5.11438 4 4.17157 4.58579 3.58579C5.17157 3 6.11438 3 8 3H11.5" stroke="currentColor"></path><path d="M14 6C14 6 15 6 16 8C16 8 19.1765 3 22 2" stroke="currentColor"></path><path d="M3.49762 16.0154L4.01953 15H19.9518L20.5023 16.0154C21.9452 18.677 22.3046 20.0077 21.7561 21.0039C21.2077 22 19.7536 22 16.8454 22L7.15462 22C4.24642 22 2.79231 22 2.24387 21.0039C1.69543 20.0077 2.05474 18.677 3.49762 16.0154Z" stroke="currentColor"></path></svg>