<svg xmlns="http://www.w3.org/2000/svg" width="24" height="24" viewBox="0 0 24 24" fill="none" stroke-width="1.5" stroke-linecap="round" stroke-linejoin="round" color="currentColor"><path d="M6.43614 8C6.15488 8.84221 6 9.76282 6 10.7273C6 14.7439 8.68629 18 12 18C15.3137 18 18 14.7439 18 10.7273C18 9.76282 17.8451 8.84221 17.5639 8" stroke="currentColor"></path><path d="M14.5 21C14.5 21 13.818 18 12 18C10.182 18 9.5 21 9.5 21" stroke="currentColor"></path><path d="M18.5201 5.22967C18.812 6.89634 17.5003 8 17.5003 8C17.5003 8 15.8968 7.437 15.6049 5.77033C15.313 4.10366 16.6247 3 16.6247 3C16.6247 3 18.2282 3.56301 18.5201 5.22967Z" stroke="currentColor"></path><path d="M11 9L12 8.5V13.5M13 13.5H11" stroke="currentColor"></path><path d="M21.0942 12.1393C19.8128 13.4061 18.0778 12.9003 18.0778 12.9003C18.0778 12.9003 17.6241 11.1276 18.9055 9.86074C20.1868 8.59388 21.9219 9.09972 21.9219 9.09972C21.9219 9.09972 22.3756 10.8724 21.0942 12.1393Z" stroke="currentColor"></path><path d="M18.2335 18.1896C16.7335 17.614 16.5 16 16.5 16C16.5 16 17.7665 14.9616 19.2665 15.5372C20.7665 16.1128 21 17.7268 21 17.7268C21 17.7268 19.7335 18.7652 18.2335 18.1896Z" stroke="currentColor"></path><path d="M5.76651 18.1895C7.26651 17.6139 7.5 15.9999 7.5 15.9999C7.5 15.9999 6.23349 14.9615 4.73349 15.5371C3.23349 16.1127 3 17.7267 3 17.7267C3 17.7267 4.26651 18.7651 5.76651 18.1895Z" stroke="currentColor"></path><path d="M2.90565 12.1393C4.187 13.4061 5.92203 12.9003 5.92203 12.9003C5.92203 12.9003 6.37571 11.1276 5.09435 9.86074C3.813 8.59388 2.07797 9.09972 2.07797 9.09972C2.07797 9.09972 1.62429 10.8724 2.90565 12.1393Z" stroke="currentColor"></path><path d="M5.47987 5.22967C5.18799 6.89634 6.49968 8 6.49968 8C6.49968 8 8.10325 7.437 8.39513 5.77033C8.68701 4.10366 7.37532 3 7.37532 3C7.37532 3 5.77175 3.56301 5.47987 5.22967Z" stroke="currentColor"></path></svg>