<svg xmlns="http://www.w3.org/2000/svg" width="24" height="24" viewBox="0 0 24 24" fill="none" stroke-width="1.5" stroke-linecap="round" stroke-linejoin="round" color="currentColor"><path d="M9.24601 6.61105C9.03276 8.25332 10.35 9.77729 10.35 9.77729C10.35 9.77729 12.013 8.6386 12.2262 6.99633C12.4395 5.35405 11.1223 3.83008 11.1223 3.83008C11.1223 3.83008 9.45927 4.96877 9.24601 6.61105Z" stroke="currentColor"></path><path d="M7.68301 12.1301C8.37906 13.6334 10.3074 14.2234 10.3074 14.2234C10.3074 14.2234 11.1071 12.3759 10.4111 10.8726C9.71504 9.36923 7.78674 8.7793 7.78674 8.7793C7.78674 8.7793 6.98696 10.6267 7.68301 12.1301Z" stroke="currentColor"></path><path d="M8.50364 17.4151C9.83175 18.4083 11.8095 18.0136 11.8095 18.0136C11.8095 18.0136 11.634 16.0089 10.3059 15.0157C8.97775 14.0226 7 14.4172 7 14.4172C7 14.4172 7.17554 16.422 8.50364 17.4151Z" stroke="currentColor"></path><path d="M12.113 21.7134C13.6179 22.4115 15.4715 21.6181 15.4715 21.6181C15.4715 21.6181 14.8849 19.6926 13.38 18.9944C11.875 18.2962 10.0215 19.0897 10.0215 19.0897C10.0215 19.0897 10.608 21.0152 12.113 21.7134Z" stroke="currentColor"></path><path d="M13.7813 2.96764C12.5708 4.10058 12.6174 6.11247 12.6174 6.11247C12.6174 6.11247 14.6267 6.28752 15.8372 5.15458C17.0477 4.02165 17.001 2.00975 17.001 2.00975C17.001 2.00975 14.9918 1.83471 13.7813 2.96764Z" stroke="currentColor"></path></svg>