<svg xmlns="http://www.w3.org/2000/svg" width="24" height="24" viewBox="0 0 24 24" fill="none" stroke-width="1.5" stroke-linecap="round" stroke-linejoin="round" color="currentColor"><path d="M21 5C20.6068 4.59544 19.5602 3 19 3C18.4398 3 17.3932 4.59544 17 5" stroke="currentColor"></path><path d="M5 17C4.59544 17.3932 3 18.4398 3 19C3 19.5602 4.59544 20.6068 5 21" stroke="currentColor"></path><path d="M19 12H18C15.1716 12 13.7574 12 12.8787 12.8787C12 13.7574 12 15.1716 12 18V19" stroke="currentColor"></path><path d="M3 19H13C15.8284 19 17.2426 19 18.1213 18.1479C19 17.2959 19 15.9245 19 13.1818V3" stroke="currentColor"></path></svg>