<svg xmlns="http://www.w3.org/2000/svg" width="24" height="24" viewBox="0 0 24 24" fill="none" stroke-width="1.5" stroke-linecap="round" stroke-linejoin="round" color="currentColor"><path d="M10.0195 8C9.32545 7.06743 8.14285 5.76203 8.60385 4.47631C8.91057 3.62086 11.0067 2 12 2C12.9933 2 15.0894 3.62086 15.3962 4.47631C15.8572 5.76203 14.6745 7.06743 13.9805 8" stroke="currentColor"></path><path d="M8 8H16" stroke="currentColor"></path><path d="M8 13H16" stroke="currentColor"></path><path d="M7.5 18H16.5" stroke="currentColor"></path><path d="M9.5 8L7 22M14.5 8L17 22" stroke="currentColor"></path><path d="M5 22H19" stroke="currentColor"></path><path d="M19 7.5L21 7M19 10.5L21 11" stroke="currentColor"></path><path d="M5 7.5L3 7M5 10.5L3 11" stroke="currentColor"></path></svg>