<svg xmlns="http://www.w3.org/2000/svg" width="24" height="24" viewBox="0 0 24 24" fill="none" stroke-width="1.5" stroke-linecap="round" stroke-linejoin="round" color="currentColor"><path d="M5.44 7.75L9.33346 11.6435C8.81228 12.2876 8.5 13.1075 8.5 14C8.5 16.07 10.18 17.75 12.25 17.75C14.32 17.75 16 16.07 16 14C16 11.93 14.32 10.25 12.25 10.25C11.6162 10.25 11.019 10.4075 10.4954 10.6854L6.28 6.46997C6.14 6.32997 5.95 6.25 5.75 6.25H3.25C2.84 6.25 2.5 6.59 2.5 7C2.5 7.41 2.84 7.75 3.25 7.75H5.44ZM12.25 11.75C11.01 11.75 10 12.76 10 14C10 15.24 11.01 16.25 12.25 16.25C13.49 16.25 14.5 15.24 14.5 14C14.5 12.76 13.49 11.75 12.25 11.75ZM17.5 14.01C17.5 14.42 17.84 14.76 18.25 14.76V14.77C18.66 14.77 19 14.43 19 14.01C19 13.59 18.66 13.26 18.25 13.26C17.84 13.26 17.5 13.6 17.5 14.01ZM20.5 14C20.5 14.41 20.84 14.75 21.25 14.75V14.76C21.66 14.76 22 14.42 22 14C22 13.58 21.66 13.25 21.25 13.25C20.84 13.25 20.5 13.59 20.5 14ZM6.25 14.77C5.84 14.77 5.5 14.43 5.5 14.02C5.5 13.61 5.84 13.27 6.25 13.27C6.66 13.27 7 13.6 7 14.01C7 14.43 6.66 14.77 6.25 14.77ZM3.25 14.76C2.84 14.76 2.5 14.42 2.5 14.01C2.5 13.6 2.84 13.26 3.25 13.26C3.66 13.26 4 13.59 4 14.01C4 14.43 3.66 14.77 3.25 14.77V14.76ZM11.5 14C11.5 14.41 11.84 14.75 12.25 14.75V14.76C12.66 14.76 13 14.42 13 14C13 13.58 12.66 13.25 12.25 13.25C11.84 13.25 11.5 13.59 11.5 14Z" fill="currentColor" fill-rule="evenodd"></path></svg>