<svg xmlns="http://www.w3.org/2000/svg" width="24" height="24" viewBox="0 0 24 24" fill="none" stroke-width="1.5" stroke-linecap="round" stroke-linejoin="round" color="currentColor"><path d="M11.1005 3.00208C7.45162 3.00864 5.54086 3.09822 4.31974 4.31931C3.00195 5.63706 3.00195 7.75796 3.00195 11.9997C3.00195 16.2415 3.00195 18.3624 4.31974 19.6801C5.63753 20.9979 7.75849 20.9979 12.0004 20.9979C16.2423 20.9979 18.3632 20.9979 19.6811 19.6801C20.9021 18.4591 20.9917 16.5484 20.9983 12.8996" stroke="currentColor"></path><path d="M20.4809 3.51715L14.9316 9.05114M20.4809 3.51715C19.9869 3.02264 16.6593 3.06873 15.9558 3.07874M20.4809 3.51715C20.9748 4.01166 20.9288 7.34292 20.9188 8.04718" stroke="currentColor"></path></svg>