<svg xmlns="http://www.w3.org/2000/svg" width="24" height="24" viewBox="0 0 24 24" fill="none" stroke-width="1.5" stroke-linecap="round" stroke-linejoin="round" color="currentColor"><path d="M3.97 19.3518C4.12 19.5018 4.31 19.5717 4.5 19.5717C4.69 19.5717 4.88 19.5018 5.03 19.3518C5.32 19.0618 5.32 18.5817 5.03 18.2917C3.52 16.7817 2.75 14.9417 2.75 12.8217C2.75 10.7017 3.52 8.86178 5.03 7.35178C5.32 7.06178 5.32 6.58172 5.03 6.29172C4.74 6.00172 4.26 6.00172 3.97 6.29172C2.19 8.07172 1.25 10.3317 1.25 12.8217C1.25 15.3117 2.19 17.5718 3.97 19.3518ZM7.5 17.5717C7.31 17.5717 7.12 17.5018 6.97 17.3518C5.88 16.2618 5.25 14.6117 5.25 12.8217C5.25 11.0317 5.88 9.38172 6.97 8.29172C7.26 8.00172 7.74 8.00172 8.03 8.29172C8.32 8.58172 8.32 9.06178 8.03 9.35178C7.22 10.1618 6.75 11.4317 6.75 12.8217C6.75 14.2117 7.22 15.4817 8.03 16.2917C8.32 16.5817 8.32 17.0618 8.03 17.3518C7.88 17.5018 7.69 17.5717 7.5 17.5717ZM12 15.5723C10.48 15.5723 9.25 14.3423 9.25 12.8223C9.25 11.3023 10.48 10.0723 12 10.0723C13.52 10.0723 14.75 11.3023 14.75 12.8223C14.75 14.3423 13.52 15.5723 12 15.5723ZM12 11.5723C11.31 11.5723 10.75 12.1323 10.75 12.8223C10.75 13.5123 11.31 14.0723 12 14.0723C12.69 14.0723 13.25 13.5123 13.25 12.8223C13.25 12.1323 12.69 11.5723 12 11.5723ZM16.4975 17.5717C16.3075 17.5717 16.1175 17.5018 15.9675 17.3518C15.6775 17.0618 15.6775 16.5817 15.9675 16.2917C16.7775 15.4817 17.2475 14.2117 17.2475 12.8217C17.2475 11.4317 16.7775 10.1618 15.9675 9.35178C15.6775 9.06178 15.6775 8.58172 15.9675 8.29172C16.2575 8.00172 16.7375 8.00172 17.0275 8.29172C18.1175 9.38172 18.7475 11.0317 18.7475 12.8217C18.7475 14.6117 18.1175 16.2618 17.0275 17.3518C16.8775 17.5018 16.6875 17.5717 16.4975 17.5717ZM18.9675 19.3518C19.1175 19.5018 19.3075 19.5717 19.4975 19.5717C19.6875 19.5717 19.8775 19.5018 20.0275 19.3518C21.8075 17.5718 22.7475 15.3117 22.7475 12.8217C22.7475 10.3317 21.8075 8.07172 20.0275 6.29172C19.7375 6.00172 19.2575 6.00172 18.9675 6.29172C18.6775 6.58172 18.6775 7.06178 18.9675 7.35178C20.4775 8.86178 21.2475 10.7017 21.2475 12.8217C21.2475 14.9417 20.4775 16.7817 18.9675 18.2917C18.6775 18.5817 18.6775 19.0618 18.9675 19.3518Z" fill="currentColor" fill-rule="evenodd"></path></svg>