<svg xmlns="http://www.w3.org/2000/svg" width="24" height="24" viewBox="0 0 24 24" fill="none" stroke-width="1.5" stroke-linecap="round" stroke-linejoin="round" color="currentColor"><path d="M15.4105 6.78809C15.5605 6.96809 15.7805 7.06812 16.0005 7.06812H16.0105C16.1805 7.06812 16.3405 7.01808 16.4805 6.90808C16.8005 6.65808 16.8605 6.17815 16.6005 5.85815C15.4405 4.40815 13.7705 3.57812 12.0105 3.57812C10.2505 3.57812 8.57052 4.40815 7.42052 5.85815C7.16052 6.17815 7.22052 6.64808 7.54052 6.90808C7.86052 7.16808 8.33052 7.10809 8.59052 6.78809C9.45052 5.69809 10.7005 5.06812 12.0005 5.06812C13.3005 5.06812 14.5405 5.69809 15.4105 6.78809ZM7 22.0681H17C19 22.0681 20 22.0681 20.88 21.5681C21.47 21.2281 21.93 20.7581 22.25 20.1981C22.75 19.3281 22.75 18.3181 22.75 16.3281C22.75 14.3381 22.75 13.3281 22.25 12.4581C21.92 11.8881 21.46 11.4281 20.87 11.0781C20 10.5781 19 10.5781 17 10.5781H7C5 10.5781 4 10.5781 3.12 11.0781C2.53 11.4181 2.07 11.8881 1.75 12.4481C1.25 13.3181 1.25 14.3281 1.25 16.3181C1.25 18.3081 1.25 19.3181 1.75 20.1881C2.08 20.7581 2.54 21.2181 3.13 21.5681C4 22.0681 5 22.0681 7 22.0681ZM3.87 12.3682C4.4 12.0682 5.27 12.0681 7 12.0681H17C18.74 12.0681 19.61 12.0682 20.12 12.3682C20.48 12.5782 20.76 12.8581 20.95 13.1981C21.25 13.7281 21.25 14.5981 21.25 16.3281C21.25 18.0581 21.25 18.9281 20.95 19.4581C20.76 19.7981 20.48 20.0681 20.13 20.2781C19.6 20.5781 18.73 20.5781 17 20.5781H7C5.26 20.5781 4.39 20.5781 3.88 20.2781C3.52 20.0681 3.24 19.7881 3.05 19.4481C2.75 18.9181 2.75 18.0481 2.75 16.3181C2.75 14.5881 2.75 13.7181 3.05 13.1881C3.24 12.8481 3.52 12.5782 3.87 12.3682ZM13.9988 9.06812C13.7788 9.06812 13.5588 8.96809 13.4088 8.78809C12.6788 7.87809 11.3088 7.87809 10.5788 8.78809C10.3188 9.10809 9.8488 9.15808 9.5288 8.90808C9.2088 8.64808 9.1488 8.17815 9.4088 7.85815C10.0588 7.04815 10.9988 6.57812 11.9988 6.57812C12.9988 6.57812 13.9288 7.04815 14.5888 7.85815C14.8488 8.17815 14.7988 8.65808 14.4688 8.90808C14.3288 9.01808 14.1688 9.06812 13.9988 9.06812ZM17 19.0685H19C19.41 19.0685 19.75 18.7285 19.75 18.3185C19.75 17.9085 19.41 17.5685 19 17.5685H17.75V17.0685H18.5C18.91 17.0685 19.25 16.7285 19.25 16.3185C19.25 15.9085 18.91 15.5685 18.5 15.5685H17.75V15.0685H19C19.41 15.0685 19.75 14.7285 19.75 14.3185C19.75 13.9085 19.41 13.5685 19 13.5685H17C16.59 13.5685 16.25 13.9085 16.25 14.3185V18.3185C16.25 18.7285 16.59 19.0685 17 19.0685ZM12.3 18.5785C12.41 18.8785 12.69 19.0685 13 19.0685H13.02C13.33 19.0685 13.61 18.8685 13.72 18.5785L15.22 14.5785C15.36 14.1885 15.17 13.7585 14.78 13.6085C14.39 13.4585 13.96 13.6585 13.81 14.0485L13.01 16.1785L12.21 14.0485C12.06 13.6585 11.63 13.4585 11.24 13.6085C10.85 13.7585 10.65 14.1885 10.8 14.5785L12.3 18.5785ZM8.25 18.3185C8.25 18.7285 8.59 19.0685 9 19.0685C9.41 19.0685 9.75 18.7285 9.75 18.3185V14.3185C9.75 13.9085 9.41 13.5685 9 13.5685C8.59 13.5685 8.25 13.9085 8.25 14.3185V18.3185ZM4.25 18.3185C4.25 18.7285 4.59 19.0685 5 19.0685H6.5C6.91 19.0685 7.25 18.7285 7.25 18.3185C7.25 17.9085 6.91 17.5685 6.5 17.5685H5.75V14.3185C5.75 13.9085 5.41 13.5685 5 13.5685C4.59 13.5685 4.25 13.9085 4.25 14.3185V18.3185Z" fill="currentColor" fill-rule="evenodd"></path></svg>