<svg xmlns="http://www.w3.org/2000/svg" width="24" height="24" viewBox="0 0 24 24" fill="none" stroke-width="1.5" stroke-linecap="round" stroke-linejoin="round" color="currentColor"><path d="M9.49391 21.0723H9.49349C6.03376 21.0723 4.29385 21.0723 2.98391 19.9923C2.76391 19.8223 2.54391 19.6023 2.33391 19.3423C1.25391 18.0223 1.25391 16.2823 1.25391 12.8223C1.25391 9.36227 1.25391 7.62225 2.33391 6.30225C2.55391 6.04225 2.77391 5.82221 3.00391 5.64221C4.30384 4.57227 6.04373 4.57227 9.50339 4.57227H9.50391H9.50433C12.964 4.57227 14.704 4.57227 16.0139 5.65222C16.2339 5.82222 16.4539 6.04225 16.6639 6.30225C17.3473 7.13756 17.5983 8.14107 17.6904 9.64221L18.9941 7.90222C19.3941 7.38222 20.0141 7.07227 20.6641 7.07227C21.8141 7.07227 22.7441 8.00222 22.7441 9.15222V16.4923C22.7441 17.6423 21.8141 18.5723 20.6641 18.5723H20.6541C20.0041 18.5723 19.3841 18.2623 18.9941 17.7423L17.6904 16.0023C17.5982 17.5023 17.3473 18.5034 16.6639 19.3323C16.4539 19.5923 16.2239 19.8123 16.0039 19.9923C14.694 21.0723 12.954 21.0723 9.49433 21.0723H9.49391ZM9.49391 6.07227H9.49378C6.39387 6.07227 4.83389 6.07227 3.93391 6.81226C3.77391 6.94226 3.62391 7.08221 3.48391 7.26221C2.74391 8.16221 2.74391 9.72227 2.74391 12.8223C2.74391 15.9223 2.74391 17.4823 3.48391 18.3823C3.62391 18.5523 3.77391 18.7023 3.92391 18.8223C4.83391 19.5723 6.39391 19.5723 9.49391 19.5723H9.49403C12.5939 19.5723 14.1539 19.5723 15.0539 18.8323H15.0639C15.2139 18.7123 15.3639 18.5722 15.5039 18.3922C16.2439 17.4922 16.2439 15.9323 16.2439 12.8323V12.8323V12.8323C16.2439 9.73227 16.2439 8.17221 15.5039 7.27222C15.3639 7.10222 15.2139 6.95228 15.0639 6.83228C14.1539 6.08228 12.5939 6.08228 9.49391 6.08228V6.07227ZM17.7441 13.5723L20.1941 16.8423C20.3041 16.9823 20.4741 17.0723 20.6641 17.0723C20.9841 17.0723 21.2441 16.8123 21.2441 16.4923V9.15222C21.2441 8.83222 20.9841 8.57227 20.6641 8.57227C20.4841 8.57227 20.3041 8.66225 20.1941 8.80225L17.7441 12.0723V13.5723ZM7.24414 12.8223C7.24414 14.0623 8.25414 15.0723 9.49414 15.0723C10.7341 15.0723 11.7441 14.0623 11.7441 12.8223C11.7441 11.5823 10.7341 10.5723 9.49414 10.5723C8.25414 10.5723 7.24414 11.5823 7.24414 12.8223Z" fill="currentColor" fill-rule="evenodd"></path></svg>