<svg xmlns="http://www.w3.org/2000/svg" width="24" height="24" viewBox="0 0 24 24" fill="none" stroke-width="1.5" stroke-linecap="round" stroke-linejoin="round" color="currentColor"><path d="M20 11L22 12C22 6.47715 17.5228 2 12 2C7.89936 2 4.3752 4.46819 2.83209 8M4 13L2 12C2 17.5228 6.47715 22 12 22C16.1006 22 19.6248 19.5318 21.1679 16" stroke="currentColor"></path><path d="M12 11.5H12.009" stroke="currentColor"></path><path d="M12 7C14.4353 7 16.5 9.01649 16.5 11.4629C16.5 13.9482 14.4017 15.6924 12.4635 16.8783C12.3223 16.9581 12.1625 17 12 17C11.8375 17 11.6777 16.9581 11.5365 16.8783C9.60195 15.6808 7.5 13.9568 7.5 11.4629C7.5 9.01649 9.56472 7 12 7Z" stroke="currentColor"></path></svg>