<svg xmlns="http://www.w3.org/2000/svg" width="24" height="24" viewBox="0 0 24 24" fill="none" stroke-width="1.5" stroke-linecap="round" stroke-linejoin="round" color="currentColor"><path d="M10 3H14C17.7712 3 19.6569 3 20.8284 4.17157C22 5.34315 22 7.22876 22 11C22 14.7712 22 16.6569 20.8284 17.8284C19.6569 19 17.7712 19 14 19H10C6.22876 19 4.34315 19 3.17157 17.8284C2 16.6569 2 14.7712 2 11C2 7.22876 2 5.34315 3.17157 4.17157C4.34315 3 6.22876 3 10 3Z" stroke="currentColor"></path><path d="M5.5 7L8.5 7" stroke="currentColor"></path><path d="M5.5 10L8.5 10" stroke="currentColor"></path><path d="M15.5 7L18.5 7" stroke="currentColor"></path><path d="M15.5 10L18.5 10" stroke="currentColor"></path><path d="M20 19V21M4 19V21" stroke="currentColor"></path><path d="M12 3L12 19" stroke="currentColor"></path><path d="M17.992 14L18.001 14" stroke="currentColor"></path><path d="M8.5 14L8.50898 14" stroke="currentColor"></path></svg>