<svg xmlns="http://www.w3.org/2000/svg" width="24" height="24" viewBox="0 0 24 24" fill="none" stroke-width="1.5" stroke-linecap="round" stroke-linejoin="round" color="currentColor"><path d="M2 11C2 6.75736 2 4.63604 3.17157 3.31802C4.34315 2 6.22876 2 10 2H14C17.7712 2 19.6569 2 20.8284 3.31802C22 4.63604 22 6.75736 22 11C22 15.2426 22 17.364 20.8284 18.682C19.6569 20 17.7712 20 14 20H10C6.22876 20 4.34315 20 3.17157 18.682C2 17.364 2 15.2426 2 11Z" stroke="currentColor"></path><path d="M6 20V22M18 20V22" stroke="currentColor"></path><path d="M12 7V20" stroke="currentColor"></path><path d="M9 13V14" stroke="currentColor"></path><path d="M15 13V14" stroke="currentColor"></path><path d="M2 7H22" stroke="currentColor"></path></svg>