<svg xmlns="http://www.w3.org/2000/svg" width="24" height="24" viewBox="0 0 24 24" fill="none" stroke-width="1.5" stroke-linecap="round" stroke-linejoin="round" color="currentColor"><path d="M2.5 12C2.5 7.52166 2.5 5.28248 3.89124 3.89124C5.28249 2.5 7.52166 2.5 12 2.5C16.4783 2.5 18.7175 2.5 20.1088 3.89124C21.5 5.28248 21.5 7.52166 21.5 12C21.5 16.4783 21.5 18.7175 20.1088 20.1087C18.7175 21.5 16.4783 21.5 12 21.5C7.52166 21.5 5.28249 21.5 3.89124 20.1087C2.5 18.7175 2.5 16.4783 2.5 12Z" stroke="currentColor"></path><path d="M7.03711 12.0277L14.0127 12.0277M14.0127 12.0277C14.0127 12.5982 11.8575 14.5151 11.8575 14.5151M14.0127 12.0277C14.0127 11.4424 11.8575 9.56334 11.8575 9.56334M17.0371 7.99536V15.9954" stroke="currentColor"></path></svg>