<svg xmlns="http://www.w3.org/2000/svg" width="24" height="24" viewBox="0 0 24 24" fill="none" stroke-width="1.5" stroke-linecap="round" stroke-linejoin="round" color="currentColor"><path d="M18.4922 20.0625C17.9622 20.0625 17.6422 20.0625 17.3122 19.9225C16.8922 19.7525 16.5522 19.4125 16.3722 18.9725C16.2422 18.6625 16.2422 18.3625 16.2422 17.8125V6.8125C16.2422 6.2625 16.2422 5.9625 16.3822 5.6425C16.5522 5.2125 16.8922 4.8825 17.3322 4.7025C17.6422 4.5625 17.9622 4.5625 18.5022 4.5625C19.0422 4.5625 19.3522 4.5625 19.6822 4.7025C20.1022 4.8725 20.4422 5.2125 20.6222 5.6525C20.7522 5.9625 20.7522 6.2625 20.7522 6.8125V17.8125C20.7522 18.3625 20.7522 18.6625 20.6122 18.9825C20.4422 19.4125 20.1022 19.7425 19.6622 19.9225C19.3522 20.0625 19.0322 20.0625 18.4922 20.0625ZM18.4922 6.0625C18.2322 6.0625 17.9722 6.0625 17.9022 6.0825C17.8322 6.1125 17.7922 6.1525 17.7622 6.2125C17.7422 6.2825 17.7422 6.5525 17.7422 6.8125V17.8125C17.7422 18.0725 17.7422 18.3425 17.7622 18.4125C17.7922 18.4725 17.8322 18.5125 17.8922 18.5425C18.0522 18.5925 18.9522 18.5825 19.0822 18.5425C19.1522 18.5125 19.1922 18.4725 19.2222 18.4125C19.2422 18.3425 19.2422 18.0725 19.2422 17.8125V6.8125C19.2422 6.5525 19.2422 6.2825 19.2222 6.2125C19.1922 6.1525 19.1522 6.1125 19.0922 6.0825C19.0122 6.0625 18.7522 6.0625 18.4922 6.0625ZM11.9922 20.0625C11.4622 20.0625 11.1422 20.0625 10.8122 19.9225C10.3922 19.7525 10.0522 19.4125 9.87219 18.9725C9.74219 18.6625 9.74219 18.3625 9.74219 17.8125V9.8125C9.74219 9.2625 9.74219 8.9625 9.88219 8.6425C10.0522 8.2125 10.3922 7.8825 10.8322 7.7025C11.1422 7.5625 11.4622 7.5625 12.0022 7.5625C12.5422 7.5625 12.8522 7.5625 13.1822 7.7025C13.6022 7.8725 13.9422 8.2125 14.1222 8.6525C14.2522 8.9625 14.2522 9.2625 14.2522 9.8125V17.8125C14.2522 18.3625 14.2522 18.6625 14.1122 18.9825C13.9422 19.4125 13.6022 19.7425 13.1622 19.9225C12.8522 20.0625 12.5322 20.0625 11.9922 20.0625ZM11.9922 9.0625C11.7322 9.0625 11.4722 9.0625 11.4022 9.0825C11.3322 9.1125 11.2922 9.1525 11.2622 9.2125C11.2422 9.2825 11.2422 9.5525 11.2422 9.8125V17.8125C11.2422 18.0725 11.2422 18.3425 11.2622 18.4125C11.2922 18.4725 11.3322 18.5125 11.3922 18.5425C11.5522 18.5925 12.4522 18.5825 12.5822 18.5425C12.6522 18.5125 12.6922 18.4725 12.7222 18.4125C12.7422 18.3425 12.7422 18.0725 12.7422 17.8125V9.8125C12.7422 9.5525 12.7422 9.2825 12.7222 9.2125C12.6922 9.1525 12.6522 9.1125 12.5922 9.0825C12.5122 9.0625 12.2522 9.0625 11.9922 9.0625ZM4.31219 19.9225C4.64219 20.0625 4.96219 20.0625 5.49219 20.0625C6.03219 20.0625 6.35219 20.0625 6.66219 19.9225C7.10219 19.7425 7.44219 19.4125 7.61219 18.9825C7.75219 18.6625 7.75219 18.3625 7.75219 17.8125V13.8125C7.75219 13.2625 7.75219 12.9625 7.62219 12.6525C7.44219 12.2125 7.10219 11.8725 6.68219 11.7025C6.35219 11.5625 6.04219 11.5625 5.50219 11.5625C4.96219 11.5625 4.64219 11.5625 4.33219 11.7025C3.89219 11.8825 3.55219 12.2125 3.38219 12.6425C3.24219 12.9625 3.24219 13.2625 3.24219 13.8125V17.8125C3.24219 18.3625 3.24219 18.6625 3.37219 18.9725C3.55219 19.4125 3.89219 19.7525 4.31219 19.9225ZM4.90219 13.0825C4.97219 13.0625 5.23219 13.0625 5.49219 13.0625C5.75219 13.0625 6.01219 13.0625 6.09219 13.0825C6.15219 13.1125 6.19219 13.1525 6.22219 13.2125C6.24219 13.2825 6.24219 13.5525 6.24219 13.8125V17.8125C6.24219 18.0725 6.24219 18.3425 6.22219 18.4125C6.19219 18.4725 6.15219 18.5125 6.08219 18.5425C5.95219 18.5825 5.05219 18.5925 4.89219 18.5425C4.83219 18.5125 4.79219 18.4725 4.76219 18.4125C4.74219 18.3425 4.74219 18.0725 4.74219 17.8125V13.8125C4.74219 13.5525 4.74219 13.2825 4.76219 13.2125C4.79219 13.1525 4.83219 13.1125 4.90219 13.0825Z" fill="currentColor" fill-rule="evenodd"></path></svg>