<svg xmlns="http://www.w3.org/2000/svg" width="24" height="24" viewBox="0 0 24 24" fill="none" stroke-width="1.5" stroke-linecap="round" stroke-linejoin="round" color="currentColor"><path d="M19.4378 3.67031C19.0678 2.87031 17.9278 2.87031 17.5578 3.67031L17.1678 4.51028C17.0678 4.72028 16.8978 4.89032 16.6878 4.99032L15.8478 5.38033C15.0478 5.75033 15.0478 6.89028 15.8478 7.26028L16.6878 7.65029C16.8978 7.75029 17.0678 7.92033 17.1678 8.13033L17.5578 8.9703C17.9278 9.7703 19.0678 9.7703 19.4378 8.9703L19.8278 8.13033C19.9278 7.92033 20.0978 7.75029 20.3078 7.65029L21.1478 7.26028C21.9478 6.89028 21.9478 5.75033 21.1478 5.38033L20.3078 4.99032C20.0978 4.89032 19.9278 4.72028 19.8278 4.51028L19.4378 3.67031ZM17.3778 6.32028C17.8678 6.08028 18.2578 5.68028 18.4978 5.20028C18.7378 5.69028 19.1378 6.08028 19.6178 6.32028C19.1278 6.56028 18.7378 6.96033 18.4978 7.44033C18.2578 6.95033 17.8578 6.56028 17.3778 6.32028ZM13.6578 10.5803C12.9778 9.90029 11.8778 9.90029 11.1978 10.5803L11.1578 10.6203L10.4178 11.3603L2.88781 18.8903C2.04781 19.7303 2.04781 21.0903 2.88781 21.9403C3.72781 22.7903 5.0878 22.7803 5.9378 21.9403L14.2478 13.6303C14.9278 12.9503 14.9278 11.8503 14.2478 11.1703L13.6678 10.5903L13.6578 10.5803ZM3.9378 19.9603L10.9378 12.9603L11.8578 13.8803L4.85778 20.8803C4.59778 21.1403 4.1878 21.1403 3.9378 20.8803C3.6878 20.6203 3.6778 20.2103 3.9378 19.9603ZM19.4378 14.6703L19.8278 15.5103C19.9278 15.7203 20.0978 15.8903 20.3078 15.9903L21.1478 16.3803C21.9478 16.7503 21.9478 17.8903 21.1478 18.2603L20.3078 18.6503C20.0978 18.7503 19.9278 18.9203 19.8278 19.1303L19.4378 19.9703C19.0678 20.7703 17.9278 20.7703 17.5578 19.9703L17.1678 19.1303C17.0678 18.9203 16.8978 18.7503 16.6878 18.6503L15.8478 18.2603C15.0478 17.8903 15.0478 16.7503 15.8478 16.3803L16.6878 15.9903C16.8978 15.8903 17.0678 15.7203 17.1678 15.5103L17.5578 14.6703C17.9278 13.8703 19.0678 13.8703 19.4378 14.6703ZM18.4978 16.2003C18.2578 16.6903 17.8578 17.0803 17.3778 17.3203C17.8678 17.5603 18.2578 17.9603 18.4978 18.4403C18.7378 17.9503 19.1378 17.5603 19.6178 17.3203C19.1278 17.0803 18.7378 16.6803 18.4978 16.2003ZM8.4378 3.67031C8.0678 2.87031 6.9278 2.87031 6.5578 3.67031L6.16781 4.51028C6.06781 4.72028 5.8978 4.89032 5.6878 4.99032L4.8478 5.38033C4.0478 5.75033 4.0478 6.89028 4.8478 7.26028L5.6878 7.65029C5.8978 7.75029 6.06781 7.92033 6.16781 8.13033L6.5578 8.9703C6.9278 9.7703 8.0678 9.7703 8.4378 8.9703L8.82778 8.13033C8.92778 7.92033 9.0978 7.75029 9.3078 7.65029L10.1478 7.26028C10.9478 6.89028 10.9478 5.75033 10.1478 5.38033L9.3078 4.99032C9.0978 4.89032 8.92778 4.72028 8.82778 4.51028L8.4378 3.67031ZM6.3778 6.32028C6.8678 6.08028 7.2578 5.68028 7.4978 5.20028C7.7378 5.69028 8.13779 6.08028 8.61779 6.32028C8.12779 6.56028 7.7378 6.96033 7.4978 7.44033C7.2578 6.95033 6.8578 6.56028 6.3778 6.32028Z" fill="currentColor" fill-rule="evenodd"></path></svg>