<svg xmlns="http://www.w3.org/2000/svg" width="24" height="24" viewBox="0 0 24 24" fill="none"><path d="M22 11C22 10.5086 21.9947 10.0172 21.9842 9.52436C21.9189 6.45883 21.8862 4.92606 20.7551 3.79063C19.6239 2.6552 18.0497 2.61565 14.9012 2.53654C12.9607 2.48778 11.0393 2.48778 9.09882 2.53653C5.95033 2.61563 4.37608 2.65518 3.24495 3.79062C2.11382 4.92605 2.08114 6.45882 2.01576 9.52435C1.99474 10.51 1.99475 11.4899 2.01577 12.4756C2.08114 15.5411 2.11383 17.0739 3.24496 18.2093C4.37608 19.3448 5.95033 19.3843 9.09883 19.4634C10.5713 19.5004 12.0328 19.5093 13.5 19.4902" stroke="currentColor" stroke-linecap="round" stroke-linejoin="round" stroke-width="1.5" /><path d="M2 5L8.91302 8.92462C11.4387 10.3585 12.5613 10.3585 15.087 8.92462L22 5" stroke="currentColor" stroke-linejoin="round" stroke-width="1.5" /><path d="M17 19C17.4915 19.5057 18.7998 21.5 19.5 21.5M22 19C21.5085 19.5057 20.2002 21.5 19.5 21.5M19.5 21.5V13.5" stroke="currentColor" stroke-linecap="round" stroke-linejoin="round" stroke-width="1.5" /></svg>