<svg xmlns="http://www.w3.org/2000/svg" width="24" height="24" viewBox="0 0 24 24" fill="none"><path d="M22 12.5C22 12.0086 21.9947 11.0172 21.9842 10.5244C21.9189 7.45883 21.8862 5.92606 20.7551 4.79063C19.6239 3.6552 18.0497 3.61565 14.9012 3.53654C12.9607 3.48778 11.0393 3.48778 9.09882 3.53653C5.95033 3.61563 4.37608 3.65518 3.24495 4.79062C2.11382 5.92605 2.08114 7.45882 2.01576 10.5243C1.99474 11.51 1.99475 12.4899 2.01577 13.4756C2.08114 16.5411 2.11383 18.0739 3.24496 19.2093C4.37608 20.3448 5.95033 20.3843 9.09883 20.4634C9.90159 20.4836 10.7011 20.4954 11.5 20.4989" stroke="currentColor" stroke-linecap="round" stroke-linejoin="round" stroke-width="1.5" /><path d="M2 6L8.91302 9.92462C11.4387 11.3585 12.5613 11.3585 15.087 9.92462L22 6" stroke="currentColor" stroke-linejoin="round" stroke-width="1.5" /><path d="M14 17.5L22 17.5M14 17.5C14 16.7998 15.9943 15.4915 16.5 15M14 17.5C14 18.2002 15.9943 19.5085 16.5 20" stroke="currentColor" stroke-linecap="round" stroke-linejoin="round" stroke-width="1.5" /></svg>