<svg xmlns="http://www.w3.org/2000/svg" width="24" height="24" viewBox="0 0 24 24" fill="none"><path d="M13 3H16C18.8284 3 20.2426 3 21.1213 3.87868C22 4.75736 22 6.17157 22 9C22 11.8284 22 13.2426 21.1213 14.1213C20.2426 15 18.8284 15 16 15H13C10.1716 15 8.75736 15 7.87868 14.1213C7 13.2426 7 11.8284 7 9C7 6.17157 7 4.75736 7.87868 3.87868C8.75736 3 10.1716 3 13 3Z" stroke="currentColor" stroke-linecap="round" stroke-linejoin="round" stroke-width="1.5" /><path d="M17 17.9358C16.9036 18.9318 16.6857 19.6022 16.1933 20.1025C15.3102 21 13.8888 21 11.0459 21H8.0306C5.18775 21 3.76632 21 2.88316 20.1025C2 19.2051 2 17.7606 2 14.8717C2 11.9828 2 10.5383 2.88316 9.64085C3.18449 9.33464 3.54848 9.1329 4.0102 9" stroke="currentColor" stroke-linecap="round" stroke-linejoin="round" stroke-width="1.5" /><path d="M21.7585 6.12671L17.587 8.31597C16.083 9.1053 15.331 9.49996 14.5 9.49996C13.6691 9.49996 12.917 9.1053 11.413 8.31597L7.24152 6.12671" stroke="currentColor" stroke-linecap="round" stroke-linejoin="round" stroke-width="1.5" /></svg>