<svg xmlns="http://www.w3.org/2000/svg" width="24" height="24" viewBox="0 0 24 24" fill="none"><path d="M2.50006 6L9.06743 9.91697C11.4886 11.361 12.5115 11.361 14.9327 9.91697L21.5001 6" stroke="currentColor" stroke-linecap="round" stroke-linejoin="round" stroke-width="1.5" /><path d="M18 15C18 13.8954 18.8954 13 20 13C21.1046 13 22 13.8954 22 15C22 15.7571 21.5793 16.4159 20.959 16.7555C20.4745 17.0207 20 17.4477 20 18" stroke="currentColor" stroke-linecap="round" stroke-linejoin="round" stroke-width="1.5" /><path d="M20.125 20.75H20M20.25 20.75C20.25 20.8881 20.1381 21 20 21C19.8619 21 19.75 20.8881 19.75 20.75C19.75 20.6119 19.8619 20.5 20 20.5C20.1381 20.5 20.25 20.6119 20.25 20.75Z" stroke="currentColor" stroke-linecap="round" stroke-linejoin="round" stroke-width="1.5" /><path d="M15.0001 18.9991C14.6823 19 14.3493 19 14.0001 19H10.0001C6.22882 19 4.34321 19 3.17163 17.8284C2.00006 16.6569 2.00006 14.7712 2.00006 11C2.00006 7.22876 2.00006 5.34315 3.17163 4.17157C4.34321 3 6.22882 3 10.0001 3H14.0001C17.7713 3 19.6569 3 20.8285 4.17157C21.8916 5.23467 21.99 6.8857 21.9991 10" stroke="currentColor" stroke-linecap="round" stroke-linejoin="round" stroke-width="1.5" /></svg>