<svg xmlns="http://www.w3.org/2000/svg" width="24" height="24" viewBox="0 0 24 24" fill="none" stroke-width="1.5" stroke-linecap="round" stroke-linejoin="round" color="currentColor"><path d="M10.789 14.5206C11.9444 15.4458 13.4091 16 15 16C18.72 16 21.75 12.97 21.75 9.25C21.75 5.53 18.72 2.5 15 2.5C11.28 2.5 8.25 5.53 8.25 9.25C8.25 10.8406 8.80397 12.3051 9.72899 13.4605L3.82 19.3695C3.75 18.8995 3.75 18.2295 3.75 17.2495V17.2495V15.2495C3.75 14.8395 3.41 14.4995 3 14.4995C2.59 14.4995 2.25 14.8395 2.25 15.2495V17.2495C2.25 19.2795 2.25 20.3895 3.05 21.1895C3.85993 21.9995 4.96982 21.9995 6.99951 21.9995H7H9C9.41 21.9995 9.75 21.6595 9.75 21.2495C9.75 20.8395 9.41 20.4995 9 20.4995H7H6.99776C6.01898 20.4995 5.34964 20.4995 4.88 20.4295L10.789 14.5206ZM9.75 9.25C9.75 6.35 12.1 4 15 4C17.9 4 20.25 6.35 20.25 9.25C20.25 12.15 17.9 14.5 15 14.5C12.1 14.5 9.75 12.15 9.75 9.25Z" fill="currentColor" fill-rule="evenodd"></path></svg>