<svg xmlns="http://www.w3.org/2000/svg" width="24" height="24" viewBox="0 0 24 24" fill="none" stroke-width="1.5" stroke-linecap="round" stroke-linejoin="round" color="currentColor"><path d="M20.1032 22.5061H3.91319C3.38319 22.5061 2.88319 22.2661 2.57319 21.8661C2.28319 21.4961 2.19319 21.0362 2.30319 20.5762C2.71319 18.9462 3.97319 17.6361 5.57319 17.1461L8.75319 16.1862V15.1661C7.16319 13.8561 5.75319 12.0361 5.75319 8.16614C5.75319 4.29614 7.90319 1.99609 11.4932 1.99609C13.3232 1.99609 14.3732 2.6361 14.8332 3.0061C18.2432 3.2061 18.2432 6.79614 18.2432 8.16614C18.2432 12.0361 16.8332 13.8561 15.2432 15.1661V16.1862L18.4232 17.1461C20.0332 17.6361 21.2832 18.9462 21.6932 20.5662C21.8032 21.0162 21.7032 21.4861 21.4232 21.8561C21.1132 22.2561 20.6132 22.4961 20.0832 22.4961L20.1032 22.5061ZM11.5032 3.5061C8.76319 3.5061 7.26319 5.16615 7.26319 8.17615C7.26319 11.4461 8.30319 12.9161 9.97319 14.2261C10.1532 14.3661 10.2632 14.5862 10.2632 14.8162V16.7561C10.2632 17.0861 10.0432 17.3761 9.73319 17.4761L6.01319 18.5962C4.91319 18.9262 4.04319 19.8362 3.76319 20.9562C3.76319 20.9662 3.83319 21.0161 3.92319 21.0161H20.1132C20.2032 21.0161 20.2632 20.9762 20.2732 20.9562C19.9832 19.8462 19.1232 18.9461 18.0232 18.6061L14.3132 17.4861C13.9932 17.3861 13.7832 17.0961 13.7832 16.7661V14.8262C13.7832 14.5962 13.8932 14.3761 14.0732 14.2361C15.7432 12.9261 16.7832 11.4662 16.7832 8.18616C16.7832 5.12616 15.9332 4.51611 14.5732 4.51611C14.3632 4.51611 14.1532 4.42611 14.0132 4.26611C13.9932 4.24611 13.2732 3.51611 11.5232 3.51611L11.5032 3.5061Z" fill="currentColor"></path></svg>