<svg xmlns="http://www.w3.org/2000/svg" width="24" height="24" viewBox="0 0 24 24" fill="none" stroke-width="1.5" stroke-linecap="round" stroke-linejoin="round" color="currentColor"><path d="M3.75 4.25C3.75 5.77 4.98 7 6.5 7C8.02 7 9.25 5.77 9.25 4.25C9.25 2.73 8.02 1.5 6.5 1.5C4.98 1.5 3.75 2.73 3.75 4.25ZM5.25 4.25C5.25 3.56 5.81 3 6.5 3C7.19 3 7.75 3.56 7.75 4.25C7.75 4.94 7.19 5.5 6.5 5.5C5.81 5.5 5.25 4.94 5.25 4.25ZM15.2706 22.49C15.7806 23 16.4306 23 17.5006 23C18.5706 23 19.2206 23 19.7406 22.48C20.2506 21.97 20.2506 21.32 20.2506 20.25V17.49C21.1106 17.46 21.7706 17.3001 22.1006 16.5901C22.4485 15.8345 22.1541 15.0493 21.62 13.6253L21.6106 13.6001L20.3706 10.28C19.8506 8.87003 18.7506 8 17.5006 8C16.2506 8 15.1506 8.88003 14.6306 10.28L13.3906 13.6001L13.3812 13.6252C12.8471 15.0493 12.5526 15.8346 12.9006 16.6001C13.2306 17.3001 13.8906 17.46 14.7506 17.49V20.25C14.7506 21.32 14.7506 21.96 15.2706 22.49ZM16.0406 10.8C16.3306 10.01 16.9006 9.5 17.5006 9.5L17.5206 9.52002C18.1106 9.52002 18.6906 10.0301 18.9806 10.8201L20.2206 14.1401C20.5406 14.9801 20.8406 15.7799 20.7906 15.9299C20.6506 16.0099 20.0206 16.01 19.5106 16.01C19.1006 16.01 18.7606 16.35 18.7606 16.76V20.26C18.7606 20.76 18.7606 21.3699 18.6906 21.4399C18.4706 21.5799 16.5406 21.5699 16.3406 21.4399C16.2606 21.3499 16.2606 20.74 16.2606 20.25V16.75C16.2606 16.34 15.9206 16 15.5106 16C15.0006 16 14.3706 16 14.2706 15.97C14.1806 15.77 14.4806 14.9701 14.8006 14.1201L16.0406 10.8ZM17.5 7C15.98 7 14.75 5.77 14.75 4.25C14.75 2.73 15.98 1.5 17.5 1.5C19.02 1.5 20.25 2.73 20.25 4.25C20.25 5.77 19.02 7 17.5 7ZM17.5 3C16.81 3 16.25 3.56 16.25 4.25C16.25 4.94 16.81 5.5 17.5 5.5C18.19 5.5 18.75 4.94 18.75 4.25C18.75 3.56 18.19 3 17.5 3ZM4.27 22.49C4.78 23 5.43 23 6.5 23C7.57 23 8.22 23 8.74 22.48C9.25 21.97 9.25 21.32 9.25 20.25V17.49C9.9 17.46 10.35 17.36 10.74 16.98C11.25 16.47 11.25 15.82 11.25 14.75V12.75C11.25 10.72 11.25 9.61006 10.45 8.81006C9.64 8.00006 8.52 8 6.5 8C4.48 8 3.36 8.00006 2.56 8.81006C1.75 9.61006 1.75 10.72 1.75 12.75V14.75C1.75 15.82 1.75 16.46 2.27 16.99C2.65 17.37 3.1 17.47 3.75 17.49V20.25C3.75 21.32 3.75 21.96 4.27 22.49ZM3.62 9.87012C3.97 9.51012 4.75 9.5 6.5 9.5V9.51001C8.25 9.51001 9.04 9.52013 9.39 9.88013C9.74 10.2301 9.75 11.01 9.75 12.76V14.76C9.75 15.26 9.75 15.8699 9.68 15.9399C9.57 16.0099 9 16.01 8.5 16.01C8.09 16.01 7.75 16.35 7.75 16.76V20.26C7.75 20.76 7.75 21.3699 7.68 21.4399C7.46 21.5799 5.53 21.5699 5.33 21.4399C5.25 21.3499 5.25 20.74 5.25 20.25V16.75C5.25 16.34 4.91 16 4.5 16C4 16 3.43 15.9999 3.33 15.9399C3.25 15.8499 3.25 15.24 3.25 14.75V12.75C3.25 11.01 3.27 10.2201 3.62 9.87012Z" fill="currentColor" fill-rule="evenodd"></path></svg>