<svg xmlns="http://www.w3.org/2000/svg" width="24" height="24" viewBox="0 0 24 24" fill="none" stroke-width="1.5" stroke-linecap="round" stroke-linejoin="round" color="currentColor"><path d="M9.25 4.25C9.25 5.77 10.48 7 12 7C13.52 7 14.75 5.77 14.75 4.25C14.75 2.73 13.52 1.5 12 1.5C10.48 1.5 9.25 2.73 9.25 4.25ZM10.75 4.25C10.75 3.56 11.31 3 12 3C12.69 3 13.25 3.56 13.25 4.25C13.25 4.94 12.69 5.5 12 5.5C11.31 5.5 10.75 4.94 10.75 4.25ZM9.77 22.49C10.28 23 10.93 23 12 23C13.07 23 13.72 23 14.24 22.48C14.75 21.97 14.75 21.32 14.75 20.25V16.99C15.4 16.96 15.85 16.86 16.24 16.48C16.75 15.97 16.75 15.32 16.75 14.25V14.25V12.75C16.75 10.72 16.75 9.61006 15.95 8.81006C15.14 8.00006 14.02 8 12 8C9.98 8 8.86 8.00006 8.06 8.81006C7.25 9.61006 7.25 10.72 7.25 12.75V14.25C7.25 15.32 7.25 15.96 7.77 16.49C8.15 16.87 8.6 16.97 9.25 16.99V20.25C9.25 21.32 9.25 21.96 9.77 22.49ZM9.12 9.87C9.47 9.51 10.25 9.5 12 9.5V9.51001C13.75 9.51001 14.54 9.52001 14.89 9.88C15.24 10.23 15.25 11.01 15.25 12.76V14.26C15.25 14.76 15.25 15.3701 15.18 15.4401C15.0701 15.51 14.5009 15.51 14.0011 15.51H14C13.59 15.51 13.25 15.85 13.25 16.26V20.26C13.25 20.76 13.25 21.3701 13.18 21.4401C12.96 21.5801 11.03 21.5701 10.83 21.4401C10.75 21.3501 10.75 20.74 10.75 20.25V16.25C10.75 15.84 10.41 15.5 10 15.5H9.99841C9.49879 15.5 8.92989 15.5 8.83 15.4401C8.75 15.3501 8.75 14.74 8.75 14.25V12.75C8.75 11.01 8.77 10.22 9.12 9.87Z" fill="currentColor" fill-rule="evenodd"></path></svg>