<svg xmlns="http://www.w3.org/2000/svg" width="24" height="24" viewBox="0 0 24 24" fill="none" stroke-width="1.5" stroke-linecap="round" stroke-linejoin="round" color="currentColor"><path d="M20 22V17C20 15.1144 20 14.1716 19.4142 13.5858C18.8284 13 17.8856 13 16 13L12 22L8 13C6.11438 13 5.17157 13 4.58579 13.5858C4 14.1716 4 15.1144 4 17V22" stroke="currentColor"></path><path d="M12 15L11.5 19L12 20.5L12.5 19L12 15ZM12 15L11 13H13L12 15Z" stroke="currentColor"></path><path d="M15.5 6.5V5.5C15.5 3.567 13.933 2 12 2C10.067 2 8.5 3.567 8.5 5.5V6.5C8.5 8.433 10.067 10 12 10C13.933 10 15.5 8.433 15.5 6.5Z" stroke="currentColor"></path></svg>