<svg xmlns="http://www.w3.org/2000/svg" width="24" height="24" viewBox="0 0 24 24" fill="none"><path d="M14.5 10.5C14.5 12.1569 13.1569 13.5 11.5 13.5C9.84315 13.5 8.5 12.1569 8.5 10.5C8.5 8.84315 9.84315 7.5 11.5 7.5C13.1569 7.5 14.5 8.84315 14.5 10.5Z" stroke="currentColor" stroke-linecap="round" stroke-linejoin="round" stroke-width="1.5" /><path d="M12.4535 21.0628C11.9877 21.6457 11.0123 21.6457 10.5465 21.0628C9.32291 19.5316 7.57535 17.7562 6.5 16.8086C4.5 15.0462 3.5 13.0731 3.5 10.5355C3.5 6.09762 7.08172 2.5 11.5 2.5C15.9183 2.5 19.5 6.09762 19.5 10.5355C19.5 11.0455 19.4596 11.5327 19.3788 12" stroke="currentColor" stroke-linecap="round" stroke-linejoin="round" stroke-width="1.5" /><path d="M14.5 17.5L16.5 19.5L20.5 15.5" stroke="currentColor" stroke-linecap="round" stroke-linejoin="round" stroke-width="1.5" /></svg>