<svg xmlns="http://www.w3.org/2000/svg" width="24" height="24" viewBox="0 0 24 24" fill="none"><path d="M14.5 10.5C14.5 12.1569 13.1569 13.5 11.5 13.5C9.84315 13.5 8.5 12.1569 8.5 10.5C8.5 8.84315 9.84315 7.5 11.5 7.5C13.1569 7.5 14.5 8.84315 14.5 10.5Z" stroke="currentColor" stroke-linecap="round" stroke-linejoin="round" stroke-width="1.5" /><path d="M17.495 14.5V20.5M20.5 17.495L14.5 17.495" stroke="currentColor" stroke-linecap="round" stroke-linejoin="round" stroke-width="1.5" /><path d="M19.5 10.5352C19.4998 6.09743 15.9182 2.5 11.5 2.5C7.08184 2.5 3.50019 6.09743 3.5 10.5352C3.5 13.0728 4.5 15.0462 6.5 16.8086C7.57535 17.7562 9.32325 19.5313 10.5469 21.0625C10.7798 21.354 11.1397 21.5 11.5 21.5C11.8603 21.5 12.2202 21.354 12.4531 21.0625" stroke="currentColor" stroke-linecap="round" stroke-linejoin="round" stroke-width="1.5" /></svg>