<svg xmlns="http://www.w3.org/2000/svg" width="24" height="24" viewBox="0 0 24 24" fill="none" stroke-width="1.5" stroke-linecap="round" stroke-linejoin="round" color="currentColor"><path d="M10.0808 2C5.47023 2.9359 2 7.01218 2 11.899C2 17.4776 6.52238 22 12.101 22C16.9878 22 21.0641 18.5298 22 13.9192" stroke="currentColor"></path><path d="M18.9375 18C19.3216 17.9166 19.6771 17.784 20 17.603M14.6875 17.3406C15.2831 17.6015 15.8576 17.7948 16.4051 17.9218M10.8546 14.9477C11.2681 15.238 11.71 15.5861 12.1403 15.8865M3 13.825C3.32234 13.6675 3.67031 13.4868 4.0625 13.3321M6.45105 13C7.01293 13.0624 7.64301 13.2226 8.35743 13.5232" stroke="currentColor"></path><path d="M18.5 7C18.5 6.17157 17.8284 5.5 17 5.5C16.1716 5.5 15.5 6.17157 15.5 7C15.5 7.82843 16.1716 8.5 17 8.5C17.8284 8.5 18.5 7.82843 18.5 7Z" stroke="currentColor"></path><path d="M17 2C19.7059 2 22 4.21814 22 6.90917C22 9.64306 19.6685 11.5616 17.515 12.8662C17.3581 12.9539 17.1806 13 17 13C16.8194 13 16.6419 12.9539 16.485 12.8662C14.3355 11.5489 12 9.65251 12 6.90917C12 4.21814 14.2941 2 17 2Z" stroke="currentColor"></path></svg>