<svg xmlns="http://www.w3.org/2000/svg" width="24" height="24" viewBox="0 0 24 24" fill="none" stroke-width="1.5" stroke-linecap="round" stroke-linejoin="round" color="currentColor"><path d="M12.25 13.75C11.4857 13.75 10.7746 13.521 10.1816 13.1279L5.77945 17.53C5.62945 17.68 5.43945 17.75 5.24945 17.75C5.05945 17.75 4.86945 17.68 4.71945 17.53C4.42945 17.24 4.42945 16.7599 4.71945 16.4699L9.12167 12.0677C8.72884 11.4748 8.5 10.764 8.5 10C8.5 7.93 10.18 6.25 12.25 6.25C14.32 6.25 16 7.93 16 10C16 12.07 14.32 13.75 12.25 13.75ZM12.25 7.75C11.01 7.75 10 8.76 10 10C10 11.24 11.01 12.25 12.25 12.25C13.49 12.25 14.5 11.24 14.5 10C14.5 8.76 13.49 7.75 12.25 7.75ZM17.5 10.01C17.5 10.42 17.84 10.76 18.25 10.76V10.77C18.66 10.77 19 10.43 19 10.01C19 9.59001 18.66 9.26001 18.25 9.26001C17.84 9.26001 17.5 9.60001 17.5 10.01ZM20.5 10C20.5 10.41 20.84 10.75 21.25 10.75V10.76C21.66 10.76 22 10.42 22 10C22 9.58 21.66 9.25 21.25 9.25C20.84 9.25 20.5 9.59 20.5 10ZM6.25 10.77C5.84 10.77 5.5 10.43 5.5 10.02C5.5 9.61002 5.84 9.27002 6.25 9.27002C6.66 9.27002 7 9.60001 7 10.01C7 10.43 6.66 10.77 6.25 10.77ZM3.25 10.76C2.84 10.76 2.5 10.42 2.5 10.01C2.5 9.60001 2.84 9.26001 3.25 9.26001C3.66 9.26001 4 9.59001 4 10.01C4 10.43 3.66 10.77 3.25 10.77V10.76ZM11.5 10C11.5 10.41 11.84 10.75 12.25 10.75V10.76C12.66 10.76 13 10.42 13 10C13 9.58 12.66 9.25 12.25 9.25C11.84 9.25 11.5 9.59 11.5 10Z" fill="currentColor" fill-rule="evenodd"></path></svg>