<svg xmlns="http://www.w3.org/2000/svg" width="24" height="24" viewBox="0 0 24 24" fill="none"><path d="M5.44505 14.2749C5.60832 13.9695 5.88358 13.7462 6.22227 13.6851C6.56095 13.624 6.89427 13.7375 7.14978 13.9674M11.2356 17.2768C10.909 17.8876 10.3585 18.3342 9.68113 18.4564C9.00377 18.5786 8.33713 18.3516 7.82611 17.8919M10.5592 13.3523C10.7225 13.0469 10.9978 12.8235 11.3365 12.7624C11.6751 12.7013 12.0085 12.8149 12.264 13.0447M13.0697 7.14205C11.9191 8.2281 10.171 9.09181 8.13072 9.45991C6.09043 9.828 4.15906 9.6281 2.7148 9.01019C2.62237 8.97065 2.52281 8.95715 2.42629 8.97456C2.14172 9.0259 1.95507 9.32308 2.0094 9.63832L2.94728 15.0805C3.64672 19.1391 7.04654 21.0881 8.62355 21.7854C9.14604 22.0165 9.72177 22.046 10.2823 21.9449C10.8429 21.8437 11.374 21.6145 11.7877 21.2146C13.0366 20.0074 15.5798 16.9863 14.8804 12.9276L13.9425 7.48545C13.8882 7.1702 13.6135 6.95627 13.3289 7.00761C13.2324 7.02502 13.1433 7.07255 13.0697 7.14205Z" stroke="currentColor" stroke-linecap="round" stroke-linejoin="round" stroke-width="1.5" /><path d="M14.3157 17C14.6792 16.9998 15.039 16.9347 15.3764 16.7854C16.9535 16.0881 20.3533 14.1391 21.0527 10.0805L21.9906 4.63832C22.0449 4.32308 21.8583 4.0259 21.5737 3.97456C21.4772 3.95715 21.3776 3.97065 21.2852 4.01019C19.8409 4.6281 17.9096 4.828 15.8693 4.45991C13.829 4.09181 12.0809 3.2281 10.9303 2.14205C10.8567 2.07255 10.7676 2.02502 10.6711 2.00761C10.3865 1.95627 10.1118 2.1702 10.0575 2.48545L9.1196 7.92763C9.0374 8.40465 8.99998 8.86734 9 9.31444" stroke="currentColor" stroke-linejoin="round" stroke-width="1.5" /></svg>