<svg xmlns="http://www.w3.org/2000/svg" width="24" height="24" viewBox="0 0 24 24" fill="none" stroke-width="1.5" stroke-linecap="round" stroke-linejoin="round" color="currentColor"><path d="M4.55219 20.8554C6.72219 22.8954 9.73219 23.0754 10.6922 23.0754L10.7022 23.0654H11.0122C13.7022 23.0654 15.3522 21.9954 15.4222 21.9454C15.6322 21.8154 15.7622 21.5754 15.7622 21.3254V20.3254C15.7622 20.0854 15.6422 19.8554 15.4522 19.7154C15.2622 19.5754 15.0022 19.5354 14.7822 19.6054C14.7622 19.6154 13.3422 20.0654 11.0122 20.0654C9.58219 20.0654 8.60219 19.7154 8.09219 19.0354C7.69219 18.4954 7.63219 17.8254 7.66219 17.3054C11.0622 18.3454 15.4122 18.2954 18.7322 17.1854C20.5622 16.5754 21.7522 14.7654 21.7522 12.5554V7.84542C21.7522 5.15542 20.2122 2.92539 17.9222 2.31539C14.3122 1.34539 9.68219 1.34539 6.07219 2.31539C3.78219 2.92539 2.24219 5.14542 2.24219 7.84542V14.8154C2.24219 17.3854 3.02219 19.4154 4.55219 20.8554ZM6.46219 3.7654C8.1393 3.31618 10.0556 3.07623 11.9922 3.0754C13.9288 3.07623 15.8451 3.31618 17.5222 3.7654C19.3922 4.2654 20.2322 6.17542 20.2322 7.84542V12.5554C20.2322 14.1054 19.4422 15.3654 18.2322 15.7654C14.9422 16.8654 10.5122 16.8054 7.30219 15.6154C7.11219 15.5454 6.89219 15.5554 6.71219 15.6454C6.53219 15.7354 6.39219 15.8954 6.33219 16.0954C6.30219 16.1854 5.67219 18.3154 6.86219 19.9254C7.67219 21.0154 9.06219 21.5654 10.9922 21.5654H10.9522C10.9515 21.5654 10.9491 21.5655 10.9451 21.5656C10.7743 21.572 7.62422 21.6902 5.57219 19.7554C4.36219 18.6154 3.75219 16.9554 3.75219 14.8154V7.84542C3.75219 6.17542 4.58219 4.2654 6.46219 3.7654ZM16.252 13.8252C16.252 14.2352 16.592 14.5752 17.002 14.5752C17.412 14.5752 17.752 14.2352 17.752 13.8252V8.3252C17.752 6.5352 16.292 5.0752 14.502 5.0752C13.502 5.0752 12.602 5.53519 12.002 6.25519C11.402 5.53519 10.502 5.0752 9.50195 5.0752C7.71195 5.0752 6.25195 6.5352 6.25195 8.3252V13.8252C6.25195 14.2352 6.59195 14.5752 7.00195 14.5752C7.41195 14.5752 7.75195 14.2352 7.75195 13.8252V8.3252C7.75195 7.3652 8.54195 6.5752 9.50195 6.5752C10.462 6.5752 11.252 7.3652 11.252 8.3252V11.8252C11.252 12.2352 11.592 12.5752 12.002 12.5752C12.412 12.5752 12.752 12.2352 12.752 11.8252V8.3252C12.752 7.3652 13.542 6.5752 14.502 6.5752C15.462 6.5752 16.252 7.3652 16.252 8.3252V13.8252Z" fill="currentColor" fill-rule="evenodd"></path></svg>