<svg xmlns="http://www.w3.org/2000/svg" width="24" height="24" viewBox="0 0 24 24" fill="none" stroke-width="1.5" stroke-linecap="round" stroke-linejoin="round" color="currentColor"><path d="M11.56 11.7346L7.64211 13.5155L9.3778 14.1827L17.8013 10.5715L17.2472 10.3577L15.33 11.0947L15.2603 11.1214C14.1519 11.5456 13.4749 11.8047 12.75 11.8047C12.4094 11.8047 12.0794 11.7475 11.7102 11.6428C11.6648 11.6786 11.6146 11.7095 11.56 11.7346ZM11.381 14.9569C12.0249 15.2072 12.3874 15.3323 12.75 15.3323C13.1617 15.3323 13.5734 15.171 14.3967 14.8484C14.5184 14.8007 14.649 14.7495 14.79 14.6948L18.25 13.3647L18.3407 13.3294C19.5478 12.8584 20.8829 12.3376 21 12.0547C20.9303 11.8862 20.4283 11.6332 19.7787 11.3567L11.381 14.9569ZM9.729 10.9252L8.25279 10.3577L7.25 10.7446L7.15932 10.78C5.95217 11.2509 4.61706 11.7718 4.5 12.0547C4.56949 12.2226 5.06828 12.4744 5.71472 12.7499L9.729 10.9252ZM6.16624 9.55468C4.1206 8.7597 3 8.23405 3 7.05469C3 5.77469 4.32 5.26473 6.71 4.34473L10.17 3.01465L10.2397 2.98798C11.3481 2.56377 12.0251 2.30469 12.75 2.30469C13.4749 2.30469 14.1519 2.56377 15.2603 2.98798L15.33 3.01465L18.79 4.34473C21.18 5.26473 22.5 5.77469 22.5 7.05469C22.5 8.23405 21.3794 8.7597 19.3338 9.55468C21.3794 10.3497 22.5 10.8753 22.5 12.0547C22.5 13.2338 21.3798 13.7595 19.3347 14.5543C21.3875 15.3495 22.5 15.8751 22.5 17.0547C22.5 18.3347 21.18 18.8446 18.79 19.7646L15.33 21.0947L15.2603 21.1214C14.1519 21.5456 13.4749 21.8047 12.75 21.8047C12.0251 21.8047 11.3481 21.5456 10.2397 21.1214L10.17 21.0947L6.71 19.7646C4.32 18.8446 3 18.3347 3 17.0547C3 15.8753 4.1206 15.3497 6.16626 14.5547C4.1206 13.7597 3 13.234 3 12.0547C3 10.8753 4.1206 10.3497 6.16624 9.55468ZM8.25982 15.3604L7.25 15.7446C6.02 16.2146 4.62 16.7547 4.5 17.0547C4.61706 17.3376 5.95216 17.8584 7.1593 18.3293L7.25 18.3647L10.71 19.6948C11.805 20.1198 12.2775 20.3323 12.75 20.3323C13.2225 20.3323 13.695 20.1198 14.79 19.6948L18.25 18.3647C18.2801 18.353 18.3104 18.3412 18.3407 18.3293C19.5478 17.8584 20.8829 17.3376 21 17.0547C20.8829 16.7718 19.5478 16.2509 18.3407 15.78C18.3104 15.7682 18.2801 15.7564 18.25 15.7446L17.2402 15.3604L15.33 16.0947L15.2603 16.1214C14.1519 16.5456 13.4749 16.8047 12.75 16.8047C12.0251 16.8047 11.3481 16.5456 10.2397 16.1214L10.17 16.0947L8.25982 15.3604ZM8.50483 8.84712C8.51549 8.85095 8.52606 8.85501 8.53653 8.85931L10.71 9.69482C10.851 9.74955 10.9817 9.80076 11.1034 9.84844C11.9267 10.171 12.3383 10.3323 12.75 10.3323C13.1617 10.3323 13.5734 10.171 14.3967 9.84841C14.5184 9.80073 14.649 9.74954 14.79 9.69482L18.25 8.36475L18.3407 8.32936C19.5478 7.85843 20.8829 7.33758 21 7.05469C20.8829 6.77179 19.5478 6.25094 18.3407 5.78002L18.25 5.74463L14.79 4.41479C13.69 3.99479 13.19 3.80469 12.75 3.80469C12.31 3.80469 11.8 3.99479 10.71 4.41479L7.25 5.74463L7.1593 5.78002C5.95216 6.25094 4.61706 6.77179 4.5 7.05469C4.61706 7.33758 5.95216 7.85843 7.1593 8.32936L7.25 8.36475L8.50483 8.84712Z" fill="currentColor"></path></svg>