<svg xmlns="http://www.w3.org/2000/svg" width="24" height="24" viewBox="0 0 24 24" fill="none" stroke-width="1.5" stroke-linecap="round" stroke-linejoin="round" color="currentColor"><path d="M17.725 2.5C19.1145 2.65381 20.0498 3.00143 20.7479 3.78705C22 5.19617 22 7.46411 22 12C22 16.5359 22 18.8038 20.7479 20.213C20.0498 20.9986 19.1145 21.3462 17.725 21.5M6.27501 21.5C4.88551 21.3462 3.95021 20.9986 3.25212 20.213C2 18.8038 2 16.5359 2 12C2 7.46411 2 5.19617 3.25212 3.78705C3.95021 3.00143 4.88551 2.65381 6.27501 2.5" stroke="currentColor"></path><path d="M7 8H7.00897M11.9955 8H12.0045M16.991 8H17M7 12H7.00897M7 16H7.00897M11.9955 12H12.0045M11.9955 16H12.0045M16.991 12H17M16.991 16H17" stroke="currentColor"></path></svg>