<svg xmlns="http://www.w3.org/2000/svg" width="24" height="24" viewBox="0 0 24 24" fill="none" stroke-width="1.5" stroke-linecap="round" stroke-linejoin="round" color="currentColor"><path d="M14 2.5L14 7C14 8.88562 14 9.82843 14.5858 10.4142C15.1716 11 16.1144 11 18 11" stroke="currentColor"></path><path d="M21.5 15H15M10 15H15M15 15V21.5" stroke="currentColor"></path><path d="M2.5 10H5C6.88562 10 7.82843 10 8.41421 9.41421C9 8.82843 9 7.88562 9 6" stroke="currentColor"></path><path d="M2.5 15H6" stroke="currentColor"></path><path d="M2.5 12C2.5 7.52166 2.5 5.28249 3.89124 3.89124C5.28249 2.5 7.52166 2.5 12 2.5C16.4783 2.5 18.7175 2.5 20.1088 3.89124C21.5 5.28249 21.5 7.52166 21.5 12C21.5 16.4783 21.5 18.7175 20.1088 20.1088C18.7175 21.5 16.4783 21.5 12 21.5C7.52166 21.5 5.28249 21.5 3.89124 20.1088C2.5 18.7175 2.5 16.4783 2.5 12Z" stroke="currentColor"></path></svg>