<svg xmlns="http://www.w3.org/2000/svg" width="24" height="24" viewBox="0 0 24 24" fill="none"><path d="M2.5 8.18677C2.60406 6.08705 2.91537 4.77792 3.84664 3.84664C4.77792 2.91537 6.08705 2.60406 8.18677 2.5M21.5 8.18677C21.3959 6.08705 21.0846 4.77792 20.1534 3.84664C19.2221 2.91537 17.9129 2.60406 15.8132 2.5M15.8132 21.5C17.9129 21.3959 19.2221 21.0846 20.1534 20.1534C21.0846 19.2221 21.3959 17.9129 21.5 15.8132M8.18676 21.5C6.08705 21.3959 4.77792 21.0846 3.84664 20.1534C2.91537 19.2221 2.60406 17.9129 2.5 15.8132" stroke="currentColor" stroke-linecap="round" stroke-linejoin="round" stroke-width="1.5" /><path d="M14.2224 8.5C15.4446 8.5 17.0002 9.5 17.0002 11.3366C17.0002 12.9913 16.7224 14.1732 15.6113 15.5915C14.7666 16.55 13.6389 16.7903 12.4369 16.119L12.0002 15.8963L11.5635 16.119C10.3614 16.7903 9.23376 16.55 8.38907 15.5915C7.27796 14.1732 7.00018 12.9913 7.00018 11.3366C7.00018 9.5 8.55574 8.5 9.77796 8.5C11.0002 8.5 11.5002 9 12.0002 9.5C12.5002 9 13.0002 8.5 14.2224 8.5Z" stroke="currentColor" stroke-linecap="round" stroke-linejoin="round" stroke-width="1.5" /><path d="M13 6.5C12.5 7 12 8 12 9.5" stroke="currentColor" stroke-linecap="round" stroke-linejoin="round" stroke-width="1.5" /></svg>