<svg xmlns="http://www.w3.org/2000/svg" width="24" height="24" viewBox="0 0 24 24" fill="none" stroke-width="1.5" stroke-linecap="round" stroke-linejoin="round" color="currentColor"><path d="M5 15C5 11.134 8.02208 8 11.75 8H12.25C15.9779 8 19 11.134 19 15C19 18.866 15.9779 22 12.25 22H11.75C8.02208 22 5 18.866 5 15Z" stroke="currentColor"></path><path d="M12.5 17.9994V12.9481C12.5 12.3736 12.5 12.0863 12.2696 12.0149C11.7631 11.8577 11 12.999 11 12.999M12.5 17.9994H11M12.5 17.9994H14" stroke="currentColor"></path><path d="M13.5601 2L11 7.89783M18 2L15.1786 8.5" stroke="currentColor"></path><path d="M10.4399 2L12 5.59405M6 2L8.82144 8.5" stroke="currentColor"></path></svg>