<svg xmlns="http://www.w3.org/2000/svg" width="24" height="24" viewBox="0 0 24 24" fill="none" stroke-width="1.5" stroke-linecap="round" stroke-linejoin="round" color="currentColor"><path d="M18.25 19.8125H18.25C17.72 19.8125 17.4 19.8125 17.07 19.6725C16.65 19.5025 16.31 19.1625 16.13 18.7225C16 18.4125 16 18.1125 16 17.5625V6.5625C16 6.0125 16 5.7125 16.14 5.3925C16.31 4.9625 16.65 4.6325 17.09 4.4525C17.4 4.3125 17.72 4.3125 18.26 4.3125C18.8 4.3125 19.11 4.3125 19.44 4.4525C19.86 4.6225 20.2 4.9625 20.38 5.4025C20.51 5.7125 20.51 6.0125 20.51 6.5625V17.5625C20.51 18.1125 20.51 18.4125 20.37 18.7325C20.2 19.1625 19.86 19.4925 19.42 19.6725C19.11 19.8125 18.79 19.8125 18.25 19.8125H18.25ZM18.25 5.8125H18.2499C17.9899 5.8125 17.73 5.8125 17.66 5.8325C17.59 5.8625 17.55 5.9025 17.52 5.9625C17.5 6.0325 17.5 6.3025 17.5 6.5625V17.5625C17.5 17.8225 17.5 18.0925 17.52 18.1625C17.55 18.2225 17.59 18.2625 17.65 18.2925C17.81 18.3425 18.71 18.3325 18.84 18.2925C18.91 18.2625 18.95 18.2225 18.98 18.1625C19 18.0925 19 17.8225 19 17.5625V6.5625C19 6.3025 19 6.0325 18.98 5.9625C18.95 5.9025 18.91 5.8625 18.85 5.8325C18.77 5.8125 18.5101 5.8125 18.2501 5.8125H18.25ZM11.75 19.8125H11.75C11.22 19.8125 10.9 19.8125 10.57 19.6725C10.15 19.5025 9.81 19.1625 9.63 18.7225C9.5 18.4125 9.5 18.1125 9.5 17.5625V9.5625C9.5 9.0125 9.5 8.7125 9.64 8.3925C9.81 7.9625 10.15 7.6325 10.59 7.4525C10.9 7.3125 11.22 7.3125 11.76 7.3125H11.76H11.76C12.3 7.3125 12.61 7.3125 12.94 7.4525C13.36 7.6225 13.7 7.9625 13.88 8.4025C14.01 8.7125 14.01 9.0125 14.01 9.5625V17.5625C14.01 18.1125 14.01 18.4125 13.87 18.7325C13.7 19.1625 13.36 19.4925 12.92 19.6725C12.61 19.8125 12.29 19.8125 11.75 19.8125H11.75ZM11.75 8.8125H11.7499C11.4899 8.8125 11.23 8.8125 11.16 8.8325C11.09 8.8625 11.05 8.9025 11.02 8.9625C11 9.0325 11 9.3025 11 9.5625V17.5625C11 17.8225 11 18.0925 11.02 18.1625C11.05 18.2225 11.09 18.2625 11.15 18.2925C11.31 18.3425 12.21 18.3325 12.34 18.2925C12.41 18.2625 12.45 18.2225 12.48 18.1625C12.5 18.0925 12.5 17.8225 12.5 17.5625V9.5625C12.5 9.3025 12.5 9.0325 12.48 8.9625C12.45 8.9025 12.41 8.8625 12.35 8.8325C12.27 8.8125 12.0101 8.8125 11.7501 8.8125H11.75ZM5.24999 19.8125H5.25H5.25001C5.79 19.8125 6.11 19.8125 6.42 19.6725C6.86 19.4925 7.2 19.1625 7.37 18.7325C7.51 18.4125 7.51 18.1125 7.51 17.5625V13.5625C7.51 13.0125 7.51 12.7125 7.38 12.4025C7.2 11.9625 6.86 11.6225 6.44 11.4525C6.11 11.3125 5.8 11.3125 5.26001 11.3125H5.26H5.25999C4.72 11.3125 4.4 11.3125 4.09 11.4525C3.65 11.6325 3.31 11.9625 3.14 12.3925C3 12.7125 3 13.0125 3 13.5625V17.5625C3 18.1125 3 18.4125 3.13 18.7225C3.31 19.1625 3.65 19.5025 4.07 19.6725C4.4 19.8125 4.72 19.8125 5.24999 19.8125ZM5.24985 12.8125H5.25H5.25015C5.5101 12.8125 5.77002 12.8125 5.85 12.8325C5.91 12.8625 5.95 12.9025 5.98 12.9625C6 13.0325 6 13.3025 6 13.5625V17.5625C6 17.8225 6 18.0925 5.98 18.1625C5.95 18.2225 5.91 18.2625 5.84 18.2925C5.71 18.3325 4.81 18.3425 4.65 18.2925C4.59 18.2625 4.55 18.2225 4.52 18.1625C4.5 18.0925 4.5 17.8225 4.5 17.5625V13.5625C4.5 13.3025 4.5 13.0325 4.52 12.9625C4.55 12.9025 4.59 12.8625 4.66 12.8325C4.72999 12.8125 4.9899 12.8125 5.24985 12.8125Z" fill="currentColor" fill-rule="evenodd"></path></svg>