<svg xmlns="http://www.w3.org/2000/svg" width="24" height="24" viewBox="0 0 24 24" fill="none" stroke-width="1.5" stroke-linecap="round" stroke-linejoin="round" color="currentColor"><path d="M20.01 5.01001C19.92 5.00001 19.8 5 19.6 5H19.42M20.09 5.01001C20.16 5.04001 20.22 5.09992 20.24 5.16992C20.24 5.16992 20.24 5.2 20.24 5.25C20.24 5.34 20.24 5.45991 20.24 5.65991V18.8401C20.24 19.0401 20.24 19.16 20.24 19.25C20.24 19.3 20.24 19.3301 20.24 19.3301C20.21 19.4001 20.16 19.46 20.09 19.49H20C19.91 19.5 19.79 19.5 19.59 19.5H19.38C19.38 19.5 19.31 19.48 19.27 19.45C19.27 19.46 19.27 19.4499 19.24 19.4299C19.21 19.3999 19.18 19.3701 19.11 19.3101L18.94 19.1401C18.94 19.1401 18.9 19.0901 18.87 19.0701C18.23 18.4301 17.82 18.02 17.32 17.72H17.3V17.71C16.8 17.41 16.24 17.24 15.38 16.98C15.35 16.97 15.32 16.96 15.29 16.96L7.74 14.6899V9.81006L15.29 7.54004C15.29 7.54004 15.35 7.53002 15.38 7.52002C16.24 7.26002 16.8 7.09004 17.3 6.79004H17.32V6.78003C17.82 6.48003 18.23 6.06993 18.87 5.42993C18.89 5.40993 18.91 5.39011 18.94 5.36011L19.11 5.18994C19.17 5.12994 19.21 5.10007 19.24 5.07007M6.9 8.5L14.87 6.11011C15.85 5.81011 16.22 5.7 16.55 5.5H16.57C16.89 5.3 17.17 5.03005 17.9 4.30005L18.07 4.13013C18.07 4.13013 18.09 4.13011 18.09 4.11011C18.19 4.02011 18.29 3.91008 18.4 3.83008C18.62 3.67008 18.87 3.57002 19.14 3.52002C19.28 3.50002 19.43 3.5 19.56 3.5H19.67C19.97 3.5 20.29 3.50009 20.56 3.59009C21.08 3.77009 21.49 4.16994 21.66 4.68994C21.75 4.96994 21.75 5.28008 21.75 5.58008V18.9199C21.75 19.2199 21.75 19.5301 21.66 19.8101C21.49 20.3301 21.08 20.7299 20.56 20.9099C20.28 20.9999 19.97 21 19.67 21H19.56C19.42 21 19.28 21 19.14 20.98C18.87 20.93 18.62 20.8299 18.4 20.6699C18.28 20.5899 18.18 20.4901 18.09 20.3901C18.09 20.3801 18.07 20.3701 18.07 20.3701L17.9 20.2C17.17 19.47 16.9 19.2 16.57 19.01H16.55C16.23 18.8 15.85 18.6901 14.87 18.3901L13.43 17.96L12.21 19.8C11.71 20.55 10.86 21 9.96 21C8.47 21 7.26 19.79 7.26 18.3V16.1101L6.9 16H5.98C5.54 16 5.16 16 4.86 15.98C4.54 15.96 4.24 15.91 3.95 15.79C3.28 15.51 2.74 14.98 2.46 14.3C2.34 14.01 2.29 13.7101 2.27 13.4001C2.25 13.0901 2.25 12.72 2.25 12.28V12.23C2.25 11.78 2.25 11.4101 2.27 11.1001C2.29 10.7901 2.34 10.49 2.46 10.2C2.74 9.51995 3.27 8.98996 3.95 8.70996C4.24 8.58996 4.54 8.54002 4.86 8.52002C5.16 8.50002 5.54 8.5 5.98 8.5H6.9ZM6.26 14.5V10H6.01C5.53 10 5.21 10 4.97 10.02C4.73 10.03 4.61 10.0601 4.53 10.1001C4.22 10.2201 3.98 10.47 3.85 10.77C3.82 10.85 3.79 10.97 3.77 11.21C3.75 11.45 3.75 11.77 3.75 12.25C3.75 12.73 3.75 13.05 3.77 13.29C3.79 13.53 3.82 13.65 3.85 13.73C3.98 14.03 4.22 14.2799 4.53 14.4099C4.61 14.4399 4.72 14.47 4.97 14.48C5.22 14.5 5.54 14.5 6.01 14.5H6.26ZM8.76 16.5601V18.3C8.76 18.96 9.3 19.5 9.96 19.5C10.36 19.5 10.74 19.3 10.96 18.96L11.93 17.51L8.76 16.5601ZM19.28 5.05005C19.28 5.05005 19.35 5.01 19.39 5L19.28 5.05005Z" fill="currentColor" fill-rule="evenodd"></path></svg>