<svg xmlns="http://www.w3.org/2000/svg" width="24" height="24" viewBox="0 0 24 24" fill="none" stroke-width="1.5" stroke-linecap="round" stroke-linejoin="round" color="currentColor">
    <path d="M20 17.9998V9.99976C20 8.11414 20 7.17133 19.4142 6.58554C18.8284 5.99976 17.8856 5.99976 16 5.99976H4V17.9998C4 19.8854 4 20.8282 4.58579 21.414C5.17157 21.9998 6.11438 21.9998 8 21.9998H16C17.8856 21.9998 18.8284 21.9998 19.4142 21.414C20 20.8282 20 19.8854 20 17.9998Z" stroke="currentColor" stroke-width="1.5" stroke-linecap="round" stroke-linejoin="round" />
    <path d="M12 10.9998C13.6569 10.9998 15 12.3429 15 13.9998M12 10.9998C10.3431 10.9998 9 12.3429 9 13.9998M12 10.9998V9.99976M15 13.9998H9M15 13.9998H16M9 13.9998H8" stroke="currentColor" stroke-width="1.5" stroke-linecap="round" stroke-linejoin="round" />
    <path d="M8 17.9998H16" stroke="currentColor" stroke-width="1.5" stroke-linecap="round" stroke-linejoin="round" />
    <path d="M4 5.99976L11.3846 2.90562C13.0337 2.21467 13.8582 1.8692 14.5149 2.04518C14.9408 2.1593 15.3173 2.41168 15.5859 2.76312C16 3.30508 16 4.2033 16 5.99976" stroke="currentColor" stroke-width="1.5" stroke-linecap="round" stroke-linejoin="round" />
</svg>
