<svg xmlns="http://www.w3.org/2000/svg" width="24" height="24" viewBox="0 0 24 24" fill="none" stroke-width="1.5" stroke-linecap="round" stroke-linejoin="round" color="currentColor"><path d="M3 7.0625H17C17.41 7.0625 17.75 6.7225 17.75 6.3125C17.75 5.9025 17.41 5.5625 17 5.5625H3C2.59 5.5625 2.25 5.9025 2.25 6.3125C2.25 6.7225 2.59 7.0625 3 7.0625ZM3 13.0625H13C13.41 13.0625 13.75 12.7225 13.75 12.3125C13.75 11.9025 13.41 11.5625 13 11.5625H3C2.59 11.5625 2.25 11.9025 2.25 12.3125C2.25 12.7225 2.59 13.0625 3 13.0625ZM17 19.0625H3C2.59 19.0625 2.25 18.7225 2.25 18.3125C2.25 17.9025 2.59 17.5625 3 17.5625H17C17.41 17.5625 17.75 17.9025 17.75 18.3125C17.75 18.7225 17.41 19.0625 17 19.0625ZM20.5498 16.9125C20.6798 17.0125 20.8398 17.0625 20.9998 17.0625V17.0525C21.2298 17.0525 21.4498 16.9425 21.5998 16.7525C21.8498 16.4225 21.7898 15.9525 21.4598 15.7025L20.3098 14.8225C18.7198 13.6225 17.7598 12.8825 17.7598 12.3025C17.7598 11.7231 18.7179 10.994 20.3051 9.78606L20.3098 9.78253L21.4598 8.90253C21.7898 8.65253 21.8498 8.18253 21.5998 7.85253C21.3498 7.52253 20.8798 7.46253 20.5498 7.71253L19.3998 8.59253L19.3384 8.63935C17.3571 10.1497 16.2598 10.9862 16.2598 12.3125C16.2598 13.6505 17.3663 14.4899 19.3904 16.0254L19.3998 16.0325L20.5498 16.9125Z" fill="currentColor" fill-rule="evenodd"></path></svg>