<svg xmlns="http://www.w3.org/2000/svg" width="24" height="24" viewBox="0 0 24 24" fill="none"><path d="M21.9598 10.9707C21.9711 11.146 21.98 11.3226 21.9866 11.5C22.011 12.1627 22.0021 12.836 21.9598 13.4909C21.6856 17.7332 18.3536 21.1125 14.1706 21.3905C12.7435 21.4854 11.2536 21.4852 9.8294 21.3905C9.33896 21.3579 8.8044 21.2409 8.34401 21.0513C7.83177 20.8403 7.5756 20.7348 7.44544 20.7508C7.31527 20.7668 7.1264 20.9061 6.74868 21.1846C6.08268 21.6757 5.24367 22.0285 3.99943 21.9982C3.37026 21.9829 3.05568 21.9752 2.91484 21.7351C2.77401 21.495 2.94941 21.1626 3.30021 20.4978C3.78674 19.5758 4.09501 18.5203 3.62791 17.6746C2.82343 16.4666 2.1401 15.036 2.04024 13.4909C1.98659 12.6607 1.98659 11.8009 2.04024 10.9707C2.31441 6.72836 5.64639 3.34912 9.8294 3.07106C10.3789 3.03453 10.4383 3.0121 11 3.00374" stroke="currentColor" stroke-linecap="round" stroke-linejoin="round" stroke-width="1.5" /><path d="M11.9953 12.5H12.0043M15.9908 12.5H15.9998M7.99982 12.5H8.00879" stroke="currentColor" stroke-linecap="round" stroke-linejoin="round" stroke-width="2" /><path d="M15.015 2.3866C16.0876 1.74691 17.0238 2.0047 17.5863 2.41532C17.8169 2.58369 17.9322 2.66787 18 2.66787C18.0678 2.66787 18.1831 2.58369 18.4137 2.41532C18.9762 2.0047 19.9124 1.74691 20.985 2.3866C22.3928 3.22613 22.7113 5.99576 19.4642 8.3324C18.8457 8.77746 18.5365 8.99998 18 8.99998C17.4635 8.99998 17.1543 8.77746 16.5358 8.3324C13.2887 5.99576 13.6072 3.22613 15.015 2.3866Z" stroke="currentColor" stroke-linecap="round" stroke-width="1.5" /></svg>