<svg xmlns="http://www.w3.org/2000/svg" width="24" height="24" viewBox="0 0 24 24" fill="none"><path d="M21.9165 10.5001C21.9351 10.6557 21.9495 10.8127 21.9598 10.9708C22.0134 11.801 22.0134 12.6608 21.9598 13.491C21.6856 17.7333 18.3536 21.1126 14.1706 21.3906C12.7435 21.4855 11.2536 21.4853 9.8294 21.3906C9.33896 21.358 8.8044 21.241 8.34401 21.0514C7.83177 20.8404 7.5756 20.7349 7.44544 20.7509C7.31527 20.7669 7.1264 20.9062 6.74868 21.1847C6.08268 21.6758 5.24367 22.0286 3.99943 21.9983C3.37026 21.983 3.05568 21.9753 2.91484 21.7352C2.77401 21.4951 2.94941 21.1627 3.30021 20.4979C3.78674 19.5759 4.09501 18.5204 3.62791 17.6747C2.82343 16.4667 2.1401 15.0361 2.04024 13.491C1.98659 12.6608 1.98659 11.801 2.04024 10.9708C2.31441 6.7285 5.64639 3.34925 9.8294 3.07119C11.0318 2.99126 12.2812 2.97868 13.5 3.0338" stroke="currentColor" stroke-linecap="round" stroke-linejoin="round" stroke-width="1.5" /><path d="M11.9955 12.5001H12.0044M8 12.5001H8.00897" stroke="currentColor" stroke-linecap="round" stroke-linejoin="round" stroke-width="2" /><path d="M20.8684 2.43946L21.5607 3.13183C22.1465 3.71761 22.1465 4.66736 21.5607 5.25315L17.9333 8.94881C17.648 9.23416 17.283 9.42652 16.8863 9.50061L14.6381 9.98865C14.2832 10.0657 13.9671 9.75054 14.0431 9.39537L14.5217 7.16005C14.5958 6.76336 14.7881 6.39836 15.0735 6.11301L18.747 2.43946C19.3328 1.85368 20.2826 1.85368 20.8684 2.43946Z" stroke="currentColor" stroke-linecap="round" stroke-linejoin="round" stroke-width="1.5" /></svg>