<svg xmlns="http://www.w3.org/2000/svg" width="24" height="24" viewBox="0 0 24 24" fill="none" stroke-width="1.5" stroke-linecap="round" stroke-linejoin="round" color="currentColor"><path d="M15.1501 16.1888C15.2901 16.4388 15.5402 16.5687 15.8002 16.5687V16.5587C15.9202 16.5587 16.0502 16.5288 16.1702 16.4588L18.3701 15.1888C18.7201 14.9888 18.8501 14.5288 18.6401 14.1688C18.4401 13.8188 17.9801 13.6888 17.6201 13.8988L15.4202 15.1688C15.0702 15.3688 14.9401 15.8288 15.1501 16.1888ZM13.0602 13.9986C13.4002 14.2086 13.8001 14.3187 14.2101 14.3187L14.2201 14.3087C14.8301 14.3087 15.3301 14.0186 16.2301 13.4886C17.1001 12.9986 17.6301 12.6888 17.9601 12.1388C18.1501 11.7788 18.2501 11.3986 18.2501 11.0086C18.2501 10.3786 17.9301 9.82863 17.4401 8.99863L14.4001 3.70883C13.4901 2.13883 11.4701 1.59864 9.90015 2.50864C8.33015 3.41864 7.79007 5.43865 8.70007 7.01865L9.40494 8.23368C9.16326 8.47689 8.9766 8.77481 8.86547 9.10692C6.27239 9.42216 4.25 11.6433 4.25 14.3186C4.25 17.0297 6.32688 19.2744 8.96986 19.5419L8.4623 21.0686H4C3.59 21.0686 3.25 21.4086 3.25 21.8186C3.25 22.2286 3.59 22.5686 4 22.5686H8.89623C8.96626 22.5787 9.0364 22.5783 9.10474 22.5686H13.4994L13.4894 22.5786C13.5319 22.5786 13.5745 22.5758 13.617 22.5686H20C20.41 22.5686 20.75 22.2286 20.75 21.8186C20.75 21.4086 20.41 21.0686 20 21.0686H14.0369L13.5395 19.5686H18C18.41 19.5686 18.75 19.2286 18.75 18.8186C18.75 18.4086 18.41 18.0686 18 18.0686H13.0421L12.9393 17.7585C12.6893 17.0485 12.0193 16.5786 11.2193 16.5786C10.4793 16.5786 9.80943 17.0486 9.55943 17.7686L9.45975 18.0684C7.40827 18.0468 5.75 16.3752 5.75 14.3186C5.75 12.454 7.11309 10.9059 8.89648 10.617C9.2195 11.4644 10.041 12.0686 11 12.0686C11.1963 12.0686 11.3868 12.0433 11.5684 11.9958L11.7401 12.2887L11.7446 12.2965C12.2419 13.1718 12.5417 13.6995 13.0602 13.9986ZM12.8138 11.1481L13.0402 11.5387L13.0475 11.5515C13.3839 12.1452 13.6414 12.5996 13.8201 12.7088C13.9501 12.7888 14.0701 12.8187 14.2101 12.8187C14.4011 12.8187 14.7578 12.6118 15.3026 12.2959C15.3566 12.2646 15.4124 12.2322 15.4701 12.1988C15.4962 12.1836 15.5221 12.1686 15.5476 12.1539C16.1266 11.8178 16.5352 11.5808 16.6501 11.3988C16.7101 11.2888 16.7401 11.1586 16.7401 11.0186C16.7401 10.8086 16.5101 10.3986 16.1301 9.75864L13.0901 4.45883C12.6001 3.59883 11.5001 3.30868 10.6401 3.80868C9.78014 4.30868 9.49011 5.40865 9.99011 6.26865L10.7521 7.58219C10.8335 7.57321 10.9162 7.5686 11 7.5686C12.24 7.5686 13.25 8.5786 13.25 9.8186C13.25 10.3154 13.0879 10.7753 12.8138 11.1481ZM10.6595 9.15192C10.6853 9.142 10.7107 9.13057 10.7358 9.11761C10.8182 9.08598 10.9073 9.0686 11 9.0686C11.41 9.0686 11.75 9.4086 11.75 9.8186C11.75 10.2286 11.41 10.5686 11 10.5686C10.59 10.5686 10.25 10.2286 10.25 9.8186C10.25 9.53069 10.4177 9.2773 10.6595 9.15192ZM12.4603 21.0686H10.0467L10.9794 18.2485C11.0094 18.1385 11.1094 18.0686 11.2794 18.0686C11.3894 18.0686 11.4894 18.1485 11.5194 18.2385L11.7731 19.0016C11.7817 19.0351 11.7926 19.0677 11.8056 19.0993L12.4603 21.0686Z" fill="currentColor" fill-rule="evenodd"></path></svg>