<svg xmlns="http://www.w3.org/2000/svg" width="24" height="24" viewBox="0 0 24 24" fill="none" stroke-width="1.5" stroke-linecap="round" stroke-linejoin="round" color="currentColor"><path d="M22 19.0625H18C17.59 19.0625 17.25 18.7225 17.25 18.3125V12.3125C17.25 11.6225 16.69 11.0625 16 11.0625C15.31 11.0625 14.75 11.6225 14.75 12.3125V18.3125C14.75 18.7225 14.41 19.0625 14 19.0625H10C9.59 19.0625 9.25 18.7225 9.25 18.3125V12.3125C9.25 11.6225 8.69 11.0625 8 11.0625C7.31 11.0625 6.75 11.6225 6.75 12.3125V18.3125C6.75 18.7225 6.41 19.0625 6 19.0625H2C1.59 19.0625 1.25 18.7225 1.25 18.3125V12.3125C1.25 8.5925 4.28 5.5625 8 5.5625C9.45 5.5625 10.84 6.0225 12 6.8725C13.16 6.0225 14.55 5.5625 16 5.5625C19.72 5.5625 22.75 8.5925 22.75 12.3125V18.3125C22.75 18.7225 22.41 19.0625 22 19.0625ZM18.75 17.5625H21.25V12.3125C21.25 9.4225 18.89 7.0625 16 7.0625C14.71 7.0625 13.46 7.5425 12.5 8.4025C12.22 8.6625 11.78 8.6625 11.5 8.4025C10.54 7.5425 9.29 7.0625 8 7.0625C5.11 7.0625 2.75 9.4225 2.75 12.3125V17.5625H5.25V12.3125C5.25 10.7925 6.48 9.5625 8 9.5625C9.52 9.5625 10.75 10.7925 10.75 12.3125V17.5625H13.25V12.3125C13.25 10.7925 14.48 9.5625 16 9.5625C17.52 9.5625 18.75 10.7925 18.75 12.3125V17.5625Z" fill="currentColor"></path></svg>