<svg xmlns="http://www.w3.org/2000/svg" width="24" height="24" viewBox="0 0 24 24" fill="none" stroke-width="1.5" stroke-linecap="round" stroke-linejoin="round" color="currentColor"><path d="M2.01733 13.5C4.2169 13.5 6.00001 15.2831 6.00001 17.4827" fill="none"></path><path d="M6.00001 3.51733C6.00001 5.7169 4.2169 7.50001 2.01733 7.50001" fill="none"></path><path d="M18 3.51733C18 5.69765 19.769 7.46876 21.9423 7.4996" fill="none"></path><path d="M22 10V9.5C22 6.67157 22 5.25736 21.1213 4.37868C20.2426 3.5 18.8284 3.5 16 3.5H8C5.17157 3.5 3.75736 3.5 2.87868 4.37868C2 5.25736 2 6.67157 2 9.5V11.5C2 14.3284 2 15.7426 2.87868 16.6213C3.75736 17.5 5.17157 17.5 8 17.5H13" fill="none"></path><path d="M15 10.5C15 12.1569 13.6569 13.5 12 13.5C10.3431 13.5 9 12.1569 9 10.5C9 8.84315 10.3431 7.5 12 7.5C13.6569 7.5 15 8.84315 15 10.5Z" fill="none"></path><path d="M16 15.5C16 14.9477 16.4477 14.5 17 14.5H22L20.5 12.5M22 17.5C22 18.0523 21.5523 18.5 21 18.5H16L17.5 20.5" fill="none"></path></svg>