<svg xmlns="http://www.w3.org/2000/svg" width="24" height="24" viewBox="0 0 24 24" fill="none" stroke-width="1.5" stroke-linecap="round" stroke-linejoin="round" color="currentColor"><path d="M22 11C22 7.46252 22 5.69377 20.9472 4.5129C20.7788 4.32403 20.5932 4.14935 20.3925 3.99087C19.1379 3 17.2586 3 13.5 3H10.5C6.74142 3 4.86213 3 3.60746 3.99087C3.40678 4.14935 3.22119 4.32403 3.0528 4.5129C2 5.69377 2 7.46252 2 11C2 14.5375 2 16.3062 3.0528 17.4871C3.22119 17.676 3.40678 17.8506 3.60746 18.0091C4.86213 19 6.74142 19 10.5 19H12" stroke="currentColor"></path><path d="M18.5 21L18.5 14M15 17.5H22" stroke="currentColor"></path><path d="M5.5 11H5.49102" stroke="currentColor"></path><path d="M14.5 11C14.5 12.3807 13.3807 13.5 12 13.5C10.6193 13.5 9.5 12.3807 9.5 11C9.5 9.61929 10.6193 8.5 12 8.5C13.3807 8.5 14.5 9.61929 14.5 11Z" stroke="currentColor"></path></svg>