<svg xmlns="http://www.w3.org/2000/svg" width="24" height="24" viewBox="0 0 24 24" fill="none" stroke-width="1.5" stroke-linecap="round" stroke-linejoin="round" color="currentColor"><path d="M12 20H10.5C6.74142 20 4.86213 20 3.60746 19.0091C3.40678 18.8506 3.22119 18.676 3.0528 18.4871C2 17.3062 2 15.5375 2 12C2 8.46252 2 6.69377 3.0528 5.5129C3.22119 5.32403 3.40678 5.14935 3.60746 4.99087C4.86213 4 6.74142 4 10.5 4H13.5C17.2586 4 19.1379 4 20.3925 4.99087C20.5932 5.14935 20.7788 5.32403 20.9472 5.5129C22 6.69377 22 8.46252 22 12V15" stroke="currentColor"></path><path d="M15 18.5H22" stroke="currentColor"></path><path d="M5.5 12H5.49102" stroke="currentColor"></path><path d="M18.5 12H18.491" stroke="currentColor"></path><path d="M14.5 12C14.5 13.3807 13.3807 14.5 12 14.5C10.6193 14.5 9.5 13.3807 9.5 12C9.5 10.6193 10.6193 9.5 12 9.5C13.3807 9.5 14.5 10.6193 14.5 12Z" stroke="currentColor"></path></svg>