<svg xmlns="http://www.w3.org/2000/svg" width="24" height="24" viewBox="0 0 24 24" fill="none"><path d="M21 17V16C21 14.8954 20.1046 14 19 14C17.8954 14 17 14.8954 17 16V17" stroke="currentColor" stroke-linecap="round" stroke-linejoin="round" stroke-width="1.5" /><path d="M20 17H18C17.0572 17 16.5858 17 16.2929 17.2929C16 17.5858 16 18.0572 16 19C16 19.9428 16 20.4142 16.2929 20.7071C16.5858 21 17.0572 21 18 21H20C20.9428 21 21.4142 21 21.7071 20.7071C22 20.4142 22 19.9428 22 19C22 18.0572 22 17.5858 21.7071 17.2929C21.4142 17 20.9428 17 20 17Z" stroke="currentColor" stroke-linecap="round" stroke-linejoin="round" stroke-width="1.5" /><path d="M2.01733 14C4.2169 14 6.00001 15.7831 6.00001 17.9827" stroke="currentColor" stroke-linecap="round" stroke-linejoin="round" stroke-width="1.5" /><path d="M6.00001 4.01758C6.00001 6.21715 4.2169 8.00025 2.01733 8.00025" stroke="currentColor" stroke-linecap="round" stroke-linejoin="round" stroke-width="1.5" /><path d="M18 4.01758C18 6.19789 19.769 7.96901 21.9423 7.99985" stroke="currentColor" stroke-linecap="round" stroke-linejoin="round" stroke-width="1.5" /><path d="M22 11V10C22 7.17157 22 5.75736 21.1213 4.87868C20.2426 4 18.8284 4 16 4H8C5.17157 4 3.75736 4 2.87868 4.87868C2 5.75736 2 7.17157 2 10V12C2 14.8284 2 16.2426 2.87868 17.1213C3.75736 18 5.17157 18 8 18H12" stroke="currentColor" stroke-linecap="round" stroke-linejoin="round" stroke-width="1.5" /><path d="M15 11C15 12.6569 13.6569 14 12 14C10.3431 14 9 12.6569 9 11C9 9.34315 10.3431 8 12 8C13.6569 8 15 9.34315 15 11Z" stroke="currentColor" stroke-linecap="round" stroke-linejoin="round" stroke-width="1.5" /></svg>