<svg xmlns="http://www.w3.org/2000/svg" width="24" height="24" viewBox="0 0 24 24" fill="none"><path d="M18.5 14.5C18.5 15.3284 17.8284 16 17 16C16.1716 16 15.5 15.3284 15.5 14.5C15.5 13.6716 16.1716 13 17 13C17.8284 13 18.5 13.6716 18.5 14.5Z" stroke="currentColor" stroke-linecap="round" stroke-linejoin="round" stroke-width="1.5" /><path d="M17 8.125V8.25M17.25 8.25C17.25 8.38807 17.1381 8.5 17 8.5C16.8619 8.5 16.75 8.38807 16.75 8.25C16.75 8.11193 16.8619 8 17 8C17.1381 8 17.25 8.11193 17.25 8.25Z" stroke="currentColor" stroke-linecap="round" stroke-linejoin="round" stroke-width="1.5" /><path d="M6 20H4M6 20C6.82843 20 7.5 19.3284 7.5 18.5V16L8 16M6 20H8.5V16L8 16M8 16V20" stroke="currentColor" stroke-linecap="round" stroke-linejoin="round" stroke-width="1.5" /><path d="M22 15V9C22 7.13077 22 6.19615 21.5981 5.5C21.3348 5.04394 20.9561 4.66523 20.5 4.40192C19.8038 4 18.8692 4 17 4C15.1308 4 14.1962 4 13.5 4.40192C13.0439 4.66523 12.6652 5.04394 12.4019 5.5C12 6.19615 12 7.13077 12 9V15C12 16.8692 12 17.8038 12.4019 18.5C12.6652 18.9561 13.0439 19.3348 13.5 19.5981C14.1962 20 15.1308 20 17 20C18.8692 20 19.8038 20 20.5 19.5981C20.9561 19.3348 21.3348 18.9561 21.5981 18.5C22 17.8038 22 16.8692 22 15Z" stroke="currentColor" stroke-linecap="round" stroke-linejoin="round" stroke-width="1.5" /><path d="M8 4C5.17157 4 3.75736 4 2.87868 4.87868C2 5.75736 2 7.17157 2 10C2 12.8284 2 14.2426 2.87868 15.1213C3.75736 16 5.17157 16 8 16" stroke="currentColor" stroke-linecap="round" stroke-linejoin="round" stroke-width="1.5" /></svg>