<svg xmlns="http://www.w3.org/2000/svg" width="24" height="24" viewBox="0 0 24 24" fill="none"><path d="M6.00449 5.5C6.55677 5.5 7.00449 5.94772 7.00449 6.5C7.00449 7.05228 6.55677 7.5 6.00449 7.5C5.4522 7.5 5.00449 7.05228 5.00449 6.5C5.00449 5.94772 5.4522 5.5 6.00449 5.5Z" stroke="currentColor" stroke-linecap="round" stroke-linejoin="round" stroke-width="1.5" /><path d="M6.00449 11.5C6.55677 11.5 7.00449 11.9477 7.00449 12.5C7.00449 13.0523 6.55677 13.5 6.00449 13.5C5.4522 13.5 5.00449 13.0523 5.00449 12.5C5.00449 11.9477 5.4522 11.5 6.00449 11.5Z" stroke="currentColor" stroke-linecap="round" stroke-linejoin="round" stroke-width="1.5" /><path d="M6.00449 17.5C6.55677 17.5 7.00449 17.9477 7.00449 18.5C7.00449 19.0523 6.55677 19.5 6.00449 19.5C5.4522 19.5 5.00449 19.0523 5.00449 18.5C5.00449 17.9477 5.4522 17.5 6.00449 17.5Z" stroke="currentColor" stroke-linecap="round" stroke-linejoin="round" stroke-width="1.5" /><path d="M18.0045 5.5C18.5568 5.5 19.0045 5.94772 19.0045 6.5C19.0045 7.05228 18.5568 7.5 18.0045 7.5C17.4522 7.5 17.0045 7.05228 17.0045 6.5C17.0045 5.94772 17.4522 5.5 18.0045 5.5Z" stroke="currentColor" stroke-linecap="round" stroke-linejoin="round" stroke-width="1.5" /><path d="M18.0045 11.5C18.5568 11.5 19.0045 11.9477 19.0045 12.5C19.0045 13.0523 18.5568 13.5 18.0045 13.5C17.4522 13.5 17.0045 13.0523 17.0045 12.5C17.0045 11.9477 17.4522 11.5 18.0045 11.5Z" stroke="currentColor" stroke-linecap="round" stroke-linejoin="round" stroke-width="1.5" /><path d="M12.0045 11.5C12.5568 11.5 13.0045 11.9477 13.0045 12.5C13.0045 13.0523 12.5568 13.5 12.0045 13.5C11.4522 13.5 11.0045 13.0523 11.0045 12.5C11.0045 11.9477 11.4522 11.5 12.0045 11.5Z" stroke="currentColor" stroke-linecap="round" stroke-linejoin="round" stroke-width="1.5" /><path d="M12.0045 5.5C12.5568 5.5 13.0045 5.94772 13.0045 6.5C13.0045 7.05228 12.5568 7.5 12.0045 7.5C11.4522 7.5 11.0045 7.05228 11.0045 6.5C11.0045 5.94772 11.4522 5.5 12.0045 5.5Z" stroke="currentColor" stroke-linecap="round" stroke-linejoin="round" stroke-width="1.5" /><path d="M18.0045 17.5C18.5568 17.5 19.0045 17.9477 19.0045 18.5C19.0045 19.0523 18.5568 19.5 18.0045 19.5C17.4522 19.5 17.0045 19.0523 17.0045 18.5C17.0045 17.9477 17.4522 17.5 18.0045 17.5Z" stroke="currentColor" stroke-linecap="round" stroke-linejoin="round" stroke-width="1.5" /><path d="M12.0045 17.5C12.5568 17.5 13.0045 17.9477 13.0045 18.5C13.0045 19.0523 12.5568 19.5 12.0045 19.5C11.4522 19.5 11.0045 19.0523 11.0045 18.5C11.0045 17.9477 11.4522 17.5 12.0045 17.5Z" stroke="currentColor" stroke-linecap="round" stroke-linejoin="round" stroke-width="1.5" /></svg>