<svg xmlns="http://www.w3.org/2000/svg" width="24" height="24" viewBox="0 0 24 24" fill="none"><path d="M11.9967 11.5C12.549 11.5 12.9967 11.9477 12.9967 12.5C12.9967 13.0523 12.549 13.5 11.9967 13.5C11.4444 13.5 10.9967 13.0523 10.9967 12.5C10.9967 11.9477 11.4444 11.5 11.9967 11.5Z" stroke="currentColor" stroke-linecap="round" stroke-linejoin="round" stroke-width="1.5" /><path d="M11.9967 5.5C12.549 5.5 12.9967 5.94772 12.9967 6.5C12.9967 7.05228 12.549 7.5 11.9967 7.5C11.4444 7.5 10.9967 7.05228 10.9967 6.5C10.9967 5.94772 11.4444 5.5 11.9967 5.5Z" stroke="currentColor" stroke-linecap="round" stroke-linejoin="round" stroke-width="1.5" /><path d="M11.9967 17.5C12.549 17.5 12.9967 17.9477 12.9967 18.5C12.9967 19.0523 12.549 19.5 11.9967 19.5C11.4444 19.5 10.9967 19.0523 10.9967 18.5C10.9967 17.9477 11.4444 17.5 11.9967 17.5Z" stroke="currentColor" stroke-linecap="round" stroke-linejoin="round" stroke-width="1.5" /></svg>