<svg xmlns="http://www.w3.org/2000/svg" width="24" height="24" viewBox="0 0 24 24" fill="none" stroke-width="1.5" stroke-linecap="round" stroke-linejoin="round" color="currentColor"><path d="M9.15309 9C5.68214 5.5 11.0125 3.75 12.5 2C13.9875 3.75 19.3179 5.5 15.8469 9H9.15309Z" fill="none"></path><path d="M18.5 12V11C18.5 10.0572 18.5 9.58579 18.2071 9.29289C17.9142 9 17.4428 9 16.5 9H8.5C7.55719 9 7.08579 9 6.79289 9.29289C6.5 9.58579 6.5 10.0572 6.5 11V12" fill="none"></path><path d="M17.5 12H7.5C6.08579 12 5.37868 12 4.93934 12.4393C4.5 12.8787 4.5 13.5858 4.5 15V19C4.5 20.4142 4.5 21.1213 4.93934 21.5607C5.37868 22 6.08579 22 7.5 22H17.5C18.9142 22 19.6213 22 20.0607 21.5607C20.5 21.1213 20.5 20.4142 20.5 19V15C20.5 13.5858 20.5 12.8787 20.0607 12.4393C19.6213 12 18.9142 12 17.5 12Z" fill="none"></path><path d="M10.0001 22V19C9.98279 16 12.5 15 12.5 15C12.5 15 15.0172 16 14.9999 19V22" fill="none"></path></svg>