<svg xmlns="http://www.w3.org/2000/svg" width="24" height="24" viewBox="0 0 24 24" fill="none" stroke-width="1.5" stroke-linecap="round" stroke-linejoin="round" color="currentColor"><path d="M22 7H13.6138C12.3798 7 11.965 7.1398 11.659 8.36394L9.33913 17.6416C8.78948 19.8398 8.51466 20.9389 7.78481 20.9976C7.05496 21.0564 6.55032 20.02 5.54104 17.9472L4.97014 16.7748C4.53541 15.882 4.31804 15.4356 3.87855 15.3147C3.21709 15.1327 2.5084 15.6703 2 16" stroke="currentColor"></path><path d="M3 9V5.57143M3 5.57143C3 4.15127 4.11929 3 5.5 3C6.88071 3 8 4.15127 8 5.57143V9M3 5.57143V3" stroke="currentColor"></path></svg>