<svg xmlns="http://www.w3.org/2000/svg" width="24" height="24" viewBox="0 0 24 24" fill="none" stroke-width="1.5" stroke-linecap="round" stroke-linejoin="round" color="currentColor"><path d="M5 16L10 13M14 11L19 8M12 5V10M12 14V19M5 8L10 11M14 13L19 16" stroke="currentColor"></path><path d="M20.5 9.00001V14.5M13.5 20.5L19 17.5M4.5 17.5L10.5 20.5M3.5 15V9.00001M4.5 6.5L10.5 3.5M19.5 6.5L13.5 3.5" stroke="currentColor"></path><circle cx="12" cy="3.5" r="1.5" stroke="currentColor"></circle><circle cx="12" cy="20.5" r="1.5" stroke="currentColor"></circle><circle cx="3.5" cy="7.5" r="1.5" stroke="currentColor"></circle><circle cx="20.5" cy="7.5" r="1.5" stroke="currentColor"></circle><circle cx="20.5" cy="16.5" r="1.5" stroke="currentColor"></circle><circle cx="3.5" cy="16.5" r="1.5" stroke="currentColor"></circle><path d="M12 9.75L14 10.875V13.125L12 14.25L10 13.125V10.875L12 9.75Z" stroke="currentColor"></path></svg>