<svg xmlns="http://www.w3.org/2000/svg" width="24" height="24" viewBox="0 0 24 24" fill="none" stroke-width="1.5" stroke-linecap="round" stroke-linejoin="round" color="currentColor"><path d="M7.0278 3.07227C6.8678 3.07227 6.7478 3.20229 6.7478 3.35229V7.04224V13.3223C6.7478 14.7623 6.74781 15.7623 6.84781 16.5123C6.94781 17.2523 7.12781 17.6324 7.40781 17.9124C7.68781 18.1924 8.0678 18.3723 8.8078 18.4723C9.5678 18.5723 10.5678 18.5723 11.9978 18.5723H19.9078C20.0978 18.5723 20.2478 18.4223 20.2478 18.2323C20.2478 18.1523 20.2178 18.0723 20.1678 18.0023L19.3578 17.0723H9.00781C8.59781 17.0723 8.25781 16.7323 8.25781 16.3223V4.32227L7.2478 3.17224C7.1978 3.11224 7.11781 3.07227 7.03781 3.07227H7.0278ZM9.7478 6.05225V15.5723H18.0478L9.7478 6.05225ZM18.3378 20.0723H19.9078C20.9278 20.0723 21.7478 19.2523 21.7478 18.2323C21.7478 17.7823 21.5878 17.3523 21.2978 17.0223L8.37781 2.18225C8.03781 1.79225 7.54781 1.57227 7.03781 1.57227C6.05781 1.57227 5.25781 2.37229 5.25781 3.35229V5.05225C4.92781 4.74225 4.49781 4.57227 4.03781 4.57227C3.05781 4.57227 2.25781 5.37229 2.25781 6.35229V16.3723C2.25781 17.7423 2.25781 18.8423 2.37781 19.7123C2.49781 20.6123 2.75779 21.3723 3.35779 21.9723C3.95779 22.5723 4.7178 22.8323 5.6178 22.9523C6.4878 23.0723 7.58779 23.0723 8.95779 23.0723H16.9178C17.9378 23.0723 18.7578 22.2523 18.7578 21.2323C18.7578 20.8123 18.6078 20.4023 18.3478 20.0723H18.3378ZM16.3478 20.0723H11.9378C10.5678 20.0723 9.46781 20.0723 8.59781 19.9523C7.69781 19.8323 6.9378 19.5723 6.3378 18.9723C5.7378 18.3723 5.47779 17.6123 5.35779 16.7123C5.23779 15.8423 5.23779 14.7423 5.23779 13.3723V7.32227L4.22781 6.17224C4.17781 6.11224 4.09779 6.07227 4.01779 6.07227C3.85779 6.07227 3.73779 6.20229 3.73779 6.35229V16.3223C3.73779 17.7623 3.7378 18.7623 3.8378 19.5123C3.9378 20.2523 4.1178 20.6324 4.3978 20.9124C4.6778 21.1924 5.05779 21.3723 5.79779 21.4723C6.55779 21.5723 7.55779 21.5723 8.98779 21.5723H16.8978C17.0878 21.5723 17.2378 21.4223 17.2378 21.2323C17.2378 21.1523 17.2078 21.0723 17.1578 21.0023L16.3478 20.0723Z" fill="currentColor" fill-rule="evenodd"></path></svg>