<svg xmlns="http://www.w3.org/2000/svg" width="24" height="24" viewBox="0 0 24 24" fill="none" stroke-width="1.5" stroke-linecap="round" stroke-linejoin="round" color="currentColor"><path d="M10.9577 3.93225C10.4577 4.66225 9.89767 5.79233 9.10767 7.39233L8.12769 9.39233L11.9977 13.2623L15.8677 9.39233L14.8877 7.39233C14.0977 5.79233 13.5477 4.66225 13.0377 3.93225C12.5277 3.19225 12.2177 3.07227 11.9977 3.07227C11.7777 3.07227 11.4677 3.19225 10.9577 3.93225ZM16.5677 10.8123L12.5277 14.8523C12.2377 15.1423 11.7577 15.1423 11.4677 14.8523L7.42768 10.8123C7.15768 11.3623 6.97767 11.7523 6.85767 12.0623C6.73767 12.4123 6.7277 12.6023 6.7577 12.7523C6.7877 12.9123 6.85769 13.0823 7.09769 13.3623C7.33769 13.6523 7.69769 13.9923 8.24769 14.4923L9.8177 15.9723C10.4777 16.5823 10.9077 16.9923 11.2777 17.2623C11.6277 17.5123 11.8277 17.5723 11.9977 17.5723C12.1677 17.5723 12.3677 17.5123 12.7177 17.2623C13.0877 16.9923 13.5277 16.5823 14.1777 15.9723L15.7477 14.4923C16.2877 13.9923 16.6477 13.6523 16.8977 13.3623C17.1277 13.0823 17.2077 12.9123 17.2377 12.7523C17.2677 12.6023 17.2577 12.4123 17.1377 12.0623C17.0277 11.7523 16.8377 11.3623 16.5777 10.8123H16.5677ZM9.71769 3.08228C10.2877 2.24228 10.9877 1.57227 11.9977 1.57227C13.0077 1.57227 13.6977 2.24228 14.2777 3.08228C14.8477 3.92228 15.4477 5.14224 16.2077 6.67224L17.8277 9.96228C18.1377 10.5923 18.3877 11.1123 18.5477 11.5623C18.7177 12.0423 18.8077 12.5123 18.7177 13.0223C18.6277 13.5323 18.3777 13.9423 18.0477 14.3223L18.0177 14.3623C18.2377 14.8123 18.4177 15.2123 18.5477 15.5623C18.7177 16.0423 18.8077 16.5123 18.7177 17.0223C18.6277 17.5323 18.3777 17.9323 18.0477 18.3223C17.7377 18.6923 17.3177 19.0923 16.8177 19.5623L15.1777 21.0923C14.5677 21.6723 14.0577 22.1523 13.5977 22.4823C13.1177 22.8223 12.6077 23.0723 11.9977 23.0723C11.3877 23.0723 10.8777 22.8223 10.3977 22.4823C9.93768 22.1523 9.4277 21.6723 8.8177 21.0923L8.77769 21.0623L7.17768 19.5623C6.67768 19.0923 6.2477 18.6923 5.9477 18.3223C5.6177 17.9323 5.37769 17.5323 5.27769 17.0223C5.18769 16.5123 5.2777 16.0423 5.4477 15.5623C5.5677 15.2123 5.7577 14.8123 5.9777 14.3623L5.9477 14.3223C5.6177 13.9423 5.37769 13.5323 5.27769 13.0223C5.18769 12.5123 5.2777 12.0423 5.4477 11.5623C5.6077 11.1123 5.8677 10.5923 6.1677 9.96228L7.7877 6.67224C8.5377 5.14224 9.13769 3.92228 9.71769 3.08228ZM16.8077 15.5623L16.8877 15.4923C16.9877 15.7123 17.0677 15.8923 17.1277 16.0623C17.2477 16.4023 17.2577 16.5923 17.2277 16.7523C17.1977 16.9123 17.1277 17.0823 16.8877 17.3623C16.6477 17.6523 16.2877 17.9823 15.7377 18.4923L14.1677 19.9723C13.5077 20.5823 13.0777 20.9923 12.7077 21.2623C12.3577 21.5123 12.1577 21.5723 11.9877 21.5723C11.8177 21.5723 11.6177 21.5123 11.2677 21.2623C10.8977 20.9923 10.4577 20.5823 9.80769 19.9723L8.23768 18.4923C7.69768 17.9823 7.33769 17.6523 7.08768 17.3623C6.85768 17.0823 6.77769 16.9123 6.74769 16.7523C6.71769 16.5923 6.72769 16.4023 6.84769 16.0623C6.90769 15.8923 6.98768 15.7123 7.08768 15.4923L7.1677 15.5623L8.76768 17.0623L8.80769 17.1023C9.41769 17.6723 9.9277 18.1523 10.3877 18.4823C10.8677 18.8323 11.3777 19.0723 11.9877 19.0723C12.5977 19.0723 13.1077 18.8323 13.5877 18.4823C14.0477 18.1523 14.5577 17.6723 15.1677 17.1023L16.8077 15.5623Z" fill="currentColor" fill-rule="evenodd"></path></svg>