<svg xmlns="http://www.w3.org/2000/svg" width="24" height="24" viewBox="0 0 24 24" fill="none"><path d="M3 3L21 21" stroke="currentColor" stroke-linecap="round" stroke-linejoin="round" stroke-width="1.5" /><path d="M11.1761 6.17609L15.8353 4.29256C18.6104 3.17071 19.9979 2.60978 20.6941 3.30595C21.3902 4.00211 20.8293 5.38967 19.7074 8.16477L17.8239 12.8239M7.61575 7.61575C4.54977 8.85978 3.01572 9.54441 3.00021 10.459C2.99809 10.5846 3.01186 10.7098 3.04121 10.8319C3.2714 11.7893 5.1611 12.1042 8.94051 12.7341C9.85191 12.886 10.3076 12.962 10.6276 13.2454C10.6725 13.2852 10.715 13.3277 10.7548 13.3726C11.0382 13.6925 11.1141 14.1482 11.266 15.0597C11.8959 18.8389 12.2109 20.7286 13.1682 20.9588C13.2902 20.9881 13.4156 21.0019 13.5411 20.9998C14.4557 20.9843 15.1403 19.4502 16.3843 16.3843" stroke="currentColor" stroke-linecap="round" stroke-linejoin="round" stroke-width="1.5" /></svg>