<svg xmlns="http://www.w3.org/2000/svg" width="24" height="24" viewBox="0 0 24 24" fill="none" stroke-width="1.5" stroke-linecap="round" stroke-linejoin="round" color="currentColor"><path d="M12 23C6.07 23 1.25 18.18 1.25 12.25C1.25 6.32 6.07 1.5 12 1.5C17.93 1.5 22.75 6.32 22.75 12.25C22.75 18.18 17.93 23 12 23ZM12 3C6.9 3 2.75 7.15 2.75 12.25C2.75 17.35 6.9 21.5 12 21.5C17.1 21.5 21.25 17.35 21.25 12.25C21.25 7.15 17.1 3 12 3ZM7.30019 18.5C6.86019 18.5 6.50019 18.37 6.19019 18.06C5.32371 17.1936 5.80624 16.0196 6.76843 13.6786L6.78019 13.65L7.90019 10.92L7.94524 10.8121C8.29586 9.97147 8.48671 9.51391 8.88019 9.13004C9.28019 8.73003 9.75634 8.52991 10.5965 8.1768L10.6602 8.15004L13.3902 7.03004C15.6702 6.08004 16.9202 5.57004 17.7902 6.43004C18.6567 7.29651 18.1741 8.47049 17.2119 10.8114L17.2002 10.84L16.0802 13.57L16.0351 13.678C15.6845 14.5186 15.4937 14.9762 15.1002 15.36C14.7002 15.76 14.224 15.9602 13.3839 16.3133L13.3202 16.34L10.5902 17.46C9.13019 18.07 8.09019 18.5 7.30019 18.5ZM16.6602 7.48004C16.2602 7.48004 15.0602 7.98004 13.9802 8.43004L11.2502 9.55004C10.4702 9.87004 10.1502 10.01 9.96019 10.2C9.77 10.3807 9.62503 10.7332 9.3705 11.3521L9.33019 11.45L8.19019 14.23L8.14328 14.3443C7.67521 15.4846 7.16408 16.7298 7.28019 17.02C7.55019 17.12 8.88019 16.57 10.0402 16.09L12.7802 14.97C13.5602 14.65 13.8802 14.51 14.0702 14.32C14.2604 14.1394 14.4053 13.7869 14.6599 13.168L14.7002 13.07L15.8402 10.29L15.8871 10.1757C16.3552 9.03545 16.8663 7.7903 16.7502 7.50004C16.7412 7.50004 16.7302 7.49802 16.7181 7.49579C16.7032 7.49307 16.6867 7.49004 16.6702 7.49004L16.6602 7.48004ZM11 12.26C11 12.81 11.45 13.26 12 13.26V13.27C12.55 13.27 13 12.82 13 12.26C13 11.7 12.55 11.26 12 11.26C11.45 11.26 11 11.71 11 12.26Z" fill="currentColor" fill-rule="evenodd"></path></svg>