<svg xmlns="http://www.w3.org/2000/svg" width="24" height="24" viewBox="0 0 24 24" fill="none"><path d="M15.5 7V6.5C15.5 5.09554 15.5 4.39331 15.1629 3.88886C15.017 3.67048 14.8295 3.48298 14.6111 3.33706C14.1067 3 13.4045 3 12 3C10.5955 3 9.89331 3 9.38886 3.33706C9.17048 3.48298 8.98298 3.67048 8.83706 3.88886C8.5 4.39331 8.5 5.09554 8.5 6.5V7" stroke="currentColor" stroke-linecap="round" stroke-linejoin="round" stroke-width="1.5" /><path d="M9 7H15C17.8089 7 19.2134 7 20.2223 7.67412C20.659 7.96596 21.034 8.34096 21.3259 8.77772C22 9.78661 22 11.1911 22 14C22 16.8089 22 18.2134 21.3259 19.2223C21.034 19.659 20.659 20.034 20.2223 20.3259C19.2134 21 17.8089 21 15 21H9C6.19108 21 4.78661 21 3.77772 20.3259C3.34096 20.034 2.96596 19.659 2.67412 19.2223C2 18.2134 2 16.8089 2 14C2 11.1911 2 9.78661 2.67412 8.77772C2.96596 8.34096 3.34096 7.96596 3.77772 7.67412C4.78661 7 6.19108 7 9 7Z" stroke="currentColor" stroke-linecap="round" stroke-linejoin="round" stroke-width="1.5" /><path d="M11 11L11.8 11.6C13.2667 12.7 14 13.25 14 14C14 14.75 13.2667 15.3 11.8 16.4L11 17" stroke="currentColor" stroke-linecap="round" stroke-linejoin="round" stroke-width="1.5" /></svg>