<svg xmlns="http://www.w3.org/2000/svg" width="24" height="24" viewBox="0 0 24 24" fill="none" stroke-width="1.5" stroke-linecap="round" stroke-linejoin="round" color="currentColor"><path d="M4 13.0625H7C7.41 13.0625 7.75 12.7225 7.75 12.3125C7.75 11.9025 7.41 11.5625 7 11.5625H4C3.59 11.5625 3.25 11.9025 3.25 12.3125C3.25 12.7225 3.59 13.0625 4 13.0625ZM13.5 13.0625H10.5C10.09 13.0625 9.75 12.7225 9.75 12.3125C9.75 11.9025 10.09 11.5625 10.5 11.5625H13.5C13.91 11.5625 14.25 11.9025 14.25 12.3125C14.25 12.7225 13.91 13.0625 13.5 13.0625ZM20 13.0625H17C16.59 13.0625 16.25 12.7225 16.25 12.3125C16.25 11.9025 16.59 11.5625 17 11.5625H20C20.41 11.5625 20.75 11.9025 20.75 12.3125C20.75 12.7225 20.41 13.0625 20 13.0625Z" fill="currentColor" fill-rule="evenodd"></path></svg>