<svg xmlns="http://www.w3.org/2000/svg" width="24" height="24" viewBox="0 0 24 24" fill="none" stroke-width="1.5" stroke-linecap="round" stroke-linejoin="round" color="currentColor"><path d="M22 14V10C22 6.22876 22 4.34315 20.8284 3.17157C19.6569 2 17.7712 2 14 2H12C8.22876 2 6.34315 2 5.17157 3.17157C4 4.34315 4 6.22876 4 10V14C4 17.7712 4 19.6569 5.17157 20.8284C6.34315 22 8.22876 22 12 22H14C17.7712 22 19.6569 22 20.8284 20.8284C22 19.6569 22 17.7712 22 14Z" stroke="currentColor"></path><path d="M5 6L2 6M5 12H2M5 18H2" stroke="currentColor"></path><path d="M17.5 7L13.5 7M15.5 11H13.5" stroke="currentColor"></path><path d="M9 22L9 2" stroke="currentColor"></path></svg>