<svg xmlns="http://www.w3.org/2000/svg" width="24" height="24" viewBox="0 0 24 24" fill="none"><path d="M15.5 2V5M6.5 2V5M11 2V5" stroke="currentColor" stroke-linecap="round" stroke-linejoin="round" stroke-width="1.5" /><path d="M19 13.5V10.5C19 7.20017 19 5.55025 17.9749 4.52512C16.9497 3.5 15.2998 3.5 12 3.5H10C6.70017 3.5 5.05025 3.5 4.02513 4.52513C3 5.55025 3 7.20017 3 10.5V15C3 18.2998 3 19.9497 4.02513 20.9749C5.05025 22 6.70017 22 10 22H12" stroke="currentColor" stroke-linecap="round" stroke-linejoin="round" stroke-width="1.5" /><path d="M7 15H11M7 11H15" stroke="currentColor" stroke-linecap="round" stroke-linejoin="round" stroke-width="1.5" /><path d="M14 20C14 20 15 20 16 22C16 22 18.1765 17 21 16" stroke="currentColor" stroke-linecap="round" stroke-linejoin="round" stroke-width="1.5" /></svg>