<svg xmlns="http://www.w3.org/2000/svg" width="24" height="24" viewBox="0 0 24 24" fill="none"><path d="M10 11H13.5M10 7H17" stroke="currentColor" stroke-linecap="round" stroke-linejoin="round" stroke-width="1.5" /><path d="M13 2H12.5C8.72877 2 6.84314 2 5.67157 3.17158C4.5 4.34315 4.5 6.22877 4.5 10V14C4.5 17.7712 4.5 19.6569 5.67157 20.8284C6.84315 22 8.72876 22 12.5 22H13C16.7712 22 18.6569 22 19.8284 20.8284C21 19.6569 21 17.7712 21 14V10C21 6.22877 21 4.34315 19.8284 3.17157C18.6569 2 16.7712 2 13 2Z" stroke="currentColor" stroke-linecap="round" stroke-linejoin="round" stroke-width="1.5" /><path d="M6 6H3M6 12H3M6 18H3" stroke="currentColor" stroke-linecap="round" stroke-linejoin="round" stroke-width="1.5" /></svg>