<svg xmlns="http://www.w3.org/2000/svg" width="24" height="24" viewBox="0 0 24 24" fill="none"><path d="M5.49994 10.5V13.5C5.49994 17.2712 5.49994 19.1569 6.67151 20.3284C7.84308 21.5 9.7287 21.5 13.4999 21.5C17.2712 21.5 19.1568 21.5 20.3284 20.3284C21.4999 19.1569 21.4999 17.2712 21.4999 13.5V10.5C21.4999 6.72876 21.4999 4.84315 20.3284 3.67157C19.1568 2.5 17.2712 2.5 13.4999 2.5C9.7287 2.5 7.84308 2.5 6.67151 3.67158C5.49994 4.84315 5.49994 6.72877 5.49994 10.5Z" stroke="currentColor" stroke-linecap="round" stroke-linejoin="round" stroke-width="1.5" /><path d="M5.5 10.5L4 10.5C3.17157 10.5 2.5 9.82843 2.5 9C2.5 8.17157 3.17157 7.5 4 7.5L7.5 7.5" stroke="currentColor" stroke-linecap="round" stroke-linejoin="round" stroke-width="1.5" /><path d="M5.5 17.5L4 17.5C3.17157 17.5 2.5 16.8284 2.5 16C2.5 15.1716 3.17157 14.5 4 14.5L7.5 14.5" stroke="currentColor" stroke-linecap="round" stroke-linejoin="round" stroke-width="1.5" /><path d="M11 10.5H15M11 6.5H17.5" stroke="currentColor" stroke-linecap="round" stroke-linejoin="round" stroke-width="1.5" /></svg>