<svg xmlns="http://www.w3.org/2000/svg" width="24" height="24" viewBox="0 0 24 24" fill="none"><path d="M13 22.0005H11M16.5 3.58926C17.6376 3.70116 18.4033 3.95405 18.9749 4.52558C19.6998 5.25055 19.9121 6.28798 19.9743 8.00046M7.5 3.58926C6.3624 3.70116 5.59666 3.95405 5.02513 4.52558C4.30016 5.25055 4.08789 6.28798 4.02573 8.00046M20 12.0005V14.0005M4 12.0005V14.0005M19.9504 18.0005C19.8638 19.4199 19.6264 20.3238 18.9749 20.9753C18.4914 21.4588 17.869 21.7143 17 21.8492M4.04962 18.0005C4.13616 19.4199 4.3736 20.3238 5.02513 20.9753C5.5086 21.4588 6.13105 21.7143 7 21.8492" stroke="currentColor" stroke-linecap="round" stroke-linejoin="round" stroke-width="1.5" /><path d="M16.5 2.00046V5.00046M7.5 2.00046V5.00046M12 2.00046V5.00046" stroke="currentColor" stroke-linecap="round" stroke-linejoin="round" stroke-width="1.5" /><path d="M8 15.0005H12M8 11.0005H16" stroke="currentColor" stroke-linecap="round" stroke-linejoin="round" stroke-width="1.5" /></svg>