<svg xmlns="http://www.w3.org/2000/svg" width="24" height="24" viewBox="0 0 24 24" fill="none"><path d="M19.5229 19.5229C18.4076 20.6761 15.4604 21.5 12 21.5C7.58172 21.5 4 20.1569 4 18.5C4 16.8431 7.58172 15.5 12 15.5C13.4057 15.5 14.7268 15.636 15.8747 15.8747" stroke="currentColor" stroke-linecap="round" stroke-linejoin="round" stroke-width="1.5" /><path d="M13 18.5H11" stroke="currentColor" stroke-linecap="round" stroke-linejoin="round" stroke-width="1.5" /><path d="M2 2L22 22" stroke="currentColor" stroke-linecap="round" stroke-linejoin="round" stroke-width="1.5" /><path d="M4 18.5011L5.65098 7.93407C5.74763 7.3155 5.93052 6.72907 6.18626 6.18626M7.94277 3.94277C9.05576 3.03642 10.473 2.5 12 2.5C15.166 2.5 17.8603 4.80601 18.349 7.93407L19.5369 15.5369" stroke="currentColor" stroke-linecap="round" stroke-linejoin="round" stroke-width="1.5" /></svg>