<svg xmlns="http://www.w3.org/2000/svg" width="24" height="24" viewBox="0 0 24 24" fill="none"><path d="M21.5 11.9961C21.5 17.2428 17.2467 21.4961 12 21.4961C10.3446 21.4961 8.78814 21.0727 7.43293 20.3283C6.87976 20.0244 6.22839 19.9176 5.62966 20.1171L3.00001 20.9937L3.87695 18.3629C4.07645 17.7644 3.96974 17.1133 3.66622 16.5603C2.92279 15.2057 2.5 13.6503 2.5 11.9961C2.5 6.74939 6.75329 2.49609 12 2.49609" stroke="currentColor" stroke-linecap="round" stroke-linejoin="round" stroke-width="1.5" /><path d="M18.0001 9.49609C19.9331 9.49609 21.5001 7.92909 21.5001 5.99609C21.5001 4.06309 19.9331 2.49609 18.0001 2.49609C16.0671 2.49609 14.5001 4.06309 14.5001 5.99609C14.5001 7.92909 16.0671 9.49609 18.0001 9.49609Z" stroke="currentColor" stroke-linecap="round" stroke-linejoin="round" stroke-width="1.5" /></svg>