<svg xmlns="http://www.w3.org/2000/svg" width="24" height="24" viewBox="0 0 24 24" fill="none" stroke-width="1.5" stroke-linecap="round" stroke-linejoin="round" color="currentColor"><path d="M22 5.5C22 7.433 20.433 9 18.5 9C16.567 9 15 7.433 15 5.5C15 3.567 16.567 2 18.5 2C20.433 2 22 3.567 22 5.5Z" stroke="currentColor"></path><path d="M21.9506 11C21.9833 11.3289 22 11.6625 22 12C22 17.5228 17.5228 22 12 22C6.47715 22 2 17.5228 2 12C2 6.47715 6.47715 2 12 2C12.3375 2 12.6711 2.01672 13 2.04938" stroke="currentColor"></path><path d="M8 10H12" stroke="currentColor"></path><path d="M8 15H16" stroke="currentColor"></path></svg>