<svg xmlns="http://www.w3.org/2000/svg" width="24" height="24" viewBox="0 0 24 24" fill="none"><path d="M20 19.0011L18.7499 11M4 19.0011L5.65098 8.43407C6.13971 5.30601 8.83398 3 12 3" stroke="currentColor" stroke-linecap="round" stroke-linejoin="round" stroke-width="1.5" /><path d="M20 19C20 17.3431 16.4183 16 12 16C7.58172 16 4 17.3431 4 19C4 20.6569 7.58172 22 12 22C16.4183 22 20 20.6569 20 19Z" stroke="currentColor" stroke-linecap="round" stroke-linejoin="round" stroke-width="1.5" /><path d="M13 19H11" stroke="currentColor" stroke-linecap="round" stroke-linejoin="round" stroke-width="1.5" /><path d="M15.016 2H18.6884C19.4611 2 19.8474 2 19.9503 2.24011C20.0532 2.48023 19.7903 2.76827 19.2646 3.34436L15.8469 6.65564C15.3212 7.23173 14.9131 7.51977 15.016 7.75989C15.1189 8 15.6504 8 16.423 8H20" stroke="currentColor" stroke-linecap="round" stroke-linejoin="round" stroke-width="1.5" /></svg>