<svg xmlns="http://www.w3.org/2000/svg" width="24" height="24" viewBox="0 0 24 24" fill="none" stroke-width="1.5" stroke-linecap="round" stroke-linejoin="round" color="currentColor"><path d="M13.5 2.14902C13.0153 2.05129 12.5136 2 12 2C7.84413 2 4.47513 5.35786 4.47513 9.5C4.47503 10.5718 4.41272 11.5793 3.78561 12.5029C3.30684 13.1995 2.66061 13.9129 2.52992 14.7696C2.31727 16.1636 3.268 17.1312 4.43205 17.6134C8.89481 19.4622 15.1052 19.4622 19.5679 17.6134C20.732 17.1312 21.6827 16.1636 21.4701 14.7696C21.3702 14.1149 20.9692 13.5438 20.5719 13" stroke="currentColor"></path><path d="M16.016 4H19.6884C20.4611 4 20.8474 4 20.9503 4.24011C21.0532 4.48023 20.7903 4.76827 20.2646 5.34436L16.8469 8.65564C16.3212 9.23173 15.9131 9.51977 16.016 9.75989C16.1189 10 16.6504 10 17.423 10H21" stroke="currentColor"></path><path d="M8 19C8.45849 20.7252 10.0755 22 12 22C13.9245 22 15.5415 20.7252 16 19" stroke="currentColor"></path></svg>