<svg xmlns="http://www.w3.org/2000/svg" width="24" height="24" viewBox="0 0 24 24" fill="none"><path d="M19.5 19.0011L18.328 11.5M3.5 19.0011L5.15098 8.43407C5.63971 5.30601 8.33398 3 11.5 3" stroke="currentColor" stroke-linecap="round" stroke-linejoin="round" stroke-width="1.5" /><path d="M19.5 19C19.5 17.3431 15.9183 16 11.5 16C7.08172 16 3.5 17.3431 3.5 19C3.5 20.6569 7.08172 22 11.5 22C15.9183 22 19.5 20.6569 19.5 19Z" stroke="currentColor" stroke-linecap="round" stroke-linejoin="round" stroke-width="1.5" /><path d="M12.5 19H10.5" stroke="currentColor" stroke-linecap="round" stroke-linejoin="round" stroke-width="1.5" /><path d="M15 3.5L19 7.5M20.5 5.5C20.5 3.567 18.933 2 17 2C15.067 2 13.5 3.567 13.5 5.5C13.5 7.433 15.067 9 17 9C18.933 9 20.5 7.433 20.5 5.5Z" stroke="currentColor" stroke-linecap="round" stroke-linejoin="round" stroke-width="1.5" /></svg>