<svg xmlns="http://www.w3.org/2000/svg" width="24" height="24" viewBox="0 0 24 24" fill="none"><path d="M19 11V18.5M5 18.5V10C5 6.13401 8.13401 3 12 3" stroke="currentColor" stroke-linecap="round" stroke-linejoin="round" stroke-width="1.5" /><path d="M20.5 18.5H3.5" stroke="currentColor" stroke-linecap="round" stroke-linejoin="round" stroke-width="1.5" /><path d="M13.5 20.5C13.5 21.3284 12.8284 22 12 22M10.5 20.5C10.5 21.3284 11.1716 22 12 22M12 22V20.5" stroke="currentColor" stroke-linejoin="round" stroke-width="1.5" /><path d="M15.016 2H18.6884C19.4611 2 19.8474 2 19.9503 2.24011C20.0532 2.48023 19.7903 2.76827 19.2646 3.34436L15.8469 6.65564C15.3211 7.23173 14.9131 7.51977 15.016 7.75989C15.1189 8 15.6504 8 16.423 8H20" stroke="currentColor" stroke-linecap="round" stroke-linejoin="round" stroke-width="1.5" /></svg>