<svg xmlns="http://www.w3.org/2000/svg" width="24" height="24" viewBox="0 0 24 24" fill="none" stroke-width="1.5" stroke-linecap="round" stroke-linejoin="round" color="currentColor"><path d="M15.5 18.5C15.5 20.433 13.933 22 12 22C10.067 22 8.5 20.433 8.5 18.5" fill="none"></path><path d="M19 11V12.7558C19 13.5514 19.3161 14.3145 19.8787 14.8771L20.4819 15.4803C20.8136 15.8121 21 16.262 21 16.7311C21 17.708 20.208 18.5 19.2311 18.5H4.76887C3.79195 18.5 3 17.708 3 16.7311C3 16.262 3.18636 15.8121 3.51809 15.4803L4.12132 14.8771C4.68393 14.3145 5 13.5514 5 12.7558V10C5 6.13401 8.13401 3 12 3" fill="none"></path><path d="M15.016 2H18.6884C19.4611 2 19.8474 2 19.9503 2.24011C20.0532 2.48023 19.7903 2.76827 19.2646 3.34436L15.8469 6.65564C15.3211 7.23173 14.9131 7.51977 15.016 7.75989C15.1189 8 15.6504 8 16.423 8H20" fill="none"></path></svg>