<svg xmlns="http://www.w3.org/2000/svg" width="24" height="24" viewBox="0 0 24 24" fill="none" stroke-width="1.5" stroke-linecap="round" stroke-linejoin="round" color="currentColor"><ellipse cx="12" cy="4" rx="8" ry="2" stroke="currentColor"></ellipse><path d="M12 12.5C12.8284 12.5 13.5 11.8284 13.5 11C13.5 10 12 8.5 12 8.5C12 8.5 10.5 10 10.5 11C10.5 11.8284 11.1716 12.5 12 12.5Z" stroke="currentColor"></path><path d="M19 5V10.5465C19.6372 10.9771 20 11.4727 20 12C20 13.6569 16.4183 15 12 15C7.58172 15 4 13.6569 4 12C4 11.4727 4.36284 10.9771 5 10.5465V5" stroke="currentColor"></path><path d="M19 13.5V17.5465C19.6372 17.9771 20 18.4727 20 19C20 20.6569 16.4183 22 12 22C7.58172 22 4 20.6569 4 19C4 18.4727 4.36284 17.9771 5 17.5465V13.5" stroke="currentColor"></path></svg>