<svg xmlns="http://www.w3.org/2000/svg" width="24" height="24" viewBox="0 0 24 24" fill="none" stroke-width="1.5" stroke-linecap="round" stroke-linejoin="round" color="currentColor"><path d="M12 12V21C10.1685 19.3871 7.79379 18.4966 5.33333 18.5C3.77132 18.5 2.99032 18.5 2.64526 18.2792C2.4381 18.1466 2.35346 18.0619 2.22086 17.8547C2 17.5097 2 16.8941 2 15.6629V6.40322C2 4.97543 2 4.26154 2.54874 3.68286C3.09748 3.10418 3.65923 3.07432 4.78272 3.0146C4.965 3.00491 5.14858 3.00001 5.33333 3.00001" fill="none"></path><path d="M12 12V21C13.8315 19.3871 16.2062 18.4966 18.6667 18.5C20.2287 18.5 21.0097 18.5 21.3547 18.2792C21.5619 18.1466 21.6465 18.0619 21.7791 17.8547C22 17.5097 22 16.8941 22 15.6629V6.40322C22 4.97543 22 4.26154 21.4513 3.68286C20.9025 3.10418 20.3408 3.07432 19.2173 3.0146C19.035 3.00491 18.8514 3.00001 18.6667 3.00001" fill="none"></path><path d="M8 4.44561C8 4.44561 9.5 3.00004 12.0045 3C14.5091 2.99996 16 4.44561 16 4.44561M14.5 6.99996C14.5 6.99996 13.5091 5.99742 12.0045 5.99742C10.5 5.99742 9.5 6.99996 9.5 6.99996M12 9H12.01" fill="none"></path></svg>