<svg xmlns="http://www.w3.org/2000/svg" width="24" height="24" viewBox="0 0 24 24" fill="none" stroke-width="1.5" stroke-linecap="round" stroke-linejoin="round" color="currentColor"><path d="M2.5 7.5V13.5C2.5 17.2712 2.5 19.1569 3.67157 20.3284C4.84315 21.5 6.72876 21.5 10.5 21.5H13M21.5 13V7.5" fill="none"></path><path d="M3.86909 5.31461L2.5 7.5H21.5L20.2478 5.41303C19.3941 3.99021 18.9673 3.2788 18.2795 2.8894C17.5918 2.5 16.7621 2.5 15.1029 2.5H8.95371C7.32998 2.5 6.51812 2.5 5.84013 2.8753C5.16215 3.2506 4.73113 3.93861 3.86909 5.31461Z" fill="none"></path><path d="M12 7.5V2.5" fill="none"></path><path d="M10 10.5H14" fill="none"></path><path d="M21.3787 21.3784L19.5 19.4998M19.5 19.4998C20.0429 18.9569 20.3787 18.2069 20.3787 17.3784C20.3787 15.7216 19.0355 14.3784 17.3787 14.3784C15.7218 14.3784 14.3787 15.7216 14.3787 17.3784C14.3787 19.0353 15.7218 20.3784 17.3787 20.3784C18.2071 20.3784 18.9571 20.0426 19.5 19.4998Z" fill="none"></path></svg>