<svg xmlns="http://www.w3.org/2000/svg" width="24" height="24" viewBox="0 0 24 24" fill="none" stroke-width="1.5" stroke-linecap="round" stroke-linejoin="round" color="currentColor"><path d="M19.6 2.44109C19.66 2.52109 19.71 2.61109 19.73 2.71109V2.72109C20.43 5.84109 21.75 12.8211 21.75 16.8811C21.75 17.8411 21.63 19.0711 21.41 20.5311C21.27 21.3711 20.75 22.0811 19.97 22.4811L17.85 23.5411C17.74 23.6011 17.63 23.6311 17.5 23.6311H5.06C3.74 23.6311 2.66 22.7111 2.49 21.4411C2.38 20.6711 2.25 19.4211 2.25 17.8811C2.25 13.1311 3.45 8.46109 4.01 6.55109C3.92 6.50109 3.83 6.43109 3.76 6.35109C3.61 6.18109 3.56 5.95109 3.6 5.73109C3.61147 5.67629 3.62286 5.62186 3.63417 5.5678C3.80035 4.77349 3.94956 4.06031 4.09 3.46109C4.26 2.67109 4.96 2.12109 5.78 2.12109H19.01C19.11 2.12109 19.21 2.15109 19.3 2.19109C19.3188 2.19737 19.3337 2.20759 19.3471 2.2168C19.3551 2.22226 19.3626 2.22737 19.37 2.23109C19.44 2.27109 19.5 2.32109 19.55 2.38109C19.555 2.38609 19.5625 2.39109 19.57 2.39609C19.5775 2.40109 19.585 2.40609 19.59 2.41109C19.6 2.42109 19.6 2.44109 19.6 2.44109ZM5.78 3.62109C5.67 3.62109 5.57 3.69109 5.55 3.79109V3.80109C5.46 4.20109 5.36 4.65109 5.26 5.13109H16.7C17.28 5.13109 17.8 4.70109 17.94 4.12109C17.9533 4.06346 17.9646 4.0078 17.9757 3.95323C17.9897 3.8847 18.0033 3.8179 18.02 3.75109C18.03 3.71109 18.05 3.62109 18.05 3.62109H5.78ZM3.97 21.2311C4.04 21.7511 4.5 22.1211 5.06 22.1211H16.59C16.44 21.2311 16.25 19.7411 16.25 17.8711C16.25 14.0711 16.85 9.76109 17.46 6.50109C17.21 6.57109 16.96 6.62109 16.7 6.62109H5.55C5.09 8.17109 3.75 13.0511 3.75 17.8711C3.75 19.3311 3.87 20.5011 3.97 21.2311ZM19.3 21.1411C19.64 20.9711 19.87 20.6611 19.93 20.2911C20.14 18.9211 20.25 17.7611 20.25 16.8711C20.25 14.2311 19.63 10.0111 18.98 6.53109C18.37 9.74109 17.75 14.0711 17.75 17.8711C17.75 19.5511 17.91 20.9211 18.05 21.7611L19.3 21.1411ZM13.27 11.1211C13.77 11.1211 14.24 11.3311 14.57 11.7011V11.6911C14.91 12.0611 15.07 12.5611 15.02 13.0611C14.84 14.9011 14.75 16.4711 14.75 17.8611C14.75 18.02 14.7553 18.1764 14.7604 18.3287C14.7653 18.4735 14.77 18.6147 14.77 18.7511C14.79 19.2411 14.61 19.7211 14.27 20.0711C13.93 20.4211 13.48 20.6111 13 20.6111H7C6.06 20.6111 5.31 19.8911 5.27 18.9611C5.25 18.6111 5.25 18.2511 5.25 17.8711C5.25 16.3511 5.35 14.6011 5.55 12.6711C5.64 11.7911 6.38 11.1211 7.28 11.1211H13.27ZM13.19 19.0411C13.22 19.0111 13.27 18.9411 13.27 18.8211H13.28C13.26 18.5211 13.26 18.2011 13.26 17.8711V17.8711C13.26 16.4311 13.35 14.8111 13.53 12.9211C13.54 12.8011 13.49 12.7311 13.46 12.7011C13.42 12.6611 13.36 12.6211 13.27 12.6211H7.28C7.17 12.6211 7.06 12.7111 7.05 12.8211C6.85 14.7111 6.75 16.4011 6.75 17.8711C6.75 18.055 6.75522 18.2363 6.76033 18.4137C6.76522 18.5835 6.77 18.7497 6.77 18.9111C6.78 19.0411 6.89 19.1211 7 19.1211H13C13.09 19.1211 13.15 19.0811 13.19 19.0411Z" fill="currentColor" fill-rule="evenodd"></path></svg>