<svg xmlns="http://www.w3.org/2000/svg" width="24" height="24" viewBox="0 0 24 24" fill="none" stroke-width="1.5" stroke-linecap="round" stroke-linejoin="round" color="currentColor"><path d="M8.33 2.0625H15.68C16.98 2.0625 17.89 2.0625 18.68 2.4625C19.47 2.8625 20.02 3.5825 20.8 4.6325C20.83 4.6725 20.87 4.7225 20.9 4.7725C20.92 4.8025 20.95 4.8325 20.97 4.8625C21.5 5.5725 21.87 6.0525 22.06 6.6325C22.25 7.2125 22.25 7.8225 22.25 8.7025V13.8725C22.25 15.7125 22.25 17.1625 22.1 18.3025C21.94 19.4725 21.61 20.4225 20.86 21.1725C20.11 21.9225 19.16 22.2525 17.99 22.4125C16.85 22.5625 15.4 22.5625 13.56 22.5625H10.45C8.61 22.5625 7.16 22.5625 6.02 22.4125C4.85 22.2525 3.9 21.9225 3.15 21.1725C2.4 20.4225 2.07 19.4725 1.91 18.3025C1.75 17.1625 1.75 15.7025 1.75 13.8725V8.8125C1.75 8.8125 1.75 8.7325 1.75 8.7025C1.75 7.8225 1.75 7.2125 1.94 6.6325C2.13 6.0525 2.5 5.5625 3.03 4.8625C3.05 4.8325 3.08 4.8025 3.1 4.7725C3.13 4.7225 3.17 4.6825 3.2 4.6325C3.99 3.5825 4.53 2.8525 5.32 2.4625C6.12 2.0625 7.02 2.0625 8.33 2.0625ZM20 6.0625C19.91 5.9425 19.81 5.8125 19.7 5.6625C18.77 4.4225 18.44 4.0225 18.01 3.8025C17.57 3.5825 17.05 3.5625 15.5 3.5625H14.46L15.08 6.0625H19.99H20ZM15.25 7.5625H20.72C20.74 7.8325 20.75 8.2025 20.75 8.8125V13.8125C20.75 15.7225 20.75 17.0725 20.61 18.1025C20.47 19.1125 20.22 19.6925 19.8 20.1125C19.38 20.5325 18.8 20.7925 17.79 20.9225C16.76 21.0625 15.41 21.0625 13.5 21.0625H10.5C8.59 21.0625 7.24 21.0625 6.21 20.9225C5.2 20.7825 4.62 20.5325 4.2 20.1125C3.78 19.6925 3.52 19.1125 3.39 18.1025C3.25 17.0725 3.25 15.7225 3.25 13.8125V8.8125C3.25 8.2025 3.25 7.8325 3.28 7.5625H8.75V8.8625C8.75 9.2925 8.75 9.6925 8.79 10.0125C8.84 10.3725 8.95 10.7425 9.26 11.0525C9.57 11.3625 9.94 11.4725 10.3 11.5225C10.62 11.5625 11.02 11.5625 11.45 11.5625H12.54C12.97 11.5625 13.37 11.5625 13.69 11.5225C14.05 11.4725 14.42 11.3625 14.73 11.0525C15.04 10.7425 15.15 10.3725 15.2 10.0125C15.24 9.6925 15.24 9.2925 15.24 8.8625V7.5625H15.25ZM13.54 6.0625L12.92 3.5625H11.09L10.47 6.0625H13.55H13.54ZM10.25 7.5625H13.75V8.8125C13.75 9.3025 13.75 9.6025 13.72 9.8125C13.71 9.9125 13.69 9.9525 13.68 9.9825C13.68 9.9825 13.68 9.9825 13.68 9.9925C13.68 9.9925 13.68 9.9925 13.67 9.9925C13.65 9.9925 13.6 10.0125 13.5 10.0325C13.29 10.0625 13 10.0625 12.5 10.0625H11.5C11.01 10.0625 10.71 10.0625 10.5 10.0325C10.4 10.0225 10.36 10.0025 10.33 9.9925C10.33 9.9925 10.33 9.9925 10.32 9.9925C10.32 9.9925 10.32 9.9925 10.32 9.9825C10.32 9.9625 10.3 9.9125 10.28 9.8125C10.25 9.6025 10.25 9.3025 10.25 8.8125V7.5625ZM8.91 6.0625L9.53 3.5625H8.49C6.94 3.5625 6.42 3.5825 5.98 3.8025C5.54 4.0225 5.21 4.4225 4.29 5.6625C4.18 5.8125 4.08 5.9425 3.99 6.0625H8.9H8.91ZM7.46 14.0625H10.55C10.98 14.0625 11.38 14.0625 11.7 14.1025C12.06 14.1525 12.43 14.2625 12.74 14.5725C13.05 14.8825 13.16 15.2525 13.21 15.6125C13.25 15.9325 13.25 16.3325 13.25 16.7625V16.8525C13.25 17.2825 13.25 17.6825 13.21 18.0025C13.16 18.3625 13.05 18.7325 12.74 19.0425C12.43 19.3525 12.06 19.4625 11.7 19.5125C11.38 19.5525 10.98 19.5525 10.55 19.5525H7.46C7.03 19.5525 6.63 19.5525 6.31 19.5125C5.95 19.4625 5.58 19.3525 5.27 19.0425C4.96 18.7325 4.85 18.3625 4.8 18.0025C4.76 17.6825 4.76 17.2825 4.76 16.8525V16.7625C4.76 16.3325 4.76 15.9325 4.8 15.6125C4.85 15.2525 4.96 14.8825 5.27 14.5725C5.58 14.2625 5.95 14.1525 6.31 14.1025C6.63 14.0625 7.03 14.0625 7.46 14.0625ZM6.33 15.6325C6.33 15.6325 6.33 15.6325 6.33 15.6425C6.33 15.6625 6.31 15.7125 6.29 15.8125C6.26 16.0225 6.26 16.3125 6.26 16.8125C6.26 17.3125 6.26 17.6025 6.29 17.8125C6.3 17.9125 6.32 17.9625 6.33 17.9825C6.33 17.9825 6.33 17.9825 6.33 17.9925C6.33 17.9925 6.33 17.9925 6.34 17.9925C6.36 17.9925 6.41 18.0125 6.51 18.0325C6.72 18.0625 7.01 18.0625 7.51 18.0625H10.51C11 18.0625 11.3 18.0625 11.51 18.0325C11.61 18.0225 11.65 18.0025 11.68 17.9925C11.68 17.9925 11.68 17.9925 11.69 17.9925C11.69 17.9925 11.69 17.9925 11.69 17.9825C11.69 17.9625 11.71 17.9125 11.73 17.8125C11.76 17.6025 11.76 17.3025 11.76 16.8125C11.76 16.3225 11.76 16.0225 11.73 15.8125C11.72 15.7125 11.7 15.6625 11.69 15.6425C11.69 15.6425 11.69 15.6425 11.69 15.6325C11.69 15.6325 11.69 15.6325 11.68 15.6325C11.66 15.6325 11.61 15.6125 11.51 15.5925C11.3 15.5625 11.01 15.5625 10.51 15.5625H7.51C7.02 15.5625 6.72 15.5625 6.51 15.5925C6.41 15.6025 6.37 15.6225 6.34 15.6325C6.34 15.6325 6.34 15.6325 6.33 15.6325Z" fill="currentColor" fill-rule="evenodd"></path></svg>