<svg xmlns="http://www.w3.org/2000/svg" width="24" height="24" viewBox="0 0 24 24" fill="none" stroke-width="1.5" stroke-linecap="round" stroke-linejoin="round" color="currentColor"><path d="M13.87 2.07344L18.07 3.68344H18.08L18.0915 3.68786C20.5339 4.62491 21.76 5.09535 21.76 6.31344V18.3134C21.76 19.5315 20.5339 20.002 18.0915 20.939L18.08 20.9434L13.88 22.5534C13.03 22.8834 12.56 23.0634 12 23.0634C11.44 23.0634 10.97 22.8834 10.12 22.5534L5.93 20.9434L5.91848 20.939C3.47615 20.002 2.25 19.5315 2.25 18.3134V6.31344C2.25 5.09535 3.47614 4.62492 5.91847 3.68786L5.93 3.68344L10.12 2.07344C11.82 1.42344 12.17 1.42344 13.87 2.07344ZM17.6318 7.50776C18.8624 7.02931 20.1039 6.54664 20.26 6.27344V6.26344C20.1 6.05344 18.8 5.55344 17.54 5.07344L16.99 4.86344L16.99 4.86344C16.93 4.91344 16.87 4.96344 16.79 4.99344L8.71 8.39344L10.66 9.14344C10.791 9.19471 10.908 9.24129 11.0133 9.28325C11.4629 9.46228 11.7013 9.55724 11.92 9.57344C11.94 9.56344 11.96 9.55344 12 9.55344C12.0214 9.55344 12.0371 9.55918 12.0517 9.56451C12.0643 9.56913 12.0761 9.57344 12.09 9.57344C12.2999 9.55729 12.5424 9.46291 12.986 9.29031C13.0918 9.24914 13.209 9.20351 13.34 9.15344L17.54 7.54344C17.5706 7.53155 17.6012 7.51966 17.6318 7.50776ZM10.66 3.47344L6.46 5.08344V5.07344C6.41148 5.09222 6.36289 5.11102 6.31428 5.12981C5.12075 5.59148 3.92296 6.05478 3.75 6.33344V6.35344C3.91414 6.5562 5.12235 7.01997 6.33056 7.48375C6.37372 7.50031 6.41689 7.51688 6.46 7.53344L6.69 7.62344H6.71L15.03 4.12344L13.34 3.47344L13.3034 3.45946C12.57 3.17957 12.2656 3.06344 12 3.06344C11.73 3.06344 11.41 3.18344 10.66 3.47344ZM6.28515 19.4755C6.34346 19.4981 6.40178 19.5208 6.46 19.5434V19.5334L10.66 21.1434C10.7921 21.193 10.9091 21.2395 11.0142 21.2813C11.1001 21.3155 11.1781 21.3465 11.25 21.3734V10.9434C10.93 10.8634 10.58 10.7334 10.12 10.5534L7.75 9.64344V10.8134C7.75 11.2234 7.41 11.5634 7 11.5634C6.59 11.5634 6.25 11.2234 6.25 10.8134V9.07344L5.93 8.95344C5.783 8.89563 5.64063 8.84 5.50281 8.78615C4.80624 8.51397 4.22585 8.28719 3.75 8.05344V18.3134C3.88353 18.5423 5.08144 19.0078 6.28515 19.4755ZM13.34 21.1534L17.54 19.5434H17.53C18.8 19.0634 20.1 18.5634 20.25 18.2734V8.05344C19.68 8.33344 18.96 8.61344 18.07 8.95344L13.88 10.5634C13.8231 10.584 13.768 10.604 13.7144 10.6234C13.3258 10.7643 13.0225 10.8743 12.75 10.9534V21.3834C12.8219 21.3565 12.8999 21.3255 12.9858 21.2913C13.0909 21.2495 13.2079 21.203 13.34 21.1534ZM7.18023 13.9434L8.69024 14.6034L8.71062 14.6124C9.06082 14.768 9.33422 14.8894 9.54024 15.2034C9.74024 15.5134 9.74023 15.8234 9.74023 16.2234V17.0634C9.74023 17.9034 9.74023 18.5134 9.18023 18.8834C8.98024 19.0234 8.77023 19.0734 8.56023 19.0734C8.18023 19.0734 7.77023 18.9034 7.30023 18.6934L5.79024 18.0334L5.76986 18.0243C5.41965 17.8687 5.14626 17.7473 4.94024 17.4334C4.74024 17.1234 4.74023 16.8134 4.74023 16.4134V15.5734C4.74023 14.7334 4.74023 14.1234 5.30023 13.7534C5.87023 13.3734 6.45023 13.6234 7.18023 13.9434ZM8.25023 17.0634V16.2234V16.0434L8.25022 16.0433C8.20022 16.0233 8.15023 16.0033 8.09023 15.9734L6.59023 15.3234C6.56186 15.3105 6.53283 15.2969 6.50347 15.2832C6.419 15.2437 6.33186 15.203 6.25023 15.1734V15.5634V16.4034V16.5834L6.25025 16.5834C6.30025 16.6034 6.35024 16.6234 6.41023 16.6534L7.91023 17.3034C7.93861 17.3163 7.96764 17.3298 7.997 17.3435C8.08147 17.383 8.16861 17.4237 8.25023 17.4534V17.0634Z" fill="currentColor" fill-rule="evenodd"></path></svg>