<svg xmlns="http://www.w3.org/2000/svg" width="24" height="24" viewBox="0 0 24 24" fill="none" stroke-width="1.5" stroke-linecap="round" stroke-linejoin="round" color="currentColor"><path d="M21 1.56836C20.59 1.56836 20.25 1.90836 20.25 2.31836V2.56836H7.75V2.31836C7.75 1.90836 7.41 1.56836 7 1.56836C6.59 1.56836 6.25 1.90836 6.25 2.31836V4.31836C6.25 4.72836 6.59 5.06836 7 5.06836C7.41 5.06836 7.75 4.72836 7.75 4.31836V4.06836H20.25V4.31836C20.25 4.72836 20.59 5.06836 21 5.06836C21.41 5.06836 21.75 4.72836 21.75 4.31836V2.31836C21.75 1.90836 21.41 1.56836 21 1.56836ZM5 8.06836C5.41 8.06836 5.75 7.72836 5.75 7.31836C5.75 6.90836 5.41 6.56836 5 6.56836H3C2.59 6.56836 2.25 6.90836 2.25 7.31836C2.25 7.72836 2.59 8.06836 3 8.06836H3.25V20.5684H3C2.59 20.5684 2.25 20.9084 2.25 21.3184C2.25 21.7284 2.59 22.0684 3 22.0684H5C5.41 22.0684 5.75 21.7284 5.75 21.3184C5.75 20.9084 5.41 20.5684 5 20.5684H4.75V8.06836H5ZM19.7167 7.67835L19.7207 7.66832H19.6968L19.7007 7.65832L15.0307 5.83832C14.1707 5.50832 13.7807 5.50832 12.9207 5.83832L8.2507 7.65832C6.9907 8.14832 6.2207 8.44832 6.2207 9.30832V19.3083C6.2207 20.1683 6.9807 20.4683 8.2507 20.9583L12.9207 22.7783C13.3507 22.9483 13.6307 23.0583 13.9707 23.0583C14.3107 23.0583 14.6007 22.9483 15.0207 22.7783L19.6907 20.9583C20.9507 20.4683 21.7207 20.1683 21.7207 19.3083V9.31832C21.7207 8.4642 20.9711 8.16245 19.7167 7.67835ZM19.6961 7.67038C19.6943 7.6697 19.6925 7.66901 19.6907 7.66832H19.6968L19.6961 7.67038ZM19.6961 7.67038C19.7029 7.67304 19.7098 7.6757 19.7167 7.67835L19.4407 8.36832L19.1707 9.06832C19.2952 9.11926 19.4198 9.167 19.5407 9.21335C19.6334 9.24889 19.7239 9.2836 19.8107 9.31832C19.6207 9.39832 19.3907 9.48832 19.1707 9.56832L14.5007 11.3883C14.2707 11.4783 14.0507 11.5583 13.9907 11.5583C13.9307 11.5583 13.7107 11.4783 13.4807 11.3883L12.2107 10.8883L17.7607 8.50832L19.1607 9.05832L19.4307 8.35832L19.6961 7.67038ZM13.4907 7.24832L8.8207 9.06832L8.8307 9.07832C8.6107 9.15832 8.3807 9.24832 8.1907 9.32832C8.2775 9.36304 8.36806 9.39776 8.46075 9.43329C8.58165 9.47964 8.70618 9.52738 8.8307 9.57832L10.2307 10.1283L15.7807 7.74832L14.5107 7.24832C14.2807 7.15832 14.0607 7.07832 14.0007 7.07832C13.9407 7.07832 13.7207 7.15832 13.4907 7.24832ZM8.8207 19.5683L13.2507 21.2983V21.2883V12.8883C13.2057 12.8683 13.1607 12.8533 13.112 12.8371C13.0632 12.8208 13.0107 12.8033 12.9507 12.7783L11.2507 12.1183V13.3083C11.2507 13.7183 10.9107 14.0583 10.5007 14.0583C10.0907 14.0583 9.7507 13.7183 9.7507 13.3083V11.5383L8.2807 10.9683C8.09072 10.8983 7.92073 10.8283 7.75075 10.7583L7.7507 10.7583V19.1183C7.9607 19.2283 8.3907 19.3983 8.8207 19.5683ZM19.1807 19.5683C19.6007 19.4083 20.0407 19.2383 20.2507 19.1183V10.7583C20.0807 10.8283 19.9107 10.8983 19.7207 10.9683L15.0507 12.7883C14.9865 12.8175 14.9291 12.8365 14.8726 12.8551C14.8323 12.8685 14.7924 12.8817 14.7507 12.8983V21.2983L19.1807 19.5683Z" fill="currentColor" fill-rule="evenodd"></path></svg>