<svg xmlns="http://www.w3.org/2000/svg" width="24" height="24" viewBox="0 0 24 24" fill="none" stroke-width="1.5" stroke-linecap="round" stroke-linejoin="round" color="currentColor"><path d="M21.4961 2.0625C21.0861 2.0625 20.7461 2.4025 20.7461 2.8125V3.0625H8.24609V2.8125C8.24609 2.4025 7.90609 2.0625 7.49609 2.0625C7.08609 2.0625 6.74609 2.4025 6.74609 2.8125V4.8125C6.74609 5.2225 7.08609 5.5625 7.49609 5.5625C7.90609 5.5625 8.24609 5.2225 8.24609 4.8125V4.5625H20.7461V4.8125C20.7461 5.2225 21.0861 5.5625 21.4961 5.5625C21.9061 5.5625 22.2461 5.2225 22.2461 4.8125V2.8125C22.2461 2.4025 21.9061 2.0625 21.4961 2.0625ZM13.0059 7.0625H16.0059C18.6159 7.0725 20.1259 7.1325 21.1559 8.1625C22.2559 9.2625 22.2559 10.8725 22.2559 13.8125V15.8125C22.2559 18.7425 22.2559 20.3625 21.1559 21.4625C20.0559 22.5625 18.4459 22.5625 15.5059 22.5625H13.5059C10.5759 22.5625 8.95586 22.5625 7.85586 21.4625C6.75586 20.3625 6.75586 18.7525 6.75586 15.8125V13.8125C6.75586 10.8825 6.75586 9.2625 7.85586 8.1625C8.89586 7.1325 10.3959 7.0625 13.0059 7.0625ZM15.2459 8.5625H13.7459V10.8125V11.0625H13.9959H14.9959H15.2459V10.8125V8.5625ZM20.0859 20.4025C20.7459 19.7425 20.7459 18.4325 20.7459 15.8125V13.8125C20.7459 11.1925 20.7459 9.8825 20.0859 9.2225C19.5459 8.6825 18.5459 8.5925 16.7459 8.5725V10.8225C16.7459 11.3925 16.7459 11.8325 16.3759 12.2025C16.0159 12.5725 15.5659 12.5725 14.9959 12.5725H13.9959C13.4259 12.5725 12.9859 12.5725 12.6159 12.2125C12.2459 11.8425 12.2459 11.3925 12.2459 10.8225V8.5725C10.4459 8.5825 9.44586 8.6825 8.90586 9.2225C8.24586 9.8825 8.24586 11.1925 8.24586 13.8125V15.8125C8.24586 18.4325 8.24586 19.7425 8.90586 20.4025C9.56586 21.0625 10.8759 21.0625 13.4959 21.0625H15.4959C18.1159 21.0625 19.4259 21.0625 20.0859 20.4025ZM10.4961 18.0625H13.4961C13.9061 18.0625 14.2461 18.4025 14.2461 18.8125C14.2461 19.2225 13.9061 19.5625 13.4961 19.5625H10.4961C10.0861 19.5625 9.74609 19.2225 9.74609 18.8125C9.74609 18.4025 10.0861 18.0625 10.4961 18.0625ZM5.24609 7.8125C5.24609 8.2225 4.90609 8.5625 4.49609 8.5625H4.24609V21.0625H4.49609C4.90609 21.0625 5.24609 21.4025 5.24609 21.8125C5.24609 22.2225 4.90609 22.5625 4.49609 22.5625H2.49609C2.08609 22.5625 1.74609 22.2225 1.74609 21.8125C1.74609 21.4025 2.08609 21.0625 2.49609 21.0625H2.74609V8.5625H2.49609C2.08609 8.5625 1.74609 8.2225 1.74609 7.8125C1.74609 7.4025 2.08609 7.0625 2.49609 7.0625H4.49609C4.90609 7.0625 5.24609 7.4025 5.24609 7.8125Z" fill="currentColor" fill-rule="evenodd"></path></svg>