<svg xmlns="http://www.w3.org/2000/svg" width="24" height="24" viewBox="0 0 24 24" fill="none" stroke-width="1.5" stroke-linecap="round" stroke-linejoin="round" color="currentColor"><path d="M2.61 7.76922C2.65003 7.80925 2.69292 7.84359 2.73789 7.87241C2.11075 9.19803 1.75977 10.6786 1.75977 12.2393C1.75977 17.8893 6.35977 22.4893 12.0098 22.4893C13.5695 22.4893 15.0493 22.1387 16.3743 21.5122C16.4015 21.5537 16.4332 21.5929 16.4695 21.6292L17.0395 22.1992C17.5483 22.708 18.2164 22.9879 18.9345 22.9892C18.9328 22.9892 18.9311 22.9892 18.9295 22.9892H18.9395C18.9378 22.9892 18.9361 22.9892 18.9345 22.9892C19.6526 22.9879 20.3206 22.708 20.8295 22.1992L21.9595 21.0692C22.4695 20.5592 22.7495 19.8892 22.7495 19.1692C22.7495 18.4492 22.4695 17.7792 21.9595 17.2692L21.3895 16.6992C21.3554 16.6652 21.3188 16.6352 21.2802 16.6091C21.9082 15.2827 22.2598 13.8011 22.2598 12.2393C22.2598 6.58926 17.6598 1.98926 12.0098 1.98926C10.4459 1.98926 8.96249 2.34167 7.6348 2.97123C7.60556 2.92419 7.57062 2.87984 7.53 2.83922L6.96 2.26922C5.95 1.25922 4.18 1.25922 3.17 2.26922L2.04 3.39922C1.53 3.90922 1.25 4.57922 1.25 5.29922C1.25 6.01922 1.53 6.68922 2.04 7.19922L2.61 7.76922ZM20.5181 17.9479L20.8995 18.3292C21.1295 18.5592 21.2495 18.8492 21.2495 19.1692C21.2495 19.4892 21.1195 19.7892 20.8995 20.0092L19.7695 21.1392C19.3295 21.5892 18.5495 21.5892 18.0995 21.1392L17.7121 20.7518C18.8188 20.0079 19.7734 19.054 20.5181 17.9479ZM5.9 3.32922L6.30146 3.73068C5.19529 4.47541 4.2414 5.42991 3.49739 6.53661L3.1 6.13922C2.87 5.90922 2.75 5.61922 2.75 5.29922C2.75 4.97922 2.88 4.67922 3.1 4.45922L4.23 3.32922C4.67 2.87922 5.45 2.87922 5.9 3.32922ZM12.0098 3.48926C16.8298 3.48926 20.7598 7.41926 20.7598 12.2393C20.7598 17.0593 16.8298 20.9893 12.0098 20.9893C7.18977 20.9893 3.25977 17.0593 3.25977 12.2393C3.25977 7.41926 7.18977 3.48926 12.0098 3.48926ZM11.0109 15.4893C10.6609 15.4893 10.3509 15.2393 10.2809 14.8893C10.2009 14.4793 10.4609 14.0893 10.8709 14.0093C11.5009 13.8793 12.0509 13.7293 12.5209 13.5393C12.7309 13.1993 12.7709 12.9693 12.7209 12.8693C12.6509 12.7093 12.3209 12.5493 11.9709 12.4993C9.60086 12.4793 8.56086 11.2293 8.31086 10.4893L8.13086 9.95927L8.58086 9.63927C8.64086 9.58927 10.1909 8.50927 12.0009 8.49927H12.0209C14.3309 8.49927 15.7609 9.74927 15.7609 11.7493C15.7609 12.6693 15.3409 13.9493 13.3209 14.8293C13.3209 14.8293 13.3009 14.8293 13.3009 14.8393C12.7009 15.0993 11.9709 15.3193 11.1609 15.4793C11.1109 15.4893 11.0609 15.4893 11.0109 15.4893ZM13.1009 11.2793C13.4909 11.4693 13.8709 11.7693 14.0909 12.2493C14.0959 12.2593 14.1009 12.2718 14.1059 12.2843C14.1109 12.2968 14.1159 12.3093 14.1209 12.3193C14.2109 12.1293 14.2609 11.9393 14.2609 11.7293C14.2609 10.9193 13.9009 10.3893 13.1709 10.1393C13.2309 10.5593 13.1909 10.9393 13.1009 11.2693V11.2793ZM10.1209 10.4693C10.4209 10.6893 10.9009 10.9093 11.6309 10.9693C11.7109 10.7693 11.7709 10.4393 11.5909 10.0093C11.0309 10.0793 10.5109 10.2793 10.1209 10.4593V10.4693ZM13.2598 6.24927C13.2598 6.65927 13.5998 6.99927 14.0098 6.99927V7.00927C14.4198 7.00927 14.7598 6.66927 14.7598 6.24927C14.7598 5.82927 14.4198 5.49927 14.0098 5.49927C13.5998 5.49927 13.2598 5.83927 13.2598 6.24927ZM18.0098 14.4893C17.5998 14.4893 17.2598 14.1493 17.2598 13.7393C17.2598 13.3293 17.5998 12.9893 18.0098 12.9893C18.4198 12.9893 18.7598 13.3193 18.7598 13.7393C18.7598 14.1593 18.4198 14.4993 18.0098 14.4993V14.4893ZM15.7598 16.7393C15.7598 17.1493 16.0998 17.4893 16.5098 17.4893V17.4993C16.9198 17.4993 17.2598 17.1593 17.2598 16.7393C17.2598 16.3193 16.9198 15.9893 16.5098 15.9893C16.0998 15.9893 15.7598 16.3293 15.7598 16.7393ZM8.00977 17.9993C7.59977 17.9993 7.25977 17.6593 7.25977 17.2493C7.25977 16.8393 7.59977 16.4993 8.00977 16.4993C8.41977 16.4993 8.75977 16.8293 8.75977 17.2493C8.75977 17.6693 8.41977 18.0093 8.00977 18.0093V17.9993ZM5.25977 9.24927C5.25977 9.65927 5.59977 9.99927 6.00977 9.99927V10.0093C6.41977 10.0093 6.75977 9.66927 6.75977 9.24927C6.75977 8.82927 6.41977 8.49927 6.00977 8.49927C5.59977 8.49927 5.25977 8.83927 5.25977 9.24927ZM12.39 19.6193C11.5038 19.6193 10.7366 19.193 10.6412 19.14L10.64 19.1393C10.28 18.9293 10.16 18.4693 10.36 18.1193C10.56 17.7693 11.03 17.6393 11.38 17.8393C11.54 17.9293 12.05 18.1593 12.48 18.1193C12.91 18.0793 13.38 17.7793 13.52 17.6593C13.84 17.3993 14.31 17.4493 14.57 17.7693C14.83 18.0893 14.78 18.5593 14.47 18.8193L14.4633 18.8245C14.3459 18.9163 13.5592 19.531 12.6 19.6093H12.38L12.39 19.6193ZM8.02955 8.25933C8.12955 8.30933 8.23955 8.32933 8.34955 8.32933H8.35955C8.63955 8.32933 8.90956 8.17933 9.03956 7.90933C9.11955 7.73933 9.40956 7.26933 9.78955 7.04933C10.1596 6.82933 10.7196 6.81933 10.8996 6.82933C11.3096 6.84933 11.6796 6.54933 11.7096 6.13933C11.7396 5.72933 11.4296 5.35933 11.0196 5.32933C10.8995 5.31933 9.87955 5.25933 9.02955 5.74933C8.19176 6.23229 7.74256 7.133 7.68195 7.25452L7.67955 7.25933C7.49955 7.63933 7.65955 8.07933 8.02955 8.25933ZM18.5098 11.4892C18.1298 11.4892 17.8098 11.2092 17.7698 10.8292C17.7498 10.6492 17.6198 10.1092 17.3398 9.77925C17.0498 9.44925 16.5298 9.25925 16.3498 9.21925C15.9498 9.11925 15.7098 8.70925 15.8098 8.30925C15.9098 7.90925 16.3198 7.66925 16.7198 7.76925L16.7255 7.77079C16.8601 7.80733 17.8297 8.07059 18.4698 8.79925C19.1198 9.53925 19.2598 10.5492 19.2698 10.6592C19.3198 11.0692 19.0198 11.4392 18.6098 11.4892H18.5198H18.5098ZM8.44912 15.4291L8.45913 15.4391C8.79913 15.4391 9.10913 15.1991 9.18913 14.8591C9.28913 14.4591 9.03913 14.0591 8.63913 13.9591C8.45913 13.9191 7.92913 13.7291 7.63913 13.4091C7.34913 13.0891 7.20913 12.5491 7.18913 12.3691C7.13913 11.9491 6.75913 11.6691 6.34913 11.7191C5.92913 11.7691 5.64913 12.1491 5.69913 12.5591C5.70913 12.6691 5.85913 13.6791 6.51913 14.4091C7.15387 15.1112 8.09384 15.3601 8.2627 15.4048L8.27913 15.4091C8.33912 15.4291 8.38912 15.4291 8.44912 15.4291Z" fill="currentColor"></path></svg>