<svg xmlns="http://www.w3.org/2000/svg" width="24" height="24" viewBox="0 0 24 24" fill="none"><path d="M3 12C3 7.75736 3 5.63604 4.31802 4.31802C5.63604 3 7.75736 3 12 3C16.2426 3 18.364 3 19.682 4.31802C21 5.63604 21 7.75736 21 12C21 16.2426 21 18.364 19.682 19.682C18.364 21 16.2426 21 12 21C7.75736 21 5.63604 21 4.31802 19.682C3 18.364 3 16.2426 3 12Z" stroke="currentColor" stroke-linecap="round" stroke-linejoin="round" stroke-width="1.5" /><path d="M3.5 16H20.5" stroke="currentColor" stroke-linecap="round" stroke-linejoin="round" stroke-width="1.5" /><path d="M9 8.5C9 8.5 11.2095 11.5 12 11.5C12.7906 11.5 15 8.49998 15 8.49998" stroke="currentColor" stroke-linecap="round" stroke-linejoin="round" stroke-width="1.5" /></svg>