<svg xmlns="http://www.w3.org/2000/svg" width="24" height="24" viewBox="0 0 24 24" fill="none" stroke-width="1.5" stroke-linecap="round" stroke-linejoin="round" color="currentColor"><path d="M13.8089 1.61082C14.1689 1.39082 14.6289 1.51082 14.8389 1.86082C15.4189 2.83082 15.6988 4.98079 13.4788 6.83079C13.1588 7.09079 12.6889 7.05069 12.4188 6.73069C12.1588 6.41069 12.1989 5.94063 12.5189 5.67063C14.1389 4.32063 13.7689 3.00085 13.5489 2.64085C13.3389 2.28085 13.4589 1.82082 13.8089 1.61082ZM19.5289 5.78074C19.8189 5.49074 19.8189 5.01068 19.5289 4.72068C19.2389 4.43068 18.7588 4.43068 18.4688 4.72068L15.4688 7.72068C15.1788 8.01068 15.1788 8.49074 15.4688 8.78074C15.7588 9.07074 16.2389 9.07074 16.5289 8.78074L19.5289 5.78074ZM12.8989 9.42063L14.8289 11.3508C15.7589 12.2908 16.5289 13.0507 17.0189 13.7107C17.5289 14.4007 17.8689 15.1307 17.7089 15.9707C17.5589 16.8107 16.9789 17.3708 16.2589 17.8308C15.5489 18.2808 14.5689 18.7207 13.3589 19.2507L9.92886 20.7807C7.89886 21.6807 6.28887 22.3907 5.06887 22.7407C3.87887 23.0907 2.70888 23.1908 1.88888 22.3608C1.05888 21.5408 1.15888 20.3706 1.50888 19.1806C1.85888 17.9606 2.56884 16.3508 3.46884 14.3208L4.96884 10.9507L4.99887 10.8908C5.52887 9.68085 5.96885 8.7007 6.41885 7.9907C6.87885 7.2707 7.4389 6.69075 8.2789 6.54075C9.1189 6.38075 9.84885 6.72069 10.5388 7.23069C11.1988 7.72069 11.9589 8.49063 12.8989 9.42063ZM9.63888 8.43064C9.08888 8.02064 8.78885 7.97072 8.54885 8.01072C8.30886 8.06072 8.04886 8.21076 7.67886 8.80076C7.45886 9.15076 7.22884 9.60063 6.96884 10.1706C6.98884 10.1806 7.0089 10.2007 7.0289 10.2207L14.0289 17.2207C14.0289 17.2207 14.0689 17.2607 14.0789 17.2807C14.6489 17.0207 15.0989 16.7908 15.4489 16.5708C16.0389 16.2008 16.1889 15.9407 16.2389 15.7007C16.2789 15.4607 16.2289 15.1608 15.8189 14.6108C15.3989 14.0408 14.7088 13.3608 13.7188 12.3708L11.8789 10.5307C10.8889 9.54074 10.2089 8.85064 9.63888 8.43064ZM4.86886 14.8708L6.30886 11.6208L12.6289 17.9407L9.37887 19.3808L9.18887 19.4607C9.15887 19.3707 9.0989 19.2907 9.0289 19.2207L5.0289 15.2207C4.9589 15.1507 4.87884 15.0908 4.78884 15.0608L4.86886 14.8708ZM4.15884 16.4707L7.7789 20.0908C6.4789 20.6608 5.45884 21.0708 4.65884 21.3008C3.50884 21.6308 3.12888 21.4908 2.94888 21.3008C2.75888 21.1208 2.61888 20.7408 2.94888 19.5908C3.17888 18.7908 3.58884 17.7707 4.15884 16.4707ZM22.3889 9.41062C21.4189 8.83062 19.2689 8.55073 17.4188 10.7707C17.1588 11.0907 17.1989 11.5608 17.5189 11.8308C17.8389 12.0908 18.3089 12.0507 18.5789 11.7307C19.9289 10.1107 21.2489 10.4807 21.6089 10.7007C21.9689 10.9107 22.4289 10.7907 22.6389 10.4407C22.8589 10.0807 22.7389 9.62062 22.3889 9.41062ZM17.9989 1.50071C18.4089 1.50071 18.7489 1.84071 18.7489 2.25071V2.27073C18.7489 2.68073 18.4089 3.02073 17.9989 3.02073C17.5889 3.02073 17.2489 2.68073 17.2489 2.27073V2.25071C17.2489 1.84071 17.5889 1.50071 17.9989 1.50071ZM22.7489 6.25071C22.7489 5.84071 22.4089 5.50071 21.9989 5.50071C21.5889 5.50071 21.2489 5.84071 21.2489 6.25071V6.27073C21.2489 6.68073 21.5889 7.02073 21.9989 7.02073C22.4089 7.02073 22.7489 6.68073 22.7489 6.27073V6.25071ZM20.9989 12.5007C21.4089 12.5007 21.7489 12.8407 21.7489 13.2507V13.2707C21.7489 13.6807 21.4089 14.0207 20.9989 14.0207C20.5889 14.0207 20.2489 13.6807 20.2489 13.2707V13.2507C20.2489 12.8407 20.5889 12.5007 20.9989 12.5007ZM11.7489 3.25071C11.7489 2.84071 11.4089 2.50071 10.9989 2.50071C10.5889 2.50071 10.2489 2.84071 10.2489 3.25071V3.27073C10.2489 3.68073 10.5889 4.02073 10.9989 4.02073C11.4089 4.02073 11.7489 3.68073 11.7489 3.27073V3.25071Z" fill="currentColor" fill-rule="evenodd"></path></svg>