<svg xmlns="http://www.w3.org/2000/svg" width="24" height="24" viewBox="0 0 24 24" fill="none" stroke-width="1.5" stroke-linecap="round" stroke-linejoin="round" color="currentColor"><path d="M22 16C21.6936 15.3871 21.0672 15 20.382 15H3.61803C2.93283 15 2.30643 15.3871 2 16" stroke="currentColor"></path><path d="M3 22H21" stroke="currentColor"></path><path d="M5 15V22M9.5 15V22M14.5 15V22M19 15V22" stroke="currentColor"></path><path d="M12 7L15 3M12 7H6.5M12 7H17.5M12 7L9 3" stroke="currentColor"></path><path d="M6 8C6 4.68629 8.68629 2 12 2C15.3137 2 18 4.68629 18 8V15H6V8Z" stroke="currentColor"></path></svg>