<svg xmlns="http://www.w3.org/2000/svg" width="24" height="24" viewBox="0 0 24 24" fill="none" stroke-width="1.5" stroke-linecap="round" stroke-linejoin="round" color="currentColor"><path d="M2.75 12.3223C2.75 7.21227 6.89 3.07227 12 3.07227C17.11 3.07227 21.25 7.21227 21.25 12.3223C21.25 17.4323 17.11 21.5723 12 21.5723C6.89 21.5723 2.75 17.4323 2.75 12.3223ZM12 1.57227C6.06 1.57227 1.25 6.38227 1.25 12.3223C1.25 18.2623 6.06 23.0723 12 23.0723C17.94 23.0723 22.75 18.2623 22.75 12.3223C22.75 6.38227 17.94 1.57227 12 1.57227ZM10.25 9.32227C10.25 8.91227 9.91 8.57227 9.5 8.57227C9.09 8.57227 8.75 8.91227 8.75 9.32227V15.3223C8.75 15.7323 9.09 16.0723 9.5 16.0723C9.91 16.0723 10.25 15.7323 10.25 15.3223V9.32227ZM15.25 9.32227C15.25 8.91227 14.91 8.57227 14.5 8.57227C14.09 8.57227 13.75 8.91227 13.75 9.32227V15.3223C13.75 15.7323 14.09 16.0723 14.5 16.0723C14.91 16.0723 15.25 15.7323 15.25 15.3223V9.32227Z" fill="currentColor" fill-rule="evenodd"></path></svg>