<svg xmlns="http://www.w3.org/2000/svg" width="24" height="24" viewBox="0 0 24 24" fill="none" stroke-width="1.5" stroke-linecap="round" stroke-linejoin="round" color="currentColor"><path d="M2.01733 14C4.2169 14 6.00001 15.7831 6.00001 17.9827" fill="none"></path><path d="M6.00001 4.01733C6.00001 6.2169 4.2169 8.00001 2.01733 8.00001" fill="none"></path><path d="M18 4.01733C18 6.19765 19.769 7.96876 21.9423 7.9996" fill="none"></path><path d="M22 11V10C22 7.17157 22 5.75736 21.1213 4.87868C20.2426 4 18.8284 4 16 4H8C5.17157 4 3.75736 4 2.87868 4.87868C2 5.75736 2 7.17157 2 10V12C2 14.8284 2 16.2426 2.87868 17.1213C3.75736 18 5.17157 18 8 18H11" fill="none"></path><path d="M15 11C15 12.6569 13.6569 14 12 14C10.3431 14 9 12.6569 9 11C9 9.34315 10.3431 8 12 8C13.6569 8 15 9.34315 15 11Z" fill="none"></path><path d="M14 18C14 18 15 18 16 20C16 20 19.1765 15 22 14" fill="none"></path></svg>