<svg xmlns="http://www.w3.org/2000/svg" width="24" height="24" viewBox="0 0 24 24" fill="none" stroke-width="1.5" stroke-linecap="round" stroke-linejoin="round" color="currentColor"><path d="M3.5 21.2494H5.01001H5.02002H5.02032C6.30013 21.2494 7.01008 21.2494 7.71002 20.9595C8.36518 20.6897 8.83465 20.225 9.69984 19.3686C9.73264 19.3361 9.76601 19.3031 9.79999 19.2695L19.66 9.39947L19.6601 9.39938C20.63 8.42944 21.17 7.88945 21.24 7.08947C21.25 6.94947 21.25 6.79949 21.24 6.66949C21.1616 5.87618 20.6421 5.35145 19.7095 4.40951C19.6898 4.38969 19.67 4.36968 19.65 4.34948L19.65 4.34944C18.67 3.36947 18.13 2.82945 17.32 2.75945C17.19 2.74945 17.05 2.74945 16.92 2.75945C16.1 2.82945 15.56 3.36948 14.59 4.34948L12.9869 5.95262C12.981 5.95813 12.9752 5.96375 12.9695 5.96948C12.9637 5.97522 12.9581 5.98103 12.9526 5.98691L4.72998 14.2095C4.70888 14.2306 4.68801 14.2514 4.66735 14.2721C3.80665 15.1326 3.32318 15.6159 3.03998 16.2995C2.75 16.9894 2.75 17.6994 2.75 18.9792V18.9795V20.4994C2.75 20.9094 3.09 21.2494 3.5 21.2494ZM13.4908 7.55085L5.78003 15.2695C4.95003 16.0895 4.57997 16.4694 4.40997 16.8794C4.23999 17.2894 4.23999 17.8594 4.23999 18.9791V18.9795V19.7494H4.25H5.01001H5.01035C6.14012 19.7494 6.70005 19.7494 7.13 19.5795C7.53 19.4095 7.92 19.0294 8.69 18.2494L16.4397 10.4998L13.4908 7.55085ZM14.5503 6.49028L17.4998 9.43974L18.59 8.34948C19.27 7.66948 19.72 7.21945 19.74 6.93945V6.81945C19.71 6.52945 19.26 6.07947 18.58 5.39947C17.9 4.71947 17.45 4.26949 17.18 4.23949H17.04C16.7641 4.2592 16.3524 4.67681 15.671 5.36807L15.64 5.39947L14.5503 6.49028Z" fill="currentColor" fill-rule="evenodd"></path></svg>