<svg xmlns="http://www.w3.org/2000/svg" width="24" height="24" viewBox="0 0 24 24" fill="none" stroke-width="1.5" stroke-linecap="round" stroke-linejoin="round" color="currentColor"><path d="M3.00081 21.7428C2.80081 21.7428 2.61078 21.6628 2.47078 21.5228C2.28078 21.3328 2.20084 21.0428 2.28084 20.7828L3.14083 17.7828C3.26083 17.3428 3.50084 16.9228 3.84084 16.5928L17.6808 2.75281C18.3408 2.09281 19.4908 2.09281 20.1508 2.75281L21.2408 3.84278C21.9208 4.52278 21.9208 5.63287 21.2408 6.31287L19.5563 7.99733C20.2552 8.72993 20.6313 9.26288 20.6313 9.9931C20.6313 10.9231 20.0213 11.5331 18.9114 12.6431L18.9113 12.6431L18.9113 12.6431L18.0314 13.5231C17.8814 13.6731 17.6913 13.7431 17.5013 13.7431C17.3113 13.7431 17.1213 13.6731 16.9713 13.5231C16.6813 13.2331 16.6813 12.7531 16.9713 12.4631L17.8513 11.5832C18.6213 10.8132 19.1313 10.3031 19.1313 9.9931C19.1313 9.78116 18.8929 9.47574 18.496 9.05765L11.5517 16.002C11.5451 16.0091 11.5383 16.0162 11.5314 16.0231C11.5242 16.0303 11.5169 16.0373 11.5095 16.0441L7.40084 20.1528C7.06084 20.4928 6.65082 20.7328 6.20082 20.8528L3.21083 21.7128C3.14083 21.7328 3.07081 21.7428 3.00081 21.7428ZM11.0059 14.4376L17.4459 7.99772L16.0059 6.55775L9.56596 12.9977L11.0059 14.4376ZM8.5059 14.0577L9.94588 15.4977L6.35079 19.0928C6.19079 19.2428 6.0108 19.3528 5.8008 19.4128L4.10079 19.9028L4.59084 18.1929C4.65084 17.9929 4.76078 17.8028 4.91078 17.6528L8.5059 14.0577ZM20.1908 5.25281L18.5059 6.93769L17.066 5.4977L18.7508 3.81287C18.8108 3.75287 18.9208 3.7428 18.9208 3.7428H18.9308C18.9708 3.7428 19.0408 3.75287 19.1008 3.81287L20.1908 4.90284C20.2908 5.00284 20.2908 5.15281 20.1908 5.25281Z" fill="currentColor" fill-rule="evenodd"></path></svg>