<svg xmlns="http://www.w3.org/2000/svg" width="24" height="24" viewBox="0 0 24 24" fill="none" stroke-width="1.5" stroke-linecap="round" stroke-linejoin="round" color="currentColor"><path d="M8 16L16 8M10 9C10 9.55228 9.55228 10 9 10C8.44772 10 8 9.55228 8 9C8 8.44772 8.44772 8 9 8C9.55228 8 10 8.44772 10 9ZM16 14.8284C16 15.3807 15.5523 15.8284 15 15.8284C14.4477 15.8284 14 15.3807 14 14.8284C14 14.2761 14.4477 13.8284 15 13.8284C15.5523 13.8284 16 14.2761 16 14.8284Z" stroke="currentColor"></path><circle cx="12" cy="12" r="10" stroke="currentColor"></circle></svg>