<svg xmlns="http://www.w3.org/2000/svg" width="24" height="24" viewBox="0 0 24 24" fill="none" stroke-width="1.5" stroke-linecap="round" stroke-linejoin="round" color="currentColor"><path d="M12.7969 23.0723C12.3869 23.0723 12.0469 22.7323 12.0469 22.3223V17.7572L8.55713 21.5926C8.25713 21.9026 7.88717 22.0626 7.47717 22.0626C6.68717 22.0626 6.03711 21.4126 6.03711 20.6226V17.0688C4.93283 17.0522 4.25174 16.9571 3.70691 16.4123C3.04691 15.7523 3.04688 14.8923 3.04688 13.3223V11.3223C3.04688 9.75227 3.04691 8.8923 3.70691 8.2323C4.06663 7.87258 4.48576 7.7089 5.04688 7.63444V3.03229C5.04688 2.23229 5.70684 1.57227 6.50684 1.57227C6.88684 1.57227 7.24686 1.7223 7.52686 1.9823L12.0469 6.51007V2.32227C12.0469 1.91227 12.3869 1.57227 12.7969 1.57227C13.2069 1.57227 13.5469 1.91227 13.5469 2.32227V6.51176L18.0564 2.00232C18.3464 1.72232 18.7164 1.57227 19.0864 1.57227C19.8864 1.57227 20.5464 2.22229 20.5464 3.03229V7.63437C21.1077 7.7088 21.527 7.87247 21.8868 8.2323C22.5468 8.8923 22.5469 9.75227 22.5469 11.3223V13.3223C22.5469 14.8923 22.5468 15.7523 21.8868 16.4123C21.3372 16.962 20.6488 17.0538 19.5271 17.0692V20.6226C19.5271 21.4226 18.8772 22.0626 18.0872 22.0626L18.1072 22.0726C17.7072 22.0726 17.3271 21.9126 17.0471 21.6126L13.5469 17.7582V22.3223C13.5469 22.7323 13.2069 23.0723 12.7969 23.0723ZM12.0469 15.5428V10.0408L7.95715 13.7926C7.69715 14.0326 7.54712 14.3726 7.54712 14.7126V20.4926L12.0469 15.5428ZM13.5469 10.0404V15.5422L18.0471 20.4926V16.3413C18.047 16.335 18.0469 16.3286 18.0469 16.3223C18.0469 16.3159 18.047 16.3096 18.0471 16.3032V14.7126C18.0471 14.3626 17.8971 14.0326 17.6371 13.7926L13.5469 10.0404ZM19.5271 15.5691V14.6926C19.5271 13.9226 19.2071 13.1926 18.6371 12.6626L14.725 9.07227H18.7969C19.8869 9.07227 20.6069 9.0723 20.8269 9.2923C21.0469 9.51227 21.0469 10.2321 21.0469 11.3218V11.3223V13.3223V13.3227C21.0469 14.4125 21.0469 15.1323 20.8269 15.3523C20.6606 15.5186 20.2086 15.5592 19.5271 15.5691ZM10.8392 9.07227H6.79688C5.70687 9.07227 4.98685 9.0723 4.76685 9.2923C4.54688 9.51227 4.54688 10.2321 4.54688 11.3218V11.3223V13.3223V13.3227C4.54688 14.4125 4.54688 15.1323 4.76685 15.3523C4.93073 15.5162 5.37207 15.558 6.03711 15.5686V14.6926C6.03711 13.9326 6.36712 13.1926 6.92712 12.6626L10.8392 9.07227ZM18.7969 7.57227H14.5844L19.0464 3.03229V7.57237L18.7969 7.57227ZM10.9868 7.57227L6.47693 3.06232L6.5369 7.57239L6.79688 7.57227H10.9868Z" fill="currentColor" fill-rule="evenodd"></path></svg>