<svg xmlns="http://www.w3.org/2000/svg" width="24" height="24" viewBox="0 0 24 24" fill="none" stroke-width="1.5" stroke-linecap="round" stroke-linejoin="round" color="currentColor"><path d="M16.25 15.5724V21.0725H16.5C16.91 21.0725 17.25 21.4125 17.25 21.8225C17.25 22.2325 16.91 22.5725 16.5 22.5725H2.5C2.09 22.5725 1.75 22.2325 1.75 21.8225C1.75 21.4125 2.09 21.0725 2.5 21.0725H2.75V10.8225V8.82227V8.82207C2.75 5.88219 2.75 4.27228 3.84998 3.1723C4.94998 2.0723 6.47 2.07227 9.5 2.07227C12.53 2.07227 14.05 2.0723 15.15 3.1723C16.25 4.27228 16.25 5.89219 16.25 8.82207V8.82227V10.8225V14.0724H16.5C18.02 14.0724 19.25 15.3024 19.25 16.8224V17.3224C19.25 17.7324 19.59 18.0724 20 18.0724C20.41 18.0724 20.75 17.7324 20.75 17.3224V12.1325L20.5601 11.9425C20.0401 11.4325 19.75 10.7425 19.75 10.0025V8.14243L17.97 6.36246C17.68 6.07246 17.68 5.59246 17.97 5.30246C18.26 5.01246 18.74 5.01246 19.03 5.30246L21.03 7.30246L21.4399 7.71243C21.9599 8.22243 22.25 8.91244 22.25 9.65244V11.8224V17.3224C22.25 18.5624 21.24 19.5724 20 19.5724C18.76 19.5724 17.75 18.5624 17.75 17.3224V16.8224C17.75 16.1324 17.19 15.5724 16.5 15.5724H16.25ZM14.75 14.8224V11.5725H4.25V21.0725H14.75V14.8224ZM14.75 10.0725V8.82227C14.75 6.20227 14.75 4.8923 14.09 4.2323C13.43 3.5723 12.12 3.57227 9.5 3.57227C6.88 3.57227 5.57003 3.5723 4.91003 4.2323C4.25003 4.8923 4.25 6.20227 4.25 8.82227V10.0725H14.75Z" fill="currentColor" fill-rule="evenodd"></path></svg>