<svg xmlns="http://www.w3.org/2000/svg" width="24" height="24" viewBox="0 0 24 24" fill="none" stroke-width="1.5" stroke-linecap="round" stroke-linejoin="round" color="currentColor"><path d="M14 2H10L10.5 3H13.5L14 2Z" fill="none"></path><path d="M2 2L22 22" fill="none"></path><path d="M18.5 14.5V7C18.5 4.64298 18.5 3.46447 17.7678 2.73223C17.0355 2 15.857 2 13.5 2L10.494 2.00793C8.4102 2.00793 7.24752 2.00793 6.5 2.51392" fill="none"></path><path d="M5.5 6V17C5.5 19.357 5.5 20.5355 6.23223 21.2678C6.96447 22 8.14298 22 10.5 22H15C15.9306 22 16.396 22 16.7725 21.8776C17.5336 21.6303 18.1303 21.0336 18.3776 20.2725C18.5 19.896 18.5 19.4306 18.5 18.5" fill="none"></path></svg>