<svg xmlns="http://www.w3.org/2000/svg" width="24" height="24" viewBox="0 0 24 24" fill="none" stroke-width="1.5" stroke-linecap="round" stroke-linejoin="round" color="currentColor"><path d="M18.5 7C18.5 4.64298 18.5 3.46447 17.7678 2.73223C17.0355 2 15.857 2 13.5 2H10.5C8.14298 2 6.96447 2 6.23223 2.73223C5.5 3.46447 5.5 4.64298 5.5 7M18.5 17C18.5 19.357 18.5 20.5355 17.7678 21.2678C17.0355 22 15.857 22 13.5 22H10.5C8.14298 22 6.96447 22 6.23223 21.2678C5.5 20.5355 5.5 19.357 5.5 17" fill="none"></path><path d="M14 2H10L10.5 3H13.5L14 2Z" fill="none"></path><path d="M15.5 15.5C15.5 15.5 18.9999 12.9223 18.9999 12C18.9999 11.0777 15.4999 8.50003 15.4999 8.50003" fill="none"></path><path d="M8.50003 15.5C8.50003 15.5 5.00007 12.9223 5.00006 12C5.00005 11.0777 8.50006 8.5 8.50006 8.5" fill="none"></path></svg>