<svg xmlns="http://www.w3.org/2000/svg" width="24" height="24" viewBox="0 0 24 24" fill="none" stroke-width="1.5" stroke-linecap="round" stroke-linejoin="round" color="currentColor"><path d="M1.25 12.8223C1.25 18.7523 6.07 23.5723 12 23.5723C17.93 23.5723 22.75 18.7523 22.75 12.8223C22.75 6.89227 17.93 2.07227 12 2.07227C6.07 2.07227 1.25 6.89227 1.25 12.8223ZM11.25 22.0421C6.74672 21.679 3.14324 18.0755 2.78012 13.5723H6.29872C6.63532 16.1438 8.67844 18.1869 11.25 18.5235V22.0421ZM12.75 22.0421C17.5007 21.6591 21.25 17.6698 21.25 12.8223C21.25 7.72227 17.1 3.57227 12 3.57227C7.15246 3.57227 3.16319 7.32157 2.78012 12.0723H6.29872C6.66746 9.25518 9.08413 7.07227 12 7.07227C15.17 7.07227 17.75 9.65227 17.75 12.8223C17.75 15.7381 15.5671 18.1548 12.75 18.5235V22.0421ZM12 17.0723C14.34 17.0723 16.25 15.1623 16.25 12.8223C16.25 10.4823 14.34 8.57227 12 8.57227C9.66 8.57227 7.75 10.4823 7.75 12.8223C7.75 15.1623 9.66 17.0723 12 17.0723Z" fill="currentColor" fill-rule="evenodd"></path></svg>