<svg xmlns="http://www.w3.org/2000/svg" width="24" height="24" viewBox="0 0 24 24" fill="none" stroke-width="1.5" stroke-linecap="round" stroke-linejoin="round" color="currentColor"><path d="M17.0322 10.7443H19.0622H19.0822C20.6522 10.7443 21.7022 10.7443 22.3722 9.74433C23.0422 8.75433 22.7122 7.91433 22.2522 6.74433C21.3522 4.45433 19.5222 2.63433 17.2522 1.74433L17.2204 1.73184C16.1153 1.2976 15.2327 0.950787 14.2422 1.62434C13.2422 2.29434 13.2422 3.34439 13.2422 4.92439V6.95442C13.2422 8.54442 13.2422 9.42441 13.9022 10.0744C14.5721 10.7443 15.442 10.7443 17.0316 10.7443H17.0322ZM15.0822 2.86433C15.1922 2.78433 15.2922 2.74433 15.4322 2.74433C15.6622 2.74433 16.0022 2.86436 16.6922 3.14436C18.5922 3.88436 20.1022 5.40439 20.8522 7.30439C21.2922 8.42439 21.3322 8.60437 21.1222 8.90437C20.9122 9.21437 20.5222 9.24433 19.0622 9.24433H17.0322H17.0319C15.8821 9.24433 15.1922 9.24433 14.9622 9.01435C14.7422 8.79435 14.7422 8.06442 14.7422 6.95442V4.92439C14.7422 3.46439 14.7822 3.07433 15.0822 2.86433ZM1.24219 12.9745C1.24219 18.3645 5.62218 22.7445 11.0122 22.7445L11.0222 22.7545C15.5522 22.7545 19.5622 19.5546 20.5622 15.1346L20.5679 15.1084C20.765 14.202 20.9072 13.5482 20.3822 12.8846C19.8622 12.2346 19.1322 12.2345 18.0422 12.2345H11.7722V5.96451V5.96449C11.7722 4.8645 11.7722 4.14452 11.1122 3.60452C10.468 3.08917 9.80417 3.23197 8.88708 3.42925L8.86219 3.4346C4.37219 4.4446 1.24219 8.37452 1.24219 12.9745ZM9.38753 4.85666C9.70532 4.791 9.93021 4.74454 10.0622 4.74454C10.1122 4.74454 10.1422 4.75456 10.1622 4.76456C10.2622 4.84456 10.2622 5.3646 10.2622 5.95459V5.95462V21.2145C6.05218 20.8345 2.74219 17.2845 2.74219 12.9745C2.74219 9.13452 5.45219 5.74455 9.25219 4.88455C9.29904 4.87494 9.34415 4.86562 9.38753 4.85666ZM11.7622 21.2145V13.7345H18.0322C18.5422 13.7345 19.1322 13.7346 19.2022 13.8146C19.2722 13.9046 19.2222 14.1746 19.0822 14.8046C18.3022 18.2946 15.2822 20.8845 11.7622 21.2145Z" fill="currentColor" fill-rule="evenodd"></path></svg>