<svg xmlns="http://www.w3.org/2000/svg" width="24" height="24" viewBox="0 0 24 24" fill="none" stroke-width="1.5" stroke-linecap="round" stroke-linejoin="round" color="currentColor"><path d="M12 22.75C6.07 22.75 1.25 17.93 1.25 12C1.25 6.07 6.07 1.25 12 1.25C17.93 1.25 22.75 6.07 22.75 12C22.75 17.93 17.93 22.75 12 22.75ZM21.2199 11.25C20.8568 6.74672 17.2533 3.14324 12.75 2.78012V11.25H21.2199ZM12.75 12.75H21.2199C20.8568 17.2533 17.2533 20.8568 12.75 21.2199V12.75ZM11.25 12V2.78012C6.49931 3.16319 2.75 7.15246 2.75 12C2.75 16.8475 6.49931 20.8368 11.25 21.2199V12Z" fill="currentColor" fill-rule="evenodd"></path></svg>