<svg xmlns="http://www.w3.org/2000/svg" width="24" height="24" viewBox="0 0 24 24" fill="none" stroke-width="1.5" stroke-linecap="round" stroke-linejoin="round" color="currentColor"><path d="M12 23.5723C6.07 23.5723 1.25 18.7523 1.25 12.8223C1.25 6.89227 6.07 2.07227 12 2.07227C17.93 2.07227 22.75 6.89227 22.75 12.8223C22.75 14.7523 22.2394 16.5647 21.3462 18.1317C21.3353 18.1553 21.323 18.1786 21.3093 18.2015C21.2979 18.2209 21.2859 18.2397 21.2731 18.2578C19.404 21.4358 15.948 23.5723 12 23.5723ZM11.25 3.60238C6.49931 3.98546 2.75 7.97472 2.75 12.8223C2.75 14.2372 3.06944 15.5791 3.63999 16.7794L6.68681 15.0203C6.40541 14.3428 6.25 13.6003 6.25 12.8223C6.25 9.9064 8.43291 7.48973 11.25 7.12099V3.60238ZM12.75 7.12099V3.60238C17.5007 3.98546 21.25 7.97472 21.25 12.8223C21.25 14.2403 20.9292 15.5848 20.3563 16.7871L17.3099 15.0282C17.5934 14.3486 17.75 13.6033 17.75 12.8223C17.75 9.9064 15.5671 7.48973 12.75 7.12099ZM12 8.57227C9.66 8.57227 7.75 10.4823 7.75 12.8223C7.75 15.1623 9.66 17.0723 12 17.0723C14.34 17.0723 16.25 15.1623 16.25 12.8223C16.25 10.4823 14.34 8.57227 12 8.57227ZM12 22.0723C15.1494 22.0723 17.9366 20.4897 19.6079 18.078L16.5613 16.3191C15.5092 17.6881 13.8557 18.5723 12 18.5723C10.1412 18.5723 8.48529 17.6852 7.43342 16.3122L4.38727 18.071C6.05799 20.4866 8.8475 22.0723 12 22.0723Z" fill="currentColor" fill-rule="evenodd"></path></svg>