<svg xmlns="http://www.w3.org/2000/svg" width="24" height="24" viewBox="0 0 24 24" fill="none" stroke-width="1.5" stroke-linecap="round" stroke-linejoin="round" color="currentColor"><path d="M12.7115 11.277C13.0415 11.617 13.4315 11.757 13.9115 11.757L13.9215 11.737C14.6415 11.737 15.5815 11.427 16.8615 10.997L19.5015 10.107C21.2315 9.52697 22.2815 9.16706 22.6515 7.95706C23.0207 6.73962 22.4141 5.95028 21.4873 4.74456L21.4815 4.73697C20.8215 3.89697 20.0715 3.147 19.2515 2.517L19.2398 2.50805C18.0464 1.59305 17.2575 0.988247 16.0315 1.34708C14.8215 1.71708 14.4615 2.76701 13.8715 4.52701L12.9915 7.147C12.2715 9.277 11.8815 10.447 12.7115 11.277ZM16.4615 2.79703C16.5415 2.76703 16.6215 2.75699 16.7015 2.75699L16.7115 2.767C17.0515 2.767 17.4215 3.01696 18.3415 3.72696C19.0615 4.27696 19.7115 4.92704 20.3015 5.68704C21.1715 6.81704 21.3415 7.09702 21.2115 7.53702C21.0715 7.99702 20.5415 8.19707 18.9915 8.71707L16.3715 9.59708C16.3357 9.60911 16.2997 9.62126 16.2633 9.63349C15.2132 9.9871 13.9555 10.4106 13.7815 10.227C13.6139 10.0594 14.0682 8.69667 14.4069 7.68085L14.4215 7.63699L15.3015 4.99698C15.8215 3.44698 16.0315 2.92703 16.4615 2.79703ZM1.24219 12.5071C1.24219 18.1571 5.84219 22.7571 11.4922 22.7571C17.1422 22.7571 21.7422 18.1571 21.7422 12.5071C21.7422 12.0971 21.4022 11.7571 20.9922 11.7571C20.5822 11.7571 20.2422 12.0971 20.2422 12.5071C20.2422 17.3371 16.3122 21.2571 11.4922 21.2571C6.67219 21.2571 2.74219 17.3371 2.74219 12.5071C2.74219 7.6771 6.67219 3.7571 11.4922 3.7571C11.9022 3.7571 12.2422 3.4171 12.2422 3.0071C12.2422 2.5971 11.9022 2.2571 11.4922 2.2571C5.84219 2.2571 1.24219 6.8571 1.24219 12.5071Z" fill="currentColor" fill-rule="evenodd"></path></svg>