<svg xmlns="http://www.w3.org/2000/svg" width="24" height="24" viewBox="0 0 24 24" fill="none" stroke-width="1.5" stroke-linecap="round" stroke-linejoin="round" color="currentColor"><path d="M1.25 12.8223C1.25 18.7523 6.07 23.5723 12 23.5723C17.93 23.5723 22.75 18.7523 22.75 12.8223C22.75 6.89227 17.93 2.07227 12 2.07227C6.07 2.07227 1.25 6.89227 1.25 12.8223ZM11.25 3.60238C6.74672 3.96551 3.14324 7.56899 2.78012 12.0723H6.29872C6.63532 9.5007 8.67844 7.45759 11.25 7.12099V3.60238ZM12.75 7.12099V3.60238C17.2533 3.96551 20.8568 7.56899 21.2199 12.0723H17.7013C17.3647 9.5007 15.3216 7.45759 12.75 7.12099ZM12 8.57227C9.66 8.57227 7.75 10.4823 7.75 12.8223C7.75 15.1623 9.66 17.0723 12 17.0723C14.34 17.0723 16.25 15.1623 16.25 12.8223C16.25 10.4823 14.34 8.57227 12 8.57227ZM2.78012 13.5723C3.14324 18.0755 6.74672 21.679 11.25 22.0421V18.5235C8.67844 18.1869 6.63532 16.1438 6.29872 13.5723H2.78012ZM21.2199 13.5723C20.8568 18.0755 17.2533 21.679 12.75 22.0421V18.5235C15.3216 18.1869 17.3647 16.1438 17.7013 13.5723H21.2199Z" fill="currentColor" fill-rule="evenodd"></path></svg>