<svg xmlns="http://www.w3.org/2000/svg" width="24" height="24" viewBox="0 0 24 24" fill="none" stroke-width="1.5" stroke-linecap="round" stroke-linejoin="round" color="currentColor"><path d="M15.4661 19.4008C16.4461 20.3908 17.1361 21.0707 18.0861 21.0707H18.0961C18.2061 21.0707 18.3161 21.0607 18.4361 21.0407C19.5561 20.8607 19.9761 20.0408 20.5661 18.8808C21.0161 17.9808 21.3461 17.0207 21.5461 16.0207C21.9661 13.9007 21.7461 11.7206 20.9361 9.7206C20.1161 7.7206 18.7561 6.0307 16.9761 4.8207C16.1161 4.2407 15.1761 3.78059 14.1261 3.45059C12.9361 3.08059 12.0661 2.81062 11.1561 3.49062C10.2461 4.18062 10.2461 5.15065 10.2461 6.77065V11.3307C10.2461 12.6507 10.2461 13.3707 10.5361 14.0807C10.8361 14.7907 11.3761 15.3306 12.2661 16.2106L15.4661 19.4008ZM12.0561 4.69082C12.1561 4.61082 12.2561 4.5707 12.4061 4.5707H12.4161C12.6561 4.5707 13.0261 4.67077 13.7261 4.89077C14.5861 5.17077 15.3961 5.56069 16.1261 6.06069C17.6561 7.10069 18.8361 8.56066 19.5361 10.2807C20.2461 12.0107 20.4261 13.8906 20.0661 15.7206C19.9061 16.5806 19.6161 17.4106 19.2161 18.2006C18.6761 19.2606 18.5361 19.5007 18.1961 19.5507C17.8561 19.6007 17.4761 19.2807 16.5261 18.3307L13.3261 15.1408C12.5061 14.3308 12.0961 13.9206 11.9261 13.5006C11.7461 13.0706 11.7461 12.4907 11.7461 11.3307V6.77065C11.7461 5.38065 11.7661 4.91082 12.0561 4.69082ZM2.24609 13.8208C2.24609 18.6508 6.17609 22.5708 10.9961 22.5708L10.9861 22.5608C12.1061 22.5608 13.2161 22.3509 14.2661 21.9309C14.6561 21.7809 14.8361 21.3407 14.6861 20.9607C14.5361 20.5707 14.0961 20.3808 13.7161 20.5408C12.8461 20.8908 11.9261 21.0708 10.9961 21.0708C6.99609 21.0708 3.74609 17.8208 3.74609 13.8208C3.74609 10.8008 5.6461 8.07073 8.46609 7.02073C8.85609 6.88073 9.04609 6.45077 8.90609 6.06077C8.76609 5.67077 8.33609 5.48083 7.94609 5.62083C4.53609 6.88083 2.24609 10.1808 2.24609 13.8208Z" fill="currentColor" fill-rule="evenodd"></path></svg>