<svg xmlns="http://www.w3.org/2000/svg" width="24" height="24" viewBox="0 0 24 24" fill="none" stroke-width="1.5" stroke-linecap="round" stroke-linejoin="round" color="currentColor"><path d="M1.25 12.8223C1.25 18.7523 6.07 23.5723 12 23.5723C17.93 23.5723 22.75 18.7523 22.75 12.8223C22.75 6.89227 17.93 2.07227 12 2.07227C6.07 2.07227 1.25 6.89227 1.25 12.8223ZM11.25 3.60238C6.49931 3.98546 2.75 7.97472 2.75 12.8223C2.75 17.6698 6.49931 21.6591 11.25 22.0421V18.5235C8.43291 18.1548 6.25 15.7381 6.25 12.8223C6.25 9.9064 8.43291 7.48973 11.25 7.12099V3.60238ZM12.75 7.12099V3.60238C17.5007 3.98546 21.25 7.97472 21.25 12.8223C21.25 17.6698 17.5007 21.6591 12.75 22.0421V18.5235C15.5671 18.1548 17.75 15.7381 17.75 12.8223C17.75 9.9064 15.5671 7.48973 12.75 7.12099ZM12 8.57227C9.66 8.57227 7.75 10.4823 7.75 12.8223C7.75 15.1623 9.66 17.0723 12 17.0723C14.34 17.0723 16.25 15.1623 16.25 12.8223C16.25 10.4823 14.34 8.57227 12 8.57227Z" fill="currentColor" fill-rule="evenodd"></path></svg>