<svg xmlns="http://www.w3.org/2000/svg" width="24" height="24" viewBox="0 0 24 24" fill="none"><path d="M6.5 2H17.5C18.4346 2 18.9019 2 19.25 2.20096C19.478 2.33261 19.6674 2.52197 19.799 2.75C20 3.09808 20 3.56538 20 4.5C20 5.43462 20 5.90192 19.799 6.25C19.6674 6.47803 19.478 6.66739 19.25 6.79904C18.9019 7 18.4346 7 17.5 7H6.5C5.56538 7 5.09808 7 4.75 6.79904C4.52197 6.66739 4.33261 6.47803 4.20096 6.25C4 5.90192 4 5.43462 4 4.5C4 3.56538 4 3.09808 4.20096 2.75C4.33261 2.52197 4.52197 2.33261 4.75 2.20096C5.09808 2 5.56538 2 6.5 2Z" stroke="currentColor" stroke-linecap="round" stroke-linejoin="round" stroke-width="1.5" /><path d="M18 16V7H6V16C6 18.8284 6 20.2426 6.87868 21.1213C7.75736 22 9.17157 22 12 22C14.8284 22 16.2426 22 17.1213 21.1213C18 20.2426 18 18.8284 18 16Z" stroke="currentColor" stroke-linecap="round" stroke-linejoin="round" stroke-width="1.5" /><path d="M6 11H10C10.9428 11 11.4142 11 11.7071 11.2929C12 11.5858 12 12.0572 12 13V15C12 15.9428 12 16.4142 11.7071 16.7071C11.4142 17 10.9428 17 10 17H6" stroke="currentColor" stroke-linecap="round" stroke-linejoin="round" stroke-width="1.5" /></svg>