<svg xmlns="http://www.w3.org/2000/svg" width="24" height="24" viewBox="0 0 24 24" fill="none" stroke-width="1.5" stroke-linecap="round" stroke-linejoin="round" color="currentColor"><path d="M12 16.75V21.75" fill="none"></path><path d="M8 6.0418C8 5.77079 8 5.63529 8.01312 5.52132C8.1194 4.59789 8.84789 3.8694 9.77133 3.76312C9.88529 3.75 10.0208 3.75 10.2918 3.75H13.7082C13.9792 3.75 14.1147 3.75 14.2287 3.76312C15.1521 3.8694 15.8806 4.59789 15.9869 5.52132C16 5.63529 16 5.77079 16 6.0418C16 6.12885 16 6.17237 15.9967 6.21264C15.9708 6.53281 15.7927 6.82104 15.5179 6.9874C15.4834 7.00832 15.4444 7.02779 15.3666 7.06672L15.1055 7.19726C14.7021 7.39897 14.5003 7.49983 14.3681 7.65564C14.26 7.78286 14.1856 7.93509 14.1515 8.09846C14.1097 8.29854 14.1539 8.51968 14.2424 8.96197L15 12.75H15.3333C15.9533 12.75 16.2633 12.75 16.5176 12.8181C17.2078 13.0031 17.7469 13.5422 17.9319 14.2324C18 14.4867 18 14.7967 18 15.4167C18 15.7267 18 15.8817 17.9659 16.0088C17.8735 16.3539 17.6039 16.6235 17.2588 16.7159C17.1317 16.75 16.9767 16.75 16.6667 16.75H7.33333C7.02334 16.75 6.86835 16.75 6.74118 16.7159C6.39609 16.6235 6.12654 16.3539 6.03407 16.0088C6 15.8817 6 15.7267 6 15.4167C6 14.7967 6 14.4867 6.06815 14.2324C6.25308 13.5422 6.79218 13.0031 7.48236 12.8181C7.73669 12.75 8.04669 12.75 8.66667 12.75H9L9.75761 8.96197C9.84606 8.51968 9.89029 8.29854 9.84852 8.09846C9.81441 7.93509 9.73995 7.78286 9.63194 7.65564C9.49965 7.49983 9.29794 7.39897 8.89452 7.19726L8.63344 7.06672C8.55558 7.02779 8.51665 7.00832 8.48208 6.9874C8.20731 6.82104 8.02917 6.53281 8.00326 6.21264C8 6.17237 8 6.12885 8 6.0418Z" fill="none"></path></svg>