<svg xmlns="http://www.w3.org/2000/svg" width="24" height="24" viewBox="0 0 24 24" fill="none" stroke-width="1.5" stroke-linecap="round" stroke-linejoin="round" color="currentColor"><path d="M15.9064 18.7397H16.3964L16.4264 18.7698C18.7464 18.7698 19.9064 18.7697 20.3764 17.7397C20.8564 16.6897 20.0164 15.7898 18.4964 14.1698L17.6264 13.2397C18.1464 13.1797 18.5064 13.0498 18.7964 12.7598C19.0664 12.4898 19.2364 12.1397 19.2964 11.7197C19.3664 10.9798 18.8865 10.43 17.9267 9.33026L17.9264 9.32983L16.9664 8.24976C17.1564 8.20976 17.3064 8.15982 17.4564 8.06982C18.1164 7.66982 18.4364 6.90979 18.2564 6.15979C18.1398 5.69343 17.7872 5.3498 17.0335 4.61527C17.0115 4.59378 16.9891 4.57197 16.9664 4.5498L14.8364 2.47974C14.1164 1.76974 13.5864 1.25977 12.8564 1.25977C12.1264 1.25977 11.6664 1.69972 10.8764 2.45972L8.70637 4.5498L8.70616 4.55C7.9263 5.28987 7.53636 5.65981 7.41637 6.13977C7.22637 6.88977 7.55637 7.67983 8.23637 8.07983C8.33637 8.13983 8.44637 8.18973 8.57637 8.21973L7.40637 9.38977C6.48637 10.3098 6.02637 10.7798 5.97637 11.3898C5.91637 11.9798 6.16637 12.5498 6.63637 12.9098C6.88637 13.1098 7.17637 13.1998 7.58637 13.2498L6.71637 14.2998L6.71227 14.3047C5.37488 15.9016 4.64688 16.7708 5.14637 17.7898C5.63636 18.7598 6.7863 18.7598 8.88619 18.7598H8.88637H9.74637C10.1564 18.7598 10.4964 18.4198 10.4964 18.0098C10.4964 17.5998 10.1564 17.2598 9.74637 17.2598H8.88637H8.88592C7.79606 17.2598 6.67635 17.2598 6.49637 17.1498C6.50613 16.896 7.19238 16.0705 7.82038 15.3151C7.83575 15.2966 7.85108 15.2782 7.86637 15.2598L9.71637 13.0198C9.89637 12.7898 9.93637 12.4797 9.81637 12.2197C9.68637 11.9597 9.42637 11.7898 9.13637 11.7898C8.39637 11.7898 7.69637 11.7897 7.55637 11.7297C7.48637 11.6797 7.45637 11.6098 7.45637 11.5698C7.51214 11.4118 7.91352 11.0032 8.38744 10.5207C8.42337 10.4842 8.45972 10.4471 8.49637 10.4098L10.7964 8.09973C11.0064 7.87973 11.0764 7.55979 10.9564 7.27979C10.8464 6.99978 10.5664 6.81982 10.2664 6.81982C9.65637 6.81982 9.08637 6.81979 8.97637 6.77979C8.87637 6.71979 8.81637 6.6098 8.83637 6.53979C8.88702 6.42161 9.20847 6.11098 9.53603 5.79446C9.59649 5.73603 9.65716 5.67741 9.71637 5.61975L11.9064 3.50977C11.9349 3.48274 11.9634 3.45561 11.9919 3.42854C12.3534 3.08488 12.7059 2.74976 12.8264 2.74976C12.9564 2.74976 13.4364 3.21979 13.7564 3.53979L15.8864 5.60974C15.9982 5.72159 16.1094 5.83132 16.2132 5.93381C16.4992 6.2162 16.7297 6.44373 16.7664 6.50977C16.7964 6.60977 16.7564 6.70977 16.6764 6.75977C16.5264 6.80977 15.9464 6.80981 15.3364 6.80981C15.0464 6.80981 14.7764 6.97976 14.6564 7.24976C14.5364 7.51976 14.5764 7.83981 14.7764 8.05981L16.7664 10.2998C16.7918 10.329 16.8172 10.3582 16.8427 10.3875C17.289 10.9001 17.7385 11.4163 17.7764 11.5298C17.7691 11.5955 17.7458 11.6346 17.7337 11.6548C17.7293 11.6622 17.7264 11.6671 17.7264 11.6698C17.5464 11.7698 16.7168 11.7698 15.907 11.7698H15.9064C15.6064 11.7698 15.3364 11.9497 15.2164 12.2197C15.0964 12.4897 15.1464 12.8098 15.3564 13.0298L17.3764 15.1698C18.1164 15.9598 18.9464 16.8498 19.0064 17.0598C18.7865 17.2397 17.5673 17.2397 16.3977 17.2397H16.3964H15.9064C15.4964 17.2397 15.1564 17.5797 15.1564 17.9897C15.1564 18.3997 15.4964 18.7397 15.9064 18.7397ZM11.9763 21.9897C11.9763 22.3997 12.3163 22.7397 12.7263 22.7397C13.1363 22.7397 13.4763 22.3997 13.4763 21.9897V13.9897C13.4763 13.5797 13.1363 13.2397 12.7263 13.2397C12.3163 13.2397 11.9763 13.5797 11.9763 13.9897V21.9897Z" fill="currentColor" fill-rule="evenodd"></path></svg>