<svg xmlns="http://www.w3.org/2000/svg" width="24" height="24" viewBox="0 0 24 24" fill="none" stroke-width="1.5" stroke-linecap="round" stroke-linejoin="round" color="currentColor"><path d="M12.05 1.5H11.95C9.88001 1.5 8.24998 1.50003 6.97998 1.66003C5.66998 1.81003 4.62002 2.14 3.77002 2.88C3.54002 3.07 3.32 3.29002 3.13 3.52002C2.39 4.37002 2.05997 5.41998 1.90997 6.72998C1.74997 7.99998 1.75 9.63007 1.75 11.7001V11.8C1.75 13.87 1.74997 15.5 1.90997 16.77C2.05997 18.08 2.39 19.13 3.13 19.98C3.32 20.21 3.54002 20.43 3.77002 20.62C4.55002 21.3 5.49997 21.63 6.65997 21.8C7.79997 21.97 9.22 22 11 22C11.41 22 11.75 21.67 11.75 21.25C11.75 20.83 11.42 20.5 11 20.5C10.36 20.5 9.78 20.49 9.25 20.48V9H20.73C20.75 9.79 20.75 10.7 20.75 11.75C20.75 12.16 21.09 12.5 21.5 12.5C21.91 12.5 22.25 12.16 22.25 11.75V11.7001C22.25 9.63007 22.25 7.99998 22.09 6.72998C21.94 5.41998 21.61 4.37002 20.87 3.52002C20.68 3.29002 20.46 3.07 20.23 2.88C19.38 2.14 18.33 1.81003 17.02 1.66003C15.75 1.50003 14.12 1.5 12.05 1.5ZM20.66 7.5H9.25V3.02002C10.04 3.00002 10.95 3 12 3C14.13 3 15.67 3.00001 16.84 3.14001C18 3.29001 18.72 3.55002 19.26 4.02002C19.43 4.16002 19.59 4.31999 19.73 4.48999C20.2 5.02999 20.46 5.75003 20.61 6.91003C20.63 7.10003 20.65 7.29 20.66 7.5ZM3.34003 7.5H7.75V3.09009C7.54 3.10009 7.34997 3.12001 7.15997 3.14001C5.99997 3.29001 5.27999 3.55002 4.73999 4.02002C4.56999 4.16002 4.41002 4.31999 4.27002 4.48999C3.80002 5.02999 3.54001 5.75003 3.39001 6.91003C3.37001 7.10003 3.35003 7.29 3.34003 7.5ZM7.75 9H3.27002C3.25002 9.79 3.25 10.7 3.25 11.75C3.25 13.88 3.25001 15.4201 3.39001 16.5901C3.54001 17.7501 3.80002 18.47 4.27002 19.01C4.41002 19.18 4.56999 19.34 4.73999 19.48C5.23999 19.91 5.88 20.1701 6.88 20.3201C7.15 20.3601 7.44 20.39 7.75 20.41V9ZM22.25 14.75C22.25 14.34 21.91 14 21.5 14C21.09 14 20.75 14.34 20.75 14.75C20.75 15.7 20.75 16.36 20.7 16.87C20.66 17.37 20.57 17.66 20.45 17.88C20.25 18.22 19.97 18.5001 19.63 18.7001C19.41 18.8201 19.12 18.9101 18.62 18.9501C18.11 19.0001 17.45 19 16.5 19H15.54H15.55C15.79 18.78 16.06 18.58 16.3 18.38L16.36 18.3401C16.6 18.1501 16.86 17.94 17.02 17.79C17.32 17.5 17.33 17.02 17.04 16.73C16.75 16.43 16.27 16.4201 15.98 16.7101C15.89 16.8001 15.7 16.95 15.43 17.16L15.37 17.2101C15.13 17.4001 14.85 17.62 14.58 17.85C14.28 18.1 13.98 18.37 13.75 18.65C13.63 18.78 13.51 18.94 13.43 19.11C13.34 19.27 13.25 19.49 13.25 19.75C13.25 20.01 13.34 20.23 13.43 20.39C13.51 20.56 13.63 20.72 13.75 20.85C13.98 21.13 14.28 21.4 14.58 21.65C14.85 21.88 15.13 22.1 15.37 22.29L15.43 22.3401C15.7 22.5501 15.89 22.7 15.98 22.79C16.27 23.08 16.75 23.07 17.04 22.77C17.33 22.48 17.32 22.0001 17.02 21.7101C16.86 21.5601 16.6 21.35 16.36 21.16L16.3 21.12C16.06 20.92 15.79 20.72 15.55 20.51H15.54L16.54 20.5C17.44 20.5 18.17 20.5001 18.76 20.4501C19.36 20.3901 19.89 20.28 20.38 20C20.95 19.67 21.42 19.2 21.75 18.63C22.03 18.14 22.14 17.61 22.2 17.01C22.25 16.42 22.25 15.69 22.25 14.79V14.75Z" fill="currentColor" fill-rule="evenodd"></path></svg>