<svg xmlns="http://www.w3.org/2000/svg" width="24" height="24" viewBox="0 0 24 24" fill="none" stroke-width="1.5" stroke-linecap="round" stroke-linejoin="round" color="currentColor"><path d="M10.9504 22.6482H10.9506V22.6382C11.4206 22.6382 11.8806 22.4682 12.2506 22.1482C12.2519 22.147 12.2532 22.1459 12.2545 22.1448C12.2597 22.1492 12.2648 22.1537 12.27 22.1581C12.64 22.4781 13.09 22.6481 13.57 22.6481V22.6581C13.68 22.6581 13.78 22.6581 13.88 22.6381C16.56 22.2381 18.97 20.8481 20.67 18.7181C21.04 18.2581 21.18 17.6781 21.07 17.0981L21.0642 17.0667C21.6221 16.876 22.0505 16.4568 22.26 15.9181C22.75 14.6781 23 13.3481 23 11.9881C23 10.6281 22.75 9.29813 22.26 8.06813C22.04 7.51813 21.62 7.10815 21.06 6.90815C21.0571 6.90711 21.0541 6.90609 21.0512 6.90508C21.1601 6.32611 21.0199 5.74735 20.6506 5.28817C18.9506 3.16817 16.5406 1.76817 13.8506 1.36817C13.2722 1.27841 12.7037 1.4373 12.2543 1.82497C11.8068 1.4542 11.2433 1.28917 10.67 1.37812C8 1.77812 5.58 3.16812 3.88 5.29812C3.50416 5.75309 3.36309 6.32544 3.46648 6.89907L3.44 6.90815C2.88 7.09815 2.45 7.51814 2.24 8.05814C1.75 9.29814 1.5 10.6181 1.5 11.9881C1.5 13.3581 1.75 14.6781 2.24 15.9181C2.46 16.4681 2.88 16.8781 3.44 17.0781C3.44331 17.0793 3.44663 17.0805 3.44994 17.0816C3.34112 17.6704 3.48129 18.2391 3.85058 18.7082C5.55058 20.8282 7.96058 22.2282 10.6406 22.6282C10.7505 22.6482 10.8505 22.6482 10.9504 22.6482ZM5.20347 15.2039L4.52058 15.5982C4.48201 15.6202 4.44424 15.6433 4.40731 15.6674C4.25591 15.7231 4.09073 15.725 3.95 15.6781C3.81 15.6281 3.71 15.5281 3.65 15.3881C3.22 14.3181 3.01 13.1881 3.01 12.0081C3.01 10.8281 3.23 9.69815 3.65 8.62815C3.71 8.48815 3.81 8.38814 3.95 8.33814C4.02 8.30814 4.09 8.29814 4.16 8.29814V8.30814C4.29 8.30814 4.42 8.33815 4.53 8.40815L5.21 8.79815C4.75 9.79815 4.51 10.8981 4.51 12.0081C4.51 13.1129 4.74773 14.2077 5.20347 15.2039ZM11.5006 10.6854L7.26081 8.23706C8.28888 6.89018 9.82469 6.00138 11.5006 5.7893V10.6854ZM10.7579 11.9969L8.09034 13.5371L6.51 14.4481C6.18 13.6881 6.01 12.8481 6.01 11.9981C6.01 11.1481 6.18 10.3181 6.51 9.54815L10.7579 11.9969ZM5.96652 16.4963L5.96058 16.5082L5.28058 16.8982C5.10058 16.9982 4.97058 17.1782 4.94058 17.3582C4.92058 17.4582 4.92058 17.6182 5.04058 17.7682C6.50058 19.5982 8.58058 20.7982 10.8806 21.1382C11.0706 21.1682 11.2106 21.0882 11.2906 21.0182C11.4245 20.9034 11.5126 20.7155 11.5201 20.5156C11.52 20.5098 11.52 20.5039 11.52 20.4981V19.6981C9.30189 19.4781 7.27351 18.3098 5.9735 16.4923L5.96652 16.4963ZM7.26156 15.7495C8.28157 17.1087 9.82112 17.9982 11.5106 18.1982V13.3001L7.26156 15.7495ZM13.02 4.28911V3.50811C13.02 3.45874 13.0184 3.4096 13.0154 3.36076C13.0463 3.20743 13.1239 3.06959 13.2306 2.97817C13.3506 2.87817 13.4806 2.83817 13.6306 2.85817C15.9506 3.20817 18.0206 4.40818 19.4806 6.23818C19.6006 6.38818 19.6006 6.54817 19.5806 6.64817C19.5589 6.77853 19.4847 6.90891 19.377 7.00888C19.3273 7.0333 19.2782 7.05972 19.23 7.08814L18.5485 7.48131C17.2499 5.67352 15.2295 4.51079 13.02 4.28911ZM17.2483 8.23181L13.02 10.6735V5.7993C14.6995 6.00067 16.2301 6.88356 17.2483 8.23181ZM5.27 7.08814L5.9539 7.4827C7.25406 5.67577 9.28222 4.4979 11.5 4.27812V3.48812C11.5 3.27812 11.41 3.07811 11.27 2.95811C11.18 2.87811 11.07 2.83811 10.95 2.83811L10.96 2.84812H10.88C8.58 3.19812 6.5 4.38811 5.03 6.22811C4.91 6.37811 4.91 6.53812 4.93 6.63812C4.95494 6.7961 5.04902 6.94026 5.1835 7.04184C5.21254 7.05664 5.24138 7.07207 5.27 7.08814ZM19.3104 15.2072L19.46 15.2941L19.99 15.5981C20.17 15.6981 20.39 15.7281 20.57 15.6581C20.71 15.6081 20.82 15.5081 20.87 15.3681C21.29 14.2981 21.51 13.1681 21.51 11.9881C21.51 10.8081 21.3 9.67814 20.87 8.61814C20.81 8.47814 20.71 8.37814 20.57 8.32814C20.39 8.26814 20.17 8.28814 19.99 8.39814L19.31 8.78814C19.77 9.78814 20.01 10.8881 20.01 11.9981C20.01 13.1078 19.7701 14.2075 19.3104 15.2072ZM19.25 16.8981L18.5782 16.5106C17.2781 18.3192 15.239 19.4982 13.02 19.7181L13.01 19.7081V20.4981C13.01 20.7081 13.1 20.8981 13.24 21.0281C13.32 21.0981 13.46 21.1781 13.65 21.1481C15.95 20.7981 18.03 19.6081 19.5 17.7681C19.59 17.6481 19.63 17.5181 19.6 17.3681C19.5601 17.1785 19.4305 17.0088 19.2511 16.8988L19.25 16.8981ZM13.01 13.3081V18.2081C14.7 17.9981 16.24 17.1181 17.26 15.7581L13.01 13.3081ZM13.76 11.9981L18.01 14.4481C18.34 13.6781 18.51 12.8481 18.51 11.9981C18.51 11.1481 18.34 10.3181 18.01 9.54815L13.76 11.9981Z" fill="currentColor" fill-rule="evenodd"></path></svg>