<svg xmlns="http://www.w3.org/2000/svg" width="24" height="24" viewBox="0 0 24 24" fill="none" stroke-width="1.5" stroke-linecap="round" stroke-linejoin="round" color="currentColor"><path d="M10.6415 22.6173C10.7415 22.6373 10.8415 22.6373 10.9415 22.6373V22.6573C11.4215 22.6573 11.8715 22.4873 12.2415 22.1673L12.2586 22.1526C12.6274 22.4691 13.0751 22.6373 13.5524 22.6373V22.6473H13.5525C13.6625 22.6473 13.7624 22.6473 13.8624 22.6273C16.5424 22.2273 18.9524 20.8373 20.6524 18.7073C21.0224 18.2473 21.1624 17.6673 21.0524 17.0873L21.0495 17.0714L21.0622 17.0671C21.6222 16.8771 22.0522 16.4571 22.2622 15.9171C22.7522 14.6771 23.0022 13.3471 23.0022 11.9871C23.0022 10.6271 22.7522 9.2971 22.2622 8.0671C22.0422 7.5171 21.6222 7.1071 21.0622 6.9071L21.0428 6.90042C21.1504 6.31288 21.0101 5.74553 20.6415 5.28733C18.9415 3.15733 16.5315 1.76733 13.8515 1.36733C13.2764 1.27808 12.7012 1.44451 12.2528 1.82761L12.2524 1.82726C11.8024 1.44726 11.2324 1.28726 10.6524 1.36726C7.98242 1.76726 5.56242 3.15726 3.86242 5.28726C3.48594 5.743 3.34504 6.31653 3.44943 6.89114L3.43219 6.89709C2.87219 7.09709 2.44219 7.5071 2.23219 8.0471C1.74219 9.2871 1.49219 10.6071 1.49219 11.9771C1.49219 13.3471 1.74219 14.6671 2.23219 15.9071C2.45219 16.4571 2.87219 16.8671 3.43219 17.0671L3.44282 17.0708L3.44154 17.0773C3.33154 17.6573 3.48154 18.2373 3.85154 18.6973C5.55154 20.8273 7.96154 22.2173 10.6415 22.6173ZM11.4915 10.6775L5.26219 7.0771C5.22441 7.05589 5.18624 7.03578 5.14772 7.01678C5.02298 6.91618 4.93623 6.77802 4.91242 6.62726C4.89242 6.52726 4.89242 6.36726 5.01242 6.21726C6.48242 4.37726 8.56242 3.18726 10.8624 2.83726H10.9424C11.0624 2.83726 11.1724 2.87727 11.2624 2.95727C11.396 3.07177 11.4841 3.25913 11.4919 3.45851C11.4916 3.47143 11.4915 3.48437 11.4915 3.49733V10.6775ZM4.80543 15.4277L4.51154 15.5973L4.48197 15.6145C4.30798 15.7091 4.10223 15.7238 3.93219 15.6671C3.79219 15.6171 3.69219 15.5171 3.63219 15.3771C3.20219 14.3071 2.99219 13.1771 2.99219 11.9971C2.99219 10.8171 3.21219 9.6871 3.63219 8.6171C3.69219 8.4771 3.79219 8.37709 3.93219 8.3271C4.00219 8.29709 4.07219 8.28709 4.14219 8.28709L4.13219 8.2971C4.26219 8.2971 4.39219 8.32709 4.50219 8.39709L10.7422 11.9971L4.80543 15.4277ZM5.23528 16.9027C5.06896 17.0051 4.95006 17.1762 4.92154 17.3473C4.90154 17.4473 4.90154 17.6073 5.02154 17.7573C6.49154 19.5873 8.56154 20.7873 10.8715 21.1373C11.0215 21.1573 11.1515 21.1173 11.2715 21.0173C11.4115 20.8973 11.5015 20.6973 11.5015 20.4873V13.2873H11.4915L5.41282 16.7999L5.26219 16.8871L5.23528 16.9027ZM19.2707 7.06492C19.2578 7.07217 19.245 7.07956 19.2322 7.0871L13.0024 10.6839V3.49727C13.0024 3.46033 13.0016 3.42353 12.9998 3.38688C13.0251 3.21887 13.1064 3.06603 13.2215 2.96733C13.2915 2.90733 13.4015 2.83733 13.5515 2.83733L13.5415 2.84733H13.6215C15.9315 3.19733 18.0015 4.39733 19.4715 6.22733C19.5715 6.34733 19.6015 6.47733 19.5715 6.62733C19.5353 6.79955 19.4251 6.95535 19.2707 7.06492ZM13.7481 11.9905L19.9715 8.39733C19.9972 8.38267 20.0225 8.36752 20.0474 8.35191C20.2135 8.27349 20.4034 8.26418 20.5622 8.3171C20.7022 8.3671 20.8022 8.46709 20.8622 8.60709C21.2922 9.66709 21.5022 10.7971 21.5022 11.9771C21.5022 13.1571 21.2822 14.2871 20.8622 15.3571C20.8122 15.4971 20.7022 15.5971 20.5622 15.6471C20.3822 15.7171 20.1622 15.6871 19.9822 15.5871L13.7481 11.9905ZM12.9924 13.2873V20.4873C12.9924 20.6973 13.0824 20.8873 13.2224 21.0173C13.3024 21.0873 13.4424 21.1673 13.6324 21.1373C15.9324 20.7873 18.0124 19.5973 19.4824 17.7573C19.5724 17.6373 19.6124 17.5073 19.5824 17.3573C19.5424 17.1673 19.4124 16.9973 19.2324 16.8873L19.2322 16.8871L12.9924 13.2873ZM15.2422 5.8373C14.8322 5.8373 14.4922 5.4973 14.4922 5.0873V4.9873C14.4922 4.5773 14.8322 4.2373 15.2422 4.2373C15.6522 4.2373 15.9922 4.5773 15.9922 4.9873V5.0873C15.9922 5.4973 15.6522 5.8373 15.2422 5.8373ZM8.99219 16.0873C8.99219 16.4973 9.33219 16.8373 9.74219 16.8373C10.1522 16.8373 10.4922 16.4973 10.4922 16.0873V15.9873C10.4922 15.5773 10.1522 15.2373 9.74219 15.2373C9.33219 15.2373 8.99219 15.5773 8.99219 15.9873V16.0873ZM6.24219 12.8373C5.83219 12.8373 5.49219 12.4973 5.49219 12.0873V11.9873C5.49219 11.5773 5.83219 11.2373 6.24219 11.2373C6.65219 11.2373 6.99219 11.5773 6.99219 11.9873V12.0873C6.99219 12.4973 6.65219 12.8373 6.24219 12.8373ZM18.4922 12.0873C18.4922 12.4973 18.8322 12.8373 19.2422 12.8373C19.6522 12.8373 19.9922 12.4973 19.9922 12.0873V11.9873C19.9922 11.5773 19.6522 11.2373 19.2422 11.2373C18.8322 11.2373 18.4922 11.5773 18.4922 11.9873V12.0873ZM14.7424 8.73725C14.4724 8.73725 14.2024 8.58724 14.0724 8.32724C13.8824 7.95724 14.0324 7.50725 14.4124 7.31725L15.4124 6.81725C15.7824 6.63725 16.2324 6.78724 16.4224 7.15724C16.6124 7.52724 16.4624 7.97725 16.0824 8.16725L15.0824 8.66725C14.9724 8.71725 14.8624 8.74725 14.7524 8.74725L14.7424 8.73725ZM7.57245 6.82724C7.70245 7.08724 7.97244 7.23725 8.24244 7.23725L8.25244 7.24725C8.36244 7.24725 8.47244 7.21725 8.58244 7.16725L9.58244 6.66725C9.96244 6.47725 10.1124 6.02724 9.92244 5.65724C9.73244 5.28724 9.28244 5.13725 8.91244 5.31725L7.91244 5.81725C7.53244 6.00725 7.38245 6.45724 7.57245 6.82724ZM8.74244 19.7372C8.47244 19.7372 8.20245 19.5872 8.07245 19.3272C7.88245 18.9572 8.03244 18.5072 8.41244 18.3172L9.41244 17.8172C9.78244 17.6372 10.2324 17.7872 10.4224 18.1572C10.6124 18.5272 10.4624 18.9772 10.0824 19.1672L9.08244 19.6672C8.97244 19.7172 8.86244 19.7472 8.75244 19.7472L8.74244 19.7372ZM15.9121 18.657C16.0121 18.707 16.1321 18.737 16.2421 18.737L16.2521 18.727C16.5221 18.727 16.7921 18.577 16.9221 18.317C17.1021 17.947 16.9521 17.497 16.5821 17.307L15.5821 16.807C15.2121 16.627 14.7621 16.777 14.5721 17.147C14.3921 17.517 14.5421 17.967 14.9121 18.157L15.9121 18.657Z" fill="currentColor" fill-rule="evenodd"></path></svg>