<svg xmlns="http://www.w3.org/2000/svg" width="24" height="24" viewBox="0 0 24 24" fill="none"><path d="M2 7H21" stroke="currentColor" stroke-linejoin="round" stroke-width="1.5" /><path d="M16.5 2L13.5 7" stroke="currentColor" stroke-linejoin="round" stroke-width="1.5" /><path d="M9.5 2L6.5 7" stroke="currentColor" stroke-linejoin="round" stroke-width="1.5" /><path d="M11.5 21C7.02166 21 4.78249 21 3.39124 19.6088C2 18.2175 2 15.9783 2 11.5C2 7.02166 2 4.78249 3.39124 3.39124C4.78249 2 7.02166 2 11.5 2C15.9783 2 18.2175 2 19.6088 3.39124C21 4.78249 21 7.02166 21 11.5" stroke="currentColor" stroke-linecap="round" stroke-width="1.5" /><path d="M15 15L18.5 18.5M18.5 18.5L22 22M18.5 18.5L15 22M18.5 18.5L22 15" stroke="currentColor" stroke-linecap="round" stroke-width="1.5" /></svg>