<svg xmlns="http://www.w3.org/2000/svg" width="24" height="24" viewBox="0 0 24 24" fill="none"><path d="M9 19H15C16.8613 19 17.7919 19 18.5451 18.7553C20.0673 18.2607 21.2607 17.0673 21.7553 15.5451C22 14.7919 22 13.8613 22 12C22 10.1387 22 9.20808 21.7553 8.45492C21.2607 6.93273 20.0673 5.73931 18.5451 5.24472C17.7919 5 16.8613 5 15 5H9C7.13872 5 6.20808 5 5.45492 5.24472C3.93273 5.73931 2.73931 6.93273 2.24472 8.45492C2 9.20808 2 10.1387 2 12C2 13.8613 2 14.7919 2.24472 15.5451C2.73931 17.0673 3.93273 18.2607 5.45492 18.7553C6.20808 19 7.13872 19 9 19Z" stroke="currentColor" stroke-linecap="round" stroke-linejoin="round" stroke-width="1.5" /><path d="M8.5 9.5V14.5M11 12H6" stroke="currentColor" stroke-linecap="round" stroke-linejoin="round" stroke-width="1.5" /><path d="M15 12H18" stroke="currentColor" stroke-linecap="round" stroke-linejoin="round" stroke-width="1.5" /></svg>