<svg xmlns="http://www.w3.org/2000/svg" width="24" height="24" viewBox="0 0 24 24" fill="none" stroke-width="1.5" stroke-linecap="round" stroke-linejoin="round" color="currentColor"><path d="M11 16C11 17.8692 11 18.8038 11.4019 19.5C11.6652 19.9561 12.0439 20.3348 12.5 20.5981C13.1962 21 14.1308 21 16 21C17.8692 21 18.8038 21 19.5 20.5981C19.9561 20.3348 20.3348 19.9561 20.5981 19.5C21 18.8038 21 17.8692 21 16C21 14.1308 21 13.1962 20.5981 12.5C20.3348 12.0439 19.9561 11.6652 19.5 11.4019C18.8038 11 17.8692 11 16 11" stroke="currentColor"></path><path d="M8 3C9.86923 3 10.8038 3 11.5 3.40192C11.9561 3.66523 12.3348 4.04394 12.5981 4.5C13 5.19615 13 6.13077 13 8C13 9.86923 13 10.8038 12.5981 11.5C12.3348 11.9561 11.9561 12.3348 11.5 12.5981C10.8038 13 9.86923 13 8 13C6.13077 13 5.19615 13 4.5 12.5981C4.04394 12.3348 3.66523 11.9561 3.40192 11.5C3 10.8038 3 9.86923 3 8C3 6.13077 3 5.19615 3.40192 4.5C3.66523 4.04394 4.04394 3.66523 4.5 3.40192C5.19615 3 6.13077 3 8 3Z" stroke="currentColor"></path><path d="M8 6V10" stroke="currentColor"></path><path d="M10 8L6 8" stroke="currentColor"></path><path d="M18 16L14 16" stroke="currentColor"></path></svg>