<svg xmlns="http://www.w3.org/2000/svg" width="24" height="24" viewBox="0 0 24 24" fill="none" stroke-width="1.5" stroke-linecap="round" stroke-linejoin="round" color="currentColor"><path d="M3.75 12.25C3.75 7.69 7.44 4 12 4C16.56 4 20.25 7.69 20.25 12.25C20.25 13.95 19.74 15.5201 18.86 16.8301C18.63 17.1801 18.72 17.6401 19.07 17.8701C19.41 18.1001 19.88 18.0099 20.11 17.6699C21.15 16.1199 21.75 14.25 21.75 12.25C21.75 6.87 17.38 2.5 12 2.5C6.62 2.5 2.25 6.87 2.25 12.25C2.25 14.25 2.86 16.1199 3.89 17.6699C4.12 18.0099 4.59 18.1001 4.93 17.8701C5.27 17.6401 5.37 17.1801 5.14 16.8301C4.26 15.5201 3.75 13.95 3.75 12.25ZM12 7.5C9.93 7.5 8.25 9.18 8.25 11.25V13.25C8.25 15.06 9.54 16.5799 11.25 16.9199V18.9399L9.47 20.72C9.26 20.93 9.19 21.26 9.31 21.54C9.43 21.82 9.7 22 10 22H14C14.3 22 14.58 21.82 14.69 21.54C14.81 21.26 14.74 20.93 14.53 20.72L12.75 18.9399V16.9199C14.46 16.5799 15.75 15.06 15.75 13.25V11.25C15.75 9.18 14.07 7.5 12 7.5ZM14.25 13.25C14.25 14.49 13.24 15.5 12 15.5C10.76 15.5 9.75 14.49 9.75 13.25V11.25C9.75 10.01 10.76 9 12 9C13.24 9 14.25 10.01 14.25 11.25V13.25Z" fill="currentColor" fill-rule="evenodd"></path></svg>