<svg xmlns="http://www.w3.org/2000/svg" width="24" height="24" viewBox="0 0 24 24" fill="none" stroke-width="1.5" stroke-linecap="round" stroke-linejoin="round" color="currentColor"><path d="M12.002 22.2561C10.572 22.2561 9.15198 22.1361 7.78198 21.9161C6.39198 21.6861 5.56193 21.5461 4.91193 20.7761C4.25195 20.0161 4.25195 19.0762 4.25195 17.5263V17.5261V12.5642C4.24933 12.5281 4.24937 12.4923 4.25195 12.457V9.26608V9.26586C4.25195 8.04599 4.25195 7.31605 4.72192 6.61609C5.19009 5.92878 5.79716 5.67804 6.71116 5.30053L6.72192 5.29608C7.37192 5.03608 8.00196 4.82609 8.63196 4.66609V4.49609C8.63196 3.42609 8.63197 2.77608 9.14197 2.26608C9.65196 1.74609 10.3019 1.74609 11.3819 1.74609H11.382H12.6219H12.622C13.702 1.74609 14.3519 1.74609 14.8619 2.26608C15.3719 2.77608 15.3719 3.42609 15.3719 4.49609V4.66609C16.0019 4.82609 16.622 5.02609 17.262 5.28609L17.2644 5.28708C18.213 5.67651 18.8224 5.92668 19.282 6.61609C19.752 7.31605 19.752 8.04599 19.752 9.26586V9.26608V17.5261V17.5263C19.752 19.0762 19.752 20.0061 19.092 20.7761C18.4605 21.5359 17.6342 21.6725 16.277 21.897L16.2219 21.9061C14.8519 22.1361 13.432 22.2461 12.002 22.2461V22.2561ZM5.75195 11.5276V9.27609C5.75195 8.16609 5.76198 7.76608 5.96198 7.46608C6.16198 7.17608 6.44194 7.04609 7.30194 6.69609C8.05194 6.38609 8.77197 6.16608 9.52197 6.01608H9.55194C11.1519 5.68608 12.852 5.68608 14.452 6.01608H14.4819C15.2319 6.16608 15.952 6.38609 16.712 6.69609C17.562 7.04609 17.8419 7.16608 18.0419 7.46608C18.2419 7.76608 18.252 8.16609 18.252 9.27609V11.5301C14.2512 10.5155 9.75355 10.5147 5.75195 11.5276ZM5.75195 13.0712C9.73132 11.9868 14.2735 11.9877 18.252 13.0739V17.5361C18.252 18.9061 18.242 19.4761 17.952 19.8161C17.672 20.1461 17.2319 20.2261 15.9819 20.4361C15.5763 20.5034 15.1658 20.5602 14.752 20.6065V19.5059C14.752 18.4359 14.7519 17.7859 14.2319 17.2659C13.7219 16.7559 13.072 16.7559 12.002 16.7559H12.002C10.932 16.7559 10.292 16.7559 9.76196 17.2759C9.25196 17.7859 9.25195 18.4359 9.25195 19.5059V20.6069C8.83784 20.5606 8.42731 20.5036 8.02197 20.4361C6.78197 20.2261 6.33194 20.1461 6.05194 19.8061C5.76194 19.4761 5.75195 18.9061 5.75195 17.5361V13.0712ZM13.252 19.5059V20.7273C12.4202 20.7689 11.5828 20.769 10.752 20.7277V19.5059V19.5058C10.752 19.0058 10.752 18.4359 10.812 18.3359C10.902 18.2559 11.502 18.2559 12.002 18.2559H12.0021C12.5021 18.2559 13.112 18.2559 13.1819 18.3259C13.2519 18.4359 13.252 19.0059 13.252 19.5059ZM11.382 3.25609H11.3818C10.8818 3.25609 10.312 3.25609 10.202 3.32608C10.132 3.42608 10.132 3.91609 10.132 4.38609C11.372 4.21609 12.6319 4.21609 13.8719 4.38609C13.8719 3.91609 13.8719 3.42608 13.8019 3.32608C13.692 3.25609 13.1221 3.25609 12.6221 3.25609H12.6219H11.382Z" fill="currentColor" fill-rule="evenodd"></path></svg>