<svg xmlns="http://www.w3.org/2000/svg" width="24" height="24" viewBox="0 0 24 24" fill="none"><path d="M15.7807 8.89881L11.3072 4.42529C10.3946 3.51269 9.15685 3 7.86624 3C5.17869 3 3 5.17869 3 7.86625C3 9.15686 3.51269 10.3946 4.42529 11.3072L8.89881 15.7807C10.1652 17.0471 10.7984 17.6803 11.539 17.8892C12.0626 18.0369 12.6169 18.0369 13.1405 17.8892C13.8811 17.6803 14.5143 17.0471 15.7807 15.7808C17.0471 14.5144 17.6803 13.8812 17.8892 13.1406C18.0369 12.6169 18.0369 12.0627 17.8892 11.539C17.6803 10.7984 17.0471 10.1652 15.7807 8.89881Z" stroke="currentColor" stroke-linecap="round" stroke-linejoin="round" stroke-width="1.5" /><path d="M16 16L21 21" stroke="currentColor" stroke-linecap="round" stroke-linejoin="round" stroke-width="1.5" /></svg>