<svg xmlns="http://www.w3.org/2000/svg" width="24" height="24" viewBox="0 0 24 24" fill="none"><path d="M7.35396 18C5.23084 18 4.16928 18 3.41349 17.5468C2.91953 17.2506 2.52158 16.8271 2.26475 16.3242C1.87179 15.5547 1.97742 14.5373 2.18868 12.5025C2.36503 10.8039 2.45321 9.95455 2.88684 9.33081C3.17153 8.92129 3.55659 8.58564 4.00797 8.35353C4.69548 8 5.58164 8 7.35396 8H16.646C18.4184 8 19.3045 8 19.992 8.35353C20.4434 8.58564 20.8285 8.92129 21.1132 9.33081C21.5468 9.95455 21.635 10.8039 21.8113 12.5025C21.8293 12.6755 21.8465 12.8412 21.8627 13" stroke="currentColor" stroke-linecap="round" stroke-linejoin="round" stroke-width="1.5" /><path d="M17 8V6C17 4.11438 17 3.17157 16.4142 2.58579C15.8284 2 14.8856 2 13 2H11C9.11438 2 8.17157 2 7.58579 2.58579C7 3.17157 7 4.11438 7 6V8" stroke="currentColor" stroke-linecap="round" stroke-linejoin="round" stroke-width="1.5" /><path d="M13 16L10.0113 16C9.32602 16 8.98337 16 8.69183 16.1089C8.30311 16.254 7.97026 16.536 7.7462 16.9099C7.57815 17.1904 7.49505 17.5511 7.32884 18.2724C7.06913 19.3995 6.93928 19.963 7.02759 20.4149C7.14535 21.0174 7.51237 21.5274 8.02252 21.7974C8.40513 22 8.94052 22 10.0113 22H13" stroke="currentColor" stroke-linecap="round" stroke-linejoin="round" stroke-width="1.5" /><path d="M17 22L22 17M22 22L17 17" stroke="currentColor" stroke-linecap="round" stroke-linejoin="round" stroke-width="1.5" /></svg>