<svg xmlns="http://www.w3.org/2000/svg" width="24" height="24" viewBox="0 0 24 24" fill="none" stroke-width="1.5" stroke-linecap="round" stroke-linejoin="round" color="currentColor"><path d="M1.25 12.3125C1.25 18.2425 6.07 23.0625 12 23.0625C17.93 23.0625 22.75 18.2425 22.75 12.3125C22.75 6.3825 17.93 1.5625 12 1.5625C6.07 1.5625 1.25 6.3825 1.25 12.3125ZM2.75 12.3125C2.75 7.2125 6.9 3.0625 12 3.0625C17.1 3.0625 21.25 7.2125 21.25 12.3125C21.25 17.4125 17.1 21.5625 12 21.5625C6.9 21.5625 2.75 17.4125 2.75 12.3125ZM17.3 7.0125C15.9 5.6025 13.99 4.8125 12 4.8125V19.8125C13.99 19.8125 15.89 19.0225 17.3 17.6125C18.71 16.2125 19.5 14.3025 19.5 12.3125C19.5 10.3225 18.71 8.4125 17.3 7.0125Z" fill="currentColor" fill-rule="evenodd"></path></svg>