<svg xmlns="http://www.w3.org/2000/svg" width="24" height="24" viewBox="0 0 24 24" fill="none" stroke-width="1.5" stroke-linecap="round" stroke-linejoin="round" color="currentColor"><path d="M12 23.0625C6.07 23.0625 1.25 18.2425 1.25 12.3125C1.25 6.3825 6.07 1.5625 12 1.5625C17.93 1.5625 22.75 6.3825 22.75 12.3125C22.75 18.2425 17.93 23.0625 12 23.0625ZM12 3.0625C6.9 3.0625 2.75 7.2125 2.75 12.3125C2.75 17.4125 6.9 21.5625 12 21.5625C17.1 21.5625 21.25 17.4125 21.25 12.3125C21.25 7.2125 17.1 3.0625 12 3.0625Z" fill="currentColor"></path><path d="M19.5 12.3125C19.5 11.3325 19.31 10.3525 18.93 9.4425C18.55 8.5325 18 7.7025 17.3 7.0125C16.6 6.3125 15.78 5.7625 14.87 5.3825C13.96 5.0025 12.98 4.8125 12 4.8125V12.3125H19.5Z" fill="currentColor"></path></svg>