<svg xmlns="http://www.w3.org/2000/svg" width="24" height="24" viewBox="0 0 24 24" fill="none" stroke-width="1.5" stroke-linecap="round" stroke-linejoin="round" color="currentColor"><path d="M3.75 12.25C3.75 7.69 7.44 4 12 4C16.56 4 20.25 7.69 20.25 12.25C20.25 16.81 16.56 20.5 12 20.5C7.44 20.5 3.75 16.81 3.75 12.25ZM12 2.5C6.62 2.5 2.25 6.87 2.25 12.25C2.25 17.63 6.62 22 12 22C17.38 22 21.75 17.63 21.75 12.25C21.75 6.87 17.38 2.5 12 2.5ZM12 5.5C11.59 5.5 11.25 5.84 11.25 6.25V11.8201L6.42999 14.6C6.25999 14.7 6.13002 14.8601 6.08002 15.0601C6.03002 15.2501 6.05997 15.45 6.15997 15.62C6.74997 16.65 7.60001 17.5 8.63 18.1C9.65 18.69 10.82 19 12 19C13.18 19 14.35 18.69 15.38 18.1C16.4 17.5 17.25 16.65 17.85 15.63C18.44 14.6 18.75 13.43 18.75 12.25C18.75 11.07 18.44 9.89999 17.85 8.87C17.25 7.85 16.4 7.00002 15.38 6.40002C14.35 5.81002 13.19 5.5 12 5.5ZM12.75 12.25V7.05005C13.41 7.15005 14.05 7.37007 14.63 7.70007C15.42 8.16007 16.09 8.83 16.55 9.63C17.01 10.42 17.25 11.33 17.25 12.25C17.25 13.17 17.01 14.08 16.55 14.87C16.09 15.67 15.42 16.34 14.63 16.8C13.83 17.26 12.92 17.5 12 17.5C11.08 17.5 10.17 17.26 9.38 16.8C8.8 16.46 8.29 16.02 7.88 15.5L12.38 12.9C12.61 12.77 12.75 12.52 12.75 12.25Z" fill="currentColor" fill-rule="evenodd"></path></svg>