<svg xmlns="http://www.w3.org/2000/svg" width="24" height="24" viewBox="0 0 24 24" fill="none" stroke-width="1.5" stroke-linecap="round" stroke-linejoin="round" color="currentColor"><path d="M1.25 12.3125C1.25 6.3825 6.07 1.5625 12 1.5625C17.93 1.5625 22.75 6.3825 22.75 12.3125C22.75 18.2425 17.93 23.0625 12 23.0625C6.07 23.0625 1.25 18.2425 1.25 12.3125ZM2.75 12.3125C2.75 17.4125 6.9 21.5625 12 21.5625C17.1 21.5625 21.25 17.4125 21.25 12.3125C21.25 7.2125 17.1 3.0625 12 3.0625C6.9 3.0625 2.75 7.2125 2.75 12.3125ZM16.17 6.0725C17.4 6.9025 18.36 8.0725 18.93 9.4425H18.92C19.49 10.8125 19.64 12.3225 19.35 13.7725C19.06 15.2325 18.35 16.5625 17.3 17.6125C16.25 18.6625 14.91 19.3825 13.46 19.6725C12.01 19.9625 10.5 19.8125 9.13 19.2425C7.76 18.6725 6.58 17.7125 5.76 16.4825C4.94 15.2425 4.5 13.7925 4.5 12.3125H12V4.8125C13.49 4.8125 14.94 5.2525 16.17 6.0725Z" fill="currentColor" fill-rule="evenodd"></path></svg>