<svg xmlns="http://www.w3.org/2000/svg" width="24" height="24" viewBox="0 0 24 24" fill="none" stroke-width="1.5" stroke-linecap="round" stroke-linejoin="round" color="currentColor"><path d="M2.50012 12C2.50012 7.52166 2.50012 5.28249 3.89136 3.89124C5.28261 2.5 7.52178 2.5 12.0001 2.5C16.4785 2.5 18.7176 2.5 20.1089 3.89124C21.5001 5.28249 21.5001 7.52166 21.5001 12C21.5001 16.4783 21.5001 18.7175 20.1089 20.1088C18.7176 21.5 16.4785 21.5 12.0001 21.5C7.52178 21.5 5.28261 21.5 3.89136 20.1088C2.50012 18.7175 2.50012 16.4783 2.50012 12Z" stroke="currentColor"></path><path d="M2.5 8H21.5" stroke="currentColor"></path><path d="M11 17H17M7 17H8" stroke="currentColor"></path><path d="M11 13H17M7 13H8" stroke="currentColor"></path></svg>