<svg xmlns="http://www.w3.org/2000/svg" width="24" height="24" viewBox="0 0 24 24" fill="none" stroke-width="1.5" stroke-linecap="round" stroke-linejoin="round" color="currentColor"><path d="M12 22.0723H11.9997C10.4899 22.0723 9.65993 22.0723 8.96997 21.6023C8.67997 21.4123 8.40996 21.1423 8.20996 20.8323C7.75 20.1623 7.75 19.3324 7.75 17.8227V17.8223V16.5723H6.5H6.49972C4.9899 16.5723 4.15993 16.5723 3.46997 16.1023C3.17997 15.9123 2.90996 15.6423 2.70996 15.3323C2.25 14.6623 2.25 13.8324 2.25 12.3226V12.3223V12.322C2.25 10.8122 2.25 9.98219 2.71997 9.29224C2.90997 9.00224 3.17999 8.73235 3.48999 8.53235C4.15999 8.07235 4.99 8.07227 6.5 8.07227H7.75V6.82227V6.82199C7.75 5.31216 7.75 4.48219 8.21997 3.79224C8.40997 3.50224 8.67999 3.23235 8.98999 3.03235C9.65999 2.57235 10.49 2.57227 12 2.57227H12.0003C13.5101 2.57227 14.3401 2.57227 15.03 3.04224C15.32 3.23224 15.59 3.50226 15.79 3.81226C16.25 4.4822 16.25 5.31212 16.25 6.82188V6.82227V8.07227H17.5H17.5003C19.0101 8.07227 19.8401 8.07227 20.53 8.54224C20.82 8.73224 21.09 9.00226 21.29 9.31226C21.75 9.9822 21.75 10.8121 21.75 12.3219V12.3223V12.3225C21.75 13.8324 21.75 14.6623 21.28 15.3523C21.09 15.6423 20.82 15.9123 20.51 16.1123C19.8401 16.5723 19.0101 16.5723 17.5004 16.5723H17.5H16.25V17.8223V17.8226C16.25 19.3324 16.25 20.1623 15.78 20.8523C15.59 21.1423 15.32 21.4123 15.01 21.6123C14.3401 22.0723 13.5101 22.0723 12.0004 22.0723H12ZM6.5 9.57227C5.33 9.57227 4.62006 9.57235 4.31006 9.78235C4.16006 9.87235 4.04997 9.9923 3.96997 10.1123C3.75 10.4423 3.75 11.1421 3.75 12.3218V12.3223V12.3229C3.75 13.5025 3.75 14.2024 3.95996 14.5123C4.04996 14.6623 4.17004 14.7723 4.29004 14.8523C4.61999 15.0723 5.31981 15.0723 6.49953 15.0723H6.5H7.75V12.3223C7.75 11.9123 8.09 11.5723 8.5 11.5723H14.75V8.82227V6.82227V6.82161C14.75 5.652 14.75 4.94227 14.54 4.63232C14.45 4.48232 14.33 4.37224 14.21 4.29224C13.88 4.07227 13.2202 4.07227 12.0005 4.07227H12C10.78 4.07227 10.1201 4.07235 9.81006 4.28235C9.66006 4.37235 9.54997 4.4923 9.46997 4.6123C9.25 4.94226 9.25 5.64208 9.25 6.8218V6.82227V8.07227H12C12.41 8.07227 12.75 8.41227 12.75 8.82227C12.75 9.23227 12.41 9.57227 12 9.57227H8.5H6.5ZM16.25 9.57227V12.3223C16.25 12.7323 15.91 13.0723 15.5 13.0723H9.25V15.8223V17.8223V17.8229C9.25 18.9925 9.25 19.7024 9.45996 20.0123C9.54996 20.1623 9.67004 20.2723 9.79004 20.3523C10.12 20.5723 10.8198 20.5723 11.9995 20.5723H12H12.0006C13.1803 20.5723 13.88 20.5723 14.1899 20.3623C14.3399 20.2723 14.45 20.1523 14.53 20.0323C14.75 19.7024 14.75 19.0025 14.75 17.8227V17.8223V16.5723H12C11.59 16.5723 11.25 16.2323 11.25 15.8223C11.25 15.4123 11.59 15.0723 12 15.0723H15.5H17.5H17.5007C18.6703 15.0723 19.38 15.0723 19.6899 14.8623C19.8399 14.7723 19.95 14.6523 20.03 14.5323C20.25 14.2024 20.25 13.5024 20.25 12.3227V12.3223V12.3216C20.25 11.142 20.25 10.4423 20.04 10.1323C19.95 9.98232 19.83 9.87224 19.71 9.79224C19.38 9.57227 18.6802 9.57227 17.5005 9.57227H17.5H16.25ZM10.25 5.83252C10.25 6.24252 10.59 6.58252 11 6.58252V6.59253C11.41 6.59253 11.75 6.25252 11.75 5.83252C11.75 5.41252 11.41 5.08252 11 5.08252C10.59 5.08252 10.25 5.42252 10.25 5.83252ZM12.25 18.8223C12.25 19.2323 12.59 19.5723 13 19.5723V19.5823C13.41 19.5823 13.75 19.2423 13.75 18.8223C13.75 18.4023 13.41 18.0723 13 18.0723C12.59 18.0723 12.25 18.4123 12.25 18.8223Z" fill="currentColor" fill-rule="evenodd"></path></svg>