<svg xmlns="http://www.w3.org/2000/svg" width="24" height="24" viewBox="0 0 24 24" fill="none"><path d="M2.5 8.18677C2.60406 6.08705 2.91537 4.77792 3.84664 3.84664C4.77792 2.91537 6.08705 2.60406 8.18677 2.5M21.5 8.18677C21.3959 6.08705 21.0846 4.77792 20.1534 3.84664C19.2221 2.91537 17.9129 2.60406 15.8132 2.5M15.8132 21.5C17.9129 21.3959 19.2221 21.0846 20.1534 20.1534C21.0846 19.2221 21.3959 17.9129 21.5 15.8132M8.18676 21.5C6.08705 21.3959 4.77792 21.0846 3.84664 20.1534C2.91537 19.2221 2.60406 17.9129 2.5 15.8132" stroke="currentColor" stroke-linecap="round" stroke-linejoin="round" stroke-width="1.5" /><path d="M8.23463 12.8478C8.60218 13 9.06812 13 10 13C10.9319 13 11.3978 13 11.7654 12.8478C12.2554 12.6448 12.6448 12.2554 12.8478 11.7654C13 11.3978 13 10.9319 13 10C13 9.06812 13 8.60218 12.8478 8.23463C12.6448 7.74458 12.2554 7.35523 11.7654 7.15224C11.3978 7 10.9319 7 10 7C9.06812 7 8.60218 7 8.23463 7.15224C7.74458 7.35523 7.35523 7.74458 7.15224 8.23463C7 8.60218 7 9.06812 7 10C7 10.9319 7 11.3978 7.15224 11.7654C7.35523 12.2554 7.74458 12.6448 8.23463 12.8478Z" stroke="currentColor" stroke-linecap="round" stroke-linejoin="round" stroke-width="1.5" /><path d="M17 7V7.01" stroke="currentColor" stroke-linecap="round" stroke-linejoin="round" stroke-width="1.5" /><path d="M17 11V13C17 14.8856 17 15.8284 16.4142 16.4142C15.8284 17 14.8856 17 13 17" stroke="currentColor" stroke-linecap="round" stroke-linejoin="round" stroke-width="1.5" /><path d="M9 17H7" stroke="currentColor" stroke-linecap="round" stroke-linejoin="round" stroke-width="1.5" /></svg>