<svg xmlns="http://www.w3.org/2000/svg" width="24" height="24" viewBox="0 0 24 24" fill="none"><path d="M22 7.28342C22 9.92499 19.7611 12.0668 17 12.0668C16.6753 12.0672 16.3516 12.0372 16.0327 11.9773C15.8031 11.9342 15.6883 11.9127 15.6082 11.9249C15.5281 11.9371 15.4145 11.9975 15.1874 12.1183C14.545 12.4599 13.7959 12.5806 13.0755 12.4466C13.3493 12.1098 13.5363 11.7057 13.6188 11.2725C13.6688 11.0075 13.545 10.7501 13.3594 10.5617C12.5166 9.70583 12 8.5526 12 7.28342C12 4.64184 14.2388 2.50006 17 2.50006C19.7611 2.50006 22 4.64184 22 7.28342Z" stroke="currentColor" stroke-linejoin="round" stroke-width="1.5" /><path d="M15.4922 7.50003H15.5003M18.4922 7.50003H18.5003" stroke="currentColor" stroke-linecap="round" stroke-width="1.5" /><path d="M7.50189 21.5H4.71817C4.39488 21.5 4.07021 21.4545 3.77327 21.3269C2.80666 20.9117 2.31624 20.3633 2.08769 20.0202C1.95764 19.825 1.97617 19.5764 2.11726 19.389C3.23716 17.9015 5.83846 17.003 7.50665 17.003C9.17484 17.003 11.7714 17.9015 12.8913 19.389C13.0324 19.5764 13.0509 19.825 12.9209 20.0202C12.6923 20.3633 12.2019 20.9117 11.2353 21.3269C10.9383 21.4545 10.6137 21.5 10.2904 21.5H7.50189Z" stroke="currentColor" stroke-linecap="round" stroke-linejoin="round" stroke-width="1.5" /><path d="M10.2854 11.7889C10.2854 13.3202 9.04129 14.5616 7.50664 14.5616C5.97199 14.5616 4.72791 13.3202 4.72791 11.7889C4.72791 10.2576 5.97199 9.01627 7.50664 9.01627C9.04129 9.01627 10.2854 10.2576 10.2854 11.7889Z" stroke="currentColor" stroke-linecap="round" stroke-linejoin="round" stroke-width="1.5" /></svg>