<svg xmlns="http://www.w3.org/2000/svg" width="24" height="24" viewBox="0 0 24 24" fill="none" stroke-width="1.5" stroke-linecap="round" stroke-linejoin="round" color="currentColor"><path d="M18 18H6C5.05719 18 4.58579 18 4.29289 17.7071C4 17.4142 4 16.9428 4 16C4 15.0572 4 14.5858 4.29289 14.2929C4.58579 14 5.05719 14 6 14H18C18.9428 14 19.4142 14 19.7071 14.2929C20 14.5858 20 15.0572 20 16C20 16.9428 20 17.4142 19.7071 17.7071C19.4142 18 18.9428 18 18 18Z" stroke="currentColor"></path><path d="M4 10H20" stroke="currentColor"></path><path d="M4 6H20" stroke="currentColor"></path></svg>