<svg xmlns="http://www.w3.org/2000/svg" width="24" height="24" viewBox="0 0 24 24" fill="none" stroke-width="1.5" stroke-linecap="round" stroke-linejoin="round" color="currentColor"><path d="M21 17H6.5C5.11929 17 4 18.1193 4 19.5C4 20.8807 5.11929 22 6.5 22H21" stroke="currentColor"></path><path d="M21 22C19.6193 22 18.5 20.8807 18.5 19.5C18.5 18.1193 19.6193 17 21 17" stroke="currentColor"></path><path d="M13.6716 6.67157L12.5 5.5L11.3284 6.67157H9.67157V8.32843L8.5 9.5L9.67157 10.6716V12.3284H11.3284L12.5 13.5L13.6716 12.3284H15.3284V10.6716L16.5 9.5L15.3284 8.32843V6.67157H13.6716Z" stroke="currentColor"></path><path d="M4 19.5V5.5C4 3.567 5.567 2 7.5 2H17.5C19.433 2 21 3.567 21 5.5V17" stroke="currentColor"></path></svg>