<svg xmlns="http://www.w3.org/2000/svg" width="24" height="24" viewBox="0 0 24 24" fill="none"><path d="M20.5 17H6C4.61929 17 3.5 18.1193 3.5 19.5C3.5 20.8807 4.61929 22 6 22H20.5" stroke="currentColor" stroke-linecap="round" stroke-width="1.5" /><path d="M20.5 22C19.1193 22 18 20.8807 18 19.5C18 18.1193 19.1193 17 20.5 17" stroke="currentColor" stroke-linecap="round" stroke-width="1.5" /><path d="M14.9337 10.9999C14.3684 11.9381 13.3397 12.5656 12.1645 12.5656C10.3802 12.5656 8.93375 11.1192 8.93375 9.33487C8.93375 8.15965 9.56125 7.13098 10.4995 6.56564" stroke="currentColor" stroke-linecap="round" stroke-width="1.5" /><path d="M13.5 8H13.509" stroke="currentColor" stroke-linecap="round" stroke-linejoin="round" stroke-width="2" /><path d="M3.5 19.5V5.5C3.5 3.567 5.067 2 7 2H17C18.933 2 20.5 3.567 20.5 5.5V17" stroke="currentColor" stroke-linecap="round" stroke-linejoin="round" stroke-width="1.5" /></svg>