<svg xmlns="http://www.w3.org/2000/svg" width="24" height="24" viewBox="0 0 24 24" fill="none" stroke-width="1.5" stroke-linecap="round" stroke-linejoin="round" color="currentColor"><path d="M3.75 12.25C3.75 7.69 7.44 4 12 4C16.56 4 20.25 7.69 20.25 12.25C20.25 16.81 16.56 20.5 12 20.5C7.44 20.5 3.75 16.81 3.75 12.25ZM12 2.5C6.62 2.5 2.25 6.87 2.25 12.25C2.25 17.63 6.62 22 12 22C17.38 22 21.75 17.63 21.75 12.25C21.75 6.87 17.38 2.5 12 2.5ZM8.75 12.25C8.75 10.46 10.21 9 12 9C13.79 9 15.25 10.46 15.25 12.25C15.25 14.04 13.79 15.5 12 15.5C10.21 15.5 8.75 14.04 8.75 12.25ZM12 7.5C9.38 7.5 7.25 9.63 7.25 12.25C7.25 14.87 9.38 17 12 17C14.62 17 16.75 14.87 16.75 12.25C16.75 9.63 14.62 7.5 12 7.5Z" fill="currentColor" fill-rule="evenodd"></path></svg>