<svg xmlns="http://www.w3.org/2000/svg" width="24" height="24" viewBox="0 0 24 24" fill="none" stroke-width="1.5" stroke-linecap="round" stroke-linejoin="round" color="currentColor"><path d="M2 13C2 9.70017 2 8.05025 2.87868 7.02513C3.75736 6 5.17157 6 8 6H16C18.8284 6 20.2426 6 21.1213 7.02513C22 8.05025 22 9.70017 22 13C22 16.2998 22 17.9497 21.1213 18.9749C20.2426 20 18.8284 20 16 20H8C5.17157 20 3.75736 20 2.87868 18.9749C2 17.9497 2 16.2998 2 13Z" stroke="currentColor"></path><path d="M7 15H7.00898" stroke="currentColor"></path><path d="M6 20V22M18 20V22" stroke="currentColor"></path><path d="M5 6L19 2" stroke="currentColor"></path><path d="M9 11H6" stroke="currentColor"></path><circle cx="15" cy="13" r="3" stroke="currentColor"></circle></svg>