<svg xmlns="http://www.w3.org/2000/svg" width="24" height="24" viewBox="0 0 24 24" fill="none" stroke-width="1.5" stroke-linecap="round" stroke-linejoin="round" color="currentColor"><path d="M18 2V4M6 2V4" stroke="currentColor"></path><path d="M2.5 12.2432C2.5 7.88594 2.5 5.70728 3.75212 4.35364C5.00424 3 7.01949 3 11.05 3H12.95C16.9805 3 18.9958 3 20.2479 4.35364C21.5 5.70728 21.5 7.88594 21.5 12.2432V12.7568C21.5 17.1141 21.5 19.2927 20.2479 20.6464C18.9958 22 16.9805 22 12.95 22H11.05C7.01949 22 5.00424 22 3.75212 20.6464C2.5 19.2927 2.5 17.1141 2.5 12.7568V12.2432Z" stroke="currentColor"></path><path d="M3 8H21" stroke="currentColor"></path><path d="M15 16.4343C14.4347 17.3725 13.406 18 12.2308 18C10.4465 18 9 16.5535 9 14.7692C9 13.594 9.6275 12.5653 10.5657 12" stroke="currentColor"></path><path d="M14 13H14.009" stroke="currentColor"></path></svg>