<svg xmlns="http://www.w3.org/2000/svg" width="24" height="24" viewBox="0 0 24 24" fill="none" stroke-width="1.5" stroke-linecap="round" stroke-linejoin="round" color="currentColor"><path d="M11.75 22.8047H19.75C20.16 22.8047 20.5 22.4647 20.5 22.0547C20.5 21.6447 20.16 21.3047 19.75 21.3047H11.75H11.7494C8.18981 21.3047 6.39995 21.3047 5.45 20.3547C4.5 19.4047 4.5 17.6147 4.5 14.0547V9.51465V9.51464C4.5 6.44465 4.5 4.90465 5.22 4.01465C5.36 3.83465 5.53 3.67466 5.71 3.52466C6.60996 2.80469 8.13987 2.80469 11.2096 2.80469H11.21C11.57 2.80469 11.82 2.8047 12 2.8147V3.05469V3.0547C12 6.08469 12 7.60484 13.1 8.70483C14.1999 9.80469 15.7196 9.80469 18.7488 9.80469H18.75H18.97C19 10.1647 19 10.6446 19 11.0546V11.0547C19 11.4647 19.34 11.8047 19.75 11.8047C20.16 11.8047 20.5 11.4647 20.5 11.0547C20.5 9.98469 20.49 9.31471 20.29 8.82471C20.09 8.33476 19.7401 7.98481 19.1102 7.35493L19.11 7.35474L14.37 2.61475C13.83 2.06475 13.53 1.76472 13.12 1.58472C13.11 1.58472 12.94 1.50464 12.94 1.50464C12.9299 1.49957 12.9204 1.49452 12.9112 1.48964C12.8842 1.47524 12.8599 1.4623 12.83 1.45483C12.38 1.30483 11.96 1.30469 11.21 1.30469C7.79 1.30469 6.08 1.30475 4.77 2.36475C4.51 2.57475 4.27 2.81471 4.06 3.07471C3 4.37471 3 6.09465 3 9.51465V14.0547C3 18.0347 3 20.0248 4.39 21.4148C5.77989 22.8047 7.76969 22.8047 11.7491 22.8047H11.75ZM14.16 7.64478C13.57 7.05478 13.5 5.94475 13.5 3.86475L17.94 8.30469C15.85 8.29469 14.75 8.23478 14.16 7.64478ZM16.7453 19.8047C16.7469 19.8047 16.7484 19.8047 16.75 19.8047H16.74C16.7418 19.8047 16.7435 19.8047 16.7453 19.8047ZM16.04 19.3047C16.1494 19.6131 16.4371 19.8028 16.7453 19.8047C16.824 19.8042 16.9118 19.794 16.99 19.7646C17.38 19.6246 17.59 19.1947 17.45 18.8047L15.7 13.8047C15.59 13.5047 15.31 13.3047 14.99 13.3047H14.49C14.17 13.3047 13.89 13.5047 13.78 13.8047L12.03 18.8047C11.89 19.2047 12.1 19.6246 12.49 19.7646C12.89 19.9046 13.31 19.6947 13.45 19.3047L13.8 18.3047H15.69L16.04 19.3047ZM14.75 15.6147L15.17 16.8047H14.33L14.75 15.6147ZM21.08 19.3848C21.21 19.6548 21.48 19.8047 21.75 19.8047C21.86 19.8047 21.97 19.7746 22.08 19.7246C22.46 19.5346 22.61 19.0846 22.42 18.7146L21.56 16.9946C22.12 16.6446 22.5 16.0147 22.5 15.3047C22.5 14.2047 21.6 13.3047 20.5 13.3047H18.75C18.34 13.3047 18 13.6447 18 14.0547V19.0547C18 19.4647 18.34 19.8047 18.75 19.8047C19.16 19.8047 19.5 19.4647 19.5 19.0547V17.3047H20.04L21.08 19.3848ZM20.51 15.8047H19.5V14.8047H20.5C20.78 14.8047 21 15.0347 21 15.3047C21 15.5747 20.78 15.8047 20.51 15.8047ZM10.08 19.3848C10.21 19.6548 10.48 19.8047 10.75 19.8047C10.86 19.8047 10.97 19.7746 11.08 19.7246C11.46 19.5346 11.61 19.0846 11.42 18.7146L10.56 16.9946C11.12 16.6446 11.5 16.0147 11.5 15.3047C11.5 14.2047 10.6 13.3047 9.5 13.3047H7.75C7.34 13.3047 7 13.6447 7 14.0547V19.0547C7 19.4647 7.34 19.8047 7.75 19.8047C8.16 19.8047 8.5 19.4647 8.5 19.0547V17.3047H9.04L10.08 19.3848ZM9.51 15.8047H8.5V14.8047H9.5C9.78 14.8047 10 15.0347 10 15.3047C10 15.5747 9.78 15.8047 9.51 15.8047Z" fill="currentColor" fill-rule="evenodd"></path></svg>