<svg xmlns="http://www.w3.org/2000/svg" width="24" height="24" viewBox="0 0 24 24" fill="none" stroke-width="1.5" stroke-linecap="round" stroke-linejoin="round" color="currentColor"><path d="M20 13.0547C20 13.4647 20.34 13.8047 20.75 13.8047C21.16 13.8047 21.5 13.4647 21.5 13.0547V10.7146C21.5 9.8246 21.5 9.33471 21.29 8.82471C21.09 8.33476 20.7401 7.98481 20.1102 7.35493L20.11 7.35474L15.37 2.61475C14.83 2.06475 14.53 1.76472 14.12 1.58472C14.11 1.58472 13.94 1.50464 13.94 1.50464C13.9299 1.49957 13.9204 1.49452 13.9112 1.48964C13.8842 1.47524 13.8599 1.4623 13.83 1.45483C13.38 1.30483 12.96 1.30469 12.21 1.30469C8.79 1.30469 7.08 1.30475 5.77 2.36475C5.51 2.57475 5.27 2.81471 5.06 3.07471C4 4.37471 4 6.09465 4 9.51465V13.0547C4 13.4647 4.34 13.8047 4.75 13.8047C5.16 13.8047 5.5 13.4647 5.5 13.0547V9.51465V9.51464C5.5 6.44465 5.5 4.90465 6.22 4.01465C6.36 3.83465 6.53 3.67466 6.71 3.52466C7.60996 2.80469 9.13987 2.80469 12.2096 2.80469H12.21C12.57 2.80469 12.82 2.8047 13 2.8147V3.05469V3.0547C13 6.08469 13 7.60484 14.1 8.70483C15.1999 9.80469 16.7196 9.80469 19.7488 9.80469H19.75H19.98C20 10.0147 20 10.2946 20 10.7146V13.0547ZM15.16 7.64478C14.57 7.05478 14.5 5.94475 14.5 3.86475L18.94 8.30469C16.85 8.29469 15.75 8.23478 15.16 7.64478ZM14.745 22.8047C14.7467 22.8047 14.7483 22.8047 14.75 22.8047H14.74C14.7417 22.8047 14.7433 22.8047 14.745 22.8047ZM14.03 22.2646C14.1295 22.5929 14.4269 22.8025 14.745 22.8047C14.8133 22.8042 14.8817 22.7942 14.95 22.7747C15.35 22.6547 15.58 22.2447 15.46 21.8447L13.71 15.8447C13.62 15.5247 13.32 15.3047 12.99 15.3047H12.49C12.16 15.3047 11.86 15.5247 11.77 15.8447L10.02 21.8447C9.9 22.2447 10.13 22.6547 10.53 22.7747C10.93 22.8947 11.34 22.6646 11.46 22.2646L11.89 20.8047H13.6L14.03 22.2646ZM13.16 19.3047H12.33H12.32L12.74 17.8748L13.16 19.3047ZM20.7457 22.8047C20.7471 22.8047 20.7486 22.8047 20.75 22.8047H20.74C20.7419 22.8047 20.7438 22.8047 20.7457 22.8047ZM20.13 22.4746C20.2692 22.6834 20.5071 22.8032 20.7457 22.8047C20.8935 22.8034 21.0316 22.7538 21.16 22.6748C21.51 22.4448 21.6 21.9748 21.37 21.6348L20.05 19.6548C20.9 19.3348 21.5 18.5147 21.5 17.5547C21.5 16.3147 20.49 15.3047 19.25 15.3047H17.25C16.84 15.3047 16.5 15.6447 16.5 16.0547V22.0547C16.5 22.4647 16.84 22.8047 17.25 22.8047C17.66 22.8047 18 22.4647 18 22.0547V19.8047H18.35L20.13 22.4746ZM19.25 18.3047H18.76H18.74H18V16.8047H19.25C19.66 16.8047 20 17.1447 20 17.5547C20 17.9647 19.66 18.3047 19.25 18.3047ZM8.2457 22.8047C8.24713 22.8047 8.24857 22.8047 8.25 22.8047H8.24C8.2419 22.8047 8.2438 22.8047 8.2457 22.8047ZM7.63 22.4746C7.76916 22.6834 8.00714 22.8032 8.2457 22.8047C8.39355 22.8034 8.53165 22.7538 8.66 22.6748C9.01 22.4448 9.1 21.9748 8.87 21.6348L7.55 19.6548C8.4 19.3348 9 18.5147 9 17.5547C9 16.3147 7.99 15.3047 6.75 15.3047H4.75C4.34 15.3047 4 15.6447 4 16.0547V22.0547C4 22.4647 4.34 22.8047 4.75 22.8047C5.16 22.8047 5.5 22.4647 5.5 22.0547V19.8047H5.85L7.63 22.4746ZM6.75 18.3047H6.26H6.24H5.5V16.8047H6.75C7.16 16.8047 7.5 17.1447 7.5 17.5547C7.5 17.9647 7.16 18.3047 6.75 18.3047Z" fill="currentColor" fill-rule="evenodd"></path></svg>