<svg xmlns="http://www.w3.org/2000/svg" width="24" height="24" viewBox="0 0 24 24" fill="none" stroke-width="1.5" stroke-linecap="round" stroke-linejoin="round" color="currentColor"><path d="M10.5422 22.4625C11.1122 22.8225 11.4922 23.0625 11.9922 23.0625C12.4922 23.0625 12.8722 22.8325 13.4522 22.4625L15.3622 21.2625C15.3743 21.255 15.3868 21.2472 15.3997 21.2392C15.6116 21.1079 15.9268 20.9125 16.0022 20.9125C16.0822 20.9225 16.3722 21.1025 16.6222 21.2625C16.6438 21.2769 16.6666 21.2919 16.6903 21.3075C16.7651 21.3567 16.8486 21.4117 16.9322 21.4725L16.9332 21.4732C17.6634 21.9833 18.8927 22.8422 19.9422 22.1625C20.7522 21.6425 20.7522 20.6925 20.7522 18.9625V8.3125C20.7522 5.2925 20.7522 3.7725 19.7222 2.6825C18.6722 1.5625 17.1322 1.5625 14.3522 1.5625H9.64219C6.85219 1.5625 5.32219 1.5625 4.27219 2.6725C3.24219 3.7725 3.24219 5.2925 3.24219 8.3125V18.9525C3.24219 20.6825 3.24219 21.6325 4.05219 22.1525C5.10654 22.8289 6.3192 21.9816 7.05049 21.4707L7.06219 21.4625C7.12649 21.4196 7.18505 21.3796 7.2394 21.3425C7.28649 21.3104 7.33041 21.2803 7.37219 21.2525C7.38427 21.245 7.39682 21.2372 7.40975 21.2292C7.62157 21.0979 7.93679 20.9025 8.01219 20.9025C8.09219 20.9125 8.38219 21.0925 8.63219 21.2525L10.5422 22.4625ZM11.3533 21.2058L11.3322 21.1925V21.2025L9.42219 19.9925L9.40374 19.9809C8.87394 19.6473 8.51681 19.4224 8.05219 19.4125C7.52219 19.3925 7.11219 19.6425 6.56219 19.9925C6.45219 20.0625 6.33219 20.1425 6.19219 20.2425C5.26219 20.8925 4.95219 20.9625 4.87219 20.9125C4.74219 20.7325 4.74219 19.8325 4.74219 18.9625V8.3125C4.74219 5.6825 4.74219 4.3625 5.36219 3.7025C5.94219 3.0825 7.02219 3.0625 9.63219 3.0625H14.3422C16.9522 3.0625 18.0322 3.0825 18.6122 3.7025C19.2322 4.3625 19.2322 5.6825 19.2322 8.3125V18.9625C19.2322 19.8325 19.2322 20.7325 19.1122 20.8925C19.0222 20.9525 18.7122 20.8825 17.7822 20.2325C17.6422 20.1325 17.5222 20.0525 17.4122 19.9825L17.3937 19.9709C16.8639 19.6373 16.5068 19.4124 16.0422 19.4025C15.5122 19.3825 15.1022 19.6325 14.5522 19.9825L12.6322 21.1925C12.3722 21.3625 12.0622 21.5625 11.9822 21.5625C11.9043 21.5528 11.6177 21.3723 11.3533 21.2058ZM11.2422 16.3125C11.2422 16.7225 11.5822 17.0625 11.9922 17.0625C12.4022 17.0625 12.7422 16.7225 12.7422 16.3125V15.5625H13.4922C14.7322 15.5625 15.7422 14.5525 15.7422 13.3125V12.8125C15.7422 11.5725 14.7322 10.5625 13.4922 10.5625H10.4922C10.0822 10.5625 9.74219 10.2225 9.74219 9.8125V9.3125C9.74219 8.9025 10.0822 8.5625 10.4922 8.5625H13.4922C13.9022 8.5625 14.2422 8.9025 14.2422 9.3125C14.2422 9.7225 14.5822 10.0625 14.9922 10.0625C15.4022 10.0625 15.7422 9.7225 15.7422 9.3125C15.7422 8.0725 14.7322 7.0625 13.4922 7.0625H12.7422V6.3125C12.7422 5.9025 12.4022 5.5625 11.9922 5.5625C11.5822 5.5625 11.2422 5.9025 11.2422 6.3125V7.0625H10.4922C9.25219 7.0625 8.24219 8.0725 8.24219 9.3125V9.8125C8.24219 11.0525 9.25219 12.0625 10.4922 12.0625H13.4922C13.9022 12.0625 14.2422 12.4025 14.2422 12.8125V13.3125C14.2422 13.7225 13.9022 14.0625 13.4922 14.0625H10.4922C10.0822 14.0625 9.74219 13.7225 9.74219 13.3125C9.74219 12.9025 9.40219 12.5625 8.99219 12.5625C8.58219 12.5625 8.24219 12.9025 8.24219 13.3125C8.24219 14.5525 9.25219 15.5625 10.4922 15.5625H11.2422V16.3125Z" fill="currentColor" fill-rule="evenodd"></path></svg>