<svg xmlns="http://www.w3.org/2000/svg" width="24" height="24" viewBox="0 0 24 24" fill="none"><path d="M8.06805 2.72546L7.89604 2.86189C7.71084 3.00878 7.61823 3.08223 7.52605 3.12852C7.20698 3.28874 6.8259 3.26781 6.52663 3.07364C6.44017 3.01754 6.35631 2.93441 6.1886 2.76813C5.78856 2.37152 5.58853 2.17321 5.43777 2.10043C4.89824 1.83999 4.25045 2.10601 4.0547 2.6684C4 2.82556 4 3.10601 4 3.66691V20.698C4 20.9548 4 21.0832 4.01158 21.158C4.12554 21.8938 4.98624 22.2473 5.59159 21.8069C5.65313 21.7621 5.74474 21.6713 5.92789 21.4897C6.0431 21.3755 6.10079 21.3183 6.15539 21.2735C6.66242 20.8578 7.38352 20.8182 7.93376 21.1759C7.99303 21.2144 8.05667 21.2649 8.18395 21.3658L8.32009 21.4738C8.55044 21.6565 8.66564 21.7479 8.78105 21.8104C9.22912 22.053 9.77088 22.053 10.219 21.8104C10.3344 21.7479 10.4495 21.6565 10.6799 21.4738L10.75 21.4182C11.047 21.1827 11.1955 21.0649 11.3484 20.9918C11.7601 20.7949 12.2399 20.7949 12.6516 20.9918C12.8045 21.0649 12.953 21.1827 13.25 21.4182L13.3201 21.4738C13.5505 21.6565 13.6656 21.7479 13.781 21.8104C14.2291 22.053 14.7709 22.053 15.219 21.8104C15.3344 21.7479 15.4496 21.6565 15.6799 21.4738L15.816 21.3658C15.9433 21.2649 16.007 21.2144 16.0662 21.1759C16.6165 20.8182 17.3376 20.8578 17.8446 21.2735C17.8992 21.3183 17.9569 21.3755 18.0721 21.4897C18.2553 21.6713 18.3469 21.7621 18.4084 21.8069C19.0138 22.2473 19.8745 21.8938 19.9884 21.158C20 21.0832 20 20.9548 20 20.698V3.66691C20 3.10601 20 2.82556 19.9453 2.6684C19.7495 2.10601 19.1018 1.83999 18.5622 2.10043C18.4115 2.17321 18.2114 2.37152 17.8114 2.76813C17.6437 2.93441 17.5598 3.01754 17.4734 3.07364C17.1741 3.26781 16.793 3.28874 16.4739 3.12852C16.3818 3.08223 16.2892 3.00878 16.104 2.86189L15.932 2.72546C15.4614 2.35223 15.2261 2.16562 14.9695 2.08178C14.6646 1.98214 14.3354 1.98214 14.0305 2.08178C13.7739 2.16562 13.5386 2.35224 13.068 2.72546L13 2.77943C12.6428 3.06273 12.4642 3.20438 12.2661 3.2586C12.092 3.30627 11.908 3.30627 11.7339 3.2586C11.5358 3.20438 11.3572 3.06273 11 2.77943L10.932 2.72546C10.4614 2.35223 10.2261 2.16562 9.96953 2.08178C9.66458 1.98214 9.33542 1.98214 9.03047 2.08178C8.7739 2.16562 8.53862 2.35223 8.06805 2.72546Z" stroke="currentColor" stroke-linecap="round" stroke-linejoin="round" stroke-width="1.5" /><path d="M9 8C9.2 8.9167 10.08 10.5 12 11.5M12 11.5C13.92 10.5 14.8 8.9167 15 8M12 11.5V17.0002M14.5 13.6827H9.5" stroke="currentColor" stroke-linecap="round" stroke-linejoin="round" stroke-width="1.5" /></svg>