<svg xmlns="http://www.w3.org/2000/svg" width="24" height="24" viewBox="0 0 24 24" fill="none" stroke-width="1.5" stroke-linecap="round" stroke-linejoin="round" color="currentColor"><path d="M12.7578 21.7988C7.37781 21.7988 3.00781 17.4288 3.00781 12.0488C3.00781 6.66883 7.37781 2.29883 12.7578 2.29883C15.7878 2.29883 18.6078 3.68883 20.4478 6.04883C20.4778 5.75883 20.5078 5.42882 20.5378 5.03882L20.7178 2.98877C20.7578 2.57877 21.1178 2.27884 21.5278 2.30884C21.9378 2.34884 22.2478 2.7089 22.2078 3.1189L22.0278 5.16895C21.8978 6.78895 21.8278 7.68884 21.1178 8.30884C20.3778 8.92884 19.4478 8.84896 17.9278 8.68896L15.8878 8.47876C15.4778 8.43876 15.1778 8.06894 15.2178 7.65894C15.2578 7.24894 15.6278 6.93877 16.0378 6.98877L18.0778 7.19897C18.6778 7.25897 19.1478 7.30884 19.4978 7.30884C17.9378 5.10884 15.4478 3.80884 12.7478 3.80884C8.19781 3.80884 4.49781 7.50884 4.49781 12.0588C4.49781 16.6088 8.19781 20.3088 12.7478 20.3088C17.2978 20.3088 20.9978 16.6088 20.9978 12.0588C20.9978 11.6488 21.3378 11.3088 21.7478 11.3088C22.1578 11.3088 22.4978 11.6488 22.4978 12.0588C22.4978 17.4388 18.1278 21.8088 12.7478 21.8088L12.7578 21.7988Z" fill="currentColor"></path></svg>