<svg xmlns="http://www.w3.org/2000/svg" width="24" height="24" viewBox="0 0 24 24" fill="none" stroke-width="1.5" stroke-linecap="round" stroke-linejoin="round" color="currentColor"><path d="M20.9922 2.5625C20.5822 2.5625 20.2422 2.9025 20.2422 3.3125V4.5925C20.2422 5.6625 20.2422 6.4525 20.1622 7.0225C18.3722 4.2725 15.2922 2.5625 11.9922 2.5625C6.61219 2.5625 2.24219 6.9325 2.24219 12.3125C2.24219 17.6925 6.61219 22.0625 11.9922 22.0625C12.4022 22.0625 12.7422 21.7225 12.7422 21.3125C12.7422 20.9025 12.4022 20.5625 11.9922 20.5625C7.44219 20.5625 3.74219 16.8625 3.74219 12.3125C3.74219 7.7625 7.44219 4.0625 11.9922 4.0625C14.8922 4.0625 17.6022 5.6125 19.0922 8.1125C18.5022 8.1325 17.6322 7.9925 16.4522 7.7925L15.1122 7.5725C14.7022 7.5025 14.3222 7.7825 14.2522 8.1925C14.1822 8.6025 14.4622 8.9825 14.8722 9.0525L16.2122 9.2725C17.3722 9.4625 18.2622 9.6125 18.9922 9.6125C19.7222 9.6125 20.2822 9.4625 20.7722 9.0525C21.7522 8.2325 21.7522 6.9325 21.7522 4.5925V3.3125C21.7522 2.9025 21.4122 2.5625 21.0022 2.5625H20.9922Z" fill="currentColor"></path></svg>