<svg xmlns="http://www.w3.org/2000/svg" width="24" height="24" viewBox="0 0 24 24" fill="none"><path d="M12 12H22M12 8H22M12 16H17" stroke="currentColor" stroke-linecap="round" stroke-linejoin="round" stroke-width="1.5" /><path d="M5.00002 10L5.00002 10.75L5.00002 10ZM2.60389 6.55526C2.35826 6.22174 1.88876 6.15049 1.55524 6.39613C1.22172 6.64177 1.15047 7.11127 1.39611 7.44479L2 7.00002L2.60389 6.55526ZM8.6039 7.44475C8.84953 7.11123 8.77828 6.64173 8.44475 6.3961C8.11123 6.15047 7.64173 6.22172 7.3961 6.55525L8 7L8.6039 7.44475ZM5.75 3.5C5.75 3.08578 5.41421 2.75 5 2.75C4.58578 2.75 4.25 3.08579 4.25 3.5L5 3.5L5.75 3.5ZM4.25002 9.50003C4.25002 9.91424 4.58581 10.25 5.00003 10.25C5.41424 10.25 5.75002 9.91423 5.75002 9.50002L5.00002 9.50002L4.25002 9.50003ZM5.00002 10L5.00003 9.25C5.11008 9.25 5.134 9.29066 5.03135 9.22878C4.9493 9.17931 4.83611 9.09447 4.69435 8.96921C4.41255 8.72022 4.08733 8.37392 3.76987 8.0083C3.45566 7.6464 3.16343 7.28231 2.94884 7.00734C2.84185 6.87025 2.75488 6.75624 2.69495 6.67689C2.665 6.63724 2.64184 6.6063 2.62637 6.58553C2.61863 6.57515 2.61281 6.56731 2.60903 6.56221C2.60714 6.55965 2.60575 6.55778 2.60489 6.55662C2.60446 6.55603 2.60416 6.55563 2.604 6.5554C2.60391 6.55529 2.60386 6.55522 2.60384 6.55519C2.60383 6.55518 2.60385 6.5552 2.60384 6.55519C2.60386 6.55522 2.60389 6.55526 2 7.00002C1.39611 7.44479 1.39615 7.44485 1.39621 7.44492C1.39624 7.44496 1.3963 7.44505 1.39636 7.44513C1.39648 7.44528 1.39663 7.44549 1.39681 7.44574C1.39718 7.44624 1.39768 7.44692 1.39832 7.44778C1.39958 7.4495 1.40138 7.45193 1.4037 7.45505C1.40832 7.4613 1.41501 7.47031 1.42365 7.4819C1.44092 7.50507 1.466 7.53858 1.49801 7.58096C1.562 7.66568 1.65382 7.78603 1.76632 7.93019C1.99072 8.21772 2.30026 8.60362 2.63723 8.99172C2.97096 9.37609 3.34634 9.77979 3.70115 10.0933C3.8777 10.2493 4.06684 10.3988 4.25693 10.5134C4.42643 10.6156 4.69233 10.75 5.00002 10.75L5.00002 10ZM8 7C7.3961 6.55525 7.39613 6.55521 7.39615 6.55518C7.39615 6.55518 7.39616 6.55517 7.39615 6.55518C7.39613 6.5552 7.39608 6.55527 7.396 6.55539C7.39583 6.55561 7.39553 6.55602 7.3951 6.5566C7.39424 6.55777 7.39286 6.55964 7.39096 6.56219C7.38718 6.5673 7.38137 6.57514 7.37363 6.58552C7.35815 6.60629 7.33499 6.63723 7.30504 6.67688C7.24512 6.75622 7.15814 6.87024 7.05116 7.00733C6.83658 7.2823 6.54436 7.6464 6.23014 8.0083C5.91269 8.37392 5.58748 8.72022 5.30568 8.96922C5.16392 9.09447 5.05074 9.17932 4.96869 9.22878C4.86605 9.29066 4.88997 9.25 5.00003 9.25L5.00002 10L5.00002 10.75C5.30771 10.75 5.57361 10.6156 5.74312 10.5134C5.93321 10.3988 6.12234 10.2493 6.29889 10.0933C6.6537 9.77978 7.02907 9.37608 7.3628 8.99171C7.69976 8.6036 8.0093 8.2177 8.23369 7.93017C8.34619 7.78601 8.43801 7.66565 8.502 7.58093C8.534 7.53855 8.55909 7.50504 8.57636 7.48186C8.585 7.47027 8.59169 7.46126 8.59631 7.45502C8.59862 7.4519 8.60042 7.44946 8.60169 7.44775C8.60233 7.44689 8.60283 7.44621 8.6032 7.44571C8.60338 7.44546 8.60353 7.44525 8.60365 7.44509C8.60371 7.44501 8.60377 7.44493 8.6038 7.44489C8.60385 7.44482 8.6039 7.44475 8 7ZM5 3.5L4.25 3.5L4.25002 9.50003L5.00002 9.50002L5.75002 9.50002L5.75 3.5L5 3.5Z" fill="currentColor" /><path d="M4.99998 14L4.99997 14.75H4.99997L4.99998 14ZM7.39611 17.4447C7.64174 17.7783 8.11124 17.8495 8.44476 17.6039C8.77828 17.3582 8.84953 16.8887 8.60389 16.5552L8 17L7.39611 17.4447ZM1.3961 16.5552C1.15047 16.8888 1.22172 17.3583 1.55525 17.6039C1.88877 17.8495 2.35827 17.7783 2.6039 17.4448L2 17L1.3961 16.5552ZM5.74995 14.5C5.74995 14.0858 5.41417 13.75 4.99995 13.75C4.58574 13.75 4.24995 14.0858 4.24995 14.5H4.99995H5.74995ZM4.24995 20.5C4.24995 20.9142 4.58574 21.25 4.99995 21.25C5.41417 21.25 5.74995 20.9142 5.74995 20.5H4.99995H4.24995ZM4.99998 14L4.99997 14.75C4.88992 14.75 4.866 14.7093 4.96865 14.7712C5.0507 14.8207 5.16389 14.9055 5.30565 15.0308C5.58745 15.2798 5.91267 15.6261 6.23013 15.9917C6.54434 16.3536 6.83657 16.7177 7.05116 16.9927C7.15815 17.1297 7.24512 17.2438 7.30505 17.3231C7.335 17.3628 7.35816 17.3937 7.37363 17.4145C7.38137 17.4248 7.38719 17.4327 7.39097 17.4378C7.39286 17.4403 7.39425 17.4422 7.39511 17.4434C7.39554 17.444 7.39584 17.4444 7.396 17.4446C7.39609 17.4447 7.39614 17.4448 7.39616 17.4448C7.39617 17.4448 7.39615 17.4448 7.39616 17.4448C7.39614 17.4448 7.39611 17.4447 8 17C8.60389 16.5552 8.60385 16.5552 8.60379 16.5551C8.60376 16.555 8.6037 16.555 8.60364 16.5549C8.60352 16.5547 8.60337 16.5545 8.60319 16.5543C8.60282 16.5538 8.60232 16.5531 8.60168 16.5522C8.60042 16.5505 8.59862 16.5481 8.5963 16.5449C8.59168 16.5387 8.58499 16.5297 8.57635 16.5181C8.55908 16.4949 8.534 16.4614 8.50199 16.419C8.438 16.3343 8.34618 16.214 8.23368 16.0698C8.00928 15.7823 7.69974 15.3964 7.36277 15.0083C7.02904 14.6239 6.65366 14.2202 6.29885 13.9067C6.1223 13.7507 5.93316 13.6012 5.74307 13.4866C5.57357 13.3844 5.30767 13.25 4.99998 13.25L4.99998 14ZM2 17C2.6039 17.4448 2.60387 17.4448 2.60385 17.4448C2.60385 17.4448 2.60384 17.4448 2.60385 17.4448C2.60387 17.4448 2.60392 17.4447 2.604 17.4446C2.60417 17.4444 2.60447 17.444 2.6049 17.4434C2.60576 17.4422 2.60714 17.4404 2.60904 17.4378C2.61282 17.4327 2.61863 17.4249 2.62637 17.4145C2.64185 17.3937 2.66501 17.3628 2.69496 17.3231C2.75488 17.2438 2.84186 17.1298 2.94884 16.9927C3.16342 16.7177 3.45564 16.3536 3.76986 15.9917C4.08731 15.6261 4.41252 15.2798 4.69432 15.0308C4.83608 14.9055 4.94926 14.8207 5.03131 14.7712C5.13395 14.7093 5.11003 14.75 4.99997 14.75L4.99998 14L4.99998 13.25C4.69229 13.25 4.42638 13.3844 4.25688 13.4866C4.06679 13.6012 3.87766 13.7507 3.70111 13.9067C3.3463 14.2202 2.97093 14.6239 2.6372 15.0083C2.30024 15.3964 1.9907 15.7823 1.76631 16.0698C1.65381 16.214 1.56199 16.3343 1.498 16.4191C1.466 16.4614 1.44091 16.495 1.42364 16.5181C1.415 16.5297 1.40831 16.5387 1.40369 16.545C1.40138 16.5481 1.39958 16.5505 1.39831 16.5523C1.39767 16.5531 1.39717 16.5538 1.3968 16.5543C1.39662 16.5545 1.39647 16.5547 1.39635 16.5549C1.39629 16.555 1.39623 16.5551 1.3962 16.5551C1.39615 16.5552 1.3961 16.5552 2 17ZM4.99995 14.5H4.24995V20.5H4.99995H5.74995V14.5H4.99995Z" fill="currentColor" /></svg>