<svg xmlns="http://www.w3.org/2000/svg" width="24" height="24" viewBox="0 0 24 24" fill="none"><path d="M3.05493 13C3.01863 12.6717 3 12.338 3 12C3 7.02944 7.02944 3 12 3C14.8273 3 17.35 4.30367 19 6.34267M20.9451 11C20.9814 11.3283 21 11.662 21 12C21 16.9706 16.9706 21 12 21C9.17273 21 6.64996 19.6963 5 17.6573" stroke="currentColor" stroke-linecap="round" stroke-linejoin="round" stroke-width="1.5" /><path d="M16 7H17C18.4142 7 19.1213 7 19.5607 6.56066C20 6.12132 20 5.41421 20 4V3" stroke="currentColor" stroke-linecap="round" stroke-linejoin="round" stroke-width="1.5" /><path d="M8 17H7C5.58579 17 4.87868 17 4.43934 17.4393C4 17.8787 4 18.5858 4 20V21" stroke="currentColor" stroke-linecap="round" stroke-linejoin="round" stroke-width="1.5" /></svg>