<svg xmlns="http://www.w3.org/2000/svg" width="24" height="24" viewBox="0 0 24 24" fill="none" stroke-width="1.5" stroke-linecap="round" stroke-linejoin="round" color="currentColor"><path d="M5 6C5 4.11438 5 3.17157 5.58579 2.58579C6.17157 2 7.11438 2 9 2H15C16.8856 2 17.8284 2 18.4142 2.58579C19 3.17157 19 4.11438 19 6V20C19 20.9428 19 21.4142 18.7071 21.7071C18.4142 22 17.9428 22 17 22H7C6.05719 22 5.58579 22 5.29289 21.7071C5 21.4142 5 20.9428 5 20V6Z" stroke="currentColor"></path><path d="M8 7H8.00898" stroke="currentColor"></path><path d="M8 13H8.00898" stroke="currentColor"></path><path d="M5 10H19" stroke="currentColor"></path></svg>