<svg xmlns="http://www.w3.org/2000/svg" width="24" height="24" viewBox="0 0 24 24" fill="none"><path d="M12.9474 19C12.8695 20.0216 12.6757 20.6899 12.1945 21.1799C11.3891 22 10.0927 22 7.5 22C4.90728 22 3.61091 22 2.80546 21.1799C2 20.3598 2 19.0398 2 16.4V11.6C2 8.96011 2 7.64018 2.80546 6.82007C3.29517 6.32146 3.96634 6.126 5 6.04938" stroke="currentColor" stroke-linecap="round" stroke-width="1.5" /><path d="M7.49199 19.0005H7.50098" stroke="currentColor" stroke-linecap="round" stroke-linejoin="round" stroke-width="2" /><path d="M16.0785 2.00055H13.9215C11.0208 2.00055 9.57048 2.00055 8.70959 2.9038C7.8487 3.80705 7.93917 5.23383 8.12011 8.08738L8.24595 10.0721C8.28754 10.7279 8.30833 11.0558 8.38194 11.3293C8.66622 12.3855 9.53533 13.1903 10.6225 13.4041C10.904 13.4594 11.2373 13.4594 11.904 13.4594C12.8328 13.4594 12.8202 14.2266 12.8202 14.9859C12.8202 15.575 12.8202 15.8695 13.0121 15.9708C13.204 16.072 13.4526 15.9086 13.9499 15.5818L16.9093 13.6372C17.1029 13.5099 17.2769 13.4594 17.5048 13.4594C18.727 13.4594 19.3381 13.4594 19.8333 13.2756C21.5492 12.6385 21.6918 11.0531 21.7909 9.4905L21.8799 8.08738C22.0608 5.23383 22.1513 3.80705 21.2904 2.9038C20.4295 2.00055 18.9792 2.00055 16.0785 2.00055Z" stroke="currentColor" stroke-linejoin="round" stroke-width="1.5" /><path d="M13.8342 8.42912C11.4258 6.71484 14.9993 5.00055 14.9993 5.00055C14.9993 5.00055 18.5746 6.71484 16.1663 8.42912M13.8342 8.42912H16.1663M13.8342 8.42912L13.2507 11.0005M16.1663 8.42912L16.9821 11.0005" stroke="currentColor" stroke-linecap="round" stroke-linejoin="round" stroke-width="1.5" /></svg>