<svg xmlns="http://www.w3.org/2000/svg" width="24" height="24" viewBox="0 0 24 24" fill="none" stroke-width="1.5" stroke-linecap="round" stroke-linejoin="round" color="currentColor"><path d="M2.90537 21.9975H13.0954L13.0854 22.0276C13.4954 22.0276 13.8354 21.6876 13.8354 21.2776C13.8354 20.8676 13.4954 20.5276 13.0854 20.5276H2.89537C2.80537 20.5276 2.73537 20.4775 2.73537 20.4675C3.01537 19.3475 3.88537 18.4375 4.98537 18.1075L8.70538 16.9875C9.01538 16.8875 9.23537 16.5976 9.23537 16.2676V14.1075C9.23537 13.7375 8.95537 13.4175 8.57537 13.3675C7.65537 13.2475 6.79537 13.0776 6.00537 12.8376C6.40537 11.7776 6.73537 10.1975 6.73537 7.37754C6.73537 5.19754 7.57537 3.70761 9.08537 3.19761C10.4054 2.74761 11.8654 3.19756 12.3954 3.89756C12.5654 4.12756 12.8354 4.2276 13.1154 4.1876C13.8054 4.0776 14.2954 4.13755 14.5854 4.38755C15.2454 4.94755 15.2454 6.60753 15.2454 8.36753C15.2454 10.2175 15.6354 11.8176 15.9954 12.8276C15.2054 13.0676 14.3354 13.2375 13.4054 13.3575C13.0254 13.3975 12.7454 13.7175 12.7454 14.0975V16.2575C12.7454 16.6675 13.0854 17.0075 13.4954 17.0075C13.9054 17.0075 14.2454 16.6675 14.2454 16.2575V14.7475C15.3354 14.5775 16.3454 14.3175 17.2554 13.9775C17.4554 13.8975 17.6154 13.7476 17.6954 13.5476C17.7754 13.3476 17.7654 13.1276 17.6654 12.9376C17.3454 12.3076 16.7454 10.5675 16.7454 8.35752C16.7454 6.14752 16.7454 4.23752 15.5554 3.22752C14.9954 2.73752 14.2454 2.55755 13.2954 2.63755C12.2054 1.57755 10.2854 1.19755 8.61538 1.75755C7.60537 2.09755 5.24537 3.32752 5.24537 7.35752C5.24537 10.6575 4.77537 12.0276 4.32537 12.9276C4.22537 13.1176 4.21538 13.3376 4.29538 13.5376C4.37538 13.7376 4.53537 13.8975 4.73537 13.9675C5.64537 14.3075 6.65537 14.5675 7.74537 14.7375V15.6876L4.56537 16.6476C2.96537 17.1276 1.70538 18.4376 1.29538 20.0676C1.18538 20.5276 1.27537 20.9875 1.56537 21.3575C1.87537 21.7575 2.37537 21.9975 2.90537 21.9975ZM21.4753 22.7776C21.6253 22.9276 21.8153 22.9975 22.0053 22.9975C22.1953 22.9975 22.3853 22.9276 22.5353 22.7776C22.8253 22.4876 22.8253 22.0075 22.5353 21.7175L20.5653 19.7475L22.5353 17.7776C22.8253 17.4876 22.8253 17.0075 22.5353 16.7175C22.2453 16.4275 21.7653 16.4275 21.4753 16.7175L19.5053 18.6876L17.5353 16.7175C17.2453 16.4275 16.7653 16.4275 16.4753 16.7175C16.1853 17.0075 16.1853 17.4876 16.4753 17.7776L18.4453 19.7475L16.4753 21.7175C16.1853 22.0075 16.1853 22.4876 16.4753 22.7776C16.7653 23.0676 17.2453 23.0676 17.5353 22.7776L19.5053 20.8076L21.4753 22.7776Z" fill="currentColor" fill-rule="evenodd"></path></svg>