<svg xmlns="http://www.w3.org/2000/svg" width="24" height="24" viewBox="0 0 24 24" fill="none" stroke-width="1.5" stroke-linecap="round" stroke-linejoin="round" color="currentColor"><path d="M2.90537 22.0042H14.0854C14.4954 22.0042 14.8354 21.6642 14.8354 21.2542C14.8354 20.8442 14.4954 20.5042 14.0854 20.5042H2.89537C2.80537 20.5042 2.73537 20.4542 2.73537 20.4442C3.01537 19.3242 3.88537 18.4142 4.98537 18.0842L8.70538 16.9642C9.01538 16.8642 9.23537 16.5741 9.23537 16.2441V14.3042C9.23537 14.0742 9.12537 13.8542 8.94537 13.7142C7.27537 12.4042 6.23537 10.9342 6.23537 7.66418C6.23537 4.65418 7.73537 2.99414 10.4754 2.99414C12.2169 2.99414 12.9384 3.71712 12.965 3.7438L12.9654 3.74414C13.1054 3.90414 13.3154 3.99414 13.5254 3.99414C14.8854 3.99414 15.7354 4.60418 15.7354 7.66418C15.7354 10.9442 14.6954 12.4042 13.0254 13.7142C12.8454 13.8542 12.7354 14.0742 12.7354 14.3042V16.2441C12.7354 16.6541 13.0754 16.9941 13.4854 16.9941C13.8954 16.9941 14.2354 16.6541 14.2354 16.2441V14.6642C15.8254 13.3542 17.2354 11.5342 17.2354 7.66418C17.2354 6.29418 17.2354 2.70415 13.8254 2.50415C13.3654 2.13415 12.3154 1.49414 10.4854 1.49414C6.89537 1.49414 4.74537 3.79418 4.74537 7.66418C4.74537 11.5342 6.15537 13.3542 7.74537 14.6642V15.6842L4.56537 16.6442C2.96537 17.1342 1.70538 18.4442 1.29538 20.0742C1.18538 20.5342 1.27537 20.9941 1.56537 21.3641C1.87537 21.7641 2.37537 22.0042 2.90537 22.0042ZM21.4753 22.7834C21.6253 22.9334 21.8153 23.0034 22.0053 23.0034C22.1953 23.0034 22.3853 22.9334 22.5353 22.7834C22.8253 22.4934 22.8253 22.0134 22.5353 21.7234L20.5653 19.7534L22.5353 17.7834C22.8253 17.4934 22.8253 17.0134 22.5353 16.7234C22.2453 16.4334 21.7653 16.4334 21.4753 16.7234L19.5053 18.6935L17.5353 16.7234C17.2453 16.4334 16.7653 16.4334 16.4753 16.7234C16.1853 17.0134 16.1853 17.4934 16.4753 17.7834L18.4453 19.7534L16.4753 21.7234C16.1853 22.0134 16.1853 22.4934 16.4753 22.7834C16.7653 23.0734 17.2453 23.0734 17.5353 22.7834L19.5053 20.8134L21.4753 22.7834Z" fill="currentColor" fill-rule="evenodd"></path></svg>