<svg xmlns="http://www.w3.org/2000/svg" width="24" height="24" viewBox="0 0 24 24" fill="none" stroke-width="1.5" stroke-linecap="round" stroke-linejoin="round" color="currentColor"><path d="M22 10L22 3.36905C22 3.06549 21.7178 2.89221 21.52 3.07435L20 4.47421" stroke="currentColor"></path><path d="M14.3884 3L15.3913 3.97574C15.8393 4.41165 16.0633 4.62961 15.9844 4.81481C15.9056 5 15.5888 5 14.9552 5H9.19422C5.22096 5 2 8.13401 2 12C2 13.4872 2.47668 14.8662 3.2895 16" stroke="currentColor"></path><path d="M7.61156 21L6.60875 20.0243C6.16074 19.5883 5.93673 19.3704 6.01557 19.1852C6.09441 19 6.4112 19 7.04478 19H14.8058C18.2499 19 21.2943 16.6452 22 13.5" stroke="currentColor"></path></svg>