<svg xmlns="http://www.w3.org/2000/svg" width="24" height="24" viewBox="0 0 24 24" fill="none" stroke-width="1.5" stroke-linecap="round" stroke-linejoin="round" color="currentColor"><path d="M12 3.5V8.5H5C4.44772 8.5 4 8.05228 4 7.5V3.5C4 2.94772 4.44772 2.5 5 2.5H11C11.5523 2.5 12 2.94772 12 3.5Z" fill="none"></path><path d="M12 15.5V20.5C12 21.0523 11.5523 21.5 11 21.5H5C4.44772 21.5 4 21.0523 4 20.5V16.5C4 15.9477 4.44772 15.5 5 15.5H12Z" fill="none"></path><path d="M20 9.5V14.5C20 15.0523 19.5523 15.5 19 15.5H12V8.5H19C19.5523 8.5 20 8.94772 20 9.5Z" fill="none"></path></svg>