<svg xmlns="http://www.w3.org/2000/svg" width="24" height="24" viewBox="0 0 24 24" fill="none"><path d="M9.66294 20.1111C10 19.6067 10 18.9045 10 17.5C10 16.0955 10 15.3933 9.66294 14.8889C9.51702 14.6705 9.32952 14.483 9.11114 14.3371C8.60669 14 7.90446 14 6.5 14C5.09554 14 4.39331 14 3.88886 14.3371C3.67048 14.483 3.48298 14.6705 3.33706 14.8889C3 15.3933 3 16.0955 3 17.5C3 18.9045 3 19.6067 3.33706 20.1111C3.48298 20.3295 3.67048 20.517 3.88886 20.6629C4.39331 21 5.09554 21 6.5 21C7.90446 21 8.60669 21 9.11114 20.6629C9.32952 20.517 9.51702 20.3295 9.66294 20.1111Z" stroke="currentColor" stroke-linecap="round" stroke-linejoin="round" stroke-width="1.5" /><path d="M19.5559 3C19.8034 3.05129 20.0058 3.12947 20.1841 3.24863C20.4086 3.39863 20.6014 3.59137 20.7514 3.81586C20.8705 3.99419 20.9487 4.19657 21 4.44408M19.5559 10C19.8034 9.94871 20.0058 9.87053 20.1841 9.75137C20.4086 9.60137 20.6014 9.40863 20.7514 9.18414C20.8705 9.00581 20.9487 8.80343 21 8.55592M14 4.44408C14.0513 4.19657 14.1295 3.99419 14.2486 3.81586C14.3986 3.59137 14.5914 3.39863 14.8159 3.24863C14.9942 3.12947 15.1966 3.05129 15.4441 3M15.4441 10C15.1966 9.94871 14.9942 9.87053 14.8159 9.75137C14.5914 9.60137 14.3986 9.40863 14.2486 9.18414C14.1295 9.00581 14.0513 8.80343 14 8.55592" stroke="currentColor" stroke-linecap="round" stroke-linejoin="round" stroke-width="1.5" /><path d="M18 14.001C19.0789 14.0057 19.6705 14.0429 20.1111 14.3374C20.3295 14.4833 20.517 14.6708 20.6629 14.8892C21 15.3936 21 16.0958 21 17.5003C21 18.9048 21 19.607 20.6629 20.1114C20.517 20.3298 20.3295 20.5173 20.1111 20.6632C19.6705 20.9577 19.0789 20.9949 18 20.9996" stroke="currentColor" stroke-linecap="round" stroke-linejoin="round" stroke-width="1.5" /><path d="M12.3371 13.999C13.416 14.0037 14.0076 14.041 14.4482 14.3354C14.6666 14.4813 14.8541 14.6688 15 14.8872C15.3371 15.3916 15.3371 16.0939 15.3371 17.4983C15.3371 18.9028 15.3371 19.605 15 20.1095C14.8541 20.3279 14.6666 20.5154 14.4482 20.6613C14.0076 20.9557 13.416 20.993 12.3371 20.9977" stroke="currentColor" stroke-linecap="round" stroke-linejoin="round" stroke-width="1.5" /><path d="M4 7.5C4 7.5 5.84122 9.99998 6.50002 9.99998C7.15882 9.99999 9 7.49998 9 7.49998M6.50002 8.5V6.49998C6.50002 6.03558 6.50002 5.80338 6.52568 5.60843C6.70291 4.26222 7.76224 3.20289 9.10845 3.02566C9.3034 3 9.5356 3 10 3" stroke="currentColor" stroke-linecap="round" stroke-linejoin="round" stroke-width="1.5" /></svg>