<svg xmlns="http://www.w3.org/2000/svg" width="24" height="24" viewBox="0 0 24 24" fill="none"><path d="M8.49997 15C8.49997 15 5.00001 17.5777 5 18.5C4.99999 19.4223 8.5 22 8.5 22" stroke="currentColor" stroke-linecap="round" stroke-linejoin="round" stroke-width="1.5" /><path d="M5.5 18.5L13.5 18.5C16.7875 18.5 18.4312 18.5 19.5376 17.592C19.7401 17.4258 19.9258 17.2401 20.092 17.0376C21 15.9312 21 14.2875 21 11" stroke="currentColor" stroke-linecap="round" stroke-linejoin="round" stroke-width="1.5" /><path d="M15.5 9C15.5 9 19 6.42229 19 5.49997C19 4.57766 15.5 2 15.5 2" stroke="currentColor" stroke-linecap="round" stroke-linejoin="round" stroke-width="1.5" /><path d="M18.5 5.5L10.5 5.5C7.21252 5.5 5.56878 5.5 4.46243 6.40796C4.25989 6.57417 4.07418 6.75989 3.90796 6.96243C3 8.06878 3 9.71252 3 13" stroke="currentColor" stroke-linecap="round" stroke-linejoin="round" stroke-width="1.5" /></svg>