<svg xmlns="http://www.w3.org/2000/svg" width="24" height="24" viewBox="0 0 24 24" fill="none" stroke-width="1.5" stroke-linecap="round" stroke-linejoin="round" color="currentColor"><path d="M4.87 20.66C6.38 21.75 8.34 21.75 12.25 21.75V21.74C16.16 21.74 18.12 21.74 19.63 20.65C20.11 20.3 20.53 19.87 20.9 19.37C22 17.85 22 15.89 22 11.99C22 8.09 22 6.13 20.9 4.61C20.54 4.12 20.11 3.69 19.63 3.34C18.12 2.25 16.16 2.25 12.25 2.25C8.34 2.25 6.38 2.25 4.87 3.34C4.39 3.69 3.97 4.12 3.6 4.62C2.5 6.14 2.5 8.11 2.5 12.01C2.5 15.91 2.5 17.87 3.6 19.39C3.96 19.88 4.39 20.31 4.87 20.66ZM12.25 20.25C8.67 20.25 6.87 20.25 5.75 19.44C5.4 19.18 5.08 18.87 4.81 18.5C4 17.38 4 15.58 4 12C4 8.42 4 6.62 4.81 5.5C5.08 5.13 5.4 4.81 5.75 4.55C6.87 3.74 8.66 3.74 12.25 3.74C15.84 3.74 17.64 3.74 18.75 4.55C19.1 4.81 19.42 5.12 19.69 5.49C20.5 6.61 20.5 8.41 20.5 11.99C20.5 15.57 20.5 17.37 19.69 18.49C19.42 18.86 19.1 19.18 18.75 19.44C17.63 20.25 15.83 20.25 12.25 20.25ZM16.7195 18.5299C16.8695 18.6799 17.0595 18.7499 17.2495 18.7499C17.4395 18.7499 17.6295 18.6799 17.7795 18.5299L18.7795 17.5299C19.0695 17.2399 19.0695 16.7599 18.7795 16.4699C18.4895 16.1799 18.0095 16.1799 17.7195 16.4699L16.7195 17.4699C16.4295 17.7599 16.4295 18.2399 16.7195 18.5299ZM12.7195 18.5299C12.8695 18.6799 13.0595 18.7499 13.2495 18.7499C13.4395 18.7499 13.6295 18.6799 13.7795 18.5299L18.7795 13.5299C19.0695 13.2399 19.0695 12.7599 18.7795 12.4699C18.4895 12.1799 18.0095 12.1799 17.7195 12.4699L12.7195 17.4699C12.4295 17.7599 12.4295 18.2399 12.7195 18.5299ZM8.71945 18.5299C8.86945 18.6799 9.05945 18.7499 9.24945 18.7499C9.43945 18.7499 9.62945 18.6799 9.77945 18.5299L18.7795 9.52994C19.0695 9.23994 19.0695 8.75994 18.7795 8.46994C18.4895 8.17994 18.0095 8.17994 17.7195 8.46994L8.71945 17.4699C8.42945 17.7599 8.42945 18.2399 8.71945 18.5299Z" fill="currentColor" fill-rule="evenodd"></path></svg>