<svg xmlns="http://www.w3.org/2000/svg" width="24" height="24" viewBox="0 0 24 24" fill="none" stroke-width="1.5" stroke-linecap="round" stroke-linejoin="round" color="currentColor"><path d="M16.435 18.7495C16.245 18.7495 16.055 18.6795 15.905 18.5295C15.615 18.2395 15.615 17.7595 15.905 17.4695L17.905 15.4695C18.195 15.1795 18.675 15.1795 18.965 15.4695C19.255 15.7595 19.255 16.2395 18.965 16.5295L16.965 18.5295C16.815 18.6795 16.625 18.7495 16.435 18.7495ZM11.435 18.7495C11.245 18.7495 11.055 18.6795 10.905 18.5295C10.615 18.2395 10.615 17.7595 10.905 17.4695L17.905 10.4695C18.195 10.1795 18.675 10.1795 18.965 10.4695C19.255 10.7595 19.255 11.2395 18.965 11.5295L11.965 18.5295C11.815 18.6795 11.625 18.7495 11.435 18.7495ZM6.435 18.7495C6.245 18.7495 6.055 18.6795 5.905 18.5295C5.615 18.2395 5.615 17.7595 5.905 17.4695L17.905 5.46945C18.195 5.17945 18.675 5.17945 18.965 5.46945C19.255 5.75945 19.255 6.23945 18.965 6.52945L6.965 18.5295C6.815 18.6795 6.625 18.7495 6.435 18.7495Z" fill="currentColor"></path></svg>