<svg xmlns="http://www.w3.org/2000/svg" width="24" height="24" viewBox="0 0 24 24" fill="none" stroke-width="1.5" stroke-linecap="round" stroke-linejoin="round" color="currentColor"><path d="M15 10L4 21.001" stroke="currentColor"></path><path d="M18 3.00098L15 6.00098C14.4548 6.54623 14.1821 6.81885 14.0364 7.11295C13.7591 7.6725 13.7591 8.32945 14.0364 8.88901C14.1821 9.1831 14.4548 9.45573 15 10.001C15.5453 10.5462 15.8179 10.8189 16.112 10.9646C16.6715 11.2419 17.3285 11.2419 17.888 10.9646C18.1821 10.8189 18.4548 10.5462 19 10.001L22 7.00098" stroke="currentColor"></path><path d="M20 4.99902L17 7.99902" stroke="currentColor"></path><path d="M8.84473 9.84571C7.47968 11.2108 5.60771 11.552 3.90145 9.84571C2.19514 8.13939 1.30058 5.03166 2.66563 3.66661C4.03069 2.30156 7.13841 3.19611 8.84473 4.90243C10.551 6.60868 10.2098 8.48065 8.84473 9.84571ZM8.84473 9.84571L20 21.001" stroke="currentColor"></path></svg>