<svg xmlns="http://www.w3.org/2000/svg" width="24" height="24" viewBox="0 0 24 24" fill="none" stroke-width="1.5" stroke-linecap="round" stroke-linejoin="round" color="currentColor"><path d="M4 21.001L7.00071 18" stroke="currentColor"></path><path d="M15 10.001L14 11.001" stroke="currentColor"></path><path d="M18 3.00098L15 6.00098C14.4548 6.54623 14.1821 6.81885 14.0364 7.11295C13.7591 7.6725 13.7591 8.32945 14.0364 8.88901C14.1821 9.1831 14.4548 9.45573 15 10.001C15.5453 10.5462 15.8179 10.8189 16.112 10.9646C16.6715 11.2419 17.3285 11.2419 17.888 10.9646C18.1821 10.8189 18.4548 10.5462 19 10.001L22 7.00098" stroke="currentColor"></path><path d="M20 5L17 8" stroke="currentColor"></path><path d="M20 21L12 13M12 13L2 3C2 6.84174 3.52612 10.5261 6.24264 13.2426L9 16L12 13Z" stroke="currentColor"></path></svg>