<svg xmlns="http://www.w3.org/2000/svg" width="24" height="24" viewBox="0 0 24 24" fill="none"><path d="M19.5 5.5L19 11.5M4.5 5.5L5.10461 15.5368C5.25945 18.1073 5.33688 19.3925 5.97868 20.3167C6.296 20.7737 6.7048 21.1594 7.17905 21.4493C7.76127 21.8051 8.46343 21.945 9.5 22" stroke="currentColor" stroke-linecap="round" stroke-width="1.5" /><path d="M11 15.5L12.1363 16.9657C12.708 14.8319 14.9014 13.5655 17.0352 14.1373C18.1275 14.43 18.9925 15.1475 19.5 16.0646M21 20.5L19.8637 19.0363C19.2919 21.1701 17.0986 22.4365 14.9647 21.8647C13.8978 21.5788 13.0477 20.8875 12.5359 20.001" stroke="currentColor" stroke-linecap="round" stroke-linejoin="round" stroke-width="1.5" /><path d="M3 5.5H21M16.0557 5.5L15.3731 4.09173C14.9196 3.15626 14.6928 2.68852 14.3017 2.39681C14.215 2.3321 14.1231 2.27454 14.027 2.2247C13.5939 2 13.0741 2 12.0345 2C10.9688 2 10.436 2 9.99568 2.23412C9.8981 2.28601 9.80498 2.3459 9.71729 2.41317C9.32164 2.7167 9.10063 3.20155 8.65861 4.17126L8.05292 5.5" stroke="currentColor" stroke-linecap="round" stroke-width="1.5" /></svg>