<svg xmlns="http://www.w3.org/2000/svg" width="24" height="24" viewBox="0 0 24 24" fill="none" stroke-width="1.5" stroke-linecap="round" stroke-linejoin="round" color="currentColor"><path d="M3 12V17M3 17H5C6.41421 17 7.12132 17 7.56066 17.4393C8 17.8787 8 18.5858 8 20V21M3 17V21" stroke="currentColor"></path><path d="M4 7L9.31672 4.08345C10.6334 3.36115 11.2918 3 12 3C12.7082 3 13.3666 3.36115 14.6833 4.08345L20 7" stroke="currentColor"></path><path d="M18 6V10M6 6V10" stroke="currentColor"></path><path d="M21 12V17M21 17H19C17.5858 17 16.8787 17 16.4393 17.4393C16 17.8787 16 18.5858 16 20V21M21 17V21" stroke="currentColor"></path><path d="M7 14H12M17 14H12M12 14V21M12 21H11M12 21H13" stroke="currentColor"></path></svg>