<svg xmlns="http://www.w3.org/2000/svg" width="24" height="24" viewBox="0 0 24 24" fill="none"><path d="M9 6H15" stroke="currentColor" stroke-linecap="round" stroke-linejoin="round" stroke-width="1.5" /><path d="M7.51121 4.52456L11.8814 10M9.16281 13.2957L6.92336 10.3028C6.324 9.50178 6 8.52752 6 7.52625C6 6.87877 6.13556 6.23849 6.39791 5.64681L6.4329 5.56791C7.20073 3.83628 7.58464 2.97046 8.33058 2.48523C9.07653 2 10.0236 2 11.9179 2H12.0821C13.9764 2 14.9235 2 15.6694 2.48523C16.4154 2.97046 16.7993 3.83628 17.5671 5.56791L17.6021 5.64681C17.8644 6.23849 18 6.87877 18 7.52625C18 8.52752 17.676 9.50178 17.0766 10.3028L9.09578 20.9688C8.94448 21.171 8.86858 21.2724 8.80094 21.3462C8.03756 22.1797 6.74013 22.222 5.92425 21.4402C5.85193 21.3709 5.7698 21.2748 5.60553 21.0827C5.4918 20.9497 5.43474 20.883 5.38909 20.8205C4.88514 20.1305 4.86936 19.1971 5.3497 18.4904C5.39324 18.4264 5.44787 18.3579 5.55715 18.221L16.4888 4.52456M16.6702 16L18.4429 18.221C18.5521 18.3579 18.6068 18.4264 18.6503 18.4904C19.1306 19.1971 19.1149 20.1305 18.6109 20.8205C18.5653 20.883 18.5082 20.9497 18.3945 21.0827C18.2302 21.2748 18.1481 21.3709 18.0758 21.4402C17.2599 22.222 15.9624 22.1797 15.1991 21.3462C15.1314 21.2724 15.0556 21.1711 14.9042 20.9688L13.8052 19.5" stroke="currentColor" stroke-linecap="round" stroke-linejoin="round" stroke-width="1.5" /></svg>