<svg xmlns="http://www.w3.org/2000/svg" width="24" height="24" viewBox="0 0 24 24" fill="none"><path d="M6 9L6.73072 7.88715C8.5751 5.07821 9.4973 3.67374 10.684 3.23546C11.5341 2.92151 12.4659 2.92151 13.316 3.23546C14.5027 3.67374 15.4249 5.07821 17.2693 7.88714L18 8.99999" stroke="currentColor" stroke-linecap="round" stroke-linejoin="round" stroke-width="1.5" /><path d="M18.7256 20.3049C17.6228 21 15.7485 21 12 21C8.25145 21 6.37718 21 5.27439 20.3049C3.79479 19.3723 2.92362 17.6532 3.00958 15.8357C3.00958 15.8357 2.80609 13.3536 4.2748 11C5.11593 12.6336 7.91891 15.1596 10.5006 17.1682M18.7256 20.3049C20.2052 19.3723 21.0764 17.6532 20.9904 15.8357C20.9904 15.8357 21.1939 13.3536 19.7252 11C18.3163 13.0751 13.6993 17.214 10.5006 17.1682M18.7256 20.3049C15.4906 20.2278 12.7105 18.8875 10.5006 17.1682" stroke="currentColor" stroke-linecap="round" stroke-linejoin="round" stroke-width="1.5" /><path d="M14.5 11.5L14.491 11.5" stroke="currentColor" stroke-linecap="round" stroke-linejoin="round" stroke-width="2" /><path d="M11.5 7C11.6667 7.33333 12.3 8 13.5 8" stroke="currentColor" stroke-linecap="round" stroke-linejoin="round" stroke-width="1.5" /><path d="M10 11L9.5 11.5" stroke="currentColor" stroke-linecap="round" stroke-linejoin="round" stroke-width="1.5" /></svg>