<svg xmlns="http://www.w3.org/2000/svg" width="24" height="24" viewBox="0 0 24 24" fill="none" stroke-width="1.5" stroke-linecap="round" stroke-linejoin="round" color="currentColor"><path d="M12.5 2.5H11.5C7.25736 2.5 5.13604 2.5 3.81802 3.81802C2.5 5.13604 2.5 7.25736 2.5 11.5V12.5C2.5 16.7426 2.5 18.864 3.81802 20.182C5.13604 21.5 7.25736 21.5 11.5 21.5H12.5C16.7426 21.5 18.864 21.5 20.182 20.182C21.5 18.864 21.5 16.7426 21.5 12.5V11.5C21.5 7.25736 21.5 5.13604 20.182 3.81802C18.864 2.5 16.7426 2.5 12.5 2.5Z" stroke="currentColor"></path><path d="M18 11V12C18 13.6569 16.6569 15 15 15" stroke="currentColor"></path><path d="M11 8V12.5C11 13.0523 11.4477 13.5 12 13.5H13C13.5523 13.5 14 13.0523 14 12.5" stroke="currentColor"></path><path d="M8.5 8V12.5C8.5 13.0523 8.05228 13.5 7.5 13.5H6.5C5.94772 13.5 5.5 13.0523 5.5 12.5" stroke="currentColor"></path><path d="M11 15.49V15.5" stroke="currentColor"></path><path d="M13 15.5V15.51" stroke="currentColor"></path></svg>