<svg xmlns="http://www.w3.org/2000/svg" width="24" height="24" viewBox="0 0 24 24" fill="none" stroke-width="1.5" stroke-linecap="round" stroke-linejoin="round" color="currentColor"><path d="M20.8284 5.17157C19.6569 4 17.7712 4 14 4L10 4C6.22877 4 4.34315 4 3.17157 5.17157M20.8284 5.17157C22 6.34315 22 8.22876 22 12C22 15.7712 22 17.6569 20.8284 18.8284M20.8284 5.17157C20.8284 5.17157 20.8284 5.17157 20.8284 5.17157ZM3.17157 5.17157C2 6.34315 2 8.22876 2 12C2 15.7712 2 17.6569 3.17157 18.8284M3.17157 5.17157C3.17157 5.17157 3.17157 5.17157 3.17157 5.17157ZM3.17157 18.8284C4.34315 20 6.22876 20 10 20H14C17.7712 20 19.6569 20 20.8284 18.8284M3.17157 18.8284C3.17157 18.8284 3.17157 18.8284 3.17157 18.8284ZM20.8284 18.8284C20.8284 18.8284 20.8284 18.8284 20.8284 18.8284Z" stroke="currentColor"></path><path d="M13 12L11 12" stroke="currentColor"></path><path d="M18.5 12L16.5 12" stroke="currentColor"></path><path d="M7.5 12L5.5 12" stroke="currentColor"></path></svg>