<svg xmlns="http://www.w3.org/2000/svg" width="24" height="24" viewBox="0 0 24 24" fill="none" stroke-width="1.5" stroke-linecap="round" stroke-linejoin="round" color="currentColor"><path d="M12.75 2.82227C12.75 2.41227 12.41 2.07227 12 2.07227C11.59 2.07227 11.25 2.41227 11.25 2.82227V4.07227H8.07001C7.55001 4.07227 7.14001 4.07229 6.79001 4.16229C5.84001 4.41229 5.10001 5.15229 4.85001 6.10229C4.76001 6.45229 4.76001 6.86232 4.76001 7.38232V7.6123C4.76001 8.7323 4.76001 9.4423 4.92001 10.0423C5.36001 11.6823 6.64 12.9623 8.28 13.4023C8.88 13.5623 9.59999 13.5623 10.71 13.5623H13.3C14.42 13.5623 15.13 13.5623 15.73 13.4023C17.37 12.9623 18.65 11.6823 19.09 10.0423C19.25 9.4423 19.25 8.7223 19.25 7.6123V7.38232C19.25 6.86232 19.25 6.45229 19.16 6.10229C18.91 5.15229 18.17 4.41229 17.22 4.16229C16.87 4.07229 16.46 4.07227 15.94 4.07227H12.76V2.82227H12.75ZM5.75 22.8223C5.75 19.3723 8.55 16.5723 12 16.5723C15.45 16.5723 18.25 19.3723 18.25 22.8223C18.25 23.2323 18.59 23.5723 19 23.5723C19.41 23.5723 19.75 23.2323 19.75 22.8223C19.75 18.5423 16.28 15.0723 12 15.0723C7.72 15.0723 4.25 18.5423 4.25 22.8223C4.25 23.2323 4.59 23.5723 5 23.5723C5.41 23.5723 5.75 23.2323 5.75 22.8223ZM8.5 8.32227C8.5 7.77227 8.95 7.32227 9.5 7.32227H9.51001C10.06 7.32227 10.51 7.77227 10.51 8.32227C10.51 8.87227 10.06 9.32227 9.51001 9.32227H9.5C8.95 9.32227 8.5 8.87227 8.5 8.32227ZM13.49 8.32227C13.49 7.77227 13.94 7.32227 14.49 7.32227H14.5C15.05 7.32227 15.5 7.77227 15.5 8.32227C15.5 8.87227 15.05 9.32227 14.5 9.32227H14.49C13.94 9.32227 13.49 8.87227 13.49 8.32227ZM7.17999 5.6123C7.30999 5.5723 7.50001 5.57227 8.17001 5.57227H15.84C16.51 5.57227 16.7 5.5723 16.83 5.6123C17.26 5.7223 17.6 6.06231 17.71 6.49231C17.75 6.62231 17.75 6.8123 17.75 7.4823C17.75 8.7723 17.75 9.27228 17.64 9.65228C17.34 10.7723 16.46 11.6523 15.34 11.9523C14.95 12.0623 14.45 12.0623 13.17 12.0623H10.84C9.55 12.0623 9.05001 12.0623 8.67001 11.9523C7.55001 11.6523 6.67 10.7723 6.37 9.65228C6.27 9.26228 6.26001 8.7623 6.26001 7.4823C6.26001 6.8123 6.25999 6.62231 6.29999 6.49231C6.40999 6.06231 6.74999 5.7223 7.17999 5.6123Z" fill="currentColor" fill-rule="evenodd"></path></svg>