<svg xmlns="http://www.w3.org/2000/svg" width="24" height="24" viewBox="0 0 24 24" fill="none" stroke-width="1.5" stroke-linecap="round" stroke-linejoin="round" color="currentColor"><path d="M12.0061 3.56641C11.5961 3.56641 11.2561 3.90641 11.2561 4.31641C11.2561 4.72641 11.5961 5.06641 12.0061 5.06641C12.4161 5.06641 12.7561 4.72641 12.7561 4.31641C12.7561 3.90641 12.4161 3.56641 12.0061 3.56641ZM9.7561 4.31641C9.7561 3.07641 10.7661 2.06641 12.0061 2.06641C13.2461 2.06641 14.2561 3.07641 14.2561 4.31641C14.2561 5.29641 13.6261 6.12646 12.7561 6.43646V8.09644C17.2361 8.47644 20.7561 12.2364 20.7561 16.8164V19.3065V19.3264C20.7561 19.8664 20.7461 20.2665 20.6661 20.6165C20.3561 22.0465 19.2361 23.1665 17.7961 23.4865C17.3961 23.5765 16.9461 23.5764 16.2761 23.5764H7.7261C7.0561 23.5764 6.60612 23.5765 6.20612 23.4865C4.77612 23.1765 3.65609 22.0565 3.33609 20.6165C3.25609 20.2665 3.24609 19.8764 3.24609 19.3264V16.8164C3.24609 12.2364 6.76609 8.47644 11.2461 8.09644V6.43646C10.3761 6.12646 9.74609 5.29641 9.74609 4.31641H9.7561ZM9.0061 13.0664C9.4161 13.0664 9.7561 13.4064 9.7561 13.8164V14.8164C9.7561 15.2264 9.4161 15.5664 9.0061 15.5664C8.5961 15.5664 8.2561 15.2264 8.2561 14.8164V13.8164C8.2561 13.4064 8.5961 13.0664 9.0061 13.0664ZM15.0061 13.0664C15.4161 13.0664 15.7561 13.4064 15.7561 13.8164V14.8164C15.7561 15.2264 15.4161 15.5664 15.0061 15.5664C14.5961 15.5664 14.2561 15.2264 14.2561 14.8164V13.8164C14.2561 13.4064 14.5961 13.0664 15.0061 13.0664ZM4.80609 20.2964C4.79609 20.2264 4.78609 20.1564 4.77609 20.0664H8.10611C8.91611 20.0664 9.67611 19.6565 10.1361 18.9865C10.3061 18.7264 10.5961 18.5664 10.9161 18.5664H13.1161C13.4261 18.5664 13.7161 18.7264 13.8961 18.9865C14.3461 19.6665 15.1061 20.0664 15.9261 20.0664H19.2561C19.2561 20.1564 19.2361 20.2264 19.2261 20.2964C19.0361 21.1564 18.3661 21.8264 17.5061 22.0164C17.2861 22.0664 17.0061 22.0664 16.2061 22.0664H7.8461C7.0461 22.0664 6.76611 22.0664 6.54611 22.0164C5.68611 21.8264 5.01611 21.1564 4.82611 20.2964H4.80609ZM15.9061 18.5664H19.2561V16.8164C19.2561 12.8164 16.0061 9.56641 12.0061 9.56641C8.0061 9.56641 4.7561 12.8164 4.7561 16.8164V18.5664H8.10611C8.41611 18.5664 8.70611 18.4064 8.88611 18.1464C9.33611 17.4664 10.0961 17.0664 10.9161 17.0664H13.1161C13.9261 17.0664 14.6861 17.4764 15.1461 18.1464C15.3161 18.4064 15.6061 18.5664 15.9261 18.5664H15.9061Z" fill="currentColor" fill-rule="evenodd"></path></svg>