<svg xmlns="http://www.w3.org/2000/svg" width="24" height="24" viewBox="0 0 24 24" fill="none" stroke-width="1.5" stroke-linecap="round" stroke-linejoin="round" color="currentColor"><path d="M4.08344 18.5506L6.10744 15.5917C6.51744 14.9217 6.74744 14.1317 6.74744 13.3117C6.74744 12.5922 6.98131 11.9249 7.3768 11.3819C7.18394 11.1878 6.99074 10.9379 6.8375 10.6215C6.6275 10.2115 6.3175 10.0215 5.8475 10.0215C5.2375 10.0215 4.7475 10.5115 4.7475 11.1215V12.3616C4.7475 13.4516 4.3075 14.5315 3.5275 15.3015C3.3775 15.4515 3.1875 15.5215 2.9975 15.5215C2.8075 15.5215 2.6175 15.4515 2.4675 15.3015C2.1775 15.0115 2.1775 14.5315 2.4675 14.2415C2.9675 13.7415 3.2475 13.0616 3.2475 12.3616V11.1215C3.2475 9.69146 4.4175 8.52148 5.8475 8.52148C6.8875 8.52148 7.7075 9.03154 8.1775 9.95154C8.27508 10.1511 8.40414 10.2956 8.51843 10.3955C8.97345 10.1569 9.49037 10.0217 10.0374 10.0217H12.4974C12.9774 10.0217 13.3174 9.57167 13.4174 9.13167C14.0174 6.28167 16.0274 4.97171 16.5474 4.67171L17.9674 3.25166C18.1774 3.04166 18.5074 2.97175 18.7874 3.09175C19.0674 3.21175 19.2474 3.48169 19.2474 3.78169V4.94173L22.4874 7.72175C22.7774 7.97175 22.8374 8.39174 22.6274 8.71174L21.6274 10.2117C21.4374 10.4917 21.0874 10.6117 20.7674 10.5117L18.3874 9.72175L18.2574 9.98176V12.5817C18.2574 13.8317 18.7074 15.0517 19.5174 16.0017L20.9756 17.7044C21.1439 17.5546 21.308 17.4003 21.4675 17.2414C21.7575 16.9514 22.2375 16.9514 22.5275 17.2414C22.8175 17.5314 22.8175 18.0115 22.5275 18.3015C19.8375 20.9815 15.9975 22.5215 11.9975 22.5215C7.9975 22.5215 4.1575 20.9815 1.4675 18.3015C1.1775 18.0115 1.1775 17.5314 1.4675 17.2414C1.7575 16.9514 2.2375 16.9514 2.5275 17.2414C3.00725 17.7192 3.52821 18.1565 4.08344 18.5506ZM19.7919 18.6345L18.3674 16.9818C17.3174 15.7518 16.7374 14.1917 16.7374 12.5817V9.80171C16.7374 9.68171 16.7674 9.57175 16.8174 9.47175L17.3174 8.47175C17.4874 8.14175 17.8674 7.98175 18.2274 8.09175L20.6874 8.9117L20.9974 8.44172L17.9974 5.87166C17.8974 5.79166 17.8274 5.68172 17.7874 5.56172L17.5174 5.83174C17.4574 5.89174 17.3974 5.93175 17.3274 5.97175C17.2474 6.01175 15.3974 6.99174 14.8774 9.46174C14.6274 10.6717 13.6174 11.5517 12.4974 11.5517H10.0374C9.04744 11.5517 8.24744 12.3517 8.24744 13.3417C8.24744 14.4417 7.93744 15.5117 7.35744 16.4417L5.37364 19.3555C5.58023 19.4681 5.79025 19.5754 6.00342 19.6772L7.84834 17.0415C8.94834 15.4615 10.7583 14.5215 12.6883 14.5215C14.3783 14.5215 15.9783 15.2415 17.0983 16.5015L19.2874 18.9664C19.4584 18.8596 19.6266 18.7489 19.7919 18.6345ZM17.9346 19.7043L15.9783 17.5015C15.1383 16.5615 13.9383 16.0215 12.6883 16.0215C11.2483 16.0215 9.89834 16.7215 9.07834 17.9015L7.42742 20.26C8.87115 20.7576 10.419 21.0215 11.9975 21.0215C14.087 21.0215 16.1229 20.5591 17.9346 19.7043Z" fill="currentColor" fill-rule="evenodd"></path></svg>