<svg xmlns="http://www.w3.org/2000/svg" width="24" height="24" viewBox="0 0 24 24" fill="none"><path d="M11.5 5H16.5C17.43 5 17.895 5 18.2765 5.10222C19.3117 5.37962 20.1204 6.18827 20.3978 7.22354C20.5 7.60504 20.5 8.07003 20.5 9M20.5 13V16C20.5 18.8284 20.5 20.2426 19.6213 21.1213C18.7426 22 17.3284 22 14.5 22H9.5C6.67157 22 5.25736 22 4.37868 21.1213C3.5 20.2426 3.5 18.8284 3.5 16V9C3.5 8.07003 3.5 7.60504 3.60222 7.22354C3.87962 6.18827 4.68827 5.37962 5.72354 5.10222C6.10504 5 6.57003 5 7.5 5" stroke="currentColor" stroke-linecap="round" stroke-linejoin="round" stroke-width="1.5" /><path d="M14.5 2C14.5 2 11.5 4.20947 11.5 5.00002C11.5 5.79058 14.5 8 14.5 8" stroke="currentColor" stroke-linecap="round" stroke-linejoin="round" stroke-width="1.5" /></svg>