<svg xmlns="http://www.w3.org/2000/svg" width="24" height="24" viewBox="0 0 24 24" fill="none"><path d="M12.5 5H7.5C6.57003 5 6.10504 5 5.72354 5.10222C4.68827 5.37962 3.87962 6.18827 3.60222 7.22354C3.5 7.60504 3.5 8.07003 3.5 9M3.5 13V16C3.5 18.8284 3.5 20.2426 4.37868 21.1213C5.25736 22 6.67157 22 9.5 22H14.5C17.3284 22 18.7426 22 19.6213 21.1213C20.5 20.2426 20.5 18.8284 20.5 16V9C20.5 8.07003 20.5 7.60504 20.3978 7.22354C20.1204 6.18827 19.3117 5.37962 18.2765 5.10222C17.895 5 17.43 5 16.5 5" stroke="currentColor" stroke-linecap="round" stroke-linejoin="round" stroke-width="1.5" /><path d="M9.50002 2C9.50002 2 12.5 4.20947 12.5 5.00002C12.5 5.79058 9.5 8 9.5 8" stroke="currentColor" stroke-linecap="round" stroke-linejoin="round" stroke-width="1.5" /></svg>