<svg xmlns="http://www.w3.org/2000/svg" width="24" height="24" viewBox="0 0 24 24" fill="none"><path d="M7.50122 6V6.01" stroke="currentColor" stroke-linecap="round" stroke-width="1.5" /><path d="M4.62724 6C5.07128 4.27477 6.63738 3 8.50122 3C10.7104 3 12.5012 4.79086 12.5012 7C12.5012 8.19469 11.9775 9.26706 11.147 10H16.9785C18.3568 10 19.0012 8.88071 19.0012 7.5C22.5012 11 21.97 15 21.97 15C21.97 18.5 18.5012 21 13.0012 21H8.99195C5.9595 21 3.50122 18.5376 3.50122 15.5C3.50122 13.3105 4.77843 11.4198 6.62726 10.5348C5.96398 10.1824 5.41166 9.6488 5.03635 9M4.62724 6L2.00122 7C2.19131 8 3.06445 9 5.03635 9M4.62724 6L5.21437 6.85464C5.67231 7.52122 5.59789 8.41801 5.03635 9" stroke="currentColor" stroke-linejoin="round" stroke-width="1.5" /><path d="M11.0012 18H12.5012C14.7104 18 17.5012 15.2091 17.5012 13H11.0012C9.62051 13 8.50122 14.1193 8.50122 15.5C8.50122 16.8807 9.62051 18 11.0012 18Z" stroke="currentColor" stroke-linecap="round" stroke-linejoin="round" stroke-width="1.5" /></svg>