<svg xmlns="http://www.w3.org/2000/svg" width="24" height="24" viewBox="0 0 24 24" fill="none" stroke-width="1.5" stroke-linecap="round" stroke-linejoin="round" color="currentColor"><path d="M13.0039 22.0764H8.99389C5.55389 22.0764 2.7539 19.2764 2.7539 15.8264C2.7539 13.8364 3.71392 11.9764 5.27392 10.8064C5.03392 10.5764 4.81389 10.3264 4.6239 10.0564C2.4939 9.9064 1.49391 8.64641 1.26391 7.45641C1.19391 7.09641 1.39388 6.74639 1.73388 6.61639L4.02392 5.7464C4.68392 3.8564 6.4739 2.56641 8.5039 2.56641C11.1239 2.56641 13.2539 4.69641 13.2539 7.31641C13.2539 8.10641 13.0538 8.88641 12.6938 9.56641H16.9839C18.0839 9.56641 18.2539 8.46641 18.2539 7.81641C18.2539 7.51641 18.4339 7.2364 18.7139 7.1264C18.9939 7.0164 19.3139 7.07639 19.5339 7.28639C23.2539 11.0064 22.7439 15.2364 22.7139 15.4164C22.7139 19.3564 18.8139 22.0664 13.0039 22.0664V22.0764ZM5.95385 9.34641C6.23385 9.6964 6.58388 9.9864 6.98388 10.1964C7.23388 10.3264 7.3939 10.5864 7.3839 10.8764C7.3839 11.1564 7.21385 11.4164 6.95385 11.5364C5.31385 12.3264 4.2539 14.0064 4.2539 15.8264C4.2539 18.4464 6.38389 20.5764 8.99389 20.5764H13.0039C17.9239 20.5764 21.2239 18.4664 21.2239 15.3264L21.2255 15.3089C21.2564 14.9877 21.5188 12.256 19.4438 9.47639C19.0038 10.4864 18.1339 11.0764 16.9839 11.0764H11.1539C10.8439 11.0764 10.5639 10.8864 10.4539 10.5964C10.3439 10.3064 10.4239 9.9764 10.6639 9.7664C11.3639 9.1464 11.7639 8.2664 11.7639 7.3264C11.7639 5.5364 10.3039 4.0764 8.51391 4.0764C7.13391 4.0764 5.92386 4.93641 5.46386 6.20641L5.84387 6.7664C6.38387 7.5464 6.41386 8.5464 5.96386 9.34641H5.95385ZM2.97387 7.75639C3.29387 8.21639 3.87394 8.4964 4.67394 8.5564C4.81394 8.2564 4.79387 7.8864 4.59387 7.6064L4.34387 7.2364L2.97387 7.75639ZM7.50391 7.08643C7.09391 7.08643 6.75391 6.74643 6.75391 6.33643C6.75391 5.92643 7.09391 5.58643 7.50391 5.58643C7.91391 5.58643 8.25391 5.91643 8.25391 6.33643C8.25391 6.75643 7.91391 7.09644 7.50391 7.09644V7.08643ZM11.0039 19.0767H12.5039C15.1339 19.0767 18.2539 15.9567 18.2539 13.3267C18.2539 12.9167 17.9139 12.5767 17.5039 12.5767H11.0039C9.21391 12.5767 7.75391 14.0367 7.75391 15.8267C7.75391 17.6167 9.21391 19.0767 11.0039 19.0767ZM9.25391 15.8267C9.25391 14.8667 10.0439 14.0767 11.0039 14.0767H16.6239C16.1039 15.7367 14.0539 17.5767 12.5039 17.5767H11.0039C10.0439 17.5767 9.25391 16.7867 9.25391 15.8267Z" fill="currentColor" fill-rule="evenodd"></path></svg>