<svg xmlns="http://www.w3.org/2000/svg" width="24" height="24" viewBox="0 0 24 24" fill="none" stroke-width="1.5" stroke-linecap="round" stroke-linejoin="round" color="currentColor"><path d="M17.3522 3.9525L15.6522 3.2125C13.9722 2.4725 13.0422 2.0625 11.9922 2.0625C10.9422 2.0625 10.0122 2.4725 8.33219 3.2125L6.63219 3.9525C3.71219 5.2325 2.24219 5.8725 2.24219 7.3125V13.8025V18.3125C2.24219 19.7525 3.71219 20.3925 6.63219 21.6725L8.33219 22.4125C10.0122 23.1525 10.9422 23.5625 11.9922 23.5625C13.0422 23.5625 13.9722 23.1525 15.6522 22.4125L17.3622 21.6725C20.2822 20.3925 21.7522 19.7525 21.7522 18.3125V7.3125C21.7522 5.8725 20.2822 5.2325 17.3622 3.9525H17.3522ZM20.2422 12.8525L17.2422 14.3525V10.7225L17.3522 10.6725C18.5722 10.1325 19.5322 9.7125 20.2422 9.2925V12.8525ZM3.74219 9.2925C4.45219 9.7125 5.41219 10.1325 6.63219 10.6725L6.74219 10.7225V14.6625L3.74219 13.3325V9.3025V9.2925ZM11.9922 11.0625C11.2922 11.0625 10.5922 10.7625 8.93219 10.0325L8.79219 9.9725L11.9922 8.2925L15.1922 9.9725L15.0522 10.0325C13.4022 10.7625 12.7022 11.0625 12.0022 11.0625H11.9922ZM8.24219 11.3725L8.33219 11.4125C9.61219 11.9725 10.4522 12.3525 11.2422 12.4925V16.6625L8.24219 15.3325V11.3725ZM12.7422 12.4925C13.5322 12.3425 14.3722 11.9725 15.6522 11.4125L15.7422 11.3725V15.1025L12.7422 16.6025V12.4925ZM20.2422 7.3125C20.2422 7.7525 18.6622 8.4625 16.9322 9.2125C16.9022 9.1925 16.8722 9.1625 16.8422 9.1425L13.6022 7.4425L17.2222 5.5325C18.8322 6.2425 20.2422 6.8925 20.2422 7.3125ZM8.94219 4.5925C10.5922 3.8625 11.2922 3.5625 11.9922 3.5625C12.6922 3.5625 13.3922 3.8625 15.0522 4.5925L15.4622 4.7725L11.9922 6.6025L8.52219 4.7725L8.93219 4.5925H8.94219ZM6.76219 5.5325L10.3822 7.4425L7.14219 9.1425C7.14219 9.1425 7.08219 9.1825 7.05219 9.2125C5.33219 8.4525 3.74219 7.7525 3.74219 7.3125C3.74219 6.9025 5.15219 6.2425 6.76219 5.5325ZM3.74219 18.3125V14.9625L6.74219 16.2925V20.0725C5.14219 19.3725 3.74219 18.7225 3.74219 18.3025V18.3125ZM8.24219 20.7325V16.9625L11.2422 18.2925V21.9425C10.7022 21.8025 10.0322 21.5125 8.93219 21.0225L8.24219 20.7225V20.7325ZM15.0422 21.0325C13.9522 21.5125 13.2722 21.8025 12.7422 21.9525V18.2725L15.7422 16.7725V20.7325L15.0422 21.0325ZM17.2422 20.0825V16.0325L20.2422 14.5325V18.3225C20.2422 18.7325 18.8422 19.3825 17.2422 20.0925V20.0825Z" fill="currentColor"></path></svg>