<svg xmlns="http://www.w3.org/2000/svg" width="24" height="24" viewBox="0 0 24 24" fill="none" stroke-width="1.5" stroke-linecap="round" stroke-linejoin="round" color="currentColor"><path d="M12 3.5V2" stroke="currentColor"></path><path d="M12 3.5C11.0608 3.5 7.52791 7.29323 6.97182 12.2037M12 3.5C12.9392 3.5 16.4721 7.29322 17.0282 12.2037M12 3.5C16.9367 3.5 21.0545 6.93552 22 11.5C20.6123 12.7 18.1073 12.4691 17.0282 12.2037M12 3.5C7.06333 3.5 2.94545 6.93552 2 11.5C3.38792 12.7 5.89285 12.4691 6.97182 12.2037M6.97182 12.2037C8.4559 13.0288 10.1718 13.5 12 13.5C13.8282 13.5 15.5441 13.0288 17.0282 12.2037" stroke="currentColor"></path><path d="M18.5 15L16 18.5H20L17.5 22" stroke="currentColor"></path><path d="M12 13.5V20.5C12 21.3284 11.3284 22 10.5 22C9.67157 22 9 21.3284 9 20.5V20" stroke="currentColor"></path></svg>