<svg xmlns="http://www.w3.org/2000/svg" width="24" height="24" viewBox="0 0 24 24" fill="none"><path d="M19.8284 19.8284C18.6569 21 16.7712 21 13 21H11C7.22876 21 5.34315 21 4.17157 19.8284C3 18.6569 3 16.7712 3 13V11C3 7.22876 3 5.34315 4.17157 4.17157M8.03359 3.03359C8.86815 3 9.84576 3 11 3H15.8787C16.3353 3 16.5635 3 16.7826 3.02421C17.5367 3.10757 18.2515 3.40366 18.8437 3.87795C19.0157 4.01573 19.1772 4.17715 19.5 4.5C19.8228 4.82285 19.9843 4.98427 20.122 5.15629C20.5963 5.74846 20.8924 6.4633 20.9758 7.2174C21 7.43646 21 7.66475 21 8.12132V13C21 14.1542 21 15.1319 20.9664 15.9664" stroke="currentColor" stroke-linecap="round" stroke-linejoin="round" stroke-width="1.5" /><path d="M17 3.5V4C17 5.88562 17 6.82843 16.4142 7.41421C15.8284 8 14.8856 8 13 8" stroke="currentColor" stroke-linecap="round" stroke-linejoin="round" stroke-width="1.5" /><path d="M17 20.5V17M13 13H11C9.11438 13 8.17157 13 7.58579 13.5858C7 14.1716 7 15.1144 7 17V20.5" stroke="currentColor" stroke-linecap="round" stroke-linejoin="round" stroke-width="1.5" /><path d="M2 2L22 22" stroke="currentColor" stroke-linecap="round" stroke-linejoin="round" stroke-width="1.5" /></svg>