<svg xmlns="http://www.w3.org/2000/svg" width="24" height="24" viewBox="0 0 24 24" fill="none"><path d="M15.8787 3H11C7.22876 3 5.34315 3 4.17157 4.17157C3 5.34315 3 7.22876 3 11V13C3 16.7712 3 18.6569 4.17157 19.8284C5.34315 21 7.22876 21 11 21H13C16.7712 21 18.6569 21 19.8284 19.8284C21 18.6569 21 16.7712 21 13V8.12132C21 7.66475 21 7.43646 20.9758 7.2174C20.8924 6.4633 20.5963 5.74846 20.122 5.15629C19.9843 4.98427 19.8228 4.82285 19.5 4.5C19.1772 4.17715 19.0157 4.01573 18.8437 3.87795C18.2515 3.40366 17.5367 3.10757 16.7826 3.02421C16.5635 3 16.3353 3 15.8787 3Z" stroke="currentColor" stroke-linecap="round" stroke-linejoin="round" stroke-width="1.5" /><path d="M17 3.5V4C17 5.88562 17 6.82843 16.4142 7.41421C15.8284 8 14.8856 8 13 8H11C9.11438 8 8.17157 8 7.58579 7.41421C7 6.82843 7 5.88562 7 4V3.5" stroke="currentColor" stroke-linecap="round" stroke-linejoin="round" stroke-width="1.5" /><path d="M17 20.5V17C17 15.1144 17 14.1716 16.4142 13.5858C15.8284 13 14.8856 13 13 13H11C9.11438 13 8.17157 13 7.58579 13.5858C7 14.1716 7 15.1144 7 17V20.5" stroke="currentColor" stroke-linecap="round" stroke-linejoin="round" stroke-width="1.5" /></svg>