<svg xmlns="http://www.w3.org/2000/svg" width="24" height="24" viewBox="0 0 24 24" fill="none"><path d="M8.5 2.5C7.57099 2.5 7.10649 2.5 6.71783 2.56156C4.57837 2.90042 2.90042 4.57837 2.56156 6.71783C2.5 7.10649 2.5 7.57099 2.5 8.5M15.5 2.5C16.429 2.5 16.8935 2.5 17.2822 2.56156C19.4216 2.90042 21.0996 4.57837 21.4384 6.71783C21.5 7.10649 21.5 7.57099 21.5 8.5M2.5 15.5C2.5 16.429 2.5 16.8935 2.56156 17.2822C2.90042 19.4216 4.57837 21.0996 6.71783 21.4384C7.10649 21.5 7.57099 21.5 8.5 21.5M15.5 21.5C16.429 21.5 16.8935 21.5 17.2822 21.4384C19.4216 21.0996 21.0996 19.4216 21.4384 17.2822C21.5 16.8935 21.5 16.429 21.5 15.5" stroke="currentColor" stroke-linecap="round" stroke-linejoin="round" stroke-width="1.5" /><path d="M6.87868 6.87868C7.75736 6 9.17157 6 12 6C14.8284 6 16.2426 6 17.1213 6.87868C18 7.75736 18 9.17157 18 12C18 14.8284 18 16.2426 17.1213 17.1213C16.2426 18 14.8284 18 12 18C9.17157 18 7.75736 18 6.87868 17.1213C6 16.2426 6 14.8284 6 12C6 9.17157 6 7.75736 6.87868 6.87868Z" stroke="currentColor" stroke-linecap="round" stroke-linejoin="round" stroke-width="1.5" /><path d="M6.50006 15.5002L8.03336 13.8525C8.56725 13.2787 9.43287 13.2787 9.96676 13.8525C10.526 14.4534 11.4416 14.4207 11.9623 13.7811L13.3712 12.0507C13.9688 11.3167 15.0313 11.3167 15.6289 12.0507L17.7604 14.668" stroke="currentColor" stroke-linecap="round" stroke-linejoin="round" stroke-width="1.5" /><path d="M10 9.48976V9.49976" stroke="currentColor" stroke-linecap="round" stroke-linejoin="round" stroke-width="2" /></svg>