<svg xmlns="http://www.w3.org/2000/svg" width="24" height="24" viewBox="0 0 24 24" fill="none" stroke-width="1.5" stroke-linecap="round" stroke-linejoin="round" color="currentColor"><path d="M21 6C21 7.65685 19.6569 9 18 9C16.3431 9 15 7.65685 15 6C15 4.34315 16.3431 3 18 3C19.6569 3 21 4.34315 21 6Z" stroke="currentColor"></path><path d="M21 18C21 19.6569 19.6569 21 18 21C16.3431 21 15 19.6569 15 18C15 16.3431 16.3431 15 18 15C19.6569 15 21 16.3431 21 18Z" stroke="currentColor"></path><path d="M15 8L3 19" stroke="currentColor"></path><path d="M15.0003 16L11 12" stroke="currentColor"></path><path d="M3 4.99999L8.5 9.99988" stroke="currentColor"></path></svg>