<svg xmlns="http://www.w3.org/2000/svg" width="24" height="24" viewBox="0 0 24 24" fill="none" stroke-width="1.5" stroke-linecap="round" stroke-linejoin="round" color="currentColor"><path d="M17 17L21 21" fill="none"></path><path d="M19 11C19 6.58172 15.4183 3 11 3C6.58172 3 3 6.58172 3 11C3 15.4183 6.58172 19 11 19C15.4183 19 19 15.4183 19 11Z" fill="none"></path><path d="M8.99998 13.5C8.99998 13.5 6.5 11.6588 6.5 11C6.49999 10.3412 9 8.50002 9 8.50002" fill="none"></path><path d="M13 13.5C13 13.5 15.5 11.6588 15.5 11C15.5 10.3412 13 8.5 13 8.5" fill="none"></path></svg>