<svg xmlns="http://www.w3.org/2000/svg" width="24" height="24" viewBox="0 0 24 24" fill="none" stroke-width="1.5" stroke-linecap="round" stroke-linejoin="round" color="currentColor"><path d="M17.5 17.5L22 22" stroke="currentColor"></path><path d="M20 11C20 6.02944 15.9706 2 11 2C6.02944 2 2 6.02944 2 11C2 15.9706 6.02944 20 11 20C15.9706 20 20 15.9706 20 11Z" stroke="currentColor"></path><path d="M13.2531 9.31112C13.3579 8.04662 11.4232 7.01413 9.94467 7.70685C8.09769 8.57218 8.25873 10.7594 10.5399 10.8751C11.555 10.9265 12.4429 10.8169 13.0463 11.4708C13.6497 12.1248 13.9112 13.7901 12.1325 14.3553C10.3539 14.9204 8.5 13.9125 8.5 12.6831M10.971 6.5V7.47767M10.971 14.7204V15.5" stroke="currentColor"></path></svg>