<svg xmlns="http://www.w3.org/2000/svg" width="24" height="24" viewBox="0 0 24 24" fill="none" stroke-width="1.5" stroke-linecap="round" stroke-linejoin="round" color="currentColor"><path d="M7 18V11.5C7 10.6716 6.32843 10 5.5 10C4.67157 10 4 10.6716 4 11.5V16C4 17.1046 4.89543 18 6 18H7Z" stroke="currentColor"></path><path d="M20 16V11.5C20 10.6716 19.3284 10 18.5 10C17.6716 10 17 10.6716 17 11.5V18H18C19.1046 18 20 17.1046 20 16Z" stroke="currentColor"></path><path d="M17 14H7V18H17V14Z" stroke="currentColor"></path><path d="M14.5 22H9.5V18H14.5V22Z" stroke="currentColor"></path><path d="M7 22H17" stroke="currentColor"></path><path d="M18.5 10V8C18.5 5.17157 18.5 3.75736 17.6213 2.87868C16.7426 2 15.3284 2 12.5 2H11.5C8.67157 2 7.25736 2 6.37868 2.87868C5.5 3.75736 5.5 5.17157 5.5 8V10" stroke="currentColor"></path></svg>