<svg xmlns="http://www.w3.org/2000/svg" width="24" height="24" viewBox="0 0 24 24" fill="none"><path d="M19.8598 15.8599C20.5537 14.5522 21 13.0186 21 11.2371L21 7.74821C21 6.34255 21 5.63972 20.5504 4.91385C20.1008 4.18797 19.6368 3.95712 18.7088 3.4954C16.8165 2.55388 14.5009 2.00006 12 2.00006C10.1475 2.00006 8.3966 2.30394 6.84414 2.8442M4.1416 4.14166C3.8764 4.33979 3.6614 4.57189 3.4496 4.91385C3 5.63972 3 6.34254 3 7.7482V11.2371C3 16.9205 7.54236 20.0804 10.173 21.4339C10.9067 21.8113 11.2735 22.0001 12 22.0001C12.7265 22.0001 13.0933 21.8113 13.8269 21.4339C15.0804 20.789 16.7679 19.734 18.1912 18.1913" stroke="currentColor" stroke-linecap="round" stroke-linejoin="round" stroke-width="1.5" /><path d="M2 2.00006L22 22.0001" stroke="currentColor" stroke-linecap="round" stroke-linejoin="round" stroke-width="1.5" /></svg>