<svg xmlns="http://www.w3.org/2000/svg" width="24" height="24" viewBox="0 0 24 24" fill="none" stroke-width="1.5" stroke-linecap="round" stroke-linejoin="round" color="currentColor"><path d="M8 17H16" fill="none"></path><path d="M13.5 17V12M10.5 13V17" fill="none"></path><path d="M15.9036 5.63607L17.3268 5.3184M17.3268 5.3184L18.75 5.00073M17.3268 5.3184L17.9839 8.07033M3.56943 8.38917L4.9926 8.07151M4.9926 8.07151L6.41578 7.75384M4.9926 8.07151L5.64974 10.8234M2.56619 11.5117L21.0675 7.38205C21.4605 7.29433 21.8526 7.53124 21.9434 7.9112C22.2156 9.05108 21.4804 10.1885 20.3014 10.4516L4.6465 13.946C3.4675 14.2091 2.29107 13.4984 2.01888 12.3585C1.92815 11.9786 2.17319 11.5994 2.56619 11.5117Z" fill="none"></path></svg>