<svg xmlns="http://www.w3.org/2000/svg" width="24" height="24" viewBox="0 0 24 24" fill="none" stroke-width="1.5" stroke-linecap="round" stroke-linejoin="round" color="currentColor"><path d="M12.2578 4.81836C12.2578 6.05836 13.2678 7.06836 14.5078 7.06836C15.7478 7.06836 16.7578 6.05836 16.7578 4.81836C16.7578 3.57836 15.7478 2.56836 14.5078 2.56836C13.2678 2.56836 12.2578 3.57836 12.2578 4.81836ZM13.7578 4.81836C13.7578 4.40836 14.0978 4.06836 14.5078 4.06836C14.9178 4.06836 15.2578 4.40836 15.2578 4.81836C15.2578 5.22836 14.9178 5.56836 14.5078 5.56836C14.0978 5.56836 13.7578 5.22836 13.7578 4.81836ZM17.386 22.7362C17.526 22.9462 17.766 23.0662 18.006 23.0662L17.986 23.0762C18.096 23.0762 18.196 23.0461 18.296 23.0061C18.636 22.8561 18.806 22.4762 18.716 22.1262L16.746 14.6862V10.5361L16.766 10.5562L17.876 12.2262C17.916 12.3062 17.976 12.3661 18.046 12.4161L20.046 13.9161C20.376 14.1661 20.846 14.0961 21.096 13.7661C21.346 13.4361 21.276 12.9662 20.946 12.7162L19.046 11.2961L18.006 9.73621C17.306 8.69621 16.136 8.07617 14.886 8.07617H14.346C12.916 8.07617 11.636 8.86612 10.996 10.1461L9.32604 13.4862C9.14604 13.8562 9.29604 14.3062 9.66604 14.4962C10.036 14.6762 10.496 14.5261 10.676 14.1561L12.256 10.9962V13.9061C12.256 14.6561 12.476 15.3762 12.886 15.9862L13.8379 17.414L11.3471 21.9474C11.1671 22.2874 11.2671 22.7074 11.5771 22.9274C11.7071 23.0274 11.8571 23.0674 12.0071 23.0674C12.2171 23.0674 12.4171 22.9774 12.5671 22.8074L15.3291 19.6508L17.386 22.7362ZM15.9971 17.7475C16.0063 17.7555 16.0152 17.7637 16.024 17.7721L15.316 15.1262C15.276 14.9962 15.256 14.8362 15.256 14.6862V9.59619C15.136 9.57619 15.016 9.56616 14.896 9.56616H14.356C14.146 9.56616 13.946 9.59612 13.756 9.64612V13.9061C13.756 14.3461 13.886 14.7761 14.136 15.1461L15.781 17.6136C15.8574 17.6452 15.9305 17.6899 15.9971 17.7475ZM4.61797 22.9565C4.73797 23.0265 4.87797 23.0665 5.00797 23.0665V23.0765C5.25797 23.0765 5.50797 22.9465 5.64797 22.7165L9.64797 16.2165C9.85797 15.8665 9.74797 15.4065 9.39797 15.1865C9.04797 14.9765 8.58797 15.0865 8.36797 15.4365L7.75797 16.4365L6.81797 15.8465C6.42797 15.5965 5.96797 15.5165 5.51797 15.6165C5.06797 15.7165 4.67797 15.9964 4.43797 16.3864L3.01797 18.6664C2.52797 19.4564 2.74797 20.4964 3.52797 21.0264L4.51797 21.6865L4.36797 21.9264C4.15797 22.2764 4.26797 22.7365 4.61797 22.9565ZM5.84797 17.0665H5.89797V17.0464C5.92797 17.0464 6.01797 17.0865 6.01797 17.0865L6.96797 17.6865L5.29797 20.3964L4.35797 19.7664C4.24797 19.6964 4.21797 19.5565 4.28797 19.4465L5.70797 17.1664C5.74797 17.0964 5.80797 17.0665 5.84797 17.0665Z" fill="currentColor" fill-rule="evenodd"></path></svg>