<svg xmlns="http://www.w3.org/2000/svg" width="24" height="24" viewBox="0 0 24 24" fill="none"><path d="M9.72752 3.36502C10 3.8998 10 4.59987 10 6C10 7.40013 10 8.1002 9.72752 8.63498C9.48783 9.10538 9.10538 9.48783 8.63498 9.72752C8.1002 10 7.40013 10 6 10C4.59987 10 3.8998 10 3.36502 9.72752C2.89462 9.48783 2.51217 9.10538 2.27248 8.63498C2 8.1002 2 7.40013 2 6C2 4.59987 2 3.8998 2.27248 3.36502C2.51217 2.89462 2.89462 2.51217 3.36502 2.27248C3.8998 2 4.59987 2 6 2C7.40013 2 8.1002 2 8.63498 2.27248C9.10538 2.51217 9.48783 2.89462 9.72752 3.36502Z" stroke="currentColor" stroke-linecap="round" stroke-linejoin="round" stroke-width="1.5" /><path d="M21.7275 15.365C22 15.8998 22 16.5999 22 18C22 19.4001 22 20.1002 21.7275 20.635C21.4878 21.1054 21.1054 21.4878 20.635 21.7275C20.1002 22 19.4001 22 18 22C16.5999 22 15.8998 22 15.365 21.7275C14.8946 21.4878 14.5122 21.1054 14.2725 20.635C14 20.1002 14 19.4001 14 18C14 16.5999 14 15.8998 14.2725 15.365C14.5122 14.8946 14.8946 14.5122 15.365 14.2725C15.8998 14 16.5999 14 18 14C19.4001 14 20.1002 14 20.635 14.2725C21.1054 14.5122 21.4878 14.8946 21.7275 15.365Z" stroke="currentColor" stroke-linecap="round" stroke-linejoin="round" stroke-width="1.5" /><path d="M14 6C14.9299 6 15.3949 6 15.7764 6.10222C16.8117 6.37962 17.6203 7.18827 17.8977 8.22354C18 8.60504 18 9.07003 18 10M5.99997 14C5.99997 14.93 5.99997 15.395 6.10219 15.7765C6.37959 16.8117 7.18824 17.6204 8.22351 17.8978C8.60501 18 9.07 18 9.99997 18" stroke="currentColor" stroke-linecap="round" stroke-linejoin="round" stroke-width="1.5" /></svg>