<svg xmlns="http://www.w3.org/2000/svg" width="24" height="24" viewBox="0 0 24 24" fill="none" stroke-width="1.5" stroke-linecap="round" stroke-linejoin="round" color="currentColor"><path d="M19.02 15.7823C18.72 15.4923 18.25 15.5022 17.96 15.8022C17.67 16.0922 17.68 16.5723 17.98 16.8623C18.14 17.0123 18.4 17.2224 18.64 17.4124L18.7 17.4523C18.94 17.6523 19.21 17.8523 19.46 18.0623L15 18.0723C14.59 18.0723 14.25 18.4123 14.25 18.8223C14.25 19.2323 14.59 19.5723 15 19.5723H19.46C19.21 19.7923 18.95 19.9923 18.7 20.1923L18.64 20.2323C18.4 20.4223 18.14 20.6323 17.98 20.7823C17.68 21.0723 17.68 21.5523 17.96 21.8423C18.25 22.1423 18.72 22.1523 19.02 21.8623C19.11 21.7723 19.29 21.6224 19.56 21.4124L19.62 21.3623C19.86 21.1723 20.15 20.9523 20.42 20.7223C20.71 20.4723 21.01 20.2022 21.25 19.9222C21.37 19.7922 21.48 19.6323 21.57 19.4623C21.66 19.3023 21.74 19.0823 21.74 18.8223C21.74 18.5623 21.65 18.3423 21.57 18.1823C21.48 18.0123 21.36 17.8523 21.25 17.7223C21.02 17.4423 20.71 17.1722 20.42 16.9222C20.15 16.6922 19.87 16.4723 19.62 16.2823L19.56 16.2323C19.29 16.0223 19.11 15.8723 19.02 15.7823ZM12 19.0723C9.38 19.0723 7.00999 19.4423 5.23999 20.0323C4.84999 20.1623 4.42001 19.9523 4.29001 19.5623C4.16001 19.1623 4.37001 18.7423 4.76001 18.6123C4.92001 18.5623 5.08 18.5023 5.25 18.4623V14.0123C2.98 13.6523 1.25 11.6923 1.25 9.32227C1.25 6.70227 3.38 4.57227 6 4.57227C6.67 4.57227 7.3 4.71228 7.88 4.96228C8.70001 3.53228 10.24 2.57227 12 2.57227C13.76 2.57227 15.3 3.53228 16.12 4.96228C16.7 4.71228 17.33 4.57227 18 4.57227C20.62 4.57227 22.75 6.70227 22.75 9.32227C22.75 11.9423 20.62 14.0723 18 14.0723C17.59 14.0723 17.25 13.7323 17.25 13.3223C17.25 12.9123 17.59 12.5723 18 12.5723C19.79 12.5723 21.25 11.1123 21.25 9.32227C21.25 7.53227 19.79 6.07227 18 6.07227C17.33 6.07227 16.71 6.27231 16.19 6.62231C16 6.75231 15.76 6.78228 15.54 6.71228C15.32 6.63228 15.15 6.46231 15.07 6.24231C14.62 4.98231 13.42 4.07227 12 4.07227C10.58 4.07227 9.37999 4.98231 8.92999 6.24231C8.84999 6.46231 8.67999 6.63228 8.45999 6.71228C8.23999 6.78228 8 6.75231 7.81 6.62231C7.29 6.27231 6.67 6.07227 6 6.07227C4.21 6.07227 2.75 7.53227 2.75 9.32227C2.75 11.1123 4.21 12.5723 6 12.5723C6.41 12.5723 6.75 12.9123 6.75 13.3223V18.0823C8.32 17.7523 10.11 17.5723 12 17.5723C12.41 17.5723 12.75 17.9123 12.75 18.3223C12.75 18.7323 12.41 19.0723 12 19.0723Z" fill="currentColor" fill-rule="evenodd"></path></svg>