<svg xmlns="http://www.w3.org/2000/svg" width="24" height="24" viewBox="0 0 24 24" fill="none" stroke-width="1.5" stroke-linecap="round" stroke-linejoin="round" color="currentColor"><circle cx="12" cy="12" r="10" stroke="currentColor"></circle><path d="M8.00265 9.01879C8.00265 9.01879 8.25256 8.39617 7.62377 8.09123C6.5035 7.54795 5.03652 9.56203 6.86627 10.6732C8.75834 11.8222 10 9.69656 10 8.09123" stroke="currentColor"></path><path d="M15.9974 9.98121C15.9974 9.98121 15.7474 10.6038 16.3762 10.9088C17.4965 11.452 18.9635 9.43797 17.1337 8.32683C15.2417 7.17784 14 9.30344 14 10.9088" stroke="currentColor"></path><path d="M16 16.6L15.7307 16.4C15.0125 15.8667 14.1672 15.8667 13.4491 16.4L13.1798 16.6C12.4616 17.1333 11.6163 17.1333 10.8982 16.6L10.6288 16.4C9.91069 15.8667 9.06539 15.8667 8.34723 16.4L8 16.6579" stroke="currentColor"></path></svg>