<svg xmlns="http://www.w3.org/2000/svg" width="24" height="24" viewBox="0 0 24 24" fill="none" stroke-width="1.5" stroke-linecap="round" stroke-linejoin="round" color="currentColor"><path d="M14.6278 18.1651L14.6277 18.1651L14.6107 18.1592C14.606 18.1662 14.6012 18.1731 14.5962 18.1799L13.7562 19.3801C13.7317 19.4126 13.7074 19.4448 13.6832 19.4767C12.2094 21.426 11.3898 22.51 10.3862 22.51L10.3962 22.5C10.2662 22.5 10.1362 22.48 10.0062 22.45C8.73624 22.11 8.73622 20.73 8.73622 17.98V16.1304L8.1557 15.9299C3.9457 14.4699 1.85573 13.7399 1.74573 11.9299C1.64598 10.1046 3.65546 9.15481 7.65507 7.26446L7.65508 7.26446L7.68573 7.24997L15.0057 3.79001C18.3057 2.22001 19.9657 1.4399 21.3057 2.4299C22.6457 3.4199 22.3457 5.20999 21.7457 8.76999L20.7857 14.4699L20.7791 14.5085C20.3833 16.8038 20.1696 18.0435 19.0757 18.6799C18.6957 18.8999 18.3157 19 17.8757 19L17.8657 18.99C17.0357 18.99 16.034 18.6468 14.6278 18.1651ZM10.2362 16.6485V17.98C10.2362 19.36 10.2362 20.78 10.4462 21.04C10.7062 20.94 11.6462 19.7 12.5462 18.5L13.1425 17.6523L10.2362 16.6485ZM8.31573 8.60007C5.22573 10.0601 3.19572 11.0201 3.23572 11.8401C3.28572 12.6501 5.40572 13.39 8.61572 14.5L9.02457 14.6411L16.4558 7.20993C16.7458 6.91993 17.2258 6.91993 17.5158 7.20993C17.8058 7.49993 17.8058 7.97999 17.5158 8.26999L10.6005 15.1853L15.0157 16.7099C16.9557 17.3799 17.8257 17.6601 18.3057 17.3801C18.7757 17.1001 18.9457 16.22 19.2857 14.25L20.2457 8.54001L20.2577 8.46806C20.701 5.79869 20.9904 4.05618 20.3957 3.62009C19.79 3.17323 18.2475 3.89982 15.6898 5.10461L15.6357 5.1301L8.31573 8.59006V8.60007Z" fill="currentColor" fill-rule="evenodd"></path></svg>