<svg xmlns="http://www.w3.org/2000/svg" width="24" height="24" viewBox="0 0 24 24" fill="none" stroke-width="1.5" stroke-linecap="round" stroke-linejoin="round" color="currentColor"><path d="M4.51001 10.0803C4.75001 9.99032 5.22 9.99023 6 9.99023H18C18.78 9.99023 19.25 9.99032 19.47 10.0803C19.78 10.2103 20.02 10.4502 20.15 10.7502C20.24 10.9902 20.24 11.4599 20.24 12.2393V12.2402V12.2411C20.24 13.0206 20.24 13.4903 20.15 13.7102C20.02 14.0202 19.78 14.2601 19.48 14.3901C19.24 14.4801 18.77 14.4802 17.99 14.4802H5.98999C5.20999 14.4802 4.74002 14.4801 4.52002 14.3901C4.21002 14.2601 3.97003 14.0202 3.84003 13.7202C3.75003 13.4802 3.75 13.0102 3.75 12.2302C3.75 11.4502 3.75003 10.9803 3.84003 10.7603C3.97003 10.4503 4.21001 10.2103 4.51001 10.0803ZM2.46002 8.30029C2.61625 8.66123 2.83922 8.97863 3.11799 9.23999C2.84006 9.50277 2.61654 9.82317 2.46002 10.1902C2.25002 10.6902 2.25 11.2502 2.25 12.2402C2.25 13.2302 2.25002 13.7803 2.46002 14.3003C2.61625 14.6612 2.83922 14.9786 3.11799 15.24C2.84006 15.5028 2.61654 15.8232 2.46002 16.1902C2.25002 16.6902 2.25 17.2502 2.25 18.2402C2.25 19.2302 2.25002 19.7803 2.46002 20.3003C2.75002 20.9703 3.27001 21.4903 3.95001 21.7803C4.44992 21.9902 4.9998 21.9902 5.99945 21.9902H6H18H18.0005C18.9902 21.9902 19.5401 21.9902 20.06 21.7803C20.73 21.4903 21.25 20.9703 21.54 20.2903C21.75 19.7904 21.75 19.2304 21.75 18.2408V18.2402V18.2397C21.75 17.25 21.75 16.7001 21.54 16.1802C21.3838 15.8192 21.1608 15.5018 20.882 15.2405C21.16 14.9777 21.3835 14.6573 21.54 14.2903C21.75 13.7904 21.75 13.2304 21.75 12.2408V12.2402V12.2397C21.75 11.25 21.75 10.7001 21.54 10.1802C21.3838 9.81924 21.1608 9.50184 20.882 9.24048C21.16 8.9777 21.3835 8.6573 21.54 8.29028C21.75 7.79037 21.75 7.23044 21.75 6.24077V6.24023V6.2397C21.75 5.25003 21.75 4.70008 21.54 4.18018C21.25 3.51018 20.73 2.9902 20.05 2.7002C19.5501 2.49023 19.0002 2.49023 18.0006 2.49023H18H6H5.99945C5.0098 2.49023 4.45991 2.49023 3.94 2.7002C3.27 2.9902 2.75002 3.51019 2.46002 4.19019C2.25002 4.69019 2.25 5.25023 2.25 6.24023C2.25 7.23023 2.25002 7.78029 2.46002 8.30029ZM6 15.9902C5.22 15.9902 4.75001 15.9903 4.51001 16.0803C4.21001 16.2103 3.97003 16.4503 3.84003 16.7603C3.75003 16.9803 3.75 17.4502 3.75 18.2302C3.75 19.0102 3.75003 19.4802 3.84003 19.7202C3.97003 20.0202 4.21002 20.2601 4.52002 20.3901C4.74002 20.4801 5.20999 20.4802 5.98999 20.4802H17.99C18.77 20.4802 19.24 20.4801 19.48 20.3901C19.78 20.2601 20.02 20.0202 20.15 19.7102C20.24 19.4903 20.24 19.0206 20.24 18.2411V18.2402V18.2393C20.24 17.4599 20.24 16.9902 20.15 16.7502C20.02 16.4502 19.78 16.2103 19.47 16.0803C19.25 15.9903 18.78 15.9902 18 15.9902H6ZM6 3.99023C5.22 3.99023 4.75001 3.99032 4.51001 4.08032C4.21001 4.21032 3.97003 4.45025 3.84003 4.76025C3.75003 4.98025 3.75 5.45022 3.75 6.23022C3.75 7.01022 3.75003 7.48022 3.84003 7.72021C3.97003 8.02022 4.21002 8.26014 4.52002 8.39014C4.74002 8.48014 5.20999 8.48022 5.98999 8.48022H17.99C18.77 8.48022 19.24 8.48014 19.48 8.39014C19.78 8.26014 20.02 8.02021 20.15 7.71021C20.24 7.49029 20.24 7.02059 20.24 6.24113V6.24023V6.23934C20.24 5.45988 20.24 4.99015 20.15 4.75024C20.02 4.45024 19.78 4.21032 19.47 4.08032C19.25 3.99032 18.78 3.99023 18 3.99023H6ZM6.00977 6.99023C5.59977 6.99023 5.25977 6.65023 5.25977 6.24023C5.25977 5.83023 5.58977 5.49023 6.00977 5.49023C6.41977 5.49023 6.75977 5.83023 6.75977 6.24023C6.75977 6.65023 6.41977 6.99023 6.00977 6.99023ZM5.25977 12.2402C5.25977 12.6502 5.59977 12.9902 6.00977 12.9902C6.41977 12.9902 6.75977 12.6502 6.75977 12.2402C6.75977 11.8302 6.41977 11.4902 6.00977 11.4902C5.58977 11.4902 5.25977 11.8302 5.25977 12.2402ZM6.00977 18.9902C5.59977 18.9902 5.25977 18.6502 5.25977 18.2402C5.25977 17.8302 5.58977 17.4902 6.00977 17.4902C6.41977 17.4902 6.75977 17.8302 6.75977 18.2402C6.75977 18.6502 6.41977 18.9902 6.00977 18.9902ZM8.25977 6.24023C8.25977 6.65023 8.59977 6.99023 9.00977 6.99023C9.41977 6.99023 9.75977 6.65023 9.75977 6.24023C9.75977 5.83023 9.41977 5.49023 9.00977 5.49023C8.58977 5.49023 8.25977 5.83023 8.25977 6.24023ZM9.00977 12.9902C8.59977 12.9902 8.25977 12.6502 8.25977 12.2402C8.25977 11.8302 8.58977 11.4902 9.00977 11.4902C9.41977 11.4902 9.75977 11.8302 9.75977 12.2402C9.75977 12.6502 9.41977 12.9902 9.00977 12.9902ZM8.25977 18.2402C8.25977 18.6502 8.59977 18.9902 9.00977 18.9902C9.41977 18.9902 9.75977 18.6502 9.75977 18.2402C9.75977 17.8302 9.41977 17.4902 9.00977 17.4902C8.58977 17.4902 8.25977 17.8302 8.25977 18.2402Z" fill="currentColor" fill-rule="evenodd"></path></svg>