<svg xmlns="http://www.w3.org/2000/svg" width="24" height="24" viewBox="0 0 24 24" fill="none" stroke-width="1.5" stroke-linecap="round" stroke-linejoin="round" color="currentColor"><path d="M18.4978 8.98608H5.4978C4.9978 8.98608 4.71782 8.98603 4.45782 8.92603C3.37782 8.70603 2.5278 7.85612 2.3078 6.77612C2.25781 6.51619 2.25781 6.23622 2.25781 5.73645V5.73608V5.73602C2.25781 5.23606 2.25781 4.95603 2.31781 4.69604C2.53781 3.61604 3.38783 2.76614 4.46783 2.54614C4.72783 2.49614 5.00781 2.49609 5.50781 2.49609H18.5078H18.5094C19.0084 2.49609 19.2881 2.49609 19.5478 2.55603C20.6278 2.77603 21.4778 3.62605 21.6978 4.70605C21.7478 4.966 21.7478 5.24597 21.7478 5.74575V5.74609V5.74614C21.7478 6.24611 21.7478 6.52614 21.6878 6.78613C21.4678 7.86613 20.6178 8.71604 19.5378 8.93604C19.2778 8.98604 18.9978 8.98608 18.4978 8.98608ZM5.4978 3.98608C5.1278 3.98608 4.87782 3.9861 4.76782 4.0061C4.26782 4.1061 3.87783 4.49609 3.77783 4.99609C3.74783 5.11609 3.7478 5.36608 3.7478 5.73608C3.7478 6.10608 3.74782 6.35606 3.76782 6.46606C3.86782 6.96606 4.25781 7.35605 4.75781 7.45605C4.87781 7.48605 5.1278 7.48608 5.4978 7.48608H18.4978C18.8678 7.48608 19.1178 7.48606 19.2278 7.46606C19.7278 7.36606 20.1178 6.97607 20.2178 6.47607C20.2478 6.3562 20.2478 6.10662 20.2478 5.73728V5.73608V5.73376C20.2478 5.36504 20.2478 5.11587 20.2278 5.0061C20.1278 4.5061 19.7378 4.11611 19.2378 4.01611C19.1178 3.98611 18.8678 3.98608 18.4978 3.98608H5.4978ZM18.4978 16.9861H5.4978C4.9978 16.9861 4.71782 16.986 4.45782 16.926C3.37782 16.706 2.5278 15.8561 2.3078 14.7761C2.25781 14.5162 2.25781 14.2362 2.25781 13.7365V13.7361V13.736C2.25781 13.2361 2.25781 12.956 2.31781 12.696C2.53781 11.616 3.38783 10.7661 4.46783 10.5461C4.72783 10.4961 5.00781 10.4961 5.50781 10.4961H18.5078H18.5094C19.0084 10.4961 19.2881 10.4961 19.5478 10.556C20.6278 10.776 21.4778 11.6261 21.6978 12.7061C21.7478 12.966 21.7478 13.246 21.7478 13.7458V13.7461V13.7461C21.7478 14.2461 21.7478 14.5261 21.6878 14.7861C21.4678 15.8661 20.6178 16.716 19.5378 16.936C19.2778 16.986 18.9978 16.9861 18.4978 16.9861ZM5.4978 11.9861C5.1278 11.9861 4.87782 11.9861 4.76782 12.0061C4.26782 12.1061 3.87783 12.4961 3.77783 12.9961C3.74783 13.1161 3.7478 13.3661 3.7478 13.7361C3.7478 14.1061 3.74782 14.3561 3.76782 14.4661C3.86782 14.9661 4.25781 15.3561 4.75781 15.4561C4.87781 15.4861 5.1278 15.4861 5.4978 15.4861H18.4978C18.8678 15.4861 19.1178 15.4861 19.2278 15.4661C19.7278 15.3661 20.1178 14.9761 20.2178 14.4761C20.2478 14.3562 20.2478 14.1066 20.2478 13.7373V13.7361V13.7338C20.2478 13.365 20.2478 13.1159 20.2278 13.0061C20.1278 12.5061 19.7378 12.1161 19.2378 12.0161C19.1178 11.9861 18.8678 11.9861 18.4978 11.9861H5.4978ZM4.24805 21.2361C4.24805 21.6461 4.58805 21.9861 4.99805 21.9861H18.998C19.408 21.9861 19.748 21.6461 19.748 21.2361C19.748 20.8261 19.408 20.4861 18.998 20.4861H12.748V19.2361C12.748 18.8261 12.408 18.4861 11.998 18.4861C11.588 18.4861 11.248 18.8261 11.248 19.2361V20.4861H4.99805C4.58805 20.4861 4.24805 20.8261 4.24805 21.2361ZM6.00781 14.4861C5.59781 14.4861 5.25781 14.1461 5.25781 13.7361C5.25781 13.3261 5.58781 12.9861 6.00781 12.9861C6.41781 12.9861 6.75781 13.3261 6.75781 13.7361C6.75781 14.1461 6.41781 14.4861 6.00781 14.4861ZM5.25781 5.73608C5.25781 6.14608 5.59781 6.48608 6.00781 6.48608C6.41781 6.48608 6.75781 6.14608 6.75781 5.73608C6.75781 5.32608 6.41781 4.98608 6.00781 4.98608C5.58781 4.98608 5.25781 5.32608 5.25781 5.73608ZM9.00781 14.4861C8.59781 14.4861 8.25781 14.1461 8.25781 13.7361C8.25781 13.3261 8.58781 12.9861 9.00781 12.9861C9.41781 12.9861 9.75781 13.3261 9.75781 13.7361C9.75781 14.1461 9.41781 14.4861 9.00781 14.4861ZM8.25781 5.73608C8.25781 6.14608 8.59781 6.48608 9.00781 6.48608C9.41781 6.48608 9.75781 6.14608 9.75781 5.73608C9.75781 5.32608 9.41781 4.98608 9.00781 4.98608C8.58781 4.98608 8.25781 5.32608 8.25781 5.73608Z" fill="currentColor" fill-rule="evenodd"></path></svg>