<svg xmlns="http://www.w3.org/2000/svg" width="24" height="24" viewBox="0 0 24 24" fill="none" stroke-width="1.5" stroke-linecap="round" stroke-linejoin="round" color="currentColor"><path d="M5 10.8125H19H19.0006C19.9902 10.8125 20.5401 10.8125 21.06 10.6025C21.73 10.3125 22.25 9.79255 22.54 9.11255C22.75 8.61255 22.7501 8.0525 22.7501 7.0625C22.7501 6.0725 22.75 5.52244 22.54 5.00244C22.25 4.33244 21.73 3.81246 21.05 3.52246C20.5501 3.3125 20.0002 3.3125 19.0006 3.3125H19H5H4.99945C4.0098 3.3125 3.45991 3.3125 2.94 3.52246C2.27 3.81246 1.75002 4.33245 1.46002 5.01245C1.25002 5.51245 1.25 6.0725 1.25 7.0625C1.25 8.0525 1.25002 8.60256 1.46002 9.12256C1.75002 9.79256 2.27001 10.3125 2.95001 10.6025C3.44992 10.8125 3.9998 10.8125 4.99944 10.8125H5ZM4.99911 4.8125H5H19H19.0009C19.7804 4.8125 20.2501 4.8125 20.47 4.90247C20.78 5.03247 21.02 5.27251 21.15 5.57251C21.24 5.81242 21.24 6.28214 21.24 7.06161V7.0625V7.06339C21.24 7.84286 21.24 8.31255 21.15 8.53247C21.02 8.84247 20.78 9.08252 20.48 9.21252C20.2401 9.30249 19.7703 9.30249 18.9909 9.30249H18.99H4.98999H4.9891C4.20963 9.30249 3.73994 9.30249 3.52002 9.21252C3.21002 9.08252 2.97003 8.84248 2.84003 8.54248C2.75003 8.30248 2.75 7.83249 2.75 7.05249C2.75 6.27249 2.75003 5.80252 2.84003 5.58252C2.97003 5.27252 3.21001 5.03247 3.51001 4.90247C3.74992 4.8125 4.21964 4.8125 4.99911 4.8125ZM5 20.8125H19H19.0005C19.9902 20.8125 20.5401 20.8125 21.06 20.6025C21.73 20.3125 22.25 19.7925 22.54 19.1125C22.75 18.6125 22.7501 18.0525 22.7501 17.0625C22.7501 16.0725 22.75 15.5224 22.54 15.0024C22.25 14.3324 21.73 13.8125 21.05 13.5225C20.5501 13.3125 20.0002 13.3125 19.0006 13.3125H19H5H4.99945C4.0098 13.3125 3.45991 13.3125 2.94 13.5225C2.27 13.8125 1.75002 14.3325 1.46002 15.0125C1.25002 15.5125 1.25 16.0725 1.25 17.0625C1.25 18.0525 1.25002 18.6026 1.46002 19.1226C1.75002 19.7926 2.27001 20.3125 2.95001 20.6025C3.44992 20.8125 3.9998 20.8125 4.99945 20.8125H5ZM4.99911 14.8125H5H19H19.0009C19.7804 14.8125 20.2501 14.8125 20.47 14.9025C20.78 15.0325 21.02 15.2725 21.15 15.5725C21.24 15.8124 21.24 16.2821 21.24 17.0616V17.0625V17.0634C21.24 17.8429 21.24 18.3126 21.15 18.5325C21.02 18.8425 20.78 19.0825 20.48 19.2125C20.2401 19.3025 19.7703 19.3025 18.9909 19.3025H18.99H4.98999H4.9891C4.20963 19.3025 3.73994 19.3025 3.52002 19.2125C3.21002 19.0825 2.97003 18.8425 2.84003 18.5425C2.75003 18.3025 2.75 17.8325 2.75 17.0525C2.75 16.2725 2.75003 15.8025 2.84003 15.5825C2.97003 15.2725 3.21001 15.0325 3.51001 14.9025C3.74992 14.8125 4.21964 14.8125 4.99911 14.8125ZM6.00977 18.0625C5.45977 18.0625 5.00977 17.6125 5.00977 17.0625C5.00977 16.5125 5.44977 16.0625 6.00977 16.0625C6.55977 16.0625 7.00977 16.5125 7.00977 17.0625C7.00977 17.6125 6.55977 18.0625 6.00977 18.0625ZM9.00977 17.0625C9.00977 17.6125 9.45977 18.0625 10.0098 18.0625C10.5598 18.0625 11.0098 17.6125 11.0098 17.0625C11.0098 16.5125 10.5598 16.0625 10.0098 16.0625C9.44977 16.0625 9.00977 16.5125 9.00977 17.0625ZM6.00977 8.0625C5.45977 8.0625 5.00977 7.6125 5.00977 7.0625C5.00977 6.5125 5.44977 6.0625 6.00977 6.0625C6.55977 6.0625 7.00977 6.5125 7.00977 7.0625C7.00977 7.6125 6.55977 8.0625 6.00977 8.0625ZM9.00977 7.0625C9.00977 7.6125 9.45977 8.0625 10.0098 8.0625C10.5598 8.0625 11.0098 7.6125 11.0098 7.0625C11.0098 6.5125 10.5598 6.0625 10.0098 6.0625C9.44977 6.0625 9.00977 6.5125 9.00977 7.0625Z" fill="currentColor" fill-rule="evenodd"></path></svg>