<svg xmlns="http://www.w3.org/2000/svg" width="24" height="24" viewBox="0 0 24 24" fill="none" stroke-width="1.5" stroke-linecap="round" stroke-linejoin="round" color="currentColor"><path d="M5.76758 11.6758C5.76758 12.0858 5.42758 12.4258 5.01758 12.4258C4.60758 12.4258 4.26758 12.0858 4.26758 11.6758C4.26758 7.10578 7.78758 3.33578 12.2676 2.95578V2.17578C12.2676 1.76578 12.6076 1.42578 13.0176 1.42578C13.4276 1.42578 13.7676 1.76578 13.7676 2.17578V2.95578C18.2476 3.33578 21.7676 7.10578 21.7676 11.6758C21.7676 12.0858 21.4276 12.4258 21.0176 12.4258C20.6076 12.4258 20.2676 12.0858 20.2676 11.6758C20.2676 7.67578 17.0176 4.42578 13.0176 4.42578C9.01758 4.42578 5.76758 7.67578 5.76758 11.6758ZM4.01703 13.4258H21.977C22.387 13.4258 22.727 13.7658 22.727 14.1758C22.727 14.5858 22.387 14.9258 21.977 14.9258H20.307L17.717 17.7758C16.577 19.0158 15.977 19.6658 15.157 20.0558C14.327 20.4558 13.427 20.5158 11.787 20.6158L8.53703 20.8258C7.86703 20.8658 7.55703 20.8958 7.34703 20.9858C7.14703 21.0758 6.94703 21.2758 6.44703 21.7758L5.51703 22.7058C5.36703 22.8558 5.17703 22.9258 4.98703 22.9258C4.79703 22.9258 4.60703 22.8558 4.45703 22.7058C4.16703 22.4158 4.16703 21.9358 4.45703 21.6458L5.38703 20.7158L5.38705 20.7158C5.93704 20.1658 6.26704 19.8358 6.73703 19.6258C7.19703 19.4158 7.66703 19.3758 8.45703 19.3358L11.707 19.1258C11.7654 19.1219 11.8226 19.1181 11.8787 19.1144C13.2651 19.0223 13.9792 18.9749 14.527 18.7058C15.0792 18.4494 15.5634 17.9208 16.5164 16.8802L16.557 16.8358L18.297 14.9258H16.807L15.237 16.4958C15.1797 16.5493 15.1341 16.594 15.0951 16.6322C15.0321 16.694 14.9865 16.7387 14.937 16.7758C14.517 17.1458 13.977 17.3758 13.387 17.4158C13.317 17.4258 13.207 17.4258 12.997 17.4258H9.49703C9.08703 17.4258 8.74703 17.0858 8.74703 16.6758C8.74703 16.2658 9.08703 15.9258 9.49703 15.9258H12.227C12.127 15.4358 11.747 15.0558 11.247 14.9558C11.127 14.9258 10.897 14.9258 10.507 14.9258H9.72703C8.75703 14.9258 8.26703 14.9258 7.86703 15.0258C7.54703 15.0958 7.26703 15.2158 7.02703 15.3658C6.65703 15.5858 6.31703 15.9258 5.62703 16.6158L2.54703 19.7058C2.25703 19.9958 1.77703 19.9958 1.48703 19.7058C1.19703 19.4158 1.19703 18.9358 1.48703 18.6458L4.56703 15.5658C4.81703 15.3158 5.02703 15.1058 5.21703 14.9258H4.01703C3.60703 14.9258 3.26703 14.5858 3.26703 14.1758C3.26703 13.7658 3.60703 13.4258 4.01703 13.4258ZM14.1224 15.5018C14.1413 15.4823 14.1623 15.4606 14.187 15.4358L14.697 14.9258H13.457C13.567 15.1458 13.657 15.3858 13.707 15.6358C13.727 15.6858 13.737 15.7458 13.737 15.7958C13.827 15.7458 13.907 15.6958 13.987 15.6258C14.0378 15.5895 14.0727 15.5533 14.1224 15.5018Z" fill="currentColor" fill-rule="evenodd"></path></svg>