<svg xmlns="http://www.w3.org/2000/svg" width="24" height="24" viewBox="0 0 24 24" fill="none" stroke-width="1.5" stroke-linecap="round" stroke-linejoin="round" color="currentColor"><path d="M19.9922 13.0505C19.9922 13.4605 20.3322 13.8005 20.7422 13.8005L20.7522 13.8105C21.1622 13.8105 21.5022 13.4705 21.5022 13.0605V10.7205C21.5022 9.83046 21.5022 9.34057 21.2922 8.83057C21.0922 8.34062 20.7423 7.99067 20.1124 7.36079L20.1122 7.3606L15.3722 2.62061C14.8322 2.07061 14.5322 1.77058 14.1222 1.59058L13.9922 1.53052C13.9893 1.52908 13.9846 1.5266 13.9785 1.52342C13.9422 1.50447 13.8579 1.46045 13.8322 1.46045C13.3825 1.31055 12.9727 1.31055 12.2137 1.31055H12.2122C8.79219 1.31055 7.07219 1.31061 5.76219 2.37061C5.50219 2.58061 5.26219 2.82057 5.05219 3.08057C3.99219 4.38057 3.99219 6.10051 3.99219 9.52051V13.0605C3.99219 13.4705 4.33219 13.8105 4.74219 13.8105C5.15219 13.8105 5.49219 13.4705 5.49219 13.0605V9.52051V9.5205C5.49219 6.45051 5.49219 4.91051 6.21219 4.02051C6.35219 3.84051 6.52219 3.68052 6.70219 3.53052C7.60215 2.81055 9.13206 2.81055 12.2018 2.81055H12.2022H12.9922V3.05054V3.05055C12.9922 6.08054 12.9922 7.60069 14.0922 8.70068C15.192 9.80054 16.7118 9.80054 19.741 9.80054H19.7422H19.9722C19.9922 10.0105 19.9922 10.2904 19.9922 10.7104V13.0505ZM15.1522 7.64062C14.5622 7.05062 14.4922 5.9406 14.4922 3.8606L18.9322 8.30054C16.8422 8.29054 15.7422 8.23063 15.1522 7.64062ZM7.41219 22.7205C7.51219 22.7705 7.63219 22.8005 7.74219 22.8005C8.01219 22.8005 8.28219 22.6406 8.41219 22.3806L11.4122 16.3806C11.5322 16.1506 11.5222 15.8706 11.3822 15.6506C11.2422 15.4206 11.0022 15.2905 10.7422 15.2905H6.74219C6.33219 15.2905 5.99219 15.6305 5.99219 16.0405C5.99219 16.4505 6.33219 16.7905 6.74219 16.7905H9.53219L7.07219 21.7104C6.89219 22.0805 7.04219 22.5305 7.41219 22.7205ZM14.7422 22.8005H18.7422C19.1522 22.8005 19.4922 22.4605 19.4922 22.0505C19.4922 21.6405 19.1522 21.3005 18.7422 21.3005H16.1422L19.3622 16.4705C19.5222 16.2405 19.5322 15.9407 19.4022 15.7007C19.2722 15.4507 19.0222 15.3005 18.7422 15.3005H14.7422C14.3322 15.3005 13.9922 15.6405 13.9922 16.0505C13.9922 16.4605 14.3322 16.8005 14.7422 16.8005H17.3422L14.1222 21.6306C13.9622 21.8606 13.9522 22.1606 14.0822 22.4006C14.2122 22.6506 14.4622 22.8005 14.7422 22.8005Z" fill="currentColor" fill-rule="evenodd"></path></svg>