<svg xmlns="http://www.w3.org/2000/svg" width="24" height="24" viewBox="0 0 24 24" fill="none" stroke-width="1.5" stroke-linecap="round" stroke-linejoin="round" color="currentColor"><path d="M12.7422 22.7988H20.7422L20.7522 22.8088C21.1622 22.8088 21.5022 22.4688 21.5022 22.0588C21.5022 21.6488 21.1622 21.3088 20.7522 21.3088H12.7522H12.7516C9.192 21.3088 7.40214 21.3088 6.45219 20.3589C5.50219 19.4089 5.50219 17.6188 5.50219 14.0589V14.0588V9.5188V9.51879C5.50219 6.4488 5.50219 4.9088 6.22219 4.0188C6.36219 3.8388 6.53219 3.67881 6.71219 3.52881C7.61215 2.80884 9.14206 2.80884 12.2118 2.80884H12.2122H13.0022V3.04883C13.0022 6.07883 13.0022 7.59897 14.1022 8.69897C15.202 9.79883 16.7218 9.79883 19.751 9.79883H19.7522H19.9722C20.0022 10.1588 20.0022 10.6388 20.0022 11.0488V11.0488C20.0022 11.4588 20.3422 11.7988 20.7522 11.7988C21.1622 11.7988 21.5022 11.4588 21.5022 11.0488C21.5022 9.97883 21.4922 9.30885 21.2922 8.81885C21.0922 8.3289 20.7423 7.97895 20.1124 7.34907L20.1122 7.34888L15.3722 2.60889C14.8322 2.05889 14.5322 1.75886 14.1222 1.57886L13.9922 1.5188C13.9894 1.5174 13.9848 1.51502 13.9789 1.51196C13.9429 1.49321 13.858 1.44897 13.8322 1.44897C13.3822 1.29897 12.9722 1.29883 12.2122 1.29883C8.79219 1.29883 7.07219 1.29889 5.76219 2.35889C5.50219 2.56889 5.26219 2.80885 5.05219 3.06885C3.99219 4.36885 3.99219 6.08879 3.99219 9.50879V14.0488C3.99219 18.0288 3.99219 20.0189 5.38219 21.4089C6.77208 22.7988 8.76188 22.7988 12.7413 22.7988H12.7422ZM15.1522 7.63892C14.5622 7.04892 14.4922 5.93889 14.4922 3.85889L18.9322 8.29883C16.8422 8.28883 15.7422 8.22892 15.1522 7.63892ZM12.4622 19.7485C12.5522 19.7785 12.6522 19.7986 12.7422 19.7986V19.8086C13.0422 19.8086 13.3222 19.6286 13.4422 19.3386L15.4422 14.3386C15.5322 14.1086 15.5022 13.8487 15.3622 13.6387C15.2222 13.4287 14.9922 13.3086 14.7422 13.3086H11.7422C11.3322 13.3086 10.9922 13.6486 10.9922 14.0586C10.9922 14.4686 11.3322 14.8086 11.7422 14.8086H13.6322L12.0422 18.7786C11.8922 19.1586 12.0822 19.5985 12.4622 19.7485ZM17.7422 19.7986H20.7422C21.1522 19.7986 21.4922 19.4586 21.4922 19.0486C21.4922 18.6386 21.1522 18.2986 20.7422 18.2986H19.0622L21.3822 14.4387C21.5122 14.2087 21.5122 13.9187 21.3822 13.6887C21.2522 13.4587 21.0022 13.3086 20.7322 13.3086H17.7322C17.3222 13.3086 16.9822 13.6486 16.9822 14.0586C16.9822 14.4686 17.3222 14.8086 17.7322 14.8086H19.4122L17.0922 18.6687C16.9622 18.8987 16.9622 19.1887 17.0922 19.4187C17.2222 19.6487 17.4722 19.7986 17.7422 19.7986Z" fill="currentColor" fill-rule="evenodd"></path></svg>