<svg xmlns="http://www.w3.org/2000/svg" width="24" height="24" viewBox="0 0 24 24" fill="none" stroke-width="1.5" stroke-linecap="round" stroke-linejoin="round" color="currentColor"><path d="M13.25 9.18994C13.25 10.0499 13.95 10.75 14.81 10.75H20.19C21.05 10.75 21.75 10.0499 21.75 9.18994C21.75 8.93994 21.68 8.67999 21.58 8.48999L18.9 3.12988C18.65 2.58988 18.11 2.25 17.5 2.25C16.89 2.25 16.35 2.58011 16.11 3.11011L13.43 8.46997C13.31 8.68997 13.25 8.93994 13.25 9.18994ZM14.76 9.16992L17.55 3.79004L20.19 9.25H14.81L14.76 9.16992ZM6.49962 10.75H6.5V10.76H6.50038C8.01014 10.76 8.84007 10.76 9.51001 10.3C9.82001 10.1 10.09 9.83004 10.28 9.54004C10.75 8.85008 10.75 8.02011 10.75 6.51029V6.51001V6.50962C10.75 4.99987 10.75 4.16994 10.29 3.5C10.09 3.19 9.82003 2.91998 9.53003 2.72998C8.84007 2.26001 8.0101 2.26001 6.50028 2.26001H6.5H6.49962C4.98986 2.26001 4.15993 2.26001 3.48999 2.71997C3.17999 2.91997 2.91003 3.18998 2.72003 3.47998C2.25003 4.16998 2.25 5.00001 2.25 6.51001C2.25 8.02001 2.25002 8.85002 2.71002 9.52002C2.91002 9.83002 3.17004 10.09 3.48004 10.29C4.16998 10.75 4.99986 10.75 6.49962 10.75ZM6.49935 3.75H6.5H6.50047C7.68019 3.75 8.38007 3.75 8.71002 3.96997C8.83002 4.04997 8.95004 4.16006 9.04004 4.31006C9.25 4.62 9.25 5.31974 9.25 6.49934V6.5V6.50047C9.25 7.68018 9.25 8.38 9.03003 8.70996C8.95003 8.82996 8.84 8.95004 8.69 9.04004C8.38006 9.25 7.67026 9.25 6.50065 9.25H6.5H6.49954C5.32981 9.25 4.61996 9.25 4.31 9.03003H4.29004C4.17004 8.95003 4.05002 8.83994 3.96002 8.68994C3.75002 8.37994 3.75 7.68 3.75 6.5C3.75 5.32 3.75003 4.62004 3.97003 4.29004C4.05003 4.17004 4.16 4.04996 4.31 3.95996C4.61994 3.75 5.32974 3.75 6.49935 3.75ZM6.5 21.75C4.16 21.75 2.25 19.84 2.25 17.5C2.25 15.16 4.16 13.25 6.5 13.25C8.84 13.25 10.75 15.16 10.75 17.5C10.75 19.84 8.84 21.75 6.5 21.75ZM6.5 14.75C4.98 14.75 3.75 15.98 3.75 17.5C3.75 19.02 4.98 20.25 6.5 20.25C8.02 20.25 9.25 19.02 9.25 17.5C9.25 15.98 8.02 14.75 6.5 14.75ZM15.0014 21.25H17.5014H17.502C19.0716 21.25 19.9315 21.25 20.5914 20.5901C21.2514 19.9301 21.2514 19.07 21.2514 17.5002V17.5V15C21.2514 14.59 20.9114 14.25 20.5014 14.25C20.0914 14.25 19.7514 14.59 19.7514 15V17.5V17.5029C19.7514 17.9616 19.7514 18.3506 19.7314 18.6699L15.0314 13.9699C14.7414 13.6799 14.2614 13.6799 13.9714 13.9699C13.6814 14.2599 13.6814 14.74 13.9714 15.03L18.6714 19.73C18.3514 19.75 17.9614 19.75 17.5014 19.75H15.0014C14.5914 19.75 14.2514 20.09 14.2514 20.5C14.2514 20.91 14.5914 21.25 15.0014 21.25Z" fill="currentColor" fill-rule="evenodd"></path></svg>