<svg xmlns="http://www.w3.org/2000/svg" width="24" height="24" viewBox="0 0 24 24" fill="none" stroke-width="1.5" stroke-linecap="round" stroke-linejoin="round" color="currentColor"><path d="M18.7083 7C20.1334 8.59227 21 10.6949 21 13C21 17.9706 16.9706 22 12 22C7.02944 22 3 17.9706 3 13C3 10.6949 3.86656 8.59227 5.29168 7" stroke="currentColor"></path><path d="M12.0253 2.00052L12 14M12.0253 2.00052C11.8627 1.99379 11.6991 2.05191 11.5533 2.17492C10.6469 2.94006 9 4.92886 9 4.92886M12.0253 2.00052C12.1711 2.00657 12.3162 2.06476 12.4468 2.17508C13.3531 2.94037 15 4.92886 15 4.92886" stroke="currentColor"></path></svg>