<svg xmlns="http://www.w3.org/2000/svg" width="24" height="24" viewBox="0 0 24 24" fill="none"><path d="M9.5 9C9.5 7.61929 10.6193 6.5 12 6.5C13.3807 6.5 14.5 7.61929 14.5 9C14.5 9.85691 14.0689 10.6131 13.4117 11.0636C12.7283 11.5319 12 12.1716 12 13" stroke="currentColor" stroke-linecap="round" stroke-linejoin="round" stroke-width="1.5" /><path d="M12.125 16.25H12M12.25 16.25C12.25 16.3881 12.1381 16.5 12 16.5C11.8619 16.5 11.75 16.3881 11.75 16.25C11.75 16.1119 11.8619 16 12 16C12.1381 16 12.25 16.1119 12.25 16.25Z" stroke="currentColor" stroke-linecap="round" stroke-linejoin="round" stroke-width="1.5" /><path d="M18.7088 3.49534C16.8165 2.55382 14.5009 2 12 2C9.4991 2 7.1835 2.55382 5.29116 3.49534C4.36318 3.95706 3.89919 4.18792 3.4496 4.91378C3 5.63965 3 6.34248 3 7.74814V11.2371C3 16.9205 7.54236 20.0804 10.173 21.4338C10.9067 21.8113 11.2735 22 12 22C12.7265 22 13.0933 21.8113 13.8269 21.4338C16.4576 20.0804 21 16.9205 21 11.2371L21 7.74814C21 6.34249 21 5.63966 20.5504 4.91378C20.1008 4.18791 19.6368 3.95706 18.7088 3.49534Z" stroke="currentColor" stroke-linecap="round" stroke-linejoin="round" stroke-width="1.5" /></svg>