<svg xmlns="http://www.w3.org/2000/svg" width="24" height="24" viewBox="0 0 24 24" fill="none" stroke-width="1.5" stroke-linecap="round" stroke-linejoin="round" color="currentColor"><path d="M14 8.5C14 9.60453 13.1046 10.5 12 10.5C10.8954 10.5 10 9.60453 10 8.5C10 7.39543 10.8954 6.5 12 6.5C13.1046 6.5 14 7.39543 14 8.5Z" stroke="currentColor"></path><path d="M9.59003 13.6482L9.21078 13.0012L9.59003 13.6482ZM14.41 13.6482L14.7892 13.0012L14.7892 13.0012L14.41 13.6482ZM8.31674 15.711L7.80369 16.2581H7.80369L8.31674 15.711ZM15.6833 15.711L15.1702 15.1639V15.1639L15.6833 15.711ZM9.96929 14.2952C11.2096 13.5683 12.7904 13.5683 14.0307 14.2952L14.7892 13.0012C13.0805 11.9996 10.9195 11.9996 9.21078 13.0012L9.96929 14.2952ZM10.0404 17.25H13.9596V15.75H10.0404V17.25ZM8.82979 15.1639C8.69301 15.0357 8.75965 15.0307 8.74907 15.126C8.74383 15.1732 8.72905 15.1323 8.86143 15.0048C9.14155 14.7349 9.57346 14.5272 9.96929 14.2952L9.21078 13.0012C8.97782 13.1377 8.27102 13.4906 7.82065 13.9246C7.58779 14.1489 7.30982 14.4958 7.25823 14.9605C7.20129 15.4733 7.4384 15.9155 7.80369 16.2581L8.82979 15.1639ZM14.0307 14.2952C14.4265 14.5272 14.8585 14.7349 15.1386 15.0048C15.2709 15.1323 15.2562 15.1732 15.2509 15.126C15.2403 15.0307 15.307 15.0357 15.1702 15.1639L16.1963 16.2581C16.5616 15.9155 16.7987 15.4733 16.7418 14.9605C16.6902 14.4958 16.4122 14.1489 16.1793 13.9246C15.729 13.4906 15.0222 13.1377 14.7892 13.0012L14.0307 14.2952ZM15.1702 15.1639C14.7488 15.5592 14.3778 15.75 13.9596 15.75V17.25C14.9151 17.25 15.6367 16.7828 16.1963 16.2581L15.1702 15.1639ZM7.80369 16.2581C8.36326 16.7828 9.08488 17.25 10.0404 17.25V15.75C9.62222 15.75 9.25123 15.5592 8.82979 15.1639L7.80369 16.2581Z" fill="currentColor"></path><path d="M21 11.1833V8.28029C21 6.64029 21 5.82028 20.5959 5.28529C20.1918 4.75029 19.2781 4.49056 17.4507 3.9711C16.2022 3.6162 15.1016 3.18863 14.2223 2.79829C13.0234 2.2661 12.424 2 12 2C11.576 2 10.9766 2.2661 9.77771 2.79829C8.89839 3.18863 7.79784 3.61619 6.54933 3.9711C4.72193 4.49056 3.80822 4.75029 3.40411 5.28529C3 5.82028 3 6.64029 3 8.28029V11.1833C3 16.8085 8.06277 20.1835 10.594 21.5194C11.2011 21.8398 11.5046 22 12 22C12.4954 22 12.7989 21.8398 13.406 21.5194C15.9372 20.1835 21 16.8085 21 11.1833Z" stroke="currentColor"></path></svg>