<svg xmlns="http://www.w3.org/2000/svg" width="24" height="24" viewBox="0 0 24 24" fill="none" stroke-width="1.5" stroke-linecap="round" stroke-linejoin="round" color="currentColor"><path d="M10.5 20.25C10.5 20.6642 10.1642 21 9.75 21C9.33579 21 9 20.6642 9 20.25C9 19.8358 9.33579 19.5 9.75 19.5C10.1642 19.5 10.5 19.8358 10.5 20.25Z" fill="none"></path><path d="M19 20.25C19 20.6642 18.6642 21 18.25 21C17.8358 21 17.5 20.6642 17.5 20.25C17.5 19.8358 17.8358 19.5 18.25 19.5C18.6642 19.5 19 19.8358 19 20.25Z" fill="none"></path><path d="M2 3H2.20664C3.53124 3 4.19354 3 4.6255 3.40221C5.05746 3.80441 5.10464 4.46503 5.19902 5.78626L5.45035 9.30496C5.5924 11.2936 5.66342 12.2879 5.96476 13.0961C6.62531 14.8677 8.08229 16.2244 9.89648 16.757C10.7241 17 11.7267 17 13.7317 17C15.8373 17 16.9129 16.9939 17.7646 16.7355C19.6822 16.1538 21.1828 14.6532 21.7645 12.7356C21.9077 12.2634 21.9716 11.7312 22 10.9939M13.5 6H5.5" fill="none"></path><path d="M22 6.50002C22 6.50002 20.1588 8.99999 19.5 9C18.8412 9.00001 17 6.5 17 6.5M19.5 8L19.5 3" fill="none"></path></svg>