<svg xmlns="http://www.w3.org/2000/svg" width="24" height="24" viewBox="0 0 24 24" fill="none" stroke-width="1.5" stroke-linecap="round" stroke-linejoin="round" color="currentColor"><path d="M19.8724 5.35058L21.1424 13.7506V13.7406C21.5424 16.3906 21.7524 19.1106 21.7524 21.8006C21.7524 22.1306 21.5424 22.4206 21.2224 22.5206L16.2224 24.0206C16.1424 24.0406 16.0724 24.0506 16.0024 24.0506C15.9524 24.0506 15.8624 24.0406 15.8624 24.0406L2.86235 21.5406C2.48235 21.4706 2.22235 21.1306 2.25235 20.7506L3.27235 7.76058C3.30235 7.45058 3.51235 7.19058 3.81235 7.10058L6.34235 6.36058C6.37235 6.12058 6.41235 5.88058 6.45235 5.66058C7.11235 2.45058 9.16235 0.230579 11.1624 0.620579C11.8224 0.740579 12.3824 1.14058 12.8124 1.72058C12.8421 1.72058 12.8723 1.72019 12.9027 1.71979C13.0255 1.71819 13.1521 1.71653 13.2724 1.74058C14.1724 1.91058 14.9124 2.63058 15.3624 3.73058L15.8024 3.60058H15.8224C15.9224 3.57058 16.0224 3.56058 16.1224 3.58058C16.1424 3.59058 16.1524 3.59058 16.1724 3.59058C16.2624 3.61058 16.3624 3.65058 16.4424 3.71058H16.4524L17.7524 4.71058H19.1324C19.5024 4.71058 19.8224 4.98058 19.8724 5.35058ZM13.6924 4.20058L13.9024 4.14058C13.8124 3.94058 13.7124 3.78058 13.6024 3.64058C13.6111 3.69292 13.6206 3.7461 13.6303 3.79988C13.6539 3.93107 13.6782 4.06582 13.6924 4.20058ZM12.0265 3.50469C11.5984 3.80532 11.1707 4.3239 10.8024 5.05058L12.2324 4.63058C12.1929 4.21638 12.1243 3.84108 12.0265 3.50469ZM11.2224 2.24058C11.1024 2.16058 10.9924 2.10058 10.8624 2.08058H10.8724C9.89235 1.89058 8.44235 3.41058 7.92235 5.89058L8.97235 5.58058C9.47235 4.07058 10.2924 2.88058 11.2224 2.24058ZM15.2524 5.31058L4.71235 8.39058L3.80235 20.2006L15.2524 22.4006V5.31058ZM16.7524 22.2976V5.83058L17.0424 6.05058C17.1724 6.15058 17.3324 6.21058 17.5024 6.21058H18.4824L19.6524 13.9706C20.0124 16.3706 20.2124 18.8206 20.2424 21.2506L16.7524 22.2976ZM9.19348 8.76062C10.6435 8.11062 12.5335 8.81062 13.0835 9.04062V9.06062C13.4635 9.22062 13.6435 9.66062 13.4835 10.0406C13.3235 10.4206 12.8835 10.6006 12.5035 10.4406C11.7035 10.1106 10.5135 9.83062 9.80348 10.1506C9.52348 10.2806 9.33348 10.5006 9.21348 10.8406C8.90348 11.7406 9.84348 12.7106 10.6835 13.3706C13.0535 15.2406 12.6835 17.0306 12.0935 17.7906C11.5835 18.4606 10.8435 18.8806 9.96348 18.9806C9.80348 19.0106 9.65348 19.0106 9.49348 19.0106C8.16348 19.0106 6.90348 18.3806 6.32348 17.9106C6.00348 17.6406 5.95348 17.1706 6.21348 16.8506C6.48348 16.5306 6.95348 16.4806 7.27348 16.7406C7.72348 17.1006 8.84348 17.6006 9.79348 17.4806C10.2735 17.4206 10.6435 17.2206 10.9135 16.8606C11.1435 16.5506 11.2135 15.6706 9.76348 14.5306C7.54348 12.8006 7.46348 11.3006 7.79348 10.3406C8.04348 9.60062 8.52348 9.06062 9.19348 8.76062Z" fill="currentColor" fill-rule="evenodd"></path></svg>