<svg xmlns="http://www.w3.org/2000/svg" width="24" height="24" viewBox="0 0 24 24" fill="none" stroke-width="1.5" stroke-linecap="round" stroke-linejoin="round" color="currentColor"><path d="M8 7H16C17.8856 7 18.8284 7 19.4142 7.58579C20 8.17157 20 9.11438 20 11V15C20 18.2998 20 19.9497 18.9749 20.9749C17.9497 22 16.2998 22 13 22H11C7.70017 22 6.05025 22 5.02513 20.9749C4 19.9497 4 18.2998 4 15V11C4 9.11438 4 8.17157 4.58579 7.58579C5.17157 7 6.11438 7 8 7Z" fill="none"></path><path d="M16 9.5C16 5.63401 14.2091 2 12 2C9.79086 2 8 5.63401 8 9.5" fill="none"></path></svg>