<svg xmlns="http://www.w3.org/2000/svg" width="24" height="24" viewBox="0 0 24 24" fill="none"><path d="M20.1765 12.5113C19.8261 9.50898 19.3142 7.25784 18.8394 5.65851C18.4501 4.34711 18.2554 3.69141 17.4572 3.0957C16.659 2.5 15.8431 2.5 14.2113 2.5H8.78876C7.15697 2.5 6.34107 2.5 5.54283 3.0957C4.74459 3.69141 4.54994 4.34711 4.16063 5.65851C3.68586 7.25784 3.1739 9.50898 2.82352 12.5113C2.41058 16.0497 2.20411 17.8189 3.39731 19.1594C4.59052 20.5 6.52422 20.5 10.3916 20.5H12.6084" stroke="currentColor" stroke-linecap="round" stroke-linejoin="round" stroke-width="1.5" /><path d="M8.5 6.5C8.5 8.15685 9.84315 9.5 11.5 9.5C13.1569 9.5 14.5 8.15685 14.5 6.5" stroke="currentColor" stroke-linecap="round" stroke-linejoin="round" stroke-width="1.5" /><path d="M15.5 18.5H21.5M18.5 21.5V15.5" stroke="currentColor" stroke-linecap="round" stroke-linejoin="round" stroke-width="1.5" /></svg>