<svg xmlns="http://www.w3.org/2000/svg" width="24" height="24" viewBox="0 0 24 24" fill="none" stroke-width="1.5" stroke-linecap="round" stroke-linejoin="round" color="currentColor"><path d="M11.5 22H10C6.70017 22 5.05025 22 4.02513 20.9749C3 19.9497 3 18.2998 3 15V11C3 9.11438 3 8.17157 3.58579 7.58579C4.17157 7 5.11438 7 7 7H15C16.8856 7 17.8284 7 18.4142 7.58579C19 8.17157 19 9.11438 19 11V13.5" fill="none"></path><path d="M15 9.5C15 5.63401 13.2091 2 11 2C8.79086 2 7 5.63401 7 9.5" fill="none"></path><path d="M14 20C14 20 15 20 16 22C16 22 18.1765 17 21 16" fill="none"></path></svg>