<svg xmlns="http://www.w3.org/2000/svg" width="24" height="24" viewBox="0 0 24 24" fill="none" stroke-width="1.5" stroke-linecap="round" stroke-linejoin="round" color="currentColor"><path d="M10.5 20.25C10.5 20.6642 10.1642 21 9.75 21C9.33579 21 9 20.6642 9 20.25C9 19.8358 9.33579 19.5 9.75 19.5C10.1642 19.5 10.5 19.8358 10.5 20.25Z" fill="none"></path><path d="M19 20.25C19 20.6642 18.6642 21 18.25 21C17.8358 21 17.5 20.6642 17.5 20.25C17.5 19.8358 17.8358 19.5 18.25 19.5C18.6642 19.5 19 19.8358 19 20.25Z" fill="none"></path><path d="M2 3H2.20664C3.53124 3 4.19354 3 4.6255 3.40221C5.05746 3.80441 5.10464 4.46503 5.19902 5.78626L5.45035 9.30496C5.5924 11.2936 5.66342 12.2879 5.96476 13.0961C6.62531 14.8677 8.08229 16.2244 9.89648 16.757C10.7241 17 11.7267 17 13.7317 17C15.8373 17 16.89 17 17.7417 16.7416C19.6593 16.1599 21.1599 14.6593 21.7416 12.7417C21.9426 12.0793 21.9872 11.299 21.9972 10M12 6H5.5" fill="none"></path><path d="M18.5 9C18.5 9 15 6.88235 15 4.83333C15 3.82081 15.7368 3 16.75 3C17.275 3 17.8 3.17647 18.5 3.88235C19.2 3.17647 19.725 3 20.25 3C21.2632 3 22 3.82081 22 4.83333C22 6.88235 18.5 9 18.5 9Z" fill="none"></path></svg>