<svg xmlns="http://www.w3.org/2000/svg" width="24" height="24" viewBox="0 0 24 24" fill="none" stroke-width="1.5" stroke-linecap="round" stroke-linejoin="round" color="currentColor"><path d="M14 15L17.5 18.5M17.5 18.5L21 22M17.5 18.5L14 22M17.5 18.5L21 15" stroke="currentColor"></path><path d="M7 7.5V7C7 4.23858 9.23858 2 12 2C14.7614 2 17 4.23858 17 7V7.5" stroke="currentColor"></path><path d="M20.3926 12.5L20.8221 9.93557C21.0113 8.8063 21.1059 8.24167 20.8146 7.87083C20.5234 7.5 19.9853 7.5 18.9092 7.5H5.09079C4.01468 7.5 3.47662 7.5 3.18537 7.87083C2.89411 8.24167 2.98869 8.8063 3.17786 9.93557L4.34085 16.8781C4.75097 19.3264 4.95603 20.5505 5.76809 21.2752C6.58014 22 7.74664 22 10.0796 22H11" stroke="currentColor"></path><path d="M4.5 17.5H11" stroke="currentColor"></path></svg>