<svg xmlns="http://www.w3.org/2000/svg" width="24" height="24" viewBox="0 0 24 24" fill="none" stroke-width="1.5" stroke-linecap="round" stroke-linejoin="round" color="currentColor"><path d="M3.32349 13.0113C3.67387 10.009 4.18582 7.75784 4.6606 6.15851C5.04991 4.84711 5.24456 4.19141 6.0428 3.5957C6.84104 3 7.65694 3 9.28873 3H14.7112C16.343 3 17.1589 3 17.9572 3.5957C18.7554 4.19141 18.9501 4.84711 19.3394 6.15851C19.8142 7.75784 20.3261 10.009 20.6765 13.0113C21.0894 16.5497 21.2959 18.3189 20.1027 19.6594C18.9095 21 16.9758 21 13.1084 21H10.8916C7.02419 21 5.09049 21 3.89728 19.6594C2.70408 18.3189 2.91055 16.5497 3.32349 13.0113Z" fill="none"></path><path d="M8.99997 7C8.99997 8.65685 10.3431 10 12 10C13.6568 10 15 8.65685 15 7" fill="none"></path></svg>