<svg xmlns="http://www.w3.org/2000/svg" width="24" height="24" viewBox="0 0 24 24" fill="none"><path d="M17.5 8.75L15.0447 19.5532C15.015 19.684 15 19.8177 15 19.9518C15 20.9449 15.8051 21.75 16.7982 21.75H18" stroke="currentColor" stroke-linecap="round" stroke-linejoin="round" stroke-width="1.5" /><path d="M19.2192 21.75H4.78078C3.79728 21.75 3 20.9527 3 19.9692C3 19.8236 3.01786 19.6786 3.05317 19.5373L5.24254 10.7799C5.60631 9.32474 5.78821 8.59718 6.33073 8.17359C6.87325 7.75 7.6232 7.75 9.12311 7.75H14.8769C16.3768 7.75 17.1267 7.75 17.6693 8.17359C18.2118 8.59718 18.3937 9.32474 18.7575 10.7799L20.9468 19.5373C20.9821 19.6786 21 19.8236 21 19.9692C21 20.9527 20.2027 21.75 19.2192 21.75Z" stroke="currentColor" stroke-linecap="round" stroke-linejoin="round" stroke-width="1.5" /><path d="M15 7.75V5.75C15 4.09315 13.6569 2.75 12 2.75C10.3431 2.75 9 4.09315 9 5.75V7.75" stroke="currentColor" stroke-linecap="round" stroke-linejoin="round" stroke-width="1.5" /><path d="M10 10.75H12.5" stroke="currentColor" stroke-linecap="round" stroke-linejoin="round" stroke-width="1.5" /></svg>