<svg xmlns="http://www.w3.org/2000/svg" width="24" height="24" viewBox="0 0 24 24" fill="none" stroke-width="1.5" stroke-linecap="round" stroke-linejoin="round" color="currentColor"><path d="M13.25 22H10.25C6.95017 22 5.30025 22 4.27513 20.9749C3.25 19.9497 3.25 18.2998 3.25 15V11C3.25 9.11438 3.25 8.17157 3.83579 7.58579C4.42157 7 5.36438 7 7.25 7H15.25C17.1356 7 18.0784 7 18.6642 7.58579C19.25 8.17157 19.25 9.11438 19.25 11V13" fill="none"></path><path d="M15.25 9.5C15.25 5.63401 13.4591 2 11.25 2C9.04086 2 7.25 5.63401 7.25 9.5" fill="none"></path><path d="M15.25 19H21.25M18.25 22V16" fill="none"></path></svg>