<svg xmlns="http://www.w3.org/2000/svg" width="24" height="24" viewBox="0 0 24 24" fill="none" stroke-width="1.5" stroke-linecap="round" stroke-linejoin="round" color="currentColor"><path d="M13.5 22H10C6.70017 22 5.05025 22 4.02513 20.9749C3 19.9497 3 18.2998 3 15V11C3 9.11438 3 8.17157 3.58579 7.58579C4.17157 7 5.11438 7 7 7H15C16.8856 7 17.8284 7 18.4142 7.58579C19 8.17157 19 9.11438 19 11V12" fill="none"></path><path d="M15 9.5C15 5.63401 13.2091 2 11 2C8.79086 2 7 5.63401 7 9.5" fill="none"></path><path d="M20.2363 15.5234C19.6055 15.1938 18.8336 15 18 15C17.1664 15 16.3945 15.1938 15.7637 15.5234C15.4544 15.685 15.2997 15.7658 15.1499 16.0198C15 16.2739 15 16.5199 15 17.0118V18.233C15 20.2222 16.5141 21.3281 17.391 21.8018C17.6356 21.9339 17.7578 22 18 22C18.2422 22 18.3644 21.9339 18.609 21.8018C19.4859 21.3281 21 20.2222 21 18.233L21 17.0119C21 16.5199 21 16.2739 20.8501 16.0198C20.7003 15.7658 20.5456 15.685 20.2363 15.5234Z" fill="none"></path></svg>