<svg xmlns="http://www.w3.org/2000/svg" width="24" height="24" viewBox="0 0 24 24" fill="none" stroke-width="1.5" stroke-linecap="round" stroke-linejoin="round" color="currentColor"><path d="M17 1.5625L16.99 1.56257L16.98 1.5625H17ZM16.99 1.56257C17.3955 1.56804 17.73 1.90584 17.73 2.3125C17.73 4.9625 15.01 6.0925 12.22 7.0225C7.31 8.6625 5.73 10.0625 5.73 12.8125C5.73 15.7825 8.21 17.0925 8.32 17.1425C8.69 17.3325 8.84 17.7825 8.65 18.1525C8.52 18.4125 8.25 18.5625 7.98 18.5625C7.87 18.5625 7.76 18.5325 7.65 18.4825C7.64542 18.4797 7.63672 18.4749 7.62422 18.4679L7.6242 18.4679C7.50023 18.3988 7.00224 18.1212 6.43 17.6125C6.33 18.1325 6.24 18.7925 6.24 19.5425C6.24 20.6803 6.62731 21.8434 6.69114 22.0351C6.69688 22.0523 6.7 22.0617 6.7 22.0625C6.84 22.4525 6.64 22.8825 6.25 23.0225C6.17 23.0525 6.08 23.0625 6 23.0625C5.69 23.0625 5.4 22.8825 5.29 22.5725C5.28854 22.5674 5.28442 22.5549 5.27802 22.5355C5.19685 22.2891 4.75 20.933 4.75 19.5425C4.75 17.9225 5.1 16.6525 5.24 16.2225C4.68 15.3625 4.25 14.2325 4.25 12.8125C4.25 8.8725 7 7.1925 11.76 5.6025C15.08 4.4925 16.25 3.6325 16.25 2.3125C16.25 1.90584 16.5845 1.56804 16.99 1.56257ZM19.0001 8.5626C18.9401 8.5626 18.8801 8.5626 18.8201 8.5426L16.8201 8.0426C16.4201 7.9426 16.1701 7.5326 16.2701 7.1326C16.3701 6.7326 16.7801 6.4826 17.1801 6.5826L19.1801 7.0826C19.5801 7.1826 19.8301 7.5926 19.7301 7.9926C19.6501 8.3326 19.3401 8.5626 19.0001 8.5626ZM16.1402 19.0623H19.0002V19.0723C19.4102 19.0723 19.7502 18.7323 19.7502 18.3223C19.7502 17.9123 19.4102 17.5723 19.0002 17.5723H16.1402C15.0502 17.5723 14.0402 17.0224 13.4402 16.1224L12.6302 14.9023C12.4002 14.5523 11.9402 14.4623 11.5902 14.6924C11.2502 14.9223 11.1502 15.3923 11.3802 15.7323L12.1902 16.9523C12.2098 16.9818 12.2298 17.011 12.25 17.0399V22.3125C12.25 22.7225 12.59 23.0625 13 23.0625C13.41 23.0625 13.75 22.7225 13.75 22.3125V18.4193C14.4645 18.8346 15.2865 19.0623 16.1402 19.0623ZM18 16.0723C17.59 16.0723 17.25 15.7323 17.25 15.3223C17.25 14.9123 17.59 14.5723 18 14.5723C18.41 14.5723 18.75 14.9023 18.75 15.3223C18.75 15.7423 18.41 16.0823 18 16.0823V16.0723Z" fill="currentColor" fill-rule="evenodd"></path></svg>