<svg xmlns="http://www.w3.org/2000/svg" width="24" height="24" viewBox="0 0 24 24" fill="none"><path d="M16.5 4.70711V7.5L19.2928 7.50043C19.7456 7.5005 20.1799 7.32065 20.5001 7.00046L21.1463 6.35424C21.3728 6.12777 21.5 5.82061 21.5 5.50033C21.5 5.17998 21.3728 4.87276 21.1462 4.64627L19.3525 2.85316C19.1263 2.62703 18.8195 2.5 18.4997 2.5C18.1797 2.5 17.8729 2.62709 17.6467 2.8533L17 3.5C16.6799 3.82014 16.5 4.25435 16.5 4.70711Z" stroke="currentColor" stroke-linecap="round" stroke-linejoin="round" stroke-width="1.5" /><path d="M16.5 7.5L8.50005 15.5" stroke="currentColor" stroke-linecap="round" stroke-linejoin="round" stroke-width="1.5" /><path d="M5.63517 21.5002H5.45182C4.05997 21.5002 3.36405 21.5002 2.93174 21.0679C2.49943 20.6355 2.49962 19.9396 2.49999 18.5478L2.50004 18.3654C2.50004 16.2778 3.32936 14.2758 4.80556 12.7997C5.95398 11.651 6.52819 11.0766 7.23229 11.0092C7.35699 10.9973 7.48254 10.9973 7.60724 11.0092C8.31135 11.0765 8.88563 11.6508 10.0342 12.7994L11.2005 13.9658C12.3496 15.115 12.9241 15.6895 12.9911 16.3941C13.0029 16.5178 13.0029 16.6424 12.9912 16.7661C12.9244 17.4707 12.35 18.0454 11.2012 19.1949C9.72499 20.671 7.72283 21.5002 5.63517 21.5002Z" stroke="currentColor" stroke-linecap="round" stroke-linejoin="round" stroke-width="1.5" /></svg>