<svg xmlns="http://www.w3.org/2000/svg" width="24" height="24" viewBox="0 0 24 24" fill="none"><path d="M12 11.5V12.5M13 12C13 12.5523 12.5523 13 12 13C11.4477 13 11 12.5523 11 12C11 11.4477 11.4477 11 12 11C12.5523 11 13 11.4477 13 12Z" stroke="currentColor" stroke-linecap="round" stroke-linejoin="round" stroke-width="1.5" /><path d="M7.96967 9.03033C8.26256 9.32322 8.73744 9.32322 9.03033 9.03033C9.32322 8.73744 9.32322 8.26256 9.03033 7.96967L8.5 8.5L7.96967 9.03033ZM3.53033 2.46967C3.23744 2.17678 2.76256 2.17678 2.46967 2.46967C2.17678 2.76256 2.17678 3.23744 2.46967 3.53033L3 3L3.53033 2.46967ZM9.75 5C9.75 4.58579 9.41421 4.25 9 4.25C8.58579 4.25 8.25 4.58579 8.25 5H9H9.75ZM5 8.25C4.58579 8.25 4.25 8.58579 4.25 9C4.25 9.41421 4.58579 9.75 5 9.75V9V8.25ZM8.5 8.5L9.03033 7.96967L3.53033 2.46967L3 3L2.46967 3.53033L7.96967 9.03033L8.5 8.5ZM9 5H8.25V6.4H9H9.75V5H9ZM6.4 9V8.25H5V9V9.75H6.4V9ZM9 6.4H8.25C8.25 7.03403 8.24841 7.4341 8.20909 7.72652C8.17268 7.99736 8.11671 8.0611 8.08891 8.08891L8.61924 8.61924L9.14957 9.14957C9.50253 8.79661 9.63694 8.36356 9.69572 7.92639C9.75159 7.51079 9.75 6.99162 9.75 6.4H9ZM6.4 9V9.75C6.99162 9.75 7.51079 9.75159 7.92639 9.69572C8.36356 9.63694 8.79661 9.50253 9.14957 9.14957L8.61924 8.61924L8.08891 8.08891C8.0611 8.11671 7.99736 8.17268 7.72652 8.20909C7.4341 8.24841 7.03403 8.25 6.4 8.25V9Z" fill="currentColor" /><path d="M14.9697 7.96967C14.6768 8.26256 14.6768 8.73744 14.9697 9.03033C15.2626 9.32322 15.7374 9.32322 16.0303 9.03033L15.5 8.5L14.9697 7.96967ZM21.5303 3.53033C21.8232 3.23744 21.8232 2.76256 21.5303 2.46967C21.2374 2.17678 20.7626 2.17678 20.4697 2.46967L21 3L21.5303 3.53033ZM15.75 5C15.75 4.58579 15.4142 4.25 15 4.25C14.5858 4.25 14.25 4.58579 14.25 5H15H15.75ZM19 9.75C19.4142 9.75 19.75 9.41421 19.75 9C19.75 8.58579 19.4142 8.25 19 8.25V9V9.75ZM15.5 8.5L16.0303 9.03033L21.5303 3.53033L21 3L20.4697 2.46967L14.9697 7.96967L15.5 8.5ZM15 5H14.25V6.4H15H15.75V5H15ZM17.6 9V9.75H19V9V8.25H17.6V9ZM15 6.4H14.25C14.25 6.99162 14.2484 7.51079 14.3043 7.92639C14.3631 8.36356 14.4975 8.79661 14.8504 9.14957L15.3808 8.61924L15.9111 8.08891C15.8833 8.0611 15.8273 7.99736 15.7909 7.72652C15.7516 7.4341 15.75 7.03403 15.75 6.4H15ZM17.6 9V8.25C16.966 8.25 16.5659 8.24841 16.2735 8.20909C16.0026 8.17268 15.9389 8.11671 15.9111 8.08891L15.3808 8.61924L14.8504 9.14957C15.2034 9.50253 15.6364 9.63694 16.0736 9.69572C16.4892 9.75159 17.0084 9.75 17.6 9.75V9Z" fill="currentColor" /><path d="M9.03033 16.0303C9.32322 15.7374 9.32322 15.2626 9.03033 14.9697C8.73744 14.6768 8.26256 14.6768 7.96967 14.9697L8.5 15.5L9.03033 16.0303ZM2.46967 20.4697C2.17678 20.7626 2.17678 21.2374 2.46967 21.5303C2.76256 21.8232 3.23744 21.8232 3.53033 21.5303L3 21L2.46967 20.4697ZM8.25 19C8.25 19.4142 8.58579 19.75 9 19.75C9.41421 19.75 9.75 19.4142 9.75 19H9H8.25ZM5 14.25C4.58579 14.25 4.25 14.5858 4.25 15C4.25 15.4142 4.58579 15.75 5 15.75V15V14.25ZM8.5 15.5L7.96967 14.9697L2.46967 20.4697L3 21L3.53033 21.5303L9.03033 16.0303L8.5 15.5ZM9 19H9.75V17.6H9H8.25V19H9ZM6.4 15V14.25H5V15V15.75H6.4V15ZM9 17.6H9.75C9.75 17.0084 9.75159 16.4892 9.69572 16.0736C9.63694 15.6364 9.50253 15.2034 9.14957 14.8504L8.61924 15.3808L8.08891 15.9111C8.11671 15.9389 8.17268 16.0026 8.20909 16.2735C8.24841 16.5659 8.25 16.966 8.25 17.6H9ZM6.4 15V15.75C7.03403 15.75 7.4341 15.7516 7.72652 15.7909C7.99736 15.8273 8.0611 15.8833 8.08891 15.9111L8.61924 15.3808L9.14957 14.8504C8.79661 14.4975 8.36356 14.3631 7.92639 14.3043C7.51079 14.2484 6.99162 14.25 6.4 14.25V15Z" fill="currentColor" /><path d="M16.0303 14.9697C15.7374 14.6768 15.2626 14.6768 14.9697 14.9697C14.6768 15.2626 14.6768 15.7374 14.9697 16.0303L15.5 15.5L16.0303 14.9697ZM20.4697 21.5303C20.7626 21.8232 21.2374 21.8232 21.5303 21.5303C21.8232 21.2374 21.8232 20.7626 21.5303 20.4697L21 21L20.4697 21.5303ZM14.25 19C14.25 19.4142 14.5858 19.75 15 19.75C15.4142 19.75 15.75 19.4142 15.75 19H15H14.25ZM19 15.75C19.4142 15.75 19.75 15.4142 19.75 15C19.75 14.5858 19.4142 14.25 19 14.25V15V15.75ZM15.5 15.5L14.9697 16.0303L20.4697 21.5303L21 21L21.5303 20.4697L16.0303 14.9697L15.5 15.5ZM15 19H15.75V17.6H15H14.25V19H15ZM17.6 15V15.75H19V15V14.25H17.6V15ZM15 17.6H15.75C15.75 16.966 15.7516 16.5659 15.7909 16.2735C15.8273 16.0026 15.8833 15.9389 15.9111 15.9111L15.3808 15.3808L14.8504 14.8504C14.4975 15.2034 14.3631 15.6364 14.3043 16.0736C14.2484 16.4892 14.25 17.0084 14.25 17.6H15ZM17.6 15V14.25C17.0084 14.25 16.4892 14.2484 16.0736 14.3043C15.6364 14.3631 15.2034 14.4975 14.8504 14.8504L15.3808 15.3808L15.9111 15.9111C15.9389 15.8833 16.0026 15.8273 16.2735 15.7909C16.5659 15.7516 16.966 15.75 17.6 15.75V15Z" fill="currentColor" /></svg>