<svg xmlns="http://www.w3.org/2000/svg" width="24" height="24" viewBox="0 0 24 24" fill="none" stroke-width="1.5" stroke-linecap="round" stroke-linejoin="round" color="currentColor"><path d="M11.2578 10C11.2578 10.41 11.5978 10.75 12.0078 10.75C12.4178 10.75 12.7578 10.41 12.7578 10V3C12.7578 2.59 12.4178 2.25 12.0078 2.25C11.5978 2.25 11.2578 2.59 11.2578 3V10ZM2.25781 12.0001C2.25781 17.3768 6.62239 21.7447 11.9978 21.7501C11.9945 21.7501 11.9911 21.7501 11.9878 21.7501H12.0078C12.0045 21.7501 12.0011 21.7501 11.9978 21.7501C17.3732 21.7447 21.7378 17.3768 21.7378 12.0001C21.7378 8.34014 19.7178 5.02022 16.4678 3.33022C16.0978 3.14022 15.6478 3.28017 15.4578 3.65017C15.2678 4.02017 15.4078 4.47018 15.7778 4.66018C18.5378 6.09018 20.2478 8.90013 20.2478 11.9901C20.2478 16.5401 16.5478 20.2401 11.9978 20.2401C7.4478 20.2401 3.7478 16.5401 3.7478 11.9901C3.7478 8.90013 5.46783 6.09018 8.21783 4.66018C8.58783 4.47018 8.72784 4.02017 8.53784 3.65017C8.34784 3.28017 7.89783 3.14022 7.52783 3.33022C4.27783 5.02022 2.25781 8.34014 2.25781 12.0001Z" fill="currentColor" fill-rule="evenodd"></path></svg>