<svg xmlns="http://www.w3.org/2000/svg" width="24" height="24" viewBox="0 0 24 24" fill="none" stroke-width="1.5" stroke-linecap="round" stroke-linejoin="round" color="currentColor"><path d="M5.04688 7.27234C6.69688 4.74234 9.54688 3.07227 12.7969 3.07227C16.5569 3.07227 19.7868 5.31235 21.2368 8.53235C20.6668 8.24235 20.0069 8.07227 19.3169 8.07227C18.6769 8.07227 18.0369 8.33234 17.4669 8.65234C16.8969 8.97234 16.3269 9.39227 15.8169 9.82227C15.4969 10.0823 15.4569 10.5523 15.7169 10.8723C15.9869 11.1923 16.4569 11.2323 16.7769 10.9723C17.2469 10.5823 17.7369 10.2223 18.2069 9.96228C18.6869 9.69228 19.0569 9.57227 19.3169 9.57227C20.8169 9.57227 22.0469 10.8023 22.0469 12.3223C22.0469 13.8423 20.8169 15.0723 19.3169 15.0723C18.3069 15.0723 17.4568 14.6523 16.6268 13.9323C15.7768 13.1923 15.0169 12.1923 14.1969 11.1223H14.1869C13.3969 10.0623 12.5269 8.94228 11.5369 8.08228C10.5169 7.21228 9.30688 6.57227 7.79688 6.57227C6.79688 6.57227 5.86687 6.82234 5.04688 7.27234ZM5.04688 17.3723C5.86687 17.8223 6.79688 18.0723 7.79688 18.0723C8.79688 18.0723 9.8269 17.5623 10.6969 16.9623C11.5869 16.3423 12.4368 15.5523 13.1168 14.8423C13.4068 14.5423 13.3969 14.0723 13.0969 13.7823C12.7969 13.4923 12.3269 13.5022 12.0369 13.8022C11.3869 14.4822 10.6169 15.1923 9.84692 15.7323C9.05692 16.2823 8.34688 16.5723 7.79688 16.5723C5.44688 16.5723 3.54688 14.6723 3.54688 12.3223C3.54688 9.97227 5.44688 8.07227 7.79688 8.07227C8.83687 8.07227 9.71688 8.50229 10.5569 9.22229C11.4169 9.95229 12.1768 10.9523 13.0068 12.0223L13.0469 12.0923C13.8369 13.1223 14.6768 14.2223 15.6368 15.0623C16.6468 15.9323 17.8369 16.5723 19.3169 16.5723C20.0069 16.5723 20.6668 16.4023 21.2368 16.1123C19.7868 19.3323 16.5569 21.5723 12.7969 21.5723C9.54688 21.5723 6.69688 19.9023 5.04688 17.3723ZM23.5469 12.3223C23.5469 6.38227 18.7369 1.57227 12.7969 1.57227C6.85687 1.57227 2.04688 6.38227 2.04688 12.3223C2.04688 18.2623 6.85687 23.0723 12.7969 23.0723C18.7369 23.0723 23.5469 18.2623 23.5469 12.3223Z" fill="currentColor" fill-rule="evenodd"></path></svg>