<svg xmlns="http://www.w3.org/2000/svg" width="24" height="24" viewBox="0 0 24 24" fill="none" stroke-width="1.5" stroke-linecap="round" stroke-linejoin="round" color="currentColor"><path d="M2.99707 12C2.99707 7.52166 2.99707 5.28249 4.38831 3.89124C5.77956 2.5 8.01873 2.5 12.4971 2.5C16.9754 2.5 19.2146 2.5 20.6058 3.89124C21.9971 5.28249 21.9971 7.52166 21.9971 12C21.9971 16.4783 21.9971 18.7175 20.6058 20.1088C19.2146 21.5 16.9754 21.5 12.4971 21.5C8.01873 21.5 5.77956 21.5 4.38831 20.1088C2.99707 18.7175 2.99707 16.4783 2.99707 12Z" fill="none"></path><path d="M11.4971 12H13.4971C14.6016 12 15.4971 12.8954 15.4971 14V15C15.4971 16.1046 14.6016 17 13.4971 17H11.4971C10.3925 17 9.49707 16.1046 9.49707 15V14C9.49707 12.8954 10.3925 12 11.4971 12Z" fill="none"></path><path d="M9.49707 14.5V9C9.49707 7.89543 10.3925 7 11.4971 7H13.4971C14.6016 7 15.4971 7.89543 15.4971 9" fill="none"></path></svg>