<svg xmlns="http://www.w3.org/2000/svg" width="24" height="24" viewBox="0 0 24 24" fill="none" stroke-width="1.5" stroke-linecap="round" stroke-linejoin="round" color="currentColor"><path d="M18.4992 3.75C18.0858 3.75 17.75 4.08539 17.75 4.5C17.75 4.91459 18.0858 5.25 18.4992 5.25C18.9125 5.25 19.2483 4.91459 19.2483 4.5C19.2483 4.08539 18.9125 3.75 18.4992 3.75ZM16.25 4.5C16.25 3.25775 17.2566 2.25 18.4992 2.25C19.7417 2.25 20.7483 3.25775 20.7483 4.5C20.7483 5.74221 19.7418 6.75 18.4992 6.75C17.2566 6.75 16.25 5.74221 16.25 4.5ZM5.37604 3.08405C5.60581 2.73941 6.07146 2.64628 6.4161 2.87604L12.4101 6.87204L13.052 6.2943C13.8708 5.55743 15.1026 5.52165 15.9628 6.20976L17.4686 7.41443C17.6146 7.53125 17.7117 7.6984 17.7409 7.88311L18.1896 10.7251L21.4161 12.876C21.7608 13.1058 21.8539 13.5715 21.6241 13.9161C21.3944 14.2608 20.9287 14.3539 20.5841 14.1241L17.0841 11.7908C16.9097 11.6746 16.7919 11.4907 16.7593 11.2837L16.489 9.57186L15.8304 10.2304C15.5776 10.4832 15.1815 10.5224 14.8841 10.3241L5.58405 4.12412C5.23941 3.89435 5.14628 3.4287 5.37604 3.08405ZM15.8772 8.06227L15.0257 7.38106C14.739 7.15169 14.3284 7.16362 14.0555 7.40924L13.6982 7.73078L15.2045 8.73498L15.8772 8.06227ZM10.9992 8.93395C11.36 9.13743 11.4875 9.59487 11.284 9.95565C11.0974 10.2865 11.188 10.724 11.5229 10.9472L12.4045 11.535L12.9697 10.9697C13.2626 10.6769 13.7375 10.6769 14.0304 10.9697C14.3233 11.2626 14.3233 11.7375 14.0304 12.0304L13.6564 12.4044L15.2968 13.576C16.2739 14.274 16.2739 15.7262 15.2968 16.4241L13.3888 17.7869L17.1505 20.2052L19.353 19.7647C19.7592 19.6834 20.1543 19.9468 20.2355 20.353C20.3168 20.7592 20.0533 21.1543 19.6472 21.2355L17.1472 21.7355C16.9564 21.7737 16.7582 21.7362 16.5945 21.631L2.59452 12.631C2.2461 12.407 2.14522 11.943 2.36921 11.5945C2.5932 11.2461 3.05723 11.1452 3.40566 11.3692L12.0315 16.9144C12.0421 16.906 12.053 16.8977 12.0642 16.8898L14.4249 15.2035C14.5645 15.1038 14.5645 14.8964 14.4249 14.7966L12.074 13.1174L10.6908 12.1953C9.67785 11.52 9.42005 10.2072 9.97752 9.21878C10.181 8.85799 10.6384 8.73047 10.9992 8.93395Z" fill="currentColor" fill-rule="evenodd"></path></svg>