<svg xmlns="http://www.w3.org/2000/svg" width="24" height="24" viewBox="0 0 24 24" fill="none" stroke-width="1.5" stroke-linecap="round" stroke-linejoin="round" color="currentColor"><path d="M20.8361 21.25H23.7461H23.7561C24.0261 21.25 24.2761 21.11 24.4061 20.88C24.5361 20.65 24.5361 20.36 24.4061 20.13L20.6561 13.5701L24.3361 8.96997C24.5161 8.74997 24.5461 8.44005 24.4261 8.18005C24.2961 7.92005 24.0361 7.75 23.7461 7.75H20.7461C20.2061 7.75 19.6761 8.01007 19.3461 8.45007L16.9461 11.65C16.8961 11.71 16.8261 11.75 16.7461 11.75H16.4961V3.5C16.4961 3.09 16.1561 2.75 15.7461 2.75H12.7461C12.3361 2.75 11.9961 3.09 11.9961 3.5V20.5C11.9961 20.91 12.3361 21.25 12.7461 21.25H15.7461C16.1561 21.25 16.4961 20.91 16.4961 20.5V15.75H16.6561C16.7361 15.75 16.8261 15.8 16.8661 15.88L19.3061 20.3301C19.6061 20.9001 20.1961 21.25 20.8361 21.25ZM16.6561 14.25H15.7461C15.3361 14.25 14.9961 14.59 14.9961 15V19.75H13.4961V4.25H14.9961V12.5C14.9961 12.91 15.3361 13.25 15.7461 13.25H16.7461C17.2861 13.25 17.8161 12.99 18.1461 12.55L20.5461 9.34998C20.5961 9.28998 20.6661 9.25 20.7461 9.25H22.1861L19.1661 13.03C18.9661 13.27 18.9461 13.6 19.0961 13.87L22.4561 19.75H20.8361C20.7561 19.75 20.6661 19.7 20.6261 19.62L18.1861 15.17C17.8861 14.6 17.2961 14.25 16.6561 14.25ZM1.35549 19.86C2.28549 20.42 4.48549 21.25 6.24549 21.25L6.26549 21.23C8.37549 21.23 11.5155 19.8901 11.5155 16.2001C11.5155 13.9129 9.27066 13.0695 7.62307 12.4504L7.59549 12.4401C7.02549 12.2301 6.08549 11.8801 5.97549 11.6801C5.99549 11.6001 6.02549 11.56 6.12549 11.52C6.73549 11.29 8.20549 11.72 8.86549 12.12C9.16549 12.3 9.54549 12.25 9.78549 12.01L11.2855 10.51C11.5555 10.24 11.5755 9.8 11.3255 9.5C11.2655 9.43 9.80549 7.72998 6.75549 7.72998C3.17549 7.72998 1.35549 9.30002 1.35549 12.4C1.35549 14.79 3.57549 15.6101 5.19549 16.2001C5.24039 16.2173 5.28702 16.2351 5.33493 16.2533C5.9272 16.479 6.71372 16.7787 6.81549 17.01C6.82549 17.03 6.81549 17.0901 6.77549 17.1901C6.76549 17.2201 6.74549 17.26 6.62549 17.29C5.90549 17.51 4.12549 16.8501 3.32549 16.3101C3.14549 16.1901 2.92549 16.1601 2.71549 16.2101C2.50549 16.2701 2.33549 16.41 2.23549 16.6L1.07549 18.88C0.895488 19.23 1.01549 19.66 1.35549 19.86ZM6.24549 19.75C5.13549 19.75 3.69549 19.31 2.75549 18.89L2.74549 18.9L3.21549 17.99C4.27549 18.52 5.91549 19.08 7.04549 18.75C7.56549 18.6 7.94549 18.2701 8.14549 17.8101C8.35549 17.3201 8.36549 16.8601 8.18549 16.4401C7.81549 15.6001 6.78549 15.2201 5.69549 14.8201C3.97549 14.1901 2.84549 13.6801 2.84549 12.4301C2.84549 10.1801 3.97549 9.26001 6.74549 9.26001C8.16549 9.26001 9.11549 9.70005 9.64549 10.05L9.10549 10.5901C8.17549 10.1701 6.63549 9.73002 5.57549 10.15C5.03549 10.36 4.67549 10.76 4.52549 11.3C4.11549 12.77 5.74549 13.38 7.05549 13.87C8.77549 14.51 9.99549 15.05 9.99549 16.22C9.99549 19.01 7.54549 19.75 6.24549 19.75Z" fill="currentColor" fill-rule="evenodd"></path></svg>