<svg xmlns="http://www.w3.org/2000/svg" width="24" height="24" viewBox="0 0 24 24" fill="none"><path d="M2.00018 10.5L2.00018 13.5C2.00018 15.857 2.00018 17.0355 2.73242 17.7678C3.46465 18.5 4.64316 18.5 7.00018 18.5H17.0002C19.3572 18.5 20.5357 18.5 21.268 17.7678C22.0002 17.0355 22.0002 15.857 22.0002 13.5V10.5C22.0002 8.14298 22.0002 6.96447 21.268 6.23223C20.5357 5.5 19.3572 5.5 17.0002 5.5L7.00018 5.5C4.64316 5.5 3.46465 5.5 2.73242 6.23223C2.00018 6.96447 2.00018 8.14298 2.00018 10.5Z" stroke="currentColor" stroke-linecap="round" stroke-linejoin="round" stroke-width="1.5" /><path d="M1.99994 9.5L1.99994 13.5L2.99994 13L2.99994 10L1.99994 9.5Z" stroke="currentColor" stroke-linecap="round" stroke-linejoin="round" stroke-width="1.5" /></svg>