<svg xmlns="http://www.w3.org/2000/svg" width="24" height="24" viewBox="0 0 24 24" fill="none" stroke-width="1.5" stroke-linecap="round" stroke-linejoin="round" color="currentColor"><path d="M5 9C5 5.70017 5 4.05025 6.02513 3.02513C7.05025 2 8.70017 2 12 2C15.2998 2 16.9497 2 17.9749 3.02513C19 4.05025 19 5.70017 19 9V15C19 18.2998 19 19.9497 17.9749 20.9749C16.9497 22 15.2998 22 12 22C8.70017 22 7.05025 22 6.02513 20.9749C5 19.9497 5 18.2998 5 15V9Z" stroke="currentColor"></path><path d="M11 19H13" stroke="currentColor"></path><path d="M9 2L9.089 2.53402C9.28188 3.69129 9.37832 4.26993 9.77519 4.62204C10.1892 4.98934 10.7761 5 12 5C13.2239 5 13.8108 4.98934 14.2248 4.62204C14.6217 4.26993 14.7181 3.69129 14.911 2.53402L15 2" stroke="currentColor"></path></svg>