<svg xmlns="http://www.w3.org/2000/svg" width="24" height="24" viewBox="0 0 24 24" fill="none"><path d="M13.5 2H10.5C8.14298 2 6.96447 2 6.23223 2.73223C5.5 3.46447 5.5 4.64298 5.5 7V17C5.5 19.357 5.5 20.5355 6.23223 21.2678C6.96447 22 8.14298 22 10.5 22H13.5C15.857 22 17.0355 22 17.7678 21.2678C18.5 20.5355 18.5 19.357 18.5 17V7C18.5 4.64298 18.5 3.46447 17.7678 2.73223C17.0355 2 15.857 2 13.5 2Z" stroke="currentColor" stroke-linecap="round" stroke-linejoin="round" stroke-width="1.5" /><path d="M14 2H10L10.2236 2.44721C10.393 2.786 10.7393 3 11.118 3H12.882C13.2607 3 13.607 2.786 13.7764 2.44721L14 2Z" stroke="currentColor" stroke-linecap="round" stroke-linejoin="round" stroke-width="1.5" /><path d="M12.5041 8L10.6894 10.4C10.1615 11.0981 9.89753 11.4472 10.0369 11.7236C10.1762 12 10.6161 12 11.4959 12H12.5041C13.3839 12 13.8238 12 13.9631 12.2764C14.1025 12.5528 13.8385 12.9019 13.3106 13.6L11.4959 16" stroke="currentColor" stroke-linecap="round" stroke-linejoin="round" stroke-width="1.5" /></svg>