<svg xmlns="http://www.w3.org/2000/svg" width="24" height="24" viewBox="0 0 24 24" fill="none"><path d="M9 14.5V9.5C9 8.09554 9 7.39331 8.66294 6.88886C8.51702 6.67048 8.32952 6.48298 8.11114 6.33706C7.60669 6 6.90446 6 5.5 6C4.09554 6 3.39331 6 2.88886 6.33706C2.67048 6.48298 2.48298 6.67048 2.33706 6.88886C2 7.39331 2 8.09554 2 9.5V14.5C2 15.9045 2 16.6067 2.33706 17.1111C2.48298 17.3295 2.67048 17.517 2.88886 17.6629C3.39331 18 4.09554 18 5.5 18C6.90446 18 7.60669 18 8.11114 17.6629C8.32952 17.517 8.51702 17.3295 8.66294 17.1111C9 16.6067 9 15.9045 9 14.5Z" stroke="currentColor" stroke-linecap="round" stroke-linejoin="round" stroke-width="1.5" /><path d="M20 5C21.1956 6.39726 22 9.00885 22 12C22 14.9912 21.1956 17.6027 20 19" stroke="currentColor" stroke-linecap="round" stroke-linejoin="round" stroke-width="1.5" /><path d="M16.5 7C17.3967 7.99804 18 9.86346 18 12C18 14.1365 17.3967 16.002 16.5 17" stroke="currentColor" stroke-linecap="round" stroke-linejoin="round" stroke-width="1.5" /><path d="M13 9C13.5978 9.59883 14 10.7181 14 12C14 13.2819 13.5978 14.4012 13 15" stroke="currentColor" stroke-linecap="round" stroke-linejoin="round" stroke-width="1.5" /></svg>