<svg xmlns="http://www.w3.org/2000/svg" width="24" height="24" viewBox="0 0 24 24" fill="none" stroke-width="1.5" stroke-linecap="round" stroke-linejoin="round" color="currentColor"><path d="M8.245 7.0625V12.3125V12.3225C8.245 12.5225 8.165 12.7125 8.025 12.8525L6.055 14.8325L7.515 16.2925C7.805 16.5825 7.805 17.0625 7.515 17.3525C7.365 17.5025 7.175 17.5725 6.985 17.5725C6.795 17.5725 6.605 17.5025 6.455 17.3525L5.005 15.8925C3.985 16.9725 3.995 18.6925 5.055 19.7525C5.665 20.3625 6.545 20.6525 7.395 20.5425C7.795 20.4825 8.175 20.7725 8.235 21.1825C8.295 21.5925 8.005 21.9625 7.595 22.0225C7.405 22.0525 7.215 22.0625 7.025 22.0625C5.905 22.0625 4.795 21.6125 3.995 20.8125C2.335 19.1425 2.335 16.4325 3.995 14.7725L4.435 14.3325C4.445 14.3125 4.455 14.2925 4.465 14.2825C4.475 14.2725 4.505 14.2525 4.505 14.2525L6.745 12.0025V5.3125C6.745 4.2425 6.745 3.5925 7.255 3.0825C7.775 2.5625 8.425 2.5625 9.495 2.5625H10.495C10.905 2.5625 11.245 2.9025 11.245 3.3125C11.245 3.7225 10.905 4.0625 10.495 4.0625H9.495C8.995 4.0625 8.385 4.0625 8.305 4.1425C8.245 4.2425 8.245 4.8125 8.245 5.3125V5.5625H10.495C10.905 5.5625 11.245 5.9025 11.245 6.3125C11.245 6.7225 10.905 7.0625 10.495 7.0625H8.245ZM18.5047 2.5625C19.5747 2.5625 20.2147 2.5625 20.7347 3.0725C21.2547 3.5925 21.2547 4.2425 21.2547 5.3125V13.6525C21.2547 14.9325 20.7547 16.1325 19.8547 17.0225L16.5547 20.3125C16.5447 20.3225 16.5347 20.3425 16.5347 20.3425C16.5247 20.3525 16.5047 20.3625 16.5047 20.3625L16.0547 20.8125C15.2147 21.6425 14.1147 22.0625 13.0247 22.0625C11.9347 22.0625 10.8347 21.6425 10.0047 20.8125C8.34474 19.1425 8.34474 16.4325 10.0047 14.7725L10.4447 14.3325C10.4547 14.3125 10.4647 14.2925 10.4747 14.2825C10.4847 14.2725 10.5147 14.2525 10.5147 14.2525L12.7547 12.0025V5.3125C12.7547 4.2425 12.7547 3.5925 13.2647 3.0825C13.7847 2.5625 14.4347 2.5625 15.5047 2.5625H18.5047ZM14.3047 4.1425C14.2447 4.2425 14.2447 4.8125 14.2447 5.3125V5.5625H19.7447V5.3125C19.7447 4.8125 19.7447 4.2425 19.6747 4.1325C19.5947 4.0625 18.9847 4.0625 18.4947 4.0625H15.4947C14.9947 4.0625 14.3847 4.0625 14.3047 4.1425ZM14.2547 12.3125C14.2547 12.5125 14.1747 12.7025 14.0347 12.8425L12.0647 14.8225L15.9947 18.7525L17.3747 17.3725C16.9747 16.7625 16.7547 16.0525 16.7547 15.3125C16.7547 13.5025 18.0447 11.9925 19.7547 11.6425V7.0625H14.2547V12.3125ZM11.0147 15.8925C9.99474 16.9725 10.0047 18.6925 11.0647 19.7525H11.0547C12.1247 20.8125 13.8347 20.8225 14.9247 19.8025L11.0147 15.8925ZM18.4647 16.2725L18.7847 15.9525C19.4047 15.3425 19.7447 14.5225 19.7447 13.6525V13.2025C18.8747 13.5125 18.2447 14.3325 18.2447 15.3125C18.2447 15.6525 18.3247 15.9725 18.4647 16.2725Z" fill="currentColor" fill-rule="evenodd"></path></svg>