<svg xmlns="http://www.w3.org/2000/svg" width="24" height="24" viewBox="0 0 24 24" fill="none" stroke-width="1.5" stroke-linecap="round" stroke-linejoin="round" color="currentColor"><path d="M12 10.5C11.1716 10.5 10.5 11.1716 10.5 12C10.5 12.8284 11.1716 13.5 12 13.5C12.8284 13.5 13.5 12.8284 13.5 12C13.5 11.1716 12.8284 10.5 12 10.5ZM12 10.5V2" stroke="currentColor"></path><circle cx="12" cy="12" r="10" stroke="currentColor"></circle><path d="M15 8C19.0571 8.52165 22 10.0733 22 11.9063C22 14.1672 17.5228 16 12 16C6.47715 16 2 14.1672 2 11.9063C2 10.0733 4.94289 8.52165 9 8" stroke="currentColor"></path></svg>