<svg xmlns="http://www.w3.org/2000/svg" width="24" height="24" viewBox="0 0 24 24" fill="none"><circle cx="18.5" cy="4.5" r="2" stroke="currentColor" stroke-linecap="round" stroke-linejoin="round" stroke-width="1.5" /><circle cx="4.5" cy="18.5" r="2" stroke="currentColor" stroke-linecap="round" stroke-linejoin="round" stroke-width="1.5" /><path d="M4.5 16.5C4.5 9.87258 9.87258 4.5 16.5 4.5" stroke="currentColor" stroke-linecap="round" stroke-linejoin="round" stroke-width="1.5" /><path d="M13.0413 19.3047L11.2487 14.1552C10.5746 12.2186 10.2375 11.2502 10.7442 10.744C11.2508 10.2377 12.2199 10.5745 14.158 11.2481L19.3009 13.0356C20.376 13.4092 20.9136 13.5961 21.0296 13.9579C21.0616 14.0577 21.0726 14.163 21.062 14.2672C21.0235 14.6452 20.5364 14.9393 19.5621 15.5274C19.2913 15.6909 19.0792 15.8189 18.919 15.9347C18.794 16.0251 18.7315 16.0702 18.7131 16.3004C18.6947 16.5305 18.7834 16.6193 18.9609 16.7967L21.0884 18.9242C21.3519 19.1878 21.5 19.5452 21.5 19.9179C21.5 20.2906 21.3519 20.6481 21.0884 20.9116L20.9223 21.0777C20.6519 21.3481 20.2852 21.5 19.9028 21.5C19.5205 21.5 19.1538 21.3481 18.8834 21.0777L16.7835 18.9778C16.6042 18.7985 16.5146 18.7089 16.2836 18.7281C16.0525 18.7474 16.0067 18.8116 15.9151 18.94C15.8033 19.0968 15.6794 19.3023 15.5224 19.5628C14.9415 20.5262 14.6511 21.0079 14.2783 21.0503C14.1684 21.0628 14.057 21.0512 13.952 21.0164C13.5959 20.8982 13.4111 20.367 13.0413 19.3047Z" stroke="currentColor" stroke-linecap="round" stroke-linejoin="round" stroke-width="1.5" /></svg>