<svg xmlns="http://www.w3.org/2000/svg" width="24" height="24" viewBox="0 0 24 24" fill="none"><path d="M9 12C9 10.5858 9 9.87868 9.43934 9.43934C9.87868 9 10.5858 9 12 9H13C13.465 9 13.6975 9 13.8882 8.94889C14.4059 8.81019 14.8102 8.40587 14.9489 7.88823C15 7.69748 15 7.46499 15 7C15 6.07003 15 5.60504 14.8978 5.22354C14.6204 4.18827 13.8117 3.37962 12.7765 3.10222C12.395 3 11.93 3 11 3H9C6.17157 3 4.75736 3 3.87868 3.87868C3 4.75736 3 6.17157 3 9V12C3 13.6569 4.34315 15 6 15" stroke="currentColor" stroke-linecap="round" stroke-linejoin="round" stroke-width="1.5" /><path d="M15 12C15 13.4142 15 14.1213 14.5607 14.5607C14.1213 15 13.4142 15 12 15H11C10.535 15 10.3025 15 10.1118 15.0511C9.59413 15.1898 9.18981 15.5941 9.05111 16.1118C9 16.3025 9 16.535 9 17C9 17.93 9 18.395 9.10222 18.7765C9.37962 19.8117 10.1883 20.6204 11.2235 20.8978C11.605 21 12.07 21 13 21H15C17.8284 21 19.2426 21 20.1213 20.1213C21 19.2426 21 17.8284 21 15V12C21 10.3431 19.6569 9 18 9" stroke="currentColor" stroke-linecap="round" stroke-linejoin="round" stroke-width="1.5" /></svg>