<svg xmlns="http://www.w3.org/2000/svg" width="24" height="24" viewBox="0 0 24 24" fill="none"><path d="M21.5 10.0023C21.4948 9.4627 21.4851 8.96388 21.4668 8.50184M21.5 14.0035C21.4948 14.5431 21.4851 15.0419 21.4668 15.504M20.8691 5.00077C20.6794 4.57517 20.4333 4.21108 20.1138 3.89167C18.7217 2.5 16.4811 2.5 12 2.5C7.5189 2.5 5.27834 2.5 3.88624 3.89167C3.56673 4.21108 3.32056 4.57517 3.13088 5.00077M20.8691 19.0051C20.6794 19.4307 20.4333 19.7948 20.1138 20.1142C19.7942 20.4336 19.43 20.6797 19.0043 20.8693M14.0012 21.5C14.541 21.4948 15.04 21.4851 15.5022 21.4669M9.99886 21.5C9.45904 21.4948 8.96004 21.4851 8.49784 21.4669M4.99568 20.8693C4.56996 20.6797 4.20575 20.4336 3.88624 20.1142C3.56673 19.7948 3.32056 19.4307 3.13088 19.0051M2.53315 15.504C2.51488 15.0419 2.50516 14.5431 2.5 14.0035M2.5 10.0023C2.50516 9.4627 2.51488 8.96388 2.53315 8.50184" stroke="currentColor" stroke-linecap="round" stroke-linejoin="round" stroke-width="1.5" /></svg>