<svg xmlns="http://www.w3.org/2000/svg" width="24" height="24" viewBox="0 0 24 24" fill="none"><path d="M20.7275 14.365C21 14.8998 21 15.5999 21 17C21 18.4001 21 19.1002 20.7275 19.635C20.4878 20.1054 20.1054 20.4878 19.635 20.7275C19.1002 21 18.4001 21 17 21C15.5999 21 14.8998 21 14.365 20.7275C13.8946 20.4878 13.5122 20.1054 13.2725 19.635C13 19.1002 13 18.4001 13 17C13 15.5999 13 14.8998 13.2725 14.365C13.5122 13.8946 13.8946 13.5122 14.365 13.2725C14.8998 13 15.5999 13 17 13C18.4001 13 19.1002 13 19.635 13.2725C20.1054 13.5122 20.4878 13.8946 20.7275 14.365Z" stroke="currentColor" stroke-linecap="round" stroke-linejoin="round" stroke-width="1.5" /><path d="M15.9235 10C15.8832 9.75397 15.8216 9.54965 15.7275 9.36502C15.4878 8.89462 15.1054 8.51217 14.635 8.27248C14.1002 8 13.4001 8 12 8C10.5999 8 9.8998 8 9.36502 8.27248C8.89462 8.51217 8.51217 8.89462 8.27248 9.36502C8 9.8998 8 10.5999 8 12C8 13.4001 8 14.1002 8.27248 14.635C8.51217 15.1054 8.89462 15.4878 9.36502 15.7275C9.54965 15.8216 9.75397 15.8832 10 15.9235" stroke="currentColor" stroke-linecap="round" stroke-linejoin="round" stroke-width="1.5" /><path d="M10.9235 5C10.8832 4.75397 10.8216 4.54965 10.7275 4.36502C10.4878 3.89462 10.1054 3.51217 9.63498 3.27248C9.1002 3 8.40013 3 7 3C5.59987 3 4.8998 3 4.36502 3.27248C3.89462 3.51217 3.51217 3.89462 3.27248 4.36502C3 4.8998 3 5.59987 3 7C3 8.40013 3 9.1002 3.27248 9.63498C3.51217 10.1054 3.89462 10.4878 4.36502 10.7275C4.54965 10.8216 4.75397 10.8832 5 10.9235" stroke="currentColor" stroke-linecap="round" stroke-linejoin="round" stroke-width="1.5" /></svg>