<svg xmlns="http://www.w3.org/2000/svg" width="24" height="24" viewBox="0 0 24 24" fill="none"><path d="M12 21H12H12C16.2426 21 18.364 21 19.682 19.682C21 18.364 21 16.2426 21 12V12V12C21 7.75735 21 5.63604 19.682 4.31802C18.364 3 16.2426 3 12 3C7.75736 3 5.63604 3 4.31802 4.31802C3 5.63604 3 7.75736 3 12C3 16.2426 3 18.364 4.31802 19.682C5.63604 21 7.75735 21 12 21Z" stroke="currentColor" stroke-linecap="round" stroke-linejoin="round" stroke-width="1.5" /><path d="M15.7275 9.36502C16 9.8998 16 10.5999 16 12C16 13.4001 16 14.1002 15.7275 14.635C15.4878 15.1054 15.1054 15.4878 14.635 15.7275C14.1002 16 13.4001 16 12 16C10.5999 16 9.8998 16 9.36502 15.7275C8.89462 15.4878 8.51217 15.1054 8.27248 14.635C8 14.1002 8 13.4001 8 12C8 10.5999 8 9.8998 8.27248 9.36502C8.51217 8.89462 8.89462 8.51217 9.36502 8.27248C9.8998 8 10.5999 8 12 8C13.4001 8 14.1002 8 14.635 8.27248C15.1054 8.51217 15.4878 8.89462 15.7275 9.36502Z" stroke="currentColor" stroke-linecap="round" stroke-linejoin="round" stroke-width="1.5" /></svg>