<svg xmlns="http://www.w3.org/2000/svg" width="24" height="24" viewBox="0 0 24 24" fill="none"><path d="M8.5 8.5V12.5M8.5 12.5V17.5M8.5 12.5H12.5M11.5 6.5H12.5C14.1569 6.5 15.5 7.84315 15.5 9.5C15.5 9.80309 15.4551 10.0957 15.3715 10.3715" stroke="currentColor" stroke-linecap="round" stroke-linejoin="round" stroke-width="1.5" /><path d="M2 2L22 22" stroke="currentColor" stroke-linecap="round" stroke-linejoin="round" stroke-width="1.5" /><path d="M20.1088 20.1088C18.7175 21.5 16.4784 21.5 12 21.5C7.52169 21.5 5.28252 21.5 3.89127 20.1088C2.50003 18.7175 2.50003 16.4783 2.50003 12C2.50003 7.52166 2.50003 5.28249 3.89127 3.89124M7.5907 2.59066C8.7583 2.5 10.1979 2.5 12 2.5C16.4784 2.5 18.7175 2.5 20.1088 3.89124C21.5 5.28249 21.5 7.52166 21.5 12C21.5 13.8022 21.5 15.2417 21.4094 16.4093" stroke="currentColor" stroke-linecap="round" stroke-linejoin="round" stroke-width="1.5" /></svg>