<svg xmlns="http://www.w3.org/2000/svg" width="24" height="24" viewBox="0 0 24 24" fill="none"><circle cx="8.5" cy="8.5" r="1.5" stroke="currentColor" stroke-linecap="round" stroke-linejoin="round" stroke-width="1.5" /><path d="M10 10L12 12M17 17L14.5 14.5M10 14L12 12M17 7L12 12" stroke="currentColor" stroke-linecap="round" stroke-linejoin="round" stroke-width="1.5" /><circle cx="8.5" cy="15.5" r="1.5" stroke="currentColor" stroke-linecap="round" stroke-linejoin="round" stroke-width="1.5" /><path d="M14 21.5C14.5395 21.4948 15.0381 21.4851 15.5 21.4669M10.0001 21.5C9.46061 21.4948 8.96192 21.4851 8.5 21.4669M19 20.8693C19.4255 20.6797 19.7894 20.4336 20.1088 20.1142C21.5 18.7225 21.5 16.4827 21.5 12.0029C21.5 7.52321 21.5 5.28334 20.1088 3.89167C18.7175 2.5 16.4783 2.5 12 2.5C7.52166 2.5 5.28249 2.5 3.89124 3.89167C2.5 5.28334 2.5 7.52321 2.5 12.0029C2.5 16.4827 2.5 18.7225 3.89124 20.1142C4.21056 20.4336 4.57453 20.6797 5 20.8693" stroke="currentColor" stroke-linecap="round" stroke-linejoin="round" stroke-width="1.5" /></svg>