<svg xmlns="http://www.w3.org/2000/svg" width="24" height="24" viewBox="0 0 24 24" fill="none"><path d="M2.5 12C2.5 7.52166 2.5 5.28249 3.89124 3.89124C5.28249 2.5 7.52166 2.5 12 2.5C16.4783 2.5 18.7175 2.5 20.1088 3.89124C21.5 5.28249 21.5 7.52166 21.5 12C21.5 16.4783 21.5 18.7175 20.1088 20.1088C18.7175 21.5 16.4783 21.5 12 21.5C7.52166 21.5 5.28249 21.5 3.89124 20.1088C2.5 18.7175 2.5 16.4783 2.5 12Z" stroke="currentColor" stroke-linecap="round" stroke-linejoin="round" stroke-width="1.5" /><path d="M16.0004 9C16.6281 9.83566 17 10.8744 17 12C17 14.7614 14.7614 17 12 17C9.23858 17 7 14.7614 7 12C7 10.8744 7.37194 9.83566 7.99963 9" stroke="currentColor" stroke-linecap="round" stroke-linejoin="round" stroke-width="1.5" /><path d="M12 7V12" stroke="currentColor" stroke-linecap="round" stroke-linejoin="round" stroke-width="1.5" /></svg>