<svg xmlns="http://www.w3.org/2000/svg" width="24" height="24" viewBox="0 0 24 24" fill="none" stroke-width="1.5" stroke-linecap="round" stroke-linejoin="round" color="currentColor"><path d="M12.4375 1.24805C16.7075 1.24805 20.1875 4.72805 20.1875 8.99805C20.1875 11.478 19.0075 13.688 17.1875 15.108V20.5081C17.1875 21.5381 17.1875 22.2881 16.4975 22.6281C16.3275 22.7081 16.1675 22.748 16.0075 22.748C15.5075 22.748 15.0175 22.388 14.3975 21.918L13.1875 21.0081C13.1574 20.9857 13.127 20.9631 13.0966 20.9405C12.8138 20.7299 12.5278 20.5171 12.4375 20.5081C12.3472 20.5171 12.0612 20.7299 11.7784 20.9405C11.748 20.9631 11.7176 20.9857 11.6875 21.0081L10.4875 21.908L10.4613 21.9276C9.64503 22.5374 9.06021 22.9744 8.3775 22.6281C7.6875 22.2881 7.6875 21.5381 7.6875 20.5081V15.108C5.8675 13.688 4.6875 11.478 4.6875 8.99805C4.6875 4.72805 8.1675 1.24805 12.4375 1.24805ZM12.4375 2.74805C8.9875 2.74805 6.1875 5.54805 6.1875 8.99805C6.1875 12.448 8.9875 15.248 12.4375 15.248C15.8875 15.248 18.6875 12.448 18.6875 8.99805C18.6875 5.54805 15.8875 2.74805 12.4375 2.74805ZM15.6875 20.5181V20.5081V16.028C14.6975 16.488 13.5975 16.748 12.4375 16.748C11.2775 16.748 10.1775 16.488 9.1875 16.028V20.5181V21.0181C9.23421 20.983 9.28395 20.9465 9.33495 20.909C9.41497 20.8502 9.4981 20.7891 9.5775 20.728L10.7875 19.8181C11.4275 19.3381 11.8575 19.0181 12.4375 19.0181C13.0175 19.0181 13.4475 19.3381 14.0875 19.8181L15.2875 20.718C15.4275 20.818 15.5675 20.9181 15.6875 21.0081V20.5181ZM9.39712 11.428L9.64712 9.74805H9.68712L8.53712 8.54803C8.23712 8.23803 8.13712 7.79806 8.27712 7.38806C8.40712 6.98806 8.74713 6.69805 9.15713 6.62805L10.7271 6.36804L11.4571 4.86804C11.6471 4.47804 12.0371 4.23804 12.4571 4.23804C12.8771 4.23804 13.2671 4.47804 13.4571 4.86804L14.1871 6.36804L15.7571 6.62805C16.1671 6.69805 16.5071 6.98806 16.6371 7.38806C16.7671 7.79806 16.6671 8.23803 16.3771 8.54803L15.2271 9.74805L15.4771 11.428C15.5371 11.868 15.3571 12.288 15.0071 12.538C14.6671 12.778 14.2171 12.808 13.8471 12.608L12.4371 11.858L11.0271 12.608C10.8671 12.698 10.6871 12.738 10.5071 12.738C10.2871 12.738 10.0571 12.678 9.86712 12.538C9.50712 12.288 9.33712 11.858 9.39712 11.428ZM11.9671 7.19806C11.8071 7.52806 11.4971 7.75805 11.1471 7.81805L10.0571 7.99805L10.8571 8.83801C11.0971 9.08801 11.2071 9.44803 11.1571 9.79803L10.9871 10.928L11.9171 10.438C12.0771 10.348 12.2571 10.308 12.4371 10.308C12.6171 10.308 12.7971 10.348 12.9571 10.438L13.8871 10.928L13.7171 9.79803C13.6671 9.44803 13.7771 9.08801 14.0171 8.83801L14.8171 7.99805L13.7271 7.81805C13.3771 7.75805 13.0671 7.52806 12.9071 7.19806L12.4371 6.22803L11.9671 7.19806Z" fill="currentColor" fill-rule="evenodd"></path></svg>