<svg xmlns="http://www.w3.org/2000/svg" width="24" height="24" viewBox="0 0 24 24" fill="none" stroke-width="1.5" stroke-linecap="round" stroke-linejoin="round" color="currentColor"><path d="M18.5714 13.7098L20.7114 18.0898H20.7314C21.0814 18.7998 21.3214 19.2898 21.1514 19.7698C21.1014 19.9398 21.0014 20.0898 20.8514 20.1998C20.4214 20.5098 19.6914 20.5498 18.8114 20.3098C18.4514 20.2098 18.0114 20.0998 17.9314 20.1198C17.8014 20.2098 17.6614 20.5598 17.5314 20.8898C17.0614 22.0598 16.5614 22.6497 15.9614 22.7397H15.8514H15.7314C15.017 22.6306 14.7752 21.9897 14.3806 20.9441L14.3714 20.9197L12.7914 16.7297C12.7827 16.7305 12.7739 16.7312 12.7652 16.7319C12.6553 16.7411 12.5527 16.7498 12.4414 16.7498C12.3814 16.7498 12.3239 16.7448 12.2664 16.7397C12.2089 16.7347 12.1514 16.7297 12.0914 16.7297L10.5114 20.9098C10.0714 22.0798 9.60144 22.6397 8.99144 22.7397H8.87144H8.76144C8.04519 22.6403 7.79406 22.0064 7.37799 20.9563L7.37144 20.9398C7.35636 20.9031 7.34117 20.8661 7.32596 20.829C7.19994 20.5214 7.07282 20.2112 7.00144 20.1398C6.85144 20.0898 6.44144 20.1997 6.07144 20.2997C5.20144 20.5397 4.45144 20.4998 4.02144 20.1898C3.93144 20.1298 3.85144 20.0498 3.80144 19.9498C3.49665 19.4188 3.74285 18.9072 4.11237 18.1394L4.13144 18.0997L6.27144 13.7098C5.27144 12.4098 4.67144 10.7798 4.67144 9.00977C4.67144 4.73977 8.15144 1.25977 12.4214 1.25977C16.6914 1.25977 20.1714 4.73977 20.1714 9.00977C20.1714 10.7798 19.5714 12.3998 18.5714 13.7098ZM8.93144 20.7997C8.98144 20.6897 9.04144 20.5498 9.10144 20.3898L9.11144 20.3798L10.5714 16.5098C9.38144 16.2198 8.29144 15.6498 7.39144 14.8698L5.50144 18.7397L5.41144 18.9197C5.50144 18.9097 5.59144 18.8897 5.69144 18.8597C6.45144 18.6497 6.91144 18.5298 7.41144 18.6898C7.57144 18.7398 7.71144 18.8098 7.85144 18.8998C8.28929 19.1917 8.47152 19.6445 8.74819 20.332C8.75586 20.3511 8.76361 20.3703 8.77144 20.3898C8.80272 20.4773 8.83791 20.5649 8.87212 20.65C8.89259 20.701 8.91272 20.7511 8.93144 20.7997ZM12.4314 2.75977C8.98144 2.75977 6.18144 5.55977 6.18144 9.00977C6.18144 12.4598 8.98144 15.2598 12.4314 15.2598C15.8814 15.2598 18.6814 12.4598 18.6814 9.00977C18.6814 5.55977 15.8814 2.75977 12.4314 2.75977ZM17.4614 18.6998C17.9614 18.5398 18.4214 18.6598 19.1814 18.8698V18.8798C19.2914 18.8998 19.3814 18.9198 19.4614 18.9398C19.4464 18.9098 19.4339 18.8823 19.4214 18.8548C19.4089 18.8273 19.3964 18.7998 19.3814 18.7698L17.4814 14.8798C16.5814 15.6498 15.4914 16.2198 14.3014 16.5198L15.7614 20.3898C15.805 20.4915 15.8434 20.5932 15.8802 20.6911C15.8941 20.7279 15.9078 20.7642 15.9214 20.7997C15.9814 20.6797 16.0514 20.5297 16.1214 20.3497C16.4014 19.6397 16.5714 19.2098 17.0214 18.9098C17.1614 18.8198 17.3014 18.7498 17.4614 18.6998ZM14.1715 6.38977L15.7415 6.64978H15.7815C16.1915 6.71978 16.5315 7.00979 16.6615 7.40979C16.7915 7.81979 16.6915 8.25976 16.4015 8.56976L15.2515 9.76978L15.5015 11.4498C15.5615 11.8898 15.3815 12.3098 15.0315 12.5598C14.6915 12.7998 14.2415 12.8298 13.8715 12.6298L12.4615 11.8798L11.0515 12.6298C10.8915 12.7198 10.7115 12.7598 10.5315 12.7598C10.3115 12.7598 10.0815 12.6998 9.8915 12.5598C9.5315 12.3098 9.3615 11.8798 9.4215 11.4498L9.6715 9.76978L8.5215 8.56976C8.2215 8.25976 8.1215 7.81979 8.2615 7.40979C8.3915 7.00979 8.7315 6.71978 9.1415 6.64978L10.7115 6.38977L11.4415 4.88977C11.6315 4.49977 12.0215 4.25977 12.4415 4.25977C12.8615 4.25977 13.2515 4.49977 13.4415 4.88977L14.1715 6.38977ZM13.7115 9.80975C13.6615 9.45975 13.7715 9.09973 14.0115 8.84973L14.8115 8.00977L13.7215 7.82977C13.3715 7.76977 13.0615 7.53978 12.9015 7.20978L12.4315 6.23975L11.9615 7.20978C11.8015 7.53978 11.4915 7.76977 11.1415 7.82977L10.0515 8.00977L10.8515 8.84973C11.0915 9.09973 11.2015 9.45975 11.1515 9.80975L10.9815 10.9398L11.9115 10.4498C12.0715 10.3598 12.2515 10.3198 12.4315 10.3198C12.6115 10.3198 12.7915 10.3598 12.9515 10.4498L13.8815 10.9398L13.7115 9.80975Z" fill="currentColor" fill-rule="evenodd"></path></svg>