<svg xmlns="http://www.w3.org/2000/svg" width="24" height="24" viewBox="0 0 24 24" fill="none" stroke-width="1.5" stroke-linecap="round" stroke-linejoin="round" color="currentColor"><path d="M12.4487 22.7857H12.4287C10.9787 22.7457 9.5787 22.4157 8.2687 21.8157C7.8887 21.6457 7.7287 21.1957 7.8987 20.8257C8.0687 20.4457 8.5187 20.2856 8.8887 20.4556C10.0187 20.9756 11.2187 21.2457 12.4687 21.2857C12.8787 21.2957 13.2087 21.6457 13.1987 22.0557C13.1887 22.4657 12.8587 22.7857 12.4487 22.7857ZM16.3687 22.1058C16.0687 22.1058 15.7887 21.9258 15.6687 21.6258C15.5187 21.2358 15.7087 20.8058 16.0987 20.6558C17.2587 20.2058 18.2987 19.5358 19.1887 18.6658C19.4887 18.3758 19.9587 18.3859 20.2487 18.6859C20.5387 18.9858 20.5287 19.4557 20.2287 19.7457C19.1887 20.7557 17.9787 21.5357 16.6387 22.0557C16.5487 22.0957 16.4587 22.1058 16.3687 22.1058ZM5.3687 19.5457C5.1687 19.5457 4.9687 19.4657 4.8187 19.3057C3.8387 18.2357 3.0987 17.0058 2.6087 15.6458C2.4687 15.2558 2.6687 14.8259 3.0587 14.6859C3.4487 14.5458 3.8787 14.7458 4.0187 15.1358C4.4387 16.3058 5.0787 17.3657 5.9187 18.2857C6.1987 18.5857 6.1787 19.0658 5.8687 19.3458C5.7287 19.4758 5.5387 19.5457 5.3587 19.5457H5.3687ZM21.9487 16.6758C21.8487 16.6758 21.7487 16.6558 21.6587 16.6158C21.2787 16.4558 21.0987 16.0158 21.2587 15.6358C21.7387 14.4958 21.9887 13.2857 21.9887 12.0357C21.9887 11.6257 22.3287 11.2857 22.7387 11.2857C23.1487 11.2857 23.4887 11.6257 23.4887 12.0357C23.4887 13.4857 23.2087 14.8956 22.6387 16.2256C22.5187 16.5156 22.2387 16.6859 21.9487 16.6859V16.6758ZM2.7587 12.2156C2.7587 12.2156 2.7287 12.2156 2.7187 12.2156C2.3087 12.1956 1.9887 11.8358 2.0087 11.4258C2.0887 9.97584 2.4587 8.58571 3.0987 7.29571C3.2787 6.92571 3.7287 6.77563 4.0987 6.95563C4.4687 7.13563 4.6187 7.58563 4.4387 7.95563C3.8887 9.06563 3.5787 10.2657 3.5087 11.5057C3.4887 11.9057 3.1587 12.2156 2.7587 12.2156ZM22.3387 9.97565C22.0187 9.97565 21.7187 9.76585 21.6187 9.43585C21.2687 8.24585 20.6887 7.15585 19.8987 6.18585C19.6387 5.86585 19.6887 5.39579 20.0087 5.12579C20.3287 4.86579 20.7987 4.91566 21.0687 5.23566C21.9887 6.35566 22.6587 7.62568 23.0587 9.01568C23.1787 9.41568 22.9487 9.82562 22.5487 9.94562C22.4787 9.96562 22.4087 9.97565 22.3387 9.97565ZM6.1987 5.22565C5.9887 5.22565 5.7787 5.13564 5.6287 4.96564C5.3587 4.65564 5.3887 4.17582 5.7087 3.90582C6.7987 2.95582 8.0587 2.24572 9.4287 1.80572C9.8187 1.67572 10.2487 1.8957 10.3687 2.2857C10.4987 2.6757 10.2787 3.10566 9.8887 3.23566C8.7087 3.61565 7.6287 4.22571 6.6887 5.04571C6.5487 5.16571 6.3687 5.22565 6.1987 5.22565ZM17.4087 3.94562C17.2887 3.94562 17.1687 3.91577 17.0587 3.85577C15.9587 3.27577 14.7787 2.92573 13.5387 2.81573C13.1287 2.77573 12.8187 2.41567 12.8587 2.00567C12.8987 1.59567 13.2587 1.28574 13.6687 1.32574C15.1087 1.44574 16.4887 1.85569 17.7687 2.52569C18.1387 2.71569 18.2687 3.1757 18.0787 3.5357C17.9487 3.7857 17.6887 3.93585 17.4187 3.93585L17.4087 3.94562Z" fill="currentColor"></path></svg>