<svg xmlns="http://www.w3.org/2000/svg" width="24" height="24" viewBox="0 0 24 24" fill="none" stroke-width="1.5" stroke-linecap="round" stroke-linejoin="round" color="currentColor"><path d="M22 12C22 17.5228 17.5228 22 12 22C6.47715 22 2 17.5228 2 12C2 6.47715 6.47715 2 12 2C17.5228 2 22 6.47715 22 12Z" stroke="currentColor"></path><path d="M18.9181 10.4125C17.9491 10.8367 16.4851 11.218 15.1595 10.7168C13.2638 10 12.2893 10 12 10C11.7107 10 10.7362 10 8.84049 10.7168C7.51492 11.218 6.05092 10.8367 5.08186 10.4125M19 13.2548C16.8546 13.6631 13.6079 14.878 13.5238 19M10.4762 19C10.3921 14.878 7.14544 13.6631 5 13.2548" stroke="currentColor"></path><path d="M12.008 13L11.999 13" stroke="currentColor"></path></svg>