<svg xmlns="http://www.w3.org/2000/svg" width="24" height="24" viewBox="0 0 24 24" fill="none" stroke-width="1.5" stroke-linecap="round" stroke-linejoin="round" color="currentColor"><path d="M11 21.75H12.34H12.3405C13.2302 21.75 13.7201 21.75 14.23 21.54C14.72 21.34 15.07 20.9901 15.7 20.3601L20.36 15.7C20.99 15.07 21.33 14.72 21.54 14.22C21.75 13.7201 21.75 13.2303 21.75 12.3406V12.3401V11C21.75 7.02 21.75 5.02989 20.36 3.63989C18.9701 2.25 16.9803 2.25 13.0009 2.25H13H11H10.9991C7.01969 2.25 5.02991 2.25 3.64001 3.63989C2.25001 5.02989 2.25 7.02 2.25 11V13C2.25 16.98 2.25001 18.9701 3.64001 20.3601C5.02991 21.75 7.01969 21.75 10.9991 21.75H11ZM10.9995 3.75H11H13H13.0005C16.5602 3.75 18.35 3.75 19.3 4.69995C20.25 5.64995 20.25 7.44 20.25 11V12.3401V12.341C20.25 12.7571 20.25 13.0416 20.2358 13.25H20C16.97 13.25 15.45 13.2501 14.35 14.3501C13.25 15.4501 13.25 16.97 13.25 20V20.2358C13.04 20.25 12.7555 20.25 12.34 20.25H11H10.9994C7.43981 20.25 5.64996 20.25 4.70001 19.3C3.75001 18.35 3.75 16.56 3.75 13V11C3.75 7.44 3.75001 5.64995 4.70001 4.69995C5.64996 3.75 7.43982 3.75 10.9995 3.75ZM14.7509 19.1892L19.189 14.7509C17.1021 14.7578 15.9981 14.8219 15.41 15.4099C14.822 15.998 14.7578 17.1022 14.7509 19.1892Z" fill="currentColor" fill-rule="evenodd"></path></svg>