<svg xmlns="http://www.w3.org/2000/svg" width="24" height="24" viewBox="0 0 24 24" fill="none"><path d="M11.5 5C14.3284 5 15.7426 5 16.6213 5.87868C17.5 6.75736 17.5 8.17157 17.5 11C17.5 19 21.5 19 21.5 19H7.23863C6.91067 19 6.74668 19 6.37485 18.9032C6.00302 18.8063 5.94387 18.7733 5.82558 18.7072C4.6855 18.0702 2.5 16.1742 2.5 11C2.5 8.17157 2.5 6.75736 3.37868 5.87868C4.25736 5 5.67157 5 8.5 5" stroke="currentColor" stroke-linecap="round" stroke-linejoin="round" stroke-width="1.5" /><path d="M2.5 10V16C2.5 18.8284 2.5 20.2426 3.37868 21.1213C4.25736 22 5.67157 22 8.5 22H11.5761C14.4045 22 15.8188 22 16.6974 21.1213C17.1873 20.6314 17.4041 19.9751 17.5 19" stroke="currentColor" stroke-linecap="round" stroke-linejoin="round" stroke-width="1.5" /><path d="M11.5 3.5V6.5C11.5 6.96594 11.5 7.19891 11.4239 7.38268C11.3224 7.62771 11.1277 7.82239 10.8827 7.92388C10.6989 8 10.4659 8 10 8C9.53406 8 9.30109 8 9.11732 7.92388C8.87229 7.82239 8.67761 7.62771 8.57612 7.38268C8.5 7.19891 8.5 6.96594 8.5 6.5V3.5C8.5 3.03406 8.5 2.80109 8.57612 2.61732C8.67761 2.37229 8.87229 2.17761 9.11732 2.07612C9.30109 2 9.53406 2 10 2C10.4659 2 10.6989 2 10.8827 2.07612C11.1277 2.17761 11.3224 2.37229 11.4239 2.61732C11.5 2.80109 11.5 3.03406 11.5 3.5Z" stroke="currentColor" stroke-linecap="round" stroke-linejoin="round" stroke-width="1.5" /></svg>