<svg xmlns="http://www.w3.org/2000/svg" width="24" height="24" viewBox="0 0 24 24" fill="none" stroke-width="1.5" stroke-linecap="round" stroke-linejoin="round" color="currentColor"><path d="M17.7195 5.46945L14.3177 8.87118C13.7248 8.47835 13.014 8.24951 12.25 8.24951C10.18 8.24951 8.5 9.92951 8.5 11.9995C8.5 12.7636 8.72893 13.4746 9.12189 14.0676L5.94 17.2495H3.25C2.84 17.2495 2.5 17.5895 2.5 17.9995C2.5 18.4095 2.84 18.7495 3.25 18.7495H6.25C6.45 18.7495 6.64 18.6695 6.78 18.5295L10.1819 15.1276C10.7749 15.5206 11.4859 15.7495 12.25 15.7495C14.32 15.7495 16 14.0695 16 11.9995C16 11.2352 15.771 10.5241 15.3779 9.9311L18.7795 6.52951C19.0695 6.23951 19.0695 5.75945 18.7795 5.46945C18.4895 5.17945 18.0095 5.17945 17.7195 5.46945ZM10 11.9995C10 10.7595 11.01 9.74951 12.25 9.74951C13.49 9.74951 14.5 10.7595 14.5 11.9995C14.5 13.2395 13.49 14.2495 12.25 14.2495C11.01 14.2495 10 13.2395 10 11.9995ZM17.5 12.0095C17.5 12.4195 17.84 12.7595 18.25 12.7595V12.7695C18.66 12.7695 19 12.4295 19 12.0095C19 11.5895 18.66 11.2595 18.25 11.2595C17.84 11.2595 17.5 11.5995 17.5 12.0095ZM20.5 11.9995C20.5 12.4095 20.84 12.7495 21.25 12.7495V12.7595C21.66 12.7595 22 12.4195 22 11.9995C22 11.5795 21.66 11.2495 21.25 11.2495C20.84 11.2495 20.5 11.5895 20.5 11.9995ZM6.25 12.7695C5.84 12.7695 5.5 12.4295 5.5 12.0195C5.5 11.6095 5.84 11.2695 6.25 11.2695C6.66 11.2695 7 11.5995 7 12.0095C7 12.4295 6.66 12.7695 6.25 12.7695ZM3.25 12.7595C2.84 12.7595 2.5 12.4195 2.5 12.0095C2.5 11.5995 2.84 11.2595 3.25 11.2595C3.66 11.2595 4 11.5895 4 12.0095C4 12.4295 3.66 12.7695 3.25 12.7695V12.7595ZM11.5 11.9995C11.5 12.4095 11.84 12.7495 12.25 12.7495V12.7595C12.66 12.7595 13 12.4195 13 11.9995C13 11.5795 12.66 11.2495 12.25 11.2495C11.84 11.2495 11.5 11.5895 11.5 11.9995Z" fill="currentColor" fill-rule="evenodd"></path></svg>