<svg xmlns="http://www.w3.org/2000/svg" width="24" height="24" viewBox="0 0 24 24" fill="none" stroke-width="1.5" stroke-linecap="round" stroke-linejoin="round" color="currentColor"><path d="M2.75 12.3223C2.75 7.21227 6.89 3.07227 12 3.07227C17.11 3.07227 21.25 7.21227 21.25 12.3223C21.25 17.4323 17.11 21.5723 12 21.5723C6.89 21.5723 2.75 17.4323 2.75 12.3223ZM12 1.57227C6.06 1.57227 1.25 6.38227 1.25 12.3223C1.25 18.2623 6.06 23.0723 12 23.0723C17.94 23.0723 22.75 18.2623 22.75 12.3223C22.75 6.38227 17.94 1.57227 12 1.57227ZM12.04 8.07227H11.96C11.29 8.07227 10.73 8.07231 10.28 8.12231C9.81 8.16231 9.37 8.27235 8.97 8.53235C8.67 8.73235 8.40999 8.99224 8.20999 9.29224C7.94999 9.69224 7.84001 10.1323 7.79001 10.6023C7.74001 11.0523 7.73999 11.6123 7.73999 12.2823V12.3623C7.73999 13.0323 7.74001 13.5922 7.79001 14.0422C7.84001 14.5122 7.93999 14.9523 8.20999 15.3523C8.40999 15.6523 8.67 15.9123 8.97 16.1123C9.37 16.3723 9.81 16.4823 10.28 16.5223C10.73 16.5723 11.29 16.5723 11.96 16.5723H12.04C12.71 16.5723 13.27 16.5723 13.72 16.5223C14.19 16.4823 14.63 16.3723 15.03 16.1123C15.33 15.9123 15.59 15.6523 15.79 15.3523C16.05 14.9523 16.16 14.5122 16.21 14.0422C16.26 13.5922 16.26 13.0323 16.26 12.3623V12.2823C16.26 11.6123 16.26 11.0523 16.21 10.6023C16.16 10.1323 16.06 9.69224 15.79 9.29224C15.59 8.99224 15.33 8.73235 15.03 8.53235C14.63 8.27235 14.19 8.16231 13.72 8.12231C13.27 8.07231 12.71 8.07227 12.04 8.07227ZM9.81 9.78235C9.92 9.71235 10.08 9.6423 10.44 9.6123C10.81 9.5723 11.29 9.57227 12.01 9.57227C12.73 9.57227 13.21 9.5723 13.58 9.6123C13.93 9.6423 14.1 9.71235 14.21 9.78235C14.35 9.87235 14.46 9.99232 14.56 10.1323C14.63 10.2323 14.7 10.4023 14.73 10.7523C14.77 11.1223 14.77 11.6023 14.77 12.3223C14.77 13.0423 14.77 13.5223 14.73 13.8923C14.69 14.2423 14.63 14.4123 14.56 14.5123C14.47 14.6523 14.35 14.7723 14.21 14.8623C14.1 14.9323 13.94 15.0023 13.58 15.0323C13.21 15.0723 12.73 15.0723 12.01 15.0723C11.29 15.0723 10.81 15.0723 10.44 15.0323C10.09 15.0023 9.92 14.9323 9.81 14.8623C9.67 14.7723 9.55999 14.6523 9.45999 14.5123C9.38999 14.4123 9.32001 14.2423 9.29001 13.8923C9.25001 13.5223 9.25 13.0423 9.25 12.3223C9.25 11.6023 9.25001 11.1223 9.29001 10.7523C9.33001 10.4023 9.38999 10.2323 9.45999 10.1323C9.54999 9.99232 9.67 9.87235 9.81 9.78235Z" fill="currentColor" fill-rule="evenodd"></path></svg>