<svg xmlns="http://www.w3.org/2000/svg" width="24" height="24" viewBox="0 0 24 24" fill="none"><path d="M2.97662 10.5146V15.009C2.97662 17.8339 2.97662 19.2463 3.85627 20.1239C4.73591 21.0015 6.15168 21.0015 8.98321 21.0015H12.9876" stroke="currentColor" stroke-linecap="round" stroke-width="1.5" /><path d="M6.98151 17.0066H10.9859" stroke="currentColor" stroke-linecap="round" stroke-width="1.5" /><path d="M18.4941 13.5107C20.4293 13.5107 21.998 15.0464 21.998 16.9408C21.998 19.0836 19.88 20.1371 18.8696 21.7433C18.6542 22.0857 18.3496 22.0857 18.1187 21.7433C17.0768 20.1981 14.9903 19.0389 14.9903 16.9408C14.9903 15.0464 16.559 13.5107 18.4941 13.5107Z" stroke="currentColor" stroke-linejoin="round" stroke-width="1.5" /><path d="M18.4942 17.0066H18.5032" stroke="currentColor" stroke-linecap="round" stroke-linejoin="round" stroke-width="2" /><path d="M17.7957 2.00254L6.14989 2.03002C4.41172 1.94542 3.96606 3.2116 3.96606 3.83056C3.96606 4.38414 3.89061 5.19117 2.8253 6.70798C1.75999 8.22478 1.84004 8.67537 2.44077 9.72544C2.93934 10.5969 4.20747 10.9374 4.86868 10.9946C6.96889 11.0398 7.99072 9.32381 7.99072 8.1178C9.03257 11.1481 11.9956 11.1481 13.3159 10.8016C14.6386 10.4545 15.7718 9.2118 16.0391 8.1178C16.1951 9.47735 16.6682 10.2707 18.0663 10.8158C19.5145 11.3805 20.76 10.5174 21.3848 9.9642C22.0097 9.41096 22.4107 8.18278 21.2968 6.83288C20.5286 5.90195 20.2085 5.02494 20.1033 4.11599C20.0424 3.58931 19.9888 3.02336 19.5972 2.66323C19.0248 2.13691 18.2036 1.97722 17.7957 2.00254Z" stroke="currentColor" stroke-linecap="round" stroke-linejoin="round" stroke-width="1.5" /></svg>