<svg xmlns="http://www.w3.org/2000/svg" width="24" height="24" viewBox="0 0 24 24" fill="none"><path d="M3.00043 10.9995V14.9932C3.00043 17.8251 3.00043 19.241 3.87911 20.1208C4.75779 21.0005 6.172 21.0005 9.00043 21.0005H11.0004" stroke="currentColor" stroke-linecap="round" stroke-linejoin="round" stroke-width="1.5" /><path d="M17.5 15.3333L17.5 14M17.5 15.3333C16.5613 15.3333 15.7377 15.8338 15.2737 16.5865M17.5 15.3333C18.4387 15.3333 19.2623 15.8338 19.7263 16.5865M17.5 22L17.5 20.6667M17.5 20.6667C16.5613 20.6667 15.7377 20.1662 15.2737 19.4135M17.5 20.6667C18.4387 20.6667 19.2623 20.1662 19.7263 19.4135M14 20.2222L15.2737 19.4135M21 15.7778L19.7263 16.5865M14 15.7778L15.2737 16.5865M21 20.2222L19.7263 19.4135M15.2737 19.4135C15.0211 19.0037 14.875 18.5192 14.875 18C14.875 17.4808 15.0211 16.9963 15.2737 16.5865M19.7263 16.5865C19.9789 16.9963 20.125 17.4808 20.125 18C20.125 18.5192 19.9789 19.0037 19.7263 19.4135" stroke="currentColor" stroke-linecap="round" stroke-linejoin="round" stroke-width="1.5" /><path d="M17.7928 2.00269L6.1469 2.03178C4.40873 1.94224 3.96307 3.28234 3.96307 3.93744C3.96307 4.52334 3.88762 5.37749 2.82231 6.98285C1.757 8.58821 1.83705 9.06512 2.43778 10.1765C2.93635 11.0989 4.20448 11.4592 4.86569 11.5198C6.9659 11.5676 7.98772 9.75141 7.98772 8.47499C9.02958 11.6822 11.9926 11.6822 13.3129 11.3155C14.6356 10.9481 15.7688 9.63286 16.0361 8.47499C16.1921 9.91392 16.6652 10.7536 18.0633 11.3305C19.5115 11.9282 20.757 11.0147 21.3818 10.4292C22.0067 9.84365 22.4077 8.54376 21.2938 7.11505C20.5256 6.12977 20.2055 5.20155 20.1003 4.23953C20.0394 3.6821 19.9859 3.08311 19.5942 2.70195C19.0218 2.14491 18.2006 1.97589 17.7928 2.00269Z" stroke="currentColor" stroke-linecap="round" stroke-linejoin="round" stroke-width="1.5" /></svg>