<svg xmlns="http://www.w3.org/2000/svg" width="24" height="24" viewBox="0 0 24 24" fill="none" stroke-width="1.5" stroke-linecap="round" stroke-linejoin="round" color="currentColor"><path d="M18.1453 12.2703C18.5437 12.4396 18.9619 12.5196 19.3802 12.5203C19.3786 12.5203 19.3769 12.5203 19.3753 12.5203H19.3853C19.3836 12.5203 19.3819 12.5203 19.3802 12.5203C20.3486 12.5188 21.3268 12.0788 22.2453 11.2203C23.1853 10.3503 23.5853 8.62029 22.2453 6.90028C21.6353 6.11028 21.3153 5.34028 21.2053 4.35028C21.1453 3.74028 21.0553 2.97028 20.4853 2.41028C19.7853 1.74028 18.7953 1.47028 18.1353 1.50028L6.55525 1.53028C5.45525 1.48028 4.78525 1.89028 4.41525 2.25028C3.80525 2.83028 3.58525 3.63028 3.58525 4.19028C3.58525 4.57028 3.58525 5.29028 2.56525 6.82028C1.35525 8.64029 1.39525 9.40028 2.14525 10.7803C2.27481 11.0216 2.43558 11.2298 2.61523 11.4095V15.2402C2.61523 18.1802 2.61523 19.8002 3.71523 20.9002C4.81523 22.0002 6.42523 22.0002 9.36523 22.0002H11.3652C11.7752 22.0002 12.1152 21.6602 12.1152 21.2502C12.1152 20.8402 11.7752 20.5002 11.3652 20.5002H9.36523C6.74523 20.5002 5.43523 20.5002 4.77523 19.8402C4.11523 19.1802 4.11523 17.8602 4.11523 15.2402V12.2877C4.64662 12.463 5.09325 12.5116 5.21525 12.5203C6.26525 12.5403 7.19525 12.1803 7.91525 11.4803C8.15525 11.2503 8.36525 10.9803 8.53525 10.6903C10.0653 12.6503 12.5553 12.6603 13.8753 12.2903C14.7453 12.0403 15.5853 11.4503 16.2053 10.7003C16.6153 11.4003 17.2353 11.8903 18.1453 12.2703ZM16.4553 7.98028H16.4053V7.97028C16.0553 7.97028 15.7553 8.21028 15.6753 8.55028C15.4753 9.42028 14.5452 10.5403 13.4853 10.8403C13.3453 10.8803 10.1253 11.7303 9.07525 8.49028C8.96525 8.14028 8.60525 7.92028 8.24525 7.98028C7.88525 8.04028 7.61525 8.35028 7.61525 8.72028C7.61525 9.17028 7.41525 9.88028 6.87525 10.4103C6.44525 10.8303 5.88525 11.0403 5.30525 11.0203C4.76525 10.9703 3.79525 10.6703 3.46525 10.0703C2.99525 9.21028 2.90525 9.03028 3.81525 7.65028C4.93525 5.97028 5.08525 5.00028 5.08525 4.19028C5.08525 4.00028 5.15525 3.60028 5.44525 3.33028C5.67525 3.11028 6.02525 3.01028 6.51525 3.03028L18.1653 3.00028H18.2153C18.4353 2.98028 19.0353 3.09028 19.4453 3.49028C19.6253 3.67028 19.6753 4.10028 19.7253 4.57028C19.8553 5.78028 20.2852 6.81029 21.0753 7.82028C21.9552 8.95028 21.5953 9.80028 21.2453 10.1303C20.3652 10.9603 19.5153 11.2203 18.7253 10.8903C17.6753 10.4603 17.2952 9.91028 17.1553 8.65028C17.1153 8.28028 16.8253 8.00028 16.4553 7.98028ZM17.8658 23.0002C17.4558 23.0002 17.1158 22.6602 17.1158 22.2502V21.5802C16.4858 21.4402 15.9258 21.1202 15.4658 20.6602L14.7658 21.1102C14.4158 21.3302 13.9558 21.2302 13.7258 20.8802C13.5058 20.5302 13.6058 20.0702 13.9558 19.8402L14.6758 19.3802C14.5458 19.0202 14.4858 18.6402 14.4858 18.2502C14.4858 17.8602 14.5458 17.4802 14.6758 17.1202L13.9558 16.6602C13.6058 16.4402 13.5058 15.9802 13.7258 15.6202C13.9458 15.2702 14.4158 15.1702 14.7658 15.3902L15.4658 15.8402C15.9158 15.3802 16.4858 15.0602 17.1158 14.9202V14.2502C17.1158 13.8402 17.4558 13.5002 17.8658 13.5002C18.2758 13.5002 18.6158 13.8402 18.6158 14.2502V14.9202C19.2458 15.0602 19.8058 15.3802 20.2658 15.8402L20.9658 15.3902C21.3158 15.1702 21.7758 15.2702 22.0058 15.6202C22.2258 15.9702 22.1258 16.4302 21.7758 16.6602L21.0558 17.1202C21.1858 17.4802 21.2458 17.8702 21.2458 18.2502C21.2458 18.6302 21.1858 19.0202 21.0558 19.3802L21.7758 19.8402C22.1258 20.0602 22.2258 20.5202 22.0058 20.8802C21.7858 21.2302 21.3158 21.3302 20.9658 21.1102L20.2658 20.6602C19.8158 21.1202 19.2458 21.4402 18.6158 21.5802V22.2502C18.6158 22.6602 18.2758 23.0002 17.8658 23.0002ZM16.2758 19.2702C16.6258 19.8302 17.2158 20.1702 17.8658 20.1702C18.5158 20.1702 19.1058 19.8402 19.4558 19.2702C19.6458 18.9702 19.7458 18.6102 19.7458 18.2502C19.7458 17.8902 19.6458 17.5402 19.4558 17.2302C19.1058 16.6702 18.5158 16.3402 17.8658 16.3402C17.2158 16.3402 16.6258 16.6702 16.2758 17.2302C16.0858 17.5302 15.9858 17.8902 15.9858 18.2502C15.9858 18.6102 16.0858 18.9602 16.2758 19.2702Z" fill="currentColor" fill-rule="evenodd"></path></svg>