<svg xmlns="http://www.w3.org/2000/svg" width="24" height="24" viewBox="0 0 24 24" fill="none" stroke-width="1.5" stroke-linecap="round" stroke-linejoin="round" color="currentColor"><path d="M3.50003 9.99988V14.9999C3.50003 17.8283 3.50003 19.2425 4.37871 20.1212C5.25739 20.9999 6.6716 20.9999 9.50003 20.9999H14" fill="none"></path><path d="M17 7.50171C17 8.88243 15.8807 9.99985 14.5 9.99985C13.1193 9.99985 12 8.88056 12 7.49985C12 8.88056 10.8807 9.99985 9.50003 9.99985C8.11932 9.99985 7.00003 8.88056 7.00003 7.49985C7.00003 8.88056 5.82657 9.99985 4.37903 9.99985C3.59986 9.99985 2.9001 9.67555 2.42002 9.16075C1.59464 8.27567 2.12562 6.97391 2.81449 5.9883L3.20203 5.45839C4.08387 4.25258 4.52479 3.64968 5.16494 3.32482C5.8051 2.99996 6.55203 3.00005 8.04589 3.00025L15.9551 3.00131C17.4485 3.00151 18.1952 3.00161 18.8351 3.32646C19.4751 3.65131 19.9158 4.25402 20.7974 5.45945L21.1855 5.99017C21.8744 6.97577 22.4054 8.27754 21.58 9.16261C21.0999 9.67742 20.4002 10.0017 19.621 10.0017C18.1735 10.0017 17 8.88243 17 7.50171Z" fill="none"></path><path d="M18 12.4999C16.067 12.4999 14.5 14.0375 14.5 15.9342C14.5 17.0187 14.9375 17.862 15.8125 18.6152C16.4292 19.1461 17.5514 20.2851 18 20.9999C18.4713 20.2993 19.5708 19.1461 20.1875 18.6152C21.0625 17.862 21.5 17.0187 21.5 15.9342C21.5 14.0375 19.933 12.4999 18 12.4999Z" fill="none"></path><path d="M18 15.9999H18.009" fill="none"></path></svg>