<svg xmlns="http://www.w3.org/2000/svg" width="24" height="24" viewBox="0 0 24 24" fill="none" stroke-width="1.5" stroke-linecap="round" stroke-linejoin="round" color="currentColor"><path d="M6.70487 12C5.66146 12 4.80888 11.7096 4.22461 11.4094V15.25C4.22461 17.87 4.22461 19.18 4.88461 19.84C5.54461 20.5 6.85461 20.5 9.47461 20.5H11.4746C11.8846 20.5 12.2246 20.84 12.2246 21.25C12.2246 21.66 11.8846 22 11.4746 22H9.47461C6.53461 22 4.92461 22 3.82461 20.9C2.72461 19.8 2.72461 18.18 2.72461 15.25V10.25L2.72466 10.2412C2.376 9.8786 2.03045 9.44627 1.87487 9.06C1.54487 8.23 1.91487 6.86 2.07487 6.45L2.75487 4.49C3.07487 3.52 3.43487 2.59 3.89487 2.13C4.32487 1.71 5.00487 1.5 5.97487 1.5H12.9849C13.6685 1.51327 14.6474 1.50893 15.6436 1.5045C16.1483 1.50226 16.6574 1.5 17.1349 1.5H19.5249C20.5449 1.52 21.2649 2.25 21.5649 2.87C22.6949 5.6 23.2549 7.42 23.2549 8.32C23.2549 8.37 23.2549 8.42 23.2349 8.47C23.0849 9.21 22.4249 11.02 19.6949 11.77C17.5849 12.35 16.1549 11.59 15.3749 10.93C14.6349 11.47 13.5849 11.94 12.4549 11.95C11.2149 11.93 10.2449 11.45 9.62487 10.98C9.05487 11.46 8.32487 11.83 7.43487 11.94C7.17487 11.97 6.93487 11.99 6.69487 11.99L6.70487 12ZM12.9649 3H5.96487C5.17487 3 4.96487 3.18 4.94487 3.2C4.82487 3.32 4.59487 3.72 4.17487 4.95L3.48487 6.96C3.30487 7.45 3.18487 8.28 3.26487 8.5C3.38487 8.79 4.05487 9.5 4.40487 9.74C4.43487 9.76 4.46487 9.78 4.49487 9.81C4.67487 9.99 5.75487 10.65 7.24487 10.45C8.83487 10.24 9.66487 8.73 9.87487 7.96C9.98487 7.56 10.3949 7.33 10.7949 7.44C11.1949 7.55 11.4249 7.96 11.3149 8.36C11.1949 8.78 10.9749 9.32 10.6249 9.85C11.0149 10.13 11.6549 10.43 12.4749 10.45H12.5049C13.7249 10.45 14.7849 9.53 15.1049 9.18C15.1049 9.18 15.3549 8.86 15.6449 7.94C15.7749 7.55 16.1949 7.33 16.5849 7.45C16.9749 7.58 17.1949 8 17.0749 8.39C16.8349 9.13 16.6049 9.6 16.4349 9.87C16.9949 10.31 17.9149 10.69 19.2849 10.32C21.1149 9.82 21.6049 8.75 21.7349 8.24C21.7149 7.88 21.5149 6.71 20.1749 3.48C20.1749 3.48 19.9149 3 19.4649 2.99H17.1149C16.6337 2.99 16.1209 2.99113 15.6129 2.99225L15.6127 2.99225C14.611 2.99447 13.6283 2.99663 12.9449 2.99L12.9649 3ZM17.2564 22.25C17.2564 22.66 17.5964 23 18.0064 23C18.4164 23 18.7564 22.66 18.7564 22.25V21.58C19.3864 21.44 19.9564 21.12 20.4064 20.66L21.1064 21.11C21.4564 21.33 21.9264 21.23 22.1464 20.88C22.3664 20.52 22.2664 20.06 21.9164 19.84L21.1964 19.38C21.3264 19.02 21.3864 18.63 21.3864 18.25C21.3864 17.87 21.3264 17.48 21.1964 17.12L21.9164 16.66C22.2664 16.43 22.3664 15.97 22.1464 15.62C21.9164 15.27 21.4564 15.17 21.1064 15.39L20.4064 15.84C19.9464 15.38 19.3864 15.06 18.7564 14.92V14.25C18.7564 13.84 18.4164 13.5 18.0064 13.5C17.5964 13.5 17.2564 13.84 17.2564 14.25V14.92C16.6264 15.06 16.0564 15.38 15.6064 15.84L14.9064 15.39C14.5564 15.17 14.0864 15.27 13.8664 15.62C13.6464 15.98 13.7464 16.44 14.0964 16.66L14.8164 17.12C14.6864 17.48 14.6264 17.86 14.6264 18.25C14.6264 18.64 14.6864 19.02 14.8164 19.38L14.0964 19.84C13.7464 20.07 13.6464 20.53 13.8664 20.88C14.0964 21.23 14.5564 21.33 14.9064 21.11L15.6064 20.66C16.0664 21.12 16.6264 21.44 17.2564 21.58V22.25ZM18.0064 20.17C17.3564 20.17 16.7664 19.83 16.4164 19.27C16.2264 18.96 16.1264 18.61 16.1264 18.25C16.1264 17.89 16.2264 17.53 16.4164 17.23C16.7664 16.67 17.3564 16.34 18.0064 16.34C18.6564 16.34 19.2464 16.67 19.5964 17.23C19.7864 17.54 19.8864 17.89 19.8864 18.25C19.8864 18.61 19.7864 18.97 19.5964 19.27C19.2464 19.84 18.6564 20.17 18.0064 20.17Z" fill="currentColor" fill-rule="evenodd"></path></svg>