<svg xmlns="http://www.w3.org/2000/svg" width="24" height="24" viewBox="0 0 24 24" fill="none"><path d="M3.5 9.99988V14.9999C3.5 17.8283 3.5 19.2425 4.37868 20.1212C5.25736 20.9999 6.67157 20.9999 9.5 20.9999H14" stroke="currentColor" stroke-linecap="round" stroke-linejoin="round" stroke-width="1.5" /><path d="M17 7.50171C17 8.88243 15.8807 9.99985 14.5 9.99985C13.1193 9.99985 12 8.88056 12 7.49985C12 8.88056 10.8807 9.99985 9.5 9.99985C8.11929 9.99985 7 8.88056 7 7.49985C7 8.88056 5.82654 9.99985 4.379 9.99985C3.59983 9.99985 2.90007 9.67555 2.41999 9.16075C1.59461 8.27567 2.12559 6.97391 2.81446 5.9883L3.202 5.45839C4.08384 4.25258 4.52476 3.64968 5.16491 3.32482C5.80507 2.99996 6.552 3.00005 8.04586 3.00025L15.9551 3.00131C17.4485 3.00151 18.1952 3.00161 18.8351 3.32646C19.475 3.65131 19.9158 4.25402 20.7974 5.45945L21.1855 5.99017C21.8744 6.97577 22.4054 8.27754 21.58 9.16261C21.0999 9.67742 20.4001 10.0017 19.621 10.0017C18.1734 10.0017 17 8.88243 17 7.50171Z" stroke="currentColor" stroke-linecap="round" stroke-linejoin="round" stroke-width="1.5" /><path d="M18 12.4999C16.067 12.4999 14.5 14.0375 14.5 15.9342C14.5 17.0187 14.9375 17.862 15.8125 18.6152C16.4292 19.1461 17.5514 20.2851 18 20.9999C18.4713 20.2993 19.5708 19.1461 20.1875 18.6152C21.0625 17.862 21.5 17.0187 21.5 15.9342C21.5 14.0375 19.933 12.4999 18 12.4999Z" stroke="currentColor" stroke-linecap="round" stroke-linejoin="round" stroke-width="1.5" /><path d="M18 15.9999H18.009" stroke="currentColor" stroke-linecap="round" stroke-linejoin="round" stroke-width="2" /></svg>