<svg xmlns="http://www.w3.org/2000/svg" width="24" height="24" viewBox="0 0 24 24" fill="none" stroke-width="1.5" stroke-linecap="round" stroke-linejoin="round" color="currentColor"><path d="M11.25 14.1094C11.25 15.9226 9.96101 17.4365 8.25 17.7843V22.1094C8.25 22.5194 7.91 22.8594 7.5 22.8594C7.09 22.8594 6.75 22.5194 6.75 22.1094V17.7843C5.03899 17.4365 3.75 15.9226 3.75 14.1094V5.10938C3.75 3.03938 5.43 1.35938 7.5 1.35938C9.57 1.35938 11.25 3.03938 11.25 5.10938V14.1094ZM5.25 14.1094C5.25 15.3494 6.26 16.3594 7.5 16.3594C8.74 16.3594 9.75 15.3494 9.75 14.1094V5.10938C9.75 3.86937 8.74 2.85938 7.5 2.85938C6.26 2.85938 5.25 3.86937 5.25 5.10938V14.1094ZM7.25 14.6094C7.25 15.0194 7.59 15.3594 8 15.3594C8.41 15.3594 8.75 15.0194 8.75 14.6094C8.75 13.7994 8.32 13.3694 8.03 13.0794C7.8 12.8494 7.75 12.7794 7.75 12.6094C7.75 12.4394 7.8 12.3694 8.03 12.1394C8.32 11.8494 8.75 11.4194 8.75 10.6094C8.75 9.79937 8.32 9.36938 8.03 9.07938C7.8 8.84938 7.75 8.77938 7.75 8.60938C7.75 8.43937 7.8 8.36937 8.03 8.13937C8.32 7.84937 8.75 7.41937 8.75 6.60938C8.75 5.79938 8.32 5.36938 8.03 5.07938C7.8 4.84938 7.75 4.77938 7.75 4.60938C7.75 4.19937 7.41 3.85938 7 3.85938C6.59 3.85938 6.25 4.19937 6.25 4.60938C6.25 5.41937 6.68 5.84937 6.97 6.13937C7.2 6.36937 7.25 6.43937 7.25 6.60938C7.25 6.77938 7.2 6.84938 6.97 7.07938C6.68 7.36938 6.25 7.79938 6.25 8.60938C6.25 9.41938 6.68 9.84937 6.97 10.1394C7.2 10.3694 7.25 10.4394 7.25 10.6094C7.25 10.7794 7.2 10.8494 6.97 11.0794C6.68 11.3694 6.25 11.7994 6.25 12.6094C6.25 13.4194 6.68 13.8494 6.97 14.1394C7.2 14.3694 7.25 14.4394 7.25 14.6094ZM16.25 14.6094C16.25 15.0194 16.59 15.3594 17 15.3594C17.41 15.3594 17.75 15.0194 17.75 14.6094C17.75 13.7994 17.32 13.3694 17.03 13.0794C16.8 12.8494 16.75 12.7794 16.75 12.6094C16.75 12.4394 16.8 12.3694 17.03 12.1394C17.32 11.8494 17.75 11.4194 17.75 10.6094C17.75 9.79937 17.32 9.36938 17.03 9.07938C16.8 8.84938 16.75 8.77938 16.75 8.60938C16.75 8.43937 16.8 8.36937 17.03 8.13937C17.32 7.84937 17.75 7.41937 17.75 6.60938C17.75 5.79938 17.32 5.36938 17.03 5.07938C16.8 4.84938 16.75 4.77938 16.75 4.60938C16.75 4.19937 16.41 3.85938 16 3.85938C15.59 3.85938 15.25 4.19937 15.25 4.60938C15.25 5.41937 15.68 5.84937 15.97 6.13937C16.2 6.36937 16.25 6.43937 16.25 6.60938C16.25 6.77938 16.2 6.84938 15.97 7.07938C15.68 7.36938 15.25 7.79938 15.25 8.60938C15.25 9.41938 15.68 9.84937 15.97 10.1394C16.2 10.3694 16.25 10.4394 16.25 10.6094C16.25 10.7794 16.2 10.8494 15.97 11.0794C15.68 11.3694 15.25 11.7994 15.25 12.6094C15.25 13.4194 15.68 13.8494 15.97 14.1394C16.2 14.3694 16.25 14.4394 16.25 14.6094ZM15.75 22.1094C15.75 22.5194 16.09 22.8594 16.5 22.8594C16.91 22.8594 17.25 22.5194 17.25 22.1094V17.7843C18.961 17.4365 20.25 15.9226 20.25 14.1094V5.10938C20.25 3.03938 18.57 1.35938 16.5 1.35938C14.43 1.35938 12.75 3.03938 12.75 5.10938V14.1094C12.75 15.9226 14.039 17.4365 15.75 17.7843V22.1094ZM16.5 16.3594C15.26 16.3594 14.25 15.3494 14.25 14.1094V5.10938C14.25 3.86937 15.26 2.85938 16.5 2.85938C17.74 2.85938 18.75 3.86937 18.75 5.10938V14.1094C18.75 15.3494 17.74 16.3594 16.5 16.3594Z" fill="currentColor" fill-rule="evenodd"></path></svg>