<svg xmlns="http://www.w3.org/2000/svg" width="24" height="24" viewBox="0 0 24 24" fill="none" stroke-width="1.5" stroke-linecap="round" stroke-linejoin="round" color="currentColor"><path d="M12 3.26172C6.89 3.26172 2.75 7.40172 2.75 12.5117C2.75 17.6217 6.89 21.7617 12 21.7617C17.11 21.7617 21.25 17.6217 21.25 12.5117C21.25 7.40172 17.11 3.26172 12 3.26172ZM1.25 12.5117C1.25 6.57172 6.06 1.76172 12 1.76172C17.94 1.76172 22.75 6.57172 22.75 12.5117C22.75 18.4517 17.94 23.2617 12 23.2617C6.06 23.2617 1.25 18.4517 1.25 12.5117ZM19.74 14.3617C19.82 14.7717 19.5499 15.1617 19.1499 15.2417C16.9399 15.6817 15.18 17.4517 14.74 19.6517C14.65 20.0617 14.26 20.3217 13.85 20.2417C13.45 20.1617 13.18 19.7617 13.26 19.3617C13.82 16.5617 16.06 14.3317 18.85 13.7717C19.26 13.6917 19.65 13.9517 19.74 14.3617ZM4.84998 15.2517C4.44998 15.1717 4.18001 14.7717 4.26001 14.3717C4.35001 13.9617 4.7399 13.7017 5.1499 13.7817C7.9399 14.3417 10.18 16.5717 10.74 19.3717C10.82 19.7817 10.5499 20.1717 10.1499 20.2517C9.7399 20.3317 9.35001 20.0717 9.26001 19.6617C8.82001 17.4617 7.05998 15.6917 4.84998 15.2517ZM12 11.2617C9.56 11.2617 7.25997 11.6117 5.21997 12.2317C4.81997 12.3517 4.39991 12.1317 4.27991 11.7317C4.15991 11.3317 4.38991 10.9117 4.77991 10.8017C6.96991 10.1417 9.42 9.77173 12 9.77173C14.58 9.77173 17.03 10.1417 19.22 10.8017C19.61 10.9217 19.84 11.3417 19.72 11.7317C19.6 12.1317 19.1799 12.3517 18.7799 12.2317C16.7399 11.6117 14.44 11.2617 12 11.2617ZM12 13.0117C11.17 13.0117 10.5 13.6817 10.5 14.5117C10.5 15.3417 11.17 16.0117 12 16.0117H12.01C12.84 16.0117 13.51 15.3417 13.51 14.5117C13.51 13.6817 12.84 13.0117 12.01 13.0117H12Z" fill="currentColor" fill-rule="evenodd"></path></svg>