<svg xmlns="http://www.w3.org/2000/svg" width="24" height="24" viewBox="0 0 24 24" fill="none" stroke-width="1.5" stroke-linecap="round" stroke-linejoin="round" color="currentColor"><path d="M10.7422 22.0666C8.61219 22.0666 6.33219 21.2266 5.46219 20.8666C5.18219 20.7466 4.99219 20.4766 4.99219 20.1766V15.4766C4.99219 15.2066 5.13219 14.9566 5.36219 14.8266C5.59219 14.6966 5.88219 14.6966 6.11219 14.8266C7.00219 15.3366 8.86219 16.1466 10.3022 16.2666C10.8622 16.3066 12.2022 16.3566 12.3122 15.9066C12.4122 15.4966 10.7722 14.8366 10.2422 14.6166L9.96219 14.4966C6.99219 13.3866 5.00219 11.9866 5.00219 8.80664C5.00219 4.19664 8.75219 2.55664 12.2522 2.55664C14.7322 2.55664 16.7722 3.23664 17.5822 3.63664C17.8422 3.76664 18.0022 4.02664 18.0022 4.30664V8.80664C18.0022 9.05664 17.8822 9.28664 17.6722 9.42664C17.4622 9.56664 17.2022 9.59664 16.9722 9.49664C12.9122 7.85664 11.4122 8.37664 11.2922 8.54664C11.2622 8.90664 12.1222 9.38664 12.9222 9.57664C15.0022 9.95664 19.0022 11.7566 19.0022 15.8066C19.0022 20.7366 13.8122 22.0566 10.7522 22.0566L10.7422 22.0666ZM6.49219 19.6666C7.46219 20.0266 9.17219 20.5666 10.7422 20.5666C11.0222 20.5666 17.4922 20.5166 17.4922 15.8166C17.4922 12.0066 12.8022 11.0866 12.6022 11.0566C11.4522 10.7966 9.61219 9.93664 9.79219 8.37664C9.84219 7.90664 10.1122 7.49664 10.5522 7.23664C11.6322 6.58664 13.7622 6.77664 16.4822 7.73664V4.81664C15.6422 4.49664 14.0722 4.07664 12.2322 4.07664C10.8822 4.07664 6.48219 4.41664 6.48219 8.82664C6.48219 10.9166 7.49219 11.9966 10.4922 13.1266L10.7922 13.2466C12.1322 13.7866 14.1522 14.6066 13.7622 16.2566C13.3622 18.0166 11.0422 17.8366 10.1722 17.7766C8.91219 17.6766 7.51219 17.1666 6.48219 16.7066V19.6766L6.49219 19.6666Z" fill="currentColor"></path></svg>