<svg xmlns="http://www.w3.org/2000/svg" width="24" height="24" viewBox="0 0 24 24" fill="none" stroke-width="1.5" stroke-linecap="round" stroke-linejoin="round" color="currentColor"><path d="M18 13V15C18 16.1046 17.1046 17 16 17C14.8954 17 14 16.1046 14 15V13M6 13V15C6 16.1046 6.89543 17 8 17C9.10457 17 10 16.1046 10 15V9C10 7.89543 10.8954 7 12 7C13.1046 7 14 7.89543 14 9V10" stroke="currentColor"></path><path d="M2.5 12C2.5 7.52166 2.5 5.28249 3.89124 3.89124C5.28249 2.5 7.52166 2.5 12 2.5C16.4783 2.5 18.7175 2.5 20.1088 3.89124C21.5 5.28249 21.5 7.52166 21.5 12C21.5 16.4783 21.5 18.7175 20.1088 20.1088C18.7175 21.5 16.4783 21.5 12 21.5C7.52166 21.5 5.28249 21.5 3.89124 20.1088C2.5 18.7175 2.5 16.4783 2.5 12Z" stroke="currentColor"></path></svg>