<svg xmlns="http://www.w3.org/2000/svg" width="24" height="24" viewBox="0 0 24 24" fill="none"><path d="M13 8.5H11C9.59987 8.5 8.8998 8.5 8.36502 8.77248C7.89462 9.01217 7.51217 9.39462 7.27248 9.86502C7 10.3998 7 11.0999 7 12.5C7 13.9001 7 14.6002 7.27248 15.135C7.51217 15.6054 7.89462 15.9878 8.36502 16.2275C8.8998 16.5 9.59987 16.5 11 16.5H13C14.4001 16.5 15.1002 16.5 15.635 16.2275C16.1054 15.9878 16.4878 15.6054 16.7275 15.135C17 14.6002 17 13.9001 17 12.5C17 11.0999 17 10.3998 16.7275 9.86502C16.4878 9.39462 16.1054 9.01217 15.635 8.77248C15.1002 8.5 14.4001 8.5 13 8.5Z" stroke="currentColor" stroke-linecap="round" stroke-linejoin="round" stroke-width="1.5" /><path d="M10 8.5L10.2236 8.05279C10.393 7.714 10.7393 7.5 11.118 7.5H12.882C13.2607 7.5 13.607 7.714 13.7764 8.05279L14 8.5" stroke="currentColor" stroke-linecap="round" stroke-linejoin="round" stroke-width="1.5" /><path d="M12.2001 4L10.2001 2.20004C10.8463 2.06886 11.5151 2 12.2001 2C17.038 2 21.0735 5.43552 22 10M11.8 20L13.8 21.8C13.1538 21.9311 12.4849 22 11.8 22C6.96208 22 2.92657 18.5645 2.00003 14" stroke="currentColor" stroke-linecap="round" stroke-linejoin="round" stroke-width="1.5" /><path d="M12 12V12.5M13 12.5C13 13.0523 12.5523 13.5 12 13.5C11.4477 13.5 11 13.0523 11 12.5C11 11.9477 11.4477 11.5 12 11.5C12.5523 11.5 13 11.9477 13 12.5Z" stroke="currentColor" stroke-linecap="round" stroke-linejoin="round" stroke-width="1.5" /></svg>