<svg xmlns="http://www.w3.org/2000/svg" width="24" height="24" viewBox="0 0 24 24" fill="none" stroke-width="1.5" stroke-linecap="round" stroke-linejoin="round" color="currentColor"><path d="M5.06066 21.0607C4.47487 21.6464 3.52513 21.6464 2.93934 21.0607C2.35355 20.4749 2.35355 19.5251 2.93934 18.9393C3.52513 18.3536 4.47487 18.3536 5.06066 18.9393C5.64645 19.5251 5.64645 20.4749 5.06066 21.0607Z" stroke="currentColor"></path><path d="M8 16L5.5 18.5" stroke="currentColor"></path><path d="M9.5 16.5L20.0733 7.20318C20.3506 6.96283 20.5445 6.64067 20.627 6.28308L21.5 2.5L17.7169 3.37302C17.3593 3.45554 17.0372 3.64942 16.7968 3.92675L7.5 14.5" stroke="currentColor"></path><path d="M4 13H4.57157C5.10201 13 5.61071 13.2107 5.98579 13.5858L10.4142 18.0142C10.7893 18.3893 11 18.898 11 19.4284V20" stroke="currentColor"></path></svg>