<svg xmlns="http://www.w3.org/2000/svg" width="24" height="24" viewBox="0 0 24 24" fill="none"><path d="M20 22V20C20 17.1716 20 15.7574 19.1213 14.8787C18.2426 14 16.8284 14 14 14L10 14C7.17157 14 5.75736 14 4.87868 14.8787C4 15.7574 4 17.1716 4 20L4 22" stroke="currentColor" stroke-linecap="round" stroke-linejoin="round" stroke-width="1.5" /><path d="M4 2C4.04691 3.55345 4.22053 4.48002 4.86322 5.12132C5.74381 6 7.16109 6 9.99566 6H14.0043C16.8389 6 18.2562 6 19.1368 5.12132C19.7795 4.48002 19.9531 3.55345 20 2" stroke="currentColor" stroke-linecap="round" stroke-linejoin="round" stroke-width="1.5" /><path d="M4 18L20 18" stroke="currentColor" stroke-linecap="round" stroke-linejoin="round" stroke-width="1.5" /><path d="M3 10L4.5 10M8.5 10L10 10M14 10L15.5 10M19.5 10L21 10" stroke="currentColor" stroke-linecap="round" stroke-linejoin="round" stroke-width="1.5" /><path d="M12 22L12 14" stroke="currentColor" stroke-linecap="round" stroke-linejoin="round" stroke-width="1.5" /><path d="M8 22L8 14" stroke="currentColor" stroke-linecap="round" stroke-linejoin="round" stroke-width="1.5" /><path d="M16 22L16 14" stroke="currentColor" stroke-linecap="round" stroke-linejoin="round" stroke-width="1.5" /><path d="M12 6L12 2" stroke="currentColor" stroke-linecap="round" stroke-linejoin="round" stroke-width="1.5" /><path d="M8 6L8 2" stroke="currentColor" stroke-linecap="round" stroke-linejoin="round" stroke-width="1.5" /><path d="M16 6L16 2" stroke="currentColor" stroke-linecap="round" stroke-linejoin="round" stroke-width="1.5" /></svg>