<svg xmlns="http://www.w3.org/2000/svg" width="24" height="24" viewBox="0 0 24 24" fill="none"><path d="M17 12C17 14.7614 14.7614 17 12 17C9.23858 17 7 14.7614 7 12C7 9.23858 9.23858 7 12 7" stroke="currentColor" stroke-linecap="round" stroke-width="1.5" /><path d="M14 2.20004C13.3538 2.06886 12.6849 2 12 2C6.47715 2 2 6.47715 2 12C2 17.5228 6.47715 22 12 22C17.5228 22 22 17.5228 22 12C22 11.3151 21.9311 10.6462 21.8 10" stroke="currentColor" stroke-linecap="round" stroke-width="1.5" /><path d="M12.0303 11.9625L16.5832 7.4096M19.7404 4.34462L19.1872 2.35748C19.0853 2.03011 18.6914 1.89965 18.4259 2.11662C16.9898 3.29018 15.4254 4.87091 16.703 7.36419C19.2771 8.56455 20.7466 6.94584 21.8733 5.5853C22.0975 5.3146 21.9623 4.90767 21.6247 4.81005L19.7404 4.34462Z" stroke="currentColor" stroke-linecap="round" stroke-linejoin="round" stroke-width="1.5" /></svg>