<svg xmlns="http://www.w3.org/2000/svg" width="24" height="24" viewBox="0 0 24 24" fill="none"><path d="M14.4961 2.00027H9.49609C8.66767 2.00027 7.99609 2.67185 7.99609 3.50027C7.99609 4.3287 8.66767 5.00027 9.49609 5.00027H14.4961C15.3245 5.00027 15.9961 4.3287 15.9961 3.50027C15.9961 2.67185 15.3245 2.00027 14.4961 2.00027Z" stroke="currentColor" stroke-linecap="round" stroke-linejoin="round" stroke-width="1.5" /><path d="M7.99609 15.0003H11.4247M7.99609 11.0003H15.9961" stroke="currentColor" stroke-linecap="round" stroke-linejoin="round" stroke-width="1.5" /><path d="M15.9961 3.50027C17.5496 3.54709 18.4761 3.72035 19.1174 4.36164C19.9961 5.24032 19.9961 6.65451 19.9961 9.4829L19.9961 15.9997C19.9961 18.8282 19.9961 20.2424 19.1174 21.1211C18.2387 21.9997 16.8245 21.9997 13.9961 21.9997L9.99609 21.9997C7.16767 21.9997 5.75346 21.9997 4.87478 21.1211C3.9961 20.2424 3.9961 18.8282 3.99609 15.9998L3.99611 9.48296C3.9961 6.65453 3.9961 5.24031 4.87478 4.36163C5.51606 3.72034 6.44261 3.54708 7.99599 3.50027" stroke="currentColor" stroke-linecap="round" stroke-linejoin="round" stroke-width="1.5" /></svg>