<svg xmlns="http://www.w3.org/2000/svg" width="24" height="24" viewBox="0 0 24 24" fill="none"><path d="M20 16V8C20 5.17157 20 3.75736 19.1213 2.87868C18.2426 2 16.8284 2 14 2H10C7.17157 2 5.75736 2 4.87868 2.87868C4 3.75736 4 5.17157 4 8V16C4 18.8284 4 20.2426 4.87868 21.1213C5.75736 22 7.17157 22 10 22H14C16.8284 22 18.2426 22 19.1213 21.1213C20 20.2426 20 18.8284 20 16Z" stroke="currentColor" stroke-linecap="round" stroke-linejoin="round" stroke-width="1.5" /><path d="M15.5 2H8.5C8.5 3.41421 8.5 4.12132 8.93934 4.56066C9.37868 5 10.0858 5 11.5 5H12.5C13.9142 5 14.6213 5 15.0607 4.56066C15.5 4.12132 15.5 3.41421 15.5 2Z" stroke="currentColor" stroke-linecap="round" stroke-linejoin="round" stroke-width="1.5" /><path d="M7.5 11L8.5 12L10.5 9.5" stroke="currentColor" stroke-linecap="round" stroke-linejoin="round" stroke-width="1.5" /><path d="M13 17H16M13 11H16" stroke="currentColor" stroke-linecap="round" stroke-linejoin="round" stroke-width="1.5" /><path d="M8.49023 16.8672H8.50023" stroke="currentColor" stroke-linecap="round" stroke-linejoin="round" stroke-width="2" /></svg>