<svg xmlns="http://www.w3.org/2000/svg" width="24" height="24" viewBox="0 0 24 24" fill="none" stroke-width="1.5" stroke-linecap="round" stroke-linejoin="round" color="currentColor"><path d="M13.5 2H8.5C7.67157 2 7 2.67157 7 3.5C7 4.32843 7.67157 5 8.5 5H13.5C14.3284 5 15 4.32843 15 3.5C15 2.67157 14.3284 2 13.5 2Z" fill="none"></path><path d="M7 15H10.4286M7 11H15" fill="none"></path><path d="M19 11.9995L19 9.48263C19 6.65424 19 5.24004 18.1213 4.36137C17.48 3.72007 16.5535 3.54681 15 3.5M11 21.9995L9 21.9995C6.17158 21.9995 4.75737 21.9995 3.87869 21.1208C3.00001 20.2421 3.00001 18.8279 3 15.9995L3.00001 9.48269C3.00001 6.65425 3 5.24004 3.87868 4.36136C4.51997 3.72007 5.44651 3.54681 6.9999 3.5" fill="none"></path><path d="M15.7367 21.6527L14 22L14.3473 20.2633C14.4179 19.9106 14.5913 19.5866 14.8456 19.3323L18.9111 15.2668C19.2668 14.9111 19.8437 14.9111 20.1995 15.2668L20.7332 15.8005C21.0889 16.1563 21.0889 16.7332 20.7332 17.0889L16.6677 21.1544C16.4134 21.4087 16.0894 21.5821 15.7367 21.6527Z" fill="none"></path></svg>