<svg xmlns="http://www.w3.org/2000/svg" width="24" height="24" viewBox="0 0 24 24" fill="none"><path d="M19 13V8C19 5.17157 19 3.75736 18.1213 2.87868C17.2426 2 15.8284 2 13 2H9C6.17157 2 4.75736 2 3.87868 2.87868C3 3.75736 3 5.17157 3 8V16C3 18.8284 3 20.2426 3.87868 21.1213C4.75736 22 6.17157 22 9 22H14" stroke="currentColor" stroke-linecap="round" stroke-linejoin="round" stroke-width="1.5" /><path d="M14.5 2H7.5C7.5 3.41421 7.5 4.12132 7.93934 4.56066C8.37868 5 9.08579 5 10.5 5H11.5C12.9142 5 13.6213 5 14.0607 4.56066C14.5 4.12132 14.5 3.41421 14.5 2Z" stroke="currentColor" stroke-linecap="round" stroke-linejoin="round" stroke-width="1.5" /><path d="M7 15H11M7 11H15" stroke="currentColor" stroke-linecap="round" stroke-linejoin="round" stroke-width="1.5" /><path d="M21 19H18M18 19H15M18 19V22M18 19V16" stroke="currentColor" stroke-linecap="round" stroke-linejoin="round" stroke-width="1.5" /></svg>