<svg xmlns="http://www.w3.org/2000/svg" width="24" height="24" viewBox="0 0 24 24" fill="none"><path d="M19.25 14V8C19.25 5.17157 19.25 3.75736 18.3713 2.87868C17.4926 2 16.0784 2 13.25 2H9.25C6.42157 2 5.00736 2 4.12868 2.87868C3.25 3.75736 3.25 5.17157 3.25 8V16C3.25 18.8284 3.25 20.2426 4.12868 21.1213C5.00736 22 6.42157 22 9.25 22H13.25" stroke="currentColor" stroke-linecap="round" stroke-linejoin="round" stroke-width="1.5" /><path d="M14.75 2H7.75C7.75 3.41421 7.75 4.12132 8.18934 4.56066C8.62868 5 9.33579 5 10.75 5H11.75C13.1642 5 13.8713 5 14.3107 4.56066C14.75 4.12132 14.75 3.41421 14.75 2Z" stroke="currentColor" stroke-linecap="round" stroke-linejoin="round" stroke-width="1.5" /><path d="M7.25 15H11.25M7.25 11H15.25" stroke="currentColor" stroke-linecap="round" stroke-linejoin="round" stroke-width="1.5" /><path d="M21.25 17L18.75 19.5M18.75 19.5L16.25 22M18.75 19.5L21.25 22M18.75 19.5L16.25 17" stroke="currentColor" stroke-linecap="round" stroke-linejoin="round" stroke-width="1.5" /></svg>