<svg xmlns="http://www.w3.org/2000/svg" width="24" height="24" viewBox="0 0 24 24" fill="none"><path d="M7 2L8 4M11 2L10.5 3.5M4.5 5L6 5.5" stroke="currentColor" stroke-linecap="round" stroke-linejoin="round" stroke-width="1.5" /><path d="M10.5 15V12.25C10.5 11.5596 11.0596 11 11.75 11C12.4404 11 13 11.5596 13 12.25V18C13 20.2091 11.2091 22 9 22H8.23518C6.84614 22 5.55654 21.2794 4.82855 20.0964L2.17343 15.7818C2.06004 15.5976 2 15.3854 2 15.1691V15.1111C2 14.4975 2.49746 14 3.11111 14C3.67068 14 4.19759 14.2635 4.53333 14.7111L5.5 16V11.25C5.5 10.5596 6.05964 10 6.75 10C7.44036 10 8 10.5596 8 11.25V15V10.25C8 9.55964 8.55964 9 9.25 9C9.94036 9 10.5 9.55964 10.5 10.25V15Z" stroke="currentColor" stroke-linecap="round" stroke-linejoin="round" stroke-width="1.5" /><path d="M11.5 6.24991C11.7089 6.09299 11.9686 6 12.25 6C12.9404 6 13.5 6.55964 13.5 7.25V8.5V5.25C13.5 4.55964 14.0596 4 14.75 4C15.4404 4 16 4.55964 16 5.25V8.5V6.25C16 5.55964 16.5596 5 17.25 5C17.9404 5 18.5 5.55964 18.5 6.25V11L19.4667 9.71111C19.8024 9.26346 20.3293 9 20.8889 9C21.5025 9 22 9.49746 22 10.1111V10.1691C22 10.3854 21.94 10.5976 21.8266 10.7818L19.1715 15.1645C18.574 16.1353 17.5984 16.7947 16.5 17" stroke="currentColor" stroke-linecap="round" stroke-linejoin="round" stroke-width="1.5" /></svg>