<svg xmlns="http://www.w3.org/2000/svg" width="24" height="24" viewBox="0 0 24 24" fill="none" stroke-width="1.5" stroke-linecap="round" stroke-linejoin="round" color="currentColor"><path d="M19 22L14 13L9 22" stroke="currentColor"></path><path d="M15.9196 4L7.02715 9.2559C6.04492 9.83645 5.70838 11.1222 6.27548 12.1278L7.30228 13.9485C7.86937 14.954 9.12535 15.2985 10.1076 14.718L19 9.46209" stroke="currentColor"></path><path d="M16.2195 4.45572C15.7677 3.67278 16.0358 2.67162 16.8184 2.21959C17.601 1.76755 18.6017 2.03581 19.0535 2.81876L21.7805 7.54428C22.2323 8.32723 21.9642 9.32838 21.1816 9.78042C20.399 10.2325 19.3983 9.96419 18.9465 9.18124L16.2195 4.45572Z" stroke="currentColor"></path><path d="M2 14.2645L2.73817 15.6322M2.73817 15.6322L3.47634 17M2.73817 15.6322L6.5 13.5" stroke="currentColor"></path></svg>