<svg xmlns="http://www.w3.org/2000/svg" width="24" height="24" viewBox="0 0 24 24" fill="none"><circle cx="4.99998" cy="5" r="2" stroke="currentColor" stroke-linecap="round" stroke-linejoin="round" stroke-width="1.5" /><path d="M3.11947 18.9046L7.27295 12.4381C7.41879 12.1679 7.6974 12 8.00002 12C8.30263 12 8.58124 12.1679 8.72708 12.4381L12.8806 18.9046C13.7569 20.269 14.195 20.9511 13.9168 21.4756C13.6386 22 12.8386 22 11.2386 22H4.76146C3.16142 22 2.3614 22 2.08321 21.4756C1.80501 20.9511 2.24316 20.269 3.11947 18.9046Z" stroke="currentColor" stroke-linecap="round" stroke-linejoin="round" stroke-width="1.5" /><path d="M7.99998 12V22" stroke="currentColor" stroke-linecap="round" stroke-linejoin="round" stroke-width="1.5" /><path d="M9.98276 22H19.2172C20.8283 22 21.6339 22 21.9153 21.477C22.1967 20.954 21.7577 20.2726 20.8796 18.91L17.0132 12.91C16.7263 12.4648 16.5828 12.2422 16.3616 12.1211C16.1404 12 15.8772 12 15.3508 12H7.99998" stroke="currentColor" stroke-linecap="round" stroke-linejoin="round" stroke-width="1.5" /><path d="M21 5C20.3333 4.66667 18.8 3.6 18 2C17.2 3.6 15.6667 4.66667 15 5" stroke="currentColor" stroke-linecap="round" stroke-linejoin="round" stroke-width="1.5" /><path d="M21 9C20.3333 8.66667 18.8 7.6 18 6C17.2 7.6 15.6667 8.66667 15 9" stroke="currentColor" stroke-linecap="round" stroke-linejoin="round" stroke-width="1.5" /><path d="M18 2V14" stroke="currentColor" stroke-linecap="round" stroke-linejoin="round" stroke-width="1.5" /></svg>