<svg xmlns="http://www.w3.org/2000/svg" width="24" height="24" viewBox="0 0 24 24" fill="none"><path d="M10.2112 16.4234L8.00003 21L16 21L13.7889 16.4234C13.0083 14.8078 12.6181 14 12 14C11.382 14 10.9917 14.8078 10.2112 16.4234Z" stroke="currentColor" stroke-linecap="round" stroke-linejoin="round" stroke-width="1.5" /><path d="M9.99997 3L19.2905 14.8243C20.1372 15.9019 20.5605 16.4407 20.7803 17.076C21 17.7113 21 18.3965 21 19.7669V21" stroke="currentColor" stroke-linecap="round" stroke-linejoin="round" stroke-width="1.5" /><path d="M14 3L4.70943 14.8244C3.86277 15.902 3.43945 16.4407 3.21973 17.076C3.00002 17.7112 3.00001 18.3964 2.99999 19.7668L2.99997 21" stroke="currentColor" stroke-linecap="round" stroke-linejoin="round" stroke-width="1.5" /><path d="M2 21H22" stroke="currentColor" stroke-linecap="round" stroke-linejoin="round" stroke-width="1.5" /></svg>