<svg xmlns="http://www.w3.org/2000/svg" width="24" height="24" viewBox="0 0 24 24" fill="none" stroke-width="1.5" stroke-linecap="round" stroke-linejoin="round" color="currentColor"><path d="M3 3H21" stroke="currentColor"></path><path d="M3 21H21" stroke="currentColor"></path><path d="M15 9H21" stroke="currentColor"></path><path d="M15 15H21" stroke="currentColor"></path><path d="M3.58579 15.4142C4.17157 16 5.11438 16 7 16C8.88562 16 9.82843 16 10.4142 15.4142C11 14.8284 11 13.8856 11 12C11 10.1144 11 9.17157 10.4142 8.58579C9.82843 8 8.88562 8 7 8C5.11438 8 4.17157 8 3.58579 8.58579C3 9.17157 3 10.1144 3 12C3 13.8856 3 14.8284 3.58579 15.4142Z" stroke="currentColor"></path></svg>