<svg xmlns="http://www.w3.org/2000/svg" width="24" height="24" viewBox="0 0 24 24" fill="none" stroke-width="1.5" stroke-linecap="round" stroke-linejoin="round" color="currentColor"><path d="M3 3.5H5" stroke="currentColor"></path><path d="M19 3.5H21" stroke="currentColor"></path><path d="M3 9.5H5" stroke="currentColor"></path><path d="M19 9.5H21" stroke="currentColor"></path><path d="M3 15.5H21" stroke="currentColor"></path><path d="M3 21H21" stroke="currentColor"></path><path d="M8.58579 10.4142C9.17157 11 10.1144 11 12 11C13.8856 11 14.8284 11 15.4142 10.4142C16 9.82843 16 8.88562 16 7C16 5.11438 16 4.17157 15.4142 3.58579C14.8284 3 13.8856 3 12 3C10.1144 3 9.17157 3 8.58579 3.58579C8 4.17157 8 5.11438 8 7C8 8.88562 8 9.82843 8.58579 10.4142Z" stroke="currentColor"></path></svg>