<svg xmlns="http://www.w3.org/2000/svg" width="24" height="24" viewBox="0 0 24 24" fill="none"><path d="M6.99892 9.5C6.75828 7.50503 7.91475 7.09687 11.9989 7M11.9989 7C16.1223 7.10058 17.3402 7.59829 16.9989 9.5M11.9989 7V17M9.99892 17H13.9989" stroke="currentColor" stroke-linecap="round" stroke-linejoin="round" stroke-width="1.5" /><path d="M3.89124 3.89124C2.5 5.28249 2.5 7.52166 2.5 12C2.5 16.4783 2.5 18.7175 3.89124 20.1088C5.28249 21.5 7.52166 21.5 12 21.5C16.4783 21.5 18.7175 21.5 20.1088 20.1088C21.5 18.7175 21.5 16.4783 21.5 12C21.5 7.52166 21.5 5.28249 20.1088 3.89124C18.7175 2.5 16.4783 2.5 12 2.5C7.52166 2.5 5.28249 2.5 3.89124 3.89124Z" stroke="currentColor" stroke-linecap="round" stroke-linejoin="round" stroke-width="1.5" /></svg>