<svg xmlns="http://www.w3.org/2000/svg" width="24" height="24" viewBox="0 0 24 24" fill="none" stroke-width="1.5" stroke-linecap="round" stroke-linejoin="round" color="currentColor"><path d="M3 3.5H9" stroke="currentColor"></path><path d="M3 9.5H9" stroke="currentColor"></path><path d="M3 15.5H21" stroke="currentColor"></path><path d="M3 21.5H21" stroke="currentColor"></path><path d="M13.5858 9.91421C14.1716 10.5 15.1144 10.5 17 10.5C18.8856 10.5 19.8284 10.5 20.4142 9.91421C21 9.32843 21 8.38562 21 6.5C21 4.61438 21 3.67157 20.4142 3.08579C19.8284 2.5 18.8856 2.5 17 2.5C15.1144 2.5 14.1716 2.5 13.5858 3.08579C13 3.67157 13 4.61438 13 6.5C13 8.38562 13 9.32843 13.5858 9.91421Z" stroke="currentColor"></path></svg>