<svg xmlns="http://www.w3.org/2000/svg" width="24" height="24" viewBox="0 0 24 24" fill="none" stroke-width="1.5" stroke-linecap="round" stroke-linejoin="round" color="currentColor"><path d="M3 3H21" stroke="currentColor"></path><path d="M3 21H21" stroke="currentColor"></path><path d="M3 9H9" stroke="currentColor"></path><path d="M3 15H9" stroke="currentColor"></path><path d="M13.5858 15.4142C14.1716 16 15.1144 16 17 16C18.8856 16 19.8284 16 20.4142 15.4142C21 14.8284 21 13.8856 21 12C21 10.1144 21 9.17157 20.4142 8.58579C19.8284 8 18.8856 8 17 8C15.1144 8 14.1716 8 13.5858 8.58579C13 9.17157 13 10.1144 13 12C13 13.8856 13 14.8284 13.5858 15.4142Z" stroke="currentColor"></path></svg>