<svg xmlns="http://www.w3.org/2000/svg" width="24" height="24" viewBox="0 0 24 24" fill="none" stroke-width="1.5" stroke-linecap="round" stroke-linejoin="round" color="currentColor"><path d="M3 3H21" stroke="currentColor"></path><path d="M3 21H21" stroke="currentColor"></path><path d="M3 9H5" stroke="currentColor"></path><path d="M19 9H21" stroke="currentColor"></path><path d="M3 15H5" stroke="currentColor"></path><path d="M19 15H21" stroke="currentColor"></path><path d="M8.58579 15.4142C9.17157 16 10.1144 16 12 16C13.8856 16 14.8284 16 15.4142 15.4142C16 14.8284 16 13.8856 16 12C16 10.1144 16 9.17157 15.4142 8.58579C14.8284 8 13.8856 8 12 8C10.1144 8 9.17157 8 8.58579 8.58579C8 9.17157 8 10.1144 8 12C8 13.8856 8 14.8284 8.58579 15.4142Z" stroke="currentColor"></path></svg>