<svg xmlns="http://www.w3.org/2000/svg" width="24" height="24" viewBox="0 0 24 24" fill="none"><path d="M2 20V7.02172C2 5.10465 2 4.00007 2.4389 4.00007C2.95995 4.00007 3.33531 4.66033 4.25033 6.27292L10.7497 17.7271C11.6647 19.3397 12.0233 20 12.5611 20C13 20 13 18.8954 13 16.9784V4" stroke="currentColor" stroke-linecap="round" stroke-linejoin="round" stroke-width="1.5" /><path d="M16 13L22 13" stroke="currentColor" stroke-linecap="round" stroke-linejoin="round" stroke-width="1.5" /><path d="M16.5806 4.58081C17.3546 3.80672 20.6454 3.80672 21.4194 4.58081C22.1935 5.35489 22.1935 8.6456 21.4194 9.41968C20.6454 10.1938 17.3546 10.1938 16.5806 9.41968C15.8065 8.6456 15.8065 5.35489 16.5806 4.58081Z" stroke="currentColor" stroke-linecap="round" stroke-linejoin="round" stroke-width="1.5" /></svg>