<svg xmlns="http://www.w3.org/2000/svg" width="24" height="24" viewBox="0 0 24 24" fill="none" stroke-width="1.5" stroke-linecap="round" stroke-linejoin="round" color="currentColor"><path d="M3 22V19.5C3 17.4317 3.34533 17 5 17H17C18.6547 17 19 17.4317 19 19.5V22H3Z" stroke="currentColor"></path><path d="M2 22H22" stroke="currentColor"></path><path d="M17.5125 6C15.9698 4 18.3389 3 19 2C19.6611 3 22.0302 4 20.4875 6H17.5125Z" stroke="currentColor"></path><path d="M17.5 6L17 17M17 22H21L20.5 6" stroke="currentColor"></path><path d="M11.0006 8C12.984 10.25 16.9992 11 16.9992 17H5C5 11 9.01516 10.25 10.9986 8" stroke="currentColor"></path></svg>