<svg xmlns="http://www.w3.org/2000/svg" width="24" height="24" viewBox="0 0 24 24" fill="none" stroke-width="1.5" stroke-linecap="round" stroke-linejoin="round" color="currentColor"><path d="M2.5 12C2.5 7.52166 2.5 5.28249 3.89124 3.89124C5.28249 2.5 7.52166 2.5 12 2.5C16.4783 2.5 18.7175 2.5 20.1088 3.89124C21.5 5.28249 21.5 7.52166 21.5 12C21.5 16.4783 21.5 18.7175 20.1088 20.1088C18.7175 21.5 16.4783 21.5 12 21.5C7.52166 21.5 5.28249 21.5 3.89124 20.1088C2.5 18.7175 2.5 16.4783 2.5 12Z" fill="none"></path><path d="M12.5 12H11.5M12.5 12C13.8807 12 15 10.8807 15 9.5C15 8.11929 13.8807 7 12.5 7H11.5C10.1193 7 9 8.11929 9 9.5M12.5 12C13.8807 12 15 13.1193 15 14.5C15 15.8807 13.8807 17 12.5 17H11.5C10.1193 17 9 15.8807 9 14.5" fill="none"></path></svg>