<svg xmlns="http://www.w3.org/2000/svg" width="24" height="24" viewBox="0 0 24 24" fill="none" stroke-width="1.5" stroke-linecap="round" stroke-linejoin="round" color="currentColor"><path d="M4.5 7.5H16.5C18.3856 7.5 19.3284 7.5 19.9142 8.08579C20.5 8.67157 20.5 9.61438 20.5 11.5V12.5M16.5 10.5H4.5M16.5 13.5H4.5M16.5 16.5H4.5" stroke="currentColor"></path><path d="M15.5 19.5H5.5C4.39543 19.5 3.5 20.3954 3.5 21.5H17.5C17.5 20.3954 16.6046 19.5 15.5 19.5Z" stroke="currentColor"></path><path d="M5.5 4.5L15.5 4.5C16.6046 4.5 17.5 3.60457 17.5 2.5L3.5 2.5C3.5 3.60457 4.39543 4.5 5.5 4.5Z" stroke="currentColor"></path></svg>