<svg xmlns="http://www.w3.org/2000/svg" width="24" height="24" viewBox="0 0 24 24" fill="none" stroke-width="1.5" stroke-linecap="round" stroke-linejoin="round" color="currentColor"><path d="M11.75 22.7988H19.75L19.76 22.8088C20.17 22.8088 20.51 22.4688 20.51 22.0588C20.51 21.6488 20.17 21.3088 19.76 21.3088H11.76H11.7594C8.19981 21.3088 6.40995 21.3088 5.46 20.3589C4.51 19.4089 4.51 17.6188 4.51 14.0589V14.0588V9.5188V9.51879C4.51 6.4488 4.51 4.9088 5.23 4.0188C5.37 3.8388 5.54 3.67881 5.72 3.52881C6.61996 2.80884 8.14988 2.80884 11.2196 2.80884H11.22H12.01V3.04883C12.01 6.07883 12.01 7.59897 13.11 8.69897C14.2099 9.79883 15.7296 9.79883 18.7588 9.79883H18.76H18.98C19.01 10.1588 19.01 10.6388 19.01 11.0488V11.0488C19.01 11.4588 19.35 11.7988 19.76 11.7988C20.17 11.7988 20.51 11.4588 20.51 11.0488C20.51 9.97883 20.5 9.30885 20.3 8.81885C20.1 8.3289 19.7501 7.97895 19.1202 7.34907L19.12 7.34888L14.38 2.60889C13.84 2.05889 13.54 1.75886 13.13 1.57886L13 1.5188C12.9972 1.5174 12.9926 1.51502 12.9868 1.51196C12.9507 1.49321 12.8658 1.44897 12.84 1.44897C12.39 1.29897 11.98 1.29883 11.22 1.29883C7.8 1.29883 6.08 1.29889 4.77 2.35889C4.51 2.56889 4.27 2.80885 4.06 3.06885C3 4.36885 3 6.08879 3 9.50879V14.0488C3 18.0288 3 20.0189 4.39 21.4089C5.77989 22.7988 7.76969 22.7988 11.7491 22.7988H11.75ZM14.16 7.63892C13.57 7.04892 13.5 5.93889 13.5 3.85889L17.94 8.29883C15.85 8.28883 14.75 8.22892 14.16 7.63892ZM19 19.0488C19 19.4588 19.34 19.7988 19.75 19.7988C20.16 19.7988 20.5 19.4588 20.5 19.0488V17.2988H21.75C22.16 17.2988 22.5 16.9588 22.5 16.5488C22.5 16.1388 22.16 15.7988 21.75 15.7988H20.5V14.7988H21.75C22.16 14.7988 22.5 14.4588 22.5 14.0488C22.5 13.6388 22.16 13.2988 21.75 13.2988H19.75C19.34 13.2988 19 13.6388 19 14.0488V19.0488ZM14.5 19.0488C14.5 19.4588 14.84 19.7988 15.25 19.7988C15.66 19.7988 16 19.4588 16 19.0488V17.2988H17.25C17.66 17.2988 18 16.9588 18 16.5488C18 16.1388 17.66 15.7988 17.25 15.7988H16V14.7988H17.25C17.66 14.7988 18 14.4588 18 14.0488C18 13.6388 17.66 13.2988 17.25 13.2988H15.25C14.84 13.2988 14.5 13.6388 14.5 14.0488V19.0488ZM12 19.0488C12 19.4588 12.34 19.7988 12.75 19.7988C13.16 19.7988 13.5 19.4588 13.5 19.0488V14.0488C13.5 13.6388 13.16 13.2988 12.75 13.2988C12.34 13.2988 12 13.6388 12 14.0488V19.0488ZM8 19.0488C8 19.4588 8.34 19.7988 8.75 19.7988C9.16 19.7988 9.5 19.4588 9.5 19.0488V14.7988H10.25C10.66 14.7988 11 14.4588 11 14.0488C11 13.6388 10.66 13.2988 10.25 13.2988H7.25C6.84 13.2988 6.5 13.6388 6.5 14.0488C6.5 14.4588 6.84 14.7988 7.25 14.7988H8V19.0488Z" fill="currentColor" fill-rule="evenodd"></path></svg>