<svg xmlns="http://www.w3.org/2000/svg" width="24" height="24" viewBox="0 0 24 24" fill="none" stroke-width="1.5" stroke-linecap="round" stroke-linejoin="round" color="currentColor"><path d="M19.9922 13.0505C19.9922 13.4605 20.3322 13.8005 20.7422 13.8005L20.7522 13.8105C21.1622 13.8105 21.5022 13.4705 21.5022 13.0605V10.7205C21.5022 9.83046 21.5022 9.34057 21.2922 8.83057C21.0922 8.34062 20.7423 7.99067 20.1124 7.36079L20.1122 7.3606L15.3722 2.62061C14.8322 2.07061 14.5322 1.77058 14.1222 1.59058L13.9922 1.53052C13.9893 1.52908 13.9846 1.5266 13.9785 1.52342C13.9422 1.50447 13.8579 1.46045 13.8322 1.46045C13.3825 1.31055 12.9727 1.31055 12.2137 1.31055H12.2122C8.79219 1.31055 7.07219 1.31061 5.76219 2.37061C5.50219 2.58061 5.26219 2.82057 5.05219 3.08057C3.99219 4.38057 3.99219 6.10051 3.99219 9.52051V13.0605C3.99219 13.4705 4.33219 13.8105 4.74219 13.8105C5.15219 13.8105 5.49219 13.4705 5.49219 13.0605V9.52051V9.5205C5.49219 6.45051 5.49219 4.91051 6.21219 4.02051C6.35219 3.84051 6.52219 3.68052 6.70219 3.53052C7.60215 2.81055 9.13206 2.81055 12.2018 2.81055H12.2022H12.9922V3.05054V3.05055C12.9922 6.08054 12.9922 7.60069 14.0922 8.70068C15.192 9.80054 16.7118 9.80054 19.741 9.80054H19.7422H19.9722C19.9922 10.0105 19.9922 10.2904 19.9922 10.7104V13.0505ZM15.1522 7.64062C14.5622 7.05062 14.4922 5.9406 14.4922 3.8606L18.9322 8.30054C16.8422 8.29054 15.7422 8.23063 15.1522 7.64062ZM17.4922 22.0505C17.4922 22.4605 17.8322 22.8005 18.2422 22.8005C18.6522 22.8005 18.9922 22.4605 18.9922 22.0505V19.8005H20.7422C21.1522 19.8005 21.4922 19.4605 21.4922 19.0505C21.4922 18.6405 21.1522 18.3005 20.7422 18.3005H18.9922V16.8005H20.7422C21.1522 16.8005 21.4922 16.4605 21.4922 16.0505C21.4922 15.6405 21.1522 15.3005 20.7422 15.3005H18.2422C17.8322 15.3005 17.4922 15.6405 17.4922 16.0505V22.0505ZM12.4922 22.0505C12.4922 22.4605 12.8322 22.8005 13.2422 22.8005C13.6522 22.8005 13.9922 22.4605 13.9922 22.0505V19.8005H15.7422C16.1522 19.8005 16.4922 19.4605 16.4922 19.0505C16.4922 18.6405 16.1522 18.3005 15.7422 18.3005H13.9922V16.8005H15.7422C16.1522 16.8005 16.4922 16.4605 16.4922 16.0505C16.4922 15.6405 16.1522 15.3005 15.7422 15.3005H13.2422C12.8322 15.3005 12.4922 15.6405 12.4922 16.0505V22.0505ZM9.99219 22.0505C9.99219 22.4605 10.3322 22.8005 10.7422 22.8005C11.1522 22.8005 11.4922 22.4605 11.4922 22.0505V16.0505C11.4922 15.6405 11.1522 15.3005 10.7422 15.3005C10.3322 15.3005 9.99219 15.6405 9.99219 16.0505V22.0505ZM5.74219 22.0505C5.74219 22.4605 6.08219 22.8005 6.49219 22.8005C6.90219 22.8005 7.24219 22.4605 7.24219 22.0505V16.8005H8.24219C8.65219 16.8005 8.99219 16.4605 8.99219 16.0505C8.99219 15.6405 8.65219 15.3005 8.24219 15.3005H4.74219C4.33219 15.3005 3.99219 15.6405 3.99219 16.0505C3.99219 16.4605 4.33219 16.8005 4.74219 16.8005H5.74219V22.0505Z" fill="currentColor" fill-rule="evenodd"></path></svg>