<svg xmlns="http://www.w3.org/2000/svg" width="24" height="24" viewBox="0 0 24 24" fill="none" stroke-width="1.5" stroke-linecap="round" stroke-linejoin="round" color="currentColor"><path d="M7.95606 21.4055C8.33606 21.8355 8.87608 22.0754 9.44608 22.0754C10.4461 22.0754 11.2961 21.3254 11.4261 20.3254L12.5961 10.9953L15.7861 12.4055C16.7361 12.8155 17.8361 12.4253 18.2961 11.5053C18.7561 10.5853 18.4261 9.4555 17.5461 8.9355L7.54606 2.94551C6.92606 2.57551 6.19607 2.47547 5.49607 2.65547C4.79607 2.83547 4.21605 3.27547 3.85605 3.90547C3.47605 4.56547 3.39608 5.35538 3.63608 6.06538C3.86608 6.77538 4.39606 7.36548 5.08606 7.66548L8.73606 9.28535L7.46607 19.8454C7.39607 20.4154 7.57606 20.9755 7.95606 21.4055ZM5.86606 4.11543C5.96606 4.08543 6.06608 4.07539 6.16608 4.07539L6.17606 4.0854C6.38606 4.0854 6.59607 4.14532 6.77607 4.25532L16.7761 10.2453C16.9761 10.3553 17.0561 10.6354 16.9461 10.8454C16.8361 11.0454 16.5861 11.1354 16.3761 11.0454L12.2761 9.22554C12.0661 9.12554 11.8161 9.13532 11.6061 9.25532C11.3961 9.37532 11.2561 9.57538 11.2261 9.81538L9.93607 20.1455C9.90607 20.3855 9.69608 20.5754 9.44608 20.5754C9.25608 20.5754 9.12606 20.4655 9.07606 20.4055C9.02606 20.3455 8.93606 20.2153 8.95606 20.0253L10.2861 8.91548C10.3261 8.59548 10.1461 8.27546 9.84607 8.14546L5.68607 6.30537C5.38607 6.16537 5.15607 5.92542 5.05607 5.60542C4.94607 5.28542 4.98606 4.95548 5.14606 4.66548C5.30606 4.38548 5.55606 4.19543 5.86606 4.11543ZM15.9961 5.82544C15.9961 7.06544 17.0061 8.07544 18.2461 8.07544C19.4861 8.07544 20.4961 7.06544 20.4961 5.82544C20.4961 4.58544 19.4861 3.57544 18.2461 3.57544C17.0061 3.57544 15.9961 4.58544 15.9961 5.82544ZM17.4961 5.82544C17.4961 5.41544 17.8361 5.07544 18.2461 5.07544C18.6561 5.07544 18.9961 5.41544 18.9961 5.82544C18.9961 6.23544 18.6561 6.57544 18.2461 6.57544C17.8361 6.57544 17.4961 6.23544 17.4961 5.82544Z" fill="currentColor" fill-rule="evenodd"></path></svg>