<svg xmlns="http://www.w3.org/2000/svg" width="24" height="24" viewBox="0 0 24 24" fill="none" stroke-width="1.5" stroke-linecap="round" stroke-linejoin="round" color="currentColor"><path d="M21.2799 9.212C21.3799 9.532 21.6799 9.74203 21.9999 9.74203C22.0699 9.74203 22.1499 9.732 22.2199 9.712C22.6199 9.592 22.8399 9.17206 22.7199 8.77206C22.5599 8.24206 22.3599 7.72201 22.1199 7.22201C21.9399 6.84201 21.4998 6.68215 21.1198 6.86215C20.7498 7.04215 20.5799 7.48215 20.7599 7.86215C20.9599 8.30215 21.1399 8.752 21.2799 9.212ZM19.2498 5.63193C19.3998 5.81193 19.6199 5.90195 19.8299 5.90195C19.9999 5.90195 20.1698 5.85202 20.3098 5.73202C20.6198 5.46202 20.6699 4.99197 20.3999 4.67197C20.2299 4.47197 20.0599 4.29215 19.8799 4.11215C19.6999 3.93215 19.5199 3.76214 19.3399 3.60214C19.0299 3.32214 18.5599 3.35196 18.2799 3.66196C17.9999 3.97196 18.0299 4.45201 18.3399 4.72201C18.4999 4.86201 18.6599 5.01197 18.8199 5.17197C18.9699 5.31197 19.1098 5.47193 19.2498 5.63193ZM16.4046 3.29207C16.4064 3.29208 16.4081 3.29208 16.4099 3.29208H16.3999C16.4015 3.29208 16.403 3.29208 16.4046 3.29207ZM16.0899 3.22201C16.1883 3.27122 16.2964 3.29144 16.4046 3.29207C16.6829 3.29027 16.9506 3.13062 17.0799 2.86215C17.2599 2.49215 17.0999 2.04215 16.7299 1.86215C16.1899 1.60215 15.6999 1.41206 15.2099 1.27206C14.8199 1.15206 14.3999 1.38207 14.2799 1.78207C14.1599 2.18207 14.3899 2.592 14.7899 2.712C15.1999 2.832 15.6199 3.00201 16.0899 3.22201ZM12 22.7419C6.07 22.7419 1.25 17.9219 1.25 11.9919C1.25 6.06194 6.07 1.24194 12 1.24194C12.41 1.24194 12.75 1.58194 12.75 1.99194C12.75 2.40194 12.41 2.74194 12 2.74194C6.9 2.74194 2.75 6.89194 2.75 11.9919C2.75 17.0919 6.9 21.2419 12 21.2419C17.1 21.2419 21.25 17.0919 21.25 11.9919C21.25 11.5819 21.5901 11.2419 22.0001 11.2419C22.4101 11.2419 22.7501 11.5819 22.7501 11.9919C22.7501 17.9219 17.93 22.7419 12 22.7419ZM16 12.7419H12C11.59 12.7419 11.25 12.4019 11.25 11.9919V5.99194C11.25 5.58194 11.59 5.24194 12 5.24194C12.41 5.24194 12.75 5.58194 12.75 5.99194V11.2419H16C16.41 11.2419 16.75 11.5819 16.75 11.9919C16.75 12.4019 16.41 12.7419 16 12.7419Z" fill="currentColor" fill-rule="evenodd"></path></svg>