<svg xmlns="http://www.w3.org/2000/svg" width="24" height="24" viewBox="0 0 24 24" fill="none"><path d="M12 22C13.1046 22 14 21.1046 14 20C14 18.8954 13.1046 18 12 18C10.8954 18 10 18.8954 10 20C10 21.1046 10.8954 22 12 22Z" stroke="currentColor" stroke-linecap="round" stroke-linejoin="round" stroke-width="1.5" /><path d="M15 2H9C7.11438 2 6.17157 2 5.58579 2.58579C5 3.17157 5 4.11438 5 6V9C5 10.8856 5 11.8284 5.58579 12.4142C6.17157 13 7.11438 13 9 13H10.5L12 15L13.5 13H15C16.8856 13 17.8284 13 18.4142 12.4142C19 11.8284 19 10.8856 19 9V6C19 4.11438 19 3.17157 18.4142 2.58579C17.8284 2 16.8856 2 15 2Z" stroke="currentColor" stroke-linecap="round" stroke-linejoin="round" stroke-width="1.5" /><path d="M9 6H12" stroke="currentColor" stroke-linecap="round" stroke-linejoin="round" stroke-width="1.5" /><path d="M9 9H15" stroke="currentColor" stroke-linecap="round" stroke-linejoin="round" stroke-width="1.5" /><path d="M14 20H21M10 20H3" stroke="currentColor" stroke-linecap="round" stroke-linejoin="round" stroke-width="1.5" /></svg>