<svg xmlns="http://www.w3.org/2000/svg" width="24" height="24" viewBox="0 0 24 24" fill="none" stroke-width="1.5" stroke-linecap="round" stroke-linejoin="round" color="currentColor"><path d="M2.5 12C2.5 7.52166 2.5 5.28249 3.89124 3.89124C5.28249 2.5 7.52166 2.5 12 2.5C16.4783 2.5 18.7175 2.5 20.1088 3.89124C21.5 5.28249 21.5 7.52166 21.5 12C21.5 16.4783 21.5 18.7175 20.1088 20.1088C18.7175 21.5 16.4783 21.5 12 21.5C7.52166 21.5 5.28249 21.5 3.89124 20.1088C2.5 18.7175 2.5 16.4783 2.5 12Z" stroke="currentColor"></path><path d="M12.0078 10.5082C11.1794 10.5082 10.5078 11.1798 10.5078 12.0082C10.5078 12.8366 11.1794 13.5082 12.0078 13.5082C12.8362 13.5082 13.5078 12.8366 13.5078 12.0082C13.5078 11.1798 12.8362 10.5082 12.0078 10.5082ZM12.0078 10.5082V6.99902M15.0147 15.0198L13.0661 13.0712" stroke="currentColor"></path></svg>