<svg xmlns="http://www.w3.org/2000/svg" width="24" height="24" viewBox="0 0 24 24" fill="none" stroke-width="1.5" stroke-linecap="round" stroke-linejoin="round" color="currentColor"><path d="M2.75 12.0625C2.75 6.9525 6.89 2.8125 12 2.8125C17.11 2.8125 21.25 6.9525 21.25 12.0625C21.25 17.1725 17.11 21.3125 12 21.3125C6.89 21.3125 2.75 17.1725 2.75 12.0625ZM12 1.3125C6.06 1.3125 1.25 6.1225 1.25 12.0625C1.25 18.0025 6.06 22.8125 12 22.8125C17.94 22.8125 22.75 18.0025 22.75 12.0625C22.75 6.1225 17.94 1.3125 12 1.3125ZM7.43994 8.5625L10.5399 10.3525C10.7499 10.1725 10.99 10.0325 11.25 9.9425V6.36249C9.7 6.56249 8.34994 7.3825 7.43994 8.5625ZM9.78992 11.6525L6.68994 9.86249C6.40994 10.5425 6.25 11.2825 6.25 12.0625C6.25 12.8425 6.40994 13.5825 6.68994 14.2625L9.78992 12.4725C9.75992 12.3425 9.75 12.2025 9.75 12.0625C9.75 11.9225 9.75992 11.7825 9.78992 11.6525ZM10.5399 13.7725L7.43994 15.5625C8.34994 16.7425 9.7 17.5625 11.25 17.7625V14.1825C10.99 14.0925 10.7499 13.9525 10.5399 13.7725ZM12.75 14.1825V17.7625C14.3 17.5625 15.6599 16.7425 16.5599 15.5625L13.46 13.7725C13.25 13.9525 13.01 14.0925 12.75 14.1825ZM14.21 12.4725L17.3099 14.2625C17.5899 13.5825 17.75 12.8425 17.75 12.0625C17.75 11.2825 17.5899 10.5425 17.3099 9.86249L14.21 11.6525C14.24 11.7825 14.25 11.9225 14.25 12.0625C14.25 12.2025 14.24 12.3425 14.21 12.4725ZM13.46 10.3525L16.5599 8.5625C15.6599 7.3825 14.3 6.56249 12.75 6.36249V9.9425C13.01 10.0325 13.25 10.1725 13.46 10.3525ZM11.36 11.6725C11.49 11.4625 11.73 11.3125 12 11.3125C12.41 11.3125 12.75 11.6525 12.75 12.0625C12.75 12.4725 12.41 12.8125 12 12.8125C11.73 12.8125 11.49 12.6725 11.36 12.4525C11.36 12.4525 11.35 12.4425 11.35 12.4325C11.35 12.4225 11.34 12.4225 11.34 12.4125C11.28 12.3025 11.25 12.1825 11.25 12.0525C11.25 11.9225 11.28 11.8025 11.34 11.6925C11.34 11.6925 11.35 11.6825 11.35 11.6725C11.35 11.6625 11.36 11.6625 11.36 11.6525V11.6725ZM4.75 12.0625C4.75 8.0625 8 4.8125 12 4.8125C16 4.8125 19.25 8.0625 19.25 12.0625C19.25 16.0625 16 19.3125 12 19.3125C8 19.3125 4.75 16.0625 4.75 12.0625Z" fill="currentColor"></path></svg>