<svg xmlns="http://www.w3.org/2000/svg" width="24" height="24" viewBox="0 0 24 24" fill="none" stroke-width="1.5" stroke-linecap="round" stroke-linejoin="round" color="currentColor"><path d="M12.8469 2.07227H12.7468C10.6768 2.07227 9.04686 2.0723 7.77686 2.2323C6.46686 2.3823 5.41689 2.71227 4.56689 3.45227C4.33689 3.64227 4.11688 3.86229 3.92688 4.09229C3.18688 4.94229 2.85691 5.99225 2.70691 7.30225C2.54691 8.57225 2.54688 10.2023 2.54688 12.2723V12.3723C2.54688 14.4423 2.54691 16.0723 2.70691 17.3423C2.85691 18.6523 3.18688 19.7022 3.92688 20.5522C4.11688 20.7822 4.33689 21.0023 4.56689 21.1923C5.41689 21.9323 6.46686 22.2624 7.77686 22.4124C9.04686 22.5724 10.6768 22.5723 12.7468 22.5723H12.8469C14.9169 22.5723 16.5469 22.5724 17.8169 22.4124C19.1269 22.2624 20.1769 21.9323 21.0269 21.1923C21.2569 21.0023 21.4769 20.7822 21.6669 20.5522C22.4069 19.7022 22.7368 18.6523 22.8868 17.3423C23.0468 16.0723 23.0469 14.4423 23.0469 12.3723V12.2723C23.0469 10.2023 23.0468 8.57225 22.8868 7.30225C22.7368 5.99225 22.4069 4.94229 21.6669 4.09229C21.4769 3.86229 21.2569 3.64227 21.0269 3.45227C20.1769 2.71227 19.1269 2.3823 17.8169 2.2323C16.5469 2.0723 14.9169 2.07227 12.8469 2.07227ZM5.53687 4.59229C6.07687 4.12229 6.79691 3.86228 7.95691 3.71228C9.12691 3.57228 10.6669 3.57227 12.7969 3.57227C14.9269 3.57227 16.4668 3.57228 17.6368 3.71228C18.7968 3.86228 19.5169 4.12229 20.0569 4.59229C20.2269 4.73229 20.3869 4.89226 20.5269 5.06226C20.9969 5.60226 21.2569 6.3223 21.4069 7.4823C21.5469 8.6523 21.5469 10.1923 21.5469 12.3223C21.5469 14.4523 21.5469 15.9924 21.4069 17.1624C21.2569 18.3224 20.9969 19.0423 20.5269 19.5823C20.3869 19.7523 20.2269 19.9122 20.0569 20.0522C19.5169 20.5222 18.7968 20.7823 17.6368 20.9323C16.4668 21.0723 14.9269 21.0723 12.7969 21.0723C10.6669 21.0723 9.12691 21.0723 7.95691 20.9323C6.79691 20.7823 6.07687 20.5222 5.53687 20.0522C5.36687 19.9122 5.20689 19.7523 5.06689 19.5823C4.59689 19.0423 4.33689 18.3224 4.18689 17.1624C4.04689 15.9924 4.04688 14.4523 4.04688 12.3223C4.04688 10.1923 4.04689 8.6523 4.18689 7.4823C4.33689 6.3223 4.59689 5.60226 5.06689 5.06226C5.20689 4.89226 5.36687 4.73229 5.53687 4.59229ZM13.8868 7.17224C13.3768 6.37224 12.2169 6.37224 11.7069 7.17224L11.0769 8.15234C10.4469 9.14234 9.61683 9.97229 8.62683 10.6023L7.64685 11.2323C6.84685 11.7423 6.84685 12.9024 7.64685 13.4124L8.62683 14.0422C9.61683 14.6722 10.4469 15.5023 11.0769 16.4923L11.7069 17.4723C12.2169 18.2723 13.3768 18.2723 13.8868 17.4723L14.5168 16.4923C15.1468 15.5023 15.9769 14.6722 16.9669 14.0422L17.9469 13.4124C18.7469 12.9024 18.7469 11.7423 17.9469 11.2323L16.9669 10.6023C15.9769 9.97229 15.1468 9.14234 14.5168 8.15234L13.8868 7.17224ZM12.3469 8.95227L12.7969 8.24231L13.2468 8.95227C13.9968 10.1323 14.9869 11.1223 16.1669 11.8723L16.8768 12.3223L16.1669 12.7723C14.9869 13.5223 13.9968 14.5123 13.2468 15.6923L12.7969 16.4023L12.3469 15.6923C11.5969 14.5123 10.6069 13.5223 9.42688 12.7723L8.71692 12.3223L9.42688 11.8723C10.6069 11.1223 11.5969 10.1323 12.3469 8.95227Z" fill="currentColor" fill-rule="evenodd"></path></svg>