<svg xmlns="http://www.w3.org/2000/svg" width="24" height="24" viewBox="0 0 24 24" fill="none" stroke-width="1.5" stroke-linecap="round" stroke-linejoin="round" color="currentColor"><path d="M3.54688 12.3223C3.54688 7.21227 7.68687 3.07227 12.7969 3.07227C17.9069 3.07227 22.0469 7.21227 22.0469 12.3223C22.0469 17.4323 17.9069 21.5723 12.7969 21.5723C7.68687 21.5723 3.54688 17.4323 3.54688 12.3223ZM12.7969 1.57227C6.85687 1.57227 2.04688 6.38227 2.04688 12.3223C2.04688 18.2623 6.85687 23.0723 12.7969 23.0723C18.7369 23.0723 23.5469 18.2623 23.5469 12.3223C23.5469 6.38227 18.7369 1.57227 12.7969 1.57227ZM14.5168 8.15234L13.8868 7.17224C13.3768 6.37224 12.2169 6.37224 11.7069 7.17224L11.0769 8.15234C10.4469 9.14234 9.61683 9.97229 8.62683 10.6023L7.64685 11.2323C6.84685 11.7423 6.84685 12.9024 7.64685 13.4124L8.62683 14.0422C9.61683 14.6722 10.4469 15.5023 11.0769 16.4923L11.7069 17.4723C12.2169 18.2723 13.3768 18.2723 13.8868 17.4723L14.5168 16.4923C15.1468 15.5023 15.9769 14.6722 16.9669 14.0422L17.9469 13.4124C18.7469 12.9024 18.7469 11.7423 17.9469 11.2323L16.9669 10.6023C15.9769 9.97229 15.1468 9.14234 14.5168 8.15234ZM12.3469 8.95227L12.7969 8.24231L13.2468 8.95227C13.9968 10.1323 14.9869 11.1223 16.1669 11.8723L16.8768 12.3223L16.1669 12.7723C14.9869 13.5223 13.9968 14.5123 13.2468 15.6923L12.7969 16.4023L12.3469 15.6923C11.5969 14.5123 10.6069 13.5223 9.42688 12.7723L8.71692 12.3223L9.42688 11.8723C10.6069 11.1223 11.5969 10.1323 12.3469 8.95227Z" fill="currentColor" fill-rule="evenodd"></path></svg>