<svg xmlns="http://www.w3.org/2000/svg" width="24" height="24" viewBox="0 0 24 24" fill="none"><path d="M3 15V14H21V15C21 17.8284 21 19.2426 20.1213 20.1213C19.2426 21 17.8284 21 15 21H9C6.17157 21 4.75736 21 3.87868 20.1213C3 19.2426 3 17.8284 3 15Z" stroke="currentColor" stroke-linecap="round" stroke-linejoin="round" stroke-width="1.5" /><path d="M3 14L3.00001 12.9999C3.00003 11.5278 3.00004 10.7918 3.31675 10.1584C3.63347 9.52493 4.22231 9.08329 5.39999 8.20002C6.19297 7.60528 6.58946 7.30791 7.05132 7.15395C7.51317 7 8.00879 7 9.00002 7H15C15.9912 7 16.4868 7 16.9487 7.15395C17.4105 7.3079 17.807 7.60527 18.6 8.2C19.7777 9.08328 20.3666 9.52492 20.6833 10.1584C21 10.7918 21 11.5279 21 13V14H3Z" stroke="currentColor" stroke-linecap="round" stroke-linejoin="round" stroke-width="1.5" /><path d="M16 12V16" stroke="currentColor" stroke-linecap="round" stroke-linejoin="round" stroke-width="1.5" /><path d="M8 12V16" stroke="currentColor" stroke-linecap="round" stroke-linejoin="round" stroke-width="1.5" /><path d="M8.49997 7.00006V6.50006C8.49997 5.0956 8.49997 4.39337 8.83703 3.88892C8.98295 3.67054 9.17045 3.48304 9.38883 3.33712C9.89328 3.00006 10.5955 3.00006 12 3.00006C13.4044 3.00006 14.1067 3.00006 14.6111 3.33712C14.8295 3.48304 15.017 3.67054 15.1629 3.88892C15.5 4.39337 15.5 5.0956 15.5 6.50006V7.00006" stroke="currentColor" stroke-linecap="round" stroke-linejoin="round" stroke-width="1.5" /></svg>