<svg xmlns="http://www.w3.org/2000/svg" width="24" height="24" viewBox="0 0 24 24" fill="none"><path d="M20.0004 10.9826C20.6281 10.1316 21 9.07385 21 7.92761C21 5.11556 18.7614 2.83594 16 2.83594C14.0209 2.83594 12.3104 4.00687 11.5 5.70554" stroke="currentColor" stroke-linecap="round" stroke-linejoin="round" stroke-width="1.5" /><path d="M14.6364 21.1658H9.36364C6.67794 21.1658 5.33509 21.1658 4.40253 20.4549C4.13533 20.2512 3.89812 20.0096 3.69811 19.7375C3 18.7879 3 17.4204 3 14.6855C3 13.1226 3 12.3412 3.39892 11.7986C3.51321 11.6431 3.64876 11.505 3.80144 11.3887C4.33434 10.9824 5.10168 10.9824 6.63636 10.9824H17.3636C18.8983 10.9824 19.6657 10.9824 20.1986 11.3887C20.3512 11.505 20.4868 11.6431 20.6011 11.7986C21 12.3412 21 13.1226 21 14.6855C21 17.4204 21 18.7879 20.3019 19.7375C20.1019 20.0096 19.8647 20.2512 19.5975 20.4549C18.6649 21.1658 17.3221 21.1658 14.6364 21.1658Z" stroke="currentColor" stroke-linecap="round" stroke-linejoin="round" stroke-width="1.5" /><path d="M10 15.0547H14" stroke="currentColor" stroke-linecap="round" stroke-linejoin="round" stroke-width="1.5" /><path d="M13.6858 10.9826L13.335 10.1564C13.2474 9.94999 13.2565 9.71349 13.3595 9.51989L14.9144 6.59747C15.1776 6.10273 14.7982 5.48558 14.2636 5.53902L11.1099 5.85432C10.9004 5.87526 10.692 5.78776 10.5492 5.6189L8.39732 3.07491C8.03241 2.64349 7.37203 2.82539 7.26584 3.38656L6.63969 6.69573C6.59813 6.91538 6.46021 7.09827 6.26863 7.18779L3.38401 8.53572C2.89509 8.76418 2.86669 9.49366 3.33529 9.78682L5.24666 10.9826" stroke="currentColor" stroke-linecap="round" stroke-linejoin="round" stroke-width="1.5" /></svg>