<svg xmlns="http://www.w3.org/2000/svg" width="24" height="24" viewBox="0 0 24 24" fill="none" stroke-width="1.5" stroke-linecap="round" stroke-linejoin="round" color="currentColor"><circle cx="7" cy="18" r="2" stroke="currentColor"></circle><circle cx="17" cy="18" r="2" stroke="currentColor"></circle><path d="M2 4H13" stroke="currentColor"></path><path d="M6 8H8" stroke="currentColor"></path><path d="M15 12.5H15.5" stroke="currentColor"></path><path d="M3 4V16C3 16.465 3 16.6975 3.05111 16.8882C3.18981 17.4059 3.59413 17.8102 4.11177 17.9489C4.30252 18 4.53501 18 5 18M12 18V4" stroke="currentColor"></path><path d="M9 18H15" stroke="currentColor"></path><path d="M12 10H16.8604C18.2244 10 18.5541 10.2703 18.8216 11.6078C18.9188 12.0942 18.8372 12.466 19.3412 12.5064C20.1829 12.574 20.7739 13.1392 21.0909 13.8787C21.5458 14.9402 22 15.8324 22 17C22 17.4714 22 17.7071 21.8536 17.8536C21.7071 18 21.4714 18 21 18H19" stroke="currentColor"></path><path d="M16 10V7M16 7H15M16 7H17" stroke="currentColor"></path></svg>