<svg xmlns="http://www.w3.org/2000/svg" width="24" height="24" viewBox="0 0 24 24" fill="none" stroke-width="1.5" stroke-linecap="round" stroke-linejoin="round" color="currentColor"><circle cx="6.5" cy="16.5" r="4.5" stroke="currentColor"></circle><circle cx="19" cy="18" r="3" stroke="currentColor"></circle><path d="M2 10.4995C3.25349 9.55792 4.81159 9 6.5 9C10.6421 9 14 12.3579 14 16.5C14 16.596 13.9982 16.6915 13.9946 16.7866C13.9719 17.3913 13.9605 17.6937 14.1081 17.8469C14.2556 18 14.5282 18 15.0734 18H16" stroke="currentColor"></path><path d="M13 9L16.1057 9.58232C18.4466 10.0212 19.6171 10.2407 20.3085 11.0739C21 11.907 21 13.1047 21 15.5" stroke="currentColor"></path><path d="M20 12L19 12" stroke="currentColor"></path><path d="M13 12.5V9.58708C13 9.19778 12.9432 8.81056 12.8313 8.43768L11.5 3M4 9V3" stroke="currentColor"></path><path d="M3 3H13" stroke="currentColor"></path><path d="M18 9.5V8C18 6.89543 18.8954 6 20 6" stroke="currentColor"></path><path d="M7 9V3" stroke="currentColor"></path></svg>