<svg xmlns="http://www.w3.org/2000/svg" width="24" height="24" viewBox="0 0 24 24" fill="none" stroke-width="1.5" stroke-linecap="round" stroke-linejoin="round" color="currentColor"><path d="M1.25391 12C1.25391 17.928 6.07591 22.75 12.0039 22.75C17.9319 22.75 22.7539 17.928 22.7539 12C22.7539 6.072 17.9319 1.25 12.0039 1.25C6.07591 1.25 1.25391 6.072 1.25391 12ZM2.75391 12C2.75391 6.9 6.90391 2.75 12.0039 2.75C17.1039 2.75 21.2539 6.9 21.2539 12C21.2539 17.1 17.1039 21.25 12.0039 21.25C6.90391 21.25 2.75391 17.1 2.75391 12ZM7.76406 15.4945C7.76406 15.9085 8.10006 16.2445 8.51406 16.2445C8.92806 16.2445 9.26406 15.9085 9.26406 15.4945V10.2255H10.9941C11.4081 10.2255 11.7441 9.88947 11.7441 9.47547C11.7441 9.06147 11.4081 8.72547 10.9941 8.72547H5.99414C5.58014 8.72547 5.24414 9.06147 5.24414 9.47547C5.24414 9.88947 5.58014 10.2255 5.99414 10.2255H7.76406V15.4945ZM17.2641 15.4855C17.2641 15.8995 17.6001 16.2355 18.0141 16.2355H18.0151C18.4291 16.2355 18.7651 15.8995 18.7651 15.4855V9.47547C18.7651 9.14847 18.5521 8.85852 18.2401 8.76052C17.7571 8.60852 17.3051 8.84754 16.1381 9.87254C15.9101 10.0725 15.6911 10.2725 15.5051 10.4445C15.3191 10.2725 15.0991 10.0725 14.8721 9.87254C13.7051 8.84754 13.2531 8.60852 12.7701 8.76052C12.4571 8.85852 12.2451 9.14747 12.2451 9.47547V15.4855C12.2451 15.8995 12.5811 16.2355 12.9951 16.2355C13.4091 16.2355 13.7451 15.8995 13.7451 15.4855V10.8795C14.1371 11.2185 14.5891 11.6335 14.9821 12.0145C15.2731 12.2975 15.7361 12.2975 16.0271 12.0145C16.4191 11.6325 16.8721 11.2185 17.2641 10.8795V15.4855Z" fill="currentColor" fill-rule="evenodd"></path></svg>