<svg xmlns="http://www.w3.org/2000/svg" width="24" height="24" viewBox="0 0 24 24" fill="none" stroke-width="1.5" stroke-linecap="round" stroke-linejoin="round" color="currentColor"><path d="M22.0082 16.0723L22.0032 16.0722C22.411 16.0695 22.7482 15.7306 22.7482 15.3223V12.3223C22.7482 10.3023 22.7482 9.18232 21.9482 8.38232C21.8782 8.31232 21.8082 8.25232 21.7382 8.19232V8.1723L21.3882 6.39227C21.0582 4.74227 20.8682 3.83232 20.1082 3.19232C19.3482 2.57232 18.4082 2.57227 16.7182 2.57227H13.4782C11.7882 2.57227 10.8582 2.57232 10.0882 3.19232C9.43886 3.72202 9.19832 4.52179 8.97365 5.59787C8.16453 5.64634 7.59209 5.78658 7.08818 6.19232C6.4388 6.72208 6.19828 7.52195 5.97359 8.5982C5.05916 8.63624 4.4339 8.76518 3.89811 9.20227C3.13811 9.84227 2.9481 10.8123 2.6381 12.4023L2.27812 14.1823L2.27768 14.1845C2.2051 14.2416 2.13529 14.304 2.06787 14.3723C1.25787 15.1823 1.25781 16.2923 1.25781 18.3223V19.3223V21.3223C1.25781 21.7365 1.5936 22.0723 2.00781 22.0723H3.00781C3.42203 22.0723 3.75781 21.7365 3.75781 21.3223V20.0723H6.00781H12.0078H14.2578V21.3223C14.2578 21.7365 14.5936 22.0723 15.0078 22.0723H16.0078C16.422 22.0723 16.7578 21.7365 16.7578 21.3223V19.3223V18.3223C16.7578 16.2923 16.7578 15.1723 15.9578 14.3823C15.8903 14.3149 15.8208 14.2531 15.7489 14.1964L15.7481 14.1923L15.3881 12.4123C15.3655 12.2957 15.3436 12.1825 15.322 12.0726C16.8542 12.076 17.5699 12.114 17.8982 12.4423C18.2482 12.7923 18.2582 13.5723 18.2582 15.3223V18.3223C18.2582 18.7306 18.5955 19.0695 19.0032 19.0722L18.9982 19.0723H19.0082L19.0032 19.0722C19.411 19.0695 19.7482 18.7306 19.7482 18.3223V15.3223C19.7482 13.3023 19.7482 12.1823 18.9482 11.3823C18.8782 11.3123 18.8082 11.2523 18.7382 11.1923V11.1723L18.3882 9.39227C18.3663 9.28248 18.3449 9.17596 18.324 9.07257C19.8549 9.07604 20.57 9.11411 20.8982 9.44232C21.2482 9.79232 21.2582 10.5723 21.2582 12.3223V15.3223C21.2582 15.7306 21.5955 16.0695 22.0032 16.0722L21.9982 16.0723H22.0082ZM15.2578 18.5723V18.3223C15.2578 16.5823 15.2478 15.7923 14.8878 15.4423C14.5378 15.0823 13.7478 15.0623 12.0078 15.0623H6.00781C4.26781 15.0623 3.47781 15.0723 3.12781 15.4323C2.76781 15.7823 2.7478 16.5723 2.7478 18.3123V18.5623L2.75781 18.5723H3.00781H5.69715L6.47748 17.7919C6.61813 17.6513 6.8089 17.5723 7.00781 17.5723H11.0078C11.2067 17.5723 11.3975 17.6513 11.5381 17.7919L12.3185 18.5723H15.0078H15.2578ZM18.0082 7.57227H17.9633C17.772 6.97835 17.5264 6.54447 17.1082 6.19232C16.3482 5.57232 15.4082 5.57227 13.7182 5.57227H10.519C10.6766 4.89728 10.8123 4.53449 11.0382 4.35229C11.3782 4.08229 12.0282 4.07227 13.4782 4.07227H16.7182C18.1682 4.07227 18.8282 4.09229 19.1482 4.35229C19.4882 4.64229 19.6283 5.27232 19.9183 6.69232L20.1082 7.63232C19.5382 7.57232 18.8482 7.57227 18.0082 7.57227ZM14.9663 10.5723H15.0082C15.8482 10.5723 16.5382 10.5723 17.1082 10.6323L16.9183 9.69232C16.6283 8.27232 16.4882 7.64229 16.1482 7.35229C15.8282 7.09229 15.1682 7.07227 13.7182 7.07227H10.4782C9.02819 7.07227 8.37825 7.08229 8.03825 7.35229C7.81121 7.53539 7.67531 7.90086 7.51669 8.58228H10.7281H10.7281C12.4181 8.58228 13.3581 8.58228 14.1181 9.20227C14.5324 9.55203 14.7788 9.99156 14.9663 10.5723ZM13.9181 12.6923L14.1079 13.6306C13.5373 13.5723 12.8521 13.5723 12.0078 13.5723H6.00781C5.16957 13.5723 4.4865 13.5723 3.91776 13.6286L4.10807 12.6823C4.37807 11.3123 4.51807 10.6323 4.85807 10.3523C5.17807 10.0823 5.83813 10.0723 7.28813 10.0723H10.7281C12.1781 10.0723 12.8381 10.0923 13.1581 10.3523C13.5081 10.6323 13.6481 11.3123 13.9181 12.6923Z" fill="currentColor" fill-rule="evenodd"></path></svg>