<svg xmlns="http://www.w3.org/2000/svg" width="24" height="24" viewBox="0 0 24 24" fill="none" stroke-width="1.5" stroke-linecap="round" stroke-linejoin="round" color="currentColor"><path d="M22.7497 14.3025V13.3323C22.7497 11.3023 22.7497 10.1823 21.9497 9.39227C21.8797 9.32227 21.8097 9.26227 21.7397 9.20227V9.1723L21.3797 7.40228C21.0697 5.80228 20.8797 4.84232 20.1097 4.19232C19.3497 3.57232 18.4097 3.57227 16.7197 3.57227H13.0797C11.3897 3.57227 10.4497 3.57232 9.68968 4.19232C8.92968 4.83232 8.7398 5.79232 8.4298 7.38232L8.38877 7.58228H7.28031H7.28028C5.5903 7.58228 4.65029 7.58228 3.8903 8.20227C3.1303 8.84227 2.94029 9.81228 2.63029 11.4023L2.2703 13.1823L2.26815 13.1935C2.19619 13.251 2.12694 13.3137 2.06006 13.3823C1.25006 14.1823 1.25 15.2923 1.25 17.3223V18.3223V20.3223C1.25 20.7365 1.58579 21.0723 2 21.0723H3C3.41421 21.0723 3.75 20.7365 3.75 20.3223V19.0723H6H12H14.25V20.3223C14.25 20.7365 14.5858 21.0723 15 21.0723H16C16.4142 21.0723 16.75 20.7365 16.75 20.3223V18.3223V17.3223C16.75 16.4039 16.75 15.6718 16.6759 15.0723H20.25V16.3223C20.25 16.7365 20.5858 17.0723 21 17.0723H22C22.4142 17.0723 22.75 16.7365 22.75 16.3223V14.3223L22.7497 14.3025ZM15.25 17.5723H15H12.3107L11.5303 16.7919C11.3897 16.6513 11.1989 16.5723 11 16.5723H7C6.80109 16.5723 6.61032 16.6513 6.46967 16.7919L5.68934 17.5723H3H2.75H2.73999V17.3223C2.73999 15.5823 2.76 14.7923 3.12 14.4423C3.47 14.0823 4.26 14.0723 6 14.0723H12C13.74 14.0723 14.53 14.0823 14.88 14.4423C15.24 14.7923 15.25 15.5823 15.25 17.3223V17.5723ZM3.9098 12.6293C4.47857 12.5723 5.16169 12.5723 6 12.5723H12C12.8443 12.5723 13.5295 12.5723 14.1001 12.6306L13.9103 11.6923C13.6403 10.3123 13.5003 9.6323 13.1503 9.35229C12.8303 9.09229 12.1703 9.07227 10.7203 9.07227H7.28031C5.83031 9.07227 5.17026 9.08229 4.85026 9.35229C4.51026 9.6323 4.37026 10.3123 4.10026 11.6823L3.9098 12.6293ZM15.7432 13.1981C15.8144 13.2543 15.8832 13.3156 15.95 13.3823C16.012 13.4436 16.0692 13.5068 16.122 13.5723H21H21.2497V13.3223C21.2497 11.5823 21.2397 10.7923 20.8797 10.4423C20.5297 10.0823 19.7397 10.0723 17.9997 10.0723H15.0991C15.1957 10.4616 15.2819 10.9047 15.3803 11.4123L15.7403 13.1823L15.7432 13.1981ZM14.4645 8.57311C14.4762 8.57255 14.4879 8.57227 14.4997 8.57227H17.9997C18.8397 8.57227 19.5197 8.57232 20.0897 8.63232L19.8998 7.69232C19.6298 6.31232 19.4898 5.63229 19.1398 5.35229C18.8198 5.09229 18.1597 5.07227 16.7097 5.07227H13.0697C11.6197 5.07227 10.9598 5.08229 10.6398 5.35229C10.3081 5.62539 10.1668 6.27904 9.90949 7.58228H10.7203H10.7203C12.4103 7.58228 13.3503 7.58228 14.1103 8.20227C14.2448 8.31583 14.3616 8.43886 14.4645 8.57311ZM18.75 11.8323C18.75 12.2423 19.09 12.5823 19.5 12.5823V12.5923C19.91 12.5923 20.25 12.2523 20.25 11.8323C20.25 11.4123 19.91 11.0823 19.5 11.0823C19.09 11.0823 18.75 11.4223 18.75 11.8323Z" fill="currentColor" fill-rule="evenodd"></path></svg>