<svg xmlns="http://www.w3.org/2000/svg" width="24" height="24" viewBox="0 0 24 24" fill="none"><path d="M13.9248 3.97827C13.2978 3.32609 12.6956 3 12 3C11.3044 3 10.7022 3.32609 10.0752 3.97827M16.3534 7.5C16.5886 7.89214 16.8364 8.30992 17.0994 8.75332L17.5423 9.5M7.64658 7.5C7.41137 7.89215 7.16357 8.30992 6.90057 8.75333L6.45769 9.5M19.3216 12.5C19.7565 13.2343 20.1465 13.8974 20.4854 14.5M4.6784 12.5C4.24346 13.2343 3.8535 13.8974 3.51458 14.5M21.9695 18C22.0492 18.5659 21.9745 19.0511 21.7236 19.4939C21.3899 20.0831 20.8323 20.4418 20 20.6602M2.0305 18C1.95078 18.5659 2.0255 19.0511 2.27636 19.4939C2.61013 20.0831 3.16765 20.4418 4 20.6602M16 20.9936C15.388 20.9998 14.7224 21 14 21M10 21C9.27757 21 8.612 20.9998 8 20.9936" stroke="currentColor" stroke-linecap="round" stroke-linejoin="round" stroke-width="1.5" /></svg>