<svg xmlns="http://www.w3.org/2000/svg" width="24" height="24" viewBox="0 0 24 24" fill="none" stroke-width="1.5" stroke-linecap="round" stroke-linejoin="round" color="currentColor"><path d="M12 21C12 17.6863 14.6863 15 18 15" stroke="currentColor"></path><path d="M12 21C12 17.6863 9.31371 15 6 15" stroke="currentColor"></path><path d="M12 13V22" stroke="currentColor"></path><path d="M12 13C14.7614 13 17 10.7614 17 8V4C14.2386 4 12 6.23858 12 9" stroke="currentColor"></path><path d="M14.5 4.5C14 3 12 2 12 2C12 2 10 3 9.5 4.5" stroke="currentColor"></path><path d="M12 13C9.23858 13 7 10.7614 7 8V4C8.36273 4 9.59812 4.54516 10.5 5.42928" stroke="currentColor"></path></svg>