<svg xmlns="http://www.w3.org/2000/svg" width="24" height="24" viewBox="0 0 24 24" fill="none" stroke-width="1.5" stroke-linecap="round" stroke-linejoin="round" color="currentColor"><path d="M2 14C2 10.2288 2 8.34315 3.17157 7.17157C4.34315 6 6.22876 6 10 6H14C17.7712 6 19.6569 6 20.8284 7.17157C22 8.34315 22 10.2288 22 14C22 17.7712 22 19.6569 20.8284 20.8284C19.6569 22 17.7712 22 14 22H10C6.22876 22 4.34315 22 3.17157 20.8284C2 19.6569 2 17.7712 2 14Z" stroke="currentColor"></path><path d="M13.3333 12.6665L10.6667 15.3333M13.3333 12.6665C14.0697 13.4029 15.2636 13.4032 16 12.6668M13.3333 12.6665C12.597 11.9301 12.597 10.7364 13.3333 10M10.6667 15.3333C11.4031 16.0698 11.403 17.2636 10.6667 18M10.6667 15.3333C9.93031 14.5969 8.73638 14.5968 8 15.3332" stroke="currentColor"></path><path d="M9 3L12 6L16 2" stroke="currentColor"></path></svg>