<svg xmlns="http://www.w3.org/2000/svg" width="24" height="24" viewBox="0 0 24 24" fill="none"><path d="M22 12C22 6.47715 17.5228 2 12 2C6.47715 2 2 6.47715 2 12C2 16.4292 4.87962 20.1859 8.86884 21.5M9 14L12 12V6.66702" stroke="currentColor" stroke-linecap="round" stroke-linejoin="round" stroke-width="1.5" /><path d="M13 16H15C15.5523 16 16 16.4477 16 17V18C16 18.5523 15.5523 19 15 19H14C13.4477 19 13 19.4477 13 20V21C13 21.5523 13.4477 22 14 22H16" stroke="currentColor" stroke-linecap="round" stroke-linejoin="round" stroke-width="1.5" /><path d="M22 16V19M22 19H20C19.4477 19 19 18.5523 19 18V16M22 19V22" stroke="currentColor" stroke-linecap="round" stroke-linejoin="round" stroke-width="1.5" /></svg>