<svg xmlns="http://www.w3.org/2000/svg" width="24" height="24" viewBox="0 0 24 24" fill="none" stroke-width="1.5" stroke-linecap="round" stroke-linejoin="round" color="currentColor"><path d="M3.5 13V12.1963C3.5 9.22892 3.5 7.74523 3.96894 6.56024C4.72281 4.65521 6.31714 3.15255 8.33836 2.44201C9.59563 2.00003 11.1698 2.00003 14.3182 2.00003C16.1173 2.00003 17.0168 2.00003 17.7352 2.25259C18.8902 2.65861 19.8012 3.51728 20.232 4.60587C20.5 5.283 20.5 6.13082 20.5 7.82646V12.0142V13" stroke="currentColor"></path><path d="M3.5 12C3.5 10.1591 4.99238 8.66667 6.83333 8.66667C7.49912 8.66667 8.28404 8.78333 8.93137 8.60988C9.50652 8.45576 9.95576 8.00652 10.1099 7.43136C10.2833 6.78404 10.1667 5.99912 10.1667 5.33333C10.1667 3.49238 11.6591 2 13.5 2" stroke="currentColor"></path><path d="M11 16H8.5M6 16H8.5M8.5 16V22" stroke="currentColor"></path><path d="M18 16H15.3C14.582 16 14 16.582 14 17.3V17.7C14 18.418 14.582 19 15.3 19H16.7C17.418 19 18 19.582 18 20.3V20.7C18 21.418 17.418 22 16.7 22H14" stroke="currentColor"></path></svg>