<svg xmlns="http://www.w3.org/2000/svg" width="24" height="24" viewBox="0 0 24 24" fill="none"><path d="M12 3.5V2" stroke="currentColor" stroke-linecap="round" stroke-linejoin="round" stroke-width="1.5" /><path d="M12 3.5C12.9392 3.5 16.4721 7.29322 17.0282 12.2037C18.1073 12.4691 20.6123 12.7 22 11.5C21.0545 6.93552 16.9367 3.5 12 3.5ZM12 3.5C10.9388 3.5 9.91547 3.65875 8.95333 3.95333M12 3.5C11.6353 3.5 10.8796 4.07187 10.059 5.05896M6.97182 12.2037C8.4559 13.0288 10.1718 13.5 12 13.5C12.477 13.5 12.9463 13.4679 13.4059 13.4059M6.97182 12.2037C5.89285 12.4691 3.38792 12.7 2 11.5C2.4868 9.14983 3.81462 7.09895 5.6622 5.6622M6.97182 12.2037C7.13968 10.7214 7.57878 9.34095 8.1359 8.1359" stroke="currentColor" stroke-linecap="round" stroke-linejoin="round" stroke-width="1.5" /><path d="M12 13.5V20.5C12 21.3284 11.3284 22 10.5 22C9.67157 22 9 21.3284 9 20.5V20" stroke="currentColor" stroke-linecap="round" stroke-linejoin="round" stroke-width="1.5" /><path d="M2 2L22 22" stroke="currentColor" stroke-linecap="round" stroke-linejoin="round" stroke-width="1.5" /></svg>