<svg xmlns="http://www.w3.org/2000/svg" width="24" height="24" viewBox="0 0 24 24" fill="none" stroke-width="1.5" stroke-linecap="round" stroke-linejoin="round" color="currentColor"><path d="M21 7H3V13C3 16.7712 3 18.6569 4.17157 19.8284C5.34315 21 7.22876 21 11 21H13C16.7712 21 18.6569 21 19.8284 19.8284C21 18.6569 21 16.7712 21 13V7Z" fill="none"></path><path d="M21 7H3L4.2 5.4C5.08328 4.22229 5.52492 3.63344 6.15836 3.31672C6.7918 3 7.52786 3 9 3H15C16.4721 3 17.2082 3 17.8416 3.31672C18.4751 3.63344 18.9167 4.22229 19.8 5.4L21 7Z" fill="none"></path><path d="M12 11L12 17.5M9 13.5C9.58984 12.8932 11.1597 10.5 12 10.5C12.8403 10.5 14.4102 12.8932 15 13.5" fill="none"></path></svg>