<svg xmlns="http://www.w3.org/2000/svg" width="24" height="24" viewBox="0 0 24 24" fill="none" stroke-width="1.5" stroke-linecap="round" stroke-linejoin="round" color="currentColor"><path d="M14.9922 7.54862H4.14219C4.56219 7.08862 5.31219 6.52862 6.30219 5.77862L7.45219 4.89863C7.78219 4.64863 7.84219 4.17863 7.59219 3.84863C7.34219 3.51863 6.87219 3.45863 6.54219 3.70863L5.39219 4.58862C3.36219 6.12862 2.24219 6.96862 2.24219 8.30862C2.24219 9.64862 3.36219 10.4886 5.38219 12.0286L6.53219 12.9086C6.67219 13.0086 6.83219 13.0586 6.99219 13.0586C7.22219 13.0586 7.44219 12.9586 7.59219 12.7686C7.84219 12.4386 7.78219 11.9686 7.45219 11.7186L6.30219 10.8386C5.31219 10.0886 4.57219 9.52863 4.15219 9.06863H15.0022C17.8922 9.06863 20.2522 11.4186 20.2522 14.3186C20.2522 17.2186 17.8922 19.5686 15.0022 19.5686H11.0022C10.5922 19.5686 10.2522 19.9086 10.2522 20.3186C10.2522 20.7286 10.5922 21.0686 11.0022 21.0686H15.0022C18.7222 21.0686 21.7522 18.0386 21.7522 14.3186C21.7522 10.5986 18.7222 7.56863 15.0022 7.56863L14.9922 7.54862Z" fill="currentColor"></path></svg>