<svg xmlns="http://www.w3.org/2000/svg" width="24" height="24" viewBox="0 0 24 24" fill="none" stroke-width="1.5" stroke-linecap="round" stroke-linejoin="round" color="currentColor"><path d="M11.9883 2.55664C8.68828 2.55664 5.61828 4.25664 3.81828 7.01664C3.73828 6.45664 3.73828 5.66664 3.73828 4.59664V3.31664C3.73828 2.90664 3.39828 2.56664 2.98828 2.56664C2.57828 2.56664 2.23828 2.90664 2.23828 3.31664V4.59664C2.23828 6.94664 2.23828 8.23664 3.21828 9.05664C3.69828 9.46664 4.26828 9.61664 4.99828 9.61664C5.72828 9.61664 6.61828 9.46664 7.77828 9.27664L9.11828 9.05664C9.52828 8.98664 9.80828 8.60664 9.73828 8.19664C9.66828 7.78664 9.28828 7.51664 8.87828 7.57664L7.53828 7.79664C6.35828 7.99664 5.48828 8.13664 4.90828 8.11664C6.39828 5.61664 9.09828 4.06664 12.0083 4.06664C16.5583 4.06664 20.2583 7.76664 20.2583 12.3166C20.2583 16.8666 16.5583 20.5666 12.0083 20.5666C11.5983 20.5666 11.2583 20.9066 11.2583 21.3166C11.2583 21.7266 11.5983 22.0666 12.0083 22.0666C17.3883 22.0666 21.7583 17.6966 21.7583 12.3166C21.7583 6.93664 17.3683 2.55664 11.9883 2.55664Z" fill="currentColor"></path></svg>