<svg xmlns="http://www.w3.org/2000/svg" width="24" height="24" viewBox="0 0 24 24" fill="none" stroke-width="1.5" stroke-linecap="round" stroke-linejoin="round" color="currentColor"><path d="M12.7578 21.7948C7.37781 21.7948 3.00781 17.4248 3.00781 12.0448C3.00781 11.6348 3.34781 11.2948 3.75781 11.2948C4.16781 11.2948 4.50781 11.6348 4.50781 12.0448C4.50781 16.5948 8.20781 20.2948 12.7578 20.2948C17.3078 20.2948 21.0078 16.5948 21.0078 12.0448C21.0078 7.49479 17.3078 3.79479 12.7578 3.79479C10.0578 3.79479 7.55781 5.09479 6.00781 7.29479C6.35781 7.29479 6.82781 7.24493 7.43781 7.18493L9.47781 6.97472C9.87781 6.92472 10.2578 7.23489 10.2978 7.64489C10.3378 8.05489 10.0378 8.42471 9.62781 8.46471L7.58781 8.67492C6.05781 8.82492 5.14781 8.9148 4.40781 8.3048C3.68781 7.6748 3.61781 6.7749 3.47781 5.1549L3.29781 3.11486C3.25781 2.70486 3.56781 2.3348 3.97781 2.3048C4.38781 2.2748 4.75781 2.57473 4.78781 2.98473L4.96781 5.03478C4.99781 5.42478 5.02781 5.7648 5.05781 6.0548C6.90781 3.6848 9.71781 2.3048 12.7478 2.3048C18.1278 2.3048 22.4978 6.6748 22.4978 12.0548C22.4978 17.4348 18.1278 21.8048 12.7478 21.8048L12.7578 21.7948Z" fill="currentColor"></path></svg>