<svg xmlns="http://www.w3.org/2000/svg" width="24" height="24" viewBox="0 0 24 24" fill="none"><path d="M10.3483 10H13.6517C15.6822 10 16.6974 10 16.9501 9.39139C17.2028 8.78277 16.4849 8.06648 15.0491 6.63391L13.3974 4.9859L13.3974 4.9859C12.7387 4.32863 12.4093 4 12 4C11.5907 4 11.2613 4.32864 10.6026 4.9859L8.95091 6.63391L8.95091 6.63391C7.51513 8.06649 6.79724 8.78277 7.0499 9.39139C7.30256 10 8.31781 10 10.3483 10Z" stroke="currentColor" stroke-linecap="round" stroke-linejoin="round" stroke-width="1.5" /><path d="M10.3483 14H13.6517C15.6822 14 16.6974 14 16.9501 14.6086C17.2028 15.2172 16.4849 15.9335 15.0491 17.3661L13.3974 19.0141C12.7387 19.6714 12.4093 20 12 20C11.5907 20 11.2613 19.6714 10.6026 19.0141L8.95091 17.3661C7.51513 15.9335 6.79724 15.2172 7.0499 14.6086C7.30256 14 8.31781 14 10.3483 14Z" stroke="currentColor" stroke-linecap="round" stroke-linejoin="round" stroke-width="1.5" /></svg>