<svg xmlns="http://www.w3.org/2000/svg" width="24" height="24" viewBox="0 0 24 24" fill="none"><path d="M10.5 10H7.5C6.56936 10 6.10404 10 5.72746 9.87764C4.96636 9.63035 4.36965 9.03364 4.12236 8.27254C4 7.89596 4 7.43064 4 6.5C4 5.56936 4 5.10404 4.12236 4.72746C4.36965 3.96636 4.96636 3.36965 5.72746 3.12236C6.10404 3 6.56936 3 7.5 3H10.5C11.4306 3 11.896 3 12.2725 3.12236C13.0336 3.36965 13.6303 3.96636 13.8776 4.72746C14 5.10404 14 5.56936 14 6.5C14 7.43064 14 7.89596 13.8776 8.27254C13.6303 9.03364 13.0336 9.63035 12.2725 9.87764C11.896 10 11.4306 10 10.5 10Z" stroke="currentColor" stroke-linecap="round" stroke-linejoin="round" stroke-width="1.5" /><path d="M16.5 21H13.5C12.5694 21 12.104 21 11.7275 20.8776C10.9664 20.6303 10.3697 20.0336 10.1224 19.2725C10 18.896 10 18.4306 10 17.5C10 16.5694 10 16.104 10.1224 15.7275C10.3697 14.9664 10.9664 14.3697 11.7275 14.1224C12.104 14 12.5694 14 13.5 14H16.5C17.4306 14 17.896 14 18.2725 14.1224C19.0336 14.3697 19.6303 14.9664 19.8776 15.7275C20 16.104 20 16.5694 20 17.5C20 18.4306 20 18.896 19.8776 19.2725C19.6303 20.0336 19.0336 20.6303 18.2725 20.8776C17.896 21 17.4306 21 16.5 21Z" stroke="currentColor" stroke-linecap="round" stroke-linejoin="round" stroke-width="1.5" /></svg>