<svg xmlns="http://www.w3.org/2000/svg" width="24" height="24" viewBox="0 0 24 24" fill="none"><circle cx="12" cy="12" r="10" stroke="currentColor" stroke-linecap="round" stroke-linejoin="round" stroke-width="1.5" /><path d="M12 7.5C12.4142 7.5 12.75 7.16421 12.75 6.75C12.75 6.33579 12.4142 6 12 6M12 7.5C11.5858 7.5 11.25 7.16421 11.25 6.75C11.25 6.33579 11.5858 6 12 6M12 7.5V6" stroke="currentColor" stroke-linecap="round" stroke-linejoin="round" stroke-width="1.5" /><path d="M16 9C14.9691 9.61859 13.5573 10 12 10C10.4427 10 9.03086 9.61859 8 9" stroke="currentColor" stroke-linecap="round" stroke-linejoin="round" stroke-width="1.5" /><path d="M13 14L14 18M13 14V10M13 14H12M10 18L11 14M11 14V10M11 14H12M12 14V10" stroke="currentColor" stroke-linecap="round" stroke-linejoin="round" stroke-width="1.5" /></svg>