<svg xmlns="http://www.w3.org/2000/svg" width="24" height="24" viewBox="0 0 24 24" fill="none" stroke-width="1.5" stroke-linecap="round" stroke-linejoin="round" color="currentColor"><path d="M1.25 12.0625C1.25 17.9925 6.07 22.8125 12 22.8125C17.93 22.8125 22.7501 17.9925 22.7501 12.0625C22.7501 6.1325 17.93 1.3125 12 1.3125C6.07 1.3125 1.25 6.1325 1.25 12.0625ZM2.75 12.0625C2.75 6.9625 6.9 2.8125 12 2.8125C17.1 2.8125 21.2501 6.9625 21.2501 12.0625C21.2501 17.1625 17.1 21.3125 12 21.3125C6.9 21.3125 2.75 17.1625 2.75 12.0625ZM13.5 6.8125C13.5 7.64093 12.8284 8.3125 12 8.3125C11.1716 8.3125 10.5 7.64093 10.5 6.8125C10.5 5.98407 11.1716 5.3125 12 5.3125C12.8284 5.3125 13.5 5.98407 13.5 6.8125ZM10.2403 10.6578C9.26427 10.4817 8.36291 10.1582 7.60976 9.70253C7.25976 9.49253 7.13981 9.0325 7.34981 8.6725C7.55981 8.3125 8.01978 8.20249 8.37978 8.41249C9.33978 8.99249 10.6198 9.30251 11.9898 9.30251C13.3598 9.30251 14.6498 8.98249 15.5998 8.41249C15.9498 8.20249 16.4198 8.3125 16.6298 8.6725C16.8398 9.0225 16.7298 9.49253 16.3698 9.70253C15.6158 10.1524 14.7173 10.4778 13.7403 10.6559V13.9725L14.7204 17.8824C14.8204 18.2824 14.5803 18.6925 14.1703 18.7925C14.1131 18.8116 14.0558 18.8125 13.9986 18.8125C13.6593 18.8117 13.3602 18.582 13.2703 18.2426L12.4104 14.8125H11.5803L10.7204 18.2426C10.6204 18.6426 10.2103 18.8925 9.81032 18.7925C9.41032 18.6925 9.16033 18.2824 9.26033 17.8824L10.2403 13.9725V10.6578ZM13.9986 18.8125C13.9958 18.8125 13.9931 18.8125 13.9903 18.8125H14.0003C13.9997 18.8125 13.9992 18.8125 13.9986 18.8125Z" fill="currentColor" fill-rule="evenodd"></path></svg>