<svg xmlns="http://www.w3.org/2000/svg" width="24" height="24" viewBox="0 0 24 24" fill="none" stroke-width="1.5" stroke-linecap="round" stroke-linejoin="round" color="currentColor"><path d="M12.0059 7.3125C10.7659 7.3125 9.75587 6.3025 9.75587 5.0625C9.75587 3.8225 10.7659 2.8125 12.0059 2.8125C13.2459 2.8125 14.2559 3.8225 14.2559 5.0625C14.2559 6.3025 13.2459 7.3125 12.0059 7.3125ZM12.0059 4.3125C11.5959 4.3125 11.2559 4.6525 11.2559 5.0625C11.2559 5.4725 11.5959 5.8125 12.0059 5.8125C12.4159 5.8125 12.7559 5.4725 12.7559 5.0625C12.7559 4.6525 12.4159 4.3125 12.0059 4.3125ZM12.0066 9.81244L11.9966 9.81244C12.2481 9.81222 12.4982 9.80386 12.7464 9.7875V13.8125H11.2464V9.78715C11.4947 9.80373 11.7449 9.81222 11.9966 9.81244L11.9866 9.81244H12.0066ZM9.74638 9.58421C8.17641 9.26075 6.73079 8.60092 5.53661 7.65241C5.21661 7.39241 5.15662 6.92248 5.41662 6.60248C5.67662 6.28248 6.14661 6.23248 6.46661 6.48248C7.94661 7.66248 9.90657 8.32245 11.9966 8.32245C14.0866 8.32245 16.0465 7.67248 17.5265 6.48248C17.8465 6.22248 18.3166 6.27248 18.5766 6.60248C18.8366 6.92248 18.7866 7.40241 18.4566 7.65241C17.2686 8.60826 15.8196 9.26579 14.2464 9.58679V14.5024L15.2364 20.4425C15.3064 20.8525 15.0264 21.2425 14.6164 21.3025C14.5964 21.3025 14.5764 21.305 14.5564 21.3075C14.5374 21.3099 14.5185 21.3122 14.4996 21.3125C14.1424 21.3092 13.826 21.0502 13.7664 20.6825L12.8664 15.3125H11.1364L10.2364 20.6825C10.1664 21.0925 9.77638 21.3625 9.37638 21.3025C8.96638 21.2325 8.69639 20.8525 8.75639 20.4425L9.74638 14.5024V9.58421ZM14.4996 21.3125C14.4985 21.3125 14.4974 21.3125 14.4964 21.3125H14.5064C14.5041 21.3125 14.5019 21.3125 14.4996 21.3125Z" fill="currentColor" fill-rule="evenodd"></path></svg>