<svg xmlns="http://www.w3.org/2000/svg" width="24" height="24" viewBox="0 0 24 24" fill="none"><path d="M16 10C17.4001 10 18.1002 10 18.635 10.2725C19.1054 10.5122 19.4878 10.8946 19.7275 11.365C20 11.8998 20 12.5999 20 14V17C20 19.357 20 20.5355 19.2678 21.2678C18.5355 22 17.357 22 15 22H9C6.64298 22 5.46447 22 4.73223 21.2678C4 20.5355 4 19.357 4 17V14C4 12.5999 4 11.8998 4.27248 11.365C4.51217 10.8946 4.89462 10.5122 5.36502 10.2725C5.8998 10 6.59987 10 8 10" stroke="currentColor" stroke-linecap="round" stroke-linejoin="round" stroke-width="1.5" /><path d="M12 16V4" stroke="currentColor" stroke-linecap="round" stroke-linejoin="round" stroke-width="1.5" /><path d="M15 5.99998C15 5.99998 12.7905 3.00001 12 3C11.2094 2.99999 9 6 9 6" stroke="currentColor" stroke-linecap="round" stroke-linejoin="round" stroke-width="1.5" /></svg>