<svg xmlns="http://www.w3.org/2000/svg" width="24" height="24" viewBox="0 0 24 24" fill="none"><path d="M2.50006 13.5V6.5H21.5001V13.5C21.5001 17.2712 21.5001 19.1569 20.3285 20.3284C19.1569 21.5 17.2713 21.5 13.5001 21.5H10.5001C6.72883 21.5 4.84321 21.5 3.67163 20.3284C2.50006 19.1569 2.50006 17.2712 2.50006 13.5Z" stroke="currentColor" stroke-linecap="round" stroke-linejoin="round" stroke-width="1.5" /><path d="M2.50006 6.5L3.10006 5.7C4.27777 4.12972 4.86662 3.34458 5.71121 2.92229C6.55579 2.5 7.53721 2.5 9.50006 2.5H14.5001C16.4629 2.5 17.4443 2.5 18.2889 2.92229C19.1335 3.34458 19.7224 4.12972 20.9001 5.7L21.5001 6.5" stroke="currentColor" stroke-linecap="round" stroke-linejoin="round" stroke-width="1.5" /><path d="M15.0001 13.5C15.0001 13.5 12.7906 10.5 12 10.5C11.2095 10.5 9.00006 13.5 9.00006 13.5M12 11L12.0001 17.5" stroke="currentColor" stroke-linecap="round" stroke-linejoin="round" stroke-width="1.5" /></svg>