<svg xmlns="http://www.w3.org/2000/svg" width="24" height="24" viewBox="0 0 24 24" fill="none" stroke-width="1.5" stroke-linecap="round" stroke-linejoin="round" color="currentColor"><path d="M14.5 8C14.5 5.23858 12.2614 3 9.5 3C6.73858 3 4.5 5.23858 4.5 8C4.5 10.7614 6.73858 13 9.5 13C12.2614 13 14.5 10.7614 14.5 8Z" fill="none"></path><path d="M2.5 20C2.5 16.134 5.63401 13 9.5 13C10.775 13 11.9704 13.3409 13 13.9365" fill="none"></path><path d="M15.5 14.8462C15.5 13.8266 16.3954 13 17.5 13C18.6046 13 19.5 13.8266 19.5 14.8462C19.5 15.2137 19.3837 15.5561 19.1831 15.8438C18.5854 16.7012 17.5 17.0189 17.5 18.0385V18.5M17.4902 21H17.4992" fill="none"></path></svg>