<svg xmlns="http://www.w3.org/2000/svg" width="24" height="24" viewBox="0 0 24 24" fill="none" stroke-width="1.5" stroke-linecap="round" stroke-linejoin="round" color="currentColor"><path d="M5.08069 15.2964C3.86241 16.0335 0.668175 17.5386 2.61368 19.422C3.56404 20.342 4.62251 21 5.95325 21H13.5468C14.8775 21 15.936 20.342 16.8863 19.422C18.8318 17.5386 15.6376 16.0335 14.4193 15.2964C11.5625 13.5679 7.93752 13.5679 5.08069 15.2964Z" stroke="currentColor"></path><path d="M13.5 7C13.5 9.20914 11.7091 11 9.5 11C7.29086 11 5.5 9.20914 5.5 7C5.5 4.79086 7.29086 3 9.5 3C11.7091 3 13.5 4.79086 13.5 7Z" stroke="currentColor"></path><path d="M17 5L22 5" stroke="currentColor"></path><path d="M17 8L22 8" stroke="currentColor"></path><path d="M20 11L22 11" stroke="currentColor"></path></svg>