<svg xmlns="http://www.w3.org/2000/svg" width="24" height="24" viewBox="0 0 24 24" fill="none" stroke-width="1.5" stroke-linecap="round" stroke-linejoin="round" color="currentColor"><path d="M14.5 8C14.5 5.23858 12.2614 3 9.5 3C6.73858 3 4.5 5.23858 4.5 8C4.5 10.7614 6.73858 13 9.5 13C12.2614 13 14.5 10.7614 14.5 8Z" fill="none"></path><path d="M2.5 20C2.5 16.134 5.63401 13 9.5 13C10.5736 13 11.5907 13.2417 12.5 13.6736" fill="none"></path><path d="M19 18L18 17.5V16M21.5 17.5C21.5 19.433 19.933 21 18 21C16.067 21 14.5 19.433 14.5 17.5C14.5 15.567 16.067 14 18 14C19.933 14 21.5 15.567 21.5 17.5Z" fill="none"></path></svg>