<svg xmlns="http://www.w3.org/2000/svg" width="24" height="24" viewBox="0 0 24 24" fill="none" stroke-width="1.5" stroke-linecap="round" stroke-linejoin="round" color="currentColor"><path d="M17 15.8462C17 14.8266 17.8954 14 19 14C20.1046 14 21 14.8266 21 15.8462C21 16.2137 20.8837 16.5561 20.6831 16.8438C20.0854 17.7012 19 18.5189 19 19.5385V20M18.9902 22H18.9992" stroke="currentColor"></path><path d="M16 22H6.59087C5.04549 22 3.81631 21.248 2.71266 20.1966C0.453365 18.0441 4.1628 16.324 5.57757 15.4816C8.12805 13.9629 11.2057 13.6118 14 14.4281" stroke="currentColor"></path><path d="M16.5 6.5C16.5 8.98528 14.4853 11 12 11C9.51472 11 7.5 8.98528 7.5 6.5C7.5 4.01472 9.51472 2 12 2C14.4853 2 16.5 4.01472 16.5 6.5Z" stroke="currentColor"></path></svg>