<svg xmlns="http://www.w3.org/2000/svg" width="24" height="24" viewBox="0 0 24 24" fill="none" stroke-width="1.5" stroke-linecap="round" stroke-linejoin="round" color="currentColor"><path d="M14 18C14 18 15 18 16 20C16 20 19.1765 15 22 14" stroke="currentColor"></path><path d="M13 22H6.59087C5.04549 22 3.81631 21.248 2.71266 20.1966C0.453365 18.0441 4.1628 16.324 5.57757 15.4816C8.75591 13.5891 12.7529 13.5096 16 15.2432" stroke="currentColor"></path><path d="M16.5 6.5C16.5 8.98528 14.4853 11 12 11C9.51472 11 7.5 8.98528 7.5 6.5C7.5 4.01472 9.51472 2 12 2C14.4853 2 16.5 4.01472 16.5 6.5Z" stroke="currentColor"></path></svg>