<svg xmlns="http://www.w3.org/2000/svg" width="24" height="24" viewBox="0 0 24 24" fill="none"><path d="M14.5 7.5C14.5 4.73858 12.2614 2.5 9.5 2.5C6.73858 2.5 4.5 4.73858 4.5 7.5C4.5 10.2614 6.73858 12.5 9.5 12.5C12.2614 12.5 14.5 10.2614 14.5 7.5Z" stroke="currentColor" stroke-linecap="round" stroke-linejoin="round" stroke-width="1.5" /><path d="M16.5 19.5C16.5 15.634 13.366 12.5 9.5 12.5C5.63401 12.5 2.5 15.634 2.5 19.5" stroke="currentColor" stroke-linecap="round" stroke-linejoin="round" stroke-width="1.5" /><path d="M17.5 9H20.5C21.0523 9 21.5 9.44772 21.5 10V12C21.5 12.5523 21.0523 13 20.5 13H17.5C16.9477 13 16.5 12.5523 16.5 12V10C16.5 9.44772 16.9477 9 17.5 9Z" stroke="currentColor" stroke-linecap="round" stroke-linejoin="round" stroke-width="1.5" /><path d="M17.5 9V7.5C17.5 6.67157 18.1716 6 19 6C19.3842 6 19.7346 6.14443 20 6.38195" stroke="currentColor" stroke-linecap="round" stroke-linejoin="round" stroke-width="1.5" /></svg>