<svg xmlns="http://www.w3.org/2000/svg" width="24" height="24" viewBox="0 0 24 24" fill="none"><path d="M14 8.5C14 5.73858 11.7614 3.5 9 3.5C6.23858 3.5 4 5.73858 4 8.5C4 11.2614 6.23858 13.5 9 13.5C11.7614 13.5 14 11.2614 14 8.5Z" stroke="currentColor" stroke-linecap="round" stroke-linejoin="round" stroke-width="1.5" /><path d="M20.9526 9.54744L17.065 13.435M22 11.5C22 13.1569 20.6569 14.5 19 14.5C17.3431 14.5 16 13.1569 16 11.5C16 9.84315 17.3431 8.5 19 8.5C20.6569 8.5 22 9.84315 22 11.5Z" stroke="currentColor" stroke-linecap="round" stroke-linejoin="round" stroke-width="1.5" /><path d="M16 20.5C16 16.634 12.866 13.5 9 13.5C5.13401 13.5 2 16.634 2 20.5" stroke="currentColor" stroke-linecap="round" stroke-linejoin="round" stroke-width="1.5" /></svg>