<svg xmlns="http://www.w3.org/2000/svg" width="24" height="24" viewBox="0 0 24 24" fill="none" stroke-width="1.5" stroke-linecap="round" stroke-linejoin="round" color="currentColor"><path d="M14 6C14 8.20914 12.2091 10 10 10C7.79086 10 6 8.20914 6 6C6 3.79086 7.79086 2 10 2C12.2091 2 14 3.79086 14 6Z" fill="none"></path><path d="M18.5 19L17 18.4V16M13 18C13 20.2091 14.7909 22 17 22C19.2091 22 21 20.2091 21 18C21 15.7909 19.2091 14 17 14C14.7909 14 13 15.7909 13 18Z" fill="none"></path><path d="M10.5 20H5C3.89543 20 3 19.1046 3 18C3 15.2386 5.23858 13 8 13H12.5" fill="none"></path></svg>