<svg xmlns="http://www.w3.org/2000/svg" width="24" height="24" viewBox="0 0 24 24" fill="none" stroke-width="1.5" stroke-linecap="round" stroke-linejoin="round" color="currentColor"><path d="M14.7461 6.49609C14.7461 8.01609 15.9761 9.24609 17.4961 9.24609C19.0161 9.24609 20.2461 8.01609 20.2461 6.49609C20.2461 4.97609 19.0161 3.74609 17.4961 3.74609C15.9761 3.74609 14.7461 4.97609 14.7461 6.49609ZM16.2461 6.49609C16.2461 5.80609 16.8061 5.24609 17.4961 5.24609C18.1861 5.24609 18.7461 5.80609 18.7461 6.49609C18.7461 7.18609 18.1861 7.74609 17.4961 7.74609C16.8061 7.74609 16.2461 7.18609 16.2461 6.49609ZM8.74609 10.9961C8.74609 12.7861 10.2061 14.2461 11.9961 14.2461C13.7861 14.2461 15.2461 12.7861 15.2461 10.9961C15.2461 9.20609 13.7861 7.74609 11.9961 7.74609C10.2061 7.74609 8.74609 9.20609 8.74609 10.9961ZM10.2461 10.9961C10.2461 10.0361 11.0361 9.24609 11.9961 9.24609C12.9561 9.24609 13.7461 10.0361 13.7461 10.9961C13.7461 11.9561 12.9561 12.7461 11.9961 12.7461C11.0361 12.7461 10.2461 11.9561 10.2461 10.9961ZM15.7461 19.496C15.7461 19.906 16.0861 20.246 16.4961 20.246V20.256C16.9061 20.256 17.2461 19.916 17.2461 19.506C17.2461 18.156 16.7061 17.026 15.7761 16.396C13.5261 14.896 10.4661 14.896 8.20609 16.396C7.27609 17.016 6.74609 18.156 6.74609 19.496C6.74609 19.906 7.08609 20.246 7.49609 20.246C7.90609 20.246 8.24609 19.896 8.24609 19.496C8.24609 19.096 8.32609 18.116 9.04609 17.636C10.8061 16.466 13.1961 16.476 14.9461 17.636C15.6661 18.126 15.7461 19.086 15.7461 19.496ZM21.4961 15.196C21.0861 15.196 20.7461 14.9061 20.7461 14.4961C20.7461 13.9261 20.6561 13.0761 20.0361 12.6161C19.2761 12.0461 18.3961 11.7461 17.4961 11.7461C17.0861 11.7461 16.7461 11.4061 16.7461 10.9961C16.7461 10.5861 17.0861 10.2461 17.4961 10.2461C18.7261 10.2461 19.9161 10.6461 20.9461 11.4161C21.7861 12.0561 22.2461 13.1161 22.2461 14.3961C22.2461 14.8061 21.9061 15.196 21.4961 15.196ZM2.49609 15.196C2.08609 15.196 1.74609 14.9061 1.74609 14.4961C1.74609 13.1161 2.20609 12.0561 3.04609 11.4161C4.07609 10.6461 5.26609 10.2461 6.49609 10.2461C6.90609 10.2461 7.24609 10.5861 7.24609 10.9961C7.24609 11.4061 6.90609 11.7461 6.49609 11.7461C5.58609 11.7461 4.70609 12.0461 3.94609 12.6161C3.33609 13.0761 3.24609 13.9261 3.24609 14.3961C3.24609 14.8061 2.90609 15.196 2.49609 15.196ZM3.74609 6.49609C3.74609 8.01609 4.97609 9.24609 6.49609 9.24609C8.01609 9.24609 9.24609 8.01609 9.24609 6.49609C9.24609 4.97609 8.01609 3.74609 6.49609 3.74609C4.97609 3.74609 3.74609 4.97609 3.74609 6.49609ZM5.24609 6.49609C5.24609 5.80609 5.80609 5.24609 6.49609 5.24609C7.18609 5.24609 7.74609 5.80609 7.74609 6.49609C7.74609 7.18609 7.18609 7.74609 6.49609 7.74609C5.80609 7.74609 5.24609 7.18609 5.24609 6.49609Z" fill="currentColor" fill-rule="evenodd"></path></svg>