<svg xmlns="http://www.w3.org/2000/svg" width="24" height="24" viewBox="0 0 24 24" fill="none"><path d="M17 8.5C17 5.73858 14.7614 3.5 12 3.5C9.23858 3.5 7 5.73858 7 8.5C7 11.2614 9.23858 13.5 12 13.5C14.7614 13.5 17 11.2614 17 8.5Z" stroke="currentColor" stroke-linecap="round" stroke-linejoin="round" stroke-width="1.5" /><path d="M19 20.5C19 16.634 15.866 13.5 12 13.5C8.13401 13.5 5 16.634 5 20.5" stroke="currentColor" stroke-linecap="round" stroke-linejoin="round" stroke-width="1.5" /><path d="M19.5 11L20.8901 9.82582C21.63 9.20083 22 8.88833 22 8.5C22 8.11168 21.63 7.79917 20.8901 7.17417L19.5 6" stroke="currentColor" stroke-linecap="round" stroke-linejoin="round" stroke-width="1.5" /><path d="M4.5 11L3.1099 9.82582C2.36997 9.20083 2 8.88833 2 8.5C2 8.11168 2.36997 7.79917 3.1099 7.17417L4.5 6" stroke="currentColor" stroke-linecap="round" stroke-linejoin="round" stroke-width="1.5" /></svg>