<svg xmlns="http://www.w3.org/2000/svg" width="24" height="24" viewBox="0 0 24 24" fill="none" stroke-width="1.5" stroke-linecap="round" stroke-linejoin="round" color="currentColor"><path d="M7.75 7.5C7.75 9.84 9.66 11.75 12 11.75C14.34 11.75 16.25 9.84 16.25 7.5C16.25 5.16 14.34 3.25 12 3.25C9.66 3.25 7.75 5.16 7.75 7.5ZM9.25 7.5C9.25 5.98 10.48 4.75 12 4.75C13.52 4.75 14.75 5.98 14.75 7.5C14.75 9.02 13.52 10.25 12 10.25C10.48 10.25 9.25 9.02 9.25 7.5ZM17.75 20.0001C17.75 20.4101 18.09 20.7501 18.5 20.7501C18.91 20.7501 19.25 20.4101 19.25 20.0001V17.97C19.25 16.32 18.44 14.9101 17.12 14.3101C14.05 12.9301 9.96 12.9201 6.88 14.3101C5.56 14.9101 4.75 16.31 4.75 17.97V20.0001C4.75 20.4101 5.09 20.7501 5.5 20.7501C5.91 20.7501 6.25 20.4101 6.25 20.0001V17.97C6.25 17.13 6.58 16.0901 7.5 15.6701C10.19 14.4601 13.82 14.4601 16.5 15.6701C17.42 16.1001 17.75 17.14 17.75 17.97V20.0001Z" fill="currentColor" fill-rule="evenodd"></path></svg>