<svg xmlns="http://www.w3.org/2000/svg" width="24" height="24" viewBox="0 0 24 24" fill="none" stroke-width="1.5" stroke-linecap="round" stroke-linejoin="round" color="currentColor"><path d="M7.24609 7C7.24609 9.62 9.37609 11.75 11.9961 11.75C14.6161 11.75 16.7461 9.62 16.7461 7C16.7461 4.38 14.6161 2.25 11.9961 2.25C9.37609 2.25 7.24609 4.38 7.24609 7ZM8.74609 7C8.74609 5.21 10.2061 3.75 11.9961 3.75C13.7861 3.75 15.2461 5.21 15.2461 7C15.2461 8.79 13.7861 10.25 11.9961 10.25C10.2061 10.25 8.74609 8.79 8.74609 7ZM4.24609 19C4.24609 20.52 5.47609 21.75 6.99609 21.75H16.9961C18.5161 21.75 19.7461 20.52 19.7461 19C19.7461 15.83 17.1661 13.25 13.9961 13.25H9.99609C6.82609 13.25 4.24609 15.83 4.24609 19ZM5.74609 19C5.74609 16.66 7.65609 14.75 9.99609 14.75H13.9961C16.3361 14.75 18.2461 16.66 18.2461 19C18.2461 19.69 17.6861 20.25 16.9961 20.25H6.99609C6.30609 20.25 5.74609 19.69 5.74609 19Z" fill="currentColor" fill-rule="evenodd"></path></svg>