<svg xmlns="http://www.w3.org/2000/svg" width="24" height="24" viewBox="0 0 24 24" fill="none" stroke-width="1.5" stroke-linecap="round" stroke-linejoin="round" color="currentColor"><path d="M6.78 10.49C6.68 10.49 6.58 10.4699 6.48 10.4299C5.12 9.83993 4.25 8.49 4.25 7C4.25 4.93 5.93 3.25 8 3.25C8.41 3.25 8.75 3.59 8.75 4C8.75 4.41 8.41 4.75 8 4.75C6.76 4.75 5.75 5.76 5.75 7C5.75 7.89 6.27 8.70005 7.08 9.05005C7.46 9.22005 7.63 9.66004 7.47 10.04C7.35 10.32 7.07 10.49 6.78 10.49ZM16.53 10.04C16.66 10.32 16.93 10.49 17.22 10.49C17.32 10.49 17.42 10.4699 17.52 10.4299C18.87 9.82993 19.75 8.49 19.75 7C19.75 4.93 18.07 3.25 16 3.25C15.59 3.25 15.25 3.59 15.25 4C15.25 4.41 15.59 4.75 16 4.75C17.24 4.75 18.25 5.76 18.25 7C18.25 7.89 17.73 8.69005 16.92 9.05005C16.53 9.22005 16.36 9.66004 16.53 10.04ZM8.25 8C8.25 10.07 9.93 11.75 12 11.75C14.07 11.75 15.75 10.07 15.75 8C15.75 5.93 14.07 4.25 12 4.25C9.93 4.25 8.25 5.93 8.25 8ZM9.75 8C9.75 6.76 10.76 5.75 12 5.75C13.24 5.75 14.25 6.76 14.25 8C14.25 9.24 13.24 10.25 12 10.25C10.76 10.25 9.75 9.24 9.75 8ZM16.28 20.75H7.71C6.35 20.75 5.25 19.65 5.25 18.29C5.25 15.51 7.51 13.25 10.29 13.25H13.72C16.5 13.25 18.76 15.51 18.76 18.29C18.76 19.65 17.65 20.75 16.3 20.75H16.28ZM10.28 14.75C8.33 14.75 6.74 16.34 6.74 18.29C6.74 18.82 7.17 19.25 7.7 19.25H16.27C16.8 19.25 17.23 18.82 17.23 18.29C17.23 16.34 15.64 14.75 13.69 14.75H10.28ZM19.5312 19C19.5312 19.41 19.8712 19.75 20.2812 19.75C21.6312 19.75 22.7412 18.65 22.7412 17.29C22.7412 14.51 20.4812 12.25 17.7012 12.25C17.2912 12.25 16.9512 12.59 16.9512 13C16.9512 13.41 17.2912 13.75 17.7012 13.75C19.6512 13.75 21.2412 15.34 21.2412 17.29C21.2412 17.82 20.8112 18.25 20.2812 18.25C19.8712 18.25 19.5312 18.59 19.5312 19ZM1.25 17.29C1.25 18.65 2.35 19.75 3.71 19.75C4.12 19.75 4.46 19.41 4.46 19C4.46 18.59 4.12 18.25 3.71 18.25C3.18 18.25 2.75 17.82 2.75 17.29C2.75 15.34 4.34 13.75 6.29 13.75C6.7 13.75 7.04 13.41 7.04 13C7.04 12.59 6.7 12.25 6.29 12.25C3.51 12.25 1.25 14.51 1.25 17.29Z" fill="currentColor" fill-rule="evenodd"></path></svg>