<svg xmlns="http://www.w3.org/2000/svg" width="24" height="24" viewBox="0 0 24 24" fill="none" stroke-width="1.5" stroke-linecap="round" stroke-linejoin="round" color="currentColor"><path d="M15.5 7C15.5 9.20914 13.7091 11 11.5 11C9.29086 11 7.5 9.20914 7.5 7C7.5 4.79086 9.29086 3 11.5 3C13.7091 3 15.5 4.79086 15.5 7Z" fill="none"></path><path d="M13.5 14H9.5C6.73858 14 4.5 16.2386 4.5 19C4.5 20.1046 5.39543 21 6.5 21H16.5C17.6046 21 18.5 20.1046 18.5 19C18.5 16.2386 16.2614 14 13.5 14Z" fill="none"></path><path d="M19.5 6V10" fill="none"></path><path d="M19.5 13V13.01" fill="none"></path></svg>