<svg xmlns="http://www.w3.org/2000/svg" width="24" height="24" viewBox="0 0 24 24" fill="none" stroke-width="1.5" stroke-linecap="round" stroke-linejoin="round" color="currentColor"><path d="M15 5C15 6.65685 13.2418 8.5 12 8.5C10.7582 8.5 9 6.65685 9 5C9 3.34315 10.3431 2 12 2C13.6569 2 15 3.34315 15 5Z" stroke="currentColor"></path><path d="M16.0415 9C17.5645 10.3353 18.5513 12.5969 17.6651 14.7052C17.4742 15.1594 17.0361 15.4539 16.5514 15.4539C16.0585 15.4539 15.2489 15.296 15.0917 15.9374L13.9944 20.4123C13.7656 21.3454 12.9433 22 12 22C11.0567 22 10.2344 21.3454 10.0056 20.4123L8.90833 15.9374C8.75103 15.296 7.94149 15.4539 7.44862 15.4539C6.9639 15.4539 6.52582 15.1594 6.33488 14.7052C5.44866 12.5969 6.43558 10.3353 7.95857 9" stroke="currentColor"></path></svg>