<svg xmlns="http://www.w3.org/2000/svg" width="24" height="24" viewBox="0 0 24 24" fill="none" stroke-width="1.5" stroke-linecap="round" stroke-linejoin="round" color="currentColor"><path d="M9.99219 11.75C7.65219 11.75 5.74219 9.84 5.74219 7.5C5.74219 5.16 7.65219 3.25 9.99219 3.25C12.3322 3.25 14.2422 5.16 14.2422 7.5C14.2422 9.84 12.3322 11.75 9.99219 11.75ZM9.99219 4.75C8.47219 4.75 7.24219 5.98 7.24219 7.5C7.24219 9.02 8.47219 10.25 9.99219 10.25C11.5122 10.25 12.7422 9.02 12.7422 7.5C12.7422 5.98 11.5122 4.75 9.99219 4.75ZM15.7422 20.0001C15.7422 20.4101 16.0822 20.7501 16.4922 20.7501C16.9022 20.7501 17.2422 20.4101 17.2422 20.0001V17.97C17.2422 16.32 16.4322 14.9101 15.1122 14.3101C12.0422 12.9301 7.95219 12.9201 4.87219 14.3101C3.55219 14.9101 2.74219 16.31 2.74219 17.97V20.0001C2.74219 20.4101 3.08219 20.7501 3.49219 20.7501C3.90219 20.7501 4.24219 20.4101 4.24219 20.0001V17.97C4.24219 17.13 4.57219 16.0901 5.49219 15.6701C8.18219 14.4601 11.8122 14.4601 14.4922 15.6701C15.4122 16.1001 15.7422 17.14 15.7422 17.97V20.0001ZM19.7427 20.0001C19.7427 20.4101 20.0827 20.7501 20.4927 20.7501L20.5027 20.74C20.9127 20.74 21.2527 20.4 21.2527 19.99V17.96C21.2527 16.3 20.4327 14.9001 19.1227 14.3101C18.8427 14.1901 18.5527 14.07 18.2527 13.96C17.8627 13.81 17.4327 14.0201 17.2927 14.4101C17.1527 14.8001 17.3527 15.23 17.7427 15.37C17.9927 15.47 18.2427 15.5701 18.4927 15.6801C19.4127 16.1001 19.7427 17.14 19.7427 17.97V20.0001ZM14.2729 11.06C14.3729 11.39 14.6729 11.6 14.9929 11.6V11.61C15.0629 11.61 15.1329 11.5999 15.2029 11.5799C17.0229 11.0399 18.2429 9.38 18.2429 7.51C18.2429 5.64 16.9929 3.96004 15.2029 3.43004C14.8129 3.31004 14.3929 3.53004 14.2729 3.93004C14.1529 4.32004 14.3729 4.73997 14.7729 4.85997C15.9229 5.19997 16.7329 6.27999 16.7329 7.49999C16.7329 8.71999 15.9429 9.77999 14.7729 10.13C14.3829 10.25 14.1529 10.66 14.2729 11.06Z" fill="currentColor" fill-rule="evenodd"></path></svg>