<svg xmlns="http://www.w3.org/2000/svg" width="24" height="24" viewBox="0 0 24 24" fill="none"><path d="M7.5 19.5C7.5 18.5344 7.82853 17.5576 8.63092 17.0204C9.59321 16.3761 10.7524 16 12 16C13.2476 16 14.4068 16.3761 15.3691 17.0204C16.1715 17.5576 16.5 18.5344 16.5 19.5" stroke="currentColor" stroke-linecap="round" stroke-linejoin="round" stroke-width="1.5" /><circle cx="12" cy="11" r="2.5" stroke="currentColor" stroke-linecap="round" stroke-linejoin="round" stroke-width="1.5" /><path d="M17.5 11C18.6101 11 19.6415 11.3769 20.4974 12.0224C21.2229 12.5696 21.5 13.4951 21.5 14.4038V14.5" stroke="currentColor" stroke-linecap="round" stroke-linejoin="round" stroke-width="1.5" /><circle cx="17.5" cy="6.5" r="2" stroke="currentColor" stroke-linecap="round" stroke-linejoin="round" stroke-width="1.5" /><path d="M6.5 11C5.38987 11 4.35846 11.3769 3.50256 12.0224C2.77706 12.5696 2.5 13.4951 2.5 14.4038V14.5" stroke="currentColor" stroke-linecap="round" stroke-linejoin="round" stroke-width="1.5" /><circle cx="6.5" cy="6.5" r="2" stroke="currentColor" stroke-linecap="round" stroke-linejoin="round" stroke-width="1.5" /></svg>