<svg xmlns="http://www.w3.org/2000/svg" width="24" height="24" viewBox="0 0 24 24" fill="none" stroke-width="1.5" stroke-linecap="round" stroke-linejoin="round" color="currentColor"><path d="M22 12C22 17.5228 17.5228 22 12 22C6.47715 22 2 17.5228 2 12C2 6.47715 6.47715 2 12 2C17.5228 2 22 6.47715 22 12Z" stroke="currentColor"></path><path d="M14.75 9.5C14.75 11.0188 13.5188 12.25 12 12.25C10.4812 12.25 9.25 11.0188 9.25 9.5C9.25 7.98122 10.4812 6.75 12 6.75C13.5188 6.75 14.75 7.98122 14.75 9.5Z" stroke="currentColor"></path><path d="M5.5 19L6.0604 18.0193C6.95061 16.4614 8.60733 15.5 10.4016 15.5H13.5984C15.3927 15.5 17.0494 16.4614 17.9396 18.0193L18.5 19" stroke="currentColor"></path></svg>