<svg xmlns="http://www.w3.org/2000/svg" width="24" height="24" viewBox="0 0 24 24" fill="none" stroke-width="1.5" stroke-linecap="round" stroke-linejoin="round" color="currentColor"><path d="M17 13C17 10.2386 14.7614 8 12 8C9.23858 8 7 10.2386 7 13" stroke="currentColor"></path><path d="M11.9998 4H12.0088" stroke="currentColor"></path><path d="M18.3671 6.63268L18.3734 6.63903" stroke="currentColor"></path><path d="M5.63658 6.63978L5.64293 6.63343" stroke="currentColor"></path><path d="M21.0039 12.9959L21.0039 13.0049" stroke="currentColor"></path><path d="M3.00391 12.9959L3.00391 13.0049" stroke="currentColor"></path><path d="M6.5 16V19C6.5 19.9428 6.5 20.4142 6.79289 20.7071C7.08579 21 7.55719 21 8.5 21V21C9.44281 21 9.91421 21 10.2071 20.7071C10.5 20.4142 10.5 19.9428 10.5 19V16" stroke="currentColor"></path><path d="M13.5 16L15.5 21L17.5 16" stroke="currentColor"></path></svg>