<svg xmlns="http://www.w3.org/2000/svg" width="24" height="24" viewBox="0 0 24 24" fill="none"><path d="M12 3.00002V4.50002" stroke="currentColor" stroke-linecap="round" stroke-width="1.5" /><path d="M17 13C17 10.2386 14.7614 8 12 8C9.23858 8 7 10.2386 7 13" stroke="currentColor" stroke-linecap="round" stroke-width="1.5" /><path d="M5.98828 6.98927L4.92762 5.92861" stroke="currentColor" stroke-linecap="round" stroke-width="1.5" /><path d="M22 13L20.5 13" stroke="currentColor" stroke-linecap="round" stroke-width="1.5" /><path d="M3.5 13L2 13" stroke="currentColor" stroke-linecap="round" stroke-width="1.5" /><path d="M19.0703 5.92873L18.0097 6.98939" stroke="currentColor" stroke-linecap="round" stroke-width="1.5" /><path d="M6.5 16V19C6.5 19.9428 6.5 20.4142 6.79289 20.7071C7.08579 21 7.55719 21 8.5 21C9.44281 21 9.91421 21 10.2071 20.7071C10.5 20.4142 10.5 19.9428 10.5 19V16" stroke="currentColor" stroke-linecap="round" stroke-width="1.5" /><path d="M13.5 16L15.5 21L17.5 16" stroke="currentColor" stroke-linecap="round" stroke-linejoin="round" stroke-width="1.5" /></svg>