<svg xmlns="http://www.w3.org/2000/svg" width="24" height="24" viewBox="0 0 24 24" fill="none" stroke-width="1.5" stroke-linecap="round" stroke-linejoin="round" color="currentColor"><path d="M2.5 12C2.5 7.52166 2.5 5.28249 3.89124 3.89124C5.28249 2.5 7.52166 2.5 12 2.5C16.4783 2.5 18.7175 2.5 20.1088 3.89124C21.5 5.28249 21.5 7.52166 21.5 12C21.5 16.4783 21.5 18.7175 20.1088 20.1088C18.7175 21.5 16.4783 21.5 12 21.5C7.52166 21.5 5.28249 21.5 3.89124 20.1088C2.5 18.7175 2.5 16.4783 2.5 12Z" stroke="currentColor"></path><path d="M2.5 9H21.5" stroke="currentColor"></path><path d="M6.99981 6H7.00879" stroke="currentColor"></path><path d="M10.9998 6H11.0088" stroke="currentColor"></path><path d="M17.1105 12C17.6731 12.8628 18 13.8932 18 15C18 16.1068 17.6731 17.1372 17.1105 18M6.88947 12C6.32692 12.8628 6 13.8932 6 15C6 16.1068 6.32692 17.1372 6.88947 18" stroke="currentColor"></path><path d="M10 13L14 17M14 13L10 17" stroke="currentColor"></path></svg>