<svg xmlns="http://www.w3.org/2000/svg" width="24" height="24" viewBox="0 0 24 24" fill="none"><path d="M18.5 8C18.814 9.11421 19 10.4992 19 12C19 13.5008 18.814 14.8858 18.5 16M5.5 8C5.18604 9.11421 5 10.4992 5 12C5 13.5008 5.18604 14.8858 5.5 16M8 5.5C9.11421 5.18604 10.4992 5 12 5C13.5008 5 14.8858 5.18604 16 5.5M8 18.5C9.11421 18.814 10.4992 19 12 19C13.5008 19 14.8858 18.814 16 18.5" stroke="currentColor" stroke-linecap="round" stroke-linejoin="round" stroke-width="1.5" /><path d="M4.60982 7.96157C4.80302 8 5.03534 8 5.5 8C5.96466 8 6.19698 8 6.39018 7.96157C7.18356 7.80376 7.80376 7.18356 7.96157 6.39018C8 6.19698 8 5.96466 8 5.5C8 5.03534 8 4.80302 7.96157 4.60982C7.80376 3.81644 7.18356 3.19624 6.39018 3.03843C6.19698 3 5.96466 3 5.5 3C5.03534 3 4.80302 3 4.60982 3.03843C3.81644 3.19624 3.19624 3.81644 3.03843 4.60982C3 4.80302 3 5.03534 3 5.5C3 5.96466 3 6.19698 3.03843 6.39018C3.19624 7.18356 3.81644 7.80376 4.60982 7.96157Z" stroke="currentColor" stroke-linecap="round" stroke-linejoin="round" stroke-width="1.5" /><path d="M17.6098 7.96157C17.803 8 18.0353 8 18.5 8C18.9647 8 19.197 8 19.3902 7.96157C20.1836 7.80376 20.8038 7.18356 20.9616 6.39018C21 6.19698 21 5.96466 21 5.5C21 5.03534 21 4.80302 20.9616 4.60982C20.8038 3.81644 20.1836 3.19624 19.3902 3.03843C19.197 3 18.9647 3 18.5 3C18.0353 3 17.803 3 17.6098 3.03843C16.8164 3.19624 16.1962 3.81644 16.0384 4.60982C16 4.80302 16 5.03534 16 5.5C16 5.96466 16 6.19698 16.0384 6.39018C16.1962 7.18356 16.8164 7.80376 17.6098 7.96157Z" stroke="currentColor" stroke-linecap="round" stroke-linejoin="round" stroke-width="1.5" /><path d="M4.60982 20.9616C4.80302 21 5.03534 21 5.5 21C5.96466 21 6.19698 21 6.39018 20.9616C7.18356 20.8038 7.80376 20.1836 7.96157 19.3902C8 19.197 8 18.9647 8 18.5C8 18.0353 8 17.803 7.96157 17.6098C7.80376 16.8164 7.18356 16.1962 6.39018 16.0384C6.19698 16 5.96466 16 5.5 16C5.03534 16 4.80302 16 4.60982 16.0384C3.81644 16.1962 3.19624 16.8164 3.03843 17.6098C3 17.803 3 18.0353 3 18.5C3 18.9647 3 19.197 3.03843 19.3902C3.19624 20.1836 3.81644 20.8038 4.60982 20.9616Z" stroke="currentColor" stroke-linecap="round" stroke-linejoin="round" stroke-width="1.5" /><path d="M17.6098 20.9616C17.803 21 18.0353 21 18.5 21C18.9647 21 19.197 21 19.3902 20.9616C20.1836 20.8038 20.8038 20.1836 20.9616 19.3902C21 19.197 21 18.9647 21 18.5C21 18.0353 21 17.803 20.9616 17.6098C20.8038 16.8164 20.1836 16.1962 19.3902 16.0384C19.197 16 18.9647 16 18.5 16C18.0353 16 17.803 16 17.6098 16.0384C16.8164 16.1962 16.1962 16.8164 16.0384 17.6098C16 17.803 16 18.0353 16 18.5C16 18.9647 16 19.197 16.0384 19.3902C16.1962 20.1836 16.8164 20.8038 17.6098 20.9616Z" stroke="currentColor" stroke-linecap="round" stroke-linejoin="round" stroke-width="1.5" /></svg>