<svg xmlns="http://www.w3.org/2000/svg" width="24" height="24" viewBox="0 0 24 24" fill="none" stroke-width="1.5" stroke-linecap="round" stroke-linejoin="round" color="currentColor"><path d="M8.25221 12.748C7.97221 12.748 7.71221 12.588 7.58221 12.338L3.58221 4.33799C3.39221 3.96799 3.54221 3.51798 3.92221 3.32798C4.29221 3.14798 4.74221 3.29801 4.93221 3.66801L8.26221 10.328L11.5922 3.66801C11.7822 3.29801 12.2322 3.14798 12.6022 3.32798C12.9722 3.51798 13.1222 3.96799 12.9422 4.33799L8.94221 12.338C8.81221 12.588 8.55221 12.748 8.27221 12.748H8.25221ZM7.25162 20.748L7.24671 20.748C7.49501 20.7463 7.74256 20.6264 7.88162 20.398L17.8816 4.39797C18.1016 4.04797 17.9916 3.58797 17.6416 3.36797C17.2916 3.14797 16.8316 3.25796 16.6116 3.60796L6.61162 19.608C6.39162 19.958 6.50161 20.418 6.85161 20.638C6.98009 20.7071 7.10857 20.747 7.24671 20.748L7.24162 20.748H7.25162ZM16.2519 20.748H19.2519C20.2119 20.748 21.0019 19.958 21.0019 18.998V16.998C21.0019 16.038 20.2119 15.248 19.2519 15.248H16.2519C16.1119 15.248 16.0019 15.138 16.0019 14.998V12.998C16.0019 12.858 16.1119 12.748 16.2519 12.748H19.2519C19.3919 12.748 19.5019 12.858 19.5019 12.998V13.498C19.5019 13.908 19.8419 14.248 20.2519 14.248C20.6619 14.248 21.0019 13.908 21.0019 13.498V12.998C21.0019 12.038 20.2119 11.248 19.2519 11.248H16.2519C15.2919 11.248 14.5019 12.038 14.5019 12.998V14.998C14.5019 15.958 15.2919 16.748 16.2519 16.748H19.2519C19.3919 16.748 19.5019 16.858 19.5019 16.998V18.998C19.5019 19.138 19.3919 19.248 19.2519 19.248H16.2519C16.1119 19.248 16.0019 19.138 16.0019 18.998V18.498C16.0019 18.088 15.6619 17.748 15.2519 17.748C14.8419 17.748 14.5019 18.088 14.5019 18.498V18.998C14.5019 19.958 15.2919 20.748 16.2519 20.748Z" fill="currentColor" fill-rule="evenodd"></path></svg>