<svg xmlns="http://www.w3.org/2000/svg" width="24" height="24" viewBox="0 0 24 24" fill="none" stroke-width="1.5" stroke-linecap="round" stroke-linejoin="round" color="currentColor"><path d="M3 10C3 6.22876 3 4.34315 4.17157 3.17157C5.34315 2 7.22876 2 11 2H13C16.7712 2 18.6569 2 19.8284 3.17157C21 4.34315 21 6.22876 21 10V14C21 17.7712 21 19.6569 19.8284 20.8284C18.6569 22 16.7712 22 13 22H11C7.22876 22 5.34315 22 4.17157 20.8284C3 19.6569 3 17.7712 3 14V10Z" stroke="currentColor"></path><path d="M10 18L8.5 16.5M8.5 16.5L7 15M8.5 16.5L7 18M8.5 16.5L10 15" stroke="currentColor"></path><path d="M16.9912 15H17.0002M15 18H15.009" stroke="currentColor"></path><path d="M3 12H21" stroke="currentColor"></path></svg>