<svg xmlns="http://www.w3.org/2000/svg" width="24" height="24" viewBox="0 0 24 24" fill="none"><path d="M11 3H13C16.7712 3 18.6569 3 19.8284 4.17157C21 5.34315 21 7.22876 21 11V13C21 16.7712 21 18.6569 19.8284 19.8284C18.6569 21 16.7712 21 13 21H11C7.22876 21 5.34315 21 4.17157 19.8284C3 18.6569 3 16.7712 3 13V11C3 7.22876 3 5.34315 4.17157 4.17157C5.34315 3 7.22876 3 11 3Z" stroke="currentColor" stroke-linecap="round" stroke-linejoin="round" stroke-width="1.5" /><path d="M9 3V21" stroke="currentColor" stroke-linecap="round" stroke-linejoin="round" stroke-width="1.5" /><path d="M9 9H3" stroke="currentColor" stroke-linecap="round" stroke-linejoin="round" stroke-width="1.5" /><path d="M9 15H3" stroke="currentColor" stroke-linecap="round" stroke-linejoin="round" stroke-width="1.5" /></svg>