<svg xmlns="http://www.w3.org/2000/svg" width="24" height="24" viewBox="0 0 24 24" fill="none" stroke-width="1.5" stroke-linecap="round" stroke-linejoin="round" color="currentColor"><path d="M22 12C22 17.5228 17.5228 22 12 22C6.47715 22 2 17.5228 2 12C2 6.47715 6.47715 2 12 2C17.5228 2 22 6.47715 22 12Z" stroke="currentColor"></path><path d="M8.12046 3C7.67458 4.61905 7.76376 8.58571 11.6875 11.5M11.6875 11.5C16.6295 10.17 20.125 10.65 22 12.3498M11.6875 11.5C12.2525 16.1881 8.875 19.15 7 20" stroke="currentColor"></path><path d="M9 8C11.087 6.11368 16.3261 5.12819 20.5 7.01432" stroke="currentColor"></path><path d="M16.8885 11C17.4777 13.8947 15.7144 19.1883 12 22" stroke="currentColor"></path><path d="M10 17C7.37458 15.7396 4.15837 10.9595 4 6" stroke="currentColor"></path></svg>