<svg xmlns="http://www.w3.org/2000/svg" width="24" height="24" viewBox="0 0 24 24" fill="none" stroke-width="1.5" stroke-linecap="round" stroke-linejoin="round" color="currentColor"><path d="M20 22.002V16.0277C20 15.0789 20 14.6045 19.8416 14.2305C19.6413 13.7577 19.2669 13.38 18.7958 13.1757C18.4232 13.0141 17.9488 13.0101 17 13.002C17 18.002 12 20.002 12 20.002C12 20.002 7 18.002 7 13.002C6.06812 13.002 5.60218 13.002 5.23463 13.1542C4.74458 13.3572 4.35523 13.7465 4.15224 14.2366C4 14.6041 4 15.0701 4 16.002V22.002" stroke="currentColor"></path><path d="M12 13.5003L14 12.5003V14.5003L12 13.5003ZM12 13.5003L10 12.5005V14.5005L12 13.5003Z" stroke="currentColor"></path><path d="M15.5 6.50049V5.50049C15.5 3.56749 13.933 2.00049 12 2.00049C10.067 2.00049 8.5 3.56749 8.5 5.50049V6.50049C8.5 8.43349 10.067 10.0005 12 10.0005C13.933 10.0005 15.5 8.43349 15.5 6.50049Z" stroke="currentColor"></path></svg>