<svg xmlns="http://www.w3.org/2000/svg" width="24" height="24" viewBox="0 0 24 24" fill="none"><path d="M20 22.0017V16.0275C20 15.0786 20 14.6042 19.8416 14.2303C19.6413 13.7575 19.2669 13.3798 18.7958 13.1755C18.4232 13.0139 17.9488 13.0098 17 13.0017C17 18.0017 12 20.0017 12 20.0017C12 20.0017 7 18.0017 7 13.0017C6.06812 13.0017 5.60218 13.0017 5.23463 13.1539C4.74458 13.3569 4.35523 13.7463 4.15224 14.2363C4 14.6039 4 15.0698 4 16.0017V22.0017" stroke="currentColor" stroke-linecap="round" stroke-linejoin="round" stroke-width="1.5" /><path d="M12 13.5L14 12.5V14.5L12 13.5ZM12 13.5L10 12.5002V14.5002L12 13.5Z" stroke="currentColor" stroke-linecap="round" stroke-linejoin="round" stroke-width="1.5" /><path d="M15.5 6.5V5.5C15.5 3.567 13.933 2 12 2C10.067 2 8.5 3.567 8.5 5.5V6.5C8.5 8.433 10.067 10 12 10C13.933 10 15.5 8.433 15.5 6.5Z" stroke="currentColor" stroke-linecap="round" stroke-linejoin="round" stroke-width="1.5" /></svg>