<svg xmlns="http://www.w3.org/2000/svg" width="24" height="24" viewBox="0 0 24 24" fill="none"><path d="M6 12.5L7.73811 9.89287C7.91034 9.63452 8.14035 9.41983 8.40993 9.26578L10.599 8.01487C11.1619 7.69323 11.8483 7.67417 12.4282 7.9641C13.0851 8.29255 13.4658 8.98636 13.7461 9.66522C14.2069 10.7814 15.3984 12 18 12" stroke="currentColor" stroke-linecap="round" stroke-linejoin="round" stroke-width="1.5" /><path d="M13 9L11.7772 14.5951M10.5 8.5L9.77457 11.7645C9.6069 12.519 9.88897 13.3025 10.4991 13.777L14 16.5L15.5 21" stroke="currentColor" stroke-linecap="round" stroke-linejoin="round" stroke-width="1.5" /><path d="M9.5 16L9 17.5L6.5 20.5" stroke="currentColor" stroke-linecap="round" stroke-linejoin="round" stroke-width="1.5" /><path d="M15 4.5C15 5.32843 14.3284 6 13.5 6C12.6716 6 12 5.32843 12 4.5C12 3.67157 12.6716 3 13.5 3C14.3284 3 15 3.67157 15 4.5Z" stroke="currentColor" stroke-linecap="round" stroke-linejoin="round" stroke-width="1.5" /></svg>