<svg xmlns="http://www.w3.org/2000/svg" width="24" height="24" viewBox="0 0 24 24" fill="none" stroke-width="1.5" stroke-linecap="round" stroke-linejoin="round" color="currentColor"><path d="M14.0578 3.5H9.94781C8.10781 3.5 6.65781 3.50015 5.51781 3.65015C4.34781 3.81015 3.39781 4.14014 2.64781 4.89014C1.89781 5.64014 1.56781 6.59001 1.40781 7.76001C1.31781 8.43001 1.27781 9.22012 1.26781 10.1201C1.26781 10.1701 1.25781 10.21 1.25781 10.25C1.25781 10.29 1.25781 10.3201 1.25781 10.3501C1.25781 10.9201 1.25781 11.5299 1.25781 12.1899V12.3101C1.25781 14.1401 1.25781 15.6 1.40781 16.74C1.56781 17.91 1.89781 18.8601 2.64781 19.6101C3.39781 20.3601 4.34781 20.6901 5.51781 20.8501C6.65781 21.0001 8.10781 21 9.94781 21H14.0578C15.8978 21 17.3478 21.0001 18.4878 20.8501C19.6578 20.6901 20.6078 20.3601 21.3578 19.6101C22.1078 18.8601 22.4378 17.91 22.5978 16.74C22.7478 15.6 22.7478 14.1401 22.7478 12.3101V12.1899C22.7478 11.5299 22.7478 10.9201 22.7478 10.3501C22.7478 10.3201 22.7478 10.29 22.7478 10.25C22.7478 10.21 22.7478 10.1701 22.7378 10.1201C22.7178 9.22012 22.6878 8.43001 22.5978 7.76001C22.4378 6.59001 22.1078 5.64014 21.3578 4.89014C20.6078 4.14014 19.6578 3.81015 18.4878 3.65015C17.3478 3.50015 15.8978 3.5 14.0578 3.5ZM21.2178 9.5C21.1978 8.91 21.1678 8.40996 21.1078 7.95996C20.9678 6.94996 20.7178 6.37995 20.2978 5.94995C19.8778 5.52995 19.2978 5.28014 18.2878 5.14014C17.2578 5.00014 15.9078 5 13.9978 5H9.99781C8.08781 5 6.73781 5.00014 5.70781 5.14014C4.69781 5.28014 4.11781 5.52995 3.69781 5.94995C3.27781 6.37995 3.01781 6.94996 2.88781 7.95996C2.82781 8.40996 2.79781 8.91 2.77781 9.5H6.30781C6.91781 9.5 7.39781 9.50015 7.83781 9.65015C8.10781 9.75015 8.35781 9.88006 8.58781 10.0601C8.95781 10.3401 9.22781 10.74 9.56781 11.25L9.62781 11.3301C10.0578 11.9701 10.1778 12.14 10.3178 12.25C10.4178 12.33 10.5378 12.3899 10.6578 12.4299C10.8278 12.4899 11.0378 12.5 11.7978 12.5H12.1878C12.9578 12.5 13.1578 12.4899 13.3278 12.4299C13.4478 12.3899 13.5678 12.33 13.6678 12.25C13.8178 12.14 13.9378 11.9701 14.3578 11.3301L14.4178 11.25C14.7578 10.74 15.0178 10.3401 15.3978 10.0601C15.6278 9.88006 15.8778 9.75015 16.1478 9.65015C16.5878 9.50015 17.0678 9.5 17.6778 9.5H21.2078H21.2178ZM2.74781 11C2.74781 11.39 2.74781 11.8 2.74781 12.25C2.74781 14.16 2.74781 15.51 2.88781 16.54C3.02781 17.55 3.27781 18.12 3.69781 18.55C4.11781 18.97 4.69781 19.2201 5.70781 19.3601C6.73781 19.5001 8.08781 19.5 9.99781 19.5H13.9978C15.9078 19.5 17.2578 19.5001 18.2878 19.3601C19.2978 19.2201 19.8778 18.97 20.2978 18.55C20.7178 18.12 20.9778 17.55 21.1078 16.54C21.2478 15.51 21.2478 14.16 21.2478 12.25C21.2478 11.8 21.2478 11.39 21.2478 11H17.7978C17.0278 11 16.8278 11.0101 16.6578 11.0701C16.5378 11.1101 16.4178 11.17 16.3178 11.25C16.1678 11.36 16.0478 11.5299 15.6278 12.1699L15.5678 12.26C15.2278 12.76 14.9678 13.16 14.5878 13.45C14.3578 13.62 14.1078 13.7501 13.8378 13.8501C13.3978 14.0001 12.9178 14 12.3078 14H11.6978C11.0878 14 10.6078 14.0001 10.1678 13.8501C9.89781 13.7501 9.64781 13.62 9.41781 13.45C9.04781 13.16 8.77781 12.76 8.43781 12.26L8.37781 12.1699C7.94781 11.5299 7.82781 11.36 7.68781 11.25C7.58781 11.17 7.46781 11.1101 7.34781 11.0701C7.17781 11.0101 6.96781 11 6.20781 11H2.75781H2.74781Z" fill="currentColor" fill-rule="evenodd"></path></svg>