<svg xmlns="http://www.w3.org/2000/svg" width="24" height="24" viewBox="0 0 24 24" fill="none" stroke-width="1.5" stroke-linecap="round" stroke-linejoin="round" color="currentColor"><path d="M13.0022 3.6001C13.1222 3.5301 13.2622 3.5 13.3922 3.5C13.8722 3.5 14.2522 3.89011 14.2522 4.36011V8H4.43219L13.0022 3.6001ZM2.25219 8.75C2.25219 7.94 2.70219 7.20008 3.42219 6.83008L12.3122 2.26001C12.6422 2.09001 13.0122 2 13.3922 2C14.6922 2 15.7522 3.06011 15.7522 4.36011V8C16.8022 8 17.6822 8.02012 18.3922 8.12012C19.2922 8.24012 20.0522 8.5001 20.6522 9.1001C21.2522 9.7001 21.5122 10.4601 21.6322 11.3601C21.7522 12.2301 21.7522 13.33 21.7522 14.7V15.8C21.7522 17.17 21.7522 18.2701 21.6322 19.1401C21.5122 20.0401 21.2522 20.8001 20.6522 21.4001C20.0522 22.0001 19.2922 22.2601 18.3922 22.3801C17.5222 22.5001 16.4222 22.5 15.0522 22.5H8.94219C7.57219 22.5 6.47219 22.5001 5.60219 22.3801C4.70219 22.2601 3.94219 22.0001 3.34219 21.4001C2.74219 20.8001 2.48219 20.0401 2.36219 19.1401C2.24219 18.2701 2.24219 17.17 2.24219 15.8V8.75H2.25219ZM15.0022 9.5C16.4422 9.5 17.4422 9.5001 18.1922 9.6001C18.9222 9.7001 19.3122 9.87991 19.5922 10.1599C19.8722 10.4399 20.0522 10.8201 20.1522 11.5601C20.2522 12.3101 20.2522 13.31 20.2522 14.75V15.75C20.2522 17.19 20.2522 18.1899 20.1522 18.9399C20.0522 19.6799 19.8722 20.0601 19.5922 20.3401C19.3122 20.6201 18.9222 20.8001 18.1922 20.9001C17.4322 21.0001 16.4322 21 15.0022 21H9.00219C7.56219 21 6.56219 21.0001 5.81219 20.9001C5.08219 20.8001 4.69219 20.6201 4.41219 20.3401C4.13219 20.0601 3.95219 19.6799 3.85219 18.9399C3.75219 18.1899 3.75219 17.19 3.75219 15.75V9.5H15.0022Z" fill="currentColor" fill-rule="evenodd"></path></svg>