<svg xmlns="http://www.w3.org/2000/svg" width="24" height="24" viewBox="0 0 24 24" fill="none"><path d="M12 14C10.687 14 9.57106 13.1565 9.16437 11.9819C8.98368 11.46 8.55228 11 8 11C5.64298 11 4.46447 11 3.73223 11.7322C3 12.4645 3 13.643 3 16C3 18.357 3 19.5355 3.73223 20.2678C4.46447 21 5.64298 21 8 21H16C18.357 21 19.5355 21 20.2678 20.2678C21 19.5355 21 18.357 21 16C21 13.643 21 12.4645 20.2678 11.7322C19.5355 11 18.357 11 16 11C15.4477 11 15.0163 11.46 14.8356 11.9819C14.4289 13.1565 13.313 14 12 14Z" stroke="currentColor" stroke-linecap="round" stroke-linejoin="round" stroke-width="1.5" /><path d="M21 17V12C21 9.64298 21 8.46447 20.2678 7.73223C19.5355 7 18.357 7 16 7H8C5.64298 7 4.46447 7 3.73223 7.73223C3 8.46447 3 9.64298 3 12V17" stroke="currentColor" stroke-linecap="round" stroke-linejoin="round" stroke-width="1.5" /><path d="M21 13V8C21 5.64298 21 4.46447 20.2678 3.73223C19.5355 3 18.357 3 16 3H8C5.64298 3 4.46447 3 3.73223 3.73223C3 4.46447 3 5.64298 3 8V13" stroke="currentColor" stroke-linecap="round" stroke-linejoin="round" stroke-width="1.5" /></svg>