<svg xmlns="http://www.w3.org/2000/svg" width="24" height="24" viewBox="0 0 24 24" fill="none"><path d="M3 14V10C3 6.22876 3 4.34315 4.17157 3.17157C5.34315 2 7.22876 2 11 2H13C16.7712 2 18.6569 2 19.8284 3.17157C21 4.34315 21 6.22876 21 10V14C21 17.7712 21 19.6569 19.8284 20.8284C18.6569 22 16.7712 22 13 22H11C7.22876 22 5.34315 22 4.17157 20.8284C3 19.6569 3 17.7712 3 14Z" stroke="currentColor" stroke-linecap="round" stroke-linejoin="round" stroke-width="1.5" /><path d="M7 6V6.01" stroke="currentColor" stroke-linecap="round" stroke-linejoin="round" stroke-width="2" /><path d="M17 13C17 15.7614 14.7614 18 12 18C9.23858 18 7 15.7614 7 13C7 10.2386 9.23858 8 12 8C14.7614 8 17 10.2386 17 13Z" stroke="currentColor" stroke-linecap="round" stroke-linejoin="round" stroke-width="1.5" /><path d="M7 13C8.66667 11.6667 10.3333 11.6667 12 13C13.6667 14.3333 15.3333 14.3333 17 13" stroke="currentColor" stroke-linecap="round" stroke-linejoin="round" stroke-width="1.5" /></svg>