<svg xmlns="http://www.w3.org/2000/svg" width="24" height="24" viewBox="0 0 24 24" fill="none" stroke-width="1.5" stroke-linecap="round" stroke-linejoin="round" color="currentColor"><path d="M11.2383 3.3457C11.0683 3.3457 10.8283 3.3457 10.4483 3.3457C8.80828 3.3457 7.63828 3.34557 6.73828 3.45557C5.86828 3.55557 5.33828 3.74592 4.94828 4.06592C4.76828 4.21592 4.60828 4.37566 4.45828 4.55566C4.13828 4.94566 3.94828 5.4757 3.84828 6.3457C3.73828 7.2457 3.73828 8.41566 3.73828 10.0557V14.5957C3.73828 16.5057 3.73828 17.8557 3.87828 18.8857C4.01828 19.8957 4.26828 20.4655 4.68828 20.8955C5.11828 21.3155 5.68828 21.5656 6.69828 21.7056C7.72828 21.8456 9.07828 21.8457 10.9883 21.8457H18.9883C19.3983 21.8457 19.7383 22.1857 19.7383 22.5957C19.7383 23.0057 19.3983 23.3457 18.9883 23.3457H10.9283C9.09828 23.3457 7.63828 23.3458 6.49828 23.1958C5.32828 23.0358 4.37828 22.7056 3.62828 21.9556C2.87828 21.2056 2.54828 20.2559 2.38828 19.0859C2.23828 17.9459 2.23828 16.4858 2.23828 14.6558V10.0059C2.23828 8.42586 2.23828 7.16578 2.35828 6.17578C2.46828 5.15578 2.71828 4.31572 3.28828 3.61572C3.49828 3.34572 3.73828 3.10551 4.00828 2.89551C4.70828 2.32551 5.54828 2.07582 6.56828 1.96582C7.55828 1.84582 8.81828 1.8457 10.3983 1.8457H10.5483C11.1483 1.8457 11.6283 1.84586 12.0783 2.00586C12.1683 2.03586 12.2583 2.07572 12.3483 2.11572C12.7783 2.31572 13.1083 2.65594 13.5383 3.08594C13.5583 3.10594 13.5883 3.13576 13.6083 3.15576L18.3483 7.89551C18.3483 7.89551 18.4083 7.95559 18.4283 7.97559C18.9283 8.47559 19.3183 8.86549 19.5283 9.37549C19.6583 9.68549 19.6983 10.0755 19.7183 10.4155C19.7383 10.7755 19.7383 11.1859 19.7383 11.5859C19.7383 12.0059 19.3983 12.3457 18.9883 12.3457C18.5783 12.3457 18.2383 12.0057 18.2383 11.5957C18.2383 11.1857 18.2383 10.8159 18.2183 10.5059C18.2183 10.4459 18.2183 10.3957 18.2083 10.3457H17.9383C16.5683 10.3457 15.4683 10.3456 14.5983 10.2256C13.6983 10.1056 12.9383 9.84561 12.3383 9.24561C11.7383 8.64561 11.4783 7.88584 11.3583 6.98584C11.2383 6.11584 11.2383 5.01551 11.2383 3.64551V3.35596V3.3457ZM12.7383 4.39551C12.7383 5.41551 12.7583 6.17588 12.8383 6.77588C12.9383 7.51588 13.1183 7.89578 13.3983 8.17578C13.6783 8.45578 14.0583 8.63584 14.7983 8.73584C15.3983 8.81584 16.1583 8.83594 17.1783 8.83594L12.7383 4.39551ZM18.7383 13.8755C19.1283 13.7455 19.5583 13.9459 19.6983 14.3359L20.9883 18.0259L22.2783 14.3359C22.4183 13.9459 22.8483 13.7455 23.2383 13.8755C23.6283 14.0155 23.8283 14.4459 23.6983 14.8359L21.9483 19.8359C21.8383 20.1359 21.5583 20.3359 21.2383 20.3359H20.7383C20.4183 20.3359 20.1383 20.1359 20.0283 19.8359L18.2783 14.8359C18.1483 14.4459 18.3483 14.0155 18.7383 13.8755ZM6.98828 13.8359C7.39828 13.8359 7.73828 14.1759 7.73828 14.5859V17.4458L8.39828 16.6157C8.54828 16.4357 8.75828 16.3359 8.98828 16.3359C9.21828 16.3359 9.42828 16.4357 9.57828 16.6157L10.2383 17.4458V14.5859C10.2383 14.1759 10.5783 13.8359 10.9883 13.8359C11.3983 13.8359 11.7383 14.1759 11.7383 14.5859V19.5859C11.7383 19.9059 11.5383 20.1859 11.2383 20.2959C10.9383 20.3959 10.5983 20.3057 10.3983 20.0557L8.98828 18.2856L7.57828 20.0557C7.37828 20.3057 7.03828 20.3959 6.73828 20.2959C6.43828 20.1859 6.23828 19.9059 6.23828 19.5859V14.5859C6.23828 14.1759 6.57828 13.8359 6.98828 13.8359ZM14.5283 14.3359C14.6383 14.0359 14.9183 13.8359 15.2383 13.8359H15.7383C16.0583 13.8359 16.3383 14.0359 16.4483 14.3359L18.1983 19.3359C18.3283 19.7259 18.1283 20.1559 17.7383 20.2959C17.3483 20.4259 16.9183 20.2259 16.7783 19.8359L16.4283 18.8359H14.5483L14.1983 19.8359C14.0583 20.2259 13.6283 20.4259 13.2383 20.2959C12.8483 20.1559 12.6483 19.7259 12.7783 19.3359L14.5283 14.3359ZM15.0683 17.3359H15.9083L15.4883 16.1455L15.0683 17.3359Z" fill="currentColor" fill-rule="evenodd"></path></svg>