<svg xmlns="http://www.w3.org/2000/svg" width="24" height="24" viewBox="0 0 24 24" fill="none" stroke-width="1.5" stroke-linecap="round" stroke-linejoin="round" color="currentColor"><path d="M20 13.0547C20 13.4647 20.34 13.8047 20.75 13.8047C21.16 13.8047 21.5 13.4647 21.5 13.0547V10.7144C21.5 9.82436 21.5 9.33471 21.29 8.82471C21.09 8.33471 20.74 7.98449 20.11 7.35449L15.37 2.61426C14.83 2.06426 14.53 1.76447 14.12 1.58447C14.11 1.58447 13.94 1.50439 13.94 1.50439C13.9299 1.49933 13.9204 1.49428 13.9112 1.48939C13.8842 1.47499 13.8599 1.46206 13.83 1.45459C13.3803 1.30469 12.9605 1.30469 12.2115 1.30469H12.21H12.2058C8.78861 1.30469 7.07947 1.30469 5.77 2.36426C5.51 2.57426 5.27 2.81471 5.06 3.07471C4 4.37471 4 6.09465 4 9.51465V13.0547C4 13.4647 4.34 13.8047 4.75 13.8047C5.16 13.8047 5.5 13.4647 5.5 13.0547V9.51465V9.51464C5.5 6.44465 5.5 4.90465 6.22 4.01465C6.36 3.83465 6.53 3.67441 6.71 3.52441C7.60966 2.80469 9.13884 2.80469 12.2065 2.80469H12.21L12.2342 2.80469C12.5812 2.80468 12.8241 2.80468 13 2.81445V3.05469V3.0547C13 6.08469 13 7.60459 14.1 8.70459C15.2 9.80459 16.72 9.80469 19.75 9.80469H19.98C20 10.0147 20 10.2944 20 10.7144V13.0547ZM15.16 7.64453C14.57 7.05453 14.5 5.94426 14.5 3.86426L18.94 8.30469C16.85 8.29469 15.75 8.23453 15.16 7.64453ZM15.9947 22.8047C15.9964 22.8047 15.9981 22.8047 15.9998 22.8047H15.9898C15.9914 22.8047 15.9931 22.8047 15.9947 22.8047ZM15.2798 22.2646C15.3792 22.5929 15.6766 22.8025 15.9947 22.8047C16.0631 22.8042 16.1314 22.7939 16.1998 22.7744C16.5998 22.6544 16.8298 22.2442 16.7098 21.8442L14.9598 15.8442C14.8698 15.5242 14.5698 15.3047 14.2398 15.3047H13.7398C13.4098 15.3047 13.1098 15.5242 13.0198 15.8442L11.2698 21.8442C11.1498 22.2442 11.3798 22.6544 11.7798 22.7744C12.1798 22.8944 12.5898 22.6646 12.7098 22.2646L13.1398 20.8047H14.8498L15.2798 22.2646ZM14.4098 19.3047H13.5798H13.5698L13.9898 17.8745L14.4098 19.3047ZM9.16977 22.5347C9.31977 22.7047 9.52977 22.8047 9.74977 22.8047V22.7944C9.83977 22.7944 9.92976 22.7844 10.0098 22.7544C10.2998 22.6444 10.4998 22.3644 10.4998 22.0444V16.0444C10.4998 15.6344 10.1598 15.2944 9.74977 15.2944C9.33977 15.2944 8.99977 15.6344 8.99977 16.0444V19.9746L7.82977 18.5645C7.54977 18.2245 6.96977 18.2245 6.67977 18.5645L5.50977 19.9746V16.0444C5.50977 15.6344 5.16977 15.2944 4.75977 15.2944C4.34977 15.2944 4.00977 15.6344 4.00977 16.0444V22.0444C4.00977 22.3644 4.19977 22.6444 4.49977 22.7544C4.79977 22.8644 5.12977 22.7747 5.32977 22.5347L7.24977 20.2246L9.16977 22.5347ZM17.7798 22.2646C17.8698 22.5846 18.1698 22.8047 18.4998 22.8047H18.9998C19.3298 22.8047 19.6298 22.5846 19.7198 22.2646L21.4698 16.2646C21.5898 15.8646 21.3598 15.4545 20.9598 15.3345C20.5598 15.2145 20.1498 15.4442 20.0298 15.8442L18.7498 20.2344L17.4698 15.8442C17.3498 15.4442 16.9398 15.2145 16.5398 15.3345C16.1398 15.4545 15.9098 15.8646 16.0298 16.2646L17.7798 22.2646Z" fill="currentColor" fill-rule="evenodd"></path></svg>