<svg xmlns="http://www.w3.org/2000/svg" width="24" height="24" viewBox="0 0 24 24" fill="none" stroke-width="1.5" stroke-linecap="round" stroke-linejoin="round" color="currentColor"><path d="M8.43334 15.8199C8.63278 16.1041 8.75 16.4499 8.75 16.8223C8.75 17.7865 7.96421 18.5723 7 18.5723C6.03579 18.5723 5.25 17.7865 5.25 16.8223C5.25 15.8581 6.03579 15.0723 7 15.0723C7.04095 15.0723 7.08158 15.0737 7.12184 15.0765L9.07973 11.5623C7.93973 10.6623 7.25979 9.29227 7.25979 7.82227C7.25979 5.20227 9.38979 3.07227 12.0098 3.07227C14.6298 3.07227 16.7598 5.20227 16.7598 7.82227C16.7598 8.23227 16.4198 8.57227 16.0098 8.57227C15.5998 8.57227 15.2598 8.23227 15.2598 7.82227C15.2598 6.03227 13.7998 4.57227 12.0098 4.57227C10.2198 4.57227 8.75979 6.03227 8.75979 7.82227C8.75979 9.00227 9.39972 10.0922 10.4397 10.6722C10.7997 10.8722 10.9298 11.3323 10.7298 11.6923L8.43334 15.8199ZM12 9.57227C11.04 9.57227 10.25 8.78227 10.25 7.82227C10.25 6.86227 11.04 6.07227 12 6.07227C12.96 6.07227 13.75 6.86227 13.75 7.82227C13.75 8.19712 13.6295 8.54606 13.4256 8.83217L15.3798 12.3527C15.8898 12.1627 16.4398 12.0727 16.9998 12.0727C19.6198 12.0727 21.7498 14.2027 21.7498 16.8227C21.7498 19.4427 19.6198 21.5727 16.9998 21.5727C15.9198 21.5727 14.8598 21.2028 14.0298 20.5228C13.7098 20.2628 13.6598 19.7927 13.9198 19.4727C14.1798 19.1527 14.6497 19.1027 14.9697 19.3627C15.5497 19.8327 16.2498 20.0727 16.9998 20.0727C18.7898 20.0727 20.2498 18.6127 20.2498 16.8227C20.2498 15.0327 18.7898 13.5727 16.9998 13.5727C16.4398 13.5727 15.8998 13.7127 15.4298 13.9727C15.2598 14.0727 15.0498 14.0927 14.8598 14.0427C14.6698 13.9927 14.5098 13.8627 14.4098 13.6827L12.1206 9.56809C12.0807 9.57086 12.0405 9.57227 12 9.57227ZM5.42293 13.9786C5.78543 13.7782 5.91684 13.3219 5.71643 12.9594C5.51602 12.5969 5.05969 12.4655 4.69719 12.6659C3.23668 13.4733 2.25 15.0299 2.25 16.8223C2.25 19.4465 4.37579 21.5723 7 21.5723C9.369 21.5723 11.3318 19.8399 11.6912 17.5723H15.4193C15.7009 18.1628 16.3039 18.5723 17 18.5723C17.9642 18.5723 18.75 17.7865 18.75 16.8223C18.75 15.8581 17.9642 15.0723 17 15.0723C16.3039 15.0723 15.7009 15.4818 15.4193 16.0723H11C10.5858 16.0723 10.25 16.4081 10.25 16.8223C10.25 18.6181 8.79579 20.0723 7 20.0723C5.20421 20.0723 3.75 18.6181 3.75 16.8223C3.75 15.5946 4.42344 14.5312 5.42293 13.9786Z" fill="currentColor" fill-rule="evenodd"></path></svg>