<svg xmlns="http://www.w3.org/2000/svg" width="24" height="24" viewBox="0 0 24 24" fill="none" stroke-width="1.5" stroke-linecap="round" stroke-linejoin="round" color="currentColor"><path d="M10 1.5C8.37 1.5 7.25 2.86014 7.25 4.39014C7.25 6.23014 8.47002 7.64002 9.52002 8.52002C10.06 8.98002 10.59 9.32006 10.99 9.56006C11.2 9.68006 11.36 9.77008 11.48 9.83008C11.54 9.86008 11.59 9.89015 11.63 9.90015L11.67 9.91992H11.68C11.88 10.0199 12.12 10.0199 12.32 9.92993H12.33L12.37 9.90015C12.41 9.89015 12.46 9.86008 12.52 9.83008C12.64 9.77008 12.8 9.68006 13.01 9.56006C13.41 9.32006 13.94 8.98002 14.48 8.52002C15.53 7.64002 16.75 6.23014 16.75 4.39014C16.75 2.86014 15.63 1.5 14 1.5C13.41 1.5 12.88 1.62992 12.4 1.91992C12.26 2.00992 12.12 2.11998 12 2.22998C11.88 2.11998 11.74 2.00992 11.6 1.91992C11.12 1.62992 10.59 1.5 10 1.5ZM12.24 8.27002C12.15 8.32002 12.07 8.36991 12 8.40991C11.93 8.36991 11.85 8.32002 11.76 8.27002C11.41 8.06002 10.94 7.76012 10.48 7.37012C9.52998 6.58012 8.75 5.55014 8.75 4.39014C8.75 3.56014 9.32 3 10 3C10.36 3 10.61 3.07994 10.8 3.18994C10.99 3.30994 11.17 3.51008 11.33 3.83008C11.46 4.08008 11.72 4.23999 12 4.23999C12.28 4.23999 12.54 4.08008 12.67 3.83008C12.83 3.51008 13.01 3.30994 13.2 3.18994C13.39 3.07994 13.64 3 14 3C14.68 3 15.25 3.56014 15.25 4.39014C15.25 5.55014 14.47 6.58012 13.52 7.37012C13.06 7.76012 12.59 8.06002 12.24 8.27002ZM8.5 12C5.88 12 3.75 14.13 3.75 16.75C3.75 19.37 5.88 21.5 8.5 21.5C9.34 21.5 10.14 21.2801 10.82 20.8901C9.84001 19.7901 9.25 18.34 9.25 16.75C9.25 15.16 9.84001 13.7101 10.82 12.6101C10.14 12.2201 9.34 12 8.5 12ZM8.5 23C9.8 23 11 22.6099 12 21.9299C13 22.6099 14.2 23 15.5 23C18.95 23 21.75 20.2 21.75 16.75C21.75 13.3 18.95 10.5 15.5 10.5C14.2 10.5 13 10.8901 12 11.5701C11 10.8901 9.8 10.5 8.5 10.5C5.05 10.5 2.25 13.3 2.25 16.75C2.25 20.2 5.05 23 8.5 23ZM15.5 12C14.66 12 13.86 12.2201 13.18 12.6101C14.16 13.7101 14.75 15.16 14.75 16.75C14.75 18.34 14.16 19.7901 13.18 20.8901C13.86 21.2801 14.66 21.5 15.5 21.5C18.12 21.5 20.25 19.37 20.25 16.75C20.25 14.13 18.12 12 15.5 12ZM13.25 16.75C13.25 15.51 12.78 14.38 12 13.54C11.22 14.38 10.75 15.51 10.75 16.75C10.75 17.99 11.22 19.12 12 19.96C12.78 19.12 13.25 17.99 13.25 16.75Z" fill="currentColor" fill-rule="evenodd"></path></svg>