<svg xmlns="http://www.w3.org/2000/svg" width="24" height="24" viewBox="0 0 24 24" fill="none"><path d="M16.0858 9.91462C17.1694 9.9358 18.5635 9.69228 19.67 8.58588C21.0589 7.19698 21.088 5.35481 20.9407 4.24275C20.8581 3.61868 20.3813 3.14194 19.7572 3.05928C18.6451 2.91196 16.8028 2.94105 15.4138 4.32997C14.3148 5.42888 14.0671 6.81153 14.0846 7.89181M16.0858 9.91462C15.9446 9.91186 15.8087 9.9046 15.6793 9.89417M16.0858 9.91462C15.9535 9.90122 15.818 9.89417 15.6793 9.89417M16.0858 9.91462C17.7052 10.0786 18.8456 11.1947 19.469 12.0004C19.8582 12.5033 19.8611 13.1857 19.4691 13.6864C19.3638 13.8209 19.2436 13.9636 19.1085 14.1085M15.6793 9.89417C14.8924 9.83072 14.3498 9.64986 14.3498 9.64986C14.3498 9.64986 14.1009 8.90341 14.0846 7.89181M14.0846 7.89181C14.094 8.00294 14.0989 8.11643 14.0989 8.23229M14.0846 7.89181C13.9443 6.23474 12.8026 5.10369 11.9874 4.49861C11.49 4.12939 10.8268 4.13436 10.3373 4.514C10.1962 4.62342 10.0455 4.74953 9.89235 4.89235M7.95106 16.0489C7.25134 16.7534 6.90148 17.4531 6.90148 17.4531C6.90148 17.4531 8.3202 20.2903 11.1576 20.2903C12.9769 20.2903 14.213 19.1239 14.8658 18.2868C15.253 17.7904 15.253 17.1157 14.8658 16.6193C14.213 15.7822 12.9769 14.6158 11.1576 14.6158C9.74838 14.6158 8.68909 15.3157 7.97977 16.0202M7.95106 16.0489C7.96056 16.0394 7.97013 16.0298 7.97977 16.0202M7.95106 16.0489L7.97977 16.0202M7.95106 16.0489L3 21M7.97977 16.0202L11.5 12.5M8.32112 8.32112C8.37933 11.0993 11.1576 12.4883 11.1576 12.4883M15.6793 15.6793C12.9013 15.6208 11.5123 12.843 11.5123 12.843M3.70936 12.8425C3.70936 15.6798 6.5468 17.0984 6.5468 17.0984C6.5468 17.0984 9.38424 15.6798 9.38424 12.8425C9.38424 11.0232 8.21763 9.78721 7.3805 9.13446C6.88408 8.74739 6.20952 8.74739 5.71311 9.13446C4.87597 9.78721 3.70936 11.0232 3.70936 12.8425Z" stroke="currentColor" stroke-linecap="round" stroke-linejoin="round" stroke-width="1.5" /><path d="M3 3L21 21" stroke="currentColor" stroke-linecap="round" stroke-linejoin="round" stroke-width="1.5" /></svg>