<svg xmlns="http://www.w3.org/2000/svg" width="24" height="24" viewBox="0 0 24 24" fill="none" stroke-width="1.5" stroke-linecap="round" stroke-linejoin="round" color="currentColor"><path d="M9.94172 3.50009H14.0017C14.4117 3.50009 14.7517 3.84009 14.7517 4.25009C14.7517 4.66009 14.4117 5.00009 14.0017 5.00009H10.0017C8.09172 5.00009 6.74172 5.00022 5.71172 5.14022C4.70172 5.28022 4.12172 5.53004 3.70172 5.95004C3.28172 6.38004 3.02172 6.95005 2.89172 7.96005C2.80172 8.64005 2.77172 9.46008 2.76172 10.4901L3.98172 9.31015C5.10172 8.23015 6.90172 8.23015 8.02172 9.31015C9.15172 10.4101 9.15172 12.1901 8.02172 13.2901C7.50172 13.8001 7.50172 14.6002 8.02172 15.1102C8.56172 15.6302 9.44172 15.6302 9.98172 15.1102L10.4817 14.6302C10.7817 14.3402 11.2517 14.3502 11.5417 14.6502C11.8317 14.9402 11.8217 15.42 11.5217 15.71L11.0217 16.19C9.90172 17.27 8.10172 17.27 6.98172 16.19C5.85172 15.09 5.85172 13.31 6.98172 12.21C7.50172 11.7 7.50172 10.9002 6.98172 10.3902C6.44172 9.87022 5.56172 9.87022 5.02172 10.3902L2.75172 12.5802C2.75172 14.3202 2.75172 15.5701 2.89172 16.5401C3.03172 17.5501 3.28172 18.1201 3.70172 18.5501C4.12172 18.9701 4.70172 19.2202 5.71172 19.3602C6.74172 19.5002 8.09172 19.5001 10.0017 19.5001H14.0017C15.4217 19.5001 16.4317 19.5 17.2117 19.42C17.9817 19.34 18.4417 19.19 18.8117 18.95C19.1617 18.72 19.4717 18.4101 19.7117 18.0601C19.9517 17.6901 20.1017 17.23 20.1817 16.46C20.2617 15.68 20.2617 14.6701 20.2617 13.2501C20.2617 12.8401 20.6017 12.5001 21.0117 12.5001C21.4217 12.5001 21.7617 12.8401 21.7617 13.2501V13.2901C21.7617 14.6601 21.7617 15.7502 21.6717 16.6102C21.5817 17.5002 21.3917 18.2402 20.9617 18.8902C20.6117 19.4102 20.1717 19.85 19.6517 20.2C19.0017 20.63 18.2617 20.82 17.3717 20.91C16.5017 21 15.4217 21.0001 14.0517 21.0001H9.95172C8.11172 21.0001 6.66172 21.0002 5.52172 20.8502C4.35172 20.6902 3.40172 20.3602 2.65172 19.6102C1.90172 18.8602 1.57172 17.9101 1.41172 16.7401C1.26172 15.6001 1.26172 14.1401 1.26172 12.3101V12.2701V12.19C1.26172 10.36 1.26172 8.9001 1.41172 7.7601C1.57172 6.5901 1.90172 5.64022 2.65172 4.89022C3.40172 4.14022 4.35172 3.81023 5.52172 3.65023C6.66172 3.50023 8.11172 3.50009 9.95172 3.50009H9.94172ZM21.7117 4.16C20.8317 3.28 19.4117 3.28 18.5317 4.16L13.0517 9.63021C12.5317 10.1502 12.2417 10.8502 12.2417 11.5802V13.2501C12.2417 13.6601 12.5817 14.0001 12.9917 14.0001H14.6617C15.3917 14.0001 16.0917 13.71 16.6017 13.19L22.0817 7.72006C22.9617 6.84006 22.9617 5.42013 22.0817 4.54013L21.7017 4.16H21.7117ZM19.5917 5.22006C19.8817 4.93006 20.3617 4.93006 20.6517 5.22006L21.0317 5.60019C21.3217 5.89019 21.3217 6.37 21.0317 6.66L15.5517 12.1302C15.3217 12.3702 15.0017 12.5001 14.6717 12.5001H13.7517V11.5802C13.7517 11.2502 13.8817 10.93 14.1217 10.69L19.6017 5.22006H19.5917Z" fill="currentColor" fill-rule="evenodd"></path></svg>