<svg xmlns="http://www.w3.org/2000/svg" width="24" height="24" viewBox="0 0 24 24" fill="none"><path d="M8.25 17.0001C8.67265 16.5774 9.16229 16.2441 9.6906 16.0001M15.75 17.0001C15.3274 16.5774 14.8377 16.2441 14.3094 16.0001" stroke="currentColor" stroke-linecap="round" stroke-linejoin="round" stroke-width="1.5" /><path d="M18.5 14.0001C17.4308 13.0692 16.2435 12.4026 15 12.0001M5.5 14.0001C6.59299 13.1038 7.778 12.4525 9 12.046" stroke="currentColor" stroke-linecap="round" stroke-linejoin="round" stroke-width="1.5" /><path d="M2 11.0001C3.92227 9.37683 5.94206 8.13533 8 7.50018M22 11C20.0778 9.37678 18.0579 8.13532 16 7.50018" stroke="currentColor" stroke-linecap="round" stroke-linejoin="round" stroke-width="1.5" /><path d="M12 20H12.0118" stroke="currentColor" stroke-linecap="round" stroke-linejoin="round" stroke-width="2" /><path d="M13.5864 4.32714C12.6577 3.89104 11.3422 3.89102 10.4136 4.32714C10.0852 4.48134 9.95517 4.84478 10.0135 5.19157L12 17.0001L13.9865 5.19159C14.0448 4.84479 13.9148 4.48134 13.5864 4.32714Z" stroke="currentColor" stroke-linecap="round" stroke-linejoin="round" stroke-width="1.5" /></svg>