<svg xmlns="http://www.w3.org/2000/svg" width="24" height="24" viewBox="0 0 24 24" fill="none" stroke-width="1.5" stroke-linecap="round" stroke-linejoin="round" color="currentColor"><path d="M2.5 12C2.5 7.52166 2.5 5.28249 3.89124 3.89124C5.28249 2.5 7.52166 2.5 12 2.5C16.4783 2.5 18.7175 2.5 20.1088 3.89124C21.5 5.28249 21.5 7.52166 21.5 12C21.5 16.4783 21.5 18.7175 20.1088 20.1088C18.7175 21.5 16.4783 21.5 12 21.5C7.52166 21.5 5.28249 21.5 3.89124 20.1088C2.5 18.7175 2.5 16.4783 2.5 12Z" stroke="currentColor"></path><path d="M8 10.3136C9.14883 9.48279 10.5209 9 11.9946 9C13.4729 9 14.849 9.48584 16 10.3214M14.1743 13C13.5182 12.6363 12.7779 12.4317 11.9946 12.4317C11.2152 12.4317 10.4784 12.6343 9.82477 12.9945" stroke="currentColor"></path><path d="M12 16H12.0064" stroke="currentColor"></path></svg>