<svg xmlns="http://www.w3.org/2000/svg" width="24" height="24" viewBox="0 0 24 24" fill="none" stroke-width="1.5" stroke-linecap="round" stroke-linejoin="round" color="currentColor"><path d="M18.5 9.99761C14.7324 6.66535 9.5 6.66535 5.5 9.99761" fill="none"></path><path d="M2 6.9986C8.31579 1.66699 15.6842 1.66698 22 6.99849" fill="none"></path><path d="M11.9933 14.9853V16.4964M11.9933 18.4673V18.4984M12.1444 12.0075C12.4933 11.9942 13.375 12.163 14.2349 13.6825L16.3884 17.3742C17.2109 18.5922 17.6154 20.7778 14.5873 20.9418L12 21.0002L9.3841 20.926C6.35606 20.7621 6.82207 18.5938 7.58302 17.3585L9.73652 13.6667C10.5964 12.1473 11.4781 11.9784 11.8271 11.9918L12.1444 12.0075Z" fill="none"></path></svg>