<svg xmlns="http://www.w3.org/2000/svg" width="24" height="24" viewBox="0 0 24 24" fill="none" stroke-width="1.5" stroke-linecap="round" stroke-linejoin="round" color="currentColor"><path d="M13.9862 21.0653C15.6932 21.3482 16.9771 21.561 18 21.561L17.99 21.5711C19.01 21.5711 19.76 21.361 20.42 20.811C21.75 19.6911 21.75 17.9312 21.75 14.4414V14.4411V12.311V10.2011V10.2007C21.75 6.71095 21.75 4.96103 20.42 3.83107C19.1 2.72107 17.36 3.00107 13.9 3.58107L14.01 4.32106L13.89 3.58107L10.9793 4.06132C10.9114 4.06322 10.8456 4.07443 10.783 4.09371L7.89001 4.57106C5.40001 4.98106 4.03001 5.21111 3.14001 6.25111C2.25001 7.30111 2.25 8.68105 2.25 11.1911V12.311V13.431C2.25 15.941 2.25001 17.3311 3.14001 18.3811C4.02885 19.4098 5.39644 19.6404 7.88026 20.0594L7.89001 20.061L13.9 21.051L13.9862 21.0653ZM3.75 13.061V13.431C3.75 15.811 3.77003 16.801 4.28003 17.411C4.80435 18.0244 5.89627 18.2072 8.05931 18.5692L8.13 18.5811L10.25 18.9309V13.061H3.75ZM11.75 19.1784V13.061H20.25V14.431C20.25 17.471 20.25 18.991 19.46 19.661C18.66 20.321 17.15 20.0711 14.13 19.5711L11.75 19.1784ZM20.25 11.561H11.75V5.44373L14.13 5.05104H14.14C15.86 4.76104 17.09 4.56105 17.97 4.56105C18.64 4.56105 19.11 4.67107 19.45 4.96107C20.25 5.64107 20.25 7.16105 20.25 10.1911V11.561ZM10.25 5.69123V11.561H3.75V11.1911C3.75 8.81105 3.77003 7.82108 4.28003 7.22108C4.80446 6.5977 5.89674 6.41486 8.0607 6.05263L8.13 6.04103L10.25 5.69123Z" fill="currentColor" fill-rule="evenodd"></path></svg>