<svg xmlns="http://www.w3.org/2000/svg" width="24" height="24" viewBox="0 0 24 24" fill="none" stroke-width="1.5" stroke-linecap="round" stroke-linejoin="round" color="currentColor"><path d="M12 22.0723H13C16.98 22.0723 18.97 22.0723 20.36 20.6823C21.75 19.2923 21.75 17.3023 21.75 13.3223V12.3223V11.3223C21.75 7.34227 21.75 5.35228 20.36 3.96228C18.97 2.57228 16.98 2.57227 13 2.57227H12H11C7.02 2.57227 5.03001 2.57228 3.64001 3.96228C2.25001 5.35228 2.25 7.34227 2.25 11.3223V12.3223V13.3223C2.25 17.3023 2.25001 19.2923 3.64001 20.6823C5.03001 22.0723 7.02 22.0723 11 22.0723H12ZM12.75 20.5723H13H13.0006C16.5602 20.5723 18.3501 20.5723 19.3 19.6223C20.25 18.6724 20.25 16.8825 20.25 13.3228V13.3223V13.0723H12.75V20.5723ZM20.25 11.5723V11.3223V11.3217C20.25 7.76208 20.25 5.97229 19.3 5.02234C18.35 4.07234 16.56 4.07227 13 4.07227H12.75V11.5723H20.25ZM11.25 20.5723V13.0723H3.75V13.3223V13.3228C3.75 16.8825 3.75 18.6724 4.69995 19.6223C5.6499 20.5723 7.43981 20.5723 10.9994 20.5723H11H11.25ZM3.75 11.5723H11.25V4.07227H11C7.44 4.07227 5.64995 4.07234 4.69995 5.02234C3.75 5.97229 3.75 7.76208 3.75 11.3217V11.3223V11.5723Z" fill="currentColor" fill-rule="evenodd"></path></svg>