<svg xmlns="http://www.w3.org/2000/svg" width="24" height="24" viewBox="0 0 24 24" fill="none" stroke-width="1.5" stroke-linecap="round" stroke-linejoin="round" color="currentColor"><path d="M9.24805 4.25C9.24805 5.77 10.478 7 11.998 7C13.518 7 14.748 5.77 14.748 4.25C14.748 2.73 13.518 1.5 11.998 1.5C10.478 1.5 9.24805 2.73 9.24805 4.25ZM10.748 4.25C10.748 3.56 11.308 3 11.998 3C12.688 3 13.248 3.56 13.248 4.25C13.248 4.94 12.688 5.5 11.998 5.5C11.308 5.5 10.748 4.94 10.748 4.25ZM9.7674 22.49C10.2774 23 10.9274 23 11.9974 23V22.99C13.0674 22.99 13.7174 22.99 14.2374 22.47C14.7474 21.96 14.7474 21.31 14.7474 20.24V16.99C16.2174 16.98 17.0574 16.9101 17.5274 16.1501C18.0674 15.3001 17.5774 14.4099 16.7574 12.9399L14.9574 9.69995C14.3674 8.64995 13.2374 8 11.9974 8C10.7574 8 9.6274 8.65996 9.0374 9.70996L7.2374 12.95L7.21467 12.9912C6.4181 14.4367 5.93247 15.3179 6.4674 16.1599C6.9374 16.9199 7.7874 17 9.2474 17V20.25C9.2474 21.32 9.2474 21.96 9.7674 22.49ZM10.3474 10.4399C10.6774 9.85994 11.3074 9.5 11.9974 9.5V9.53003C12.6974 9.53003 13.3274 9.87996 13.6474 10.46L15.4474 13.7C15.4958 13.7891 15.5453 13.8797 15.5948 13.9703C15.9344 14.5914 16.2749 15.2143 16.2574 15.3801C16.0875 15.52 15.1189 15.52 14.2594 15.52H14.2574H13.9974C13.5874 15.52 13.2474 15.86 13.2474 16.27V20.27C13.2474 20.77 13.2474 21.38 13.1774 21.45C12.9574 21.59 11.0274 21.58 10.8274 21.45C10.7474 21.36 10.7474 20.75 10.7474 20.26V16.26C10.7474 15.85 10.4074 15.51 9.9974 15.51H9.7374H9.73468C8.87536 15.51 7.90723 15.51 7.7474 15.3901C7.7174 15.1701 8.1574 14.3799 8.5474 13.6799L10.3474 10.4399Z" fill="currentColor" fill-rule="evenodd"></path></svg>