<svg xmlns="http://www.w3.org/2000/svg" width="24" height="24" viewBox="0 0 24 24" fill="none" stroke-width="1.5" stroke-linecap="round" stroke-linejoin="round" color="currentColor"><path d="M11.95 2.5H12.05C12.95 2.5 13.7 2.50008 14.29 2.58008C14.92 2.66008 15.48 2.85006 15.94 3.31006C16.4 3.76006 16.58 4.32996 16.67 4.95996C16.73 5.38996 16.74 5.91001 16.75 6.51001C17.36 6.52001 17.89 6.54009 18.36 6.59009C19.25 6.68009 19.99 6.87005 20.64 7.30005C21.16 7.65005 21.6 8.09011 21.95 8.61011C22.38 9.26011 22.57 10.0001 22.66 10.8901C22.75 11.7501 22.75 12.84 22.75 14.21V14.29C22.75 15.66 22.75 16.7501 22.66 17.6101C22.57 18.5001 22.38 19.2401 21.95 19.8901C21.6 20.4101 21.16 20.85 20.64 21.2C19.99 21.63 19.25 21.8199 18.36 21.9099C17.49 21.9999 16.41 22 15.04 22H8.96C7.59 22 6.51 21.9999 5.64 21.9099C4.75 21.8199 4.01 21.63 3.36 21.2C2.84 20.85 2.4 20.4101 2.05 19.8901C1.62 19.2401 1.43 18.5001 1.34 17.6101C1.25 16.7501 1.25 15.66 1.25 14.29V14.21C1.25 12.84 1.25 11.7501 1.34 10.8901C1.43 10.0001 1.62 9.26011 2.05 8.61011C2.4 8.09011 2.84 7.65005 3.36 7.30005C4.01 6.87005 4.75 6.68009 5.64 6.59009C6.11 6.54009 6.64 6.52001 7.25 6.51001C7.25 5.91001 7.27 5.38996 7.33 4.95996C7.41 4.32996 7.6 3.76006 8.06 3.31006C8.52 2.85006 9.08 2.66008 9.71 2.58008C10.3 2.50008 11.05 2.5 11.95 2.5ZM15.18 5.15991C15.23 5.49991 15.24 5.93 15.24 6.5H8.74C8.74 5.93 8.76 5.49991 8.8 5.15991C8.86 4.68991 8.97 4.50012 9.1 4.37012C9.23 4.24012 9.43 4.13007 9.89 4.07007C10.37 4.00007 11.02 4 11.98 4C12.94 4 13.59 4.00007 14.07 4.07007C14.53 4.13007 14.73 4.24012 14.86 4.37012C14.99 4.50012 15.1 4.68991 15.16 5.15991H15.18ZM5.79 8.08008C5.02 8.16008 4.56 8.31005 4.19 8.55005C3.84 8.78005 3.53 9.08994 3.29 9.43994C3.05 9.80994 2.9 10.27 2.82 11.04C2.74 11.82 2.74 12.83 2.74 14.25C2.74 15.67 2.74 16.68 2.82 17.46C2.9 18.23 3.05 18.6901 3.29 19.0601C3.53 19.4101 3.83 19.72 4.19 19.95C4.55 20.19 5.02 20.3399 5.79 20.4199C6.57 20.4999 7.58 20.5 9 20.5H15C16.42 20.5 17.43 20.4999 18.21 20.4199C18.98 20.3399 19.44 20.19 19.81 19.95C20.16 19.72 20.47 19.4101 20.71 19.0601C20.95 18.6901 21.1 18.23 21.18 17.46C21.26 16.68 21.26 15.67 21.26 14.25C21.26 12.83 21.26 11.82 21.18 11.04C21.1 10.27 20.95 9.80994 20.71 9.43994C20.47 9.08994 20.17 8.78005 19.81 8.55005C19.45 8.31005 18.98 8.16008 18.21 8.08008C17.43 8.00008 16.42 8 15 8H9C7.58 8 6.57 8.00008 5.79 8.08008ZM6.22 10.53C5.82 10.41 5.4 10.63 5.28 11.03C5.16 11.42 5.38 11.84 5.77 11.97L6.42 12.1699C7.97 12.6499 9.6 12.92 11.24 12.99V14.25C11.24 14.66 11.58 15 11.99 15C12.4 15 12.74 14.66 12.74 14.25V12.99C14.38 12.92 16.01 12.6499 17.56 12.1699L18.21 11.97C18.61 11.84 18.83 11.42 18.7 11.03C18.58 10.63 18.16 10.41 17.76 10.53L17.11 10.74C13.82 11.75 10.15 11.75 6.86 10.74L6.21 10.53H6.22Z" fill="currentColor" fill-rule="evenodd"></path></svg>