<svg xmlns="http://www.w3.org/2000/svg" width="24" height="24" viewBox="0 0 24 24" fill="none" stroke-width="1.5" stroke-linecap="round" stroke-linejoin="round" color="currentColor"><path d="M2.5 12C2.5 7.52166 2.5 5.28249 3.89124 3.89124C5.28249 2.5 7.52166 2.5 12 2.5C16.4783 2.5 18.7175 2.5 20.1088 3.89124C21.5 5.28249 21.5 7.52166 21.5 12C21.5 16.4783 21.5 18.7175 20.1088 20.1088C18.7175 21.5 16.4783 21.5 12 21.5C7.52166 21.5 5.28249 21.5 3.89124 20.1088C2.5 18.7175 2.5 16.4783 2.5 12Z" stroke="currentColor"></path><path d="M16 9C12.8164 9 11.1837 15.0208 8 15.0208" stroke="currentColor"></path><path d="M15.54 15.0208C14.7312 15.0208 14.2868 15.0208 13.9458 14.8998C13.7522 14.831 13.5759 14.7349 13.4256 14.6161C13.1609 14.4069 13.0157 14.1072 12.7254 13.5079L11.2746 10.5129C10.9842 9.91359 10.839 9.61391 10.5744 9.40473C10.424 9.28591 10.2477 9.18978 10.0541 9.12103C9.71317 9 9.26877 9 8.45996 9" stroke="currentColor"></path></svg>