<svg xmlns="http://www.w3.org/2000/svg" width="24" height="24" viewBox="0 0 24 24" fill="none" stroke-width="1.5" stroke-linecap="round" stroke-linejoin="round" color="currentColor"><path d="M8 13L9.70791 15.5M9.70791 15.5L11.4158 18M9.70791 15.5L11.4158 13M9.70791 15.5L8 18M16.5619 18H15.7079C14.9028 18 14.5002 18 14.2501 17.7559C14 17.5118 14 17.119 14 16.3333V13M20.7281 13H19.779C19.3997 13 19.21 13 19.0604 13.0634C18.5577 13.2766 18.5578 13.7739 18.5579 14.2316V14.2684C18.5578 14.7261 18.5577 15.2234 19.0604 15.4366C19.21 15.5 19.3997 15.5 19.779 15.5C20.1583 15.5 20.3479 15.5 20.4975 15.5634C21.0002 15.7766 21.0001 16.2739 21 16.7316V16.7684C21.0001 17.2261 21.0002 17.7234 20.4975 17.9366C20.3479 18 20.1583 18 19.779 18H18.7452" stroke="currentColor"></path><path d="M15 22H10.7273C7.46607 22 5.83546 22 4.70307 21.2022C4.37862 20.9736 4.09058 20.7025 3.8477 20.3971C3 19.3313 3 17.7966 3 14.7273V12.1818C3 9.21865 3 7.73706 3.46894 6.55375C4.22281 4.65142 5.81714 3.15088 7.83836 2.44135C9.09563 2 10.6698 2 13.8182 2C15.6173 2 16.5168 2 17.2352 2.2522C18.3902 2.65765 19.3012 3.5151 19.732 4.60214C20 5.27832 20 6.12494 20 7.81818V10" stroke="currentColor"></path><path d="M3 12C3 10.1591 4.49238 8.66667 6.33333 8.66667C6.99912 8.66667 7.78404 8.78333 8.43137 8.60988C9.00652 8.45576 9.45576 8.00652 9.60988 7.43136C9.78333 6.78404 9.66667 5.99912 9.66667 5.33333C9.66667 3.49238 11.1591 2 13 2" stroke="currentColor"></path></svg>