<svg xmlns="http://www.w3.org/2000/svg" width="24" height="24" viewBox="0 0 24 24" fill="none"><path d="M18.5016 19.1217L21 21.6217M20 15.1217C20 12.0842 17.5376 9.62173 14.5 9.62173C11.4624 9.62173 9 12.0842 9 15.1217C9 18.1593 11.4624 20.6217 14.5 20.6217C17.5376 20.6217 20 18.1593 20 15.1217Z" stroke="currentColor" stroke-linecap="round" stroke-linejoin="round" stroke-width="1.5" /><path d="M14.5 13.1217V17.1217M16.5 15.1217H12.5" stroke="currentColor" stroke-linecap="round" stroke-linejoin="round" stroke-width="1.5" /><path d="M10 3.62173H14M3 10.6217V14.6217M6.5 21.6217C4.567 21.6217 3 20.0547 3 18.1217M17.5 3.62173C19.433 3.62173 21 5.18873 21 7.12173M3 7.12173C3 5.18873 4.567 3.62173 6.5 3.62173" stroke="currentColor" stroke-linecap="round" stroke-linejoin="round" stroke-width="1.5" /></svg>