<svg xmlns="http://www.w3.org/2000/svg" width="24" height="24" viewBox="0 0 24 24" fill="none" stroke-width="1.5" stroke-linecap="round" stroke-linejoin="round" color="currentColor"><path d="M12.0499 2.85156H11.95C10.12 2.85156 8.67992 2.85156 7.53992 2.97156C6.36992 3.10156 5.43 3.36156 4.62 3.94156C4.13 4.30156 3.69998 4.72156 3.34998 5.21156C2.75998 6.02156 2.5 6.96156 2.37 8.13156C2.25 9.27156 2.25 10.7116 2.25 12.5516V12.6416C2.25 14.4816 2.25 15.9216 2.37 17.0616C2.5 18.2316 2.75998 19.1716 3.34998 19.9816C3.69998 20.4716 4.13 20.9016 4.62 21.2516C5.43 21.8416 6.36992 22.1016 7.53992 22.2216C8.67992 22.3416 10.12 22.3416 11.95 22.3416H12.0499C13.8799 22.3416 15.32 22.3416 16.46 22.2216C17.63 22.0916 18.57 21.8316 19.38 21.2516C19.87 20.8916 20.2999 20.4716 20.6499 19.9816C21.2399 19.1716 21.5 18.2316 21.63 17.0616C21.75 15.9216 21.75 14.4816 21.75 12.6416V12.5516C21.75 10.7116 21.75 9.27156 21.63 8.13156C21.5 6.96156 21.2399 6.02156 20.6499 5.21156C20.2999 4.72156 19.87 4.29156 19.38 3.94156C18.57 3.35156 17.63 3.09156 16.46 2.97156C15.32 2.85156 13.8799 2.85156 12.0499 2.85156ZM5.5 5.16156C6.01 4.79156 6.65995 4.57156 7.69995 4.46156C8.74995 4.35156 10.11 4.35156 12 4.35156C13.89 4.35156 15.2499 4.35156 16.2999 4.46156C17.3399 4.57156 17.99 4.79156 18.5 5.16156C18.86 5.42156 19.1799 5.74156 19.4399 6.10156C19.8099 6.61156 20.0199 7.26156 20.1399 8.30156C20.2499 9.35156 20.25 10.7116 20.25 12.6016C20.25 14.4916 20.2499 15.8516 20.1399 16.9016C20.0199 17.9416 19.8099 18.5916 19.4399 19.1016C19.1799 19.4616 18.86 19.7816 18.5 20.0416C17.99 20.4116 17.3399 20.6316 16.2999 20.7416C15.2499 20.8516 13.89 20.8516 12 20.8516C10.11 20.8516 8.74995 20.8516 7.69995 20.7416C6.65995 20.6316 6.01 20.4116 5.5 20.0416C5.14 19.7816 4.81994 19.4616 4.55994 19.1016C4.18994 18.5916 3.98 17.9416 3.87 16.9016C3.75 15.8516 3.75 14.4916 3.75 12.6016C3.75 10.7116 3.75 9.35156 3.87 8.30156C3.98 7.26156 4.18994 6.61156 4.55994 6.10156C4.81994 5.74156 5.14 5.42156 5.5 5.16156ZM16.59 8.07156C16.84 7.75156 16.79 7.27156 16.47 7.02156C16.15 6.76156 15.6699 6.81156 15.4099 7.14156L7.40991 17.1416C7.15991 17.4616 7.20991 17.9316 7.52991 18.1916C7.84991 18.4516 8.32997 18.4016 8.58997 18.0716L16.59 8.07156Z" fill="currentColor" fill-rule="evenodd"></path></svg>