<svg xmlns="http://www.w3.org/2000/svg" width="24" height="24" viewBox="0 0 24 24" fill="none" stroke-width="1.5" stroke-linecap="round" stroke-linejoin="round" color="currentColor"><path d="M10.9766 13.0723H3.97656C3.68656 13.0723 3.41651 12.9023 3.29651 12.6323C3.17651 12.3623 3.2165 12.0523 3.4165 11.8323L9.32654 5.07227H3.97656C3.56656 5.07227 3.22656 4.73227 3.22656 4.32227C3.22656 3.91227 3.56656 3.57227 3.97656 3.57227H10.9766C11.2666 3.57227 11.5366 3.74227 11.6566 4.01227C11.7766 4.28227 11.7366 4.59232 11.5366 4.81232L5.62659 11.5723H10.9766C11.3866 11.5723 11.7266 11.9123 11.7266 12.3223C11.7266 12.7323 11.3866 13.0723 10.9766 13.0723ZM9.97656 21.0723H5.97656C5.67656 21.0723 5.39662 20.8923 5.28662 20.6123C5.16662 20.3323 5.23653 20.0123 5.44653 19.7923L8.1665 17.0723H5.97656C5.56656 17.0723 5.22656 16.7323 5.22656 16.3223C5.22656 15.9123 5.56656 15.5723 5.97656 15.5723H9.97656C10.2766 15.5723 10.5565 15.7523 10.6665 16.0323C10.7865 16.3123 10.7166 16.6323 10.5066 16.8523L7.78662 19.5723H9.97656C10.3866 19.5723 10.7266 19.9123 10.7266 20.3223C10.7266 20.7323 10.3866 21.0723 9.97656 21.0723ZM13.9766 16.0723H19.9766C20.3866 16.0723 20.7266 15.7323 20.7266 15.3223C20.7266 14.9123 20.3866 14.5723 19.9766 14.5723H15.7866L20.5066 9.85229C20.7166 9.6323 20.7865 9.31229 20.6665 9.03229C20.5565 8.75229 20.2766 8.57227 19.9766 8.57227H13.9766C13.5666 8.57227 13.2266 8.91227 13.2266 9.32227C13.2266 9.73227 13.5666 10.0723 13.9766 10.0723H18.1665L13.4465 14.7923C13.2365 15.0123 13.1666 15.3323 13.2866 15.6123C13.3966 15.8923 13.6766 16.0723 13.9766 16.0723Z" fill="currentColor" fill-rule="evenodd"></path></svg>